<?xml version="1.0" encoding="utf-8" standalone="no"?>
<!DOCTYPE svg PUBLIC "-//W3C//DTD SVG 1.1//EN"
  "http://www.w3.org/Graphics/SVG/1.1/DTD/svg11.dtd">
<svg xmlns:xlink="http://www.w3.org/1999/xlink" width="720pt" height="288pt" viewBox="0 0 720 288" xmlns="http://www.w3.org/2000/svg" version="1.1">
 <metadata>
  <rdf:RDF xmlns:dc="http://purl.org/dc/elements/1.1/" xmlns:cc="http://creativecommons.org/ns#" xmlns:rdf="http://www.w3.org/1999/02/22-rdf-syntax-ns#">
   <cc:Work>
    <dc:type rdf:resource="http://purl.org/dc/dcmitype/StillImage"/>
    <dc:date>2024-07-29T14:17:37.984006</dc:date>
    <dc:format>image/svg+xml</dc:format>
    <dc:creator>
     <cc:Agent>
      <dc:title>Matplotlib v3.8.2, https://matplotlib.org/</dc:title>
     </cc:Agent>
    </dc:creator>
   </cc:Work>
  </rdf:RDF>
 </metadata>
 <defs>
  <style type="text/css">*{stroke-linejoin: round; stroke-linecap: butt}</style>
 </defs>
 <g id="figure_1">
  <g id="patch_1">
   <path d="M 0 288 
L 720 288 
L 720 0 
L 0 0 
z
" style="fill: #ffffff"/>
  </g>
  <g id="axes_1">
   <g id="patch_2">
    <path d="M 236.123766 144.883188 
C 236.123766 132.316627 233.648428 119.872261 228.839413 108.262273 
C 224.030399 96.652285 216.981231 86.10246 208.095331 77.21656 
C 199.209431 68.33066 188.659606 61.281492 177.049618 56.472478 
C 165.43963 51.663463 152.995264 49.188125 140.428703 49.188125 
C 127.862143 49.188125 115.417776 51.663463 103.807788 56.472478 
C 92.1978 61.281492 81.647976 68.33066 72.762076 77.21656 
C 63.876176 86.10246 56.827008 96.652285 52.017994 108.262273 
C 47.208979 119.872261 44.733641 132.316627 44.733641 144.883188 
C 44.733641 157.449748 47.208979 169.894114 52.017994 181.504102 
C 56.827008 193.11409 63.876176 203.663915 72.762076 212.549815 
C 81.647976 221.435715 92.1978 228.484883 103.807788 233.293897 
C 115.417776 238.102912 127.862143 240.57825 140.428703 240.57825 
C 152.995264 240.57825 165.43963 238.102912 177.049618 233.293897 
C 188.659606 228.484883 199.209431 221.435715 208.095331 212.549815 
C 216.981231 203.663915 224.030399 193.11409 228.839413 181.504102 
C 233.648428 169.894114 236.123766 157.449748 236.123766 144.883188 
M 140.428703 144.883188 
C 140.428703 144.883188 140.428703 144.883188 140.428703 144.883188 
C 140.428703 144.883188 140.428703 144.883188 140.428703 144.883188 
C 140.428703 144.883188 140.428703 144.883188 140.428703 144.883188 
C 140.428703 144.883188 140.428703 144.883188 140.428703 144.883188 
C 140.428703 144.883188 140.428703 144.883188 140.428703 144.883188 
C 140.428703 144.883188 140.428703 144.883188 140.428703 144.883188 
C 140.428703 144.883188 140.428703 144.883188 140.428703 144.883188 
C 140.428703 144.883188 140.428703 144.883188 140.428703 144.883188 
C 140.428703 144.883188 140.428703 144.883188 140.428703 144.883188 
C 140.428703 144.883188 140.428703 144.883188 140.428703 144.883188 
C 140.428703 144.883188 140.428703 144.883188 140.428703 144.883188 
C 140.428703 144.883188 140.428703 144.883188 140.428703 144.883188 
C 140.428703 144.883188 140.428703 144.883188 140.428703 144.883188 
C 140.428703 144.883188 140.428703 144.883188 140.428703 144.883188 
C 140.428703 144.883188 140.428703 144.883188 140.428703 144.883188 
C 140.428703 144.883188 140.428703 144.883188 140.428703 144.883188 
z
" style="fill: #ffffff"/>
   </g>
   <g id="patch_3">
    <path d="M 140.428703 144.883188 
C 140.428703 144.883188 140.428703 144.883188 140.428703 144.883188 
C 140.428703 144.883188 140.428703 144.883188 140.428703 144.883188 
L 152.621588 71.459193 
C 150.607533 71.124736 148.580569 70.873291 146.54584 70.705495 
C 144.511111 70.537699 142.470339 70.453694 140.428703 70.453694 
z
" clip-path="url(#pad3dcc8ed7)" style="fill: #408000; opacity: 0.5; stroke: #408000; stroke-width: 3; stroke-linejoin: miter"/>
   </g>
   <g id="patch_4">
    <path d="M 140.428703 144.883188 
L 140.428703 144.883188 
L 155.358766 54.976255 
L 155.358766 54.976255 
z
" clip-path="url(#pad3dcc8ed7)" style="fill: #408000; stroke: #408000; stroke-width: 3; stroke-linejoin: miter"/>
   </g>
   <g id="patch_5">
    <path d="M 140.428703 144.883188 
C 140.428703 144.883188 140.428703 144.883188 140.428703 144.883188 
C 140.428703 144.883188 140.428703 144.883188 140.428703 144.883188 
C 140.428703 144.883188 140.428703 144.883188 140.428703 144.883188 
C 140.428703 144.883188 140.428703 144.883188 140.428703 144.883188 
C 140.428703 144.883188 140.428703 144.883188 140.428703 144.883188 
C 140.428703 144.883188 140.428703 144.883188 140.428703 144.883188 
C 140.428703 144.883188 140.428703 144.883188 140.428703 144.883188 
C 140.428703 144.883188 140.428703 144.883188 140.428703 144.883188 
C 140.428703 144.883188 140.428703 144.883188 140.428703 144.883188 
C 140.428703 144.883188 140.428703 144.883188 140.428703 144.883188 
C 140.428703 144.883188 140.428703 144.883188 140.428703 144.883188 
C 140.428703 144.883188 140.428703 144.883188 140.428703 144.883188 
C 140.428703 144.883188 140.428703 144.883188 140.428703 144.883188 
C 140.428703 144.883188 140.428703 144.883188 140.428703 144.883188 
C 140.428703 144.883188 140.428703 144.883188 140.428703 144.883188 
C 140.428703 144.883188 140.428703 144.883188 140.428703 144.883188 
L 118.8271 81.635731 
C 110.959129 84.322966 103.661234 88.454919 97.308862 93.819019 
C 90.956489 99.183119 85.660474 105.685774 81.693272 112.99245 
C 77.726071 120.299126 75.156902 128.282339 74.11794 136.531385 
C 73.078977 144.780431 73.588348 153.151383 75.619847 161.213592 
C 77.651346 169.275801 81.169528 176.888599 85.993399 183.660341 
C 90.817269 190.432082 96.862661 196.244615 103.818566 200.798908 
C 110.774471 205.353202 118.519523 208.569795 126.655273 210.283208 
C 134.791022 211.99662 143.175519 212.176956 151.377416 210.814938 
C 159.579313 209.45292 167.455505 206.572313 174.600796 202.321311 
C 181.746088 198.07031 188.035809 192.523084 193.14638 185.965015 
C 198.256951 179.406947 202.099205 171.952459 204.475473 163.985053 
C 206.851742 156.017648 207.720564 147.676338 207.037244 139.390248 
C 206.353923 131.104159 204.130382 123.017864 200.481012 115.547369 
C 196.831642 108.076873 191.820116 101.352521 185.704256 95.720251 
C 179.588397 90.087981 172.474911 85.646064 164.729758 82.623018 
C 156.984605 79.599971 148.74292 78.048541 140.428703 78.048541 
z
" clip-path="url(#pad3dcc8ed7)" style="fill: #306080; opacity: 0.5; stroke: #306080; stroke-width: 3; stroke-linejoin: miter"/>
   </g>
   <g id="patch_6">
    <path d="M 140.428703 144.883188 
L 140.428703 144.883188 
L 110.971972 58.636656 
L 110.971972 58.636656 
z
" clip-path="url(#pad3dcc8ed7)" style="fill: #306080; stroke: #306080; stroke-width: 3; stroke-linejoin: miter"/>
   </g>
   <g id="patch_7">
    <path d="M 140.428703 144.883188 
C 140.428703 144.883188 140.428703 144.883188 140.428703 144.883188 
C 140.428703 144.883188 140.428703 144.883188 140.428703 144.883188 
L 151.180727 86.627304 
C 149.408358 86.300186 147.621983 86.054122 145.827178 85.889879 
C 144.032373 85.725637 142.231008 85.643387 140.428703 85.643387 
z
" clip-path="url(#pad3dcc8ed7)" style="fill: #8060ff; stroke: #000000; stroke-width: 3; stroke-linejoin: miter"/>
   </g>
   <g id="patch_8">
    <path d="M 140.428703 144.883188 
L 140.428703 144.883188 
L 156.970279 55.258751 
L 156.970279 55.258751 
z
" clip-path="url(#pad3dcc8ed7)" style="fill: #1f77b4; stroke: #000000; stroke-width: 3; stroke-linejoin: miter"/>
   </g>
   <g id="matplotlib.axis_1">
    <g id="xtick_1">
     <g id="text_1">
      <!-- 3 m -->
      <g transform="translate(185.63561 52.643852) scale(0.1 -0.1)">
       <defs>
        <path id="DejaVuSans-33" d="M 2597 2516 
Q 3050 2419 3304 2112 
Q 3559 1806 3559 1356 
Q 3559 666 3084 287 
Q 2609 -91 1734 -91 
Q 1441 -91 1130 -33 
Q 819 25 488 141 
L 488 750 
Q 750 597 1062 519 
Q 1375 441 1716 441 
Q 2309 441 2620 675 
Q 2931 909 2931 1356 
Q 2931 1769 2642 2001 
Q 2353 2234 1838 2234 
L 1294 2234 
L 1294 2753 
L 1863 2753 
Q 2328 2753 2575 2939 
Q 2822 3125 2822 3475 
Q 2822 3834 2567 4026 
Q 2313 4219 1838 4219 
Q 1578 4219 1281 4162 
Q 984 4106 628 3988 
L 628 4550 
Q 988 4650 1302 4700 
Q 1616 4750 1894 4750 
Q 2613 4750 3031 4423 
Q 3450 4097 3450 3541 
Q 3450 3153 3228 2886 
Q 3006 2619 2597 2516 
z
" transform="scale(0.015625)"/>
        <path id="DejaVuSans-20" transform="scale(0.015625)"/>
        <path id="DejaVuSans-6d" d="M 3328 2828 
Q 3544 3216 3844 3400 
Q 4144 3584 4550 3584 
Q 5097 3584 5394 3201 
Q 5691 2819 5691 2113 
L 5691 0 
L 5113 0 
L 5113 2094 
Q 5113 2597 4934 2840 
Q 4756 3084 4391 3084 
Q 3944 3084 3684 2787 
Q 3425 2491 3425 1978 
L 3425 0 
L 2847 0 
L 2847 2094 
Q 2847 2600 2669 2842 
Q 2491 3084 2119 3084 
Q 1678 3084 1418 2786 
Q 1159 2488 1159 1978 
L 1159 0 
L 581 0 
L 581 3500 
L 1159 3500 
L 1159 2956 
Q 1356 3278 1631 3431 
Q 1906 3584 2284 3584 
Q 2666 3584 2933 3390 
Q 3200 3197 3328 2828 
z
" transform="scale(0.015625)"/>
       </defs>
       <use xlink:href="#DejaVuSans-33"/>
       <use xlink:href="#DejaVuSans-20" x="63.623047"/>
       <use xlink:href="#DejaVuSans-6d" x="95.410156"/>
      </g>
     </g>
    </g>
    <g id="xtick_2">
     <g id="text_2">
      <!-- 6 m -->
      <g transform="translate(225.786789 92.795031) scale(0.1 -0.1)">
       <defs>
        <path id="DejaVuSans-36" d="M 2113 2584 
Q 1688 2584 1439 2293 
Q 1191 2003 1191 1497 
Q 1191 994 1439 701 
Q 1688 409 2113 409 
Q 2538 409 2786 701 
Q 3034 994 3034 1497 
Q 3034 2003 2786 2293 
Q 2538 2584 2113 2584 
z
M 3366 4563 
L 3366 3988 
Q 3128 4100 2886 4159 
Q 2644 4219 2406 4219 
Q 1781 4219 1451 3797 
Q 1122 3375 1075 2522 
Q 1259 2794 1537 2939 
Q 1816 3084 2150 3084 
Q 2853 3084 3261 2657 
Q 3669 2231 3669 1497 
Q 3669 778 3244 343 
Q 2819 -91 2113 -91 
Q 1303 -91 875 529 
Q 447 1150 447 2328 
Q 447 3434 972 4092 
Q 1497 4750 2381 4750 
Q 2619 4750 2861 4703 
Q 3103 4656 3366 4563 
z
" transform="scale(0.015625)"/>
       </defs>
       <use xlink:href="#DejaVuSans-36"/>
       <use xlink:href="#DejaVuSans-20" x="63.623047"/>
       <use xlink:href="#DejaVuSans-6d" x="95.410156"/>
      </g>
     </g>
    </g>
    <g id="xtick_3">
     <g id="text_3">
      <!-- 9 m -->
      <g transform="translate(240.483141 147.642563) scale(0.1 -0.1)">
       <defs>
        <path id="DejaVuSans-39" d="M 703 97 
L 703 672 
Q 941 559 1184 500 
Q 1428 441 1663 441 
Q 2288 441 2617 861 
Q 2947 1281 2994 2138 
Q 2813 1869 2534 1725 
Q 2256 1581 1919 1581 
Q 1219 1581 811 2004 
Q 403 2428 403 3163 
Q 403 3881 828 4315 
Q 1253 4750 1959 4750 
Q 2769 4750 3195 4129 
Q 3622 3509 3622 2328 
Q 3622 1225 3098 567 
Q 2575 -91 1691 -91 
Q 1453 -91 1209 -44 
Q 966 3 703 97 
z
M 1959 2075 
Q 2384 2075 2632 2365 
Q 2881 2656 2881 3163 
Q 2881 3666 2632 3958 
Q 2384 4250 1959 4250 
Q 1534 4250 1286 3958 
Q 1038 3666 1038 3163 
Q 1038 2656 1286 2365 
Q 1534 2075 1959 2075 
z
" transform="scale(0.015625)"/>
       </defs>
       <use xlink:href="#DejaVuSans-39"/>
       <use xlink:href="#DejaVuSans-20" x="63.623047"/>
       <use xlink:href="#DejaVuSans-6d" x="95.410156"/>
      </g>
     </g>
    </g>
    <g id="xtick_4">
     <g id="text_4">
      <!-- 12 m -->
      <g transform="translate(222.605539 202.490094) scale(0.1 -0.1)">
       <defs>
        <path id="DejaVuSans-31" d="M 794 531 
L 1825 531 
L 1825 4091 
L 703 3866 
L 703 4441 
L 1819 4666 
L 2450 4666 
L 2450 531 
L 3481 531 
L 3481 0 
L 794 0 
L 794 531 
z
" transform="scale(0.015625)"/>
        <path id="DejaVuSans-32" d="M 1228 531 
L 3431 531 
L 3431 0 
L 469 0 
L 469 531 
Q 828 903 1448 1529 
Q 2069 2156 2228 2338 
Q 2531 2678 2651 2914 
Q 2772 3150 2772 3378 
Q 2772 3750 2511 3984 
Q 2250 4219 1831 4219 
Q 1534 4219 1204 4116 
Q 875 4013 500 3803 
L 500 4441 
Q 881 4594 1212 4672 
Q 1544 4750 1819 4750 
Q 2544 4750 2975 4387 
Q 3406 4025 3406 3419 
Q 3406 3131 3298 2873 
Q 3191 2616 2906 2266 
Q 2828 2175 2409 1742 
Q 1991 1309 1228 531 
z
" transform="scale(0.015625)"/>
       </defs>
       <use xlink:href="#DejaVuSans-31"/>
       <use xlink:href="#DejaVuSans-32" x="63.623047"/>
       <use xlink:href="#DejaVuSans-20" x="127.246094"/>
       <use xlink:href="#DejaVuSans-6d" x="159.033203"/>
      </g>
     </g>
    </g>
    <g id="xtick_5">
     <g id="text_5">
      <!-- 15 m -->
      <g transform="translate(182.45436 242.641273) scale(0.1 -0.1)">
       <defs>
        <path id="DejaVuSans-35" d="M 691 4666 
L 3169 4666 
L 3169 4134 
L 1269 4134 
L 1269 2991 
Q 1406 3038 1543 3061 
Q 1681 3084 1819 3084 
Q 2600 3084 3056 2656 
Q 3513 2228 3513 1497 
Q 3513 744 3044 326 
Q 2575 -91 1722 -91 
Q 1428 -91 1123 -41 
Q 819 9 494 109 
L 494 744 
Q 775 591 1075 516 
Q 1375 441 1709 441 
Q 2250 441 2565 725 
Q 2881 1009 2881 1497 
Q 2881 1984 2565 2268 
Q 2250 2553 1709 2553 
Q 1456 2553 1204 2497 
Q 953 2441 691 2322 
L 691 4666 
z
" transform="scale(0.015625)"/>
       </defs>
       <use xlink:href="#DejaVuSans-31"/>
       <use xlink:href="#DejaVuSans-35" x="63.623047"/>
       <use xlink:href="#DejaVuSans-20" x="127.246094"/>
       <use xlink:href="#DejaVuSans-6d" x="159.033203"/>
      </g>
     </g>
    </g>
    <g id="xtick_6">
     <g id="text_6">
      <!-- 18 m -->
      <g transform="translate(127.606828 257.337625) scale(0.1 -0.1)">
       <defs>
        <path id="DejaVuSans-38" d="M 2034 2216 
Q 1584 2216 1326 1975 
Q 1069 1734 1069 1313 
Q 1069 891 1326 650 
Q 1584 409 2034 409 
Q 2484 409 2743 651 
Q 3003 894 3003 1313 
Q 3003 1734 2745 1975 
Q 2488 2216 2034 2216 
z
M 1403 2484 
Q 997 2584 770 2862 
Q 544 3141 544 3541 
Q 544 4100 942 4425 
Q 1341 4750 2034 4750 
Q 2731 4750 3128 4425 
Q 3525 4100 3525 3541 
Q 3525 3141 3298 2862 
Q 3072 2584 2669 2484 
Q 3125 2378 3379 2068 
Q 3634 1759 3634 1313 
Q 3634 634 3220 271 
Q 2806 -91 2034 -91 
Q 1263 -91 848 271 
Q 434 634 434 1313 
Q 434 1759 690 2068 
Q 947 2378 1403 2484 
z
M 1172 3481 
Q 1172 3119 1398 2916 
Q 1625 2713 2034 2713 
Q 2441 2713 2670 2916 
Q 2900 3119 2900 3481 
Q 2900 3844 2670 4047 
Q 2441 4250 2034 4250 
Q 1625 4250 1398 4047 
Q 1172 3844 1172 3481 
z
" transform="scale(0.015625)"/>
       </defs>
       <use xlink:href="#DejaVuSans-31"/>
       <use xlink:href="#DejaVuSans-38" x="63.623047"/>
       <use xlink:href="#DejaVuSans-20" x="127.246094"/>
       <use xlink:href="#DejaVuSans-6d" x="159.033203"/>
      </g>
     </g>
    </g>
    <g id="xtick_7">
     <g id="text_7">
      <!-- 20 m -->
      <g transform="translate(72.759297 242.641273) scale(0.1 -0.1)">
       <defs>
        <path id="DejaVuSans-30" d="M 2034 4250 
Q 1547 4250 1301 3770 
Q 1056 3291 1056 2328 
Q 1056 1369 1301 889 
Q 1547 409 2034 409 
Q 2525 409 2770 889 
Q 3016 1369 3016 2328 
Q 3016 3291 2770 3770 
Q 2525 4250 2034 4250 
z
M 2034 4750 
Q 2819 4750 3233 4129 
Q 3647 3509 3647 2328 
Q 3647 1150 3233 529 
Q 2819 -91 2034 -91 
Q 1250 -91 836 529 
Q 422 1150 422 2328 
Q 422 3509 836 4129 
Q 1250 4750 2034 4750 
z
" transform="scale(0.015625)"/>
       </defs>
       <use xlink:href="#DejaVuSans-32"/>
       <use xlink:href="#DejaVuSans-30" x="63.623047"/>
       <use xlink:href="#DejaVuSans-20" x="127.246094"/>
       <use xlink:href="#DejaVuSans-6d" x="159.033203"/>
      </g>
     </g>
    </g>
    <g id="xtick_8">
     <g id="text_8">
      <!-- 23 m -->
      <g transform="translate(32.608118 202.490094) scale(0.1 -0.1)">
       <use xlink:href="#DejaVuSans-32"/>
       <use xlink:href="#DejaVuSans-33" x="63.623047"/>
       <use xlink:href="#DejaVuSans-20" x="127.246094"/>
       <use xlink:href="#DejaVuSans-6d" x="159.033203"/>
      </g>
     </g>
    </g>
    <g id="xtick_9">
     <g id="text_9">
      <!-- 26 m -->
      <g transform="translate(17.911766 147.642563) scale(0.1 -0.1)">
       <use xlink:href="#DejaVuSans-32"/>
       <use xlink:href="#DejaVuSans-36" x="63.623047"/>
       <use xlink:href="#DejaVuSans-20" x="127.246094"/>
       <use xlink:href="#DejaVuSans-6d" x="159.033203"/>
      </g>
     </g>
    </g>
    <g id="xtick_10">
     <g id="text_10">
      <!-- 29 m -->
      <g transform="translate(32.608118 92.795031) scale(0.1 -0.1)">
       <use xlink:href="#DejaVuSans-32"/>
       <use xlink:href="#DejaVuSans-39" x="63.623047"/>
       <use xlink:href="#DejaVuSans-20" x="127.246094"/>
       <use xlink:href="#DejaVuSans-6d" x="159.033203"/>
      </g>
     </g>
    </g>
    <g id="xtick_11">
     <g id="text_11">
      <!-- 32 m -->
      <g transform="translate(72.759297 52.643852) scale(0.1 -0.1)">
       <use xlink:href="#DejaVuSans-33"/>
       <use xlink:href="#DejaVuSans-32" x="63.623047"/>
       <use xlink:href="#DejaVuSans-20" x="127.246094"/>
       <use xlink:href="#DejaVuSans-6d" x="159.033203"/>
      </g>
     </g>
    </g>
    <g id="xtick_12">
     <g id="text_12">
      <!-- 35 m -->
      <g transform="translate(127.606828 37.9475) scale(0.1 -0.1)">
       <use xlink:href="#DejaVuSans-33"/>
       <use xlink:href="#DejaVuSans-35" x="63.623047"/>
       <use xlink:href="#DejaVuSans-20" x="127.246094"/>
       <use xlink:href="#DejaVuSans-6d" x="159.033203"/>
      </g>
     </g>
    </g>
   </g>
   <g id="matplotlib.axis_2">
    <g id="ytick_1"/>
    <g id="ytick_2"/>
    <g id="ytick_3"/>
    <g id="ytick_4"/>
    <g id="ytick_5"/>
    <g id="ytick_6"/>
   </g>
   <g id="patch_9">
    <path d="M 140.428703 49.188125 
C 127.862143 49.188125 115.417776 51.663463 103.807788 56.472478 
C 92.1978 61.281492 81.647976 68.33066 72.762076 77.21656 
C 63.876176 86.10246 56.827008 96.652285 52.017994 108.262273 
C 47.208979 119.872261 44.733641 132.316627 44.733641 144.883188 
C 44.733641 157.449748 47.208979 169.894114 52.017994 181.504102 
C 56.827008 193.11409 63.876176 203.663915 72.762076 212.549815 
C 81.647976 221.435715 92.1978 228.484883 103.807788 233.293897 
C 115.417776 238.102912 127.862143 240.57825 140.428703 240.57825 
C 152.995264 240.57825 165.43963 238.102912 177.049618 233.293897 
C 188.659606 228.484883 199.209431 221.435715 208.095331 212.549815 
C 216.981231 203.663915 224.030399 193.11409 228.839413 181.504102 
C 233.648428 169.894114 236.123766 157.449748 236.123766 144.883188 
C 236.123766 132.316627 233.648428 119.872261 228.839413 108.262273 
C 224.030399 96.652285 216.981231 86.10246 208.095331 77.21656 
C 199.209431 68.33066 188.659606 61.281492 177.049618 56.472478 
C 165.43963 51.663463 152.995264 49.188125 140.428703 49.188125 
" style="fill: none; stroke: #000000; stroke-width: 0.8; stroke-linejoin: miter; stroke-linecap: square"/>
   </g>
   <g id="text_13">
    <!--    (a) Windows: Single node, 20 CPUs -->
    <g transform="translate(-10.630672 24.349063) scale(0.18 -0.18)">
     <defs>
      <path id="Helvetica-20" transform="scale(0.015625)"/>
      <path id="Helvetica-28" d="M 1894 4666 
Q 1403 3713 1256 3263 
Q 1034 2578 1034 1681 
Q 1034 775 1288 25 
Q 1444 -438 1903 -1306 
L 1525 -1306 
Q 1069 -594 959 -397 
Q 850 -200 722 138 
Q 547 600 478 1125 
Q 444 1397 444 1644 
Q 444 2569 734 3291 
Q 919 3750 1503 4666 
L 1894 4666 
z
" transform="scale(0.015625)"/>
      <path id="Helvetica-61" d="M 844 891 
Q 844 647 1022 506 
Q 1200 366 1444 366 
Q 1741 366 2019 503 
Q 2488 731 2488 1250 
L 2488 1703 
Q 2384 1638 2221 1594 
Q 2059 1550 1903 1531 
L 1563 1488 
Q 1256 1447 1103 1359 
Q 844 1213 844 891 
z
M 2206 2028 
Q 2400 2053 2466 2191 
Q 2503 2266 2503 2406 
Q 2503 2694 2298 2823 
Q 2094 2953 1713 2953 
Q 1272 2953 1088 2716 
Q 984 2584 953 2325 
L 428 2325 
Q 444 2944 830 3186 
Q 1216 3428 1725 3428 
Q 2316 3428 2684 3203 
Q 3050 2978 3050 2503 
L 3050 575 
Q 3050 488 3086 434 
Q 3122 381 3238 381 
Q 3275 381 3322 386 
Q 3369 391 3422 400 
L 3422 -16 
Q 3291 -53 3222 -62 
Q 3153 -72 3034 -72 
Q 2744 -72 2613 134 
Q 2544 244 2516 444 
Q 2344 219 2022 53 
Q 1700 -113 1313 -113 
Q 847 -113 551 170 
Q 256 453 256 878 
Q 256 1344 547 1600 
Q 838 1856 1309 1916 
L 2206 2028 
z
M 1741 3428 
L 1741 3428 
z
" transform="scale(0.015625)"/>
      <path id="Helvetica-29" d="M 222 -1306 
Q 719 -338 863 106 
Q 1081 778 1081 1681 
Q 1081 2584 828 3334 
Q 672 3797 213 4666 
L 591 4666 
Q 1072 3897 1173 3717 
Q 1275 3538 1394 3222 
Q 1544 2831 1608 2450 
Q 1672 2069 1672 1716 
Q 1672 791 1378 66 
Q 1194 -400 613 -1306 
L 222 -1306 
z
" transform="scale(0.015625)"/>
      <path id="Helvetica-57" d="M 791 4591 
L 1656 856 
L 2694 4591 
L 3369 4591 
L 4406 856 
L 5272 4591 
L 5953 4591 
L 4747 0 
L 4094 0 
L 3034 3806 
L 1969 0 
L 1316 0 
L 116 4591 
L 791 4591 
z
" transform="scale(0.015625)"/>
      <path id="Helvetica-69" d="M 413 3331 
L 984 3331 
L 984 0 
L 413 0 
L 413 3331 
z
M 413 4591 
L 984 4591 
L 984 3953 
L 413 3953 
L 413 4591 
z
" transform="scale(0.015625)"/>
      <path id="Helvetica-6e" d="M 413 3347 
L 947 3347 
L 947 2872 
Q 1184 3166 1450 3294 
Q 1716 3422 2041 3422 
Q 2753 3422 3003 2925 
Q 3141 2653 3141 2147 
L 3141 0 
L 2569 0 
L 2569 2109 
Q 2569 2416 2478 2603 
Q 2328 2916 1934 2916 
Q 1734 2916 1606 2875 
Q 1375 2806 1200 2600 
Q 1059 2434 1017 2257 
Q 975 2081 975 1753 
L 975 0 
L 413 0 
L 413 3347 
z
M 1734 3428 
L 1734 3428 
z
" transform="scale(0.015625)"/>
      <path id="Helvetica-64" d="M 769 1634 
Q 769 1097 997 734 
Q 1225 372 1728 372 
Q 2119 372 2370 708 
Q 2622 1044 2622 1672 
Q 2622 2306 2362 2611 
Q 2103 2916 1722 2916 
Q 1297 2916 1033 2591 
Q 769 2266 769 1634 
z
M 1616 3406 
Q 2000 3406 2259 3244 
Q 2409 3150 2600 2916 
L 2600 4606 
L 3141 4606 
L 3141 0 
L 2634 0 
L 2634 466 
Q 2438 156 2169 18 
Q 1900 -119 1553 -119 
Q 994 -119 584 351 
Q 175 822 175 1603 
Q 175 2334 548 2870 
Q 922 3406 1616 3406 
z
" transform="scale(0.015625)"/>
      <path id="Helvetica-6f" d="M 1741 363 
Q 2300 363 2508 786 
Q 2716 1209 2716 1728 
Q 2716 2197 2566 2491 
Q 2328 2953 1747 2953 
Q 1231 2953 997 2559 
Q 763 2166 763 1609 
Q 763 1075 997 719 
Q 1231 363 1741 363 
z
M 1763 3444 
Q 2409 3444 2856 3012 
Q 3303 2581 3303 1744 
Q 3303 934 2909 406 
Q 2516 -122 1688 -122 
Q 997 -122 590 345 
Q 184 813 184 1600 
Q 184 2444 612 2944 
Q 1041 3444 1763 3444 
z
M 1744 3428 
L 1744 3428 
z
" transform="scale(0.015625)"/>
      <path id="Helvetica-77" d="M 672 3347 
L 1316 709 
L 1969 3347 
L 2600 3347 
L 3256 725 
L 3941 3347 
L 4503 3347 
L 3531 0 
L 2947 0 
L 2266 2591 
L 1606 0 
L 1022 0 
L 56 3347 
L 672 3347 
z
" transform="scale(0.015625)"/>
      <path id="Helvetica-73" d="M 747 1050 
Q 772 769 888 619 
Q 1100 347 1625 347 
Q 1938 347 2175 483 
Q 2413 619 2413 903 
Q 2413 1119 2222 1231 
Q 2100 1300 1741 1391 
L 1294 1503 
Q 866 1609 663 1741 
Q 300 1969 300 2372 
Q 300 2847 642 3140 
Q 984 3434 1563 3434 
Q 2319 3434 2653 2991 
Q 2863 2709 2856 2384 
L 2325 2384 
Q 2309 2575 2191 2731 
Q 1997 2953 1519 2953 
Q 1200 2953 1036 2831 
Q 872 2709 872 2509 
Q 872 2291 1088 2159 
Q 1213 2081 1456 2022 
L 1828 1931 
Q 2434 1784 2641 1647 
Q 2969 1431 2969 969 
Q 2969 522 2630 197 
Q 2291 -128 1597 -128 
Q 850 -128 539 211 
Q 228 550 206 1050 
L 747 1050 
z
M 1578 3428 
L 1578 3428 
z
" transform="scale(0.015625)"/>
      <path id="Helvetica-3a" d="M 709 3303 
L 1363 3303 
L 1363 2622 
L 709 2622 
L 709 3303 
z
M 709 681 
L 1363 681 
L 1363 0 
L 709 0 
L 709 681 
z
" transform="scale(0.015625)"/>
      <path id="Helvetica-53" d="M 894 1481 
Q 916 1091 1078 847 
Q 1388 391 2169 391 
Q 2519 391 2806 491 
Q 3363 684 3363 1184 
Q 3363 1559 3128 1719 
Q 2891 1875 2384 1991 
L 1763 2131 
Q 1153 2269 900 2434 
Q 463 2722 463 3294 
Q 463 3913 891 4309 
Q 1319 4706 2103 4706 
Q 2825 4706 3329 4357 
Q 3834 4009 3834 3244 
L 3250 3244 
Q 3203 3613 3050 3809 
Q 2766 4169 2084 4169 
Q 1534 4169 1293 3937 
Q 1053 3706 1053 3400 
Q 1053 3063 1334 2906 
Q 1519 2806 2169 2656 
L 2813 2509 
Q 3278 2403 3531 2219 
Q 3969 1897 3969 1284 
Q 3969 522 3414 194 
Q 2859 -134 2125 -134 
Q 1269 -134 784 303 
Q 300 738 309 1481 
L 894 1481 
z
M 2150 4716 
L 2150 4716 
z
" transform="scale(0.015625)"/>
      <path id="Helvetica-67" d="M 1594 3406 
Q 1988 3406 2281 3213 
Q 2441 3103 2606 2894 
L 2606 3316 
L 3125 3316 
L 3125 272 
Q 3125 -366 2938 -734 
Q 2588 -1416 1616 -1416 
Q 1075 -1416 706 -1173 
Q 338 -931 294 -416 
L 866 -416 
Q 906 -641 1028 -763 
Q 1219 -950 1628 -950 
Q 2275 -950 2475 -494 
Q 2594 -225 2584 466 
Q 2416 209 2178 84 
Q 1941 -41 1550 -41 
Q 1006 -41 598 345 
Q 191 731 191 1622 
Q 191 2463 602 2934 
Q 1013 3406 1594 3406 
z
M 2606 1688 
Q 2606 2309 2350 2609 
Q 2094 2909 1697 2909 
Q 1103 2909 884 2353 
Q 769 2056 769 1575 
Q 769 1009 998 714 
Q 1228 419 1616 419 
Q 2222 419 2469 966 
Q 2606 1275 2606 1688 
z
M 1659 3428 
L 1659 3428 
z
" transform="scale(0.015625)"/>
      <path id="Helvetica-6c" d="M 428 4591 
L 991 4591 
L 991 0 
L 428 0 
L 428 4591 
z
" transform="scale(0.015625)"/>
      <path id="Helvetica-65" d="M 1806 3422 
Q 2163 3422 2497 3255 
Q 2831 3088 3006 2822 
Q 3175 2569 3231 2231 
Q 3281 2000 3281 1494 
L 828 1494 
Q 844 984 1069 676 
Q 1294 369 1766 369 
Q 2206 369 2469 659 
Q 2619 828 2681 1050 
L 3234 1050 
Q 3213 866 3089 639 
Q 2966 413 2813 269 
Q 2556 19 2178 -69 
Q 1975 -119 1719 -119 
Q 1094 -119 659 336 
Q 225 791 225 1609 
Q 225 2416 662 2919 
Q 1100 3422 1806 3422 
z
M 2703 1941 
Q 2669 2306 2544 2525 
Q 2313 2931 1772 2931 
Q 1384 2931 1121 2651 
Q 859 2372 844 1941 
L 2703 1941 
z
M 1753 3428 
L 1753 3428 
z
" transform="scale(0.015625)"/>
      <path id="Helvetica-2c" d="M 531 -653 
Q 747 -616 834 -350 
Q 881 -209 881 -78 
Q 881 -56 879 -39 
Q 878 -22 872 0 
L 531 0 
L 531 681 
L 1200 681 
L 1200 50 
Q 1200 -322 1050 -603 
Q 900 -884 531 -950 
L 531 -653 
z
" transform="scale(0.015625)"/>
      <path id="Helvetica-32" d="M 200 0 
Q 231 578 439 1006 
Q 647 1434 1250 1784 
L 1850 2131 
Q 2253 2366 2416 2531 
Q 2672 2791 2672 3125 
Q 2672 3516 2437 3745 
Q 2203 3975 1813 3975 
Q 1234 3975 1013 3538 
Q 894 3303 881 2888 
L 309 2888 
Q 319 3472 525 3841 
Q 891 4491 1816 4491 
Q 2584 4491 2939 4075 
Q 3294 3659 3294 3150 
Q 3294 2613 2916 2231 
Q 2697 2009 2131 1694 
L 1703 1456 
Q 1397 1288 1222 1134 
Q 909 863 828 531 
L 3272 531 
L 3272 0 
L 200 0 
z
" transform="scale(0.015625)"/>
      <path id="Helvetica-30" d="M 1731 4475 
Q 2600 4475 2988 3759 
Q 3288 3206 3288 2244 
Q 3288 1331 3016 734 
Q 2622 -122 1728 -122 
Q 922 -122 528 578 
Q 200 1163 200 2147 
Q 200 2909 397 3456 
Q 766 4475 1731 4475 
z
M 1725 391 
Q 2163 391 2422 778 
Q 2681 1166 2681 2222 
Q 2681 2984 2493 3476 
Q 2306 3969 1766 3969 
Q 1269 3969 1039 3501 
Q 809 3034 809 2125 
Q 809 1441 956 1025 
Q 1181 391 1725 391 
z
" transform="scale(0.015625)"/>
      <path id="Helvetica-43" d="M 2422 4716 
Q 3294 4716 3775 4256 
Q 4256 3797 4309 3213 
L 3703 3213 
Q 3600 3656 3292 3915 
Q 2984 4175 2428 4175 
Q 1750 4175 1333 3698 
Q 916 3222 916 2238 
Q 916 1431 1292 929 
Q 1669 428 2416 428 
Q 3103 428 3463 956 
Q 3653 1234 3747 1688 
L 4353 1688 
Q 4272 963 3816 472 
Q 3269 -119 2341 -119 
Q 1541 -119 997 366 
Q 281 1006 281 2344 
Q 281 3359 819 4009 
Q 1400 4716 2422 4716 
z
M 2297 4716 
L 2297 4716 
z
" transform="scale(0.015625)"/>
      <path id="Helvetica-50" d="M 547 4591 
L 2613 4591 
Q 3225 4591 3600 4245 
Q 3975 3900 3975 3275 
Q 3975 2738 3640 2339 
Q 3306 1941 2613 1941 
L 1169 1941 
L 1169 0 
L 547 0 
L 547 4591 
z
M 3347 3272 
Q 3347 3778 2972 3959 
Q 2766 4056 2406 4056 
L 1169 4056 
L 1169 2466 
L 2406 2466 
Q 2825 2466 3086 2644 
Q 3347 2822 3347 3272 
z
" transform="scale(0.015625)"/>
      <path id="Helvetica-55" d="M 1163 4591 
L 1163 1753 
Q 1163 1253 1350 922 
Q 1628 422 2288 422 
Q 3078 422 3363 963 
Q 3516 1256 3516 1753 
L 3516 4591 
L 4147 4591 
L 4147 2013 
Q 4147 1166 3919 709 
Q 3500 -122 2338 -122 
Q 1175 -122 759 709 
Q 531 1166 531 2013 
L 531 4591 
L 1163 4591 
z
M 2341 4591 
L 2341 4591 
z
" transform="scale(0.015625)"/>
     </defs>
     <use xlink:href="#Helvetica-20"/>
     <use xlink:href="#Helvetica-20" x="27.783203"/>
     <use xlink:href="#Helvetica-20" x="55.566406"/>
     <use xlink:href="#Helvetica-28" x="83.349609"/>
     <use xlink:href="#Helvetica-61" x="116.650391"/>
     <use xlink:href="#Helvetica-29" x="172.265625"/>
     <use xlink:href="#Helvetica-20" x="205.566406"/>
     <use xlink:href="#Helvetica-57" x="233.349609"/>
     <use xlink:href="#Helvetica-69" x="327.734375"/>
     <use xlink:href="#Helvetica-6e" x="349.951172"/>
     <use xlink:href="#Helvetica-64" x="405.566406"/>
     <use xlink:href="#Helvetica-6f" x="461.181641"/>
     <use xlink:href="#Helvetica-77" x="516.796875"/>
     <use xlink:href="#Helvetica-73" x="589.013672"/>
     <use xlink:href="#Helvetica-3a" x="639.013672"/>
     <use xlink:href="#Helvetica-20" x="666.796875"/>
     <use xlink:href="#Helvetica-53" x="694.580078"/>
     <use xlink:href="#Helvetica-69" x="761.279297"/>
     <use xlink:href="#Helvetica-6e" x="783.496094"/>
     <use xlink:href="#Helvetica-67" x="839.111328"/>
     <use xlink:href="#Helvetica-6c" x="894.726562"/>
     <use xlink:href="#Helvetica-65" x="916.943359"/>
     <use xlink:href="#Helvetica-20" x="972.558594"/>
     <use xlink:href="#Helvetica-6e" x="1000.341797"/>
     <use xlink:href="#Helvetica-6f" x="1055.957031"/>
     <use xlink:href="#Helvetica-64" x="1111.572266"/>
     <use xlink:href="#Helvetica-65" x="1167.1875"/>
     <use xlink:href="#Helvetica-2c" x="1222.802734"/>
     <use xlink:href="#Helvetica-20" x="1250.585938"/>
     <use xlink:href="#Helvetica-32" x="1278.369141"/>
     <use xlink:href="#Helvetica-30" x="1333.984375"/>
     <use xlink:href="#Helvetica-20" x="1389.599609"/>
     <use xlink:href="#Helvetica-43" x="1417.382812"/>
     <use xlink:href="#Helvetica-50" x="1489.599609"/>
     <use xlink:href="#Helvetica-55" x="1556.298828"/>
     <use xlink:href="#Helvetica-73" x="1628.515625"/>
    </g>
   </g>
   <g id="legend_1">
    <g id="patch_10">
     <path d="M 266.462778 131.060625 
L 395.940278 131.060625 
Q 399.140278 131.060625 399.140278 127.860625 
L 399.140278 60.388125 
Q 399.140278 57.188125 395.940278 57.188125 
L 266.462778 57.188125 
Q 263.262778 57.188125 263.262778 60.388125 
L 263.262778 127.860625 
Q 263.262778 131.060625 266.462778 131.060625 
z
" style="fill: #ffffff; opacity: 0.8; stroke: #cccccc; stroke-linejoin: miter"/>
    </g>
    <g id="patch_11">
     <path d="M 269.662778 75.378125 
L 301.662778 75.378125 
L 301.662778 64.178125 
L 269.662778 64.178125 
z
" style="fill: #408000; opacity: 0.5; stroke: #408000; stroke-width: 3; stroke-linejoin: miter"/>
    </g>
    <g id="text_14">
     <!-- TC-Python -->
     <g transform="translate(314.462778 75.378125) scale(0.16 -0.16)">
      <defs>
       <path id="Helvetica-54" d="M 3828 4591 
L 3828 4044 
L 2281 4044 
L 2281 0 
L 1650 0 
L 1650 4044 
L 103 4044 
L 103 4591 
L 3828 4591 
z
" transform="scale(0.015625)"/>
       <path id="Helvetica-2d" d="M 266 2072 
L 1834 2072 
L 1834 1494 
L 266 1494 
L 266 2072 
z
" transform="scale(0.015625)"/>
       <path id="Helvetica-79" d="M 2503 3347 
L 3125 3347 
Q 3006 3025 2597 1878 
Q 2291 1016 2084 472 
Q 1597 -809 1397 -1090 
Q 1197 -1372 709 -1372 
Q 591 -1372 527 -1362 
Q 463 -1353 369 -1328 
L 369 -816 
Q 516 -856 581 -865 
Q 647 -875 697 -875 
Q 853 -875 926 -823 
Q 1000 -772 1050 -697 
Q 1066 -672 1162 -440 
Q 1259 -209 1303 -97 
L 66 3347 
L 703 3347 
L 1600 622 
L 2503 3347 
z
M 1597 3428 
L 1597 3428 
z
" transform="scale(0.015625)"/>
       <path id="Helvetica-74" d="M 525 4281 
L 1094 4281 
L 1094 3347 
L 1628 3347 
L 1628 2888 
L 1094 2888 
L 1094 703 
Q 1094 528 1213 469 
Q 1278 434 1431 434 
Q 1472 434 1519 436 
Q 1566 438 1628 444 
L 1628 0 
Q 1531 -28 1426 -40 
Q 1322 -53 1200 -53 
Q 806 -53 665 148 
Q 525 350 525 672 
L 525 2888 
L 72 2888 
L 72 3347 
L 525 3347 
L 525 4281 
z
" transform="scale(0.015625)"/>
       <path id="Helvetica-68" d="M 413 4606 
L 975 4606 
L 975 2894 
Q 1175 3147 1334 3250 
Q 1606 3428 2013 3428 
Q 2741 3428 3000 2919 
Q 3141 2641 3141 2147 
L 3141 0 
L 2563 0 
L 2563 2109 
Q 2563 2478 2469 2650 
Q 2316 2925 1894 2925 
Q 1544 2925 1259 2684 
Q 975 2444 975 1775 
L 975 0 
L 413 0 
L 413 4606 
z
" transform="scale(0.015625)"/>
      </defs>
      <use xlink:href="#Helvetica-54"/>
      <use xlink:href="#Helvetica-43" x="61.083984"/>
      <use xlink:href="#Helvetica-2d" x="133.300781"/>
      <use xlink:href="#Helvetica-50" x="166.601562"/>
      <use xlink:href="#Helvetica-79" x="233.300781"/>
      <use xlink:href="#Helvetica-74" x="283.300781"/>
      <use xlink:href="#Helvetica-68" x="311.083984"/>
      <use xlink:href="#Helvetica-6f" x="366.699219"/>
      <use xlink:href="#Helvetica-6e" x="422.314453"/>
     </g>
    </g>
    <g id="patch_12">
     <path d="M 269.662778 98.323125 
L 301.662778 98.323125 
L 301.662778 87.123125 
L 269.662778 87.123125 
z
" style="fill: #306080; opacity: 0.5; stroke: #306080; stroke-width: 3; stroke-linejoin: miter"/>
    </g>
    <g id="text_15">
     <!-- PanPython -->
     <g transform="translate(314.462778 98.323125) scale(0.16 -0.16)">
      <use xlink:href="#Helvetica-50"/>
      <use xlink:href="#Helvetica-61" x="66.699219"/>
      <use xlink:href="#Helvetica-6e" x="122.314453"/>
      <use xlink:href="#Helvetica-50" x="177.929688"/>
      <use xlink:href="#Helvetica-79" x="244.628906"/>
      <use xlink:href="#Helvetica-74" x="294.628906"/>
      <use xlink:href="#Helvetica-68" x="322.412109"/>
      <use xlink:href="#Helvetica-6f" x="378.027344"/>
      <use xlink:href="#Helvetica-6e" x="433.642578"/>
     </g>
    </g>
    <g id="patch_13">
     <path d="M 269.662778 121.230625 
L 301.662778 121.230625 
L 301.662778 110.030625 
L 269.662778 110.030625 
z
" style="fill: #8060ff; stroke: #000000; stroke-width: 3; stroke-linejoin: miter"/>
    </g>
    <g id="text_16">
     <!-- Equilipy -->
     <g transform="translate(314.462778 121.230625) scale(0.16 -0.16)">
      <defs>
       <path id="Helvetica-45" d="M 547 4591 
L 3894 4591 
L 3894 4028 
L 1153 4028 
L 1153 2634 
L 3688 2634 
L 3688 2103 
L 1153 2103 
L 1153 547 
L 3941 547 
L 3941 0 
L 547 0 
L 547 4591 
z
M 2244 4591 
L 2244 4591 
z
" transform="scale(0.015625)"/>
       <path id="Helvetica-71" d="M 775 1628 
Q 775 1194 897 900 
Q 1113 378 1669 378 
Q 2256 378 2478 928 
Q 2600 1231 2600 1703 
Q 2600 2138 2466 2428 
Q 2238 2925 1663 2925 
Q 1297 2925 1036 2608 
Q 775 2291 775 1628 
z
M 1606 3422 
Q 2022 3422 2306 3213 
Q 2463 3100 2606 2881 
L 2606 3347 
L 3141 3347 
L 3141 -1334 
L 2575 -1334 
L 2575 384 
Q 2434 159 2186 26 
Q 1938 -106 1566 -106 
Q 1031 -106 609 312 
Q 188 731 188 1588 
Q 188 2391 583 2906 
Q 978 3422 1606 3422 
z
" transform="scale(0.015625)"/>
       <path id="Helvetica-75" d="M 975 3347 
L 975 1125 
Q 975 869 1056 706 
Q 1206 406 1616 406 
Q 2203 406 2416 931 
Q 2531 1213 2531 1703 
L 2531 3347 
L 3094 3347 
L 3094 0 
L 2563 0 
L 2569 494 
Q 2459 303 2297 172 
Q 1975 -91 1516 -91 
Q 800 -91 541 388 
Q 400 644 400 1072 
L 400 3347 
L 975 3347 
z
M 1747 3428 
L 1747 3428 
z
" transform="scale(0.015625)"/>
       <path id="Helvetica-70" d="M 1825 378 
Q 2219 378 2480 708 
Q 2741 1038 2741 1694 
Q 2741 2094 2625 2381 
Q 2406 2934 1825 2934 
Q 1241 2934 1025 2350 
Q 909 2038 909 1556 
Q 909 1169 1025 897 
Q 1244 378 1825 378 
z
M 369 3331 
L 916 3331 
L 916 2888 
Q 1084 3116 1284 3241 
Q 1569 3428 1953 3428 
Q 2522 3428 2919 2992 
Q 3316 2556 3316 1747 
Q 3316 653 2744 184 
Q 2381 -113 1900 -113 
Q 1522 -113 1266 53 
Q 1116 147 931 375 
L 931 -1334 
L 369 -1334 
L 369 3331 
z
" transform="scale(0.015625)"/>
      </defs>
      <use xlink:href="#Helvetica-45"/>
      <use xlink:href="#Helvetica-71" x="66.699219"/>
      <use xlink:href="#Helvetica-75" x="122.314453"/>
      <use xlink:href="#Helvetica-69" x="177.929688"/>
      <use xlink:href="#Helvetica-6c" x="200.146484"/>
      <use xlink:href="#Helvetica-69" x="222.363281"/>
      <use xlink:href="#Helvetica-70" x="244.580078"/>
      <use xlink:href="#Helvetica-79" x="300.195312"/>
     </g>
    </g>
   </g>
  </g>
  <g id="axes_2">
   <g id="patch_14">
    <path d="M 465.089225 240.57825 
L 702.572995 240.57825 
L 702.572995 49.188125 
L 465.089225 49.188125 
z
" style="fill: #ffffff"/>
   </g>
   <g id="matplotlib.axis_3">
    <g id="xtick_13">
     <g id="line2d_1">
      <defs>
       <path id="mf1c1985e9c" d="M 0 0 
L 0 -3.5 
" style="stroke: #000000; stroke-width: 0.8"/>
      </defs>
      <g>
       <use xlink:href="#mf1c1985e9c" x="465.089225" y="240.57825" style="stroke: #000000; stroke-width: 0.8"/>
      </g>
     </g>
     <g id="text_17">
      <!-- $\mathdefault{2^{0}}$ -->
      <g transform="translate(458.369225 253.196375) scale(0.12 -0.12)">
       <use xlink:href="#DejaVuSans-32" transform="translate(0 0.765625)"/>
       <use xlink:href="#DejaVuSans-30" transform="translate(64.580078 39.046875) scale(0.7)"/>
      </g>
     </g>
    </g>
    <g id="xtick_14">
     <g id="line2d_2">
      <g>
       <use xlink:href="#mf1c1985e9c" x="524.460168" y="240.57825" style="stroke: #000000; stroke-width: 0.8"/>
      </g>
     </g>
     <g id="text_18">
      <!-- $\mathdefault{2^{2}}$ -->
      <g transform="translate(517.740168 253.196375) scale(0.12 -0.12)">
       <use xlink:href="#DejaVuSans-32" transform="translate(0 0.765625)"/>
       <use xlink:href="#DejaVuSans-32" transform="translate(64.580078 39.046875) scale(0.7)"/>
      </g>
     </g>
    </g>
    <g id="xtick_15">
     <g id="line2d_3">
      <g>
       <use xlink:href="#mf1c1985e9c" x="583.83111" y="240.57825" style="stroke: #000000; stroke-width: 0.8"/>
      </g>
     </g>
     <g id="text_19">
      <!-- $\mathdefault{2^{4}}$ -->
      <g transform="translate(577.11111 253.196375) scale(0.12 -0.12)">
       <defs>
        <path id="DejaVuSans-34" d="M 2419 4116 
L 825 1625 
L 2419 1625 
L 2419 4116 
z
M 2253 4666 
L 3047 4666 
L 3047 1625 
L 3713 1625 
L 3713 1100 
L 3047 1100 
L 3047 0 
L 2419 0 
L 2419 1100 
L 313 1100 
L 313 1709 
L 2253 4666 
z
" transform="scale(0.015625)"/>
       </defs>
       <use xlink:href="#DejaVuSans-32" transform="translate(0 0.684375)"/>
       <use xlink:href="#DejaVuSans-34" transform="translate(64.580078 38.965625) scale(0.7)"/>
      </g>
     </g>
    </g>
    <g id="xtick_16">
     <g id="line2d_4">
      <g>
       <use xlink:href="#mf1c1985e9c" x="643.202053" y="240.57825" style="stroke: #000000; stroke-width: 0.8"/>
      </g>
     </g>
     <g id="text_20">
      <!-- $\mathdefault{2^{6}}$ -->
      <g transform="translate(636.482053 253.196375) scale(0.12 -0.12)">
       <use xlink:href="#DejaVuSans-32" transform="translate(0 0.765625)"/>
       <use xlink:href="#DejaVuSans-36" transform="translate(64.580078 39.046875) scale(0.7)"/>
      </g>
     </g>
    </g>
    <g id="xtick_17">
     <g id="line2d_5">
      <g>
       <use xlink:href="#mf1c1985e9c" x="702.572995" y="240.57825" style="stroke: #000000; stroke-width: 0.8"/>
      </g>
     </g>
     <g id="text_21">
      <!-- $\mathdefault{2^{8}}$ -->
      <g transform="translate(695.852995 253.196375) scale(0.12 -0.12)">
       <use xlink:href="#DejaVuSans-32" transform="translate(0 0.765625)"/>
       <use xlink:href="#DejaVuSans-38" transform="translate(64.580078 39.046875) scale(0.7)"/>
      </g>
     </g>
    </g>
    <g id="text_22">
     <!-- Number of logical processors -->
     <g transform="translate(467.290954 272.787) scale(0.18 -0.18)">
      <defs>
       <path id="Helvetica-4e" d="M 488 4591 
L 1222 4591 
L 3541 872 
L 3541 4591 
L 4131 4591 
L 4131 0 
L 3434 0 
L 1081 3716 
L 1081 0 
L 488 0 
L 488 4591 
z
M 2269 4591 
L 2269 4591 
z
" transform="scale(0.015625)"/>
       <path id="Helvetica-6d" d="M 413 3347 
L 969 3347 
L 969 2872 
Q 1169 3119 1331 3231 
Q 1609 3422 1963 3422 
Q 2363 3422 2606 3225 
Q 2744 3113 2856 2894 
Q 3044 3163 3297 3292 
Q 3550 3422 3866 3422 
Q 4541 3422 4784 2934 
Q 4916 2672 4916 2228 
L 4916 0 
L 4331 0 
L 4331 2325 
Q 4331 2659 4164 2784 
Q 3997 2909 3756 2909 
Q 3425 2909 3186 2687 
Q 2947 2466 2947 1947 
L 2947 0 
L 2375 0 
L 2375 2184 
Q 2375 2525 2294 2681 
Q 2166 2916 1816 2916 
Q 1497 2916 1236 2669 
Q 975 2422 975 1775 
L 975 0 
L 413 0 
L 413 3347 
z
" transform="scale(0.015625)"/>
       <path id="Helvetica-62" d="M 369 4606 
L 916 4606 
L 916 2941 
Q 1100 3181 1356 3307 
Q 1613 3434 1913 3434 
Q 2538 3434 2927 3004 
Q 3316 2575 3316 1738 
Q 3316 944 2931 419 
Q 2547 -106 1866 -106 
Q 1484 -106 1222 78 
Q 1066 188 888 428 
L 888 0 
L 369 0 
L 369 4606 
z
M 1831 391 
Q 2288 391 2514 753 
Q 2741 1116 2741 1709 
Q 2741 2238 2514 2584 
Q 2288 2931 1847 2931 
Q 1463 2931 1173 2647 
Q 884 2363 884 1709 
Q 884 1238 1003 944 
Q 1225 391 1831 391 
z
" transform="scale(0.015625)"/>
       <path id="Helvetica-72" d="M 428 3347 
L 963 3347 
L 963 2769 
Q 1028 2938 1284 3180 
Q 1541 3422 1875 3422 
Q 1891 3422 1928 3419 
Q 1966 3416 2056 3406 
L 2056 2813 
Q 2006 2822 1964 2825 
Q 1922 2828 1872 2828 
Q 1447 2828 1219 2554 
Q 991 2281 991 1925 
L 991 0 
L 428 0 
L 428 3347 
z
" transform="scale(0.015625)"/>
       <path id="Helvetica-66" d="M 553 3856 
Q 566 4206 675 4369 
Q 872 4656 1434 4656 
Q 1488 4656 1544 4653 
Q 1600 4650 1672 4644 
L 1672 4131 
Q 1584 4138 1545 4139 
Q 1506 4141 1472 4141 
Q 1216 4141 1166 4008 
Q 1116 3875 1116 3331 
L 1672 3331 
L 1672 2888 
L 1109 2888 
L 1109 0 
L 553 0 
L 553 2888 
L 88 2888 
L 88 3331 
L 553 3331 
L 553 3856 
z
" transform="scale(0.015625)"/>
       <path id="Helvetica-63" d="M 1703 3444 
Q 2269 3444 2623 3169 
Q 2978 2894 3050 2222 
L 2503 2222 
Q 2453 2531 2275 2736 
Q 2097 2941 1703 2941 
Q 1166 2941 934 2416 
Q 784 2075 784 1575 
Q 784 1072 996 728 
Q 1209 384 1666 384 
Q 2016 384 2220 598 
Q 2425 813 2503 1184 
L 3050 1184 
Q 2956 519 2581 211 
Q 2206 -97 1622 -97 
Q 966 -97 575 383 
Q 184 863 184 1581 
Q 184 2463 612 2953 
Q 1041 3444 1703 3444 
z
M 1616 3428 
L 1616 3428 
z
" transform="scale(0.015625)"/>
      </defs>
      <use xlink:href="#Helvetica-4e"/>
      <use xlink:href="#Helvetica-75" x="72.216797"/>
      <use xlink:href="#Helvetica-6d" x="127.832031"/>
      <use xlink:href="#Helvetica-62" x="211.132812"/>
      <use xlink:href="#Helvetica-65" x="266.748047"/>
      <use xlink:href="#Helvetica-72" x="322.363281"/>
      <use xlink:href="#Helvetica-20" x="355.664062"/>
      <use xlink:href="#Helvetica-6f" x="383.447266"/>
      <use xlink:href="#Helvetica-66" x="439.0625"/>
      <use xlink:href="#Helvetica-20" x="466.845703"/>
      <use xlink:href="#Helvetica-6c" x="494.628906"/>
      <use xlink:href="#Helvetica-6f" x="516.845703"/>
      <use xlink:href="#Helvetica-67" x="572.460938"/>
      <use xlink:href="#Helvetica-69" x="628.076172"/>
      <use xlink:href="#Helvetica-63" x="650.292969"/>
      <use xlink:href="#Helvetica-61" x="700.292969"/>
      <use xlink:href="#Helvetica-6c" x="755.908203"/>
      <use xlink:href="#Helvetica-20" x="778.125"/>
      <use xlink:href="#Helvetica-70" x="805.908203"/>
      <use xlink:href="#Helvetica-72" x="861.523438"/>
      <use xlink:href="#Helvetica-6f" x="894.824219"/>
      <use xlink:href="#Helvetica-63" x="950.439453"/>
      <use xlink:href="#Helvetica-65" x="1000.439453"/>
      <use xlink:href="#Helvetica-73" x="1056.054688"/>
      <use xlink:href="#Helvetica-73" x="1106.054688"/>
      <use xlink:href="#Helvetica-6f" x="1156.054688"/>
      <use xlink:href="#Helvetica-72" x="1211.669922"/>
      <use xlink:href="#Helvetica-73" x="1244.970703"/>
     </g>
    </g>
   </g>
   <g id="matplotlib.axis_4">
    <g id="ytick_7">
     <g id="line2d_6">
      <defs>
       <path id="m0df67817f7" d="M 0 0 
L 3.5 0 
" style="stroke: #000000; stroke-width: 0.8"/>
      </defs>
      <g>
       <use xlink:href="#m0df67817f7" x="465.089225" y="240.57825" style="stroke: #000000; stroke-width: 0.8"/>
      </g>
     </g>
     <g id="text_23">
      <!-- $\mathdefault{10^{0}}$ -->
      <g transform="translate(440.469225 245.137313) scale(0.12 -0.12)">
       <use xlink:href="#DejaVuSans-31" transform="translate(0 0.765625)"/>
       <use xlink:href="#DejaVuSans-30" transform="translate(63.623047 0.765625)"/>
       <use xlink:href="#DejaVuSans-30" transform="translate(128.203125 39.046875) scale(0.7)"/>
      </g>
     </g>
    </g>
    <g id="ytick_8">
     <g id="line2d_7">
      <g>
       <use xlink:href="#m0df67817f7" x="465.089225" y="192.730719" style="stroke: #000000; stroke-width: 0.8"/>
      </g>
     </g>
     <g id="text_24">
      <!-- $\mathdefault{10^{1}}$ -->
      <g transform="translate(440.469225 197.289781) scale(0.12 -0.12)">
       <use xlink:href="#DejaVuSans-31" transform="translate(0 0.684375)"/>
       <use xlink:href="#DejaVuSans-30" transform="translate(63.623047 0.684375)"/>
       <use xlink:href="#DejaVuSans-31" transform="translate(128.203125 38.965625) scale(0.7)"/>
      </g>
     </g>
    </g>
    <g id="ytick_9">
     <g id="line2d_8">
      <g>
       <use xlink:href="#m0df67817f7" x="465.089225" y="144.883188" style="stroke: #000000; stroke-width: 0.8"/>
      </g>
     </g>
     <g id="text_25">
      <!-- $\mathdefault{10^{2}}$ -->
      <g transform="translate(440.469225 149.44225) scale(0.12 -0.12)">
       <use xlink:href="#DejaVuSans-31" transform="translate(0 0.765625)"/>
       <use xlink:href="#DejaVuSans-30" transform="translate(63.623047 0.765625)"/>
       <use xlink:href="#DejaVuSans-32" transform="translate(128.203125 39.046875) scale(0.7)"/>
      </g>
     </g>
    </g>
    <g id="ytick_10">
     <g id="line2d_9">
      <g>
       <use xlink:href="#m0df67817f7" x="465.089225" y="97.035656" style="stroke: #000000; stroke-width: 0.8"/>
      </g>
     </g>
     <g id="text_26">
      <!-- $\mathdefault{10^{3}}$ -->
      <g transform="translate(440.469225 101.594719) scale(0.12 -0.12)">
       <use xlink:href="#DejaVuSans-31" transform="translate(0 0.765625)"/>
       <use xlink:href="#DejaVuSans-30" transform="translate(63.623047 0.765625)"/>
       <use xlink:href="#DejaVuSans-33" transform="translate(128.203125 39.046875) scale(0.7)"/>
      </g>
     </g>
    </g>
    <g id="ytick_11">
     <g id="line2d_10">
      <g>
       <use xlink:href="#m0df67817f7" x="465.089225" y="49.188125" style="stroke: #000000; stroke-width: 0.8"/>
      </g>
     </g>
     <g id="text_27">
      <!-- $\mathdefault{10^{4}}$ -->
      <g transform="translate(440.469225 53.747188) scale(0.12 -0.12)">
       <use xlink:href="#DejaVuSans-31" transform="translate(0 0.684375)"/>
       <use xlink:href="#DejaVuSans-30" transform="translate(63.623047 0.684375)"/>
       <use xlink:href="#DejaVuSans-34" transform="translate(128.203125 38.965625) scale(0.7)"/>
      </g>
     </g>
    </g>
    <g id="ytick_12">
     <g id="line2d_11">
      <defs>
       <path id="mb71885a0d3" d="M 0 0 
L -2 0 
" style="stroke: #000000; stroke-width: 0.6"/>
      </defs>
      <g>
       <use xlink:href="#mb71885a0d3" x="465.089225" y="226.174708" style="stroke: #000000; stroke-width: 0.6"/>
      </g>
     </g>
    </g>
    <g id="ytick_13">
     <g id="line2d_12">
      <g>
       <use xlink:href="#mb71885a0d3" x="465.089225" y="217.749176" style="stroke: #000000; stroke-width: 0.6"/>
      </g>
     </g>
    </g>
    <g id="ytick_14">
     <g id="line2d_13">
      <g>
       <use xlink:href="#mb71885a0d3" x="465.089225" y="211.771166" style="stroke: #000000; stroke-width: 0.6"/>
      </g>
     </g>
    </g>
    <g id="ytick_15">
     <g id="line2d_14">
      <g>
       <use xlink:href="#mb71885a0d3" x="465.089225" y="207.134261" style="stroke: #000000; stroke-width: 0.6"/>
      </g>
     </g>
    </g>
    <g id="ytick_16">
     <g id="line2d_15">
      <g>
       <use xlink:href="#mb71885a0d3" x="465.089225" y="203.345634" style="stroke: #000000; stroke-width: 0.6"/>
      </g>
     </g>
    </g>
    <g id="ytick_17">
     <g id="line2d_16">
      <g>
       <use xlink:href="#mb71885a0d3" x="465.089225" y="200.142395" style="stroke: #000000; stroke-width: 0.6"/>
      </g>
     </g>
    </g>
    <g id="ytick_18">
     <g id="line2d_17">
      <g>
       <use xlink:href="#mb71885a0d3" x="465.089225" y="197.367624" style="stroke: #000000; stroke-width: 0.6"/>
      </g>
     </g>
    </g>
    <g id="ytick_19">
     <g id="line2d_18">
      <g>
       <use xlink:href="#mb71885a0d3" x="465.089225" y="194.920102" style="stroke: #000000; stroke-width: 0.6"/>
      </g>
     </g>
    </g>
    <g id="ytick_20">
     <g id="line2d_19">
      <g>
       <use xlink:href="#mb71885a0d3" x="465.089225" y="178.327177" style="stroke: #000000; stroke-width: 0.6"/>
      </g>
     </g>
    </g>
    <g id="ytick_21">
     <g id="line2d_20">
      <g>
       <use xlink:href="#mb71885a0d3" x="465.089225" y="169.901645" style="stroke: #000000; stroke-width: 0.6"/>
      </g>
     </g>
    </g>
    <g id="ytick_22">
     <g id="line2d_21">
      <g>
       <use xlink:href="#mb71885a0d3" x="465.089225" y="163.923635" style="stroke: #000000; stroke-width: 0.6"/>
      </g>
     </g>
    </g>
    <g id="ytick_23">
     <g id="line2d_22">
      <g>
       <use xlink:href="#mb71885a0d3" x="465.089225" y="159.28673" style="stroke: #000000; stroke-width: 0.6"/>
      </g>
     </g>
    </g>
    <g id="ytick_24">
     <g id="line2d_23">
      <g>
       <use xlink:href="#mb71885a0d3" x="465.089225" y="155.498102" style="stroke: #000000; stroke-width: 0.6"/>
      </g>
     </g>
    </g>
    <g id="ytick_25">
     <g id="line2d_24">
      <g>
       <use xlink:href="#mb71885a0d3" x="465.089225" y="152.294864" style="stroke: #000000; stroke-width: 0.6"/>
      </g>
     </g>
    </g>
    <g id="ytick_26">
     <g id="line2d_25">
      <g>
       <use xlink:href="#mb71885a0d3" x="465.089225" y="149.520092" style="stroke: #000000; stroke-width: 0.6"/>
      </g>
     </g>
    </g>
    <g id="ytick_27">
     <g id="line2d_26">
      <g>
       <use xlink:href="#mb71885a0d3" x="465.089225" y="147.07257" style="stroke: #000000; stroke-width: 0.6"/>
      </g>
     </g>
    </g>
    <g id="ytick_28">
     <g id="line2d_27">
      <g>
       <use xlink:href="#mb71885a0d3" x="465.089225" y="130.479645" style="stroke: #000000; stroke-width: 0.6"/>
      </g>
     </g>
    </g>
    <g id="ytick_29">
     <g id="line2d_28">
      <g>
       <use xlink:href="#mb71885a0d3" x="465.089225" y="122.054113" style="stroke: #000000; stroke-width: 0.6"/>
      </g>
     </g>
    </g>
    <g id="ytick_30">
     <g id="line2d_29">
      <g>
       <use xlink:href="#mb71885a0d3" x="465.089225" y="116.076103" style="stroke: #000000; stroke-width: 0.6"/>
      </g>
     </g>
    </g>
    <g id="ytick_31">
     <g id="line2d_30">
      <g>
       <use xlink:href="#mb71885a0d3" x="465.089225" y="111.439198" style="stroke: #000000; stroke-width: 0.6"/>
      </g>
     </g>
    </g>
    <g id="ytick_32">
     <g id="line2d_31">
      <g>
       <use xlink:href="#mb71885a0d3" x="465.089225" y="107.650571" style="stroke: #000000; stroke-width: 0.6"/>
      </g>
     </g>
    </g>
    <g id="ytick_33">
     <g id="line2d_32">
      <g>
       <use xlink:href="#mb71885a0d3" x="465.089225" y="104.447333" style="stroke: #000000; stroke-width: 0.6"/>
      </g>
     </g>
    </g>
    <g id="ytick_34">
     <g id="line2d_33">
      <g>
       <use xlink:href="#mb71885a0d3" x="465.089225" y="101.672561" style="stroke: #000000; stroke-width: 0.6"/>
      </g>
     </g>
    </g>
    <g id="ytick_35">
     <g id="line2d_34">
      <g>
       <use xlink:href="#mb71885a0d3" x="465.089225" y="99.225039" style="stroke: #000000; stroke-width: 0.6"/>
      </g>
     </g>
    </g>
    <g id="ytick_36">
     <g id="line2d_35">
      <g>
       <use xlink:href="#mb71885a0d3" x="465.089225" y="82.632114" style="stroke: #000000; stroke-width: 0.6"/>
      </g>
     </g>
    </g>
    <g id="ytick_37">
     <g id="line2d_36">
      <g>
       <use xlink:href="#mb71885a0d3" x="465.089225" y="74.206582" style="stroke: #000000; stroke-width: 0.6"/>
      </g>
     </g>
    </g>
    <g id="ytick_38">
     <g id="line2d_37">
      <g>
       <use xlink:href="#mb71885a0d3" x="465.089225" y="68.228572" style="stroke: #000000; stroke-width: 0.6"/>
      </g>
     </g>
    </g>
    <g id="ytick_39">
     <g id="line2d_38">
      <g>
       <use xlink:href="#mb71885a0d3" x="465.089225" y="63.591667" style="stroke: #000000; stroke-width: 0.6"/>
      </g>
     </g>
    </g>
    <g id="ytick_40">
     <g id="line2d_39">
      <g>
       <use xlink:href="#mb71885a0d3" x="465.089225" y="59.80304" style="stroke: #000000; stroke-width: 0.6"/>
      </g>
     </g>
    </g>
    <g id="ytick_41">
     <g id="line2d_40">
      <g>
       <use xlink:href="#mb71885a0d3" x="465.089225" y="56.599801" style="stroke: #000000; stroke-width: 0.6"/>
      </g>
     </g>
    </g>
    <g id="ytick_42">
     <g id="line2d_41">
      <g>
       <use xlink:href="#mb71885a0d3" x="465.089225" y="53.82503" style="stroke: #000000; stroke-width: 0.6"/>
      </g>
     </g>
    </g>
    <g id="ytick_43">
     <g id="line2d_42">
      <g>
       <use xlink:href="#mb71885a0d3" x="465.089225" y="51.377508" style="stroke: #000000; stroke-width: 0.6"/>
      </g>
     </g>
    </g>
    <g id="text_28">
     <!-- Wall-clock time, sec -->
     <g transform="translate(432.71735 224.391156) rotate(-90) scale(0.18 -0.18)">
      <defs>
       <path id="Helvetica-6b" d="M 400 4591 
L 941 4591 
L 941 1925 
L 2384 3347 
L 3103 3347 
L 1822 2094 
L 3175 0 
L 2456 0 
L 1413 1688 
L 941 1256 
L 941 0 
L 400 0 
L 400 4591 
z
" transform="scale(0.015625)"/>
      </defs>
      <use xlink:href="#Helvetica-57"/>
      <use xlink:href="#Helvetica-61" x="94.384766"/>
      <use xlink:href="#Helvetica-6c" x="150"/>
      <use xlink:href="#Helvetica-6c" x="172.216797"/>
      <use xlink:href="#Helvetica-2d" x="194.433594"/>
      <use xlink:href="#Helvetica-63" x="227.734375"/>
      <use xlink:href="#Helvetica-6c" x="277.734375"/>
      <use xlink:href="#Helvetica-6f" x="299.951172"/>
      <use xlink:href="#Helvetica-63" x="355.566406"/>
      <use xlink:href="#Helvetica-6b" x="405.566406"/>
      <use xlink:href="#Helvetica-20" x="455.566406"/>
      <use xlink:href="#Helvetica-74" x="483.349609"/>
      <use xlink:href="#Helvetica-69" x="511.132812"/>
      <use xlink:href="#Helvetica-6d" x="533.349609"/>
      <use xlink:href="#Helvetica-65" x="616.650391"/>
      <use xlink:href="#Helvetica-2c" x="672.265625"/>
      <use xlink:href="#Helvetica-20" x="700.048828"/>
      <use xlink:href="#Helvetica-73" x="727.832031"/>
      <use xlink:href="#Helvetica-65" x="777.832031"/>
      <use xlink:href="#Helvetica-63" x="833.447266"/>
     </g>
    </g>
   </g>
   <g id="line2d_43">
    <path d="M 465.089225 82.657764 
L 494.774696 97.57526 
L 524.460168 111.548977 
L 554.145639 124.522335 
L 583.83111 136.311477 
L 613.516582 151.337453 
L 643.202053 154.397516 
L 660.56694 155.155524 
" clip-path="url(#p441adf79a4)" style="fill: none; stroke: #408000; stroke-width: 1.5; stroke-linecap: square"/>
    <defs>
     <path id="m55ba3b055c" d="M 0 4 
C 1.060812 4 2.078319 3.578535 2.828427 2.828427 
C 3.578535 2.078319 4 1.060812 4 0 
C 4 -1.060812 3.578535 -2.078319 2.828427 -2.828427 
C 2.078319 -3.578535 1.060812 -4 0 -4 
C -1.060812 -4 -2.078319 -3.578535 -2.828427 -2.828427 
C -3.578535 -2.078319 -4 -1.060812 -4 0 
C -4 1.060812 -3.578535 2.078319 -2.828427 2.828427 
C -2.078319 3.578535 -1.060812 4 0 4 
z
" style="stroke: #408000"/>
    </defs>
    <g clip-path="url(#p441adf79a4)">
     <use xlink:href="#m55ba3b055c" x="465.089225" y="82.657764" style="fill: #408000; stroke: #408000"/>
     <use xlink:href="#m55ba3b055c" x="494.774696" y="97.57526" style="fill: #408000; stroke: #408000"/>
     <use xlink:href="#m55ba3b055c" x="524.460168" y="111.548977" style="fill: #408000; stroke: #408000"/>
     <use xlink:href="#m55ba3b055c" x="554.145639" y="124.522335" style="fill: #408000; stroke: #408000"/>
     <use xlink:href="#m55ba3b055c" x="583.83111" y="136.311477" style="fill: #408000; stroke: #408000"/>
     <use xlink:href="#m55ba3b055c" x="613.516582" y="151.337453" style="fill: #408000; stroke: #408000"/>
     <use xlink:href="#m55ba3b055c" x="643.202053" y="154.397516" style="fill: #408000; stroke: #408000"/>
     <use xlink:href="#m55ba3b055c" x="660.56694" y="155.155524" style="fill: #408000; stroke: #408000"/>
    </g>
   </g>
   <g id="line2d_44">
    <path d="M 465.089225 100.757777 
L 494.774696 115.107357 
L 524.460168 129.319097 
L 554.145639 143.444386 
L 583.83111 157.290735 
L 613.516582 170.290216 
L 643.202053 179.069543 
L 660.56694 186.20374 
L 672.887524 188.763345 
L 702.572995 182.859489 
" clip-path="url(#p441adf79a4)" style="fill: none; stroke: #8060ff; stroke-width: 3; stroke-linecap: square"/>
    <defs>
     <path id="mbd3a0507d1" d="M -4 4 
L 4 4 
L 4 -4 
L -4 -4 
z
" style="stroke: #000000; stroke-linejoin: miter"/>
    </defs>
    <g clip-path="url(#p441adf79a4)">
     <use xlink:href="#mbd3a0507d1" x="465.089225" y="100.757777" style="fill: #8060ff; stroke: #000000; stroke-linejoin: miter"/>
     <use xlink:href="#mbd3a0507d1" x="494.774696" y="115.107357" style="fill: #8060ff; stroke: #000000; stroke-linejoin: miter"/>
     <use xlink:href="#mbd3a0507d1" x="524.460168" y="129.319097" style="fill: #8060ff; stroke: #000000; stroke-linejoin: miter"/>
     <use xlink:href="#mbd3a0507d1" x="554.145639" y="143.444386" style="fill: #8060ff; stroke: #000000; stroke-linejoin: miter"/>
     <use xlink:href="#mbd3a0507d1" x="583.83111" y="157.290735" style="fill: #8060ff; stroke: #000000; stroke-linejoin: miter"/>
     <use xlink:href="#mbd3a0507d1" x="613.516582" y="170.290216" style="fill: #8060ff; stroke: #000000; stroke-linejoin: miter"/>
     <use xlink:href="#mbd3a0507d1" x="643.202053" y="179.069543" style="fill: #8060ff; stroke: #000000; stroke-linejoin: miter"/>
     <use xlink:href="#mbd3a0507d1" x="660.56694" y="186.20374" style="fill: #8060ff; stroke: #000000; stroke-linejoin: miter"/>
     <use xlink:href="#mbd3a0507d1" x="672.887524" y="188.763345" style="fill: #8060ff; stroke: #000000; stroke-linejoin: miter"/>
     <use xlink:href="#mbd3a0507d1" x="702.572995" y="182.859489" style="fill: #8060ff; stroke: #000000; stroke-linejoin: miter"/>
    </g>
   </g>
   <g id="patch_15">
    <path d="M 465.089225 240.57825 
L 465.089225 49.188125 
" style="fill: none; stroke: #000000; stroke-width: 0.8; stroke-linejoin: miter; stroke-linecap: square"/>
   </g>
   <g id="patch_16">
    <path d="M 702.572995 240.57825 
L 702.572995 49.188125 
" style="fill: none; stroke: #000000; stroke-width: 0.8; stroke-linejoin: miter; stroke-linecap: square"/>
   </g>
   <g id="patch_17">
    <path d="M 465.089225 240.57825 
L 702.572995 240.57825 
" style="fill: none; stroke: #000000; stroke-width: 0.8; stroke-linejoin: miter; stroke-linecap: square"/>
   </g>
   <g id="patch_18">
    <path d="M 465.089225 49.188125 
L 702.572995 49.188125 
" style="fill: none; stroke: #000000; stroke-width: 0.8; stroke-linejoin: miter; stroke-linecap: square"/>
   </g>
   <g id="text_29">
    <!-- (b) Linux: Multiple nodes -->
    <g transform="translate(485.78736 24.188125) scale(0.18 -0.18)">
     <defs>
      <path id="Helvetica-4c" d="M 488 4591 
L 1109 4591 
L 1109 547 
L 3434 547 
L 3434 0 
L 488 0 
L 488 4591 
z
" transform="scale(0.015625)"/>
      <path id="Helvetica-78" d="M 94 3347 
L 822 3347 
L 1591 2169 
L 2369 3347 
L 3053 3331 
L 1925 1716 
L 3103 0 
L 2384 0 
L 1553 1256 
L 747 0 
L 34 0 
L 1213 1716 
L 94 3347 
z
" transform="scale(0.015625)"/>
      <path id="Helvetica-4d" d="M 472 4591 
L 1363 4591 
L 2681 709 
L 3991 4591 
L 4872 4591 
L 4872 0 
L 4281 0 
L 4281 2709 
Q 4281 2850 4287 3175 
Q 4294 3500 4294 3872 
L 2984 0 
L 2369 0 
L 1050 3872 
L 1050 3731 
Q 1050 3563 1058 3217 
Q 1066 2872 1066 2709 
L 1066 0 
L 472 0 
L 472 4591 
z
" transform="scale(0.015625)"/>
     </defs>
     <use xlink:href="#Helvetica-28"/>
     <use xlink:href="#Helvetica-62" x="33.300781"/>
     <use xlink:href="#Helvetica-29" x="88.916016"/>
     <use xlink:href="#Helvetica-20" x="122.216797"/>
     <use xlink:href="#Helvetica-4c" x="150"/>
     <use xlink:href="#Helvetica-69" x="205.615234"/>
     <use xlink:href="#Helvetica-6e" x="227.832031"/>
     <use xlink:href="#Helvetica-75" x="283.447266"/>
     <use xlink:href="#Helvetica-78" x="339.0625"/>
     <use xlink:href="#Helvetica-3a" x="389.0625"/>
     <use xlink:href="#Helvetica-20" x="416.845703"/>
     <use xlink:href="#Helvetica-4d" x="444.628906"/>
     <use xlink:href="#Helvetica-75" x="527.929688"/>
     <use xlink:href="#Helvetica-6c" x="583.544922"/>
     <use xlink:href="#Helvetica-74" x="605.761719"/>
     <use xlink:href="#Helvetica-69" x="633.544922"/>
     <use xlink:href="#Helvetica-70" x="655.761719"/>
     <use xlink:href="#Helvetica-6c" x="711.376953"/>
     <use xlink:href="#Helvetica-65" x="733.59375"/>
     <use xlink:href="#Helvetica-20" x="789.208984"/>
     <use xlink:href="#Helvetica-6e" x="816.992188"/>
     <use xlink:href="#Helvetica-6f" x="872.607422"/>
     <use xlink:href="#Helvetica-64" x="928.222656"/>
     <use xlink:href="#Helvetica-65" x="983.837891"/>
     <use xlink:href="#Helvetica-73" x="1039.453125"/>
    </g>
   </g>
   <g id="legend_2">
    <g id="patch_19">
     <path d="M 563.707995 108.115625 
L 691.372995 108.115625 
Q 694.572995 108.115625 694.572995 104.915625 
L 694.572995 60.388125 
Q 694.572995 57.188125 691.372995 57.188125 
L 563.707995 57.188125 
Q 560.507995 57.188125 560.507995 60.388125 
L 560.507995 104.915625 
Q 560.507995 108.115625 563.707995 108.115625 
z
" style="fill: #ffffff; opacity: 0.8; stroke: #cccccc; stroke-linejoin: miter"/>
    </g>
    <g id="line2d_45">
     <path d="M 566.907995 69.778125 
L 582.907995 69.778125 
L 598.907995 69.778125 
" style="fill: none; stroke: #408000; stroke-width: 1.5; stroke-linecap: square"/>
     <g>
      <use xlink:href="#m55ba3b055c" x="582.907995" y="69.778125" style="fill: #408000; stroke: #408000"/>
     </g>
    </g>
    <g id="text_30">
     <!-- TC-Python -->
     <g transform="translate(611.707995 75.378125) scale(0.16 -0.16)">
      <use xlink:href="#Helvetica-54"/>
      <use xlink:href="#Helvetica-43" x="61.083984"/>
      <use xlink:href="#Helvetica-2d" x="133.300781"/>
      <use xlink:href="#Helvetica-50" x="166.601562"/>
      <use xlink:href="#Helvetica-79" x="233.300781"/>
      <use xlink:href="#Helvetica-74" x="283.300781"/>
      <use xlink:href="#Helvetica-68" x="311.083984"/>
      <use xlink:href="#Helvetica-6f" x="366.699219"/>
      <use xlink:href="#Helvetica-6e" x="422.314453"/>
     </g>
    </g>
    <g id="line2d_46">
     <path d="M 566.907995 92.685625 
L 582.907995 92.685625 
L 598.907995 92.685625 
" style="fill: none; stroke: #8060ff; stroke-width: 3; stroke-linecap: square"/>
     <g>
      <use xlink:href="#mbd3a0507d1" x="582.907995" y="92.685625" style="fill: #8060ff; stroke: #000000; stroke-linejoin: miter"/>
     </g>
    </g>
    <g id="text_31">
     <!-- Equilipy -->
     <g transform="translate(611.707995 98.285625) scale(0.16 -0.16)">
      <use xlink:href="#Helvetica-45"/>
      <use xlink:href="#Helvetica-71" x="66.699219"/>
      <use xlink:href="#Helvetica-75" x="122.314453"/>
      <use xlink:href="#Helvetica-69" x="177.929688"/>
      <use xlink:href="#Helvetica-6c" x="200.146484"/>
      <use xlink:href="#Helvetica-69" x="222.363281"/>
      <use xlink:href="#Helvetica-70" x="244.580078"/>
      <use xlink:href="#Helvetica-79" x="300.195312"/>
     </g>
    </g>
   </g>
  </g>
 </g>
 <defs>
  <clipPath id="pad3dcc8ed7">
   <path d="M 236.123766 144.883188 
C 236.123766 132.316627 233.648428 119.872261 228.839413 108.262273 
C 224.030399 96.652285 216.981231 86.10246 208.095331 77.21656 
C 199.209431 68.33066 188.659606 61.281492 177.049618 56.472478 
C 165.43963 51.663463 152.995264 49.188125 140.428703 49.188125 
C 127.862143 49.188125 115.417776 51.663463 103.807788 56.472478 
C 92.1978 61.281492 81.647976 68.33066 72.762076 77.21656 
C 63.876176 86.10246 56.827008 96.652285 52.017994 108.262273 
C 47.208979 119.872261 44.733641 132.316627 44.733641 144.883188 
C 44.733641 157.449748 47.208979 169.894114 52.017994 181.504102 
C 56.827008 193.11409 63.876176 203.663915 72.762076 212.549815 
C 81.647976 221.435715 92.1978 228.484883 103.807788 233.293897 
C 115.417776 238.102912 127.862143 240.57825 140.428703 240.57825 
C 152.995264 240.57825 165.43963 238.102912 177.049618 233.293897 
C 188.659606 228.484883 199.209431 221.435715 208.095331 212.549815 
C 216.981231 203.663915 224.030399 193.11409 228.839413 181.504102 
C 233.648428 169.894114 236.123766 157.449748 236.123766 144.883188 
M 140.428703 144.883188 
C 140.428703 144.883188 140.428703 144.883188 140.428703 144.883188 
C 140.428703 144.883188 140.428703 144.883188 140.428703 144.883188 
C 140.428703 144.883188 140.428703 144.883188 140.428703 144.883188 
C 140.428703 144.883188 140.428703 144.883188 140.428703 144.883188 
C 140.428703 144.883188 140.428703 144.883188 140.428703 144.883188 
C 140.428703 144.883188 140.428703 144.883188 140.428703 144.883188 
C 140.428703 144.883188 140.428703 144.883188 140.428703 144.883188 
C 140.428703 144.883188 140.428703 144.883188 140.428703 144.883188 
C 140.428703 144.883188 140.428703 144.883188 140.428703 144.883188 
C 140.428703 144.883188 140.428703 144.883188 140.428703 144.883188 
C 140.428703 144.883188 140.428703 144.883188 140.428703 144.883188 
C 140.428703 144.883188 140.428703 144.883188 140.428703 144.883188 
C 140.428703 144.883188 140.428703 144.883188 140.428703 144.883188 
C 140.428703 144.883188 140.428703 144.883188 140.428703 144.883188 
C 140.428703 144.883188 140.428703 144.883188 140.428703 144.883188 
C 140.428703 144.883188 140.428703 144.883188 140.428703 144.883188 
z
"/>
  </clipPath>
  <clipPath id="p441adf79a4">
   <rect x="465.089225" y="49.188125" width="237.48377" height="191.390125"/>
  </clipPath>
 </defs>
</svg>
