<?xml version="1.0" encoding="utf-8" standalone="no"?>
<!DOCTYPE svg PUBLIC "-//W3C//DTD SVG 1.1//EN"
  "http://www.w3.org/Graphics/SVG/1.1/DTD/svg11.dtd">
<svg xmlns:xlink="http://www.w3.org/1999/xlink" width="720pt" height="288pt" viewBox="0 0 720 288" xmlns="http://www.w3.org/2000/svg" version="1.1">
 <metadata>
  <rdf:RDF xmlns:dc="http://purl.org/dc/elements/1.1/" xmlns:cc="http://creativecommons.org/ns#" xmlns:rdf="http://www.w3.org/1999/02/22-rdf-syntax-ns#">
   <cc:Work>
    <dc:type rdf:resource="http://purl.org/dc/dcmitype/StillImage"/>
    <dc:date>2024-05-03T13:36:37.464513</dc:date>
    <dc:format>image/svg+xml</dc:format>
    <dc:creator>
     <cc:Agent>
      <dc:title>Matplotlib v3.8.2, https://matplotlib.org/</dc:title>
     </cc:Agent>
    </dc:creator>
   </cc:Work>
  </rdf:RDF>
 </metadata>
 <defs>
  <style type="text/css">*{stroke-linejoin: round; stroke-linecap: butt}</style>
 </defs>
 <g id="figure_1">
  <g id="patch_1">
   <path d="M 0 288 
L 720 288 
L 720 0 
L 0 0 
z
" style="fill: #ffffff"/>
  </g>
  <g id="axes_1">
   <g id="patch_2">
    <path d="M 55.73 241.36 
L 347.4225 241.36 
L 347.4225 29.76 
L 55.73 29.76 
z
" style="fill: #ffffff"/>
   </g>
   <g id="matplotlib.axis_1">
    <g id="xtick_1">
     <g id="line2d_1">
      <path d="M 55.73 241.36 
L 55.73 29.76 
" clip-path="url(#p634822f84d)" style="fill: none; stroke: #b0b0b0; stroke-width: 0.8; stroke-linecap: square"/>
     </g>
     <g id="line2d_2">
      <defs>
       <path id="ma0c2e72110" d="M 0 0 
L 0 3.5 
" style="stroke: #000000; stroke-width: 0.8"/>
      </defs>
      <g>
       <use xlink:href="#ma0c2e72110" x="55.73" y="241.36" style="stroke: #000000; stroke-width: 0.8"/>
      </g>
     </g>
     <g id="text_1">
      <!-- 0.0 -->
      <g transform="translate(47.778438 255.958438) scale(0.1 -0.1)">
       <defs>
        <path id="DejaVuSans-30" d="M 2034 4250 
Q 1547 4250 1301 3770 
Q 1056 3291 1056 2328 
Q 1056 1369 1301 889 
Q 1547 409 2034 409 
Q 2525 409 2770 889 
Q 3016 1369 3016 2328 
Q 3016 3291 2770 3770 
Q 2525 4250 2034 4250 
z
M 2034 4750 
Q 2819 4750 3233 4129 
Q 3647 3509 3647 2328 
Q 3647 1150 3233 529 
Q 2819 -91 2034 -91 
Q 1250 -91 836 529 
Q 422 1150 422 2328 
Q 422 3509 836 4129 
Q 1250 4750 2034 4750 
z
" transform="scale(0.015625)"/>
        <path id="DejaVuSans-2e" d="M 684 794 
L 1344 794 
L 1344 0 
L 684 0 
L 684 794 
z
" transform="scale(0.015625)"/>
       </defs>
       <use xlink:href="#DejaVuSans-30"/>
       <use xlink:href="#DejaVuSans-2e" x="63.623047"/>
       <use xlink:href="#DejaVuSans-30" x="95.410156"/>
      </g>
     </g>
    </g>
    <g id="xtick_2">
     <g id="line2d_3">
      <path d="M 114.0685 241.36 
L 114.0685 29.76 
" clip-path="url(#p634822f84d)" style="fill: none; stroke: #b0b0b0; stroke-width: 0.8; stroke-linecap: square"/>
     </g>
     <g id="line2d_4">
      <g>
       <use xlink:href="#ma0c2e72110" x="114.0685" y="241.36" style="stroke: #000000; stroke-width: 0.8"/>
      </g>
     </g>
     <g id="text_2">
      <!-- 0.2 -->
      <g transform="translate(106.116938 255.958438) scale(0.1 -0.1)">
       <defs>
        <path id="DejaVuSans-32" d="M 1228 531 
L 3431 531 
L 3431 0 
L 469 0 
L 469 531 
Q 828 903 1448 1529 
Q 2069 2156 2228 2338 
Q 2531 2678 2651 2914 
Q 2772 3150 2772 3378 
Q 2772 3750 2511 3984 
Q 2250 4219 1831 4219 
Q 1534 4219 1204 4116 
Q 875 4013 500 3803 
L 500 4441 
Q 881 4594 1212 4672 
Q 1544 4750 1819 4750 
Q 2544 4750 2975 4387 
Q 3406 4025 3406 3419 
Q 3406 3131 3298 2873 
Q 3191 2616 2906 2266 
Q 2828 2175 2409 1742 
Q 1991 1309 1228 531 
z
" transform="scale(0.015625)"/>
       </defs>
       <use xlink:href="#DejaVuSans-30"/>
       <use xlink:href="#DejaVuSans-2e" x="63.623047"/>
       <use xlink:href="#DejaVuSans-32" x="95.410156"/>
      </g>
     </g>
    </g>
    <g id="xtick_3">
     <g id="line2d_5">
      <path d="M 172.407 241.36 
L 172.407 29.76 
" clip-path="url(#p634822f84d)" style="fill: none; stroke: #b0b0b0; stroke-width: 0.8; stroke-linecap: square"/>
     </g>
     <g id="line2d_6">
      <g>
       <use xlink:href="#ma0c2e72110" x="172.407" y="241.36" style="stroke: #000000; stroke-width: 0.8"/>
      </g>
     </g>
     <g id="text_3">
      <!-- 0.4 -->
      <g transform="translate(164.455437 255.958438) scale(0.1 -0.1)">
       <defs>
        <path id="DejaVuSans-34" d="M 2419 4116 
L 825 1625 
L 2419 1625 
L 2419 4116 
z
M 2253 4666 
L 3047 4666 
L 3047 1625 
L 3713 1625 
L 3713 1100 
L 3047 1100 
L 3047 0 
L 2419 0 
L 2419 1100 
L 313 1100 
L 313 1709 
L 2253 4666 
z
" transform="scale(0.015625)"/>
       </defs>
       <use xlink:href="#DejaVuSans-30"/>
       <use xlink:href="#DejaVuSans-2e" x="63.623047"/>
       <use xlink:href="#DejaVuSans-34" x="95.410156"/>
      </g>
     </g>
    </g>
    <g id="xtick_4">
     <g id="line2d_7">
      <path d="M 230.7455 241.36 
L 230.7455 29.76 
" clip-path="url(#p634822f84d)" style="fill: none; stroke: #b0b0b0; stroke-width: 0.8; stroke-linecap: square"/>
     </g>
     <g id="line2d_8">
      <g>
       <use xlink:href="#ma0c2e72110" x="230.7455" y="241.36" style="stroke: #000000; stroke-width: 0.8"/>
      </g>
     </g>
     <g id="text_4">
      <!-- 0.6 -->
      <g transform="translate(222.793937 255.958438) scale(0.1 -0.1)">
       <defs>
        <path id="DejaVuSans-36" d="M 2113 2584 
Q 1688 2584 1439 2293 
Q 1191 2003 1191 1497 
Q 1191 994 1439 701 
Q 1688 409 2113 409 
Q 2538 409 2786 701 
Q 3034 994 3034 1497 
Q 3034 2003 2786 2293 
Q 2538 2584 2113 2584 
z
M 3366 4563 
L 3366 3988 
Q 3128 4100 2886 4159 
Q 2644 4219 2406 4219 
Q 1781 4219 1451 3797 
Q 1122 3375 1075 2522 
Q 1259 2794 1537 2939 
Q 1816 3084 2150 3084 
Q 2853 3084 3261 2657 
Q 3669 2231 3669 1497 
Q 3669 778 3244 343 
Q 2819 -91 2113 -91 
Q 1303 -91 875 529 
Q 447 1150 447 2328 
Q 447 3434 972 4092 
Q 1497 4750 2381 4750 
Q 2619 4750 2861 4703 
Q 3103 4656 3366 4563 
z
" transform="scale(0.015625)"/>
       </defs>
       <use xlink:href="#DejaVuSans-30"/>
       <use xlink:href="#DejaVuSans-2e" x="63.623047"/>
       <use xlink:href="#DejaVuSans-36" x="95.410156"/>
      </g>
     </g>
    </g>
    <g id="xtick_5">
     <g id="line2d_9">
      <path d="M 289.084 241.36 
L 289.084 29.76 
" clip-path="url(#p634822f84d)" style="fill: none; stroke: #b0b0b0; stroke-width: 0.8; stroke-linecap: square"/>
     </g>
     <g id="line2d_10">
      <g>
       <use xlink:href="#ma0c2e72110" x="289.084" y="241.36" style="stroke: #000000; stroke-width: 0.8"/>
      </g>
     </g>
     <g id="text_5">
      <!-- 0.8 -->
      <g transform="translate(281.132437 255.958438) scale(0.1 -0.1)">
       <defs>
        <path id="DejaVuSans-38" d="M 2034 2216 
Q 1584 2216 1326 1975 
Q 1069 1734 1069 1313 
Q 1069 891 1326 650 
Q 1584 409 2034 409 
Q 2484 409 2743 651 
Q 3003 894 3003 1313 
Q 3003 1734 2745 1975 
Q 2488 2216 2034 2216 
z
M 1403 2484 
Q 997 2584 770 2862 
Q 544 3141 544 3541 
Q 544 4100 942 4425 
Q 1341 4750 2034 4750 
Q 2731 4750 3128 4425 
Q 3525 4100 3525 3541 
Q 3525 3141 3298 2862 
Q 3072 2584 2669 2484 
Q 3125 2378 3379 2068 
Q 3634 1759 3634 1313 
Q 3634 634 3220 271 
Q 2806 -91 2034 -91 
Q 1263 -91 848 271 
Q 434 634 434 1313 
Q 434 1759 690 2068 
Q 947 2378 1403 2484 
z
M 1172 3481 
Q 1172 3119 1398 2916 
Q 1625 2713 2034 2713 
Q 2441 2713 2670 2916 
Q 2900 3119 2900 3481 
Q 2900 3844 2670 4047 
Q 2441 4250 2034 4250 
Q 1625 4250 1398 4047 
Q 1172 3844 1172 3481 
z
" transform="scale(0.015625)"/>
       </defs>
       <use xlink:href="#DejaVuSans-30"/>
       <use xlink:href="#DejaVuSans-2e" x="63.623047"/>
       <use xlink:href="#DejaVuSans-38" x="95.410156"/>
      </g>
     </g>
    </g>
    <g id="xtick_6">
     <g id="line2d_11">
      <path d="M 347.4225 241.36 
L 347.4225 29.76 
" clip-path="url(#p634822f84d)" style="fill: none; stroke: #b0b0b0; stroke-width: 0.8; stroke-linecap: square"/>
     </g>
     <g id="line2d_12">
      <g>
       <use xlink:href="#ma0c2e72110" x="347.4225" y="241.36" style="stroke: #000000; stroke-width: 0.8"/>
      </g>
     </g>
     <g id="text_6">
      <!-- 1.0 -->
      <g transform="translate(339.470937 255.958438) scale(0.1 -0.1)">
       <defs>
        <path id="DejaVuSans-31" d="M 794 531 
L 1825 531 
L 1825 4091 
L 703 3866 
L 703 4441 
L 1819 4666 
L 2450 4666 
L 2450 531 
L 3481 531 
L 3481 0 
L 794 0 
L 794 531 
z
" transform="scale(0.015625)"/>
       </defs>
       <use xlink:href="#DejaVuSans-31"/>
       <use xlink:href="#DejaVuSans-2e" x="63.623047"/>
       <use xlink:href="#DejaVuSans-30" x="95.410156"/>
      </g>
     </g>
    </g>
    <g id="text_7">
     <!-- Fraction of all solid phases -->
     <g transform="translate(106.8675 273.678125) scale(0.16 -0.16)">
      <defs>
       <path id="Helvetica-46" d="M 547 4591 
L 3731 4591 
L 3731 4028 
L 1169 4028 
L 1169 2634 
L 3422 2634 
L 3422 2088 
L 1169 2088 
L 1169 0 
L 547 0 
L 547 4591 
z
" transform="scale(0.015625)"/>
       <path id="Helvetica-72" d="M 428 3347 
L 963 3347 
L 963 2769 
Q 1028 2938 1284 3180 
Q 1541 3422 1875 3422 
Q 1891 3422 1928 3419 
Q 1966 3416 2056 3406 
L 2056 2813 
Q 2006 2822 1964 2825 
Q 1922 2828 1872 2828 
Q 1447 2828 1219 2554 
Q 991 2281 991 1925 
L 991 0 
L 428 0 
L 428 3347 
z
" transform="scale(0.015625)"/>
       <path id="Helvetica-61" d="M 844 891 
Q 844 647 1022 506 
Q 1200 366 1444 366 
Q 1741 366 2019 503 
Q 2488 731 2488 1250 
L 2488 1703 
Q 2384 1638 2221 1594 
Q 2059 1550 1903 1531 
L 1563 1488 
Q 1256 1447 1103 1359 
Q 844 1213 844 891 
z
M 2206 2028 
Q 2400 2053 2466 2191 
Q 2503 2266 2503 2406 
Q 2503 2694 2298 2823 
Q 2094 2953 1713 2953 
Q 1272 2953 1088 2716 
Q 984 2584 953 2325 
L 428 2325 
Q 444 2944 830 3186 
Q 1216 3428 1725 3428 
Q 2316 3428 2684 3203 
Q 3050 2978 3050 2503 
L 3050 575 
Q 3050 488 3086 434 
Q 3122 381 3238 381 
Q 3275 381 3322 386 
Q 3369 391 3422 400 
L 3422 -16 
Q 3291 -53 3222 -62 
Q 3153 -72 3034 -72 
Q 2744 -72 2613 134 
Q 2544 244 2516 444 
Q 2344 219 2022 53 
Q 1700 -113 1313 -113 
Q 847 -113 551 170 
Q 256 453 256 878 
Q 256 1344 547 1600 
Q 838 1856 1309 1916 
L 2206 2028 
z
M 1741 3428 
L 1741 3428 
z
" transform="scale(0.015625)"/>
       <path id="Helvetica-63" d="M 1703 3444 
Q 2269 3444 2623 3169 
Q 2978 2894 3050 2222 
L 2503 2222 
Q 2453 2531 2275 2736 
Q 2097 2941 1703 2941 
Q 1166 2941 934 2416 
Q 784 2075 784 1575 
Q 784 1072 996 728 
Q 1209 384 1666 384 
Q 2016 384 2220 598 
Q 2425 813 2503 1184 
L 3050 1184 
Q 2956 519 2581 211 
Q 2206 -97 1622 -97 
Q 966 -97 575 383 
Q 184 863 184 1581 
Q 184 2463 612 2953 
Q 1041 3444 1703 3444 
z
M 1616 3428 
L 1616 3428 
z
" transform="scale(0.015625)"/>
       <path id="Helvetica-74" d="M 525 4281 
L 1094 4281 
L 1094 3347 
L 1628 3347 
L 1628 2888 
L 1094 2888 
L 1094 703 
Q 1094 528 1213 469 
Q 1278 434 1431 434 
Q 1472 434 1519 436 
Q 1566 438 1628 444 
L 1628 0 
Q 1531 -28 1426 -40 
Q 1322 -53 1200 -53 
Q 806 -53 665 148 
Q 525 350 525 672 
L 525 2888 
L 72 2888 
L 72 3347 
L 525 3347 
L 525 4281 
z
" transform="scale(0.015625)"/>
       <path id="Helvetica-69" d="M 413 3331 
L 984 3331 
L 984 0 
L 413 0 
L 413 3331 
z
M 413 4591 
L 984 4591 
L 984 3953 
L 413 3953 
L 413 4591 
z
" transform="scale(0.015625)"/>
       <path id="Helvetica-6f" d="M 1741 363 
Q 2300 363 2508 786 
Q 2716 1209 2716 1728 
Q 2716 2197 2566 2491 
Q 2328 2953 1747 2953 
Q 1231 2953 997 2559 
Q 763 2166 763 1609 
Q 763 1075 997 719 
Q 1231 363 1741 363 
z
M 1763 3444 
Q 2409 3444 2856 3012 
Q 3303 2581 3303 1744 
Q 3303 934 2909 406 
Q 2516 -122 1688 -122 
Q 997 -122 590 345 
Q 184 813 184 1600 
Q 184 2444 612 2944 
Q 1041 3444 1763 3444 
z
M 1744 3428 
L 1744 3428 
z
" transform="scale(0.015625)"/>
       <path id="Helvetica-6e" d="M 413 3347 
L 947 3347 
L 947 2872 
Q 1184 3166 1450 3294 
Q 1716 3422 2041 3422 
Q 2753 3422 3003 2925 
Q 3141 2653 3141 2147 
L 3141 0 
L 2569 0 
L 2569 2109 
Q 2569 2416 2478 2603 
Q 2328 2916 1934 2916 
Q 1734 2916 1606 2875 
Q 1375 2806 1200 2600 
Q 1059 2434 1017 2257 
Q 975 2081 975 1753 
L 975 0 
L 413 0 
L 413 3347 
z
M 1734 3428 
L 1734 3428 
z
" transform="scale(0.015625)"/>
       <path id="Helvetica-20" transform="scale(0.015625)"/>
       <path id="Helvetica-66" d="M 553 3856 
Q 566 4206 675 4369 
Q 872 4656 1434 4656 
Q 1488 4656 1544 4653 
Q 1600 4650 1672 4644 
L 1672 4131 
Q 1584 4138 1545 4139 
Q 1506 4141 1472 4141 
Q 1216 4141 1166 4008 
Q 1116 3875 1116 3331 
L 1672 3331 
L 1672 2888 
L 1109 2888 
L 1109 0 
L 553 0 
L 553 2888 
L 88 2888 
L 88 3331 
L 553 3331 
L 553 3856 
z
" transform="scale(0.015625)"/>
       <path id="Helvetica-6c" d="M 428 4591 
L 991 4591 
L 991 0 
L 428 0 
L 428 4591 
z
" transform="scale(0.015625)"/>
       <path id="Helvetica-73" d="M 747 1050 
Q 772 769 888 619 
Q 1100 347 1625 347 
Q 1938 347 2175 483 
Q 2413 619 2413 903 
Q 2413 1119 2222 1231 
Q 2100 1300 1741 1391 
L 1294 1503 
Q 866 1609 663 1741 
Q 300 1969 300 2372 
Q 300 2847 642 3140 
Q 984 3434 1563 3434 
Q 2319 3434 2653 2991 
Q 2863 2709 2856 2384 
L 2325 2384 
Q 2309 2575 2191 2731 
Q 1997 2953 1519 2953 
Q 1200 2953 1036 2831 
Q 872 2709 872 2509 
Q 872 2291 1088 2159 
Q 1213 2081 1456 2022 
L 1828 1931 
Q 2434 1784 2641 1647 
Q 2969 1431 2969 969 
Q 2969 522 2630 197 
Q 2291 -128 1597 -128 
Q 850 -128 539 211 
Q 228 550 206 1050 
L 747 1050 
z
M 1578 3428 
L 1578 3428 
z
" transform="scale(0.015625)"/>
       <path id="Helvetica-64" d="M 769 1634 
Q 769 1097 997 734 
Q 1225 372 1728 372 
Q 2119 372 2370 708 
Q 2622 1044 2622 1672 
Q 2622 2306 2362 2611 
Q 2103 2916 1722 2916 
Q 1297 2916 1033 2591 
Q 769 2266 769 1634 
z
M 1616 3406 
Q 2000 3406 2259 3244 
Q 2409 3150 2600 2916 
L 2600 4606 
L 3141 4606 
L 3141 0 
L 2634 0 
L 2634 466 
Q 2438 156 2169 18 
Q 1900 -119 1553 -119 
Q 994 -119 584 351 
Q 175 822 175 1603 
Q 175 2334 548 2870 
Q 922 3406 1616 3406 
z
" transform="scale(0.015625)"/>
       <path id="Helvetica-70" d="M 1825 378 
Q 2219 378 2480 708 
Q 2741 1038 2741 1694 
Q 2741 2094 2625 2381 
Q 2406 2934 1825 2934 
Q 1241 2934 1025 2350 
Q 909 2038 909 1556 
Q 909 1169 1025 897 
Q 1244 378 1825 378 
z
M 369 3331 
L 916 3331 
L 916 2888 
Q 1084 3116 1284 3241 
Q 1569 3428 1953 3428 
Q 2522 3428 2919 2992 
Q 3316 2556 3316 1747 
Q 3316 653 2744 184 
Q 2381 -113 1900 -113 
Q 1522 -113 1266 53 
Q 1116 147 931 375 
L 931 -1334 
L 369 -1334 
L 369 3331 
z
" transform="scale(0.015625)"/>
       <path id="Helvetica-68" d="M 413 4606 
L 975 4606 
L 975 2894 
Q 1175 3147 1334 3250 
Q 1606 3428 2013 3428 
Q 2741 3428 3000 2919 
Q 3141 2641 3141 2147 
L 3141 0 
L 2563 0 
L 2563 2109 
Q 2563 2478 2469 2650 
Q 2316 2925 1894 2925 
Q 1544 2925 1259 2684 
Q 975 2444 975 1775 
L 975 0 
L 413 0 
L 413 4606 
z
" transform="scale(0.015625)"/>
       <path id="Helvetica-65" d="M 1806 3422 
Q 2163 3422 2497 3255 
Q 2831 3088 3006 2822 
Q 3175 2569 3231 2231 
Q 3281 2000 3281 1494 
L 828 1494 
Q 844 984 1069 676 
Q 1294 369 1766 369 
Q 2206 369 2469 659 
Q 2619 828 2681 1050 
L 3234 1050 
Q 3213 866 3089 639 
Q 2966 413 2813 269 
Q 2556 19 2178 -69 
Q 1975 -119 1719 -119 
Q 1094 -119 659 336 
Q 225 791 225 1609 
Q 225 2416 662 2919 
Q 1100 3422 1806 3422 
z
M 2703 1941 
Q 2669 2306 2544 2525 
Q 2313 2931 1772 2931 
Q 1384 2931 1121 2651 
Q 859 2372 844 1941 
L 2703 1941 
z
M 1753 3428 
L 1753 3428 
z
" transform="scale(0.015625)"/>
      </defs>
      <use xlink:href="#Helvetica-46"/>
      <use xlink:href="#Helvetica-72" x="61.083984"/>
      <use xlink:href="#Helvetica-61" x="94.384766"/>
      <use xlink:href="#Helvetica-63" x="150"/>
      <use xlink:href="#Helvetica-74" x="200"/>
      <use xlink:href="#Helvetica-69" x="227.783203"/>
      <use xlink:href="#Helvetica-6f" x="250"/>
      <use xlink:href="#Helvetica-6e" x="305.615234"/>
      <use xlink:href="#Helvetica-20" x="361.230469"/>
      <use xlink:href="#Helvetica-6f" x="389.013672"/>
      <use xlink:href="#Helvetica-66" x="444.628906"/>
      <use xlink:href="#Helvetica-20" x="472.412109"/>
      <use xlink:href="#Helvetica-61" x="500.195312"/>
      <use xlink:href="#Helvetica-6c" x="555.810547"/>
      <use xlink:href="#Helvetica-6c" x="578.027344"/>
      <use xlink:href="#Helvetica-20" x="600.244141"/>
      <use xlink:href="#Helvetica-73" x="628.027344"/>
      <use xlink:href="#Helvetica-6f" x="678.027344"/>
      <use xlink:href="#Helvetica-6c" x="733.642578"/>
      <use xlink:href="#Helvetica-69" x="755.859375"/>
      <use xlink:href="#Helvetica-64" x="778.076172"/>
      <use xlink:href="#Helvetica-20" x="833.691406"/>
      <use xlink:href="#Helvetica-70" x="861.474609"/>
      <use xlink:href="#Helvetica-68" x="917.089844"/>
      <use xlink:href="#Helvetica-61" x="972.705078"/>
      <use xlink:href="#Helvetica-73" x="1028.320312"/>
      <use xlink:href="#Helvetica-65" x="1078.320312"/>
      <use xlink:href="#Helvetica-73" x="1133.935547"/>
     </g>
    </g>
   </g>
   <g id="matplotlib.axis_2">
    <g id="ytick_1">
     <g id="line2d_13">
      <path d="M 55.73 241.36 
L 347.4225 241.36 
" clip-path="url(#p634822f84d)" style="fill: none; stroke: #b0b0b0; stroke-width: 0.8; stroke-linecap: square"/>
     </g>
     <g id="line2d_14">
      <defs>
       <path id="mc90fc88253" d="M 0 0 
L -3.5 0 
" style="stroke: #000000; stroke-width: 0.8"/>
      </defs>
      <g>
       <use xlink:href="#mc90fc88253" x="55.73" y="241.36" style="stroke: #000000; stroke-width: 0.8"/>
      </g>
     </g>
     <g id="text_8">
      <!-- 780 -->
      <g transform="translate(29.6425 245.159219) scale(0.1 -0.1)">
       <defs>
        <path id="DejaVuSans-37" d="M 525 4666 
L 3525 4666 
L 3525 4397 
L 1831 0 
L 1172 0 
L 2766 4134 
L 525 4134 
L 525 4666 
z
" transform="scale(0.015625)"/>
       </defs>
       <use xlink:href="#DejaVuSans-37"/>
       <use xlink:href="#DejaVuSans-38" x="63.623047"/>
       <use xlink:href="#DejaVuSans-30" x="127.246094"/>
      </g>
     </g>
    </g>
    <g id="ytick_2">
     <g id="line2d_15">
      <path d="M 55.73 211.131429 
L 347.4225 211.131429 
" clip-path="url(#p634822f84d)" style="fill: none; stroke: #b0b0b0; stroke-width: 0.8; stroke-linecap: square"/>
     </g>
     <g id="line2d_16">
      <g>
       <use xlink:href="#mc90fc88253" x="55.73" y="211.131429" style="stroke: #000000; stroke-width: 0.8"/>
      </g>
     </g>
     <g id="text_9">
      <!-- 800 -->
      <g transform="translate(29.6425 214.930647) scale(0.1 -0.1)">
       <use xlink:href="#DejaVuSans-38"/>
       <use xlink:href="#DejaVuSans-30" x="63.623047"/>
       <use xlink:href="#DejaVuSans-30" x="127.246094"/>
      </g>
     </g>
    </g>
    <g id="ytick_3">
     <g id="line2d_17">
      <path d="M 55.73 180.902857 
L 347.4225 180.902857 
" clip-path="url(#p634822f84d)" style="fill: none; stroke: #b0b0b0; stroke-width: 0.8; stroke-linecap: square"/>
     </g>
     <g id="line2d_18">
      <g>
       <use xlink:href="#mc90fc88253" x="55.73" y="180.902857" style="stroke: #000000; stroke-width: 0.8"/>
      </g>
     </g>
     <g id="text_10">
      <!-- 820 -->
      <g transform="translate(29.6425 184.702076) scale(0.1 -0.1)">
       <use xlink:href="#DejaVuSans-38"/>
       <use xlink:href="#DejaVuSans-32" x="63.623047"/>
       <use xlink:href="#DejaVuSans-30" x="127.246094"/>
      </g>
     </g>
    </g>
    <g id="ytick_4">
     <g id="line2d_19">
      <path d="M 55.73 150.674286 
L 347.4225 150.674286 
" clip-path="url(#p634822f84d)" style="fill: none; stroke: #b0b0b0; stroke-width: 0.8; stroke-linecap: square"/>
     </g>
     <g id="line2d_20">
      <g>
       <use xlink:href="#mc90fc88253" x="55.73" y="150.674286" style="stroke: #000000; stroke-width: 0.8"/>
      </g>
     </g>
     <g id="text_11">
      <!-- 840 -->
      <g transform="translate(29.6425 154.473504) scale(0.1 -0.1)">
       <use xlink:href="#DejaVuSans-38"/>
       <use xlink:href="#DejaVuSans-34" x="63.623047"/>
       <use xlink:href="#DejaVuSans-30" x="127.246094"/>
      </g>
     </g>
    </g>
    <g id="ytick_5">
     <g id="line2d_21">
      <path d="M 55.73 120.445714 
L 347.4225 120.445714 
" clip-path="url(#p634822f84d)" style="fill: none; stroke: #b0b0b0; stroke-width: 0.8; stroke-linecap: square"/>
     </g>
     <g id="line2d_22">
      <g>
       <use xlink:href="#mc90fc88253" x="55.73" y="120.445714" style="stroke: #000000; stroke-width: 0.8"/>
      </g>
     </g>
     <g id="text_12">
      <!-- 860 -->
      <g transform="translate(29.6425 124.244933) scale(0.1 -0.1)">
       <use xlink:href="#DejaVuSans-38"/>
       <use xlink:href="#DejaVuSans-36" x="63.623047"/>
       <use xlink:href="#DejaVuSans-30" x="127.246094"/>
      </g>
     </g>
    </g>
    <g id="ytick_6">
     <g id="line2d_23">
      <path d="M 55.73 90.217143 
L 347.4225 90.217143 
" clip-path="url(#p634822f84d)" style="fill: none; stroke: #b0b0b0; stroke-width: 0.8; stroke-linecap: square"/>
     </g>
     <g id="line2d_24">
      <g>
       <use xlink:href="#mc90fc88253" x="55.73" y="90.217143" style="stroke: #000000; stroke-width: 0.8"/>
      </g>
     </g>
     <g id="text_13">
      <!-- 880 -->
      <g transform="translate(29.6425 94.016362) scale(0.1 -0.1)">
       <use xlink:href="#DejaVuSans-38"/>
       <use xlink:href="#DejaVuSans-38" x="63.623047"/>
       <use xlink:href="#DejaVuSans-30" x="127.246094"/>
      </g>
     </g>
    </g>
    <g id="ytick_7">
     <g id="line2d_25">
      <path d="M 55.73 59.988571 
L 347.4225 59.988571 
" clip-path="url(#p634822f84d)" style="fill: none; stroke: #b0b0b0; stroke-width: 0.8; stroke-linecap: square"/>
     </g>
     <g id="line2d_26">
      <g>
       <use xlink:href="#mc90fc88253" x="55.73" y="59.988571" style="stroke: #000000; stroke-width: 0.8"/>
      </g>
     </g>
     <g id="text_14">
      <!-- 900 -->
      <g transform="translate(29.6425 63.78779) scale(0.1 -0.1)">
       <defs>
        <path id="DejaVuSans-39" d="M 703 97 
L 703 672 
Q 941 559 1184 500 
Q 1428 441 1663 441 
Q 2288 441 2617 861 
Q 2947 1281 2994 2138 
Q 2813 1869 2534 1725 
Q 2256 1581 1919 1581 
Q 1219 1581 811 2004 
Q 403 2428 403 3163 
Q 403 3881 828 4315 
Q 1253 4750 1959 4750 
Q 2769 4750 3195 4129 
Q 3622 3509 3622 2328 
Q 3622 1225 3098 567 
Q 2575 -91 1691 -91 
Q 1453 -91 1209 -44 
Q 966 3 703 97 
z
M 1959 2075 
Q 2384 2075 2632 2365 
Q 2881 2656 2881 3163 
Q 2881 3666 2632 3958 
Q 2384 4250 1959 4250 
Q 1534 4250 1286 3958 
Q 1038 3666 1038 3163 
Q 1038 2656 1286 2365 
Q 1534 2075 1959 2075 
z
" transform="scale(0.015625)"/>
       </defs>
       <use xlink:href="#DejaVuSans-39"/>
       <use xlink:href="#DejaVuSans-30" x="63.623047"/>
       <use xlink:href="#DejaVuSans-30" x="127.246094"/>
      </g>
     </g>
    </g>
    <g id="ytick_8">
     <g id="line2d_27">
      <path d="M 55.73 29.76 
L 347.4225 29.76 
" clip-path="url(#p634822f84d)" style="fill: none; stroke: #b0b0b0; stroke-width: 0.8; stroke-linecap: square"/>
     </g>
     <g id="line2d_28">
      <g>
       <use xlink:href="#mc90fc88253" x="55.73" y="29.76" style="stroke: #000000; stroke-width: 0.8"/>
      </g>
     </g>
     <g id="text_15">
      <!-- 920 -->
      <g transform="translate(29.6425 33.559219) scale(0.1 -0.1)">
       <use xlink:href="#DejaVuSans-39"/>
       <use xlink:href="#DejaVuSans-32" x="63.623047"/>
       <use xlink:href="#DejaVuSans-30" x="127.246094"/>
      </g>
     </g>
    </g>
    <g id="text_16">
     <!-- Temperature, K -->
     <g transform="translate(22.3075 191.13375) rotate(-90) scale(0.16 -0.16)">
      <defs>
       <path id="Helvetica-54" d="M 3828 4591 
L 3828 4044 
L 2281 4044 
L 2281 0 
L 1650 0 
L 1650 4044 
L 103 4044 
L 103 4591 
L 3828 4591 
z
" transform="scale(0.015625)"/>
       <path id="Helvetica-6d" d="M 413 3347 
L 969 3347 
L 969 2872 
Q 1169 3119 1331 3231 
Q 1609 3422 1963 3422 
Q 2363 3422 2606 3225 
Q 2744 3113 2856 2894 
Q 3044 3163 3297 3292 
Q 3550 3422 3866 3422 
Q 4541 3422 4784 2934 
Q 4916 2672 4916 2228 
L 4916 0 
L 4331 0 
L 4331 2325 
Q 4331 2659 4164 2784 
Q 3997 2909 3756 2909 
Q 3425 2909 3186 2687 
Q 2947 2466 2947 1947 
L 2947 0 
L 2375 0 
L 2375 2184 
Q 2375 2525 2294 2681 
Q 2166 2916 1816 2916 
Q 1497 2916 1236 2669 
Q 975 2422 975 1775 
L 975 0 
L 413 0 
L 413 3347 
z
" transform="scale(0.015625)"/>
       <path id="Helvetica-75" d="M 975 3347 
L 975 1125 
Q 975 869 1056 706 
Q 1206 406 1616 406 
Q 2203 406 2416 931 
Q 2531 1213 2531 1703 
L 2531 3347 
L 3094 3347 
L 3094 0 
L 2563 0 
L 2569 494 
Q 2459 303 2297 172 
Q 1975 -91 1516 -91 
Q 800 -91 541 388 
Q 400 644 400 1072 
L 400 3347 
L 975 3347 
z
M 1747 3428 
L 1747 3428 
z
" transform="scale(0.015625)"/>
       <path id="Helvetica-2c" d="M 531 -653 
Q 747 -616 834 -350 
Q 881 -209 881 -78 
Q 881 -56 879 -39 
Q 878 -22 872 0 
L 531 0 
L 531 681 
L 1200 681 
L 1200 50 
Q 1200 -322 1050 -603 
Q 900 -884 531 -950 
L 531 -653 
z
" transform="scale(0.015625)"/>
       <path id="Helvetica-4b" d="M 488 4591 
L 1094 4591 
L 1094 2353 
L 3331 4591 
L 4191 4591 
L 2281 2741 
L 4244 0 
L 3434 0 
L 1828 2303 
L 1094 1600 
L 1094 0 
L 488 0 
L 488 4591 
z
" transform="scale(0.015625)"/>
      </defs>
      <use xlink:href="#Helvetica-54"/>
      <use xlink:href="#Helvetica-65" x="61.083984"/>
      <use xlink:href="#Helvetica-6d" x="116.699219"/>
      <use xlink:href="#Helvetica-70" x="200"/>
      <use xlink:href="#Helvetica-65" x="255.615234"/>
      <use xlink:href="#Helvetica-72" x="311.230469"/>
      <use xlink:href="#Helvetica-61" x="344.53125"/>
      <use xlink:href="#Helvetica-74" x="400.146484"/>
      <use xlink:href="#Helvetica-75" x="427.929688"/>
      <use xlink:href="#Helvetica-72" x="483.544922"/>
      <use xlink:href="#Helvetica-65" x="516.845703"/>
      <use xlink:href="#Helvetica-2c" x="572.460938"/>
      <use xlink:href="#Helvetica-20" x="600.244141"/>
      <use xlink:href="#Helvetica-4b" x="628.027344"/>
     </g>
    </g>
   </g>
   <g id="line2d_29">
    <defs>
     <path id="m8d0873ecce" d="M 0 2 
C 0.530406 2 1.03916 1.789267 1.414214 1.414214 
C 1.789267 1.03916 2 0.530406 2 0 
C 2 -0.530406 1.789267 -1.03916 1.414214 -1.414214 
C 1.03916 -1.789267 0.530406 -2 0 -2 
C -0.530406 -2 -1.03916 -1.789267 -1.414214 -1.414214 
C -1.789267 -1.03916 -2 -0.530406 -2 0 
C -2 0.530406 -1.789267 1.03916 -1.414214 1.414214 
C -1.03916 1.789267 -0.530406 2 0 2 
z
" style="stroke: #1f77b4"/>
    </defs>
    <g clip-path="url(#p634822f84d)">
     <use xlink:href="#m8d0873ecce" x="55.73" y="59.988571" style="fill: #1f77b4; stroke: #1f77b4"/>
     <use xlink:href="#m8d0873ecce" x="55.73" y="67.545714" style="fill: #1f77b4; stroke: #1f77b4"/>
     <use xlink:href="#m8d0873ecce" x="55.73" y="75.102857" style="fill: #1f77b4; stroke: #1f77b4"/>
     <use xlink:href="#m8d0873ecce" x="55.73" y="82.66" style="fill: #1f77b4; stroke: #1f77b4"/>
     <use xlink:href="#m8d0873ecce" x="55.73" y="90.217143" style="fill: #1f77b4; stroke: #1f77b4"/>
     <use xlink:href="#m8d0873ecce" x="55.73" y="97.774286" style="fill: #1f77b4; stroke: #1f77b4"/>
     <use xlink:href="#m8d0873ecce" x="55.73" y="105.331429" style="fill: #1f77b4; stroke: #1f77b4"/>
     <use xlink:href="#m8d0873ecce" x="55.73" y="112.888571" style="fill: #1f77b4; stroke: #1f77b4"/>
     <use xlink:href="#m8d0873ecce" x="55.73" y="117.988388" style="fill: #1f77b4; stroke: #1f77b4"/>
    </g>
   </g>
   <g id="line2d_30">
    <path d="M 55.73 -1 
L 55.73 117.876286 
L 55.73 117.876286 
" clip-path="url(#p634822f84d)" style="fill: none; stroke: #1f77b4; stroke-opacity: 0.5; stroke-width: 3; stroke-linecap: square"/>
   </g>
   <g id="line2d_31">
    <path clip-path="url(#p634822f84d)" style="fill: none; stroke: #1f77b4; stroke-width: 3; stroke-linecap: square"/>
   </g>
   <g id="line2d_32">
    <defs>
     <path id="ma272759dfa" d="M 0 2 
C 0.530406 2 1.03916 1.789267 1.414214 1.414214 
C 1.789267 1.03916 2 0.530406 2 0 
C 2 -0.530406 1.789267 -1.03916 1.414214 -1.414214 
C 1.03916 -1.789267 0.530406 -2 0 -2 
C -0.530406 -2 -1.03916 -1.789267 -1.414214 -1.414214 
C -1.789267 -1.03916 -2 -0.530406 -2 0 
C -2 0.530406 -1.789267 1.03916 -1.414214 1.414214 
C -1.03916 1.789267 -0.530406 2 0 2 
z
" style="stroke: #ff7f0e"/>
    </defs>
    <g clip-path="url(#p634822f84d)">
     <use xlink:href="#ma272759dfa" x="62.464013" y="120.445714" style="fill: #ff7f0e; stroke: #ff7f0e"/>
     <use xlink:href="#ma272759dfa" x="81.410899" y="128.002857" style="fill: #ff7f0e; stroke: #ff7f0e"/>
     <use xlink:href="#ma272759dfa" x="97.981659" y="135.56" style="fill: #ff7f0e; stroke: #ff7f0e"/>
     <use xlink:href="#ma272759dfa" x="112.592828" y="143.117143" style="fill: #ff7f0e; stroke: #ff7f0e"/>
     <use xlink:href="#ma272759dfa" x="121.840647" y="148.419975" style="fill: #ff7f0e; stroke: #ff7f0e"/>
    </g>
   </g>
   <g id="line2d_33">
    <path d="M 55.801722 118.027429 
L 59.604576 119.387714 
L 69.150699 123.015143 
L 72.215963 124.224286 
L 74.81878 125.282286 
L 83.806705 129.060857 
L 86.822511 130.421143 
L 91.478643 132.537143 
L 104.505349 138.885143 
L 105.302837 139.338571 
L 110.7087 142.210286 
L 111.261611 142.512571 
L 116.938399 145.686571 
L 119.522706 147.198 
L 121.570963 148.407143 
L 121.570963 148.407143 
" clip-path="url(#p634822f84d)" style="fill: none; stroke: #ff7f0e; stroke-opacity: 0.5; stroke-width: 3; stroke-linecap: square"/>
   </g>
   <g id="line2d_34">
    <path clip-path="url(#p634822f84d)" style="fill: none; stroke: #ff7f0e; stroke-width: 3; stroke-linecap: square"/>
   </g>
   <g id="line2d_35">
    <defs>
     <path id="m4407a85fb6" d="M 0 2 
C 0.530406 2 1.03916 1.789267 1.414214 1.414214 
C 1.789267 1.03916 2 0.530406 2 0 
C 2 -0.530406 1.789267 -1.03916 1.414214 -1.414214 
C 1.03916 -1.789267 0.530406 -2 0 -2 
C -0.530406 -2 -1.03916 -1.789267 -1.414214 -1.414214 
C -1.789267 -1.03916 -2 -0.530406 -2 0 
C -2 0.530406 -1.789267 1.03916 -1.414214 1.414214 
C -1.03916 1.789267 -0.530406 2 0 2 
z
" style="stroke: #2ca02c"/>
    </defs>
    <g clip-path="url(#p634822f84d)">
     <use xlink:href="#m4407a85fb6" x="161.557469" y="150.674286" style="fill: #2ca02c; stroke: #2ca02c"/>
     <use xlink:href="#m4407a85fb6" x="234.603572" y="158.231429" style="fill: #2ca02c; stroke: #2ca02c"/>
     <use xlink:href="#m4407a85fb6" x="267.868503" y="165.788571" style="fill: #2ca02c; stroke: #2ca02c"/>
     <use xlink:href="#m4407a85fb6" x="286.516276" y="173.345714" style="fill: #2ca02c; stroke: #2ca02c"/>
     <use xlink:href="#m4407a85fb6" x="298.256279" y="180.902857" style="fill: #2ca02c; stroke: #2ca02c"/>
     <use xlink:href="#m4407a85fb6" x="306.217279" y="188.46" style="fill: #2ca02c; stroke: #2ca02c"/>
     <use xlink:href="#m4407a85fb6" x="311.904127" y="196.017143" style="fill: #2ca02c; stroke: #2ca02c"/>
     <use xlink:href="#m4407a85fb6" x="316.128562" y="203.574286" style="fill: #2ca02c; stroke: #2ca02c"/>
     <use xlink:href="#m4407a85fb6" x="319.365818" y="211.131429" style="fill: #2ca02c; stroke: #2ca02c"/>
     <use xlink:href="#m4407a85fb6" x="321.911388" y="218.688571" style="fill: #2ca02c; stroke: #2ca02c"/>
     <use xlink:href="#m4407a85fb6" x="322.466103" y="220.594846" style="fill: #2ca02c; stroke: #2ca02c"/>
    </g>
   </g>
   <g id="line2d_36">
    <path d="M 124.425084 148.558286 
L 146.694299 149.767429 
L 167.312843 151.127714 
L 184.334369 152.488 
L 198.611113 153.848286 
L 210.77495 155.208571 
L 222.317507 156.72 
L 232.136485 158.231429 
L 240.644831 159.742857 
L 248.748646 161.405429 
L 255.797343 163.068 
L 262.458249 164.881714 
L 268.283376 166.695429 
L 269.940245 167.3 
L 276.474304 169.718286 
L 281.318364 171.834286 
L 285.553199 173.950286 
L 289.30088 176.066286 
L 292.855381 178.333429 
L 295.994516 180.600571 
L 298.99316 183.018857 
L 301.472531 185.286 
L 304.028453 187.855429 
L 306.661761 190.878286 
L 307.973266 192.540857 
L 310.549773 196.168286 
L 312.862797 199.946857 
L 314.110571 202.214 
L 316.252776 206.597143 
L 316.657083 207.504 
L 317.304838 209.015429 
L 318.738799 212.642857 
L 320.311554 217.026 
L 320.417526 217.479429 
L 321.347573 220.502286 
L 321.347573 220.502286 
" clip-path="url(#p634822f84d)" style="fill: none; stroke: #2ca02c; stroke-opacity: 0.5; stroke-width: 3; stroke-linecap: square"/>
   </g>
   <g id="line2d_37">
    <path clip-path="url(#p634822f84d)" style="fill: none; stroke: #2ca02c; stroke-width: 3; stroke-linecap: square"/>
   </g>
   <g id="line2d_38">
    <defs>
     <path id="m1ddb2d0fb3" d="M 0 2 
C 0.530406 2 1.03916 1.789267 1.414214 1.414214 
C 1.789267 1.03916 2 0.530406 2 0 
C 2 -0.530406 1.789267 -1.03916 1.414214 -1.414214 
C 1.03916 -1.789267 0.530406 -2 0 -2 
C -0.530406 -2 -1.03916 -1.789267 -1.414214 -1.414214 
C -1.789267 -1.03916 -2 -0.530406 -2 0 
C -2 0.530406 -1.789267 1.03916 -1.414214 1.414214 
C -1.03916 1.789267 -0.530406 2 0 2 
z
" style="stroke: #d62728"/>
    </defs>
    <g clip-path="url(#p634822f84d)">
     <use xlink:href="#m1ddb2d0fb3" x="336.837303" y="226.245714" style="fill: #d62728; stroke: #d62728"/>
     <use xlink:href="#m1ddb2d0fb3" x="341.552849" y="233.802857" style="fill: #d62728; stroke: #d62728"/>
     <use xlink:href="#m1ddb2d0fb3" x="342.384032" y="236.601811" style="fill: #d62728; stroke: #d62728"/>
    </g>
   </g>
   <g id="line2d_39">
    <path d="M 321.709028 220.653429 
L 322.525947 220.804571 
L 323.29565 220.955714 
L 324.020535 221.106857 
L 324.704103 221.258 
L 325.351042 221.409143 
L 325.962189 221.560286 
L 326.543158 221.711429 
L 327.091039 221.862571 
L 327.614482 222.013714 
L 328.111331 222.164857 
L 328.58456 222.316 
L 329.035797 222.467143 
L 329.466521 222.618286 
L 329.878085 222.769429 
L 330.271726 222.920571 
L 330.648574 223.071714 
L 331.010128 223.222857 
L 331.351113 223.374 
L 331.688405 223.525143 
L 332.009005 223.676286 
L 332.31683 223.827429 
L 332.611939 223.978571 
L 332.894246 224.129714 
L 333.168761 224.280857 
L 333.432501 224.432 
L 333.687161 224.583143 
L 333.932898 224.734286 
L 334.170556 224.885429 
L 334.400258 225.036571 
L 334.621772 225.187714 
L 334.836318 225.338857 
L 335.043976 225.49 
L 335.245066 225.641143 
L 335.438614 225.792286 
L 335.628066 225.943429 
L 335.811109 226.094571 
L 335.988084 226.245714 
L 336.160566 226.396857 
L 336.328043 226.548 
L 336.501719 226.699143 
L 336.664318 226.850286 
L 336.802425 227.001429 
L 336.961972 227.152571 
L 337.105994 227.303714 
L 337.246303 227.454857 
L 337.376826 227.606 
L 337.511268 227.757143 
L 337.641383 227.908286 
L 337.769323 228.059429 
L 337.877715 228.210571 
L 338.014366 228.361714 
L 338.132554 228.512857 
L 338.247911 228.664 
L 338.360295 228.815143 
L 338.470121 228.966286 
L 338.577375 229.117429 
L 338.682144 229.268571 
L 338.784512 229.419714 
L 338.884561 229.570857 
L 338.98296 229.722 
L 339.078526 229.873143 
L 339.171871 230.024286 
L 339.263114 230.175429 
L 339.352975 230.326571 
L 339.440692 230.477714 
L 339.526171 230.628857 
L 339.61005 230.78 
L 339.692297 230.931143 
L 339.778203 231.082286 
L 339.854925 231.233429 
L 339.929512 231.384571 
L 340.005594 231.535714 
L 340.079837 231.686857 
L 340.152207 231.838 
L 340.224557 231.989143 
L 340.294577 232.140286 
L 340.363277 232.291429 
L 340.430662 232.442571 
L 340.496891 232.593714 
L 340.577562 232.744857 
L 340.637047 232.896 
L 340.695739 233.047143 
L 340.750566 233.198286 
L 340.810589 233.349429 
L 340.869948 233.500571 
L 340.928263 233.651714 
L 340.985164 233.802857 
L 341.041906 233.954 
L 341.09703 234.105143 
L 341.151745 234.256286 
L 341.209021 234.407429 
L 341.257714 234.558571 
L 341.309626 234.709714 
L 341.360672 234.860857 
L 341.410847 235.012 
L 341.459867 235.163143 
L 341.50846 235.314286 
L 341.556294 235.465429 
L 341.603246 235.616571 
L 341.649633 235.767714 
L 341.695058 235.918857 
L 341.739956 236.07 
L 341.783957 236.221143 
L 341.827711 236.372286 
L 341.870291 236.523429 
" clip-path="url(#p634822f84d)" style="fill: none; stroke: #d62728; stroke-opacity: 0.5; stroke-width: 3; stroke-linecap: square"/>
   </g>
   <g id="line2d_40">
    <path clip-path="url(#p634822f84d)" style="fill: none; stroke: #d62728; stroke-width: 3; stroke-linecap: square"/>
   </g>
   <g id="line2d_41">
    <path d="M 347.398214 236.674571 
" clip-path="url(#p634822f84d)" style="fill: none; stroke: #9467bd; stroke-opacity: 0.5; stroke-width: 3; stroke-linecap: square"/>
   </g>
   <g id="line2d_42">
    <path clip-path="url(#p634822f84d)" style="fill: none; stroke: #9467bd; stroke-width: 3; stroke-linecap: square"/>
   </g>
   <g id="patch_3">
    <path d="M 55.73 241.36 
L 55.73 29.76 
" style="fill: none; stroke: #000000; stroke-width: 0.8; stroke-linejoin: miter; stroke-linecap: square"/>
   </g>
   <g id="patch_4">
    <path d="M 347.4225 241.36 
L 347.4225 29.76 
" style="fill: none; stroke: #000000; stroke-width: 0.8; stroke-linejoin: miter; stroke-linecap: square"/>
   </g>
   <g id="patch_5">
    <path d="M 55.73 241.36 
L 347.4225 241.36 
" style="fill: none; stroke: #000000; stroke-width: 0.8; stroke-linejoin: miter; stroke-linecap: square"/>
   </g>
   <g id="patch_6">
    <path d="M 55.73 29.76 
L 347.4225 29.76 
" style="fill: none; stroke: #000000; stroke-width: 0.8; stroke-linejoin: miter; stroke-linecap: square"/>
   </g>
   <g id="text_17">
    <!-- (a) -->
    <g transform="translate(190.577969 23.76) scale(0.18 -0.18)">
     <defs>
      <path id="Helvetica-28" d="M 1894 4666 
Q 1403 3713 1256 3263 
Q 1034 2578 1034 1681 
Q 1034 775 1288 25 
Q 1444 -438 1903 -1306 
L 1525 -1306 
Q 1069 -594 959 -397 
Q 850 -200 722 138 
Q 547 600 478 1125 
Q 444 1397 444 1644 
Q 444 2569 734 3291 
Q 919 3750 1503 4666 
L 1894 4666 
z
" transform="scale(0.015625)"/>
      <path id="Helvetica-29" d="M 222 -1306 
Q 719 -338 863 106 
Q 1081 778 1081 1681 
Q 1081 2584 828 3334 
Q 672 3797 213 4666 
L 591 4666 
Q 1072 3897 1173 3717 
Q 1275 3538 1394 3222 
Q 1544 2831 1608 2450 
Q 1672 2069 1672 1716 
Q 1672 791 1378 66 
Q 1194 -400 613 -1306 
L 222 -1306 
z
" transform="scale(0.015625)"/>
     </defs>
     <use xlink:href="#Helvetica-28"/>
     <use xlink:href="#Helvetica-61" x="33.300781"/>
     <use xlink:href="#Helvetica-29" x="88.916016"/>
    </g>
   </g>
   <g id="legend_1">
    <g id="patch_7">
     <path d="M 61.702187 112.263125 
L 340.4225 112.263125 
Q 342.4225 112.263125 342.4225 110.263125 
L 342.4225 36.76 
Q 342.4225 34.76 340.4225 34.76 
L 61.702187 34.76 
Q 59.702187 34.76 59.702187 36.76 
L 59.702187 110.263125 
Q 59.702187 112.263125 61.702187 112.263125 
z
" style="fill: #ffffff; opacity: 0.8; stroke: #cccccc; stroke-linejoin: miter"/>
    </g>
    <g id="line2d_43">
     <path d="M 63.702187 42.858437 
L 73.702187 42.858437 
L 83.702187 42.858437 
" style="fill: none; stroke: #1f77b4; stroke-width: 3; stroke-linecap: square"/>
    </g>
    <g id="text_18">
     <!-- LIQUID -->
     <g transform="translate(91.702187 46.358437) scale(0.1 -0.1)">
      <defs>
       <path id="DejaVuSans-4c" d="M 628 4666 
L 1259 4666 
L 1259 531 
L 3531 531 
L 3531 0 
L 628 0 
L 628 4666 
z
" transform="scale(0.015625)"/>
       <path id="DejaVuSans-49" d="M 628 4666 
L 1259 4666 
L 1259 0 
L 628 0 
L 628 4666 
z
" transform="scale(0.015625)"/>
       <path id="DejaVuSans-51" d="M 2522 4238 
Q 1834 4238 1429 3725 
Q 1025 3213 1025 2328 
Q 1025 1447 1429 934 
Q 1834 422 2522 422 
Q 3209 422 3611 934 
Q 4013 1447 4013 2328 
Q 4013 3213 3611 3725 
Q 3209 4238 2522 4238 
z
M 3406 84 
L 4238 -825 
L 3475 -825 
L 2784 -78 
Q 2681 -84 2626 -87 
Q 2572 -91 2522 -91 
Q 1538 -91 948 567 
Q 359 1225 359 2328 
Q 359 3434 948 4092 
Q 1538 4750 2522 4750 
Q 3503 4750 4090 4092 
Q 4678 3434 4678 2328 
Q 4678 1516 4351 937 
Q 4025 359 3406 84 
z
" transform="scale(0.015625)"/>
       <path id="DejaVuSans-55" d="M 556 4666 
L 1191 4666 
L 1191 1831 
Q 1191 1081 1462 751 
Q 1734 422 2344 422 
Q 2950 422 3222 751 
Q 3494 1081 3494 1831 
L 3494 4666 
L 4128 4666 
L 4128 1753 
Q 4128 841 3676 375 
Q 3225 -91 2344 -91 
Q 1459 -91 1007 375 
Q 556 841 556 1753 
L 556 4666 
z
" transform="scale(0.015625)"/>
       <path id="DejaVuSans-44" d="M 1259 4147 
L 1259 519 
L 2022 519 
Q 2988 519 3436 956 
Q 3884 1394 3884 2338 
Q 3884 3275 3436 3711 
Q 2988 4147 2022 4147 
L 1259 4147 
z
M 628 4666 
L 1925 4666 
Q 3281 4666 3915 4102 
Q 4550 3538 4550 2338 
Q 4550 1131 3912 565 
Q 3275 0 1925 0 
L 628 0 
L 628 4666 
z
" transform="scale(0.015625)"/>
      </defs>
      <use xlink:href="#DejaVuSans-4c"/>
      <use xlink:href="#DejaVuSans-49" x="55.712891"/>
      <use xlink:href="#DejaVuSans-51" x="85.205078"/>
      <use xlink:href="#DejaVuSans-55" x="163.916016"/>
      <use xlink:href="#DejaVuSans-49" x="237.109375"/>
      <use xlink:href="#DejaVuSans-44" x="266.601562"/>
     </g>
    </g>
    <g id="line2d_44">
     <path d="M 63.702187 57.536562 
L 73.702187 57.536562 
L 83.702187 57.536562 
" style="fill: none; stroke: #ff7f0e; stroke-width: 3; stroke-linecap: square"/>
    </g>
    <g id="text_19">
     <!-- FCC_A1+LIQUID -->
     <g transform="translate(91.702187 61.036562) scale(0.1 -0.1)">
      <defs>
       <path id="DejaVuSans-46" d="M 628 4666 
L 3309 4666 
L 3309 4134 
L 1259 4134 
L 1259 2759 
L 3109 2759 
L 3109 2228 
L 1259 2228 
L 1259 0 
L 628 0 
L 628 4666 
z
" transform="scale(0.015625)"/>
       <path id="DejaVuSans-43" d="M 4122 4306 
L 4122 3641 
Q 3803 3938 3442 4084 
Q 3081 4231 2675 4231 
Q 1875 4231 1450 3742 
Q 1025 3253 1025 2328 
Q 1025 1406 1450 917 
Q 1875 428 2675 428 
Q 3081 428 3442 575 
Q 3803 722 4122 1019 
L 4122 359 
Q 3791 134 3420 21 
Q 3050 -91 2638 -91 
Q 1578 -91 968 557 
Q 359 1206 359 2328 
Q 359 3453 968 4101 
Q 1578 4750 2638 4750 
Q 3056 4750 3426 4639 
Q 3797 4528 4122 4306 
z
" transform="scale(0.015625)"/>
       <path id="DejaVuSans-5f" d="M 3263 -1063 
L 3263 -1509 
L -63 -1509 
L -63 -1063 
L 3263 -1063 
z
" transform="scale(0.015625)"/>
       <path id="DejaVuSans-41" d="M 2188 4044 
L 1331 1722 
L 3047 1722 
L 2188 4044 
z
M 1831 4666 
L 2547 4666 
L 4325 0 
L 3669 0 
L 3244 1197 
L 1141 1197 
L 716 0 
L 50 0 
L 1831 4666 
z
" transform="scale(0.015625)"/>
       <path id="DejaVuSans-2b" d="M 2944 4013 
L 2944 2272 
L 4684 2272 
L 4684 1741 
L 2944 1741 
L 2944 0 
L 2419 0 
L 2419 1741 
L 678 1741 
L 678 2272 
L 2419 2272 
L 2419 4013 
L 2944 4013 
z
" transform="scale(0.015625)"/>
      </defs>
      <use xlink:href="#DejaVuSans-46"/>
      <use xlink:href="#DejaVuSans-43" x="57.519531"/>
      <use xlink:href="#DejaVuSans-43" x="127.34375"/>
      <use xlink:href="#DejaVuSans-5f" x="197.167969"/>
      <use xlink:href="#DejaVuSans-41" x="247.167969"/>
      <use xlink:href="#DejaVuSans-31" x="315.576172"/>
      <use xlink:href="#DejaVuSans-2b" x="379.199219"/>
      <use xlink:href="#DejaVuSans-4c" x="462.988281"/>
      <use xlink:href="#DejaVuSans-49" x="518.701172"/>
      <use xlink:href="#DejaVuSans-51" x="548.193359"/>
      <use xlink:href="#DejaVuSans-55" x="626.904297"/>
      <use xlink:href="#DejaVuSans-49" x="700.097656"/>
      <use xlink:href="#DejaVuSans-44" x="729.589844"/>
     </g>
    </g>
    <g id="line2d_45">
     <path d="M 63.702187 72.492812 
L 73.702187 72.492812 
L 83.702187 72.492812 
" style="fill: none; stroke: #2ca02c; stroke-width: 3; stroke-linecap: square"/>
    </g>
    <g id="text_20">
     <!-- DIAMOND_A4+FCC_A1+LIQUID -->
     <g transform="translate(91.702187 75.992812) scale(0.1 -0.1)">
      <defs>
       <path id="DejaVuSans-4d" d="M 628 4666 
L 1569 4666 
L 2759 1491 
L 3956 4666 
L 4897 4666 
L 4897 0 
L 4281 0 
L 4281 4097 
L 3078 897 
L 2444 897 
L 1241 4097 
L 1241 0 
L 628 0 
L 628 4666 
z
" transform="scale(0.015625)"/>
       <path id="DejaVuSans-4f" d="M 2522 4238 
Q 1834 4238 1429 3725 
Q 1025 3213 1025 2328 
Q 1025 1447 1429 934 
Q 1834 422 2522 422 
Q 3209 422 3611 934 
Q 4013 1447 4013 2328 
Q 4013 3213 3611 3725 
Q 3209 4238 2522 4238 
z
M 2522 4750 
Q 3503 4750 4090 4092 
Q 4678 3434 4678 2328 
Q 4678 1225 4090 567 
Q 3503 -91 2522 -91 
Q 1538 -91 948 565 
Q 359 1222 359 2328 
Q 359 3434 948 4092 
Q 1538 4750 2522 4750 
z
" transform="scale(0.015625)"/>
       <path id="DejaVuSans-4e" d="M 628 4666 
L 1478 4666 
L 3547 763 
L 3547 4666 
L 4159 4666 
L 4159 0 
L 3309 0 
L 1241 3903 
L 1241 0 
L 628 0 
L 628 4666 
z
" transform="scale(0.015625)"/>
      </defs>
      <use xlink:href="#DejaVuSans-44"/>
      <use xlink:href="#DejaVuSans-49" x="77.001953"/>
      <use xlink:href="#DejaVuSans-41" x="106.494141"/>
      <use xlink:href="#DejaVuSans-4d" x="174.902344"/>
      <use xlink:href="#DejaVuSans-4f" x="261.181641"/>
      <use xlink:href="#DejaVuSans-4e" x="339.892578"/>
      <use xlink:href="#DejaVuSans-44" x="414.697266"/>
      <use xlink:href="#DejaVuSans-5f" x="491.699219"/>
      <use xlink:href="#DejaVuSans-41" x="541.699219"/>
      <use xlink:href="#DejaVuSans-34" x="610.107422"/>
      <use xlink:href="#DejaVuSans-2b" x="673.730469"/>
      <use xlink:href="#DejaVuSans-46" x="757.519531"/>
      <use xlink:href="#DejaVuSans-43" x="815.039062"/>
      <use xlink:href="#DejaVuSans-43" x="884.863281"/>
      <use xlink:href="#DejaVuSans-5f" x="954.6875"/>
      <use xlink:href="#DejaVuSans-41" x="1004.6875"/>
      <use xlink:href="#DejaVuSans-31" x="1073.095703"/>
      <use xlink:href="#DejaVuSans-2b" x="1136.71875"/>
      <use xlink:href="#DejaVuSans-4c" x="1220.507812"/>
      <use xlink:href="#DejaVuSans-49" x="1276.220703"/>
      <use xlink:href="#DejaVuSans-51" x="1305.712891"/>
      <use xlink:href="#DejaVuSans-55" x="1384.423828"/>
      <use xlink:href="#DejaVuSans-49" x="1457.617188"/>
      <use xlink:href="#DejaVuSans-44" x="1487.109375"/>
     </g>
    </g>
    <g id="line2d_46">
     <path d="M 63.702187 87.449062 
L 73.702187 87.449062 
L 83.702187 87.449062 
" style="fill: none; stroke: #d62728; stroke-width: 3; stroke-linecap: square"/>
    </g>
    <g id="text_21">
     <!-- ALCU_THETA+DIAMOND_A4+FCC_A1+LIQUID -->
     <g transform="translate(91.702187 90.949062) scale(0.1 -0.1)">
      <defs>
       <path id="DejaVuSans-54" d="M -19 4666 
L 3928 4666 
L 3928 4134 
L 2272 4134 
L 2272 0 
L 1638 0 
L 1638 4134 
L -19 4134 
L -19 4666 
z
" transform="scale(0.015625)"/>
       <path id="DejaVuSans-48" d="M 628 4666 
L 1259 4666 
L 1259 2753 
L 3553 2753 
L 3553 4666 
L 4184 4666 
L 4184 0 
L 3553 0 
L 3553 2222 
L 1259 2222 
L 1259 0 
L 628 0 
L 628 4666 
z
" transform="scale(0.015625)"/>
       <path id="DejaVuSans-45" d="M 628 4666 
L 3578 4666 
L 3578 4134 
L 1259 4134 
L 1259 2753 
L 3481 2753 
L 3481 2222 
L 1259 2222 
L 1259 531 
L 3634 531 
L 3634 0 
L 628 0 
L 628 4666 
z
" transform="scale(0.015625)"/>
      </defs>
      <use xlink:href="#DejaVuSans-41"/>
      <use xlink:href="#DejaVuSans-4c" x="68.408203"/>
      <use xlink:href="#DejaVuSans-43" x="124.121094"/>
      <use xlink:href="#DejaVuSans-55" x="193.945312"/>
      <use xlink:href="#DejaVuSans-5f" x="267.138672"/>
      <use xlink:href="#DejaVuSans-54" x="317.138672"/>
      <use xlink:href="#DejaVuSans-48" x="378.222656"/>
      <use xlink:href="#DejaVuSans-45" x="453.417969"/>
      <use xlink:href="#DejaVuSans-54" x="516.601562"/>
      <use xlink:href="#DejaVuSans-41" x="569.935547"/>
      <use xlink:href="#DejaVuSans-2b" x="638.34375"/>
      <use xlink:href="#DejaVuSans-44" x="722.132812"/>
      <use xlink:href="#DejaVuSans-49" x="799.134766"/>
      <use xlink:href="#DejaVuSans-41" x="828.626953"/>
      <use xlink:href="#DejaVuSans-4d" x="897.035156"/>
      <use xlink:href="#DejaVuSans-4f" x="983.314453"/>
      <use xlink:href="#DejaVuSans-4e" x="1062.025391"/>
      <use xlink:href="#DejaVuSans-44" x="1136.830078"/>
      <use xlink:href="#DejaVuSans-5f" x="1213.832031"/>
      <use xlink:href="#DejaVuSans-41" x="1263.832031"/>
      <use xlink:href="#DejaVuSans-34" x="1332.240234"/>
      <use xlink:href="#DejaVuSans-2b" x="1395.863281"/>
      <use xlink:href="#DejaVuSans-46" x="1479.652344"/>
      <use xlink:href="#DejaVuSans-43" x="1537.171875"/>
      <use xlink:href="#DejaVuSans-43" x="1606.996094"/>
      <use xlink:href="#DejaVuSans-5f" x="1676.820312"/>
      <use xlink:href="#DejaVuSans-41" x="1726.820312"/>
      <use xlink:href="#DejaVuSans-31" x="1795.228516"/>
      <use xlink:href="#DejaVuSans-2b" x="1858.851562"/>
      <use xlink:href="#DejaVuSans-4c" x="1942.640625"/>
      <use xlink:href="#DejaVuSans-49" x="1998.353516"/>
      <use xlink:href="#DejaVuSans-51" x="2027.845703"/>
      <use xlink:href="#DejaVuSans-55" x="2106.556641"/>
      <use xlink:href="#DejaVuSans-49" x="2179.75"/>
      <use xlink:href="#DejaVuSans-44" x="2209.242188"/>
     </g>
    </g>
    <g id="line2d_47">
     <path d="M 63.702187 102.405312 
L 73.702187 102.405312 
L 83.702187 102.405312 
" style="fill: none; stroke: #9467bd; stroke-width: 3; stroke-linecap: square"/>
    </g>
    <g id="text_22">
     <!-- AL5CU2(s)+ALCU_THETA+DIAMOND_A4+FCC_A1 -->
     <g transform="translate(91.702187 105.905312) scale(0.1 -0.1)">
      <defs>
       <path id="DejaVuSans-35" d="M 691 4666 
L 3169 4666 
L 3169 4134 
L 1269 4134 
L 1269 2991 
Q 1406 3038 1543 3061 
Q 1681 3084 1819 3084 
Q 2600 3084 3056 2656 
Q 3513 2228 3513 1497 
Q 3513 744 3044 326 
Q 2575 -91 1722 -91 
Q 1428 -91 1123 -41 
Q 819 9 494 109 
L 494 744 
Q 775 591 1075 516 
Q 1375 441 1709 441 
Q 2250 441 2565 725 
Q 2881 1009 2881 1497 
Q 2881 1984 2565 2268 
Q 2250 2553 1709 2553 
Q 1456 2553 1204 2497 
Q 953 2441 691 2322 
L 691 4666 
z
" transform="scale(0.015625)"/>
       <path id="DejaVuSans-28" d="M 1984 4856 
Q 1566 4138 1362 3434 
Q 1159 2731 1159 2009 
Q 1159 1288 1364 580 
Q 1569 -128 1984 -844 
L 1484 -844 
Q 1016 -109 783 600 
Q 550 1309 550 2009 
Q 550 2706 781 3412 
Q 1013 4119 1484 4856 
L 1984 4856 
z
" transform="scale(0.015625)"/>
       <path id="DejaVuSans-73" d="M 2834 3397 
L 2834 2853 
Q 2591 2978 2328 3040 
Q 2066 3103 1784 3103 
Q 1356 3103 1142 2972 
Q 928 2841 928 2578 
Q 928 2378 1081 2264 
Q 1234 2150 1697 2047 
L 1894 2003 
Q 2506 1872 2764 1633 
Q 3022 1394 3022 966 
Q 3022 478 2636 193 
Q 2250 -91 1575 -91 
Q 1294 -91 989 -36 
Q 684 19 347 128 
L 347 722 
Q 666 556 975 473 
Q 1284 391 1588 391 
Q 1994 391 2212 530 
Q 2431 669 2431 922 
Q 2431 1156 2273 1281 
Q 2116 1406 1581 1522 
L 1381 1569 
Q 847 1681 609 1914 
Q 372 2147 372 2553 
Q 372 3047 722 3315 
Q 1072 3584 1716 3584 
Q 2034 3584 2315 3537 
Q 2597 3491 2834 3397 
z
" transform="scale(0.015625)"/>
       <path id="DejaVuSans-29" d="M 513 4856 
L 1013 4856 
Q 1481 4119 1714 3412 
Q 1947 2706 1947 2009 
Q 1947 1309 1714 600 
Q 1481 -109 1013 -844 
L 513 -844 
Q 928 -128 1133 580 
Q 1338 1288 1338 2009 
Q 1338 2731 1133 3434 
Q 928 4138 513 4856 
z
" transform="scale(0.015625)"/>
      </defs>
      <use xlink:href="#DejaVuSans-41"/>
      <use xlink:href="#DejaVuSans-4c" x="68.408203"/>
      <use xlink:href="#DejaVuSans-35" x="124.121094"/>
      <use xlink:href="#DejaVuSans-43" x="187.744141"/>
      <use xlink:href="#DejaVuSans-55" x="257.568359"/>
      <use xlink:href="#DejaVuSans-32" x="330.761719"/>
      <use xlink:href="#DejaVuSans-28" x="394.384766"/>
      <use xlink:href="#DejaVuSans-73" x="433.398438"/>
      <use xlink:href="#DejaVuSans-29" x="485.498047"/>
      <use xlink:href="#DejaVuSans-2b" x="524.511719"/>
      <use xlink:href="#DejaVuSans-41" x="608.300781"/>
      <use xlink:href="#DejaVuSans-4c" x="676.708984"/>
      <use xlink:href="#DejaVuSans-43" x="732.421875"/>
      <use xlink:href="#DejaVuSans-55" x="802.246094"/>
      <use xlink:href="#DejaVuSans-5f" x="875.439453"/>
      <use xlink:href="#DejaVuSans-54" x="925.439453"/>
      <use xlink:href="#DejaVuSans-48" x="986.523438"/>
      <use xlink:href="#DejaVuSans-45" x="1061.71875"/>
      <use xlink:href="#DejaVuSans-54" x="1124.902344"/>
      <use xlink:href="#DejaVuSans-41" x="1178.236328"/>
      <use xlink:href="#DejaVuSans-2b" x="1246.644531"/>
      <use xlink:href="#DejaVuSans-44" x="1330.433594"/>
      <use xlink:href="#DejaVuSans-49" x="1407.435547"/>
      <use xlink:href="#DejaVuSans-41" x="1436.927734"/>
      <use xlink:href="#DejaVuSans-4d" x="1505.335938"/>
      <use xlink:href="#DejaVuSans-4f" x="1591.615234"/>
      <use xlink:href="#DejaVuSans-4e" x="1670.326172"/>
      <use xlink:href="#DejaVuSans-44" x="1745.130859"/>
      <use xlink:href="#DejaVuSans-5f" x="1822.132812"/>
      <use xlink:href="#DejaVuSans-41" x="1872.132812"/>
      <use xlink:href="#DejaVuSans-34" x="1940.541016"/>
      <use xlink:href="#DejaVuSans-2b" x="2004.164062"/>
      <use xlink:href="#DejaVuSans-46" x="2087.953125"/>
      <use xlink:href="#DejaVuSans-43" x="2145.472656"/>
      <use xlink:href="#DejaVuSans-43" x="2215.296875"/>
      <use xlink:href="#DejaVuSans-5f" x="2285.121094"/>
      <use xlink:href="#DejaVuSans-41" x="2335.121094"/>
      <use xlink:href="#DejaVuSans-31" x="2403.529297"/>
     </g>
    </g>
   </g>
  </g>
  <g id="axes_2">
   <g id="patch_8">
    <path d="M 407.9225 241.36 
L 699.615 241.36 
L 699.615 29.76 
L 407.9225 29.76 
z
" style="fill: #ffffff"/>
   </g>
   <g id="matplotlib.axis_3">
    <g id="xtick_7">
     <g id="line2d_48">
      <path d="M 407.9225 241.36 
L 407.9225 29.76 
" clip-path="url(#pd2d18bd359)" style="fill: none; stroke: #b0b0b0; stroke-width: 0.8; stroke-linecap: square"/>
     </g>
     <g id="line2d_49">
      <g>
       <use xlink:href="#ma0c2e72110" x="407.9225" y="241.36" style="stroke: #000000; stroke-width: 0.8"/>
      </g>
     </g>
     <g id="text_23">
      <!-- 780 -->
      <g transform="translate(398.37875 255.958438) scale(0.1 -0.1)">
       <use xlink:href="#DejaVuSans-37"/>
       <use xlink:href="#DejaVuSans-38" x="63.623047"/>
       <use xlink:href="#DejaVuSans-30" x="127.246094"/>
      </g>
     </g>
    </g>
    <g id="xtick_8">
     <g id="line2d_50">
      <path d="M 456.537917 241.36 
L 456.537917 29.76 
" clip-path="url(#pd2d18bd359)" style="fill: none; stroke: #b0b0b0; stroke-width: 0.8; stroke-linecap: square"/>
     </g>
     <g id="line2d_51">
      <g>
       <use xlink:href="#ma0c2e72110" x="456.537917" y="241.36" style="stroke: #000000; stroke-width: 0.8"/>
      </g>
     </g>
     <g id="text_24">
      <!-- 800 -->
      <g transform="translate(446.994167 255.958438) scale(0.1 -0.1)">
       <use xlink:href="#DejaVuSans-38"/>
       <use xlink:href="#DejaVuSans-30" x="63.623047"/>
       <use xlink:href="#DejaVuSans-30" x="127.246094"/>
      </g>
     </g>
    </g>
    <g id="xtick_9">
     <g id="line2d_52">
      <path d="M 505.153333 241.36 
L 505.153333 29.76 
" clip-path="url(#pd2d18bd359)" style="fill: none; stroke: #b0b0b0; stroke-width: 0.8; stroke-linecap: square"/>
     </g>
     <g id="line2d_53">
      <g>
       <use xlink:href="#ma0c2e72110" x="505.153333" y="241.36" style="stroke: #000000; stroke-width: 0.8"/>
      </g>
     </g>
     <g id="text_25">
      <!-- 820 -->
      <g transform="translate(495.609583 255.958438) scale(0.1 -0.1)">
       <use xlink:href="#DejaVuSans-38"/>
       <use xlink:href="#DejaVuSans-32" x="63.623047"/>
       <use xlink:href="#DejaVuSans-30" x="127.246094"/>
      </g>
     </g>
    </g>
    <g id="xtick_10">
     <g id="line2d_54">
      <path d="M 553.76875 241.36 
L 553.76875 29.76 
" clip-path="url(#pd2d18bd359)" style="fill: none; stroke: #b0b0b0; stroke-width: 0.8; stroke-linecap: square"/>
     </g>
     <g id="line2d_55">
      <g>
       <use xlink:href="#ma0c2e72110" x="553.76875" y="241.36" style="stroke: #000000; stroke-width: 0.8"/>
      </g>
     </g>
     <g id="text_26">
      <!-- 840 -->
      <g transform="translate(544.225 255.958438) scale(0.1 -0.1)">
       <use xlink:href="#DejaVuSans-38"/>
       <use xlink:href="#DejaVuSans-34" x="63.623047"/>
       <use xlink:href="#DejaVuSans-30" x="127.246094"/>
      </g>
     </g>
    </g>
    <g id="xtick_11">
     <g id="line2d_56">
      <path d="M 602.384167 241.36 
L 602.384167 29.76 
" clip-path="url(#pd2d18bd359)" style="fill: none; stroke: #b0b0b0; stroke-width: 0.8; stroke-linecap: square"/>
     </g>
     <g id="line2d_57">
      <g>
       <use xlink:href="#ma0c2e72110" x="602.384167" y="241.36" style="stroke: #000000; stroke-width: 0.8"/>
      </g>
     </g>
     <g id="text_27">
      <!-- 860 -->
      <g transform="translate(592.840417 255.958438) scale(0.1 -0.1)">
       <use xlink:href="#DejaVuSans-38"/>
       <use xlink:href="#DejaVuSans-36" x="63.623047"/>
       <use xlink:href="#DejaVuSans-30" x="127.246094"/>
      </g>
     </g>
    </g>
    <g id="xtick_12">
     <g id="line2d_58">
      <path d="M 650.999583 241.36 
L 650.999583 29.76 
" clip-path="url(#pd2d18bd359)" style="fill: none; stroke: #b0b0b0; stroke-width: 0.8; stroke-linecap: square"/>
     </g>
     <g id="line2d_59">
      <g>
       <use xlink:href="#ma0c2e72110" x="650.999583" y="241.36" style="stroke: #000000; stroke-width: 0.8"/>
      </g>
     </g>
     <g id="text_28">
      <!-- 880 -->
      <g transform="translate(641.455833 255.958438) scale(0.1 -0.1)">
       <use xlink:href="#DejaVuSans-38"/>
       <use xlink:href="#DejaVuSans-38" x="63.623047"/>
       <use xlink:href="#DejaVuSans-30" x="127.246094"/>
      </g>
     </g>
    </g>
    <g id="xtick_13">
     <g id="line2d_60">
      <path d="M 699.615 241.36 
L 699.615 29.76 
" clip-path="url(#pd2d18bd359)" style="fill: none; stroke: #b0b0b0; stroke-width: 0.8; stroke-linecap: square"/>
     </g>
     <g id="line2d_61">
      <g>
       <use xlink:href="#ma0c2e72110" x="699.615" y="241.36" style="stroke: #000000; stroke-width: 0.8"/>
      </g>
     </g>
     <g id="text_29">
      <!-- 900 -->
      <g transform="translate(690.07125 255.958438) scale(0.1 -0.1)">
       <use xlink:href="#DejaVuSans-39"/>
       <use xlink:href="#DejaVuSans-30" x="63.623047"/>
       <use xlink:href="#DejaVuSans-30" x="127.246094"/>
      </g>
     </g>
    </g>
    <g id="text_30">
     <!-- Temperature, K -->
     <g transform="translate(498.195 273.515625) scale(0.16 -0.16)">
      <use xlink:href="#Helvetica-54"/>
      <use xlink:href="#Helvetica-65" x="61.083984"/>
      <use xlink:href="#Helvetica-6d" x="116.699219"/>
      <use xlink:href="#Helvetica-70" x="200"/>
      <use xlink:href="#Helvetica-65" x="255.615234"/>
      <use xlink:href="#Helvetica-72" x="311.230469"/>
      <use xlink:href="#Helvetica-61" x="344.53125"/>
      <use xlink:href="#Helvetica-74" x="400.146484"/>
      <use xlink:href="#Helvetica-75" x="427.929688"/>
      <use xlink:href="#Helvetica-72" x="483.544922"/>
      <use xlink:href="#Helvetica-65" x="516.845703"/>
      <use xlink:href="#Helvetica-2c" x="572.460938"/>
      <use xlink:href="#Helvetica-20" x="600.244141"/>
      <use xlink:href="#Helvetica-4b" x="628.027344"/>
     </g>
    </g>
   </g>
   <g id="matplotlib.axis_4">
    <g id="ytick_9">
     <g id="line2d_62">
      <path d="M 407.9225 241.36 
L 699.615 241.36 
" clip-path="url(#pd2d18bd359)" style="fill: none; stroke: #b0b0b0; stroke-width: 0.8; stroke-linecap: square"/>
     </g>
     <g id="line2d_63">
      <g>
       <use xlink:href="#mc90fc88253" x="407.9225" y="241.36" style="stroke: #000000; stroke-width: 0.8"/>
      </g>
     </g>
     <g id="text_31">
      <!-- 0.0 -->
      <g transform="translate(385.019375 245.159219) scale(0.1 -0.1)">
       <use xlink:href="#DejaVuSans-30"/>
       <use xlink:href="#DejaVuSans-2e" x="63.623047"/>
       <use xlink:href="#DejaVuSans-30" x="95.410156"/>
      </g>
     </g>
    </g>
    <g id="ytick_10">
     <g id="line2d_64">
      <path d="M 407.9225 199.04 
L 699.615 199.04 
" clip-path="url(#pd2d18bd359)" style="fill: none; stroke: #b0b0b0; stroke-width: 0.8; stroke-linecap: square"/>
     </g>
     <g id="line2d_65">
      <g>
       <use xlink:href="#mc90fc88253" x="407.9225" y="199.04" style="stroke: #000000; stroke-width: 0.8"/>
      </g>
     </g>
     <g id="text_32">
      <!-- 0.2 -->
      <g transform="translate(385.019375 202.839219) scale(0.1 -0.1)">
       <use xlink:href="#DejaVuSans-30"/>
       <use xlink:href="#DejaVuSans-2e" x="63.623047"/>
       <use xlink:href="#DejaVuSans-32" x="95.410156"/>
      </g>
     </g>
    </g>
    <g id="ytick_11">
     <g id="line2d_66">
      <path d="M 407.9225 156.72 
L 699.615 156.72 
" clip-path="url(#pd2d18bd359)" style="fill: none; stroke: #b0b0b0; stroke-width: 0.8; stroke-linecap: square"/>
     </g>
     <g id="line2d_67">
      <g>
       <use xlink:href="#mc90fc88253" x="407.9225" y="156.72" style="stroke: #000000; stroke-width: 0.8"/>
      </g>
     </g>
     <g id="text_33">
      <!-- 0.4 -->
      <g transform="translate(385.019375 160.519219) scale(0.1 -0.1)">
       <use xlink:href="#DejaVuSans-30"/>
       <use xlink:href="#DejaVuSans-2e" x="63.623047"/>
       <use xlink:href="#DejaVuSans-34" x="95.410156"/>
      </g>
     </g>
    </g>
    <g id="ytick_12">
     <g id="line2d_68">
      <path d="M 407.9225 114.4 
L 699.615 114.4 
" clip-path="url(#pd2d18bd359)" style="fill: none; stroke: #b0b0b0; stroke-width: 0.8; stroke-linecap: square"/>
     </g>
     <g id="line2d_69">
      <g>
       <use xlink:href="#mc90fc88253" x="407.9225" y="114.4" style="stroke: #000000; stroke-width: 0.8"/>
      </g>
     </g>
     <g id="text_34">
      <!-- 0.6 -->
      <g transform="translate(385.019375 118.199219) scale(0.1 -0.1)">
       <use xlink:href="#DejaVuSans-30"/>
       <use xlink:href="#DejaVuSans-2e" x="63.623047"/>
       <use xlink:href="#DejaVuSans-36" x="95.410156"/>
      </g>
     </g>
    </g>
    <g id="ytick_13">
     <g id="line2d_70">
      <path d="M 407.9225 72.08 
L 699.615 72.08 
" clip-path="url(#pd2d18bd359)" style="fill: none; stroke: #b0b0b0; stroke-width: 0.8; stroke-linecap: square"/>
     </g>
     <g id="line2d_71">
      <g>
       <use xlink:href="#mc90fc88253" x="407.9225" y="72.08" style="stroke: #000000; stroke-width: 0.8"/>
      </g>
     </g>
     <g id="text_35">
      <!-- 0.8 -->
      <g transform="translate(385.019375 75.879219) scale(0.1 -0.1)">
       <use xlink:href="#DejaVuSans-30"/>
       <use xlink:href="#DejaVuSans-2e" x="63.623047"/>
       <use xlink:href="#DejaVuSans-38" x="95.410156"/>
      </g>
     </g>
    </g>
    <g id="ytick_14">
     <g id="line2d_72">
      <path d="M 407.9225 29.76 
L 699.615 29.76 
" clip-path="url(#pd2d18bd359)" style="fill: none; stroke: #b0b0b0; stroke-width: 0.8; stroke-linecap: square"/>
     </g>
     <g id="line2d_73">
      <g>
       <use xlink:href="#mc90fc88253" x="407.9225" y="29.76" style="stroke: #000000; stroke-width: 0.8"/>
      </g>
     </g>
     <g id="text_36">
      <!-- 1.0 -->
      <g transform="translate(385.019375 33.559219) scale(0.1 -0.1)">
       <use xlink:href="#DejaVuSans-31"/>
       <use xlink:href="#DejaVuSans-2e" x="63.623047"/>
       <use xlink:href="#DejaVuSans-30" x="95.410156"/>
      </g>
     </g>
    </g>
    <g id="text_37">
     <!-- Phase amount, mol -->
     <g transform="translate(377.684375 204.48125) rotate(-90) scale(0.16 -0.16)">
      <defs>
       <path id="Helvetica-50" d="M 547 4591 
L 2613 4591 
Q 3225 4591 3600 4245 
Q 3975 3900 3975 3275 
Q 3975 2738 3640 2339 
Q 3306 1941 2613 1941 
L 1169 1941 
L 1169 0 
L 547 0 
L 547 4591 
z
M 3347 3272 
Q 3347 3778 2972 3959 
Q 2766 4056 2406 4056 
L 1169 4056 
L 1169 2466 
L 2406 2466 
Q 2825 2466 3086 2644 
Q 3347 2822 3347 3272 
z
" transform="scale(0.015625)"/>
      </defs>
      <use xlink:href="#Helvetica-50"/>
      <use xlink:href="#Helvetica-68" x="66.699219"/>
      <use xlink:href="#Helvetica-61" x="122.314453"/>
      <use xlink:href="#Helvetica-73" x="177.929688"/>
      <use xlink:href="#Helvetica-65" x="227.929688"/>
      <use xlink:href="#Helvetica-20" x="283.544922"/>
      <use xlink:href="#Helvetica-61" x="311.328125"/>
      <use xlink:href="#Helvetica-6d" x="366.943359"/>
      <use xlink:href="#Helvetica-6f" x="450.244141"/>
      <use xlink:href="#Helvetica-75" x="505.859375"/>
      <use xlink:href="#Helvetica-6e" x="561.474609"/>
      <use xlink:href="#Helvetica-74" x="617.089844"/>
      <use xlink:href="#Helvetica-2c" x="644.873047"/>
      <use xlink:href="#Helvetica-20" x="672.65625"/>
      <use xlink:href="#Helvetica-6d" x="700.439453"/>
      <use xlink:href="#Helvetica-6f" x="783.740234"/>
      <use xlink:href="#Helvetica-6c" x="839.355469"/>
     </g>
    </g>
   </g>
   <g id="line2d_74">
    <path clip-path="url(#pd2d18bd359)" style="fill: none; stroke: #000000; stroke-opacity: 0.5; stroke-width: 1.5; stroke-linecap: square"/>
   </g>
   <g id="line2d_75">
    <defs>
     <path id="m98e00fec6c" d="M 0 3 
C 0.795609 3 1.55874 2.683901 2.12132 2.12132 
C 2.683901 1.55874 3 0.795609 3 0 
C 3 -0.795609 2.683901 -1.55874 2.12132 -2.12132 
C 1.55874 -2.683901 0.795609 -3 0 -3 
C -0.795609 -3 -1.55874 -2.683901 -2.12132 -2.12132 
C -2.683901 -1.55874 -3 -0.795609 -3 0 
C -3 0.795609 -2.683901 1.55874 -2.12132 2.12132 
C -1.55874 2.683901 -0.795609 3 0 3 
z
" style="stroke: #000000"/>
    </defs>
    <g clip-path="url(#pd2d18bd359)"/>
   </g>
   <g id="line2d_76">
    <g clip-path="url(#pd2d18bd359)">
     <use xlink:href="#m8d0873ecce" x="699.615" y="29.76" style="fill: #1f77b4; stroke: #1f77b4"/>
     <use xlink:href="#m8d0873ecce" x="687.461146" y="29.76" style="fill: #1f77b4; stroke: #1f77b4"/>
     <use xlink:href="#m8d0873ecce" x="675.307292" y="29.76" style="fill: #1f77b4; stroke: #1f77b4"/>
     <use xlink:href="#m8d0873ecce" x="663.153437" y="29.76" style="fill: #1f77b4; stroke: #1f77b4"/>
     <use xlink:href="#m8d0873ecce" x="650.999583" y="29.76" style="fill: #1f77b4; stroke: #1f77b4"/>
     <use xlink:href="#m8d0873ecce" x="638.845729" y="29.76" style="fill: #1f77b4; stroke: #1f77b4"/>
     <use xlink:href="#m8d0873ecce" x="626.691875" y="29.76" style="fill: #1f77b4; stroke: #1f77b4"/>
     <use xlink:href="#m8d0873ecce" x="614.538021" y="29.76" style="fill: #1f77b4; stroke: #1f77b4"/>
     <use xlink:href="#m8d0873ecce" x="606.336187" y="29.76" style="fill: #1f77b4; stroke: #1f77b4"/>
     <use xlink:href="#m8d0873ecce" x="602.384167" y="34.644998" style="fill: #1f77b4; stroke: #1f77b4"/>
     <use xlink:href="#m8d0873ecce" x="590.230312" y="48.389476" style="fill: #1f77b4; stroke: #1f77b4"/>
     <use xlink:href="#m8d0873ecce" x="578.076458" y="60.41026" style="fill: #1f77b4; stroke: #1f77b4"/>
     <use xlink:href="#m8d0873ecce" x="565.922604" y="71.009516" style="fill: #1f77b4; stroke: #1f77b4"/>
     <use xlink:href="#m8d0873ecce" x="557.394269" y="77.718294" style="fill: #1f77b4; stroke: #1f77b4"/>
     <use xlink:href="#m8d0873ecce" x="553.76875" y="106.529538" style="fill: #1f77b4; stroke: #1f77b4"/>
     <use xlink:href="#m8d0873ecce" x="541.614896" y="159.518833" style="fill: #1f77b4; stroke: #1f77b4"/>
     <use xlink:href="#m8d0873ecce" x="529.461042" y="183.649909" style="fill: #1f77b4; stroke: #1f77b4"/>
     <use xlink:href="#m8d0873ecce" x="517.307187" y="197.177285" style="fill: #1f77b4; stroke: #1f77b4"/>
     <use xlink:href="#m8d0873ecce" x="505.153333" y="205.693762" style="fill: #1f77b4; stroke: #1f77b4"/>
     <use xlink:href="#m8d0873ecce" x="492.999479" y="211.468749" style="fill: #1f77b4; stroke: #1f77b4"/>
     <use xlink:href="#m8d0873ecce" x="480.845625" y="215.594314" style="fill: #1f77b4; stroke: #1f77b4"/>
     <use xlink:href="#m8d0873ecce" x="468.691771" y="218.658706" style="fill: #1f77b4; stroke: #1f77b4"/>
     <use xlink:href="#m8d0873ecce" x="456.537917" y="221.007042" style="fill: #1f77b4; stroke: #1f77b4"/>
     <use xlink:href="#m8d0873ecce" x="444.384062" y="222.853676" style="fill: #1f77b4; stroke: #1f77b4"/>
     <use xlink:href="#m8d0873ecce" x="441.318277" y="223.256139" style="fill: #1f77b4; stroke: #1f77b4"/>
     <use xlink:href="#m8d0873ecce" x="432.230208" y="233.681248" style="fill: #1f77b4; stroke: #1f77b4"/>
     <use xlink:href="#m8d0873ecce" x="420.076354" y="237.101973" style="fill: #1f77b4; stroke: #1f77b4"/>
     <use xlink:href="#m8d0873ecce" x="415.574907" y="237.705033" style="fill: #1f77b4; stroke: #1f77b4"/>
     <use xlink:href="#m8d0873ecce" x="415.574907" y="241.36" style="fill: #1f77b4; stroke: #1f77b4"/>
    </g>
   </g>
   <g id="line2d_77">
    <path d="M 721 29.76 
L 606.2734 29.812028 
L 604.57186 31.956315 
L 600.196473 37.321373 
L 599.467242 38.105732 
L 591.931852 46.523431 
L 589.014927 49.584229 
L 588.528773 50.127444 
L 586.827233 51.832509 
L 576.617996 61.632352 
L 565.679527 71.04453 
L 565.193373 71.436571 
L 561.790294 74.161886 
L 560.088754 75.478647 
L 558.873369 76.417644 
L 557.414906 77.522448 
L 554.984135 97.554188 
L 553.525673 107.625568 
L 551.824133 117.836759 
L 550.365671 125.511264 
L 548.664131 133.409026 
L 546.962592 140.396776 
L 545.017975 147.419117 
L 543.073358 153.598729 
L 540.39951 160.924604 
L 538.211817 166.139507 
L 536.024123 170.761712 
L 533.836429 174.893145 
L 531.405658 178.967037 
L 528.73181 182.946928 
L 526.787194 185.463191 
L 523.384115 189.622376 
L 520.710267 192.436056 
L 517.793342 195.207298 
L 514.390262 198.09306 
L 510.744106 200.781469 
L 507.827181 202.72339 
L 504.181025 204.909581 
L 499.805637 207.22004 
L 491.054862 211.055453 
L 486.436398 212.742679 
L 480.116394 214.755368 
L 474.039467 216.428722 
L 471.851773 216.960948 
L 465.288692 218.446952 
L 455.079454 220.387604 
L 446.085602 221.806126 
L 441.467137 222.444689 
L 441.22406 222.706896 
L 440.251752 224.879587 
L 439.036367 226.990839 
L 437.820981 228.632905 
L 436.362519 230.17872 
L 434.904056 231.39609 
L 433.202517 232.526228 
L 431.2579 233.555784 
L 427.611744 234.943556 
L 424.694819 235.752345 
L 421.777894 236.394535 
L 416.430198 237.237761 
L 415.700967 237.332308 
L 415.45789 241.36 
L 415.45789 241.36 
" clip-path="url(#pd2d18bd359)" style="fill: none; stroke: #1f77b4; stroke-opacity: 0.5; stroke-width: 3; stroke-linecap: square"/>
   </g>
   <g id="line2d_78">
    <path clip-path="url(#pd2d18bd359)" style="fill: none; stroke: #1f77b4; stroke-width: 3; stroke-linecap: square"/>
   </g>
   <g id="line2d_79">
    <g clip-path="url(#pd2d18bd359)">
     <use xlink:href="#ma272759dfa" x="699.615" y="241.36" style="fill: #ff7f0e; stroke: #ff7f0e"/>
     <use xlink:href="#ma272759dfa" x="687.461146" y="241.36" style="fill: #ff7f0e; stroke: #ff7f0e"/>
     <use xlink:href="#ma272759dfa" x="675.307292" y="241.36" style="fill: #ff7f0e; stroke: #ff7f0e"/>
     <use xlink:href="#ma272759dfa" x="663.153437" y="241.36" style="fill: #ff7f0e; stroke: #ff7f0e"/>
     <use xlink:href="#ma272759dfa" x="650.999583" y="241.36" style="fill: #ff7f0e; stroke: #ff7f0e"/>
     <use xlink:href="#ma272759dfa" x="638.845729" y="241.36" style="fill: #ff7f0e; stroke: #ff7f0e"/>
     <use xlink:href="#ma272759dfa" x="626.691875" y="241.36" style="fill: #ff7f0e; stroke: #ff7f0e"/>
     <use xlink:href="#ma272759dfa" x="614.538021" y="241.36" style="fill: #ff7f0e; stroke: #ff7f0e"/>
     <use xlink:href="#ma272759dfa" x="606.336187" y="241.36" style="fill: #ff7f0e; stroke: #ff7f0e"/>
     <use xlink:href="#ma272759dfa" x="602.384167" y="236.475002" style="fill: #ff7f0e; stroke: #ff7f0e"/>
     <use xlink:href="#ma272759dfa" x="590.230312" y="222.730524" style="fill: #ff7f0e; stroke: #ff7f0e"/>
     <use xlink:href="#ma272759dfa" x="578.076458" y="210.70974" style="fill: #ff7f0e; stroke: #ff7f0e"/>
     <use xlink:href="#ma272759dfa" x="565.922604" y="200.110484" style="fill: #ff7f0e; stroke: #ff7f0e"/>
     <use xlink:href="#ma272759dfa" x="557.394269" y="193.401918" style="fill: #ff7f0e; stroke: #ff7f0e"/>
     <use xlink:href="#ma272759dfa" x="553.76875" y="167.68215" style="fill: #ff7f0e; stroke: #ff7f0e"/>
     <use xlink:href="#ma272759dfa" x="541.614896" y="120.348711" style="fill: #ff7f0e; stroke: #ff7f0e"/>
     <use xlink:href="#ma272759dfa" x="529.461042" y="98.773128" style="fill: #ff7f0e; stroke: #ff7f0e"/>
     <use xlink:href="#ma272759dfa" x="517.307187" y="86.665376" style="fill: #ff7f0e; stroke: #ff7f0e"/>
     <use xlink:href="#ma272759dfa" x="505.153333" y="79.033388" style="fill: #ff7f0e; stroke: #ff7f0e"/>
     <use xlink:href="#ma272759dfa" x="492.999479" y="73.851092" style="fill: #ff7f0e; stroke: #ff7f0e"/>
     <use xlink:href="#ma272759dfa" x="480.845625" y="70.14386" style="fill: #ff7f0e; stroke: #ff7f0e"/>
     <use xlink:href="#ma272759dfa" x="468.691771" y="67.385866" style="fill: #ff7f0e; stroke: #ff7f0e"/>
     <use xlink:href="#ma272759dfa" x="456.537917" y="65.268808" style="fill: #ff7f0e; stroke: #ff7f0e"/>
     <use xlink:href="#ma272759dfa" x="444.384062" y="63.601611" style="fill: #ff7f0e; stroke: #ff7f0e"/>
     <use xlink:href="#ma272759dfa" x="441.318277" y="63.237871" style="fill: #ff7f0e; stroke: #ff7f0e"/>
     <use xlink:href="#ma272759dfa" x="432.230208" y="57.60656" style="fill: #ff7f0e; stroke: #ff7f0e"/>
     <use xlink:href="#ma272759dfa" x="420.076354" y="55.766275" style="fill: #ff7f0e; stroke: #ff7f0e"/>
     <use xlink:href="#ma272759dfa" x="415.574907" y="55.44295" style="fill: #ff7f0e; stroke: #ff7f0e"/>
     <use xlink:href="#ma272759dfa" x="415.574907" y="53.647736" style="fill: #ff7f0e; stroke: #ff7f0e"/>
    </g>
   </g>
   <g id="line2d_80">
    <path d="M 721 241.36 
L 606.2734 241.307972 
L 604.57186 239.163685 
L 600.196473 233.798627 
L 599.467242 233.014268 
L 591.931852 224.596569 
L 589.014927 221.535771 
L 588.528773 220.992556 
L 586.827233 219.287491 
L 576.617996 209.487648 
L 565.679527 200.07547 
L 565.193373 199.683429 
L 561.790294 196.958114 
L 560.088754 195.641353 
L 558.873369 194.702356 
L 557.414906 193.597552 
L 554.984135 175.71682 
L 553.525673 166.725339 
L 551.824133 157.608822 
L 550.365671 150.755115 
L 548.664131 143.70401 
L 546.962592 137.461596 
L 545.017975 131.188413 
L 543.073358 125.666842 
L 540.39951 119.122715 
L 538.211817 114.462301 
L 536.024123 110.331584 
L 533.593352 106.255307 
L 530.676427 101.981963 
L 528.245656 98.833332 
L 525.571808 95.743912 
L 522.89796 92.982973 
L 519.737958 90.075091 
L 516.577956 87.512308 
L 513.661031 85.377393 
L 509.528721 82.724213 
L 505.639487 80.538846 
L 501.507177 78.472383 
L 496.888712 76.461944 
L 493.485633 75.128415 
L 488.381015 73.356991 
L 480.602548 71.058352 
L 473.310235 69.256744 
L 470.636387 68.68348 
L 464.316383 67.414107 
L 460.670227 66.771039 
L 453.134837 65.560579 
L 441.953292 64.049088 
L 441.467137 63.99968 
L 441.22406 63.849096 
L 440.008675 62.418788 
L 438.79329 61.335385 
L 437.334827 60.339961 
L 435.633287 59.459308 
L 433.688671 58.698308 
L 431.2579 57.98487 
L 427.368667 57.19321 
L 423.236356 56.619173 
L 417.88866 56.109566 
L 415.700967 55.949963 
L 415.45789 53.972449 
L 415.45789 53.972449 
" clip-path="url(#pd2d18bd359)" style="fill: none; stroke: #ff7f0e; stroke-opacity: 0.5; stroke-width: 3; stroke-linecap: square"/>
   </g>
   <g id="line2d_81">
    <path clip-path="url(#pd2d18bd359)" style="fill: none; stroke: #ff7f0e; stroke-width: 3; stroke-linecap: square"/>
   </g>
   <g id="line2d_82">
    <g clip-path="url(#pd2d18bd359)">
     <use xlink:href="#m4407a85fb6" x="699.615" y="241.36" style="fill: #2ca02c; stroke: #2ca02c"/>
     <use xlink:href="#m4407a85fb6" x="687.461146" y="241.36" style="fill: #2ca02c; stroke: #2ca02c"/>
     <use xlink:href="#m4407a85fb6" x="675.307292" y="241.36" style="fill: #2ca02c; stroke: #2ca02c"/>
     <use xlink:href="#m4407a85fb6" x="663.153437" y="241.36" style="fill: #2ca02c; stroke: #2ca02c"/>
     <use xlink:href="#m4407a85fb6" x="650.999583" y="241.36" style="fill: #2ca02c; stroke: #2ca02c"/>
     <use xlink:href="#m4407a85fb6" x="638.845729" y="241.36" style="fill: #2ca02c; stroke: #2ca02c"/>
     <use xlink:href="#m4407a85fb6" x="626.691875" y="241.36" style="fill: #2ca02c; stroke: #2ca02c"/>
     <use xlink:href="#m4407a85fb6" x="614.538021" y="241.36" style="fill: #2ca02c; stroke: #2ca02c"/>
     <use xlink:href="#m4407a85fb6" x="606.336187" y="241.36" style="fill: #2ca02c; stroke: #2ca02c"/>
     <use xlink:href="#m4407a85fb6" x="602.384167" y="241.36" style="fill: #2ca02c; stroke: #2ca02c"/>
     <use xlink:href="#m4407a85fb6" x="590.230312" y="241.36" style="fill: #2ca02c; stroke: #2ca02c"/>
     <use xlink:href="#m4407a85fb6" x="578.076458" y="241.36" style="fill: #2ca02c; stroke: #2ca02c"/>
     <use xlink:href="#m4407a85fb6" x="565.922604" y="241.36" style="fill: #2ca02c; stroke: #2ca02c"/>
     <use xlink:href="#m4407a85fb6" x="557.394269" y="241.36" style="fill: #2ca02c; stroke: #2ca02c"/>
     <use xlink:href="#m4407a85fb6" x="553.76875" y="238.268312" style="fill: #2ca02c; stroke: #2ca02c"/>
     <use xlink:href="#m4407a85fb6" x="541.614896" y="232.612668" style="fill: #2ca02c; stroke: #2ca02c"/>
     <use xlink:href="#m4407a85fb6" x="529.461042" y="230.056963" style="fill: #2ca02c; stroke: #2ca02c"/>
     <use xlink:href="#m4407a85fb6" x="517.307187" y="228.637338" style="fill: #2ca02c; stroke: #2ca02c"/>
     <use xlink:href="#m4407a85fb6" x="505.153333" y="227.75285" style="fill: #2ca02c; stroke: #2ca02c"/>
     <use xlink:href="#m4407a85fb6" x="492.999479" y="227.159947" style="fill: #2ca02c; stroke: #2ca02c"/>
     <use xlink:href="#m4407a85fb6" x="480.845625" y="226.741826" style="fill: #2ca02c; stroke: #2ca02c"/>
     <use xlink:href="#m4407a85fb6" x="468.691771" y="226.435429" style="fill: #2ca02c; stroke: #2ca02c"/>
     <use xlink:href="#m4407a85fb6" x="456.537917" y="226.203938" style="fill: #2ca02c; stroke: #2ca02c"/>
     <use xlink:href="#m4407a85fb6" x="444.384062" y="226.024713" style="fill: #2ca02c; stroke: #2ca02c"/>
     <use xlink:href="#m4407a85fb6" x="441.318277" y="225.98599" style="fill: #2ca02c; stroke: #2ca02c"/>
     <use xlink:href="#m4407a85fb6" x="432.230208" y="225.419537" style="fill: #2ca02c; stroke: #2ca02c"/>
     <use xlink:href="#m4407a85fb6" x="420.076354" y="225.233118" style="fill: #2ca02c; stroke: #2ca02c"/>
     <use xlink:href="#m4407a85fb6" x="415.574907" y="225.20032" style="fill: #2ca02c; stroke: #2ca02c"/>
     <use xlink:href="#m4407a85fb6" x="415.574907" y="225.080131" style="fill: #2ca02c; stroke: #2ca02c"/>
    </g>
   </g>
   <g id="line2d_83">
    <path d="M 721 241.36 
L 557.414906 241.36 
L 554.497981 238.831124 
L 552.310287 237.332048 
L 550.122594 236.085753 
L 547.448746 234.823916 
L 544.288744 233.615885 
L 540.885665 232.566081 
L 536.996431 231.599019 
L 532.377967 230.684724 
L 526.544117 229.775928 
L 524.356423 229.511521 
L 517.307187 228.763833 
L 509.285644 228.124511 
L 499.319483 227.538898 
L 488.381015 227.068165 
L 472.09485 226.580463 
L 454.5933 226.227656 
L 440.494829 225.930417 
L 437.09175 225.655901 
L 430.771746 225.421787 
L 418.860969 225.252541 
L 415.700967 225.228391 
L 415.45789 225.095684 
L 415.45789 225.095684 
" clip-path="url(#pd2d18bd359)" style="fill: none; stroke: #2ca02c; stroke-opacity: 0.5; stroke-width: 3; stroke-linecap: square"/>
   </g>
   <g id="line2d_84">
    <path clip-path="url(#pd2d18bd359)" style="fill: none; stroke: #2ca02c; stroke-width: 3; stroke-linecap: square"/>
   </g>
   <g id="line2d_85">
    <g clip-path="url(#pd2d18bd359)">
     <use xlink:href="#m1ddb2d0fb3" x="699.615" y="241.36" style="fill: #d62728; stroke: #d62728"/>
     <use xlink:href="#m1ddb2d0fb3" x="687.461146" y="241.36" style="fill: #d62728; stroke: #d62728"/>
     <use xlink:href="#m1ddb2d0fb3" x="675.307292" y="241.36" style="fill: #d62728; stroke: #d62728"/>
     <use xlink:href="#m1ddb2d0fb3" x="663.153437" y="241.36" style="fill: #d62728; stroke: #d62728"/>
     <use xlink:href="#m1ddb2d0fb3" x="650.999583" y="241.36" style="fill: #d62728; stroke: #d62728"/>
     <use xlink:href="#m1ddb2d0fb3" x="638.845729" y="241.36" style="fill: #d62728; stroke: #d62728"/>
     <use xlink:href="#m1ddb2d0fb3" x="626.691875" y="241.36" style="fill: #d62728; stroke: #d62728"/>
     <use xlink:href="#m1ddb2d0fb3" x="614.538021" y="241.36" style="fill: #d62728; stroke: #d62728"/>
     <use xlink:href="#m1ddb2d0fb3" x="606.336187" y="241.36" style="fill: #d62728; stroke: #d62728"/>
     <use xlink:href="#m1ddb2d0fb3" x="602.384167" y="241.36" style="fill: #d62728; stroke: #d62728"/>
     <use xlink:href="#m1ddb2d0fb3" x="590.230312" y="241.36" style="fill: #d62728; stroke: #d62728"/>
     <use xlink:href="#m1ddb2d0fb3" x="578.076458" y="241.36" style="fill: #d62728; stroke: #d62728"/>
     <use xlink:href="#m1ddb2d0fb3" x="565.922604" y="241.36" style="fill: #d62728; stroke: #d62728"/>
     <use xlink:href="#m1ddb2d0fb3" x="557.394269" y="241.36" style="fill: #d62728; stroke: #d62728"/>
     <use xlink:href="#m1ddb2d0fb3" x="553.76875" y="241.36" style="fill: #d62728; stroke: #d62728"/>
     <use xlink:href="#m1ddb2d0fb3" x="541.614896" y="241.36" style="fill: #d62728; stroke: #d62728"/>
     <use xlink:href="#m1ddb2d0fb3" x="529.461042" y="241.36" style="fill: #d62728; stroke: #d62728"/>
     <use xlink:href="#m1ddb2d0fb3" x="517.307187" y="241.36" style="fill: #d62728; stroke: #d62728"/>
     <use xlink:href="#m1ddb2d0fb3" x="505.153333" y="241.36" style="fill: #d62728; stroke: #d62728"/>
     <use xlink:href="#m1ddb2d0fb3" x="492.999479" y="241.36" style="fill: #d62728; stroke: #d62728"/>
     <use xlink:href="#m1ddb2d0fb3" x="480.845625" y="241.36" style="fill: #d62728; stroke: #d62728"/>
     <use xlink:href="#m1ddb2d0fb3" x="468.691771" y="241.36" style="fill: #d62728; stroke: #d62728"/>
     <use xlink:href="#m1ddb2d0fb3" x="456.537917" y="241.36" style="fill: #d62728; stroke: #d62728"/>
     <use xlink:href="#m1ddb2d0fb3" x="444.384062" y="241.36" style="fill: #d62728; stroke: #d62728"/>
     <use xlink:href="#m1ddb2d0fb3" x="441.318277" y="241.36" style="fill: #d62728; stroke: #d62728"/>
     <use xlink:href="#m1ddb2d0fb3" x="432.230208" y="237.132655" style="fill: #d62728; stroke: #d62728"/>
     <use xlink:href="#m1ddb2d0fb3" x="420.076354" y="235.738634" style="fill: #d62728; stroke: #d62728"/>
     <use xlink:href="#m1ddb2d0fb3" x="415.574907" y="235.491909" style="fill: #d62728; stroke: #d62728"/>
     <use xlink:href="#m1ddb2d0fb3" x="415.574907" y="234.089001" style="fill: #d62728; stroke: #d62728"/>
    </g>
   </g>
   <g id="line2d_86">
    <path d="M 721 241.36 
L 441.22406 241.262888 
L 440.008675 240.194117 
L 438.550212 239.244546 
L 436.848673 238.432739 
L 434.904056 237.744704 
L 432.473285 237.119539 
L 429.313283 236.542465 
L 421.048662 235.661605 
L 415.700967 235.329338 
L 415.45789 233.781841 
L 415.45789 233.781841 
" clip-path="url(#pd2d18bd359)" style="fill: none; stroke: #d62728; stroke-opacity: 0.5; stroke-width: 3; stroke-linecap: square"/>
   </g>
   <g id="line2d_87">
    <path clip-path="url(#pd2d18bd359)" style="fill: none; stroke: #d62728; stroke-width: 3; stroke-linecap: square"/>
   </g>
   <g id="line2d_88">
    <defs>
     <path id="m0e50fdf94e" d="M 0 2 
C 0.530406 2 1.03916 1.789267 1.414214 1.414214 
C 1.789267 1.03916 2 0.530406 2 0 
C 2 -0.530406 1.789267 -1.03916 1.414214 -1.414214 
C 1.03916 -1.789267 0.530406 -2 0 -2 
C -0.530406 -2 -1.03916 -1.789267 -1.414214 -1.414214 
C -1.789267 -1.03916 -2 -0.530406 -2 0 
C -2 0.530406 -1.789267 1.03916 -1.414214 1.414214 
C -1.03916 1.789267 -0.530406 2 0 2 
z
" style="stroke: #9467bd"/>
    </defs>
    <g clip-path="url(#pd2d18bd359)">
     <use xlink:href="#m0e50fdf94e" x="699.615" y="241.36" style="fill: #9467bd; stroke: #9467bd"/>
     <use xlink:href="#m0e50fdf94e" x="687.461146" y="241.36" style="fill: #9467bd; stroke: #9467bd"/>
     <use xlink:href="#m0e50fdf94e" x="675.307292" y="241.36" style="fill: #9467bd; stroke: #9467bd"/>
     <use xlink:href="#m0e50fdf94e" x="663.153437" y="241.36" style="fill: #9467bd; stroke: #9467bd"/>
     <use xlink:href="#m0e50fdf94e" x="650.999583" y="241.36" style="fill: #9467bd; stroke: #9467bd"/>
     <use xlink:href="#m0e50fdf94e" x="638.845729" y="241.36" style="fill: #9467bd; stroke: #9467bd"/>
     <use xlink:href="#m0e50fdf94e" x="626.691875" y="241.36" style="fill: #9467bd; stroke: #9467bd"/>
     <use xlink:href="#m0e50fdf94e" x="614.538021" y="241.36" style="fill: #9467bd; stroke: #9467bd"/>
     <use xlink:href="#m0e50fdf94e" x="606.336187" y="241.36" style="fill: #9467bd; stroke: #9467bd"/>
     <use xlink:href="#m0e50fdf94e" x="602.384167" y="241.36" style="fill: #9467bd; stroke: #9467bd"/>
     <use xlink:href="#m0e50fdf94e" x="590.230312" y="241.36" style="fill: #9467bd; stroke: #9467bd"/>
     <use xlink:href="#m0e50fdf94e" x="578.076458" y="241.36" style="fill: #9467bd; stroke: #9467bd"/>
     <use xlink:href="#m0e50fdf94e" x="565.922604" y="241.36" style="fill: #9467bd; stroke: #9467bd"/>
     <use xlink:href="#m0e50fdf94e" x="557.394269" y="241.36" style="fill: #9467bd; stroke: #9467bd"/>
     <use xlink:href="#m0e50fdf94e" x="553.76875" y="241.36" style="fill: #9467bd; stroke: #9467bd"/>
     <use xlink:href="#m0e50fdf94e" x="541.614896" y="241.36" style="fill: #9467bd; stroke: #9467bd"/>
     <use xlink:href="#m0e50fdf94e" x="529.461042" y="241.36" style="fill: #9467bd; stroke: #9467bd"/>
     <use xlink:href="#m0e50fdf94e" x="517.307187" y="241.36" style="fill: #9467bd; stroke: #9467bd"/>
     <use xlink:href="#m0e50fdf94e" x="505.153333" y="241.36" style="fill: #9467bd; stroke: #9467bd"/>
     <use xlink:href="#m0e50fdf94e" x="492.999479" y="241.36" style="fill: #9467bd; stroke: #9467bd"/>
     <use xlink:href="#m0e50fdf94e" x="480.845625" y="241.36" style="fill: #9467bd; stroke: #9467bd"/>
     <use xlink:href="#m0e50fdf94e" x="468.691771" y="241.36" style="fill: #9467bd; stroke: #9467bd"/>
     <use xlink:href="#m0e50fdf94e" x="456.537917" y="241.36" style="fill: #9467bd; stroke: #9467bd"/>
     <use xlink:href="#m0e50fdf94e" x="444.384062" y="241.36" style="fill: #9467bd; stroke: #9467bd"/>
     <use xlink:href="#m0e50fdf94e" x="441.318277" y="241.36" style="fill: #9467bd; stroke: #9467bd"/>
     <use xlink:href="#m0e50fdf94e" x="432.230208" y="241.36" style="fill: #9467bd; stroke: #9467bd"/>
     <use xlink:href="#m0e50fdf94e" x="420.076354" y="241.36" style="fill: #9467bd; stroke: #9467bd"/>
     <use xlink:href="#m0e50fdf94e" x="415.574907" y="241.36" style="fill: #9467bd; stroke: #9467bd"/>
     <use xlink:href="#m0e50fdf94e" x="415.574907" y="241.343918" style="fill: #9467bd; stroke: #9467bd"/>
    </g>
   </g>
   <g id="line2d_89">
    <path d="M 721 241.36 
L 415.45789 241.342382 
L 415.45789 241.342382 
" clip-path="url(#pd2d18bd359)" style="fill: none; stroke: #9467bd; stroke-opacity: 0.5; stroke-width: 3; stroke-linecap: square"/>
   </g>
   <g id="line2d_90">
    <path clip-path="url(#pd2d18bd359)" style="fill: none; stroke: #9467bd; stroke-width: 3; stroke-linecap: square"/>
   </g>
   <g id="patch_9">
    <path d="M 407.9225 241.36 
L 407.9225 29.76 
" style="fill: none; stroke: #000000; stroke-width: 0.8; stroke-linejoin: miter; stroke-linecap: square"/>
   </g>
   <g id="patch_10">
    <path d="M 699.615 241.36 
L 699.615 29.76 
" style="fill: none; stroke: #000000; stroke-width: 0.8; stroke-linejoin: miter; stroke-linecap: square"/>
   </g>
   <g id="patch_11">
    <path d="M 407.9225 241.36 
L 699.615 241.36 
" style="fill: none; stroke: #000000; stroke-width: 0.8; stroke-linejoin: miter; stroke-linecap: square"/>
   </g>
   <g id="patch_12">
    <path d="M 407.9225 29.76 
L 699.615 29.76 
" style="fill: none; stroke: #000000; stroke-width: 0.8; stroke-linejoin: miter; stroke-linecap: square"/>
   </g>
   <g id="text_38">
    <!-- (b) -->
    <g transform="translate(542.770469 23.76) scale(0.18 -0.18)">
     <defs>
      <path id="Helvetica-62" d="M 369 4606 
L 916 4606 
L 916 2941 
Q 1100 3181 1356 3307 
Q 1613 3434 1913 3434 
Q 2538 3434 2927 3004 
Q 3316 2575 3316 1738 
Q 3316 944 2931 419 
Q 2547 -106 1866 -106 
Q 1484 -106 1222 78 
Q 1066 188 888 428 
L 888 0 
L 369 0 
L 369 4606 
z
M 1831 391 
Q 2288 391 2514 753 
Q 2741 1116 2741 1709 
Q 2741 2238 2514 2584 
Q 2288 2931 1847 2931 
Q 1463 2931 1173 2647 
Q 884 2363 884 1709 
Q 884 1238 1003 944 
Q 1225 391 1831 391 
z
" transform="scale(0.015625)"/>
     </defs>
     <use xlink:href="#Helvetica-28"/>
     <use xlink:href="#Helvetica-62" x="33.300781"/>
     <use xlink:href="#Helvetica-29" x="88.916016"/>
    </g>
   </g>
   <g id="legend_2">
    <g id="patch_13">
     <path d="M 593.24 188.850625 
L 692.615 188.850625 
Q 694.615 188.850625 694.615 186.850625 
L 694.615 84.269375 
Q 694.615 82.269375 692.615 82.269375 
L 593.24 82.269375 
Q 591.24 82.269375 591.24 84.269375 
L 591.24 186.850625 
Q 591.24 188.850625 593.24 188.850625 
z
" style="fill: #ffffff; opacity: 0.8; stroke: #cccccc; stroke-linejoin: miter"/>
    </g>
    <g id="line2d_91">
     <path d="M 595.24 90.367812 
L 605.24 90.367812 
L 615.24 90.367812 
" style="fill: none; stroke: #000000; stroke-opacity: 0.5; stroke-width: 1.5; stroke-linecap: square"/>
    </g>
    <g id="text_39">
     <!-- Equilipy -->
     <g transform="translate(623.24 93.867812) scale(0.1 -0.1)">
      <defs>
       <path id="DejaVuSans-71" d="M 947 1747 
Q 947 1113 1208 752 
Q 1469 391 1925 391 
Q 2381 391 2643 752 
Q 2906 1113 2906 1747 
Q 2906 2381 2643 2742 
Q 2381 3103 1925 3103 
Q 1469 3103 1208 2742 
Q 947 2381 947 1747 
z
M 2906 525 
Q 2725 213 2448 61 
Q 2172 -91 1784 -91 
Q 1150 -91 751 415 
Q 353 922 353 1747 
Q 353 2572 751 3078 
Q 1150 3584 1784 3584 
Q 2172 3584 2448 3432 
Q 2725 3281 2906 2969 
L 2906 3500 
L 3481 3500 
L 3481 -1331 
L 2906 -1331 
L 2906 525 
z
" transform="scale(0.015625)"/>
       <path id="DejaVuSans-75" d="M 544 1381 
L 544 3500 
L 1119 3500 
L 1119 1403 
Q 1119 906 1312 657 
Q 1506 409 1894 409 
Q 2359 409 2629 706 
Q 2900 1003 2900 1516 
L 2900 3500 
L 3475 3500 
L 3475 0 
L 2900 0 
L 2900 538 
Q 2691 219 2414 64 
Q 2138 -91 1772 -91 
Q 1169 -91 856 284 
Q 544 659 544 1381 
z
M 1991 3584 
L 1991 3584 
z
" transform="scale(0.015625)"/>
       <path id="DejaVuSans-69" d="M 603 3500 
L 1178 3500 
L 1178 0 
L 603 0 
L 603 3500 
z
M 603 4863 
L 1178 4863 
L 1178 4134 
L 603 4134 
L 603 4863 
z
" transform="scale(0.015625)"/>
       <path id="DejaVuSans-6c" d="M 603 4863 
L 1178 4863 
L 1178 0 
L 603 0 
L 603 4863 
z
" transform="scale(0.015625)"/>
       <path id="DejaVuSans-70" d="M 1159 525 
L 1159 -1331 
L 581 -1331 
L 581 3500 
L 1159 3500 
L 1159 2969 
Q 1341 3281 1617 3432 
Q 1894 3584 2278 3584 
Q 2916 3584 3314 3078 
Q 3713 2572 3713 1747 
Q 3713 922 3314 415 
Q 2916 -91 2278 -91 
Q 1894 -91 1617 61 
Q 1341 213 1159 525 
z
M 3116 1747 
Q 3116 2381 2855 2742 
Q 2594 3103 2138 3103 
Q 1681 3103 1420 2742 
Q 1159 2381 1159 1747 
Q 1159 1113 1420 752 
Q 1681 391 2138 391 
Q 2594 391 2855 752 
Q 3116 1113 3116 1747 
z
" transform="scale(0.015625)"/>
       <path id="DejaVuSans-79" d="M 2059 -325 
Q 1816 -950 1584 -1140 
Q 1353 -1331 966 -1331 
L 506 -1331 
L 506 -850 
L 844 -850 
Q 1081 -850 1212 -737 
Q 1344 -625 1503 -206 
L 1606 56 
L 191 3500 
L 800 3500 
L 1894 763 
L 2988 3500 
L 3597 3500 
L 2059 -325 
z
" transform="scale(0.015625)"/>
      </defs>
      <use xlink:href="#DejaVuSans-45"/>
      <use xlink:href="#DejaVuSans-71" x="63.183594"/>
      <use xlink:href="#DejaVuSans-75" x="126.660156"/>
      <use xlink:href="#DejaVuSans-69" x="190.039062"/>
      <use xlink:href="#DejaVuSans-6c" x="217.822266"/>
      <use xlink:href="#DejaVuSans-69" x="245.605469"/>
      <use xlink:href="#DejaVuSans-70" x="273.388672"/>
      <use xlink:href="#DejaVuSans-79" x="336.865234"/>
     </g>
    </g>
    <g id="line2d_92">
     <g>
      <use xlink:href="#m98e00fec6c" x="605.24" y="105.045937" style="stroke: #000000"/>
     </g>
    </g>
    <g id="text_40">
     <!-- FactSage -->
     <g transform="translate(623.24 108.545937) scale(0.1 -0.1)">
      <defs>
       <path id="DejaVuSans-61" d="M 2194 1759 
Q 1497 1759 1228 1600 
Q 959 1441 959 1056 
Q 959 750 1161 570 
Q 1363 391 1709 391 
Q 2188 391 2477 730 
Q 2766 1069 2766 1631 
L 2766 1759 
L 2194 1759 
z
M 3341 1997 
L 3341 0 
L 2766 0 
L 2766 531 
Q 2569 213 2275 61 
Q 1981 -91 1556 -91 
Q 1019 -91 701 211 
Q 384 513 384 1019 
Q 384 1609 779 1909 
Q 1175 2209 1959 2209 
L 2766 2209 
L 2766 2266 
Q 2766 2663 2505 2880 
Q 2244 3097 1772 3097 
Q 1472 3097 1187 3025 
Q 903 2953 641 2809 
L 641 3341 
Q 956 3463 1253 3523 
Q 1550 3584 1831 3584 
Q 2591 3584 2966 3190 
Q 3341 2797 3341 1997 
z
" transform="scale(0.015625)"/>
       <path id="DejaVuSans-63" d="M 3122 3366 
L 3122 2828 
Q 2878 2963 2633 3030 
Q 2388 3097 2138 3097 
Q 1578 3097 1268 2742 
Q 959 2388 959 1747 
Q 959 1106 1268 751 
Q 1578 397 2138 397 
Q 2388 397 2633 464 
Q 2878 531 3122 666 
L 3122 134 
Q 2881 22 2623 -34 
Q 2366 -91 2075 -91 
Q 1284 -91 818 406 
Q 353 903 353 1747 
Q 353 2603 823 3093 
Q 1294 3584 2113 3584 
Q 2378 3584 2631 3529 
Q 2884 3475 3122 3366 
z
" transform="scale(0.015625)"/>
       <path id="DejaVuSans-74" d="M 1172 4494 
L 1172 3500 
L 2356 3500 
L 2356 3053 
L 1172 3053 
L 1172 1153 
Q 1172 725 1289 603 
Q 1406 481 1766 481 
L 2356 481 
L 2356 0 
L 1766 0 
Q 1100 0 847 248 
Q 594 497 594 1153 
L 594 3053 
L 172 3053 
L 172 3500 
L 594 3500 
L 594 4494 
L 1172 4494 
z
" transform="scale(0.015625)"/>
       <path id="DejaVuSans-53" d="M 3425 4513 
L 3425 3897 
Q 3066 4069 2747 4153 
Q 2428 4238 2131 4238 
Q 1616 4238 1336 4038 
Q 1056 3838 1056 3469 
Q 1056 3159 1242 3001 
Q 1428 2844 1947 2747 
L 2328 2669 
Q 3034 2534 3370 2195 
Q 3706 1856 3706 1288 
Q 3706 609 3251 259 
Q 2797 -91 1919 -91 
Q 1588 -91 1214 -16 
Q 841 59 441 206 
L 441 856 
Q 825 641 1194 531 
Q 1563 422 1919 422 
Q 2459 422 2753 634 
Q 3047 847 3047 1241 
Q 3047 1584 2836 1778 
Q 2625 1972 2144 2069 
L 1759 2144 
Q 1053 2284 737 2584 
Q 422 2884 422 3419 
Q 422 4038 858 4394 
Q 1294 4750 2059 4750 
Q 2388 4750 2728 4690 
Q 3069 4631 3425 4513 
z
" transform="scale(0.015625)"/>
       <path id="DejaVuSans-67" d="M 2906 1791 
Q 2906 2416 2648 2759 
Q 2391 3103 1925 3103 
Q 1463 3103 1205 2759 
Q 947 2416 947 1791 
Q 947 1169 1205 825 
Q 1463 481 1925 481 
Q 2391 481 2648 825 
Q 2906 1169 2906 1791 
z
M 3481 434 
Q 3481 -459 3084 -895 
Q 2688 -1331 1869 -1331 
Q 1566 -1331 1297 -1286 
Q 1028 -1241 775 -1147 
L 775 -588 
Q 1028 -725 1275 -790 
Q 1522 -856 1778 -856 
Q 2344 -856 2625 -561 
Q 2906 -266 2906 331 
L 2906 616 
Q 2728 306 2450 153 
Q 2172 0 1784 0 
Q 1141 0 747 490 
Q 353 981 353 1791 
Q 353 2603 747 3093 
Q 1141 3584 1784 3584 
Q 2172 3584 2450 3431 
Q 2728 3278 2906 2969 
L 2906 3500 
L 3481 3500 
L 3481 434 
z
" transform="scale(0.015625)"/>
       <path id="DejaVuSans-65" d="M 3597 1894 
L 3597 1613 
L 953 1613 
Q 991 1019 1311 708 
Q 1631 397 2203 397 
Q 2534 397 2845 478 
Q 3156 559 3463 722 
L 3463 178 
Q 3153 47 2828 -22 
Q 2503 -91 2169 -91 
Q 1331 -91 842 396 
Q 353 884 353 1716 
Q 353 2575 817 3079 
Q 1281 3584 2069 3584 
Q 2775 3584 3186 3129 
Q 3597 2675 3597 1894 
z
M 3022 2063 
Q 3016 2534 2758 2815 
Q 2500 3097 2075 3097 
Q 1594 3097 1305 2825 
Q 1016 2553 972 2059 
L 3022 2063 
z
" transform="scale(0.015625)"/>
      </defs>
      <use xlink:href="#DejaVuSans-46"/>
      <use xlink:href="#DejaVuSans-61" x="48.394531"/>
      <use xlink:href="#DejaVuSans-63" x="109.673828"/>
      <use xlink:href="#DejaVuSans-74" x="164.654297"/>
      <use xlink:href="#DejaVuSans-53" x="203.863281"/>
      <use xlink:href="#DejaVuSans-61" x="267.339844"/>
      <use xlink:href="#DejaVuSans-67" x="328.619141"/>
      <use xlink:href="#DejaVuSans-65" x="392.095703"/>
     </g>
    </g>
    <g id="line2d_93">
     <path d="M 595.24 119.724063 
L 605.24 119.724063 
L 615.24 119.724063 
" style="fill: none; stroke: #1f77b4; stroke-width: 3; stroke-linecap: square"/>
    </g>
    <g id="text_41">
     <!-- LIQUID -->
     <g transform="translate(623.24 123.224063) scale(0.1 -0.1)">
      <use xlink:href="#DejaVuSans-4c"/>
      <use xlink:href="#DejaVuSans-49" x="55.712891"/>
      <use xlink:href="#DejaVuSans-51" x="85.205078"/>
      <use xlink:href="#DejaVuSans-55" x="163.916016"/>
      <use xlink:href="#DejaVuSans-49" x="237.109375"/>
      <use xlink:href="#DejaVuSans-44" x="266.601562"/>
     </g>
    </g>
    <g id="line2d_94">
     <path d="M 595.24 134.402187 
L 605.24 134.402187 
L 615.24 134.402187 
" style="fill: none; stroke: #ff7f0e; stroke-width: 3; stroke-linecap: square"/>
    </g>
    <g id="text_42">
     <!-- FCC_A1 -->
     <g transform="translate(623.24 137.902187) scale(0.1 -0.1)">
      <use xlink:href="#DejaVuSans-46"/>
      <use xlink:href="#DejaVuSans-43" x="57.519531"/>
      <use xlink:href="#DejaVuSans-43" x="127.34375"/>
      <use xlink:href="#DejaVuSans-5f" x="197.167969"/>
      <use xlink:href="#DejaVuSans-41" x="247.167969"/>
      <use xlink:href="#DejaVuSans-31" x="315.576172"/>
     </g>
    </g>
    <g id="line2d_95">
     <path d="M 595.24 149.358437 
L 605.24 149.358437 
L 615.24 149.358437 
" style="fill: none; stroke: #2ca02c; stroke-width: 3; stroke-linecap: square"/>
    </g>
    <g id="text_43">
     <!-- DIAMOND_A4 -->
     <g transform="translate(623.24 152.858437) scale(0.1 -0.1)">
      <use xlink:href="#DejaVuSans-44"/>
      <use xlink:href="#DejaVuSans-49" x="77.001953"/>
      <use xlink:href="#DejaVuSans-41" x="106.494141"/>
      <use xlink:href="#DejaVuSans-4d" x="174.902344"/>
      <use xlink:href="#DejaVuSans-4f" x="261.181641"/>
      <use xlink:href="#DejaVuSans-4e" x="339.892578"/>
      <use xlink:href="#DejaVuSans-44" x="414.697266"/>
      <use xlink:href="#DejaVuSans-5f" x="491.699219"/>
      <use xlink:href="#DejaVuSans-41" x="541.699219"/>
      <use xlink:href="#DejaVuSans-34" x="610.107422"/>
     </g>
    </g>
    <g id="line2d_96">
     <path d="M 595.24 164.314687 
L 605.24 164.314687 
L 615.24 164.314687 
" style="fill: none; stroke: #d62728; stroke-width: 3; stroke-linecap: square"/>
    </g>
    <g id="text_44">
     <!-- ALCU_THETA -->
     <g transform="translate(623.24 167.814687) scale(0.1 -0.1)">
      <use xlink:href="#DejaVuSans-41"/>
      <use xlink:href="#DejaVuSans-4c" x="68.408203"/>
      <use xlink:href="#DejaVuSans-43" x="124.121094"/>
      <use xlink:href="#DejaVuSans-55" x="193.945312"/>
      <use xlink:href="#DejaVuSans-5f" x="267.138672"/>
      <use xlink:href="#DejaVuSans-54" x="317.138672"/>
      <use xlink:href="#DejaVuSans-48" x="378.222656"/>
      <use xlink:href="#DejaVuSans-45" x="453.417969"/>
      <use xlink:href="#DejaVuSans-54" x="516.601562"/>
      <use xlink:href="#DejaVuSans-41" x="569.935547"/>
     </g>
    </g>
    <g id="line2d_97">
     <path d="M 595.24 179.270938 
L 605.24 179.270938 
L 615.24 179.270938 
" style="fill: none; stroke: #9467bd; stroke-width: 3; stroke-linecap: square"/>
    </g>
    <g id="text_45">
     <!-- AL5CU2(s) -->
     <g transform="translate(623.24 182.770938) scale(0.1 -0.1)">
      <use xlink:href="#DejaVuSans-41"/>
      <use xlink:href="#DejaVuSans-4c" x="68.408203"/>
      <use xlink:href="#DejaVuSans-35" x="124.121094"/>
      <use xlink:href="#DejaVuSans-43" x="187.744141"/>
      <use xlink:href="#DejaVuSans-55" x="257.568359"/>
      <use xlink:href="#DejaVuSans-32" x="330.761719"/>
      <use xlink:href="#DejaVuSans-28" x="394.384766"/>
      <use xlink:href="#DejaVuSans-73" x="433.398438"/>
      <use xlink:href="#DejaVuSans-29" x="485.498047"/>
     </g>
    </g>
   </g>
  </g>
 </g>
 <defs>
  <clipPath id="p634822f84d">
   <rect x="55.73" y="29.76" width="291.6925" height="211.6"/>
  </clipPath>
  <clipPath id="pd2d18bd359">
   <rect x="407.9225" y="29.76" width="291.6925" height="211.6"/>
  </clipPath>
 </defs>
</svg>
