<?xml version="1.0" encoding="utf-8" standalone="no"?>
<!DOCTYPE svg PUBLIC "-//W3C//DTD SVG 1.1//EN"
        "http://www.w3.org/Graphics/SVG/1.1/DTD/svg11.dtd">
<svg xmlns:xlink="http://www.w3.org/1999/xlink" width="460.8pt" height="345.6pt" viewBox="0 0 460.8 345.6"
     xmlns="http://www.w3.org/2000/svg" version="1.1">
    <metadata>
        <rdf:RDF xmlns:dc="http://purl.org/dc/elements/1.1/" xmlns:cc="http://creativecommons.org/ns#"
                 xmlns:rdf="http://www.w3.org/1999/02/22-rdf-syntax-ns#">
            <cc:Work>
                <dc:type rdf:resource="http://purl.org/dc/dcmitype/StillImage"/>
                <dc:date>2023-07-20T00:39:04.713986</dc:date>
                <dc:format>image/svg+xml</dc:format>
                <dc:creator>
                    <cc:Agent>
                        <dc:title>Matplotlib v3.7.1, https://matplotlib.org/</dc:title>
                    </cc:Agent>
                </dc:creator>
            </cc:Work>
        </rdf:RDF>
    </metadata>
    <defs>
        <style type="text/css">*{stroke-linejoin: round; stroke-linecap: butt}</style>
    </defs>
    <g id="figure_1">
        <g id="patch_1">
            <path d="M 0 345.6
L 460.8 345.6 
L 460.8 0 
L 0 0 
z
" style="fill: #ffffff"/>
        </g>
        <g id="axes_1">
            <g id="patch_2">
                <path d="M 69.12 307.584
L 414.72 307.584 
L 414.72 41.472 
L 69.12 41.472 
z
" style="fill: #ffffff"/>
            </g>
            <g id="PathCollection_1">
                <defs>
                    <path id="mcd54d82e0d" d="M -5 0
L 5 0 
M 0 5 
L 0 -5 
" style="stroke: #ff0000; stroke-width: 1.5"/>
                </defs>
                <g clip-path="url(#p558066dc43)">
                    <use xlink:href="#mcd54d82e0d" x="84.829091" y="174.528"
                         style="fill: #ff0000; stroke: #ff0000; stroke-width: 1.5"/>
                    <use xlink:href="#mcd54d82e0d" x="163.374545" y="174.528"
                         style="fill: #ff0000; stroke: #ff0000; stroke-width: 1.5"/>
                    <use xlink:href="#mcd54d82e0d" x="241.92" y="53.568"
                         style="fill: #ff0000; stroke: #ff0000; stroke-width: 1.5"/>
                    <use xlink:href="#mcd54d82e0d" x="320.465455" y="295.488"
                         style="fill: #ff0000; stroke: #ff0000; stroke-width: 1.5"/>
                    <use xlink:href="#mcd54d82e0d" x="399.010909" y="174.528"
                         style="fill: #ff0000; stroke: #ff0000; stroke-width: 1.5"/>
                </g>
            </g>
            <g id="PathCollection_2">
                <defs>
                    <path id="m8e58536db2" d="M -5 5
L 5 -5 
M -5 -5 
L 5 5 
" style="stroke: #0000ff; stroke-width: 1.5"/>
                </defs>
                <g clip-path="url(#p558066dc43)">
                    <use xlink:href="#m8e58536db2" x="84.829091" y="174.424562"
                         style="fill: #0000ff; stroke: #0000ff; stroke-width: 1.5"/>
                    <use xlink:href="#m8e58536db2" x="163.374545" y="174.574931"
                         style="fill: #0000ff; stroke: #0000ff; stroke-width: 1.5"/>
                    <use xlink:href="#m8e58536db2" x="241.92" y="54.775445"
                         style="fill: #0000ff; stroke: #0000ff; stroke-width: 1.5"/>
                    <use xlink:href="#m8e58536db2" x="320.465455" y="294.295742"
                         style="fill: #0000ff; stroke: #0000ff; stroke-width: 1.5"/>
                    <use xlink:href="#m8e58536db2" x="399.010909" y="174.5693"
                         style="fill: #0000ff; stroke: #0000ff; stroke-width: 1.5"/>
                </g>
            </g>
            <g id="matplotlib.axis_1">
                <g id="xtick_1">
                    <g id="line2d_1">
                        <defs>
                            <path id="mb2674a411c" d="M 0 0
L 0 3.5 
" style="stroke: #000000; stroke-width: 0.8"/>
                        </defs>
                        <g>
                            <use xlink:href="#mb2674a411c" x="84.829091" y="307.584"
                                 style="stroke: #000000; stroke-width: 0.8"/>
                        </g>
                    </g>
                    <g id="text_1">
                        <!-- N -->
                        <g transform="translate(81.088466 322.182437) scale(0.1 -0.1)">
                            <defs>
                                <path id="DejaVuSans-4e" d="M 628 4666
L 1478 4666 
L 3547 763 
L 3547 4666 
L 4159 4666 
L 4159 0 
L 3309 0 
L 1241 3903 
L 1241 0 
L 628 0 
L 628 4666 
z
" transform="scale(0.015625)"/>
                            </defs>
                            <use xlink:href="#DejaVuSans-4e"/>
                        </g>
                    </g>
                </g>
                <g id="xtick_2">
                    <g id="line2d_2">
                        <g>
                            <use xlink:href="#mb2674a411c" x="163.374545" y="307.584"
                                 style="stroke: #000000; stroke-width: 0.8"/>
                        </g>
                    </g>
                    <g id="text_2">
                        <!-- C -->
                        <g transform="translate(159.883139 322.182437) scale(0.1 -0.1)">
                            <defs>
                                <path id="DejaVuSans-43" d="M 4122 4306
L 4122 3641 
Q 3803 3938 3442 4084 
Q 3081 4231 2675 4231 
Q 1875 4231 1450 3742 
Q 1025 3253 1025 2328 
Q 1025 1406 1450 917 
Q 1875 428 2675 428 
Q 3081 428 3442 575 
Q 3803 722 4122 1019 
L 4122 359 
Q 3791 134 3420 21 
Q 3050 -91 2638 -91 
Q 1578 -91 968 557 
Q 359 1206 359 2328 
Q 359 3453 968 4101 
Q 1578 4750 2638 4750 
Q 3056 4750 3426 4639 
Q 3797 4528 4122 4306 
z
" transform="scale(0.015625)"/>
                            </defs>
                            <use xlink:href="#DejaVuSans-43"/>
                        </g>
                    </g>
                </g>
                <g id="xtick_3">
                    <g id="line2d_3">
                        <g>
                            <use xlink:href="#mb2674a411c" x="241.92" y="307.584"
                                 style="stroke: #000000; stroke-width: 0.8"/>
                        </g>
                    </g>
                    <g id="text_3">
                        <!-- H1 -->
                        <g transform="translate(234.978594 322.182437) scale(0.1 -0.1)">
                            <defs>
                                <path id="DejaVuSans-48" d="M 628 4666
L 1259 4666 
L 1259 2753 
L 3553 2753 
L 3553 4666 
L 4184 4666 
L 4184 0 
L 3553 0 
L 3553 2222 
L 1259 2222 
L 1259 0 
L 628 0 
L 628 4666 
z
" transform="scale(0.015625)"/>
                                <path id="DejaVuSans-31" d="M 794 531
L 1825 531 
L 1825 4091 
L 703 3866 
L 703 4441 
L 1819 4666 
L 2450 4666 
L 2450 531 
L 3481 531 
L 3481 0 
L 794 0 
L 794 531 
z
" transform="scale(0.015625)"/>
                            </defs>
                            <use xlink:href="#DejaVuSans-48"/>
                            <use xlink:href="#DejaVuSans-31" x="75.195312"/>
                        </g>
                    </g>
                </g>
                <g id="xtick_4">
                    <g id="line2d_4">
                        <g>
                            <use xlink:href="#mb2674a411c" x="320.465455" y="307.584"
                                 style="stroke: #000000; stroke-width: 0.8"/>
                        </g>
                    </g>
                    <g id="text_4">
                        <!-- H2 -->
                        <g transform="translate(313.524048 322.182437) scale(0.1 -0.1)">
                            <defs>
                                <path id="DejaVuSans-32" d="M 1228 531
L 3431 531 
L 3431 0 
L 469 0 
L 469 531 
Q 828 903 1448 1529 
Q 2069 2156 2228 2338 
Q 2531 2678 2651 2914 
Q 2772 3150 2772 3378 
Q 2772 3750 2511 3984 
Q 2250 4219 1831 4219 
Q 1534 4219 1204 4116 
Q 875 4013 500 3803 
L 500 4441 
Q 881 4594 1212 4672 
Q 1544 4750 1819 4750 
Q 2544 4750 2975 4387 
Q 3406 4025 3406 3419 
Q 3406 3131 3298 2873 
Q 3191 2616 2906 2266 
Q 2828 2175 2409 1742 
Q 1991 1309 1228 531 
z
" transform="scale(0.015625)"/>
                            </defs>
                            <use xlink:href="#DejaVuSans-48"/>
                            <use xlink:href="#DejaVuSans-32" x="75.195312"/>
                        </g>
                    </g>
                </g>
                <g id="xtick_5">
                    <g id="line2d_5">
                        <g>
                            <use xlink:href="#mb2674a411c" x="399.010909" y="307.584"
                                 style="stroke: #000000; stroke-width: 0.8"/>
                        </g>
                    </g>
                    <g id="text_5">
                        <!-- H3 -->
                        <g transform="translate(392.069503 322.182437) scale(0.1 -0.1)">
                            <defs>
                                <path id="DejaVuSans-33" d="M 2597 2516
Q 3050 2419 3304 2112 
Q 3559 1806 3559 1356 
Q 3559 666 3084 287 
Q 2609 -91 1734 -91 
Q 1441 -91 1130 -33 
Q 819 25 488 141 
L 488 750 
Q 750 597 1062 519 
Q 1375 441 1716 441 
Q 2309 441 2620 675 
Q 2931 909 2931 1356 
Q 2931 1769 2642 2001 
Q 2353 2234 1838 2234 
L 1294 2234 
L 1294 2753 
L 1863 2753 
Q 2328 2753 2575 2939 
Q 2822 3125 2822 3475 
Q 2822 3834 2567 4026 
Q 2313 4219 1838 4219 
Q 1578 4219 1281 4162 
Q 984 4106 628 3988 
L 628 4550 
Q 988 4650 1302 4700 
Q 1616 4750 1894 4750 
Q 2613 4750 3031 4423 
Q 3450 4097 3450 3541 
Q 3450 3153 3228 2886 
Q 3006 2619 2597 2516 
z
" transform="scale(0.015625)"/>
                            </defs>
                            <use xlink:href="#DejaVuSans-48"/>
                            <use xlink:href="#DejaVuSans-33" x="75.195312"/>
                        </g>
                    </g>
                </g>
            </g>
            <g id="matplotlib.axis_2">
                <g id="ytick_1">
                    <g id="line2d_6">
                        <defs>
                            <path id="m6380b61d03" d="M 0 0
L -3.5 0 
" style="stroke: #000000; stroke-width: 0.8"/>
                        </defs>
                        <g>
                            <use xlink:href="#m6380b61d03" x="69.12" y="303.517202"
                                 style="stroke: #000000; stroke-width: 0.8"/>
                        </g>
                    </g>
                    <g id="text_6">
                        <!-- −20 -->
                        <g transform="translate(41.015313 307.316421) scale(0.1 -0.1)">
                            <defs>
                                <path id="DejaVuSans-2212" d="M 678 2272
L 4684 2272 
L 4684 1741 
L 678 1741 
L 678 2272 
z
" transform="scale(0.015625)"/>
                                <path id="DejaVuSans-30" d="M 2034 4250
Q 1547 4250 1301 3770 
Q 1056 3291 1056 2328 
Q 1056 1369 1301 889 
Q 1547 409 2034 409 
Q 2525 409 2770 889 
Q 3016 1369 3016 2328 
Q 3016 3291 2770 3770 
Q 2525 4250 2034 4250 
z
M 2034 4750 
Q 2819 4750 3233 4129 
Q 3647 3509 3647 2328 
Q 3647 1150 3233 529 
Q 2819 -91 2034 -91 
Q 1250 -91 836 529 
Q 422 1150 422 2328 
Q 422 3509 836 4129 
Q 1250 4750 2034 4750 
z
" transform="scale(0.015625)"/>
                            </defs>
                            <use xlink:href="#DejaVuSans-2212"/>
                            <use xlink:href="#DejaVuSans-32" x="83.789062"/>
                            <use xlink:href="#DejaVuSans-30" x="147.412109"/>
                        </g>
                    </g>
                </g>
                <g id="ytick_2">
                    <g id="line2d_7">
                        <g>
                            <use xlink:href="#m6380b61d03" x="69.12" y="271.269901"
                                 style="stroke: #000000; stroke-width: 0.8"/>
                        </g>
                    </g>
                    <g id="text_7">
                        <!-- −15 -->
                        <g transform="translate(41.015313 275.06912) scale(0.1 -0.1)">
                            <defs>
                                <path id="DejaVuSans-35" d="M 691 4666
L 3169 4666 
L 3169 4134 
L 1269 4134 
L 1269 2991 
Q 1406 3038 1543 3061 
Q 1681 3084 1819 3084 
Q 2600 3084 3056 2656 
Q 3513 2228 3513 1497 
Q 3513 744 3044 326 
Q 2575 -91 1722 -91 
Q 1428 -91 1123 -41 
Q 819 9 494 109 
L 494 744 
Q 775 591 1075 516 
Q 1375 441 1709 441 
Q 2250 441 2565 725 
Q 2881 1009 2881 1497 
Q 2881 1984 2565 2268 
Q 2250 2553 1709 2553 
Q 1456 2553 1204 2497 
Q 953 2441 691 2322 
L 691 4666 
z
" transform="scale(0.015625)"/>
                            </defs>
                            <use xlink:href="#DejaVuSans-2212"/>
                            <use xlink:href="#DejaVuSans-31" x="83.789062"/>
                            <use xlink:href="#DejaVuSans-35" x="147.412109"/>
                        </g>
                    </g>
                </g>
                <g id="ytick_3">
                    <g id="line2d_8">
                        <g>
                            <use xlink:href="#m6380b61d03" x="69.12" y="239.022601"
                                 style="stroke: #000000; stroke-width: 0.8"/>
                        </g>
                    </g>
                    <g id="text_8">
                        <!-- −10 -->
                        <g transform="translate(41.015313 242.82182) scale(0.1 -0.1)">
                            <use xlink:href="#DejaVuSans-2212"/>
                            <use xlink:href="#DejaVuSans-31" x="83.789062"/>
                            <use xlink:href="#DejaVuSans-30" x="147.412109"/>
                        </g>
                    </g>
                </g>
                <g id="ytick_4">
                    <g id="line2d_9">
                        <g>
                            <use xlink:href="#m6380b61d03" x="69.12" y="206.7753"
                                 style="stroke: #000000; stroke-width: 0.8"/>
                        </g>
                    </g>
                    <g id="text_9">
                        <!-- −5 -->
                        <g transform="translate(47.377813 210.574519) scale(0.1 -0.1)">
                            <use xlink:href="#DejaVuSans-2212"/>
                            <use xlink:href="#DejaVuSans-35" x="83.789062"/>
                        </g>
                    </g>
                </g>
                <g id="ytick_5">
                    <g id="line2d_10">
                        <g>
                            <use xlink:href="#m6380b61d03" x="69.12" y="174.528"
                                 style="stroke: #000000; stroke-width: 0.8"/>
                        </g>
                    </g>
                    <g id="text_10">
                        <!-- 0 -->
                        <g transform="translate(55.7575 178.327219) scale(0.1 -0.1)">
                            <use xlink:href="#DejaVuSans-30"/>
                        </g>
                    </g>
                </g>
                <g id="ytick_6">
                    <g id="line2d_11">
                        <g>
                            <use xlink:href="#m6380b61d03" x="69.12" y="142.2807"
                                 style="stroke: #000000; stroke-width: 0.8"/>
                        </g>
                    </g>
                    <g id="text_11">
                        <!-- 5 -->
                        <g transform="translate(55.7575 146.079918) scale(0.1 -0.1)">
                            <use xlink:href="#DejaVuSans-35"/>
                        </g>
                    </g>
                </g>
                <g id="ytick_7">
                    <g id="line2d_12">
                        <g>
                            <use xlink:href="#m6380b61d03" x="69.12" y="110.033399"
                                 style="stroke: #000000; stroke-width: 0.8"/>
                        </g>
                    </g>
                    <g id="text_12">
                        <!-- 10 -->
                        <g transform="translate(49.395 113.832618) scale(0.1 -0.1)">
                            <use xlink:href="#DejaVuSans-31"/>
                            <use xlink:href="#DejaVuSans-30" x="63.623047"/>
                        </g>
                    </g>
                </g>
                <g id="ytick_8">
                    <g id="line2d_13">
                        <g>
                            <use xlink:href="#m6380b61d03" x="69.12" y="77.786099"
                                 style="stroke: #000000; stroke-width: 0.8"/>
                        </g>
                    </g>
                    <g id="text_13">
                        <!-- 15 -->
                        <g transform="translate(49.395 81.585317) scale(0.1 -0.1)">
                            <use xlink:href="#DejaVuSans-31"/>
                            <use xlink:href="#DejaVuSans-35" x="63.623047"/>
                        </g>
                    </g>
                </g>
                <g id="ytick_9">
                    <g id="line2d_14">
                        <g>
                            <use xlink:href="#m6380b61d03" x="69.12" y="45.538798"
                                 style="stroke: #000000; stroke-width: 0.8"/>
                        </g>
                    </g>
                    <g id="text_14">
                        <!-- 20 -->
                        <g transform="translate(49.395 49.338017) scale(0.1 -0.1)">
                            <use xlink:href="#DejaVuSans-32"/>
                            <use xlink:href="#DejaVuSans-30" x="63.623047"/>
                        </g>
                    </g>
                </g>
                <g id="text_15">
                    <!-- X ($Ha^{-1}$) -->
                    <g transform="translate(34.935625 195.828) rotate(-90) scale(0.1 -0.1)">
                        <defs>
                            <path id="DejaVuSans-58" d="M 403 4666
L 1081 4666 
L 2241 2931 
L 3406 4666 
L 4084 4666 
L 2584 2425 
L 4184 0 
L 3506 0 
L 2194 1984 
L 872 0 
L 191 0 
L 1856 2491 
L 403 4666 
z
" transform="scale(0.015625)"/>
                            <path id="DejaVuSans-20" transform="scale(0.015625)"/>
                            <path id="DejaVuSans-28" d="M 1984 4856
Q 1566 4138 1362 3434 
Q 1159 2731 1159 2009 
Q 1159 1288 1364 580 
Q 1569 -128 1984 -844 
L 1484 -844 
Q 1016 -109 783 600 
Q 550 1309 550 2009 
Q 550 2706 781 3412 
Q 1013 4119 1484 4856 
L 1984 4856 
z
" transform="scale(0.015625)"/>
                            <path id="DejaVuSans-Oblique-48" d="M 1081 4666
L 1716 4666 
L 1344 2753 
L 3634 2753 
L 4006 4666 
L 4641 4666 
L 3731 0 
L 3097 0 
L 3531 2222 
L 1241 2222 
L 806 0 
L 172 0 
L 1081 4666 
z
" transform="scale(0.015625)"/>
                            <path id="DejaVuSans-Oblique-61" d="M 3438 1997
L 3047 0 
L 2472 0 
L 2578 531 
Q 2325 219 2001 64 
Q 1678 -91 1281 -91 
Q 834 -91 548 182 
Q 263 456 263 884 
Q 263 1497 752 1853 
Q 1241 2209 2100 2209 
L 2900 2209 
L 2931 2363 
Q 2938 2388 2941 2417 
Q 2944 2447 2944 2509 
Q 2944 2788 2717 2942 
Q 2491 3097 2081 3097 
Q 1800 3097 1504 3025 
Q 1209 2953 897 2809 
L 997 3341 
Q 1322 3463 1633 3523 
Q 1944 3584 2234 3584 
Q 2853 3584 3176 3315 
Q 3500 3047 3500 2534 
Q 3500 2431 3484 2292 
Q 3469 2153 3438 1997 
z
M 2816 1759 
L 2241 1759 
Q 1534 1759 1195 1570 
Q 856 1381 856 984 
Q 856 709 1029 553 
Q 1203 397 1509 397 
Q 1978 397 2328 733 
Q 2678 1069 2791 1631 
L 2816 1759 
z
" transform="scale(0.015625)"/>
                            <path id="DejaVuSans-29" d="M 513 4856
L 1013 4856 
Q 1481 4119 1714 3412 
Q 1947 2706 1947 2009 
Q 1947 1309 1714 600 
Q 1481 -109 1013 -844 
L 513 -844 
Q 928 -128 1133 580 
Q 1338 1288 1338 2009 
Q 1338 2731 1133 3434 
Q 928 4138 513 4856 
z
" transform="scale(0.015625)"/>
                        </defs>
                        <use xlink:href="#DejaVuSans-58" transform="translate(0 0.684375)"/>
                        <use xlink:href="#DejaVuSans-20" transform="translate(68.505859 0.684375)"/>
                        <use xlink:href="#DejaVuSans-28" transform="translate(100.292969 0.684375)"/>
                        <use xlink:href="#DejaVuSans-Oblique-48" transform="translate(139.306641 0.684375)"/>
                        <use xlink:href="#DejaVuSans-Oblique-61" transform="translate(214.501953 0.684375)"/>
                        <use xlink:href="#DejaVuSans-2212" transform="translate(280.431146 38.965625) scale(0.7)"/>
                        <use xlink:href="#DejaVuSans-31" transform="translate(339.08349 38.965625) scale(0.7)"/>
                        <use xlink:href="#DejaVuSans-29" transform="translate(386.353997 0.684375)"/>
                    </g>
                </g>
            </g>
            <g id="patch_3">
                <path d="M 69.12 307.584
L 69.12 41.472 
" style="fill: none; stroke: #000000; stroke-width: 0.8; stroke-linejoin: miter; stroke-linecap: square"/>
            </g>
            <g id="patch_4">
                <path d="M 414.72 307.584
L 414.72 41.472 
" style="fill: none; stroke: #000000; stroke-width: 0.8; stroke-linejoin: miter; stroke-linecap: square"/>
            </g>
            <g id="patch_5">
                <path d="M 69.12 307.584
L 414.72 307.584 
" style="fill: none; stroke: #000000; stroke-width: 0.8; stroke-linejoin: miter; stroke-linecap: square"/>
            </g>
            <g id="patch_6">
                <path d="M 69.12 41.472
L 414.72 41.472 
" style="fill: none; stroke: #000000; stroke-width: 0.8; stroke-linejoin: miter; stroke-linecap: square"/>
            </g>
            <g id="legend_1">
                <g id="patch_7">
                    <path d="M 318.615313 78.82825
L 407.72 78.82825 
Q 409.72 78.82825 409.72 76.82825 
L 409.72 48.472 
Q 409.72 46.472 407.72 46.472 
L 318.615313 46.472 
Q 316.615313 46.472 316.615313 48.472 
L 316.615313 76.82825 
Q 316.615313 78.82825 318.615313 78.82825 
z
" style="fill: #ffffff; opacity: 0.8; stroke: #cccccc; stroke-linejoin: miter"/>
                </g>
                <g id="Path3DCollection_1">
                    <g>
                        <use xlink:href="#mcd54d82e0d" x="330.615313" y="55.445437"
                             style="fill: #ff0000; stroke: #ff0000; stroke-width: 1.5"/>
                    </g>
                </g>
                <g id="text_16">
                    <!-- MOLCAS -->
                    <g transform="translate(348.615313 58.070437) scale(0.1 -0.1)">
                        <defs>
                            <path id="DejaVuSans-4d" d="M 628 4666
L 1569 4666 
L 2759 1491 
L 3956 4666 
L 4897 4666 
L 4897 0 
L 4281 0 
L 4281 4097 
L 3078 897 
L 2444 897 
L 1241 4097 
L 1241 0 
L 628 0 
L 628 4666 
z
" transform="scale(0.015625)"/>
                            <path id="DejaVuSans-4f" d="M 2522 4238
Q 1834 4238 1429 3725 
Q 1025 3213 1025 2328 
Q 1025 1447 1429 934 
Q 1834 422 2522 422 
Q 3209 422 3611 934 
Q 4013 1447 4013 2328 
Q 4013 3213 3611 3725 
Q 3209 4238 2522 4238 
z
M 2522 4750 
Q 3503 4750 4090 4092 
Q 4678 3434 4678 2328 
Q 4678 1225 4090 567 
Q 3503 -91 2522 -91 
Q 1538 -91 948 565 
Q 359 1222 359 2328 
Q 359 3434 948 4092 
Q 1538 4750 2522 4750 
z
" transform="scale(0.015625)"/>
                            <path id="DejaVuSans-4c" d="M 628 4666
L 1259 4666 
L 1259 531 
L 3531 531 
L 3531 0 
L 628 0 
L 628 4666 
z
" transform="scale(0.015625)"/>
                            <path id="DejaVuSans-41" d="M 2188 4044
L 1331 1722 
L 3047 1722 
L 2188 4044 
z
M 1831 4666 
L 2547 4666 
L 4325 0 
L 3669 0 
L 3244 1197 
L 1141 1197 
L 716 0 
L 50 0 
L 1831 4666 
z
" transform="scale(0.015625)"/>
                            <path id="DejaVuSans-53" d="M 3425 4513
L 3425 3897 
Q 3066 4069 2747 4153 
Q 2428 4238 2131 4238 
Q 1616 4238 1336 4038 
Q 1056 3838 1056 3469 
Q 1056 3159 1242 3001 
Q 1428 2844 1947 2747 
L 2328 2669 
Q 3034 2534 3370 2195 
Q 3706 1856 3706 1288 
Q 3706 609 3251 259 
Q 2797 -91 1919 -91 
Q 1588 -91 1214 -16 
Q 841 59 441 206 
L 441 856 
Q 825 641 1194 531 
Q 1563 422 1919 422 
Q 2459 422 2753 634 
Q 3047 847 3047 1241 
Q 3047 1584 2836 1778 
Q 2625 1972 2144 2069 
L 1759 2144 
Q 1053 2284 737 2584 
Q 422 2884 422 3419 
Q 422 4038 858 4394 
Q 1294 4750 2059 4750 
Q 2388 4750 2728 4690 
Q 3069 4631 3425 4513 
z
" transform="scale(0.015625)"/>
                        </defs>
                        <use xlink:href="#DejaVuSans-4d"/>
                        <use xlink:href="#DejaVuSans-4f" x="86.279297"/>
                        <use xlink:href="#DejaVuSans-4c" x="164.990234"/>
                        <use xlink:href="#DejaVuSans-43" x="220.703125"/>
                        <use xlink:href="#DejaVuSans-41" x="290.527344"/>
                        <use xlink:href="#DejaVuSans-53" x="358.935547"/>
                    </g>
                </g>
                <g id="PathCollection_3">
                    <g>
                        <use xlink:href="#m8e58536db2" x="330.615313" y="70.123562"
                             style="fill: #0000ff; stroke: #0000ff; stroke-width: 1.5"/>
                    </g>
                </g>
                <g id="text_17">
                    <!-- SA-OO-VQE -->
                    <g transform="translate(348.615313 72.748562) scale(0.1 -0.1)">
                        <defs>
                            <path id="DejaVuSans-2d" d="M 313 2009
L 1997 2009 
L 1997 1497 
L 313 1497 
L 313 2009 
z
" transform="scale(0.015625)"/>
                            <path id="DejaVuSans-56" d="M 1831 0
L 50 4666 
L 709 4666 
L 2188 738 
L 3669 4666 
L 4325 4666 
L 2547 0 
L 1831 0 
z
" transform="scale(0.015625)"/>
                            <path id="DejaVuSans-51" d="M 2522 4238
Q 1834 4238 1429 3725 
Q 1025 3213 1025 2328 
Q 1025 1447 1429 934 
Q 1834 422 2522 422 
Q 3209 422 3611 934 
Q 4013 1447 4013 2328 
Q 4013 3213 3611 3725 
Q 3209 4238 2522 4238 
z
M 3406 84 
L 4238 -825 
L 3475 -825 
L 2784 -78 
Q 2681 -84 2626 -87 
Q 2572 -91 2522 -91 
Q 1538 -91 948 567 
Q 359 1225 359 2328 
Q 359 3434 948 4092 
Q 1538 4750 2522 4750 
Q 3503 4750 4090 4092 
Q 4678 3434 4678 2328 
Q 4678 1516 4351 937 
Q 4025 359 3406 84 
z
" transform="scale(0.015625)"/>
                            <path id="DejaVuSans-45" d="M 628 4666
L 3578 4666 
L 3578 4134 
L 1259 4134 
L 1259 2753 
L 3481 2753 
L 3481 2222 
L 1259 2222 
L 1259 531 
L 3634 531 
L 3634 0 
L 628 0 
L 628 4666 
z
" transform="scale(0.015625)"/>
                        </defs>
                        <use xlink:href="#DejaVuSans-53"/>
                        <use xlink:href="#DejaVuSans-41" x="65.351562"/>
                        <use xlink:href="#DejaVuSans-2d" x="131.509766"/>
                        <use xlink:href="#DejaVuSans-4f" x="170.34375"/>
                        <use xlink:href="#DejaVuSans-4f" x="249.054688"/>
                        <use xlink:href="#DejaVuSans-2d" x="330.515625"/>
                        <use xlink:href="#DejaVuSans-56" x="360.724609"/>
                        <use xlink:href="#DejaVuSans-51" x="429.132812"/>
                        <use xlink:href="#DejaVuSans-45" x="507.84375"/>
                    </g>
                </g>
            </g>
        </g>
    </g>
    <defs>
        <clipPath id="p558066dc43">
            <rect x="69.12" y="41.472" width="345.6" height="266.112"/>
        </clipPath>
    </defs>
</svg>
