<?xml version="1.0" encoding="UTF-8" standalone="no"?><!DOCTYPE svg PUBLIC "-//W3C//DTD SVG 1.1//EN" "http://www.w3.org/Graphics/SVG/1.1/DTD/svg11.dtd"><!-- Generated by graphviz version 2.40.1 (20161225.0304)
 --><!-- Title: G Pages: 1 --><svg xmlns="http://www.w3.org/2000/svg" xmlns:xlink="http://www.w3.org/1999/xlink" width="701pt" height="606pt" viewBox="0.00 0.00 701.45 605.83">
<g id="graph0" class="graph" transform="scale(1 1) rotate(0) translate(4 601.8313)">
<title>G</title>
<polygon fill="#ffffff" stroke="transparent" points="-4,4 -4,-601.8313 697.4492,-601.8313 697.4492,4 -4,4"/>
<!-- choco -->
<g id="node1" class="node">
<title>choco</title>
<ellipse fill="none" stroke="#000000" cx="631.1884" cy="-396.4156" rx="62.0225" ry="18"/>
<text text-anchor="middle" x="631.1884" y="-392.2156" font-family="Times,serif" font-size="14.00" fill="#000000">Choco-solver</text>
</g>
<!-- mining -->
<g id="node2" class="node">
<title>mining</title>
<ellipse fill="none" stroke="#000000" cx="466.8996" cy="-369.4156" rx="66.056" ry="18"/>
<text text-anchor="middle" x="466.8996" y="-365.2156" font-family="Times,serif" font-size="14.00" fill="#000000">Choco-Mining</text>
</g>
<!-- mining&#45;&gt;choco -->
<g id="edge1" class="edge">
<title>mining-&gt;choco</title>
<path fill="none" stroke="#000000" d="M523.8988,-378.7832C537.7699,-381.0628 552.6997,-383.5164 566.8838,-385.8475"/>
<polygon fill="#000000" stroke="#000000" points="566.6192,-389.3509 577.0545,-387.519 567.7545,-382.4436 566.6192,-389.3509"/>
</g>
<!-- csize -->
<g id="node3" class="node">
<title>csize</title>
<ellipse fill="#f8cecc" stroke="#000000" cx="286.7966" cy="-337.4156" rx="51.0223" ry="18"/>
<text text-anchor="middle" x="286.7966" y="-333.2156" font-family="Times,serif" font-size="14.00" fill="#000000">CoverSize</text>
</g>
<!-- csize&#45;&gt;mining -->
<g id="edge5" class="edge">
<title>csize-&gt;mining</title>
<path fill="none" stroke="#000000" d="M332.7102,-345.5734C353.5906,-349.2833 378.6772,-353.7406 401.4809,-357.7923"/>
<polygon fill="#000000" stroke="#000000" points="400.9754,-361.2572 411.4335,-359.5606 402.2,-354.3652 400.9754,-361.2572"/>
</g>
<!-- cclosure -->
<g id="node4" class="node">
<title>cclosure</title>
<ellipse fill="#f8cecc" stroke="#000000" cx="286.7966" cy="-260.4156" rx="64.8467" ry="18"/>
<text text-anchor="middle" x="286.7966" y="-256.2156" font-family="Times,serif" font-size="14.00" fill="#000000">CoverClosure</text>
</g>
<!-- cclosure&#45;&gt;mining -->
<g id="edge3" class="edge">
<title>cclosure-&gt;mining</title>
<path fill="none" stroke="#000000" d="M314.1504,-276.9704C345.3151,-295.8316 396.3688,-326.7298 430.7829,-347.5575"/>
<polygon fill="#000000" stroke="#000000" points="429.2166,-350.7006 439.5841,-352.884 432.841,-344.712 429.2166,-350.7006"/>
</g>
<!-- aclosure -->
<g id="node5" class="node">
<title>aclosure</title>
<ellipse fill="#f8cecc" stroke="#000000" cx="286.7966" cy="-516.4156" rx="78.1501" ry="18"/>
<text text-anchor="middle" x="286.7966" y="-512.2156" font-family="Times,serif" font-size="14.00" fill="#000000">AdequateClosure</text>
</g>
<!-- aclosure&#45;&gt;mining -->
<g id="edge4" class="edge">
<title>aclosure-&gt;mining</title>
<path fill="none" stroke="#000000" d="M331.5487,-501.474C342.9499,-496.6243 354.8134,-490.6012 364.8716,-483.4156 399.0904,-458.9696 430.0097,-421.1549 448.6214,-395.8594"/>
<polygon fill="#000000" stroke="#000000" points="451.6582,-397.6324 454.6765,-387.4766 445.9837,-393.5335 451.6582,-397.6324"/>
</g>
<!-- fsubs -->
<g id="node6" class="node">
<title>fsubs</title>
<ellipse fill="#f8cecc" stroke="#000000" cx="286.7966" cy="-402.4156" rx="64.2862" ry="18"/>
<text text-anchor="middle" x="286.7966" y="-398.2156" font-family="Times,serif" font-size="14.00" fill="#000000">FrequentSubs</text>
</g>
<!-- fsubs&#45;&gt;mining -->
<g id="edge6" class="edge">
<title>fsubs-&gt;mining</title>
<path fill="none" stroke="#000000" d="M340.8334,-392.5146C360.068,-388.9902 381.9272,-384.985 401.9793,-381.3109"/>
<polygon fill="#000000" stroke="#000000" points="402.7611,-384.726 411.9665,-379.481 401.4994,-377.8406 402.7611,-384.726"/>
</g>
<!-- isupers -->
<g id="node7" class="node">
<title>isupers</title>
<ellipse fill="#f8cecc" stroke="#000000" cx="286.7966" cy="-456.4156" rx="77.5685" ry="18"/>
<text text-anchor="middle" x="286.7966" y="-452.2156" font-family="Times,serif" font-size="14.00" fill="#000000">InfrequentSupers</text>
</g>
<!-- isupers&#45;&gt;mining -->
<g id="edge7" class="edge">
<title>isupers-&gt;mining</title>
<path fill="none" stroke="#000000" d="M333.6344,-441.9145C344.0721,-438.2169 354.9741,-433.9821 364.8716,-429.4156 388.4955,-418.5161 413.7079,-403.7218 433.1593,-391.5513"/>
<polygon fill="#000000" stroke="#000000" points="435.0871,-394.4733 441.6646,-386.1674 431.3431,-388.5587 435.0871,-394.4733"/>
</g>
<!-- generator -->
<g id="node8" class="node">
<title>generator</title>
<ellipse fill="#f8cecc" stroke="#000000" cx="286.7966" cy="-183.4156" rx="49.7768" ry="18"/>
<text text-anchor="middle" x="286.7966" y="-179.2156" font-family="Times,serif" font-size="14.00" fill="#000000">Generator</text>
</g>
<!-- generator&#45;&gt;mining -->
<g id="edge8" class="edge">
<title>generator-&gt;mining</title>
<path fill="none" stroke="#000000" d="M315.2517,-198.3253C330.8642,-207.2873 350.0099,-219.6153 364.8716,-233.4156 400.5884,-266.5816 432.6788,-313.5466 450.9604,-342.7097"/>
<polygon fill="#000000" stroke="#000000" points="448.1649,-344.8441 456.3979,-351.5126 454.1204,-341.1654 448.1649,-344.8441"/>
</g>
<!-- cdiv -->
<g id="node9" class="node">
<title>cdiv</title>
<ellipse fill="#f8cecc" stroke="#000000" cx="286.7966" cy="-79.4156" rx="73.5926" ry="18"/>
<text text-anchor="middle" x="286.7966" y="-75.2156" font-family="Times,serif" font-size="14.00" fill="#000000">ClosedDiversity</text>
</g>
<!-- cdiv&#45;&gt;mining -->
<g id="edge9" class="edge">
<title>cdiv-&gt;mining</title>
<path fill="none" stroke="#000000" d="M308.0239,-96.7174C324.9728,-111.3248 348.5115,-133.4761 364.8716,-156.4156 408.3107,-217.3242 441.657,-299.6086 457.2315,-341.8593"/>
<polygon fill="#000000" stroke="#000000" points="454.0144,-343.2544 460.7172,-351.4595 460.5941,-340.8653 454.0144,-343.2544"/>
</g>
<!-- pareto -->
<g id="node10" class="node">
<title>pareto</title>
<ellipse fill="#f8cecc" stroke="#000000" cx="466.8996" cy="-494.4156" rx="35.9115" ry="18"/>
<text text-anchor="middle" x="466.8996" y="-490.2156" font-family="Times,serif" font-size="14.00" fill="#000000">Pareto</text>
</g>
<!-- pareto&#45;&gt;choco -->
<g id="edge2" class="edge">
<title>pareto-&gt;choco</title>
<path fill="none" stroke="#000000" d="M490.0897,-480.5825C517.4974,-464.2335 563.4117,-436.8451 595.393,-417.768"/>
<polygon fill="#000000" stroke="#000000" points="597.2219,-420.7525 604.017,-412.6237 593.6358,-414.7408 597.2219,-420.7525"/>
</g>
<!-- fim -->
<g id="node11" class="node">
<title>fim</title>
<ellipse fill="#dae8fc" stroke="#000000" cx="86.3608" cy="-337.4156" rx="78.2272" ry="29.3315"/>
<text text-anchor="middle" x="86.3608" y="-341.6156" font-family="Times,serif" font-size="14.00" fill="#000000">Frequent Itemset</text>
<text text-anchor="middle" x="86.3608" y="-324.8156" font-family="Times,serif" font-size="14.00" fill="#000000"> Mining</text>
</g>
<!-- fim&#45;&gt;csize -->
<g id="edge10" class="edge">
<title>fim-&gt;csize</title>
<path fill="none" stroke="#000000" d="M164.7157,-337.4156C184.8189,-337.4156 206.156,-337.4156 225.2736,-337.4156"/>
<polygon fill="#000000" stroke="#000000" points="225.3462,-340.9157 235.3462,-337.4156 225.3461,-333.9157 225.3462,-340.9157"/>
</g>
<!-- closedp -->
<g id="node12" class="node">
<title>closedp</title>
<ellipse fill="#dae8fc" stroke="#000000" cx="86.3608" cy="-260.4156" rx="70.3453" ry="29.3315"/>
<text text-anchor="middle" x="86.3608" y="-264.6156" font-family="Times,serif" font-size="14.00" fill="#000000">Closed Itemset</text>
<text text-anchor="middle" x="86.3608" y="-247.8156" font-family="Times,serif" font-size="14.00" fill="#000000"> Mining</text>
</g>
<!-- closedp&#45;&gt;csize -->
<g id="edge11" class="edge">
<title>closedp-&gt;csize</title>
<path fill="none" stroke="#000000" d="M138.2387,-280.3452C170.5803,-292.7696 211.754,-308.5871 242.5489,-320.4173"/>
<polygon fill="#000000" stroke="#000000" points="241.5681,-323.7899 252.1581,-324.1088 244.0784,-317.2555 241.5681,-323.7899"/>
</g>
<!-- closedp&#45;&gt;cclosure -->
<g id="edge12" class="edge">
<title>closedp-&gt;cclosure</title>
<path fill="none" stroke="#000000" d="M157.027,-260.4156C174.8225,-260.4156 193.9834,-260.4156 211.9751,-260.4156"/>
<polygon fill="#000000" stroke="#000000" points="212.123,-263.9157 222.123,-260.4156 212.1229,-256.9157 212.123,-263.9157"/>
</g>
<!-- skyp -->
<g id="node13" class="node">
<title>skyp</title>
<ellipse fill="#dae8fc" stroke="#000000" cx="86.3608" cy="-568.4156" rx="54.4053" ry="29.3315"/>
<text text-anchor="middle" x="86.3608" y="-572.6156" font-family="Times,serif" font-size="14.00" fill="#000000">Skypattern</text>
<text text-anchor="middle" x="86.3608" y="-555.8156" font-family="Times,serif" font-size="14.00" fill="#000000"> Mining</text>
</g>
<!-- skyp&#45;&gt;csize -->
<g id="edge13" class="edge">
<title>skyp-&gt;csize</title>
<path fill="none" stroke="#000000" d="M135.4431,-555.2998C149.2524,-549.4314 163.1094,-541.1065 172.7216,-529.4156 217.3621,-475.1214 164.867,-430.3466 208.7216,-375.4156 216.29,-365.9357 226.8146,-358.6608 237.6891,-353.1415"/>
<polygon fill="#000000" stroke="#000000" points="239.2396,-356.2807 246.8488,-348.9083 236.303,-349.9265 239.2396,-356.2807"/>
</g>
<!-- skyp&#45;&gt;aclosure -->
<g id="edge14" class="edge">
<title>skyp-&gt;aclosure</title>
<path fill="none" stroke="#000000" d="M135.3929,-555.695C162.3478,-548.702 196.0556,-539.957 224.8192,-532.4947"/>
<polygon fill="#000000" stroke="#000000" points="225.9673,-535.8128 234.7679,-529.9137 224.2094,-529.0371 225.9673,-535.8128"/>
</g>
<!-- skyp&#45;&gt;pareto -->
<g id="edge15" class="edge">
<title>skyp-&gt;pareto</title>
<path fill="none" stroke="#000000" d="M140.7666,-569.2218C197.6571,-568.7558 289.0461,-564.289 364.8716,-543.4156 389.5679,-536.6172 415.5678,-524.0373 435.1404,-513.3266"/>
<polygon fill="#000000" stroke="#000000" points="436.9091,-516.3476 443.9252,-508.4088 433.4898,-510.2395 436.9091,-516.3476"/>
</g>
<!-- maxfim -->
<g id="node14" class="node">
<title>maxfim</title>
<ellipse fill="#dae8fc" stroke="#000000" cx="86.3608" cy="-491.4156" rx="84.9355" ry="29.3315"/>
<text text-anchor="middle" x="86.3608" y="-495.6156" font-family="Times,serif" font-size="14.00" fill="#000000">Maximal Frequent</text>
<text text-anchor="middle" x="86.3608" y="-478.8156" font-family="Times,serif" font-size="14.00" fill="#000000"> Itemset Mining</text>
</g>
<!-- maxfim&#45;&gt;csize -->
<g id="edge16" class="edge">
<title>maxfim-&gt;csize</title>
<path fill="none" stroke="#000000" d="M147.0271,-470.7526C156.3688,-465.7548 165.3449,-459.6959 172.7216,-452.4156 199.6097,-425.8791 182.2181,-402.3364 208.7216,-375.4156 217.3972,-366.6034 228.5295,-359.5369 239.6532,-354.0022"/>
<polygon fill="#000000" stroke="#000000" points="241.3327,-357.0817 248.9411,-349.7085 238.3954,-350.7278 241.3327,-357.0817"/>
</g>
<!-- maxfim&#45;&gt;fsubs -->
<g id="edge18" class="edge">
<title>maxfim-&gt;fsubs</title>
<path fill="none" stroke="#000000" d="M140.3866,-468.4658C151.2342,-463.4549 162.4508,-457.978 172.7216,-452.4156 189.4171,-443.3738 191.6312,-437.6868 208.7216,-429.4156 216.4231,-425.6884 224.7751,-422.232 233.056,-419.1228"/>
<polygon fill="#000000" stroke="#000000" points="234.4864,-422.3275 242.7013,-415.6368 232.107,-415.7442 234.4864,-422.3275"/>
</g>
<!-- maxfim&#45;&gt;isupers -->
<g id="edge17" class="edge">
<title>maxfim-&gt;isupers</title>
<path fill="none" stroke="#000000" d="M162.137,-478.1836C179.3738,-475.1737 197.6381,-471.9845 214.716,-469.0023"/>
<polygon fill="#000000" stroke="#000000" points="215.3686,-472.4414 224.6175,-467.2733 214.1644,-465.5458 215.3686,-472.4414"/>
</g>
<!-- minfim -->
<g id="node15" class="node">
<title>minfim</title>
<ellipse fill="#dae8fc" stroke="#000000" cx="86.3608" cy="-414.4156" rx="86.2218" ry="29.3315"/>
<text text-anchor="middle" x="86.3608" y="-418.6156" font-family="Times,serif" font-size="14.00" fill="#000000">Minimal Infrequent</text>
<text text-anchor="middle" x="86.3608" y="-401.8156" font-family="Times,serif" font-size="14.00" fill="#000000"> Itemset Mining</text>
</g>
<!-- minfim&#45;&gt;csize -->
<g id="edge19" class="edge">
<title>minfim-&gt;csize</title>
<path fill="none" stroke="#000000" d="M143.7976,-392.3505C175.185,-380.2927 213.4646,-365.5871 242.517,-354.4262"/>
<polygon fill="#000000" stroke="#000000" points="243.9127,-357.6395 251.9925,-350.7861 241.4024,-351.1051 243.9127,-357.6395"/>
</g>
<!-- minfim&#45;&gt;fsubs -->
<g id="edge21" class="edge">
<title>minfim-&gt;fsubs</title>
<path fill="none" stroke="#000000" d="M171.6543,-409.3092C185.6639,-408.4704 200.0716,-407.6078 213.7489,-406.789"/>
<polygon fill="#000000" stroke="#000000" points="214.2741,-410.2639 224.047,-406.1724 213.8557,-403.2764 214.2741,-410.2639"/>
</g>
<!-- minfim&#45;&gt;isupers -->
<g id="edge20" class="edge">
<title>minfim-&gt;isupers</title>
<path fill="none" stroke="#000000" d="M160.1418,-429.876C179.4438,-433.9206 200.1549,-438.2604 219.1215,-442.2348"/>
<polygon fill="#000000" stroke="#000000" points="218.6552,-445.713 229.1604,-444.3384 220.0908,-438.8618 218.6552,-445.713"/>
</g>
<!-- genm -->
<g id="node16" class="node">
<title>genm</title>
<ellipse fill="#dae8fc" stroke="#000000" cx="86.3608" cy="-183.4156" rx="50.7702" ry="29.3315"/>
<text text-anchor="middle" x="86.3608" y="-187.6156" font-family="Times,serif" font-size="14.00" fill="#000000">Generator</text>
<text text-anchor="middle" x="86.3608" y="-170.8156" font-family="Times,serif" font-size="14.00" fill="#000000"> Mining</text>
</g>
<!-- genm&#45;&gt;csize -->
<g id="edge22" class="edge">
<title>genm-&gt;csize</title>
<path fill="none" stroke="#000000" d="M131.3409,-197.3464C145.7461,-203.3834 160.9869,-211.6016 172.7216,-222.4156 197.0061,-244.7949 186.1271,-263.3313 208.7216,-287.4156 219.8332,-299.26 234.3143,-309.5349 247.7826,-317.6376"/>
<polygon fill="#000000" stroke="#000000" points="246.0321,-320.6684 256.4413,-322.6432 249.5356,-314.6082 246.0321,-320.6684"/>
</g>
<!-- genm&#45;&gt;generator -->
<g id="edge23" class="edge">
<title>genm-&gt;generator</title>
<path fill="none" stroke="#000000" d="M137.4578,-183.4156C164.6254,-183.4156 198.1913,-183.4156 226.6151,-183.4156"/>
<polygon fill="#000000" stroke="#000000" points="226.833,-186.9157 236.833,-183.4156 226.833,-179.9157 226.833,-186.9157"/>
</g>
<!-- assm -->
<g id="node17" class="node">
<title>assm</title>
<ellipse fill="#dae8fc" stroke="#000000" cx="86.3608" cy="-106.4156" rx="79.4471" ry="29.3315"/>
<text text-anchor="middle" x="86.3608" y="-110.6156" font-family="Times,serif" font-size="14.00" fill="#000000">Association Rule</text>
<text text-anchor="middle" x="86.3608" y="-93.8156" font-family="Times,serif" font-size="14.00" fill="#000000"> Mining</text>
</g>
<!-- assm&#45;&gt;csize -->
<g id="edge24" class="edge">
<title>assm-&gt;csize</title>
<path fill="none" stroke="#000000" d="M147.377,-125.4623C156.9058,-130.6712 165.8537,-137.2195 172.7216,-145.4156 214.5382,-195.3194 170.6409,-234.6058 208.7216,-287.4156 217.9771,-300.251 231.6383,-310.6021 244.9565,-318.4839"/>
<polygon fill="#000000" stroke="#000000" points="243.6226,-321.7468 254.0635,-323.5463 247.0236,-315.6285 243.6226,-321.7468"/>
</g>
<!-- assm&#45;&gt;cclosure -->
<g id="edge25" class="edge">
<title>assm-&gt;cclosure</title>
<path fill="none" stroke="#000000" d="M144.8179,-126.5859C154.838,-131.7151 164.6162,-137.9462 172.7216,-145.4156 197.0061,-167.7949 186.1271,-186.3313 208.7216,-210.4156 219.28,-221.6703 232.8807,-231.5079 245.7639,-239.4113"/>
<polygon fill="#000000" stroke="#000000" points="244.1291,-242.5103 254.5223,-244.5675 247.6804,-236.478 244.1291,-242.5103"/>
</g>
<!-- assm&#45;&gt;generator -->
<g id="edge26" class="edge">
<title>assm-&gt;generator</title>
<path fill="none" stroke="#000000" d="M141.6613,-127.6601C173.5178,-139.8981 213.009,-155.0692 242.7509,-166.4949"/>
<polygon fill="#000000" stroke="#000000" points="241.8483,-169.8975 252.4384,-170.2165 244.3587,-163.3631 241.8483,-169.8975"/>
</g>
<!-- divm -->
<g id="node18" class="node">
<title>divm</title>
<ellipse fill="#dae8fc" stroke="#000000" cx="86.3608" cy="-29.4156" rx="73.9151" ry="29.3315"/>
<text text-anchor="middle" x="86.3608" y="-33.6156" font-family="Times,serif" font-size="14.00" fill="#000000">Diverse Itemset</text>
<text text-anchor="middle" x="86.3608" y="-16.8156" font-family="Times,serif" font-size="14.00" fill="#000000"> Mining</text>
</g>
<!-- divm&#45;&gt;csize -->
<g id="edge28" class="edge">
<title>divm-&gt;csize</title>
<path fill="none" stroke="#000000" d="M146.2165,-47.0305C156.3487,-52.4286 165.8089,-59.412 172.7216,-68.4156 232.791,-146.6553 154.4949,-205.0188 208.7216,-287.4156 217.3491,-300.525 230.7299,-310.9014 243.992,-318.7251"/>
<polygon fill="#000000" stroke="#000000" points="242.6463,-321.9795 253.0945,-323.7358 246.022,-315.8472 242.6463,-321.9795"/>
</g>
<!-- divm&#45;&gt;cdiv -->
<g id="edge27" class="edge">
<title>divm-&gt;cdiv</title>
<path fill="none" stroke="#000000" d="M148.9555,-45.0303C173.2855,-51.0996 201.0763,-58.0322 225.3003,-64.075"/>
<polygon fill="#000000" stroke="#000000" points="224.5415,-67.4929 235.0914,-66.5174 226.2359,-60.701 224.5415,-67.4929"/>
</g>
</g>

<g id="graph0" class="graph" transform="scale(1 1) rotate(0) translate(444 566.8)">
<title>%0</title>
<polygon fill="#ffffff" stroke="transparent" points="-4,4 -4,-96.8 244,-96.8 244,4 -4,4"/>
<g id="clust1" class="cluster">
<title>cluster_legend</title>
<polygon fill="none" stroke="#000000" stroke-width="2" points="8,-8 8,-84.8 232,-84.8 232,-8 8,-8"/>
<text text-anchor="middle" x="120" y="-68.2" font-family="Times,serif" font-size="14.00" fill="#000000">Legend</text>
</g>
<!-- Node1 -->
<g id="node1" class="node">
<title>Node1</title>
<ellipse fill="#f8cecc" stroke="#000000" cx="173" cy="-34" rx="51.0415" ry="18"/>
<text text-anchor="middle" x="173" y="-29.8" font-family="Times,serif" font-size="14.00" fill="#000000">Constraint</text>
</g>
<!-- Node2 -->
<g id="node2" class="node">
<title>Node2</title>
<ellipse fill="#dae8fc" stroke="#000000" cx="60" cy="-34" rx="43.5194" ry="18"/>
<text text-anchor="middle" x="60" y="-29.8" font-family="Times,serif" font-size="14.00" fill="#000000">Task</text>
</g>
</g>
</svg>