<svg xmlns="http://www.w3.org/2000/svg" xmlns:xlink="http://www.w3.org/1999/xlink" width="840" height="277.1"><rect width="840" height="277.1" rx="5" ry="5" class="a"/><svg y="0%" x="0%"><circle cx="20" cy="20" r="6" fill="#ff5f58"/><circle cx="40" cy="20" r="6" fill="#ffbd2e"/><circle cx="60" cy="20" r="6" fill="#18c132"/></svg><svg height="217.1" viewBox="0 0 80 21.71" width="800" x="15" xmlns="http://www.w3.org/2000/svg" xmlns:xlink="http://www.w3.org/1999/xlink" y="50"><style>.a{fill:#282d35}.h,.i{fill:#b9c0cb;white-space:pre}.i{fill:#dbab79}</style><g font-family="Monaco,Consolas,Menlo,'Bitstream Vera Sans Mono','Powerline Symbols',monospace" font-size="1.67"><defs><symbol id="a"><path fill="transparent" d="M0 0h80v11H0z"/></symbol><symbol id="b"><path fill="#6f7683" d="M0 0h1.102v2.171H0z"/></symbol></defs><path class="a" d="M0 0h80v21.71H0z"/><svg width="80"><svg><use xlink:href="#a"/><use xlink:href="#b" x="-.004" y="19.514"/><text y="1.67" class="h">&gt;&gt;&gt;</text><text x="4.008" y="1.67" class="h">from</text><text x="9.018" y="1.67" class="h">search_query.parser</text><text x="29.058" y="1.67" class="h">import</text><text x="36.072" y="1.67" class="h">parse</text><text y="3.841" class="h">&gt;&gt;&gt;</text><text x="4.008" y="3.841" class="h">parse(&apos;AI*[tiab]</text><text x="21.042" y="3.841" class="h">OR</text><text x="24.048" y="3.841" class="h">&quot;industry</text><text x="34.068" y="3.841" class="h">4.0&quot;[tiab]&apos;,</text><text x="47.094" y="3.841" class="h">platform=&quot;pubmed&quot;)</text><text y="6.012" class="i">Warning</text><text x="7.014" y="6.012" class="h">:</text><text x="9.018" y="6.012" class="h">invalid-wildcard-use</text><text x="30.06" y="6.012" class="h">(PUBMED_0003)</text><text x="2.004" y="8.183" class="h">-</text><text x="4.008" y="8.183" class="h">Wildcards</text><text x="14.028" y="8.183" class="h">cannot</text><text x="21.042" y="8.183" class="h">be</text><text x="24.048" y="8.183" class="h">used</text><text x="29.058" y="8.183" class="h">for</text><text x="33.066" y="8.183" class="h">short</text><text x="39.078" y="8.183" class="h">strings</text><text x="47.094" y="8.183" class="h">(shorter</text><text x="56.112" y="8.183" class="h">than</text><text x="61.122" y="8.183" class="h">4</text><text x="63.126" y="8.183" class="h">characters).</text><text x="3.006" y="10.354" class="h">Query:</text><text x="10.02" y="10.354" class="i">AI*</text><text x="13.026" y="10.354" class="h">[tiab]</text><text x="20.04" y="10.354" class="h">OR</text><text x="23.046" y="10.354" class="h">&quot;industry</text><text x="33.066" y="10.354" class="h">4.0&quot;[tiab]</text><text y="12.525" class="i">Warning</text><text x="7.014" y="12.525" class="h">:</text><text x="9.018" y="12.525" class="h">character-replacement</text><text x="31.062" y="12.525" class="h">(PUBMED_0002)</text><text x="2.004" y="14.696" class="h">-</text><text x="4.008" y="14.696" class="h">Character</text><text x="14.028" y="14.696" class="h">&apos;.&apos;</text><text x="18.036" y="14.696" class="h">in</text><text x="21.042" y="14.696" class="h">search</text><text x="28.056" y="14.696" class="h">term</text><text x="33.066" y="14.696" class="h">will</text><text x="38.076" y="14.696" class="h">be</text><text x="41.082" y="14.696" class="h">replaced</text><text x="50.1" y="14.696" class="h">with</text><text x="55.11" y="14.696" class="h">whitespace.</text><text x="4.008" y="16.867" class="h">See</text><text x="8.016" y="16.867" class="h">PubMed</text><text x="15.03" y="16.867" class="h">character</text><text x="25.05" y="16.867" class="h">conversions:</text><text x="38.076" y="16.867" class="h">https://pubmed.ncbi.nlm.nih.gov/help/)</text><text x="3.006" y="19.038" class="h">Query:</text><text x="10.02" y="19.038" class="h">AI*[tiab]</text><text x="20.04" y="19.038" class="h">OR</text><text x="23.046" y="19.038" class="h">&quot;industry</text><text x="33.066" y="19.038" class="h">4</text><text x="34.068" y="19.038" class="i">.</text><text x="35.07" y="19.038" class="h">0&quot;[tiab]</text></svg></svg></g></svg></svg>