<svg xmlns="http://www.w3.org/2000/svg" xmlns:xlink="http://www.w3.org/1999/xlink" width="1440" height="494.2"><rect width="1440" height="494.2" rx="5" ry="5" class="a"/><svg y="0%" x="0%"><circle cx="20" cy="20" r="6" fill="#ff5f58"/><circle cx="40" cy="20" r="6" fill="#ffbd2e"/><circle cx="60" cy="20" r="6" fill="#18c132"/></svg><svg height="434.2" viewBox="0 0 140 43.42" width="1400" x="15" xmlns="http://www.w3.org/2000/svg" xmlns:xlink="http://www.w3.org/1999/xlink" y="50"><style>@keyframes o{0%{transform:translateX(-140px)}to{transform:translateX(-280px)}}.a{fill:#282d35}.f{fill:#b9c0cb;white-space:pre}.g,.h,.i,.j,.k,.l{fill:#dbab79;white-space:pre}.h,.i,.j,.k,.l{fill:#e88388}.i,.j,.k,.l{fill:#a8cc8c}.j,.k,.l{fill:#73bef3}.k,.l{fill:#a8cc8c;font-weight:700}.l{fill:#71bef2}</style><g font-family="Monaco,Consolas,Menlo,'Bitstream Vera Sans Mono','Powerline Symbols',monospace" font-size="1.67"><defs><symbol id="1"><text y="1.67" class="f">Checking</text><text x="9.018" y="1.67" class="f">file:</text><text x="15.03" y="1.67" class="f">10.1079_SEARCHRXIV.2024.00462.json</text><text x="50.1" y="1.67" class="f">(PubMed)</text><text x="59.118" y="1.67" class="f">----------------------------------------------</text></symbol><symbol id="2"><text y="1.67" class="g">💡</text><text x="3.006" y="1.67" class="g">Warning</text><text x="10.02" y="1.67" class="f">:</text><text x="12.024" y="1.67" class="f">field-implicit</text><text x="27.054" y="1.67" class="f">(FIELD_0004)</text></symbol><symbol id="3"><text x="2.004" y="1.67" class="f">-</text><text x="4.008" y="1.67" class="f">The</text><text x="8.016" y="1.67" class="f">search</text><text x="15.03" y="1.67" class="f">field</text><text x="21.042" y="1.67" class="f">is</text><text x="24.048" y="1.67" class="f">implicit</text><text x="33.066" y="1.67" class="f">(will</text><text x="39.078" y="1.67" class="f">be</text><text x="42.084" y="1.67" class="f">set</text><text x="46.092" y="1.67" class="f">to</text><text x="49.098" y="1.67" class="f">[all]</text><text x="55.11" y="1.67" class="f">by</text><text x="58.116" y="1.67" class="f">PubMed).</text></symbol><symbol id="4"><text x="3.006" y="1.67" class="f">Query:</text><text x="10.02" y="1.67" class="f">((</text><text x="12.024" y="1.67" class="g">hernia</text><text x="18.036" y="1.67" class="f">)</text><text x="20.04" y="1.67" class="f">AND</text><text x="24.048" y="1.67" class="f">(</text><text x="25.05" y="1.67" class="g">iliac</text><text x="30.06" y="1.67" class="f">))</text><text x="33.066" y="1.67" class="f">AND</text><text x="37.074" y="1.67" class="f">(</text><text x="38.076" y="1.67" class="g">graft</text><text x="43.086" y="1.67" class="f">)</text></symbol><symbol id="5"><text y="1.67" class="g">💡</text><text x="3.006" y="1.67" class="g">Warning</text><text x="10.02" y="1.67" class="f">:</text><text x="12.024" y="1.67" class="f">unnecessary-parentheses</text><text x="36.072" y="1.67" class="f">(QUALITY_0004)</text></symbol><symbol id="6"><text x="2.004" y="1.67" class="f">-</text><text x="4.008" y="1.67" class="f">Unnecessary</text><text x="16.032" y="1.67" class="f">parentheses</text><text x="28.056" y="1.67" class="f">around</text><text x="35.07" y="1.67" class="f">AND</text><text x="39.078" y="1.67" class="f">block(s).</text><text x="49.098" y="1.67" class="f">A</text><text x="51.102" y="1.67" class="f">query</text><text x="57.114" y="1.67" class="f">with</text><text x="62.124" y="1.67" class="f">the</text><text x="66.132" y="1.67" class="f">structure</text></symbol><symbol id="7"><text x="4.008" y="1.67" class="h">(</text><text x="5.01" y="1.67" class="f">A</text><text x="7.014" y="1.67" class="f">AND</text><text x="11.022" y="1.67" class="f">B</text><text x="12.024" y="1.67" class="h">)</text><text x="14.028" y="1.67" class="f">AND</text><text x="18.036" y="1.67" class="f">C</text></symbol><symbol id="8"><text x="5.01" y="1.67" class="f">can</text><text x="9.018" y="1.67" class="f">be</text><text x="12.024" y="1.67" class="f">simplified</text><text x="23.046" y="1.67" class="f">to</text></symbol><symbol id="9"><text x="4.008" y="1.67" class="f">A</text><text x="6.012" y="1.67" class="f">AND</text><text x="10.02" y="1.67" class="f">B</text><text x="12.024" y="1.67" class="f">AND</text><text x="16.032" y="1.67" class="f">C</text></symbol><symbol id="10"><text x="4.008" y="1.67" class="f">with</text></symbol><symbol id="11"><text x="6.012" y="1.67" class="f">A:</text><text x="9.018" y="1.67" class="f">hernia</text></symbol><symbol id="12"><text x="6.012" y="1.67" class="f">B:</text><text x="9.018" y="1.67" class="f">iliac</text></symbol><symbol id="13"><text x="6.012" y="1.67" class="f">C:</text><text x="9.018" y="1.67" class="f">graft.</text></symbol><symbol id="14"><text y="1.67" class="f">Results</text><text x="8.016" y="1.67" class="f">written</text><text x="16.032" y="1.67" class="f">to</text><text x="19.038" y="1.67" class="f">output.csv</text></symbol><symbol id="15"><text y="1.67" class="i">DONE:</text><text x="6.012" y="1.67" class="i">0</text></symbol><symbol id="16"><text y="1.67" class="g">TODO:</text><text x="6.012" y="1.67" class="g">0</text></symbol><symbol id="17"><text y="1.67" class="j">NOTHING</text><text x="8.016" y="1.67" class="j">TODO:</text><text x="14.028" y="1.67" class="j">1</text></symbol><symbol id="18"><text y="1.67" class="k">gerit@gerit-thinkpad</text><text x="20.04" y="1.67" class="f">:</text><text x="21.042" y="1.67" class="l">~/ownCloud/data/literature_reviews/SearchQuery/searchRxiv_scraper</text><text x="86.172" y="1.67" class="f">$</text><text x="139.278" y="1.67" class="f">^</text></symbol><symbol id="19"><text y="1.67" class="f">C</text></symbol><symbol id="20"><text y="1.67" class="k">gerit@gerit-thinkpad</text><text x="20.04" y="1.67" class="f">:</text><text x="21.042" y="1.67" class="l">~/ownCloud/data/literature_reviews/SearchQuery/searchRxiv_scraper</text><text x="86.172" y="1.67" class="f">$</text></symbol><symbol id="a"><path fill="transparent" d="M0 0h140v21H0z"/></symbol><symbol id="b"><path fill="#6f7683" d="M0 0h1.102v2.171H0z"/></symbol></defs><path class="a" d="M0 0h140v43.42H0z"/><g style="animation-duration:.41892700000000005s;animation-iteration-count:infinite;animation-name:o;animation-timing-function:steps(1,end)"><svg width="420"><svg><use xlink:href="#a"/><use xlink:href="#b" x="-.004" y="43.395"/><use xlink:href="#1"/><use xlink:href="#2" y="2.171"/><use xlink:href="#3" y="4.342"/><use xlink:href="#4" y="6.513"/><use xlink:href="#5" y="8.684"/><use xlink:href="#6" y="10.855"/><use xlink:href="#7" y="13.026"/><use xlink:href="#8" y="15.197"/><use xlink:href="#9" y="17.368"/><use xlink:href="#10" y="19.539"/><use xlink:href="#11" y="21.71"/><use xlink:href="#12" y="23.881"/><use xlink:href="#13" y="26.052"/><use xlink:href="#14" y="30.394"/><use xlink:href="#15" y="32.565"/><use xlink:href="#16" y="34.736"/><use xlink:href="#17" y="36.907"/><use xlink:href="#18" y="39.078"/><use xlink:href="#19" y="41.249"/></svg><svg x="140"><use xlink:href="#a"/><use xlink:href="#b" x="87.996" y="43.395"/><use xlink:href="#1"/><use xlink:href="#2" y="2.171"/><use xlink:href="#3" y="4.342"/><use xlink:href="#4" y="6.513"/><use xlink:href="#5" y="8.684"/><use xlink:href="#6" y="10.855"/><use xlink:href="#7" y="13.026"/><use xlink:href="#8" y="15.197"/><use xlink:href="#9" y="17.368"/><use xlink:href="#10" y="19.539"/><use xlink:href="#11" y="21.71"/><use xlink:href="#12" y="23.881"/><use xlink:href="#13" y="26.052"/><use xlink:href="#14" y="30.394"/><use xlink:href="#15" y="32.565"/><use xlink:href="#16" y="34.736"/><use xlink:href="#17" y="36.907"/><use xlink:href="#18" y="39.078"/><use xlink:href="#19" y="41.249"/><use xlink:href="#20" y="43.42"/></svg><svg x="280"><use xlink:href="#a"/><use xlink:href="#b" x="-.004" y="43.395"/><use xlink:href="#3"/><use xlink:href="#4" y="2.171"/><use xlink:href="#5" y="4.342"/><use xlink:href="#6" y="6.513"/><use xlink:href="#7" y="8.684"/><use xlink:href="#8" y="10.855"/><use xlink:href="#9" y="13.026"/><use xlink:href="#10" y="15.197"/><use xlink:href="#11" y="17.368"/><use xlink:href="#12" y="19.539"/><use xlink:href="#13" y="21.71"/><use xlink:href="#14" y="26.052"/><use xlink:href="#15" y="28.223"/><use xlink:href="#16" y="30.394"/><use xlink:href="#17" y="32.565"/><use xlink:href="#18" y="34.736"/><use xlink:href="#19" y="36.907"/><use xlink:href="#20" y="39.078"/><text y="42.919" class="f">exit</text></svg></svg></g></g></svg></svg>