<svg xmlns="http://www.w3.org/2000/svg" xmlns:xlink="http://www.w3.org/1999/xlink" width="840" height="190.26"><rect width="840" height="190.26" rx="5" ry="5" class="a"/><svg y="0%" x="0%"><circle cx="20" cy="20" r="6" fill="#ff5f58"/><circle cx="40" cy="20" r="6" fill="#ffbd2e"/><circle cx="60" cy="20" r="6" fill="#18c132"/></svg><svg height="130.26" viewBox="0 0 80 13.026" width="800" x="15" xmlns="http://www.w3.org/2000/svg" xmlns:xlink="http://www.w3.org/1999/xlink" y="50"><style>.a{fill:#282d35}.h,.i{fill:#b9c0cb;white-space:pre}.i{fill:#e88388}</style><g font-family="Monaco,Consolas,Menlo,'Bitstream Vera Sans Mono','Powerline Symbols',monospace" font-size="1.67"><defs><symbol id="a"><path fill="transparent" d="M0 0h80v7H0z"/></symbol><symbol id="b"><path fill="#6f7683" d="M0 0h1.102v2.171H0z"/></symbol></defs><path class="a" d="M0 0h80v13.026H0z"/><svg width="80"><svg><use xlink:href="#a"/><use xlink:href="#b" x="-.004" y="10.83"/><text y="1.67" class="h">&gt;&gt;&gt;</text><text x="4.008" y="1.67" class="h">from</text><text x="9.018" y="1.67" class="h">search_query.parser</text><text x="29.058" y="1.67" class="h">import</text><text x="36.072" y="1.67" class="h">parse</text><text y="3.841" class="h">&gt;&gt;&gt;</text><text x="4.008" y="3.841" class="h">parse(&apos;crowdwork[ab]&apos;,</text><text x="27.054" y="3.841" class="h">platform=&quot;pubmed&quot;)</text><text y="6.012" class="i">Fatal</text><text x="5.01" y="6.012" class="h">:</text><text x="7.014" y="6.012" class="h">field-unsupported</text><text x="25.05" y="6.012" class="h">(FIELD_0001)</text><text x="2.004" y="8.183" class="h">-</text><text x="4.008" y="8.183" class="h">Search</text><text x="11.022" y="8.183" class="h">field</text><text x="17.034" y="8.183" class="h">[ab]</text><text x="22.044" y="8.183" class="h">is</text><text x="25.05" y="8.183" class="h">not</text><text x="29.058" y="8.183" class="h">supported.</text><text x="3.006" y="10.354" class="h">Query:</text><text x="10.02" y="10.354" class="h">crowdwork</text><text x="19.038" y="10.354" class="i">[ab]</text></svg></svg></g></svg></svg>