<svg xmlns="http://www.w3.org/2000/svg" xmlns:xlink="http://www.w3.org/1999/xlink" width="840" height="255.39"><rect width="840" height="255.39" rx="5" ry="5" class="a"/><svg y="0%" x="0%"><circle cx="20" cy="20" r="6" fill="#ff5f58"/><circle cx="40" cy="20" r="6" fill="#ffbd2e"/><circle cx="60" cy="20" r="6" fill="#18c132"/></svg><svg height="195.39" viewBox="0 0 80 19.539" width="800" x="15" xmlns="http://www.w3.org/2000/svg" xmlns:xlink="http://www.w3.org/1999/xlink" y="50"><style>.a{fill:#282d35}.h,.i{fill:#b9c0cb;white-space:pre}.i{fill:#e88388}</style><g font-family="Monaco,Consolas,Menlo,'Bitstream Vera Sans Mono','Powerline Symbols',monospace" font-size="1.67"><defs><symbol id="a"><path fill="transparent" d="M0 0h80v10H0z"/></symbol><symbol id="b"><path fill="#6f7683" d="M0 0h1.102v2.171H0z"/></symbol></defs><path class="a" d="M0 0h80v19.539H0z"/><svg width="80"><svg><use xlink:href="#a"/><use xlink:href="#b" x="-.004" y="17.343"/><text y="1.67" class="h">&gt;&gt;&gt;</text><text x="4.008" y="1.67" class="h">from</text><text x="9.018" y="1.67" class="h">search_query.parser</text><text x="29.058" y="1.67" class="h">import</text><text x="36.072" y="1.67" class="h">parse</text><text y="3.841" class="h">&gt;&gt;&gt;</text><text x="4.008" y="3.841" class="h">parse(&quot;((digital[ti]</text><text x="25.05" y="3.841" class="h">OR</text><text x="28.056" y="3.841" class="h">virtual[ti])</text><text x="41.082" y="3.841" class="h">AND</text><text x="45.09" y="3.841" class="h">AND</text><text x="49.098" y="3.841" class="h">work[ti]&quot;,</text><text x="60.12" y="3.841" class="h">platform=&quot;pubmed&quot;)</text><text y="6.012" class="i">Fatal</text><text x="5.01" y="6.012" class="h">:</text><text x="7.014" y="6.012" class="h">invalid-token-sequence</text><text x="30.06" y="6.012" class="h">(PARSE_0004)</text><text x="2.004" y="8.183" class="h">-</text><text x="4.008" y="8.183" class="h">Invalid</text><text x="12.024" y="8.183" class="h">operator</text><text x="21.042" y="8.183" class="h">position</text><text x="3.006" y="10.354" class="h">Query:</text><text x="10.02" y="10.354" class="h">((digital[ti]</text><text x="24.048" y="10.354" class="h">OR</text><text x="27.054" y="10.354" class="h">virtual[ti])</text><text x="40.08" y="10.354" class="i">AND</text><text x="44.088" y="10.354" class="i">AND</text><text x="48.096" y="10.354" class="h">work[ti]</text><text y="12.525" class="i">Fatal</text><text x="5.01" y="12.525" class="h">:</text><text x="7.014" y="12.525" class="h">unbalanced-parentheses</text><text x="30.06" y="12.525" class="h">(PARSE_0002)</text><text x="2.004" y="14.696" class="h">-</text><text x="4.008" y="14.696" class="h">Unbalanced</text><text x="15.03" y="14.696" class="h">opening</text><text x="23.046" y="14.696" class="h">parenthesis</text><text x="3.006" y="16.867" class="h">Query:</text><text x="10.02" y="16.867" class="i">(</text><text x="11.022" y="16.867" class="h">(digital[ti]</text><text x="24.048" y="16.867" class="h">OR</text><text x="27.054" y="16.867" class="h">virtual[ti])</text><text x="40.08" y="16.867" class="h">AND</text><text x="44.088" y="16.867" class="h">AND</text><text x="48.096" y="16.867" class="h">work[ti]</text></svg></svg></g></svg></svg>