<svg xmlns="http://www.w3.org/2000/svg" xmlns:xlink="http://www.w3.org/1999/xlink" width="840" height="429.07"><rect width="840" height="429.07" rx="5" ry="5" class="a"/><svg y="0%" x="0%"><circle cx="20" cy="20" r="6" fill="#ff5f58"/><circle cx="40" cy="20" r="6" fill="#ffbd2e"/><circle cx="60" cy="20" r="6" fill="#18c132"/></svg><svg height="369.07" viewBox="0 0 80 36.907" width="800" x="15" xmlns="http://www.w3.org/2000/svg" xmlns:xlink="http://www.w3.org/1999/xlink" y="50"><style>.a{fill:#282d35}.h,.i,.j{fill:#b9c0cb;white-space:pre}.i,.j{fill:#dbab79}.j{fill:#e88388}</style><g font-family="Monaco,Consolas,Menlo,'Bitstream Vera Sans Mono','Powerline Symbols',monospace" font-size="1.67"><defs><symbol id="a"><path fill="transparent" d="M0 0h80v18H0z"/></symbol><symbol id="b"><path fill="#6f7683" d="M0 0h1.102v2.171H0z"/></symbol></defs><path class="a" d="M0 0h80v36.907H0z"/><svg width="80"><svg><use xlink:href="#a"/><use xlink:href="#b" x="-.004" y="34.711"/><text y="1.67" class="h">&gt;&gt;&gt;</text><text x="4.008" y="1.67" class="h">from</text><text x="9.018" y="1.67" class="h">search_query.parser</text><text x="29.058" y="1.67" class="h">import</text><text x="36.072" y="1.67" class="h">parse</text><text y="3.841" class="h">&gt;&gt;&gt;</text><text x="4.008" y="3.841" class="h">parse(&apos;(digital[ti]</text><text x="24.048" y="3.841" class="h">OR</text><text x="27.054" y="3.841" class="h">online[ti])</text><text x="39.078" y="3.841" class="h">OR</text><text x="42.084" y="3.841" class="h">&quot;digital</text><text x="51.102" y="3.841" class="h">work&quot;[ti]&apos;,platform=&quot;pubmed&quot;)</text><text y="6.012" class="i">Warning</text><text x="7.014" y="6.012" class="h">:</text><text x="9.018" y="6.012" class="h">unnecessary-parentheses</text><text x="33.066" y="6.012" class="h">(QUALITY_0004)</text><text x="2.004" y="8.183" class="h">-</text><text x="4.008" y="8.183" class="h">Unnecessary</text><text x="16.032" y="8.183" class="h">parentheses</text><text x="28.056" y="8.183" class="h">around</text><text x="35.07" y="8.183" class="h">OR</text><text x="38.076" y="8.183" class="h">block(s).</text><text x="48.096" y="8.183" class="h">A</text><text x="50.1" y="8.183" class="h">query</text><text x="56.112" y="8.183" class="h">with</text><text x="61.122" y="8.183" class="h">the</text><text x="65.13" y="8.183" class="h">structure</text><text x="4.008" y="10.354" class="j">(</text><text x="5.01" y="10.354" class="h">A</text><text x="7.014" y="10.354" class="h">OR</text><text x="10.02" y="10.354" class="h">B</text><text x="11.022" y="10.354" class="j">)</text><text x="13.026" y="10.354" class="h">OR</text><text x="16.032" y="10.354" class="h">C</text><text x="5.01" y="12.525" class="h">can</text><text x="9.018" y="12.525" class="h">be</text><text x="12.024" y="12.525" class="h">simplified</text><text x="23.046" y="12.525" class="h">to</text><text x="4.008" y="14.696" class="h">A</text><text x="6.012" y="14.696" class="h">OR</text><text x="9.018" y="14.696" class="h">B</text><text x="11.022" y="14.696" class="h">OR</text><text x="14.028" y="14.696" class="h">C</text><text x="4.008" y="16.867" class="h">with</text><text x="6.012" y="19.038" class="h">A:</text><text x="9.018" y="19.038" class="h">digital</text><text x="6.012" y="21.209" class="h">B:</text><text x="9.018" y="21.209" class="h">online</text><text x="6.012" y="23.38" class="h">C:</text><text x="9.018" y="23.38" class="h">&quot;digital</text><text x="18.036" y="23.38" class="h">work&quot;.</text><text y="25.551" class="i">Warning</text><text x="7.014" y="25.551" class="h">:</text><text x="9.018" y="25.551" class="h">redundant-term</text><text x="24.048" y="25.551" class="h">(QUALITY_0005)</text><text x="2.004" y="27.722" class="h">-</text><text x="4.008" y="27.722" class="h">Results</text><text x="12.024" y="27.722" class="h">for</text><text x="16.032" y="27.722" class="h">term</text><text x="21.042" y="27.722" class="i">&quot;digital</text><text x="30.06" y="27.722" class="i">work&quot;</text><text x="36.072" y="27.722" class="h">are</text><text x="40.08" y="27.722" class="h">contained</text><text x="50.1" y="27.722" class="h">in</text><text x="53.106" y="27.722" class="h">the</text><text x="57.114" y="27.722" class="h">more</text><text x="62.124" y="27.722" class="h">general</text><text x="70.14" y="27.722" class="h">search</text><text x="77.154" y="27.722" class="h">for</text><text x="4.008" y="29.893" class="i">digital</text><text x="11.022" y="29.893" class="h">.</text><text x="4.008" y="32.064" class="h">As</text><text x="7.014" y="32.064" class="h">both</text><text x="12.024" y="32.064" class="h">terms</text><text x="18.036" y="32.064" class="h">are</text><text x="22.044" y="32.064" class="h">connected</text><text x="32.064" y="32.064" class="h">with</text><text x="37.074" y="32.064" class="h">OR,</text><text x="41.082" y="32.064" class="h">the</text><text x="45.09" y="32.064" class="h">term</text><text x="50.1" y="32.064" class="h">&quot;digital</text><text x="59.118" y="32.064" class="h">work&quot;</text><text x="65.13" y="32.064" class="h">is</text><text x="68.136" y="32.064" class="h">redundant.</text><text x="3.006" y="34.235" class="h">Query:</text><text x="10.02" y="34.235" class="h">(</text><text x="11.022" y="34.235" class="i">digital</text><text x="18.036" y="34.235" class="h">[ti]</text><text x="23.046" y="34.235" class="h">OR</text><text x="26.052" y="34.235" class="h">online[ti])</text><text x="38.076" y="34.235" class="h">OR</text><text x="41.082" y="34.235" class="i">&quot;digital</text><text x="50.1" y="34.235" class="i">work&quot;</text><text x="55.11" y="34.235" class="h">[ti]</text></svg></svg></g></svg></svg>