<svg xmlns="http://www.w3.org/2000/svg" xmlns:xlink="http://www.w3.org/1999/xlink" width="840" height="472.49"><rect width="840" height="472.49" rx="5" ry="5" class="a"/><svg y="0%" x="0%"><circle cx="20" cy="20" r="6" fill="#ff5f58"/><circle cx="40" cy="20" r="6" fill="#ffbd2e"/><circle cx="60" cy="20" r="6" fill="#18c132"/></svg><svg height="412.49" viewBox="0 0 80 41.249" width="800" x="15" xmlns="http://www.w3.org/2000/svg" xmlns:xlink="http://www.w3.org/1999/xlink" y="50"><style>.a{fill:#282d35}.f,.g{fill:#b9c0cb;white-space:pre}.g{fill:#dbab79}</style><g font-family="Monaco,Consolas,Menlo,'Bitstream Vera Sans Mono','Powerline Symbols',monospace" font-size="1.67"><defs><symbol id="1"><text x="3.006" y="1.67" class="f">Query:</text><text x="10.02" y="1.67" class="f">crowdwork[ti]</text><text x="24.048" y="1.67" class="g">or</text><text x="27.054" y="1.67" class="f">digital[ti]</text><text x="39.078" y="1.67" class="g">and</text><text x="43.086" y="1.67" class="f">work[ti]</text></symbol><symbol id="a"><path fill="transparent" d="M0 0h80v20H0z"/></symbol><symbol id="b"><path fill="#6f7683" d="M0 0h1.102v2.171H0z"/></symbol></defs><path class="a" d="M0 0h80v41.249H0z"/><svg width="80"><svg><use xlink:href="#a"/><use xlink:href="#b" x="-.004" y="39.053"/><text y="1.67" class="f">&gt;&gt;&gt;</text><text x="4.008" y="1.67" class="f">from</text><text x="9.018" y="1.67" class="f">search_query.parser</text><text x="29.058" y="1.67" class="f">import</text><text x="36.072" y="1.67" class="f">parse</text><text y="3.841" class="f">&gt;&gt;&gt;</text><text x="4.008" y="3.841" class="f">parse(&quot;crowdwork[ti]</text><text x="25.05" y="3.841" class="f">or</text><text x="28.056" y="3.841" class="f">digital[ti]</text><text x="40.08" y="3.841" class="f">and</text><text x="44.088" y="3.841" class="f">work[ti]&quot;,</text><text x="55.11" y="3.841" class="f">platform=&quot;pubmed&quot;)</text><text y="6.012" class="g">Warning</text><text x="7.014" y="6.012" class="f">:</text><text x="9.018" y="6.012" class="f">implicit-precedence</text><text x="29.058" y="6.012" class="f">(STRUCT_0001)</text><text x="2.004" y="8.183" class="f">-</text><text x="4.008" y="8.183" class="f">The</text><text x="8.016" y="8.183" class="f">query</text><text x="14.028" y="8.183" class="f">uses</text><text x="19.038" y="8.183" class="f">multiple</text><text x="28.056" y="8.183" class="f">operators,</text><text x="39.078" y="8.183" class="f">but</text><text x="43.086" y="8.183" class="f">without</text><text x="51.102" y="8.183" class="f">parentheses</text><text x="63.126" y="8.183" class="f">to</text><text x="66.132" y="8.183" class="f">make</text><text x="71.142" y="8.183" class="f">the</text><text x="4.008" y="10.354" class="f">intended</text><text x="13.026" y="10.354" class="f">logic</text><text x="19.038" y="10.354" class="f">explicit.</text><text x="29.058" y="10.354" class="f">PubMed</text><text x="36.072" y="10.354" class="f">evaluates</text><text x="46.092" y="10.354" class="f">queries</text><text x="54.108" y="10.354" class="f">strictly</text><text x="63.126" y="10.354" class="f">from</text><text x="68.136" y="10.354" class="f">left</text><text x="73.146" y="10.354" class="f">to</text><text x="4.008" y="12.525" class="f">right</text><text x="10.02" y="12.525" class="f">without</text><text x="18.036" y="12.525" class="f">applying</text><text x="27.054" y="12.525" class="f">traditional</text><text x="39.078" y="12.525" class="f">operator</text><text x="48.096" y="12.525" class="f">precedence.</text><text x="60.12" y="12.525" class="f">This</text><text x="65.13" y="12.525" class="f">can</text><text x="69.138" y="12.525" class="f">lead</text><text x="74.148" y="12.525" class="f">to</text><text x="4.008" y="14.696" class="f">unexpected</text><text x="15.03" y="14.696" class="f">interpretations</text><text x="31.062" y="14.696" class="f">of</text><text x="34.068" y="14.696" class="f">the</text><text x="38.076" y="14.696" class="f">query.</text><text x="4.008" y="19.038" class="f">Specifically:</text><text x="4.008" y="21.209" class="f">-</text><text x="6.012" y="21.209" class="g">or</text><text x="9.018" y="21.209" class="f">is</text><text x="12.024" y="21.209" class="f">evaluated</text><text x="22.044" y="21.209" class="f">first</text><text x="28.056" y="21.209" class="f">because</text><text x="36.072" y="21.209" class="f">it</text><text x="39.078" y="21.209" class="f">is</text><text x="42.084" y="21.209" class="f">the</text><text x="46.092" y="21.209" class="f">leftmost</text><text x="55.11" y="21.209" class="f">operator</text><text x="4.008" y="23.38" class="f">-</text><text x="6.012" y="23.38" class="g">and</text><text x="10.02" y="23.38" class="f">is</text><text x="13.026" y="23.38" class="f">evaluated</text><text x="23.046" y="23.38" class="f">last</text><text x="28.056" y="23.38" class="f">because</text><text x="36.072" y="23.38" class="f">it</text><text x="39.078" y="23.38" class="f">is</text><text x="42.084" y="23.38" class="f">the</text><text x="46.092" y="23.38" class="f">rightmost</text><text x="56.112" y="23.38" class="f">operator</text><text x="4.008" y="27.722" class="f">To</text><text x="7.014" y="27.722" class="f">fix</text><text x="11.022" y="27.722" class="f">this,</text><text x="17.034" y="27.722" class="f">search-query</text><text x="30.06" y="27.722" class="f">adds</text><text x="35.07" y="27.722" class="f">artificial</text><text x="46.092" y="27.722" class="f">parentheses</text><text x="58.116" y="27.722" class="f">around</text><text x="4.008" y="29.893" class="f">operators</text><text x="14.028" y="29.893" class="f">based</text><text x="20.04" y="29.893" class="f">on</text><text x="23.046" y="29.893" class="f">their</text><text x="29.058" y="29.893" class="f">left-to-right</text><text x="43.086" y="29.893" class="f">position</text><text x="52.104" y="29.893" class="f">in</text><text x="55.11" y="29.893" class="f">the</text><text x="59.118" y="29.893" class="f">query.</text><use xlink:href="#1" y="30.394"/><text y="34.235" class="g">Warning</text><text x="7.014" y="34.235" class="f">:</text><text x="9.018" y="34.235" class="f">operator-capitalization</text><text x="33.066" y="34.235" class="f">(STRUCT_0002)</text><text x="2.004" y="36.406" class="f">-</text><text x="4.008" y="36.406" class="f">Operators</text><text x="14.028" y="36.406" class="f">should</text><text x="21.042" y="36.406" class="f">be</text><text x="24.048" y="36.406" class="f">capitalized</text><use xlink:href="#1" y="36.907"/></svg></svg></g></svg></svg>