<!--
This file is part of OpenTTDLab.
Copyright © OpenTTD Team: initial logo for OpenTTD
Copyright © <https://commons.wikimedia.org/wiki/User:Stannered>: conversion to SVG
Copyright © Michal Charemza: conversion to logo for OpenTTDLab
OpenTTDLab is free software; you can redistribute it and/or modify it under the terms of the GNU General Public License as published by the Free Software Foundation, version 2.
OpenTTDLab is distributed in the hope that it will be useful, but WITHOUT ANY WARRANTY; without even the implied warranty of MERCHANTABILITY or FITNESS FOR A PARTICULAR PURPOSE.
See the GNU General Public License for more details. You should have received a copy of the GNU General Public License along with OpenTTDLab. If not, see <http://www.gnu.org/licenses/>.
-->
<svg width="256.001" height="253.326" xmlns:xlink="http://www.w3.org/1999/xlink" xmlns="http://www.w3.org/2000/svg" role="img"><title>OpenTTDLab</title><defs><linearGradient x1="136.33" y1="151.17" x2="117.66" y2="78.46" id="d" xlink:href="#a" gradientUnits="userSpaceOnUse"/><linearGradient id="a"><stop style="stop-color:#fe7600;stop-opacity:1" offset="0"/><stop style="stop-color:#f2b26d;stop-opacity:1" offset="1"/></linearGradient><linearGradient x1="312.62" y1="468.59" x2="315.22" y2="471.18" id="e" xlink:href="#b" gradientUnits="userSpaceOnUse" gradientTransform="translate(-2.26 40.46)"/><linearGradient id="b"><stop style="stop-color:#fff;stop-opacity:1" offset="0"/><stop style="stop-color:#fff;stop-opacity:0" offset="1"/></linearGradient><linearGradient x1="312.62" y1="468.59" x2="315.22" y2="471.18" id="f" xlink:href="#b" gradientUnits="userSpaceOnUse" gradientTransform="translate(.36 -.15)"/><filter id="c" x="-.012" y="-.012" width="1.024" height="1.024"><feGaussianBlur stdDeviation="1.22"/></filter></defs><g transform="translate(-252.52 -415.543) scale(1.01625)"><path d="M128.52 3.47c-.49.02-.95.22-1.32.6L7.66 122.4a2.02 2.02 0 0 0 0 2.84l18.76 17.6L5 163.08a1.98 1.98 0 0 0 0 2.82l80.4 80.4a2 2 0 0 0 2.82 0l20.25-20.25 17.6 17.6c.77.78 2.02.78 2.8 0l17.57-17.57 20.22 20.22c.78.78 2.06.78 2.84 0l80.38-80.4a2 2 0 0 0 0-2.82l-19.05-20.22 17.6-17.59c.77-.78.77-2.06 0-2.84L130.04 4.06a2.78 2.78 0 0 0-.16-.15c-.4-.33-.9-.47-1.37-.44zm10.15 48.86 1.3 49.94 27 53.74-2.56 13.4-74.35-.6-3.6-13.22 27.65-53.1 1.13-49.97z" style="opacity:1;fill:#000;fill-opacity:.35;fill-rule:evenodd;stroke:none;stroke-width:4;stroke-linecap:round;stroke-linejoin:round;stroke-miterlimit:4;stroke-dasharray:none;stroke-dashoffset:0;stroke-opacity:1;filter:url(#c)" transform="translate(247 408.36)"/><rect style="fill:#6ad636;fill-opacity:1;stroke:#000;stroke-width:2.27761;stroke-dasharray:none;stroke-opacity:1" width="88.14" height="25.99" x="329.04" y="552.23" ry="0"/><path style="opacity:1;fill:url(#d);fill-opacity:1;fill-rule:evenodd;stroke:none;stroke-width:2.00049;stroke-linecap:round;stroke-linejoin:round;stroke-miterlimit:4;stroke-dasharray:none;stroke-dashoffset:0;stroke-opacity:1" d="M125.44 3.47 7.06 121.84l118.38 118.38 118.4-118.38Zm14.18 46.17 1.16 52.57 27.09 53.59-2.61 14.44-76.84-.06-4.56-14.8 27.61-53.09 1.15-52.6z" transform="translate(247 408.36)"/><path transform="rotate(45)" style="opacity:1;fill:#6ad636;fill-opacity:1;fill-rule:evenodd;stroke:#000;stroke-width:4;stroke-linecap:round;stroke-linejoin:round;stroke-miterlimit:4;stroke-dasharray:none;stroke-dashoffset:0;stroke-opacity:1" d="M581.44 195.3h113.67v30.56H581.44Z"/><path d="m271.41 548.05-21.37 21.37a2 2 0 1 0 2.83 2.82l21.91-21.91z" style="opacity:.7;fill:url(#e);fill-opacity:1;fill-rule:evenodd;stroke:none;stroke-width:4;stroke-linecap:round;stroke-linejoin:round;stroke-miterlimit:4;stroke-dashoffset:0;stroke-opacity:1"/><path transform="rotate(45)" style="opacity:1;fill:none;fill-opacity:1;fill-rule:evenodd;stroke:#000;stroke-width:4;stroke-linecap:round;stroke-linejoin:round;stroke-miterlimit:4;stroke-dasharray:none;stroke-dashoffset:0;stroke-opacity:1" d="M554.57 27.85h167.41v167.41H554.57Z"/><path d="M373.71 410.24a2 2 0 0 0-2.67.2L252.66 528.8a2.001 2.001 0 1 0 2.83 2.83l118.38-118.37a2 2 0 0 0-.16-3.03z" style="opacity:.7;fill:url(#f);fill-opacity:1;fill-rule:evenodd;stroke:none;stroke-width:4;stroke-linecap:round;stroke-linejoin:round;stroke-miterlimit:4;stroke-dashoffset:0;stroke-opacity:1"/><path transform="rotate(135)" style="opacity:1;fill:#6ad636;fill-opacity:1;fill-rule:evenodd;stroke:#000;stroke-width:4;stroke-linecap:round;stroke-linejoin:round;stroke-miterlimit:4;stroke-dasharray:none;stroke-dashoffset:0;stroke-opacity:1" d="M54.72-752.59h113.67v30.56H54.72Z"/><path transform="rotate(45)" style="fill:none;fill-opacity:1;fill-rule:evenodd;stroke:#000;stroke-width:4;stroke-linecap:round;stroke-linejoin:miter;stroke-miterlimit:4;stroke-dasharray:none;stroke-dashoffset:0;stroke-opacity:1" d="M602.3 203.53h11.14v14.09H602.3Zm20.27 0h11.14v8.51h-11.14z"/><path d="m308.55 616.32-7.87-7.88 9.96-9.96 7.88 7.88m-3.51 16.42 9.96-9.96 7.88 7.87-9.96 9.97" style="fill:none;fill-opacity:1;fill-rule:evenodd;stroke:#000;stroke-width:4;stroke-linecap:square;stroke-linejoin:miter;stroke-miterlimit:4;stroke-dashoffset:0;stroke-opacity:1"/><path d="m445.05 584.86 1.41 1.42 9.97 9.96 1.41 1.42 1.41-1.42 6.48-6.47-2.83-2.83 2.83-2.83-7.14-7.14-2.83 2.83-2.83-2.83-6.47 6.48zm5.65 0 5.06-5.06 7.14 7.14-5.06 5.06z" style="fill:#000;fill-opacity:1;fill-rule:evenodd;stroke:none;stroke-width:4;stroke-linecap:round;stroke-linejoin:miter;stroke-miterlimit:4;stroke-dasharray:none;stroke-dashoffset:0;stroke-opacity:1"/><path d="m427.1 605.65-7.89 7.88m13.91 6.02-9.97-9.96m18.28-18.28-7.88 7.88m13.9 6.03-9.96-9.97m-141.19-11.1-9.96 9.96" style="fill:none;fill-opacity:1;fill-rule:evenodd;stroke:#000;stroke-width:4;stroke-linecap:square;stroke-linejoin:round;stroke-miterlimit:4;stroke-dashoffset:0;stroke-opacity:1"/><path d="m306.75 602.36 7.88 7.88" style="fill:none;fill-opacity:1;fill-rule:evenodd;stroke:#000;stroke-width:4;stroke-linecap:square;stroke-linejoin:miter;stroke-miterlimit:4;stroke-dashoffset:0;stroke-opacity:1"/><path style="fill:none" d="M378.6 541.03h17.03v16.67H378.6Z"/><path style="fill:none" d="M370.8 546.7h14.19v.35H370.8Z"/><path style="fill:none" d="M365.48 539.96h23.77v13.12h-23.77z"/><path style="fill:none" d="M322.91 515.13h63.85v29.8h-63.85z"/><path d="m386.62 458 1.16 52.57 27.09 53.59-2.61 14.44-76.84-.06-4.56-14.8 27.61-53.09 1.15-52.6z" style="fill:none;fill-opacity:1;fill-rule:evenodd;stroke:#000;stroke-width:2.00049;stroke-linecap:round;stroke-linejoin:round;stroke-miterlimit:4;stroke-dasharray:none;stroke-dashoffset:0;stroke-opacity:1"/></g><path d="M104.15 150.237v17.86h11.91v-2.96h-8.87v-14.9h-3zm19.17 0v2.95h5.95v-2.95zm5.95 2.95v6h-5.95v-6h-3v14.9h3v-5.95h5.95v5.96h3v-14.9zm7.23-2.95v17.86h8.94v-2.96h-5.95v-5.96h5.95v-3h-5.95v-2.99h5.95v-2.95zm8.94 2.95v3h3v-3zm0 6v5.95h3v-5.96z" style="stroke-width:3.84098"/></svg>