<svg xmlns="http://www.w3.org/2000/svg" xmlns:xlink="http://www.w3.org/1999/xlink" width="600" height="400" viewBox="0 0 2400 1600">
<defs>
  <clipPath id="clip630">
    <rect x="0" y="0" width="2400" height="1600"></rect>
  </clipPath>
</defs>
<path clip-path="url(#clip630)" d="M0 1600 L2400 1600 L2400 0 L0 0  Z" fill="#ffffff" fill-rule="evenodd" fill-opacity="1"></path>
<defs>
  <clipPath id="clip631">
    <rect x="480" y="0" width="1681" height="1600"></rect>
  </clipPath>
</defs>
<path clip-path="url(#clip630)" d="M179.297 1419.33 L1113.8 1419.33 L1113.8 123.472 L179.297 123.472  Z" fill="#ffffff" fill-rule="evenodd" fill-opacity="1"></path>
<defs>
  <clipPath id="clip632">
    <rect x="179" y="123" width="936" height="1297"></rect>
  </clipPath>
</defs>
<polyline clip-path="url(#clip632)" style="stroke:#000000; stroke-linecap:round; stroke-linejoin:round; stroke-width:2; stroke-opacity:0.1; fill:none" points="205.745,1419.33 205.745,123.472 "></polyline>
<polyline clip-path="url(#clip632)" style="stroke:#000000; stroke-linecap:round; stroke-linejoin:round; stroke-width:2; stroke-opacity:0.1; fill:none" points="426.148,1419.33 426.148,123.472 "></polyline>
<polyline clip-path="url(#clip632)" style="stroke:#000000; stroke-linecap:round; stroke-linejoin:round; stroke-width:2; stroke-opacity:0.1; fill:none" points="646.55,1419.33 646.55,123.472 "></polyline>
<polyline clip-path="url(#clip632)" style="stroke:#000000; stroke-linecap:round; stroke-linejoin:round; stroke-width:2; stroke-opacity:0.1; fill:none" points="866.952,1419.33 866.952,123.472 "></polyline>
<polyline clip-path="url(#clip632)" style="stroke:#000000; stroke-linecap:round; stroke-linejoin:round; stroke-width:2; stroke-opacity:0.1; fill:none" points="1087.35,1419.33 1087.35,123.472 "></polyline>
<polyline clip-path="url(#clip632)" style="stroke:#000000; stroke-linecap:round; stroke-linejoin:round; stroke-width:2; stroke-opacity:0.1; fill:none" points="179.297,1322.41 1113.8,1322.41 "></polyline>
<polyline clip-path="url(#clip632)" style="stroke:#000000; stroke-linecap:round; stroke-linejoin:round; stroke-width:2; stroke-opacity:0.1; fill:none" points="179.297,1102 1113.8,1102 "></polyline>
<polyline clip-path="url(#clip632)" style="stroke:#000000; stroke-linecap:round; stroke-linejoin:round; stroke-width:2; stroke-opacity:0.1; fill:none" points="179.297,881.601 1113.8,881.601 "></polyline>
<polyline clip-path="url(#clip632)" style="stroke:#000000; stroke-linecap:round; stroke-linejoin:round; stroke-width:2; stroke-opacity:0.1; fill:none" points="179.297,661.199 1113.8,661.199 "></polyline>
<polyline clip-path="url(#clip632)" style="stroke:#000000; stroke-linecap:round; stroke-linejoin:round; stroke-width:2; stroke-opacity:0.1; fill:none" points="179.297,440.797 1113.8,440.797 "></polyline>
<polyline clip-path="url(#clip632)" style="stroke:#000000; stroke-linecap:round; stroke-linejoin:round; stroke-width:2; stroke-opacity:0.1; fill:none" points="179.297,220.395 1113.8,220.395 "></polyline>
<polyline clip-path="url(#clip630)" style="stroke:#000000; stroke-linecap:round; stroke-linejoin:round; stroke-width:4; stroke-opacity:1; fill:none" points="179.297,1419.33 1113.8,1419.33 "></polyline>
<polyline clip-path="url(#clip630)" style="stroke:#000000; stroke-linecap:round; stroke-linejoin:round; stroke-width:4; stroke-opacity:1; fill:none" points="205.745,1419.33 205.745,1400.43 "></polyline>
<polyline clip-path="url(#clip630)" style="stroke:#000000; stroke-linecap:round; stroke-linejoin:round; stroke-width:4; stroke-opacity:1; fill:none" points="426.148,1419.33 426.148,1400.43 "></polyline>
<polyline clip-path="url(#clip630)" style="stroke:#000000; stroke-linecap:round; stroke-linejoin:round; stroke-width:4; stroke-opacity:1; fill:none" points="646.55,1419.33 646.55,1400.43 "></polyline>
<polyline clip-path="url(#clip630)" style="stroke:#000000; stroke-linecap:round; stroke-linejoin:round; stroke-width:4; stroke-opacity:1; fill:none" points="866.952,1419.33 866.952,1400.43 "></polyline>
<polyline clip-path="url(#clip630)" style="stroke:#000000; stroke-linecap:round; stroke-linejoin:round; stroke-width:4; stroke-opacity:1; fill:none" points="1087.35,1419.33 1087.35,1400.43 "></polyline>
<path clip-path="url(#clip630)" d="M196.127 1477.79 L203.766 1477.79 L203.766 1451.43 L195.456 1453.09 L195.456 1448.83 L203.72 1447.17 L208.396 1447.17 L208.396 1477.79 L216.035 1477.79 L216.035 1481.73 L196.127 1481.73 L196.127 1477.79 Z" fill="#000000" fill-rule="nonzero" fill-opacity="1"></path><path clip-path="url(#clip630)" d="M420.8 1477.79 L437.12 1477.79 L437.12 1481.73 L415.175 1481.73 L415.175 1477.79 Q417.837 1475.04 422.421 1470.41 Q427.027 1465.76 428.208 1464.41 Q430.453 1461.89 431.333 1460.15 Q432.235 1458.39 432.235 1456.7 Q432.235 1453.95 430.291 1452.21 Q428.37 1450.48 425.268 1450.48 Q423.069 1450.48 420.615 1451.24 Q418.185 1452.01 415.407 1453.56 L415.407 1448.83 Q418.231 1447.7 420.685 1447.12 Q423.138 1446.54 425.175 1446.54 Q430.546 1446.54 433.74 1449.23 Q436.935 1451.91 436.935 1456.4 Q436.935 1458.53 436.124 1460.45 Q435.337 1462.35 433.231 1464.95 Q432.652 1465.62 429.55 1468.83 Q426.448 1472.03 420.8 1477.79 Z" fill="#000000" fill-rule="nonzero" fill-opacity="1"></path><path clip-path="url(#clip630)" d="M650.797 1463.09 Q654.154 1463.81 656.029 1466.08 Q657.927 1468.35 657.927 1471.68 Q657.927 1476.8 654.409 1479.6 Q650.89 1482.4 644.409 1482.4 Q642.233 1482.4 639.918 1481.96 Q637.626 1481.54 635.173 1480.69 L635.173 1476.17 Q637.117 1477.31 639.432 1477.89 Q641.747 1478.46 644.27 1478.46 Q648.668 1478.46 650.959 1476.73 Q653.274 1474.99 653.274 1471.68 Q653.274 1468.63 651.121 1466.91 Q648.992 1465.18 645.172 1465.18 L641.145 1465.18 L641.145 1461.33 L645.358 1461.33 Q648.807 1461.33 650.635 1459.97 Q652.464 1458.58 652.464 1455.99 Q652.464 1453.33 650.566 1451.91 Q648.691 1450.48 645.172 1450.48 Q643.251 1450.48 641.052 1450.89 Q638.853 1451.31 636.214 1452.19 L636.214 1448.02 Q638.876 1447.28 641.191 1446.91 Q643.529 1446.54 645.589 1446.54 Q650.913 1446.54 654.015 1448.97 Q657.117 1451.38 657.117 1455.5 Q657.117 1458.37 655.473 1460.36 Q653.83 1462.33 650.797 1463.09 Z" fill="#000000" fill-rule="nonzero" fill-opacity="1"></path><path clip-path="url(#clip630)" d="M869.961 1451.24 L858.156 1469.69 L869.961 1469.69 L869.961 1451.24 M868.734 1447.17 L874.614 1447.17 L874.614 1469.69 L879.544 1469.69 L879.544 1473.58 L874.614 1473.58 L874.614 1481.73 L869.961 1481.73 L869.961 1473.58 L854.359 1473.58 L854.359 1469.07 L868.734 1447.17 Z" fill="#000000" fill-rule="nonzero" fill-opacity="1"></path><path clip-path="url(#clip630)" d="M1077.63 1447.17 L1095.99 1447.17 L1095.99 1451.1 L1081.91 1451.1 L1081.91 1459.58 Q1082.93 1459.23 1083.95 1459.07 Q1084.97 1458.88 1085.99 1458.88 Q1091.78 1458.88 1095.16 1462.05 Q1098.53 1465.22 1098.53 1470.64 Q1098.53 1476.22 1095.06 1479.32 Q1091.59 1482.4 1085.27 1482.4 Q1083.09 1482.4 1080.83 1482.03 Q1078.58 1481.66 1076.17 1480.92 L1076.17 1476.22 Q1078.26 1477.35 1080.48 1477.91 Q1082.7 1478.46 1085.18 1478.46 Q1089.18 1478.46 1091.52 1476.36 Q1093.86 1474.25 1093.86 1470.64 Q1093.86 1467.03 1091.52 1464.92 Q1089.18 1462.82 1085.18 1462.82 Q1083.3 1462.82 1081.43 1463.23 Q1079.58 1463.65 1077.63 1464.53 L1077.63 1447.17 Z" fill="#000000" fill-rule="nonzero" fill-opacity="1"></path><path clip-path="url(#clip630)" d="M650.091 1507.71 Q650.091 1508.55 649.737 1510.16 Q648.61 1514.7 644.391 1517.83 Q643.682 1518.41 642.426 1519.15 Q643.94 1520.14 645.26 1521.98 Q647.225 1525.01 647.225 1529.1 Q647.225 1531 646.71 1533.32 Q645.26 1538.7 640.172 1542.56 Q635.051 1546.33 628.964 1546.33 Q625.679 1546.33 623.425 1544.59 Q621.203 1542.82 620.333 1539.85 L615.856 1557.92 Q615.76 1558.37 615.18 1558.37 L614.858 1558.37 Q614.182 1558.37 614.182 1557.6 L624.359 1517.02 Q625.035 1514.28 626.13 1511.71 Q627.225 1509.13 628.739 1506.81 Q630.285 1504.49 632.056 1502.79 Q633.827 1501.05 636.017 1500.05 Q638.207 1499.02 640.526 1499.02 Q645.389 1499.02 648.159 1502.33 Q650.091 1504.69 650.091 1507.71 M646.387 1506.55 Q646.387 1504.56 645.582 1503.17 Q643.94 1500.53 640.462 1500.53 Q638.368 1500.53 636.371 1501.5 Q634.407 1502.43 632.829 1504.04 Q631.251 1505.65 629.898 1507.84 Q628.545 1510.03 627.547 1512.42 Q626.581 1514.77 625.937 1517.34 L621.975 1533.32 Q621.589 1535.02 621.589 1536.54 Q621.589 1540.14 623.586 1542.5 Q625.583 1544.85 629.029 1544.85 Q633.602 1544.85 637.531 1541.43 Q640.945 1538.37 642.362 1532.99 Q643.167 1529.61 643.167 1527.26 Q643.167 1524.69 642.233 1522.69 Q641.557 1521.08 640.236 1520.11 Q637.789 1520.98 635.309 1520.98 Q634.117 1520.98 633.473 1520.95 Q632.861 1520.92 631.959 1520.79 Q631.09 1520.66 630.671 1520.31 Q630.285 1519.95 630.285 1519.4 Q630.285 1519.08 630.349 1518.95 Q630.478 1518.44 630.896 1518.08 Q631.315 1517.73 631.798 1517.57 Q632.281 1517.37 633.086 1517.28 Q633.924 1517.18 634.471 1517.18 Q635.019 1517.15 635.953 1517.15 Q638.143 1517.15 640.365 1518.02 Q641.202 1517.57 642.104 1516.76 Q644.97 1514.09 645.937 1509.84 Q646.387 1508.26 646.387 1506.55 M638.272 1519.02 Q636.919 1518.66 635.888 1518.66 Q632.12 1518.66 631.927 1519.27 Q631.927 1519.34 632.056 1519.4 Q632.185 1519.44 632.475 1519.47 Q632.797 1519.47 633.054 1519.5 Q633.344 1519.53 633.827 1519.53 Q634.31 1519.53 634.568 1519.53 Q634.858 1519.53 635.373 1519.53 Q636.661 1519.53 638.272 1519.02 Z" fill="#000000" fill-rule="nonzero" fill-opacity="1"></path><path clip-path="url(#clip630)" d="M656.784 1550.17 L656.784 1548.72 Q662.33 1548.72 665.193 1545.77 Q665.982 1545.77 666.117 1545.95 Q666.253 1546.13 666.253 1546.96 L666.253 1572.87 Q666.253 1574.24 666.929 1574.67 Q667.605 1575.1 670.559 1575.1 L672.024 1575.1 L672.024 1576.52 Q670.401 1576.38 664.539 1576.38 Q658.678 1576.38 657.077 1576.52 L657.077 1575.1 L658.543 1575.1 Q661.451 1575.1 662.15 1574.69 Q662.848 1574.27 662.848 1572.87 L662.848 1548.95 Q660.436 1550.17 656.784 1550.17 Z" fill="#000000" fill-rule="nonzero" fill-opacity="1"></path><polyline clip-path="url(#clip630)" style="stroke:#000000; stroke-linecap:round; stroke-linejoin:round; stroke-width:4; stroke-opacity:1; fill:none" points="179.297,1419.33 179.297,123.472 "></polyline>
<polyline clip-path="url(#clip630)" style="stroke:#000000; stroke-linecap:round; stroke-linejoin:round; stroke-width:4; stroke-opacity:1; fill:none" points="179.297,1322.41 198.195,1322.41 "></polyline>
<polyline clip-path="url(#clip630)" style="stroke:#000000; stroke-linecap:round; stroke-linejoin:round; stroke-width:4; stroke-opacity:1; fill:none" points="179.297,1102 198.195,1102 "></polyline>
<polyline clip-path="url(#clip630)" style="stroke:#000000; stroke-linecap:round; stroke-linejoin:round; stroke-width:4; stroke-opacity:1; fill:none" points="179.297,881.601 198.195,881.601 "></polyline>
<polyline clip-path="url(#clip630)" style="stroke:#000000; stroke-linecap:round; stroke-linejoin:round; stroke-width:4; stroke-opacity:1; fill:none" points="179.297,661.199 198.195,661.199 "></polyline>
<polyline clip-path="url(#clip630)" style="stroke:#000000; stroke-linecap:round; stroke-linejoin:round; stroke-width:4; stroke-opacity:1; fill:none" points="179.297,440.797 198.195,440.797 "></polyline>
<polyline clip-path="url(#clip630)" style="stroke:#000000; stroke-linecap:round; stroke-linejoin:round; stroke-width:4; stroke-opacity:1; fill:none" points="179.297,220.395 198.195,220.395 "></polyline>
<path clip-path="url(#clip630)" d="M131.353 1308.2 Q127.742 1308.2 125.913 1311.77 Q124.107 1315.31 124.107 1322.44 Q124.107 1329.55 125.913 1333.11 Q127.742 1336.65 131.353 1336.65 Q134.987 1336.65 136.792 1333.11 Q138.621 1329.55 138.621 1322.44 Q138.621 1315.31 136.792 1311.77 Q134.987 1308.2 131.353 1308.2 M131.353 1304.5 Q137.163 1304.5 140.218 1309.11 Q143.297 1313.69 143.297 1322.44 Q143.297 1331.17 140.218 1335.77 Q137.163 1340.36 131.353 1340.36 Q125.543 1340.36 122.464 1335.77 Q119.408 1331.17 119.408 1322.44 Q119.408 1313.69 122.464 1309.11 Q125.543 1304.5 131.353 1304.5 Z" fill="#000000" fill-rule="nonzero" fill-opacity="1"></path><path clip-path="url(#clip630)" d="M123.39 1115.35 L131.029 1115.35 L131.029 1088.98 L122.718 1090.65 L122.718 1086.39 L130.982 1084.72 L135.658 1084.72 L135.658 1115.35 L143.297 1115.35 L143.297 1119.28 L123.39 1119.28 L123.39 1115.35 Z" fill="#000000" fill-rule="nonzero" fill-opacity="1"></path><path clip-path="url(#clip630)" d="M126.978 894.946 L143.297 894.946 L143.297 898.881 L121.353 898.881 L121.353 894.946 Q124.015 892.191 128.598 887.562 Q133.205 882.909 134.385 881.566 Q136.63 879.043 137.51 877.307 Q138.413 875.548 138.413 873.858 Q138.413 871.104 136.468 869.367 Q134.547 867.631 131.445 867.631 Q129.246 867.631 126.793 868.395 Q124.362 869.159 121.584 870.71 L121.584 865.988 Q124.408 864.854 126.862 864.275 Q129.316 863.696 131.353 863.696 Q136.723 863.696 139.917 866.381 Q143.112 869.066 143.112 873.557 Q143.112 875.687 142.302 877.608 Q141.515 879.506 139.408 882.099 Q138.83 882.77 135.728 885.988 Q132.626 889.182 126.978 894.946 Z" fill="#000000" fill-rule="nonzero" fill-opacity="1"></path><path clip-path="url(#clip630)" d="M136.167 659.845 Q139.524 660.562 141.399 662.831 Q143.297 665.099 143.297 668.433 Q143.297 673.548 139.779 676.349 Q136.26 679.15 129.779 679.15 Q127.603 679.15 125.288 678.71 Q122.996 678.294 120.543 677.437 L120.543 672.923 Q122.487 674.058 124.802 674.636 Q127.117 675.215 129.64 675.215 Q134.038 675.215 136.33 673.479 Q138.644 671.743 138.644 668.433 Q138.644 665.377 136.492 663.664 Q134.362 661.928 130.543 661.928 L126.515 661.928 L126.515 658.086 L130.728 658.086 Q134.177 658.086 136.005 656.72 Q137.834 655.331 137.834 652.738 Q137.834 650.076 135.936 648.664 Q134.061 647.229 130.543 647.229 Q128.621 647.229 126.422 647.646 Q124.223 648.062 121.584 648.942 L121.584 644.775 Q124.246 644.035 126.561 643.664 Q128.899 643.294 130.959 643.294 Q136.283 643.294 139.385 645.724 Q142.487 648.132 142.487 652.252 Q142.487 655.123 140.843 657.113 Q139.2 659.081 136.167 659.845 Z" fill="#000000" fill-rule="nonzero" fill-opacity="1"></path><path clip-path="url(#clip630)" d="M133.714 427.591 L121.908 446.04 L133.714 446.04 L133.714 427.591 M132.487 423.517 L138.367 423.517 L138.367 446.04 L143.297 446.04 L143.297 449.929 L138.367 449.929 L138.367 458.077 L133.714 458.077 L133.714 449.929 L118.112 449.929 L118.112 445.415 L132.487 423.517 Z" fill="#000000" fill-rule="nonzero" fill-opacity="1"></path><path clip-path="url(#clip630)" d="M122.394 203.115 L140.751 203.115 L140.751 207.05 L126.677 207.05 L126.677 215.522 Q127.695 215.175 128.714 215.013 Q129.732 214.827 130.751 214.827 Q136.538 214.827 139.917 217.999 Q143.297 221.17 143.297 226.587 Q143.297 232.165 139.825 235.267 Q136.353 238.346 130.033 238.346 Q127.857 238.346 125.589 237.975 Q123.343 237.605 120.936 236.864 L120.936 232.165 Q123.019 233.3 125.242 233.855 Q127.464 234.411 129.941 234.411 Q133.945 234.411 136.283 232.304 Q138.621 230.198 138.621 226.587 Q138.621 222.976 136.283 220.869 Q133.945 218.763 129.941 218.763 Q128.066 218.763 126.191 219.179 Q124.339 219.596 122.394 220.476 L122.394 203.115 Z" fill="#000000" fill-rule="nonzero" fill-opacity="1"></path><path clip-path="url(#clip630)" d="M21.0109 769.439 Q21.8483 769.439 23.4586 769.793 Q27.9996 770.921 31.1235 775.14 Q31.7033 775.848 32.444 777.104 Q33.4424 775.59 35.2781 774.27 Q38.3055 772.305 42.3956 772.305 Q44.2957 772.305 46.6146 772.821 Q51.9929 774.27 55.8577 779.359 Q59.6257 784.479 59.6257 790.566 Q59.6257 793.851 57.8866 796.106 Q56.1153 798.328 53.1524 799.197 L71.2198 803.674 Q71.6707 803.771 71.6707 804.35 L71.6707 804.672 Q71.6707 805.349 70.8978 805.349 L30.3184 795.172 Q27.5809 794.495 25.0044 793.4 Q22.428 792.305 20.1091 790.792 Q17.7903 789.246 16.0834 787.474 Q14.3443 785.703 13.3459 783.513 Q12.3153 781.323 12.3153 779.004 Q12.3153 774.141 15.6325 771.371 Q17.9836 769.439 21.0109 769.439 M19.8515 773.143 Q17.8547 773.143 16.4699 773.948 Q13.829 775.59 13.829 779.069 Q13.829 781.162 14.7952 783.159 Q15.7291 785.123 17.3394 786.701 Q18.9497 788.28 21.1397 789.632 Q23.3297 790.985 25.713 791.983 Q28.064 792.949 30.6405 793.594 L46.6146 797.555 Q48.3215 797.941 49.8352 797.941 Q53.4422 797.941 55.7932 795.945 Q58.1443 793.948 58.1443 790.502 Q58.1443 785.929 54.7304 781.999 Q51.6709 778.586 46.2925 777.169 Q42.9109 776.363 40.5599 776.363 Q37.9834 776.363 35.9866 777.297 Q34.3763 777.974 33.4102 779.294 Q34.2797 781.742 34.2797 784.222 Q34.2797 785.413 34.2475 786.057 Q34.2153 786.669 34.0865 787.571 Q33.9577 788.441 33.6034 788.859 Q33.2491 789.246 32.7016 789.246 Q32.3796 789.246 32.2508 789.181 Q31.7355 789.052 31.3812 788.634 Q31.0269 788.215 30.8659 787.732 Q30.6727 787.249 30.576 786.444 Q30.4794 785.606 30.4794 785.059 Q30.4472 784.511 30.4472 783.577 Q30.4472 781.387 31.3168 779.165 Q30.8659 778.328 30.0608 777.426 Q27.3877 774.56 23.1365 773.594 Q21.5584 773.143 19.8515 773.143 M32.3152 781.259 Q31.9609 782.611 31.9609 783.642 Q31.9609 787.41 32.5728 787.603 Q32.6372 787.603 32.7016 787.474 Q32.7338 787.346 32.766 787.056 Q32.766 786.734 32.7983 786.476 Q32.8305 786.186 32.8305 785.703 Q32.8305 785.22 32.8305 784.962 Q32.8305 784.672 32.8305 784.157 Q32.8305 782.869 32.3152 781.259 Z" fill="#000000" fill-rule="nonzero" fill-opacity="1"></path><path clip-path="url(#clip630)" d="M89.8178 762.746 Q88.9837 762.746 88.7357 762.679 Q88.4877 762.588 88.1045 762.228 L78.2301 753.368 Q72.7745 748.521 68.0177 748.521 Q64.9291 748.521 62.7198 750.144 Q60.5105 751.745 60.5105 754.698 Q60.5105 756.727 61.7504 758.44 Q62.9903 760.154 65.1997 760.943 Q65.1546 760.807 65.1546 760.334 Q65.1546 759.184 65.876 758.553 Q66.5974 757.899 67.5668 757.899 Q68.8067 757.899 69.4154 758.711 Q70.0015 759.5 70.0015 760.289 Q70.0015 760.604 69.9339 761.033 Q69.8663 761.439 69.235 762.092 Q68.5813 762.746 67.4315 762.746 Q64.2077 762.746 61.6377 760.311 Q59.0677 757.854 59.0677 754.112 Q59.0677 749.873 61.5926 747.101 Q64.095 744.305 68.0177 744.305 Q69.3929 744.305 70.6553 744.733 Q71.8953 745.139 72.8646 745.703 Q73.834 746.244 75.3896 747.732 Q76.9451 749.22 78.0498 750.415 Q79.1545 751.609 81.499 754.292 L86.2558 759.184 L86.2558 750.865 Q86.2558 746.807 85.8951 746.492 Q85.2414 746.041 81.7921 745.477 L81.7921 744.305 L89.8178 745.613 L89.8178 762.746 Z" fill="#000000" fill-rule="nonzero" fill-opacity="1"></path><path clip-path="url(#clip630)" d="M339.755 12.096 L351.948 12.096 L367.382 53.2532 L382.897 12.096 L395.09 12.096 L395.09 72.576 L387.11 72.576 L387.11 19.4686 L371.514 60.9499 L363.29 60.9499 L347.694 19.4686 L347.694 72.576 L339.755 72.576 L339.755 12.096 Z" fill="#000000" fill-rule="nonzero" fill-opacity="1"></path><path clip-path="url(#clip630)" d="M410.24 54.671 L410.24 27.2059 L417.694 27.2059 L417.694 54.3874 Q417.694 60.8284 420.205 64.0691 Q422.717 67.2693 427.74 67.2693 Q433.776 67.2693 437.26 63.421 Q440.784 59.5726 440.784 52.9291 L440.784 27.2059 L448.238 27.2059 L448.238 72.576 L440.784 72.576 L440.784 65.6084 Q438.07 69.7404 434.465 71.7658 Q430.9 73.7508 426.16 73.7508 Q418.342 73.7508 414.291 68.8897 Q410.24 64.0286 410.24 54.671 M428.996 26.1121 L428.996 26.1121 Z" fill="#000000" fill-rule="nonzero" fill-opacity="1"></path><path clip-path="url(#clip630)" d="M463.591 9.54393 L471.044 9.54393 L471.044 72.576 L463.591 72.576 L463.591 9.54393 Z" fill="#000000" fill-rule="nonzero" fill-opacity="1"></path><path clip-path="url(#clip630)" d="M494.013 14.324 L494.013 27.2059 L509.366 27.2059 L509.366 32.9987 L494.013 32.9987 L494.013 57.6282 Q494.013 63.1779 495.512 64.7578 Q497.051 66.3376 501.71 66.3376 L509.366 66.3376 L509.366 72.576 L501.71 72.576 Q493.081 72.576 489.8 69.3758 Q486.519 66.1351 486.519 57.6282 L486.519 32.9987 L481.05 32.9987 L481.05 27.2059 L486.519 27.2059 L486.519 14.324 L494.013 14.324 Z" fill="#000000" fill-rule="nonzero" fill-opacity="1"></path><path clip-path="url(#clip630)" d="M519.169 27.2059 L526.623 27.2059 L526.623 72.576 L519.169 72.576 L519.169 27.2059 M519.169 9.54393 L526.623 9.54393 L526.623 18.9825 L519.169 18.9825 L519.169 9.54393 Z" fill="#000000" fill-rule="nonzero" fill-opacity="1"></path><path clip-path="url(#clip630)" d="M538.451 46.5287 L560.286 46.5287 L560.286 53.1722 L538.451 53.1722 L538.451 46.5287 Z" fill="#000000" fill-rule="nonzero" fill-opacity="1"></path><path clip-path="url(#clip630)" d="M572.479 12.096 L580.662 12.096 L580.662 72.576 L572.479 72.576 L572.479 12.096 Z" fill="#000000" fill-rule="nonzero" fill-opacity="1"></path><path clip-path="url(#clip630)" d="M634.336 45.1919 L634.336 72.576 L626.883 72.576 L626.883 45.4349 Q626.883 38.994 624.371 35.7938 Q621.859 32.5936 616.836 32.5936 Q610.801 32.5936 607.317 36.4419 Q603.833 40.2903 603.833 46.9338 L603.833 72.576 L596.339 72.576 L596.339 27.2059 L603.833 27.2059 L603.833 34.2544 Q606.507 30.163 610.112 28.1376 Q613.758 26.1121 618.497 26.1121 Q626.315 26.1121 630.326 30.9732 Q634.336 35.7938 634.336 45.1919 Z" fill="#000000" fill-rule="nonzero" fill-opacity="1"></path><path clip-path="url(#clip630)" d="M679.058 34.0924 L679.058 9.54393 L686.512 9.54393 L686.512 72.576 L679.058 72.576 L679.058 65.7705 Q676.709 69.8214 673.103 71.8063 Q669.539 73.7508 664.516 73.7508 Q656.292 73.7508 651.107 67.1883 Q645.962 60.6258 645.962 49.9314 Q645.962 39.2371 651.107 32.6746 Q656.292 26.1121 664.516 26.1121 Q669.539 26.1121 673.103 28.0971 Q676.709 30.0415 679.058 34.0924 M653.659 49.9314 Q653.659 58.1548 657.021 62.8538 Q660.424 67.5124 666.338 67.5124 Q672.253 67.5124 675.656 62.8538 Q679.058 58.1548 679.058 49.9314 Q679.058 41.7081 675.656 37.0496 Q672.253 32.3505 666.338 32.3505 Q660.424 32.3505 657.021 37.0496 Q653.659 41.7081 653.659 49.9314 Z" fill="#000000" fill-rule="nonzero" fill-opacity="1"></path><path clip-path="url(#clip630)" d="M740.673 48.0275 L740.673 51.6733 L706.402 51.6733 Q706.888 59.3701 711.02 63.421 Q715.192 67.4314 722.605 67.4314 Q726.899 67.4314 730.91 66.3781 Q734.961 65.3249 738.931 63.2184 L738.931 70.267 Q734.92 71.9684 730.707 72.8596 Q726.494 73.7508 722.16 73.7508 Q711.303 73.7508 704.944 67.4314 Q698.624 61.1119 698.624 50.3365 Q698.624 39.1965 704.619 32.6746 Q710.655 26.1121 720.864 26.1121 Q730.019 26.1121 735.325 32.0264 Q740.673 37.9003 740.673 48.0275 M733.219 45.84 Q733.138 39.7232 729.776 36.0774 Q726.454 32.4315 720.945 32.4315 Q714.706 32.4315 710.939 35.9558 Q707.212 39.4801 706.645 45.8805 L733.219 45.84 Z" fill="#000000" fill-rule="nonzero" fill-opacity="1"></path><path clip-path="url(#clip630)" d="M789.162 27.2059 L772.756 49.2833 L790.013 72.576 L781.222 72.576 L768.016 54.752 L754.81 72.576 L746.02 72.576 L763.641 48.8377 L747.519 27.2059 L756.309 27.2059 L768.34 43.369 L780.371 27.2059 L789.162 27.2059 Z" fill="#000000" fill-rule="nonzero" fill-opacity="1"></path><path clip-path="url(#clip630)" d="M863.496 14.0809 L863.496 22.0612 Q858.837 19.8332 854.705 18.7395 Q850.574 17.6457 846.725 17.6457 Q840.041 17.6457 836.395 20.2383 Q832.79 22.8309 832.79 27.611 Q832.79 31.6214 835.18 33.6873 Q837.611 35.7128 844.335 36.9686 L849.277 37.9813 Q858.432 39.7232 862.767 44.1387 Q867.142 48.5136 867.142 55.8863 Q867.142 64.6767 861.227 69.2137 Q855.354 73.7508 843.971 73.7508 Q839.677 73.7508 834.816 72.7785 Q829.995 71.8063 824.81 69.9024 L824.81 61.4765 Q829.792 64.2716 834.572 65.6895 Q839.353 67.1073 843.971 67.1073 Q850.979 67.1073 854.786 64.3527 Q858.594 61.598 858.594 56.4939 Q858.594 52.0379 855.84 49.5264 Q853.126 47.0148 846.887 45.759 L841.905 44.7868 Q832.75 42.9639 828.658 39.075 Q824.567 35.1862 824.567 28.2591 Q824.567 20.2383 830.198 15.6203 Q835.869 11.0023 845.793 11.0023 Q850.047 11.0023 854.462 11.7719 Q858.878 12.5416 863.496 14.0809 Z" fill="#000000" fill-rule="nonzero" fill-opacity="1"></path><path clip-path="url(#clip630)" d="M918.386 48.0275 L918.386 51.6733 L884.115 51.6733 Q884.601 59.3701 888.733 63.421 Q892.905 67.4314 900.319 67.4314 Q904.613 67.4314 908.623 66.3781 Q912.674 65.3249 916.644 63.2184 L916.644 70.267 Q912.633 71.9684 908.42 72.8596 Q904.208 73.7508 899.873 73.7508 Q889.017 73.7508 882.657 67.4314 Q876.337 61.1119 876.337 50.3365 Q876.337 39.1965 882.333 32.6746 Q888.368 26.1121 898.577 26.1121 Q907.732 26.1121 913.038 32.0264 Q918.386 37.9003 918.386 48.0275 M910.932 45.84 Q910.851 39.7232 907.489 36.0774 Q904.167 32.4315 898.658 32.4315 Q892.419 32.4315 888.652 35.9558 Q884.925 39.4801 884.358 45.8805 L910.932 45.84 Z" fill="#000000" fill-rule="nonzero" fill-opacity="1"></path><path clip-path="url(#clip630)" d="M937.992 14.324 L937.992 27.2059 L953.345 27.2059 L953.345 32.9987 L937.992 32.9987 L937.992 57.6282 Q937.992 63.1779 939.491 64.7578 Q941.03 66.3376 945.689 66.3376 L953.345 66.3376 L953.345 72.576 L945.689 72.576 Q937.06 72.576 933.779 69.3758 Q930.498 66.1351 930.498 57.6282 L930.498 32.9987 L925.029 32.9987 L925.029 27.2059 L930.498 27.2059 L930.498 14.324 L937.992 14.324 Z" fill="#000000" fill-rule="nonzero" fill-opacity="1"></path><circle clip-path="url(#clip632)" cx="205.745" cy="1102" r="14.4" fill="#009af9" fill-rule="evenodd" fill-opacity="1" stroke="#000000" stroke-opacity="1" stroke-width="3.2"></circle>
<circle clip-path="url(#clip632)" cx="205.745" cy="881.601" r="14.4" fill="#009af9" fill-rule="evenodd" fill-opacity="1" stroke="#000000" stroke-opacity="1" stroke-width="3.2"></circle>
<circle clip-path="url(#clip632)" cx="205.745" cy="661.199" r="14.4" fill="#009af9" fill-rule="evenodd" fill-opacity="1" stroke="#000000" stroke-opacity="1" stroke-width="3.2"></circle>
<circle clip-path="url(#clip632)" cx="205.745" cy="440.797" r="14.4" fill="#009af9" fill-rule="evenodd" fill-opacity="1" stroke="#000000" stroke-opacity="1" stroke-width="3.2"></circle>
<circle clip-path="url(#clip632)" cx="426.148" cy="1102" r="14.4" fill="#009af9" fill-rule="evenodd" fill-opacity="1" stroke="#000000" stroke-opacity="1" stroke-width="3.2"></circle>
<circle clip-path="url(#clip632)" cx="426.148" cy="881.601" r="14.4" fill="#009af9" fill-rule="evenodd" fill-opacity="1" stroke="#000000" stroke-opacity="1" stroke-width="3.2"></circle>
<circle clip-path="url(#clip632)" cx="426.148" cy="661.199" r="14.4" fill="#009af9" fill-rule="evenodd" fill-opacity="1" stroke="#000000" stroke-opacity="1" stroke-width="3.2"></circle>
<circle clip-path="url(#clip632)" cx="426.148" cy="440.797" r="14.4" fill="#009af9" fill-rule="evenodd" fill-opacity="1" stroke="#000000" stroke-opacity="1" stroke-width="3.2"></circle>
<circle clip-path="url(#clip632)" cx="646.55" cy="1102" r="14.4" fill="#009af9" fill-rule="evenodd" fill-opacity="1" stroke="#000000" stroke-opacity="1" stroke-width="3.2"></circle>
<circle clip-path="url(#clip632)" cx="646.55" cy="881.601" r="14.4" fill="#009af9" fill-rule="evenodd" fill-opacity="1" stroke="#000000" stroke-opacity="1" stroke-width="3.2"></circle>
<circle clip-path="url(#clip632)" cx="646.55" cy="661.199" r="14.4" fill="#009af9" fill-rule="evenodd" fill-opacity="1" stroke="#000000" stroke-opacity="1" stroke-width="3.2"></circle>
<circle clip-path="url(#clip632)" cx="646.55" cy="440.797" r="14.4" fill="#009af9" fill-rule="evenodd" fill-opacity="1" stroke="#000000" stroke-opacity="1" stroke-width="3.2"></circle>
<circle clip-path="url(#clip632)" cx="866.952" cy="1102" r="14.4" fill="#009af9" fill-rule="evenodd" fill-opacity="1" stroke="#000000" stroke-opacity="1" stroke-width="3.2"></circle>
<circle clip-path="url(#clip632)" cx="866.952" cy="881.601" r="14.4" fill="#009af9" fill-rule="evenodd" fill-opacity="1" stroke="#000000" stroke-opacity="1" stroke-width="3.2"></circle>
<circle clip-path="url(#clip632)" cx="866.952" cy="661.199" r="14.4" fill="#009af9" fill-rule="evenodd" fill-opacity="1" stroke="#000000" stroke-opacity="1" stroke-width="3.2"></circle>
<circle clip-path="url(#clip632)" cx="1087.35" cy="1102" r="14.4" fill="#009af9" fill-rule="evenodd" fill-opacity="1" stroke="#000000" stroke-opacity="1" stroke-width="3.2"></circle>
<circle clip-path="url(#clip632)" cx="1087.35" cy="881.601" r="14.4" fill="#009af9" fill-rule="evenodd" fill-opacity="1" stroke="#000000" stroke-opacity="1" stroke-width="3.2"></circle>
<path clip-path="url(#clip630)" d="M1418.25 1419.33 L2352.76 1419.33 L2352.76 123.472 L1418.25 123.472  Z" fill="#ffffff" fill-rule="evenodd" fill-opacity="1"></path>
<defs>
  <clipPath id="clip633">
    <rect x="1418" y="123" width="936" height="1297"></rect>
  </clipPath>
</defs>
<polyline clip-path="url(#clip633)" style="stroke:#000000; stroke-linecap:round; stroke-linejoin:round; stroke-width:2; stroke-opacity:0.1; fill:none" points="1444.7,1419.33 1444.7,123.472 "></polyline>
<polyline clip-path="url(#clip633)" style="stroke:#000000; stroke-linecap:round; stroke-linejoin:round; stroke-width:2; stroke-opacity:0.1; fill:none" points="1665.1,1419.33 1665.1,123.472 "></polyline>
<polyline clip-path="url(#clip633)" style="stroke:#000000; stroke-linecap:round; stroke-linejoin:round; stroke-width:2; stroke-opacity:0.1; fill:none" points="1885.5,1419.33 1885.5,123.472 "></polyline>
<polyline clip-path="url(#clip633)" style="stroke:#000000; stroke-linecap:round; stroke-linejoin:round; stroke-width:2; stroke-opacity:0.1; fill:none" points="2105.91,1419.33 2105.91,123.472 "></polyline>
<polyline clip-path="url(#clip633)" style="stroke:#000000; stroke-linecap:round; stroke-linejoin:round; stroke-width:2; stroke-opacity:0.1; fill:none" points="2326.31,1419.33 2326.31,123.472 "></polyline>
<polyline clip-path="url(#clip633)" style="stroke:#000000; stroke-linecap:round; stroke-linejoin:round; stroke-width:2; stroke-opacity:0.1; fill:none" points="1418.25,1212.2 2352.76,1212.2 "></polyline>
<polyline clip-path="url(#clip633)" style="stroke:#000000; stroke-linecap:round; stroke-linejoin:round; stroke-width:2; stroke-opacity:0.1; fill:none" points="1418.25,991.802 2352.76,991.802 "></polyline>
<polyline clip-path="url(#clip633)" style="stroke:#000000; stroke-linecap:round; stroke-linejoin:round; stroke-width:2; stroke-opacity:0.1; fill:none" points="1418.25,771.4 2352.76,771.4 "></polyline>
<polyline clip-path="url(#clip633)" style="stroke:#000000; stroke-linecap:round; stroke-linejoin:round; stroke-width:2; stroke-opacity:0.1; fill:none" points="1418.25,550.998 2352.76,550.998 "></polyline>
<polyline clip-path="url(#clip633)" style="stroke:#000000; stroke-linecap:round; stroke-linejoin:round; stroke-width:2; stroke-opacity:0.1; fill:none" points="1418.25,330.596 2352.76,330.596 "></polyline>
<polyline clip-path="url(#clip630)" style="stroke:#000000; stroke-linecap:round; stroke-linejoin:round; stroke-width:4; stroke-opacity:1; fill:none" points="1418.25,1419.33 2352.76,1419.33 "></polyline>
<polyline clip-path="url(#clip630)" style="stroke:#000000; stroke-linecap:round; stroke-linejoin:round; stroke-width:4; stroke-opacity:1; fill:none" points="1444.7,1419.33 1444.7,1400.43 "></polyline>
<polyline clip-path="url(#clip630)" style="stroke:#000000; stroke-linecap:round; stroke-linejoin:round; stroke-width:4; stroke-opacity:1; fill:none" points="1665.1,1419.33 1665.1,1400.43 "></polyline>
<polyline clip-path="url(#clip630)" style="stroke:#000000; stroke-linecap:round; stroke-linejoin:round; stroke-width:4; stroke-opacity:1; fill:none" points="1885.5,1419.33 1885.5,1400.43 "></polyline>
<polyline clip-path="url(#clip630)" style="stroke:#000000; stroke-linecap:round; stroke-linejoin:round; stroke-width:4; stroke-opacity:1; fill:none" points="2105.91,1419.33 2105.91,1400.43 "></polyline>
<polyline clip-path="url(#clip630)" style="stroke:#000000; stroke-linecap:round; stroke-linejoin:round; stroke-width:4; stroke-opacity:1; fill:none" points="2326.31,1419.33 2326.31,1400.43 "></polyline>
<path clip-path="url(#clip630)" d="M1391.23 1464.9 L1420.9 1464.9 L1420.9 1468.83 L1391.23 1468.83 L1391.23 1464.9 Z" fill="#000000" fill-rule="nonzero" fill-opacity="1"></path><path clip-path="url(#clip630)" d="M1431.81 1477.79 L1439.44 1477.79 L1439.44 1451.43 L1431.13 1453.09 L1431.13 1448.83 L1439.4 1447.17 L1444.07 1447.17 L1444.07 1477.79 L1451.71 1477.79 L1451.71 1481.73 L1431.81 1481.73 L1431.81 1477.79 Z" fill="#000000" fill-rule="nonzero" fill-opacity="1"></path><path clip-path="url(#clip630)" d="M1461.16 1475.85 L1466.04 1475.85 L1466.04 1481.73 L1461.16 1481.73 L1461.16 1475.85 Z" fill="#000000" fill-rule="nonzero" fill-opacity="1"></path><path clip-path="url(#clip630)" d="M1486.23 1450.25 Q1482.62 1450.25 1480.79 1453.81 Q1478.98 1457.35 1478.98 1464.48 Q1478.98 1471.59 1480.79 1475.15 Q1482.62 1478.7 1486.23 1478.7 Q1489.86 1478.7 1491.67 1475.15 Q1493.49 1471.59 1493.49 1464.48 Q1493.49 1457.35 1491.67 1453.81 Q1489.86 1450.25 1486.23 1450.25 M1486.23 1446.54 Q1492.04 1446.54 1495.09 1451.15 Q1498.17 1455.73 1498.17 1464.48 Q1498.17 1473.21 1495.09 1477.82 Q1492.04 1482.4 1486.23 1482.4 Q1480.42 1482.4 1477.34 1477.82 Q1474.28 1473.21 1474.28 1464.48 Q1474.28 1455.73 1477.34 1451.15 Q1480.42 1446.54 1486.23 1446.54 Z" fill="#000000" fill-rule="nonzero" fill-opacity="1"></path><path clip-path="url(#clip630)" d="M1612.13 1464.9 L1641.8 1464.9 L1641.8 1468.83 L1612.13 1468.83 L1612.13 1464.9 Z" fill="#000000" fill-rule="nonzero" fill-opacity="1"></path><path clip-path="url(#clip630)" d="M1661.9 1450.25 Q1658.28 1450.25 1656.46 1453.81 Q1654.65 1457.35 1654.65 1464.48 Q1654.65 1471.59 1656.46 1475.15 Q1658.28 1478.7 1661.9 1478.7 Q1665.53 1478.7 1667.33 1475.15 Q1669.16 1471.59 1669.16 1464.48 Q1669.16 1457.35 1667.33 1453.81 Q1665.53 1450.25 1661.9 1450.25 M1661.9 1446.54 Q1667.71 1446.54 1670.76 1451.15 Q1673.84 1455.73 1673.84 1464.48 Q1673.84 1473.21 1670.76 1477.82 Q1667.71 1482.4 1661.9 1482.4 Q1656.08 1482.4 1653.01 1477.82 Q1649.95 1473.21 1649.95 1464.48 Q1649.95 1455.73 1653.01 1451.15 Q1656.08 1446.54 1661.9 1446.54 Z" fill="#000000" fill-rule="nonzero" fill-opacity="1"></path><path clip-path="url(#clip630)" d="M1682.06 1475.85 L1686.94 1475.85 L1686.94 1481.73 L1682.06 1481.73 L1682.06 1475.85 Z" fill="#000000" fill-rule="nonzero" fill-opacity="1"></path><path clip-path="url(#clip630)" d="M1697.17 1447.17 L1715.53 1447.17 L1715.53 1451.1 L1701.45 1451.1 L1701.45 1459.58 Q1702.47 1459.23 1703.49 1459.07 Q1704.51 1458.88 1705.53 1458.88 Q1711.32 1458.88 1714.7 1462.05 Q1718.08 1465.22 1718.08 1470.64 Q1718.08 1476.22 1714.6 1479.32 Q1711.13 1482.4 1704.81 1482.4 Q1702.64 1482.4 1700.37 1482.03 Q1698.12 1481.66 1695.71 1480.92 L1695.71 1476.22 Q1697.8 1477.35 1700.02 1477.91 Q1702.24 1478.46 1704.72 1478.46 Q1708.72 1478.46 1711.06 1476.36 Q1713.4 1474.25 1713.4 1470.64 Q1713.4 1467.03 1711.06 1464.92 Q1708.72 1462.82 1704.72 1462.82 Q1702.84 1462.82 1700.97 1463.23 Q1699.12 1463.65 1697.17 1464.53 L1697.17 1447.17 Z" fill="#000000" fill-rule="nonzero" fill-opacity="1"></path><path clip-path="url(#clip630)" d="M1862.89 1450.25 Q1859.28 1450.25 1857.45 1453.81 Q1855.64 1457.35 1855.64 1464.48 Q1855.64 1471.59 1857.45 1475.15 Q1859.28 1478.7 1862.89 1478.7 Q1866.52 1478.7 1868.33 1475.15 Q1870.16 1471.59 1870.16 1464.48 Q1870.16 1457.35 1868.33 1453.81 Q1866.52 1450.25 1862.89 1450.25 M1862.89 1446.54 Q1868.7 1446.54 1871.75 1451.15 Q1874.83 1455.73 1874.83 1464.48 Q1874.83 1473.21 1871.75 1477.82 Q1868.7 1482.4 1862.89 1482.4 Q1857.08 1482.4 1854 1477.82 Q1850.94 1473.21 1850.94 1464.48 Q1850.94 1455.73 1854 1451.15 Q1857.08 1446.54 1862.89 1446.54 Z" fill="#000000" fill-rule="nonzero" fill-opacity="1"></path><path clip-path="url(#clip630)" d="M1883.05 1475.85 L1887.93 1475.85 L1887.93 1481.73 L1883.05 1481.73 L1883.05 1475.85 Z" fill="#000000" fill-rule="nonzero" fill-opacity="1"></path><path clip-path="url(#clip630)" d="M1908.12 1450.25 Q1904.51 1450.25 1902.68 1453.81 Q1900.87 1457.35 1900.87 1464.48 Q1900.87 1471.59 1902.68 1475.15 Q1904.51 1478.7 1908.12 1478.7 Q1911.75 1478.7 1913.56 1475.15 Q1915.39 1471.59 1915.39 1464.48 Q1915.39 1457.35 1913.56 1453.81 Q1911.75 1450.25 1908.12 1450.25 M1908.12 1446.54 Q1913.93 1446.54 1916.98 1451.15 Q1920.06 1455.73 1920.06 1464.48 Q1920.06 1473.21 1916.98 1477.82 Q1913.93 1482.4 1908.12 1482.4 Q1902.31 1482.4 1899.23 1477.82 Q1896.17 1473.21 1896.17 1464.48 Q1896.17 1455.73 1899.23 1451.15 Q1902.31 1446.54 1908.12 1446.54 Z" fill="#000000" fill-rule="nonzero" fill-opacity="1"></path><path clip-path="url(#clip630)" d="M2083.79 1450.25 Q2080.18 1450.25 2078.35 1453.81 Q2076.54 1457.35 2076.54 1464.48 Q2076.54 1471.59 2078.35 1475.15 Q2080.18 1478.7 2083.79 1478.7 Q2087.42 1478.7 2089.23 1475.15 Q2091.06 1471.59 2091.06 1464.48 Q2091.06 1457.35 2089.23 1453.81 Q2087.42 1450.25 2083.79 1450.25 M2083.79 1446.54 Q2089.6 1446.54 2092.65 1451.15 Q2095.73 1455.73 2095.73 1464.48 Q2095.73 1473.21 2092.65 1477.82 Q2089.6 1482.4 2083.79 1482.4 Q2077.98 1482.4 2074.9 1477.82 Q2071.84 1473.21 2071.84 1464.48 Q2071.84 1455.73 2074.9 1451.15 Q2077.98 1446.54 2083.79 1446.54 Z" fill="#000000" fill-rule="nonzero" fill-opacity="1"></path><path clip-path="url(#clip630)" d="M2103.95 1475.85 L2108.83 1475.85 L2108.83 1481.73 L2103.95 1481.73 L2103.95 1475.85 Z" fill="#000000" fill-rule="nonzero" fill-opacity="1"></path><path clip-path="url(#clip630)" d="M2119.07 1447.17 L2137.42 1447.17 L2137.42 1451.1 L2123.35 1451.1 L2123.35 1459.58 Q2124.37 1459.23 2125.38 1459.07 Q2126.4 1458.88 2127.42 1458.88 Q2133.21 1458.88 2136.59 1462.05 Q2139.97 1465.22 2139.97 1470.64 Q2139.97 1476.22 2136.5 1479.32 Q2133.02 1482.4 2126.7 1482.4 Q2124.53 1482.4 2122.26 1482.03 Q2120.01 1481.66 2117.61 1480.92 L2117.61 1476.22 Q2119.69 1477.35 2121.91 1477.91 Q2124.13 1478.46 2126.61 1478.46 Q2130.62 1478.46 2132.95 1476.36 Q2135.29 1474.25 2135.29 1470.64 Q2135.29 1467.03 2132.95 1464.92 Q2130.62 1462.82 2126.61 1462.82 Q2124.74 1462.82 2122.86 1463.23 Q2121.01 1463.65 2119.07 1464.53 L2119.07 1447.17 Z" fill="#000000" fill-rule="nonzero" fill-opacity="1"></path><path clip-path="url(#clip630)" d="M2293.46 1477.79 L2301.1 1477.79 L2301.1 1451.43 L2292.79 1453.09 L2292.79 1448.83 L2301.05 1447.17 L2305.73 1447.17 L2305.73 1477.79 L2313.37 1477.79 L2313.37 1481.73 L2293.46 1481.73 L2293.46 1477.79 Z" fill="#000000" fill-rule="nonzero" fill-opacity="1"></path><path clip-path="url(#clip630)" d="M2322.81 1475.85 L2327.7 1475.85 L2327.7 1481.73 L2322.81 1481.73 L2322.81 1475.85 Z" fill="#000000" fill-rule="nonzero" fill-opacity="1"></path><path clip-path="url(#clip630)" d="M2347.88 1450.25 Q2344.27 1450.25 2342.44 1453.81 Q2340.64 1457.35 2340.64 1464.48 Q2340.64 1471.59 2342.44 1475.15 Q2344.27 1478.7 2347.88 1478.7 Q2351.52 1478.7 2353.32 1475.15 Q2355.15 1471.59 2355.15 1464.48 Q2355.15 1457.35 2353.32 1453.81 Q2351.52 1450.25 2347.88 1450.25 M2347.88 1446.54 Q2353.69 1446.54 2356.75 1451.15 Q2359.83 1455.73 2359.83 1464.48 Q2359.83 1473.21 2356.75 1477.82 Q2353.69 1482.4 2347.88 1482.4 Q2342.07 1482.4 2338.99 1477.82 Q2335.94 1473.21 2335.94 1464.48 Q2335.94 1455.73 2338.99 1451.15 Q2342.07 1446.54 2347.88 1446.54 Z" fill="#000000" fill-rule="nonzero" fill-opacity="1"></path><path clip-path="url(#clip630)" d="M1886.28 1507.65 Q1886.28 1508.1 1885.99 1509.16 L1879.68 1534.35 Q1878.29 1539.95 1873.78 1543.88 Q1869.31 1547.81 1864.22 1547.81 Q1861.16 1547.81 1859.2 1546.17 Q1857.23 1544.56 1857.23 1542.08 Q1857.23 1539.89 1858.39 1538.82 Q1859.55 1537.79 1860.93 1537.79 Q1861.39 1537.79 1861.87 1537.92 Q1862.35 1538.05 1862.87 1538.6 Q1863.38 1539.15 1863.38 1540.08 Q1863.38 1541.59 1862.06 1542.79 Q1861.42 1543.33 1860.81 1543.46 Q1860.23 1543.59 1859.23 1543.59 Q1859.61 1544.49 1860.32 1545.11 Q1861.03 1545.72 1861.84 1545.94 Q1862.64 1546.2 1863.16 1546.26 Q1863.7 1546.36 1864.22 1546.36 Q1868.34 1546.36 1871.5 1542.21 Q1872.43 1540.95 1873.11 1539.69 Q1873.82 1538.47 1874.33 1536.96 Q1874.85 1535.48 1875.07 1534.67 Q1875.33 1533.87 1875.78 1532.03 Q1872.79 1535.02 1869.11 1535.02 Q1867.57 1535.02 1866.18 1534.61 Q1864.83 1534.19 1863.64 1533.32 Q1862.45 1532.42 1861.74 1530.84 Q1861.06 1529.26 1861.06 1527.17 Q1861.06 1524.94 1861.93 1521.92 Q1862.8 1518.89 1864.9 1513.32 Q1866.02 1510.19 1866.02 1508.68 Q1866.02 1507.94 1865.86 1507.49 Q1865.7 1507.01 1865.38 1506.84 Q1865.06 1506.65 1864.86 1506.62 Q1864.7 1506.59 1864.38 1506.59 Q1862.48 1506.59 1860.71 1508.52 Q1858.94 1510.45 1857.71 1514.77 Q1857.46 1515.57 1857.3 1515.77 Q1857.13 1515.96 1856.65 1515.96 Q1855.85 1515.93 1855.85 1515.28 Q1855.85 1515.02 1856.14 1514.03 Q1856.43 1513 1857.1 1511.48 Q1857.81 1509.94 1858.78 1508.55 Q1859.74 1507.13 1861.26 1506.14 Q1862.8 1505.14 1864.57 1505.14 Q1866.99 1505.14 1868.47 1506.72 Q1869.98 1508.26 1869.98 1510.55 Q1869.98 1511.48 1869.73 1512.32 Q1869.5 1513.12 1868.66 1515.28 Q1865.28 1523.98 1865.28 1528.23 Q1865.28 1529.26 1865.44 1530.13 Q1865.64 1530.97 1866.06 1531.8 Q1866.47 1532.61 1867.31 1533.09 Q1868.18 1533.54 1869.37 1533.54 Q1870.89 1533.54 1872.3 1532.83 Q1873.75 1532.09 1874.65 1531.1 Q1875.59 1530.1 1876.14 1529.26 Q1876.72 1528.39 1876.84 1527.94 L1879.81 1516.09 L1881.13 1510.81 Q1881.74 1507.94 1882.03 1507.23 Q1882.42 1506.55 1883.09 1506.2 Q1883.77 1505.85 1884.35 1505.85 Q1885.15 1505.85 1885.7 1506.33 Q1886.28 1506.81 1886.28 1507.65 Z" fill="#000000" fill-rule="nonzero" fill-opacity="1"></path><path clip-path="url(#clip630)" d="M1893.03 1539.6 L1893.03 1538.15 Q1898.57 1538.15 1901.44 1535.2 Q1902.22 1535.2 1902.36 1535.38 Q1902.5 1535.56 1902.5 1536.4 L1902.5 1562.3 Q1902.5 1563.67 1903.17 1564.1 Q1903.85 1564.53 1906.8 1564.53 L1908.27 1564.53 L1908.27 1565.95 Q1906.64 1565.82 1900.78 1565.82 Q1894.92 1565.82 1893.32 1565.95 L1893.32 1564.53 L1894.79 1564.53 Q1897.69 1564.53 1898.39 1564.12 Q1899.09 1563.7 1899.09 1562.3 L1899.09 1538.38 Q1896.68 1539.6 1893.03 1539.6 Z" fill="#000000" fill-rule="nonzero" fill-opacity="1"></path><polyline clip-path="url(#clip630)" style="stroke:#000000; stroke-linecap:round; stroke-linejoin:round; stroke-width:4; stroke-opacity:1; fill:none" points="1418.25,1419.33 1418.25,123.472 "></polyline>
<polyline clip-path="url(#clip630)" style="stroke:#000000; stroke-linecap:round; stroke-linejoin:round; stroke-width:4; stroke-opacity:1; fill:none" points="1418.25,1212.2 1437.15,1212.2 "></polyline>
<polyline clip-path="url(#clip630)" style="stroke:#000000; stroke-linecap:round; stroke-linejoin:round; stroke-width:4; stroke-opacity:1; fill:none" points="1418.25,991.802 1437.15,991.802 "></polyline>
<polyline clip-path="url(#clip630)" style="stroke:#000000; stroke-linecap:round; stroke-linejoin:round; stroke-width:4; stroke-opacity:1; fill:none" points="1418.25,771.4 1437.15,771.4 "></polyline>
<polyline clip-path="url(#clip630)" style="stroke:#000000; stroke-linecap:round; stroke-linejoin:round; stroke-width:4; stroke-opacity:1; fill:none" points="1418.25,550.998 1437.15,550.998 "></polyline>
<polyline clip-path="url(#clip630)" style="stroke:#000000; stroke-linecap:round; stroke-linejoin:round; stroke-width:4; stroke-opacity:1; fill:none" points="1418.25,330.596 1437.15,330.596 "></polyline>
<path clip-path="url(#clip630)" d="M1275.31 1212.66 L1304.98 1212.66 L1304.98 1216.59 L1275.31 1216.59 L1275.31 1212.66 Z" fill="#000000" fill-rule="nonzero" fill-opacity="1"></path><path clip-path="url(#clip630)" d="M1315.89 1225.55 L1323.52 1225.55 L1323.52 1199.18 L1315.21 1200.85 L1315.21 1196.59 L1323.48 1194.92 L1328.15 1194.92 L1328.15 1225.55 L1335.79 1225.55 L1335.79 1229.48 L1315.89 1229.48 L1315.89 1225.55 Z" fill="#000000" fill-rule="nonzero" fill-opacity="1"></path><path clip-path="url(#clip630)" d="M1345.24 1223.6 L1350.12 1223.6 L1350.12 1229.48 L1345.24 1229.48 L1345.24 1223.6 Z" fill="#000000" fill-rule="nonzero" fill-opacity="1"></path><path clip-path="url(#clip630)" d="M1370.31 1198 Q1366.7 1198 1364.87 1201.57 Q1363.06 1205.11 1363.06 1212.24 Q1363.06 1219.35 1364.87 1222.91 Q1366.7 1226.45 1370.31 1226.45 Q1373.94 1226.45 1375.75 1222.91 Q1377.57 1219.35 1377.57 1212.24 Q1377.57 1205.11 1375.75 1201.57 Q1373.94 1198 1370.31 1198 M1370.31 1194.3 Q1376.12 1194.3 1379.17 1198.91 Q1382.25 1203.49 1382.25 1212.24 Q1382.25 1220.97 1379.17 1225.57 Q1376.12 1230.16 1370.31 1230.16 Q1364.5 1230.16 1361.42 1225.57 Q1358.36 1220.97 1358.36 1212.24 Q1358.36 1203.49 1361.42 1198.91 Q1364.5 1194.3 1370.31 1194.3 Z" fill="#000000" fill-rule="nonzero" fill-opacity="1"></path><path clip-path="url(#clip630)" d="M1276.3 992.254 L1305.98 992.254 L1305.98 996.189 L1276.3 996.189 L1276.3 992.254 Z" fill="#000000" fill-rule="nonzero" fill-opacity="1"></path><path clip-path="url(#clip630)" d="M1326.07 977.601 Q1322.46 977.601 1320.63 981.166 Q1318.82 984.707 1318.82 991.837 Q1318.82 998.943 1320.63 1002.51 Q1322.46 1006.05 1326.07 1006.05 Q1329.7 1006.05 1331.51 1002.51 Q1333.34 998.943 1333.34 991.837 Q1333.34 984.707 1331.51 981.166 Q1329.7 977.601 1326.07 977.601 M1326.07 973.897 Q1331.88 973.897 1334.94 978.504 Q1338.01 983.087 1338.01 991.837 Q1338.01 1000.56 1334.94 1005.17 Q1331.88 1009.75 1326.07 1009.75 Q1320.26 1009.75 1317.18 1005.17 Q1314.13 1000.56 1314.13 991.837 Q1314.13 983.087 1317.18 978.504 Q1320.26 973.897 1326.07 973.897 Z" fill="#000000" fill-rule="nonzero" fill-opacity="1"></path><path clip-path="url(#clip630)" d="M1346.23 1003.2 L1351.12 1003.2 L1351.12 1009.08 L1346.23 1009.08 L1346.23 1003.2 Z" fill="#000000" fill-rule="nonzero" fill-opacity="1"></path><path clip-path="url(#clip630)" d="M1361.35 974.522 L1379.7 974.522 L1379.7 978.457 L1365.63 978.457 L1365.63 986.93 Q1366.65 986.582 1367.67 986.42 Q1368.69 986.235 1369.7 986.235 Q1375.49 986.235 1378.87 989.406 Q1382.25 992.578 1382.25 997.994 Q1382.25 1003.57 1378.78 1006.67 Q1375.31 1009.75 1368.99 1009.75 Q1366.81 1009.75 1364.54 1009.38 Q1362.3 1009.01 1359.89 1008.27 L1359.89 1003.57 Q1361.97 1004.71 1364.2 1005.26 Q1366.42 1005.82 1368.89 1005.82 Q1372.9 1005.82 1375.24 1003.71 Q1377.57 1001.61 1377.57 997.994 Q1377.57 994.383 1375.24 992.277 Q1372.9 990.17 1368.89 990.17 Q1367.02 990.17 1365.14 990.587 Q1363.29 991.004 1361.35 991.883 L1361.35 974.522 Z" fill="#000000" fill-rule="nonzero" fill-opacity="1"></path><path clip-path="url(#clip630)" d="M1325.07 757.199 Q1321.46 757.199 1319.64 760.764 Q1317.83 764.305 1317.83 771.435 Q1317.83 778.541 1319.64 782.106 Q1321.46 785.648 1325.07 785.648 Q1328.71 785.648 1330.51 782.106 Q1332.34 778.541 1332.34 771.435 Q1332.34 764.305 1330.51 760.764 Q1328.71 757.199 1325.07 757.199 M1325.07 753.495 Q1330.89 753.495 1333.94 758.102 Q1337.02 762.685 1337.02 771.435 Q1337.02 780.162 1333.94 784.768 Q1330.89 789.351 1325.07 789.351 Q1319.26 789.351 1316.19 784.768 Q1313.13 780.162 1313.13 771.435 Q1313.13 762.685 1316.19 758.102 Q1319.26 753.495 1325.07 753.495 Z" fill="#000000" fill-rule="nonzero" fill-opacity="1"></path><path clip-path="url(#clip630)" d="M1345.24 782.8 L1350.12 782.8 L1350.12 788.68 L1345.24 788.68 L1345.24 782.8 Z" fill="#000000" fill-rule="nonzero" fill-opacity="1"></path><path clip-path="url(#clip630)" d="M1370.31 757.199 Q1366.7 757.199 1364.87 760.764 Q1363.06 764.305 1363.06 771.435 Q1363.06 778.541 1364.87 782.106 Q1366.7 785.648 1370.31 785.648 Q1373.94 785.648 1375.75 782.106 Q1377.57 778.541 1377.57 771.435 Q1377.57 764.305 1375.75 760.764 Q1373.94 757.199 1370.31 757.199 M1370.31 753.495 Q1376.12 753.495 1379.17 758.102 Q1382.25 762.685 1382.25 771.435 Q1382.25 780.162 1379.17 784.768 Q1376.12 789.351 1370.31 789.351 Q1364.5 789.351 1361.42 784.768 Q1358.36 780.162 1358.36 771.435 Q1358.36 762.685 1361.42 758.102 Q1364.5 753.495 1370.31 753.495 Z" fill="#000000" fill-rule="nonzero" fill-opacity="1"></path><path clip-path="url(#clip630)" d="M1326.07 536.797 Q1322.46 536.797 1320.63 540.361 Q1318.82 543.903 1318.82 551.033 Q1318.82 558.139 1320.63 561.704 Q1322.46 565.245 1326.07 565.245 Q1329.7 565.245 1331.51 561.704 Q1333.34 558.139 1333.34 551.033 Q1333.34 543.903 1331.51 540.361 Q1329.7 536.797 1326.07 536.797 M1326.07 533.093 Q1331.88 533.093 1334.94 537.699 Q1338.01 542.283 1338.01 551.033 Q1338.01 559.759 1334.94 564.366 Q1331.88 568.949 1326.07 568.949 Q1320.26 568.949 1317.18 564.366 Q1314.13 559.759 1314.13 551.033 Q1314.13 542.283 1317.18 537.699 Q1320.26 533.093 1326.07 533.093 Z" fill="#000000" fill-rule="nonzero" fill-opacity="1"></path><path clip-path="url(#clip630)" d="M1346.23 562.398 L1351.12 562.398 L1351.12 568.278 L1346.23 568.278 L1346.23 562.398 Z" fill="#000000" fill-rule="nonzero" fill-opacity="1"></path><path clip-path="url(#clip630)" d="M1361.35 533.718 L1379.7 533.718 L1379.7 537.653 L1365.63 537.653 L1365.63 546.125 Q1366.65 545.778 1367.67 545.616 Q1368.69 545.431 1369.7 545.431 Q1375.49 545.431 1378.87 548.602 Q1382.25 551.773 1382.25 557.19 Q1382.25 562.769 1378.78 565.87 Q1375.31 568.949 1368.99 568.949 Q1366.81 568.949 1364.54 568.579 Q1362.3 568.208 1359.89 567.468 L1359.89 562.769 Q1361.97 563.903 1364.2 564.458 Q1366.42 565.014 1368.89 565.014 Q1372.9 565.014 1375.24 562.908 Q1377.57 560.801 1377.57 557.19 Q1377.57 553.579 1375.24 551.472 Q1372.9 549.366 1368.89 549.366 Q1367.02 549.366 1365.14 549.783 Q1363.29 550.199 1361.35 551.079 L1361.35 533.718 Z" fill="#000000" fill-rule="nonzero" fill-opacity="1"></path><path clip-path="url(#clip630)" d="M1315.89 343.94 L1323.52 343.94 L1323.52 317.575 L1315.21 319.242 L1315.21 314.982 L1323.48 313.316 L1328.15 313.316 L1328.15 343.94 L1335.79 343.94 L1335.79 347.876 L1315.89 347.876 L1315.89 343.94 Z" fill="#000000" fill-rule="nonzero" fill-opacity="1"></path><path clip-path="url(#clip630)" d="M1345.24 341.996 L1350.12 341.996 L1350.12 347.876 L1345.24 347.876 L1345.24 341.996 Z" fill="#000000" fill-rule="nonzero" fill-opacity="1"></path><path clip-path="url(#clip630)" d="M1370.31 316.394 Q1366.7 316.394 1364.87 319.959 Q1363.06 323.501 1363.06 330.63 Q1363.06 337.737 1364.87 341.302 Q1366.7 344.843 1370.31 344.843 Q1373.94 344.843 1375.75 341.302 Q1377.57 337.737 1377.57 330.63 Q1377.57 323.501 1375.75 319.959 Q1373.94 316.394 1370.31 316.394 M1370.31 312.691 Q1376.12 312.691 1379.17 317.297 Q1382.25 321.88 1382.25 330.63 Q1382.25 339.357 1379.17 343.964 Q1376.12 348.547 1370.31 348.547 Q1364.5 348.547 1361.42 343.964 Q1358.36 339.357 1358.36 330.63 Q1358.36 321.88 1361.42 317.297 Q1364.5 312.691 1370.31 312.691 Z" fill="#000000" fill-rule="nonzero" fill-opacity="1"></path><path clip-path="url(#clip630)" d="M1182.76 772.203 Q1183.22 772.203 1184.28 772.493 L1209.46 778.805 Q1215.07 780.19 1219 784.699 Q1222.93 789.176 1222.93 794.264 Q1222.93 797.324 1221.28 799.288 Q1219.67 801.253 1217.19 801.253 Q1215 801.253 1213.94 800.093 Q1212.91 798.934 1212.91 797.549 Q1212.91 797.098 1213.04 796.615 Q1213.17 796.132 1213.71 795.617 Q1214.26 795.102 1215.2 795.102 Q1216.71 795.102 1217.9 796.422 Q1218.45 797.066 1218.58 797.678 Q1218.71 798.258 1218.71 799.256 Q1219.61 798.87 1220.22 798.161 Q1220.83 797.453 1221.06 796.647 Q1221.31 795.842 1221.38 795.327 Q1221.48 794.779 1221.48 794.264 Q1221.48 790.142 1217.32 786.986 Q1216.07 786.052 1214.81 785.375 Q1213.59 784.667 1212.07 784.152 Q1210.59 783.636 1209.79 783.411 Q1208.98 783.153 1207.14 782.702 Q1210.14 785.697 1210.14 789.369 Q1210.14 790.915 1209.72 792.3 Q1209.3 793.652 1208.43 794.844 Q1207.53 796.036 1205.95 796.744 Q1204.37 797.42 1202.28 797.42 Q1200.06 797.42 1197.03 796.551 Q1194 795.681 1188.43 793.588 Q1185.31 792.461 1183.79 792.461 Q1183.05 792.461 1182.6 792.622 Q1182.12 792.783 1181.96 793.105 Q1181.77 793.427 1181.73 793.62 Q1181.7 793.781 1181.7 794.103 Q1181.7 796.003 1183.63 797.775 Q1185.57 799.546 1189.88 800.77 Q1190.69 801.027 1190.88 801.188 Q1191.07 801.349 1191.07 801.833 Q1191.04 802.638 1190.4 802.638 Q1190.14 802.638 1189.14 802.348 Q1188.11 802.058 1186.6 801.382 Q1185.05 800.673 1183.67 799.707 Q1182.25 798.741 1181.25 797.227 Q1180.25 795.681 1180.25 793.91 Q1180.25 791.494 1181.83 790.013 Q1183.38 788.499 1185.66 788.499 Q1186.6 788.499 1187.43 788.757 Q1188.24 788.982 1190.4 789.82 Q1199.09 793.201 1203.34 793.201 Q1204.37 793.201 1205.24 793.04 Q1206.08 792.847 1206.92 792.428 Q1207.72 792.01 1208.21 791.172 Q1208.66 790.303 1208.66 789.111 Q1208.66 787.598 1207.95 786.181 Q1207.21 784.731 1206.21 783.829 Q1205.21 782.896 1204.37 782.348 Q1203.5 781.768 1203.05 781.639 L1191.2 778.677 L1185.92 777.356 Q1183.05 776.744 1182.35 776.454 Q1181.67 776.068 1181.32 775.392 Q1180.96 774.715 1180.96 774.136 Q1180.96 773.33 1181.44 772.783 Q1181.93 772.203 1182.76 772.203 Z" fill="#000000" fill-rule="nonzero" fill-opacity="1"></path><path clip-path="url(#clip630)" d="M1241.07 765.457 Q1240.23 765.457 1239.98 765.389 Q1239.74 765.299 1239.35 764.939 L1229.48 756.079 Q1224.02 751.232 1219.27 751.232 Q1216.18 751.232 1213.97 752.855 Q1211.76 754.456 1211.76 757.409 Q1211.76 759.438 1213 761.151 Q1214.24 762.865 1216.45 763.654 Q1216.4 763.518 1216.4 763.045 Q1216.4 761.895 1217.12 761.264 Q1217.85 760.61 1218.81 760.61 Q1220.05 760.61 1220.66 761.422 Q1221.25 762.211 1221.25 763 Q1221.25 763.315 1221.18 763.744 Q1221.11 764.15 1220.48 764.803 Q1219.83 765.457 1218.68 765.457 Q1215.46 765.457 1212.89 763.022 Q1210.32 760.565 1210.32 756.823 Q1210.32 752.584 1212.84 749.811 Q1215.34 747.016 1219.27 747.016 Q1220.64 747.016 1221.9 747.444 Q1223.14 747.85 1224.11 748.414 Q1225.08 748.955 1226.64 750.443 Q1228.19 751.931 1229.3 753.125 Q1230.4 754.32 1232.75 757.003 L1237.5 761.895 L1237.5 753.576 Q1237.5 749.518 1237.14 749.203 Q1236.49 748.752 1233.04 748.188 L1233.04 747.016 L1241.07 748.324 L1241.07 765.457 Z" fill="#000000" fill-rule="nonzero" fill-opacity="1"></path><path clip-path="url(#clip630)" d="M1688.43 14.0809 L1688.43 22.0612 Q1683.77 19.8332 1679.64 18.7395 Q1675.5 17.6457 1671.66 17.6457 Q1664.97 17.6457 1661.33 20.2383 Q1657.72 22.8309 1657.72 27.611 Q1657.72 31.6214 1660.11 33.6873 Q1662.54 35.7128 1669.27 36.9686 L1674.21 37.9813 Q1683.36 39.7232 1687.7 44.1387 Q1692.07 48.5136 1692.07 55.8863 Q1692.07 64.6767 1686.16 69.2137 Q1680.28 73.7508 1668.9 73.7508 Q1664.61 73.7508 1659.75 72.7785 Q1654.93 71.8063 1649.74 69.9024 L1649.74 61.4765 Q1654.72 64.2716 1659.5 65.6895 Q1664.28 67.1073 1668.9 67.1073 Q1675.91 67.1073 1679.72 64.3527 Q1683.53 61.598 1683.53 56.4939 Q1683.53 52.0379 1680.77 49.5264 Q1678.06 47.0148 1671.82 45.759 L1666.84 44.7868 Q1657.68 42.9639 1653.59 39.075 Q1649.5 35.1862 1649.5 28.2591 Q1649.5 20.2383 1655.13 15.6203 Q1660.8 11.0023 1670.72 11.0023 Q1674.98 11.0023 1679.39 11.7719 Q1683.81 12.5416 1688.43 14.0809 Z" fill="#000000" fill-rule="nonzero" fill-opacity="1"></path><path clip-path="url(#clip630)" d="M1711.72 65.7705 L1711.72 89.8329 L1704.23 89.8329 L1704.23 27.2059 L1711.72 27.2059 L1711.72 34.0924 Q1714.07 30.0415 1717.63 28.0971 Q1721.24 26.1121 1726.22 26.1121 Q1734.49 26.1121 1739.63 32.6746 Q1744.82 39.2371 1744.82 49.9314 Q1744.82 60.6258 1739.63 67.1883 Q1734.49 73.7508 1726.22 73.7508 Q1721.24 73.7508 1717.63 71.8063 Q1714.07 69.8214 1711.72 65.7705 M1737.08 49.9314 Q1737.08 41.7081 1733.68 37.0496 Q1730.31 32.3505 1724.4 32.3505 Q1718.48 32.3505 1715.08 37.0496 Q1711.72 41.7081 1711.72 49.9314 Q1711.72 58.1548 1715.08 62.8538 Q1718.48 67.5124 1724.4 67.5124 Q1730.31 67.5124 1733.68 62.8538 Q1737.08 58.1548 1737.08 49.9314 Z" fill="#000000" fill-rule="nonzero" fill-opacity="1"></path><path clip-path="url(#clip630)" d="M1777.79 49.7694 Q1768.76 49.7694 1765.27 51.8354 Q1761.79 53.9013 1761.79 58.8839 Q1761.79 62.8538 1764.38 65.2034 Q1767.01 67.5124 1771.51 67.5124 Q1777.71 67.5124 1781.44 63.1374 Q1785.2 58.7219 1785.2 51.4303 L1785.2 49.7694 L1777.79 49.7694 M1792.66 46.6907 L1792.66 72.576 L1785.2 72.576 L1785.2 65.6895 Q1782.65 69.8214 1778.84 71.8063 Q1775.04 73.7508 1769.53 73.7508 Q1762.56 73.7508 1758.43 69.8619 Q1754.33 65.9325 1754.33 59.3701 Q1754.33 51.7138 1759.44 47.825 Q1764.58 43.9361 1774.75 43.9361 L1785.2 43.9361 L1785.2 43.2069 Q1785.2 38.0623 1781.8 35.2672 Q1778.44 32.4315 1772.32 32.4315 Q1768.43 32.4315 1764.75 33.3632 Q1761.06 34.295 1757.66 36.1584 L1757.66 29.2718 Q1761.75 27.692 1765.6 26.9223 Q1769.44 26.1121 1773.09 26.1121 Q1782.93 26.1121 1787.8 31.2163 Q1792.66 36.3204 1792.66 46.6907 Z" fill="#000000" fill-rule="nonzero" fill-opacity="1"></path><path clip-path="url(#clip630)" d="M1834.3 34.1734 Q1833.04 33.4443 1831.55 33.1202 Q1830.09 32.7556 1828.3 32.7556 Q1821.99 32.7556 1818.58 36.8875 Q1815.22 40.9789 1815.22 48.6757 L1815.22 72.576 L1807.73 72.576 L1807.73 27.2059 L1815.22 27.2059 L1815.22 34.2544 Q1817.57 30.1225 1821.34 28.1376 Q1825.1 26.1121 1830.49 26.1121 Q1831.26 26.1121 1832.19 26.2337 Q1833.13 26.3147 1834.26 26.5172 L1834.3 34.1734 Z" fill="#000000" fill-rule="nonzero" fill-opacity="1"></path><path clip-path="url(#clip630)" d="M1871.04 28.5427 L1871.04 35.5912 Q1867.88 33.9709 1864.48 33.1607 Q1861.08 32.3505 1857.43 32.3505 Q1851.88 32.3505 1849.09 34.0519 Q1846.33 35.7533 1846.33 39.156 Q1846.33 41.7486 1848.32 43.2475 Q1850.3 44.7058 1856.3 46.0426 L1858.85 46.6097 Q1866.79 48.3111 1870.11 51.4303 Q1873.47 54.509 1873.47 60.0587 Q1873.47 66.3781 1868.45 70.0644 Q1863.47 73.7508 1854.72 73.7508 Q1851.07 73.7508 1847.1 73.0216 Q1843.17 72.3329 1838.8 70.9151 L1838.8 63.2184 Q1842.93 65.3654 1846.94 66.4591 Q1850.95 67.5124 1854.88 67.5124 Q1860.14 67.5124 1862.98 65.73 Q1865.82 63.9071 1865.82 60.6258 Q1865.82 57.5877 1863.75 55.9673 Q1861.72 54.3469 1854.8 52.8481 L1852.2 52.2405 Q1845.28 50.7821 1842.2 47.7845 Q1839.12 44.7463 1839.12 39.4801 Q1839.12 33.0797 1843.66 29.5959 Q1848.19 26.1121 1856.54 26.1121 Q1860.67 26.1121 1864.32 26.7198 Q1867.96 27.3274 1871.04 28.5427 Z" fill="#000000" fill-rule="nonzero" fill-opacity="1"></path><path clip-path="url(#clip630)" d="M1924.15 48.0275 L1924.15 51.6733 L1889.88 51.6733 Q1890.36 59.3701 1894.5 63.421 Q1898.67 67.4314 1906.08 67.4314 Q1910.38 67.4314 1914.39 66.3781 Q1918.44 65.3249 1922.41 63.2184 L1922.41 70.267 Q1918.4 71.9684 1914.18 72.8596 Q1909.97 73.7508 1905.64 73.7508 Q1894.78 73.7508 1888.42 67.4314 Q1882.1 61.1119 1882.1 50.3365 Q1882.1 39.1965 1888.1 32.6746 Q1894.13 26.1121 1904.34 26.1121 Q1913.49 26.1121 1918.8 32.0264 Q1924.15 37.9003 1924.15 48.0275 M1916.7 45.84 Q1916.61 39.7232 1913.25 36.0774 Q1909.93 32.4315 1904.42 32.4315 Q1898.18 32.4315 1894.42 35.9558 Q1890.69 39.4801 1890.12 45.8805 L1916.7 45.84 Z" fill="#000000" fill-rule="nonzero" fill-opacity="1"></path><path clip-path="url(#clip630)" d="M2004.32 63.9476 L2004.32 47.7034 L1990.95 47.7034 L1990.95 40.9789 L2012.42 40.9789 L2012.42 66.9452 Q2007.68 70.3075 2001.97 72.0494 Q1996.25 73.7508 1989.77 73.7508 Q1975.6 73.7508 1967.57 65.4869 Q1959.59 57.1826 1959.59 42.3968 Q1959.59 27.5705 1967.57 19.3066 Q1975.6 11.0023 1989.77 11.0023 Q1995.69 11.0023 2000.99 12.4606 Q2006.34 13.9189 2010.84 16.7545 L2010.84 25.464 Q2006.3 21.6156 2001.2 19.6712 Q1996.09 17.7268 1990.46 17.7268 Q1979.36 17.7268 1973.77 23.9246 Q1968.22 30.1225 1968.22 42.3968 Q1968.22 54.6305 1973.77 60.8284 Q1979.36 67.0263 1990.46 67.0263 Q1994.8 67.0263 1998.2 66.2971 Q2001.6 65.5274 2004.32 63.9476 Z" fill="#000000" fill-rule="nonzero" fill-opacity="1"></path><path clip-path="url(#clip630)" d="M2053.33 34.1734 Q2052.08 33.4443 2050.58 33.1202 Q2049.12 32.7556 2047.34 32.7556 Q2041.02 32.7556 2037.61 36.8875 Q2034.25 40.9789 2034.25 48.6757 L2034.25 72.576 L2026.76 72.576 L2026.76 27.2059 L2034.25 27.2059 L2034.25 34.2544 Q2036.6 30.1225 2040.37 28.1376 Q2044.14 26.1121 2049.52 26.1121 Q2050.29 26.1121 2051.23 26.2337 Q2052.16 26.3147 2053.29 26.5172 L2053.33 34.1734 Z" fill="#000000" fill-rule="nonzero" fill-opacity="1"></path><path clip-path="url(#clip630)" d="M2061.15 27.2059 L2068.6 27.2059 L2068.6 72.576 L2061.15 72.576 L2061.15 27.2059 M2061.15 9.54393 L2068.6 9.54393 L2068.6 18.9825 L2061.15 18.9825 L2061.15 9.54393 Z" fill="#000000" fill-rule="nonzero" fill-opacity="1"></path><path clip-path="url(#clip630)" d="M2114.06 34.0924 L2114.06 9.54393 L2121.51 9.54393 L2121.51 72.576 L2114.06 72.576 L2114.06 65.7705 Q2111.71 69.8214 2108.1 71.8063 Q2104.54 73.7508 2099.51 73.7508 Q2091.29 73.7508 2086.1 67.1883 Q2080.96 60.6258 2080.96 49.9314 Q2080.96 39.2371 2086.1 32.6746 Q2091.29 26.1121 2099.51 26.1121 Q2104.54 26.1121 2108.1 28.0971 Q2111.71 30.0415 2114.06 34.0924 M2088.66 49.9314 Q2088.66 58.1548 2092.02 62.8538 Q2095.42 67.5124 2101.34 67.5124 Q2107.25 67.5124 2110.65 62.8538 Q2114.06 58.1548 2114.06 49.9314 Q2114.06 41.7081 2110.65 37.0496 Q2107.25 32.3505 2101.34 32.3505 Q2095.42 32.3505 2092.02 37.0496 Q2088.66 41.7081 2088.66 49.9314 Z" fill="#000000" fill-rule="nonzero" fill-opacity="1"></path><circle clip-path="url(#clip633)" cx="2326.31" cy="330.596" r="14.4" fill="#009af9" fill-rule="evenodd" fill-opacity="1" stroke="#000000" stroke-opacity="1" stroke-width="3.2"></circle>
<circle clip-path="url(#clip633)" cx="2197.2" cy="330.596" r="14.4" fill="#009af9" fill-rule="evenodd" fill-opacity="1" stroke="#000000" stroke-opacity="1" stroke-width="3.2"></circle>
<circle clip-path="url(#clip633)" cx="1885.5" cy="330.596" r="14.4" fill="#009af9" fill-rule="evenodd" fill-opacity="1" stroke="#000000" stroke-opacity="1" stroke-width="3.2"></circle>
<circle clip-path="url(#clip633)" cx="1573.81" cy="330.596" r="14.4" fill="#009af9" fill-rule="evenodd" fill-opacity="1" stroke="#000000" stroke-opacity="1" stroke-width="3.2"></circle>
<circle clip-path="url(#clip633)" cx="1444.7" cy="330.596" r="14.4" fill="#009af9" fill-rule="evenodd" fill-opacity="1" stroke="#000000" stroke-opacity="1" stroke-width="3.2"></circle>
<circle clip-path="url(#clip633)" cx="2326.31" cy="459.704" r="14.4" fill="#009af9" fill-rule="evenodd" fill-opacity="1" stroke="#000000" stroke-opacity="1" stroke-width="3.2"></circle>
<circle clip-path="url(#clip633)" cx="2197.2" cy="459.704" r="14.4" fill="#009af9" fill-rule="evenodd" fill-opacity="1" stroke="#000000" stroke-opacity="1" stroke-width="3.2"></circle>
<circle clip-path="url(#clip633)" cx="1885.5" cy="459.704" r="14.4" fill="#009af9" fill-rule="evenodd" fill-opacity="1" stroke="#000000" stroke-opacity="1" stroke-width="3.2"></circle>
<circle clip-path="url(#clip633)" cx="1573.81" cy="459.704" r="14.4" fill="#009af9" fill-rule="evenodd" fill-opacity="1" stroke="#000000" stroke-opacity="1" stroke-width="3.2"></circle>
<circle clip-path="url(#clip633)" cx="1444.7" cy="459.704" r="14.4" fill="#009af9" fill-rule="evenodd" fill-opacity="1" stroke="#000000" stroke-opacity="1" stroke-width="3.2"></circle>
<circle clip-path="url(#clip633)" cx="2326.31" cy="771.4" r="14.4" fill="#009af9" fill-rule="evenodd" fill-opacity="1" stroke="#000000" stroke-opacity="1" stroke-width="3.2"></circle>
<circle clip-path="url(#clip633)" cx="2197.2" cy="771.4" r="14.4" fill="#009af9" fill-rule="evenodd" fill-opacity="1" stroke="#000000" stroke-opacity="1" stroke-width="3.2"></circle>
<circle clip-path="url(#clip633)" cx="1885.5" cy="771.4" r="14.4" fill="#009af9" fill-rule="evenodd" fill-opacity="1" stroke="#000000" stroke-opacity="1" stroke-width="3.2"></circle>
<circle clip-path="url(#clip633)" cx="1573.81" cy="771.4" r="14.4" fill="#009af9" fill-rule="evenodd" fill-opacity="1" stroke="#000000" stroke-opacity="1" stroke-width="3.2"></circle>
<circle clip-path="url(#clip633)" cx="1444.7" cy="771.4" r="14.4" fill="#009af9" fill-rule="evenodd" fill-opacity="1" stroke="#000000" stroke-opacity="1" stroke-width="3.2"></circle>
<circle clip-path="url(#clip633)" cx="2326.31" cy="1083.1" r="14.4" fill="#009af9" fill-rule="evenodd" fill-opacity="1" stroke="#000000" stroke-opacity="1" stroke-width="3.2"></circle>
<circle clip-path="url(#clip633)" cx="2197.2" cy="1083.1" r="14.4" fill="#009af9" fill-rule="evenodd" fill-opacity="1" stroke="#000000" stroke-opacity="1" stroke-width="3.2"></circle>
<circle clip-path="url(#clip633)" cx="1885.5" cy="1083.1" r="14.4" fill="#009af9" fill-rule="evenodd" fill-opacity="1" stroke="#000000" stroke-opacity="1" stroke-width="3.2"></circle>
<circle clip-path="url(#clip633)" cx="1573.81" cy="1083.1" r="14.4" fill="#009af9" fill-rule="evenodd" fill-opacity="1" stroke="#000000" stroke-opacity="1" stroke-width="3.2"></circle>
<circle clip-path="url(#clip633)" cx="1444.7" cy="1083.1" r="14.4" fill="#009af9" fill-rule="evenodd" fill-opacity="1" stroke="#000000" stroke-opacity="1" stroke-width="3.2"></circle>
<circle clip-path="url(#clip633)" cx="2326.31" cy="1212.2" r="14.4" fill="#009af9" fill-rule="evenodd" fill-opacity="1" stroke="#000000" stroke-opacity="1" stroke-width="3.2"></circle>
<circle clip-path="url(#clip633)" cx="2197.2" cy="1212.2" r="14.4" fill="#009af9" fill-rule="evenodd" fill-opacity="1" stroke="#000000" stroke-opacity="1" stroke-width="3.2"></circle>
<circle clip-path="url(#clip633)" cx="1885.5" cy="1212.2" r="14.4" fill="#009af9" fill-rule="evenodd" fill-opacity="1" stroke="#000000" stroke-opacity="1" stroke-width="3.2"></circle>
<circle clip-path="url(#clip633)" cx="1573.81" cy="1212.2" r="14.4" fill="#009af9" fill-rule="evenodd" fill-opacity="1" stroke="#000000" stroke-opacity="1" stroke-width="3.2"></circle>
<circle clip-path="url(#clip633)" cx="1444.7" cy="1212.2" r="14.4" fill="#009af9" fill-rule="evenodd" fill-opacity="1" stroke="#000000" stroke-opacity="1" stroke-width="3.2"></circle>
<circle clip-path="url(#clip633)" cx="2326.31" cy="364.15" r="14.4" fill="#009af9" fill-rule="evenodd" fill-opacity="1" stroke="#000000" stroke-opacity="1" stroke-width="3.2"></circle>
<circle clip-path="url(#clip633)" cx="2197.2" cy="364.15" r="14.4" fill="#009af9" fill-rule="evenodd" fill-opacity="1" stroke="#000000" stroke-opacity="1" stroke-width="3.2"></circle>
<circle clip-path="url(#clip633)" cx="1885.5" cy="364.15" r="14.4" fill="#009af9" fill-rule="evenodd" fill-opacity="1" stroke="#000000" stroke-opacity="1" stroke-width="3.2"></circle>
<circle clip-path="url(#clip633)" cx="1573.81" cy="364.15" r="14.4" fill="#009af9" fill-rule="evenodd" fill-opacity="1" stroke="#000000" stroke-opacity="1" stroke-width="3.2"></circle>
<circle clip-path="url(#clip633)" cx="1444.7" cy="364.15" r="14.4" fill="#009af9" fill-rule="evenodd" fill-opacity="1" stroke="#000000" stroke-opacity="1" stroke-width="3.2"></circle>
<circle clip-path="url(#clip633)" cx="2326.31" cy="602.712" r="14.4" fill="#009af9" fill-rule="evenodd" fill-opacity="1" stroke="#000000" stroke-opacity="1" stroke-width="3.2"></circle>
<circle clip-path="url(#clip633)" cx="2197.2" cy="602.712" r="14.4" fill="#009af9" fill-rule="evenodd" fill-opacity="1" stroke="#000000" stroke-opacity="1" stroke-width="3.2"></circle>
<circle clip-path="url(#clip633)" cx="1885.5" cy="602.712" r="14.4" fill="#009af9" fill-rule="evenodd" fill-opacity="1" stroke="#000000" stroke-opacity="1" stroke-width="3.2"></circle>
<circle clip-path="url(#clip633)" cx="1573.81" cy="602.712" r="14.4" fill="#009af9" fill-rule="evenodd" fill-opacity="1" stroke="#000000" stroke-opacity="1" stroke-width="3.2"></circle>
<circle clip-path="url(#clip633)" cx="1444.7" cy="602.712" r="14.4" fill="#009af9" fill-rule="evenodd" fill-opacity="1" stroke="#000000" stroke-opacity="1" stroke-width="3.2"></circle>
<circle clip-path="url(#clip633)" cx="2326.31" cy="940.089" r="14.4" fill="#009af9" fill-rule="evenodd" fill-opacity="1" stroke="#000000" stroke-opacity="1" stroke-width="3.2"></circle>
<circle clip-path="url(#clip633)" cx="2197.2" cy="940.089" r="14.4" fill="#009af9" fill-rule="evenodd" fill-opacity="1" stroke="#000000" stroke-opacity="1" stroke-width="3.2"></circle>
<circle clip-path="url(#clip633)" cx="1885.5" cy="940.089" r="14.4" fill="#009af9" fill-rule="evenodd" fill-opacity="1" stroke="#000000" stroke-opacity="1" stroke-width="3.2"></circle>
<circle clip-path="url(#clip633)" cx="1573.81" cy="940.089" r="14.4" fill="#009af9" fill-rule="evenodd" fill-opacity="1" stroke="#000000" stroke-opacity="1" stroke-width="3.2"></circle>
<circle clip-path="url(#clip633)" cx="1444.7" cy="940.089" r="14.4" fill="#009af9" fill-rule="evenodd" fill-opacity="1" stroke="#000000" stroke-opacity="1" stroke-width="3.2"></circle>
<circle clip-path="url(#clip633)" cx="2326.31" cy="1178.65" r="14.4" fill="#009af9" fill-rule="evenodd" fill-opacity="1" stroke="#000000" stroke-opacity="1" stroke-width="3.2"></circle>
<circle clip-path="url(#clip633)" cx="2197.2" cy="1178.65" r="14.4" fill="#009af9" fill-rule="evenodd" fill-opacity="1" stroke="#000000" stroke-opacity="1" stroke-width="3.2"></circle>
<circle clip-path="url(#clip633)" cx="1885.5" cy="1178.65" r="14.4" fill="#009af9" fill-rule="evenodd" fill-opacity="1" stroke="#000000" stroke-opacity="1" stroke-width="3.2"></circle>
<circle clip-path="url(#clip633)" cx="1573.81" cy="1178.65" r="14.4" fill="#009af9" fill-rule="evenodd" fill-opacity="1" stroke="#000000" stroke-opacity="1" stroke-width="3.2"></circle>
<circle clip-path="url(#clip633)" cx="1444.7" cy="1178.65" r="14.4" fill="#009af9" fill-rule="evenodd" fill-opacity="1" stroke="#000000" stroke-opacity="1" stroke-width="3.2"></circle>
<circle clip-path="url(#clip633)" cx="2292.75" cy="330.596" r="14.4" fill="#009af9" fill-rule="evenodd" fill-opacity="1" stroke="#000000" stroke-opacity="1" stroke-width="3.2"></circle>
<circle clip-path="url(#clip633)" cx="2054.19" cy="330.596" r="14.4" fill="#009af9" fill-rule="evenodd" fill-opacity="1" stroke="#000000" stroke-opacity="1" stroke-width="3.2"></circle>
<circle clip-path="url(#clip633)" cx="1716.81" cy="330.596" r="14.4" fill="#009af9" fill-rule="evenodd" fill-opacity="1" stroke="#000000" stroke-opacity="1" stroke-width="3.2"></circle>
<circle clip-path="url(#clip633)" cx="1478.25" cy="330.596" r="14.4" fill="#009af9" fill-rule="evenodd" fill-opacity="1" stroke="#000000" stroke-opacity="1" stroke-width="3.2"></circle>
<circle clip-path="url(#clip633)" cx="2292.75" cy="771.4" r="14.4" fill="#009af9" fill-rule="evenodd" fill-opacity="1" stroke="#000000" stroke-opacity="1" stroke-width="3.2"></circle>
<circle clip-path="url(#clip633)" cx="2054.19" cy="771.4" r="14.4" fill="#009af9" fill-rule="evenodd" fill-opacity="1" stroke="#000000" stroke-opacity="1" stroke-width="3.2"></circle>
<circle clip-path="url(#clip633)" cx="1716.81" cy="771.4" r="14.4" fill="#009af9" fill-rule="evenodd" fill-opacity="1" stroke="#000000" stroke-opacity="1" stroke-width="3.2"></circle>
<circle clip-path="url(#clip633)" cx="1478.25" cy="771.4" r="14.4" fill="#009af9" fill-rule="evenodd" fill-opacity="1" stroke="#000000" stroke-opacity="1" stroke-width="3.2"></circle>
<circle clip-path="url(#clip633)" cx="2292.75" cy="1212.2" r="14.4" fill="#009af9" fill-rule="evenodd" fill-opacity="1" stroke="#000000" stroke-opacity="1" stroke-width="3.2"></circle>
<circle clip-path="url(#clip633)" cx="2054.19" cy="1212.2" r="14.4" fill="#009af9" fill-rule="evenodd" fill-opacity="1" stroke="#000000" stroke-opacity="1" stroke-width="3.2"></circle>
<circle clip-path="url(#clip633)" cx="1716.81" cy="1212.2" r="14.4" fill="#009af9" fill-rule="evenodd" fill-opacity="1" stroke="#000000" stroke-opacity="1" stroke-width="3.2"></circle>
<circle clip-path="url(#clip633)" cx="1478.25" cy="1212.2" r="14.4" fill="#009af9" fill-rule="evenodd" fill-opacity="1" stroke="#000000" stroke-opacity="1" stroke-width="3.2"></circle>
<circle clip-path="url(#clip633)" cx="2292.75" cy="459.704" r="14.4" fill="#009af9" fill-rule="evenodd" fill-opacity="1" stroke="#000000" stroke-opacity="1" stroke-width="3.2"></circle>
<circle clip-path="url(#clip633)" cx="2054.19" cy="459.704" r="14.4" fill="#009af9" fill-rule="evenodd" fill-opacity="1" stroke="#000000" stroke-opacity="1" stroke-width="3.2"></circle>
<circle clip-path="url(#clip633)" cx="1716.81" cy="459.704" r="14.4" fill="#009af9" fill-rule="evenodd" fill-opacity="1" stroke="#000000" stroke-opacity="1" stroke-width="3.2"></circle>
<circle clip-path="url(#clip633)" cx="1478.25" cy="459.704" r="14.4" fill="#009af9" fill-rule="evenodd" fill-opacity="1" stroke="#000000" stroke-opacity="1" stroke-width="3.2"></circle>
<circle clip-path="url(#clip633)" cx="2292.75" cy="1083.1" r="14.4" fill="#009af9" fill-rule="evenodd" fill-opacity="1" stroke="#000000" stroke-opacity="1" stroke-width="3.2"></circle>
<circle clip-path="url(#clip633)" cx="2054.19" cy="1083.1" r="14.4" fill="#009af9" fill-rule="evenodd" fill-opacity="1" stroke="#000000" stroke-opacity="1" stroke-width="3.2"></circle>
<circle clip-path="url(#clip633)" cx="1716.81" cy="1083.1" r="14.4" fill="#009af9" fill-rule="evenodd" fill-opacity="1" stroke="#000000" stroke-opacity="1" stroke-width="3.2"></circle>
<circle clip-path="url(#clip633)" cx="1478.25" cy="1083.1" r="14.4" fill="#009af9" fill-rule="evenodd" fill-opacity="1" stroke="#000000" stroke-opacity="1" stroke-width="3.2"></circle>
<circle clip-path="url(#clip633)" cx="2317.84" cy="330.596" r="14.4" fill="#009af9" fill-rule="evenodd" fill-opacity="1" stroke="#000000" stroke-opacity="1" stroke-width="3.2"></circle>
<circle clip-path="url(#clip633)" cx="2252.02" cy="330.596" r="14.4" fill="#009af9" fill-rule="evenodd" fill-opacity="1" stroke="#000000" stroke-opacity="1" stroke-width="3.2"></circle>
<circle clip-path="url(#clip633)" cx="2130.4" cy="330.596" r="14.4" fill="#009af9" fill-rule="evenodd" fill-opacity="1" stroke="#000000" stroke-opacity="1" stroke-width="3.2"></circle>
<circle clip-path="url(#clip633)" cx="1971.5" cy="330.596" r="14.4" fill="#009af9" fill-rule="evenodd" fill-opacity="1" stroke="#000000" stroke-opacity="1" stroke-width="3.2"></circle>
<circle clip-path="url(#clip633)" cx="1799.51" cy="330.596" r="14.4" fill="#009af9" fill-rule="evenodd" fill-opacity="1" stroke="#000000" stroke-opacity="1" stroke-width="3.2"></circle>
<circle clip-path="url(#clip633)" cx="1640.61" cy="330.596" r="14.4" fill="#009af9" fill-rule="evenodd" fill-opacity="1" stroke="#000000" stroke-opacity="1" stroke-width="3.2"></circle>
<circle clip-path="url(#clip633)" cx="1518.99" cy="330.596" r="14.4" fill="#009af9" fill-rule="evenodd" fill-opacity="1" stroke="#000000" stroke-opacity="1" stroke-width="3.2"></circle>
<circle clip-path="url(#clip633)" cx="1453.17" cy="330.596" r="14.4" fill="#009af9" fill-rule="evenodd" fill-opacity="1" stroke="#000000" stroke-opacity="1" stroke-width="3.2"></circle>
<circle clip-path="url(#clip633)" cx="2317.84" cy="771.4" r="14.4" fill="#009af9" fill-rule="evenodd" fill-opacity="1" stroke="#000000" stroke-opacity="1" stroke-width="3.2"></circle>
<circle clip-path="url(#clip633)" cx="2252.02" cy="771.4" r="14.4" fill="#009af9" fill-rule="evenodd" fill-opacity="1" stroke="#000000" stroke-opacity="1" stroke-width="3.2"></circle>
<circle clip-path="url(#clip633)" cx="2130.4" cy="771.4" r="14.4" fill="#009af9" fill-rule="evenodd" fill-opacity="1" stroke="#000000" stroke-opacity="1" stroke-width="3.2"></circle>
<circle clip-path="url(#clip633)" cx="1971.5" cy="771.4" r="14.4" fill="#009af9" fill-rule="evenodd" fill-opacity="1" stroke="#000000" stroke-opacity="1" stroke-width="3.2"></circle>
<circle clip-path="url(#clip633)" cx="1799.51" cy="771.4" r="14.4" fill="#009af9" fill-rule="evenodd" fill-opacity="1" stroke="#000000" stroke-opacity="1" stroke-width="3.2"></circle>
<circle clip-path="url(#clip633)" cx="1640.61" cy="771.4" r="14.4" fill="#009af9" fill-rule="evenodd" fill-opacity="1" stroke="#000000" stroke-opacity="1" stroke-width="3.2"></circle>
<circle clip-path="url(#clip633)" cx="1518.99" cy="771.4" r="14.4" fill="#009af9" fill-rule="evenodd" fill-opacity="1" stroke="#000000" stroke-opacity="1" stroke-width="3.2"></circle>
<circle clip-path="url(#clip633)" cx="1453.17" cy="771.4" r="14.4" fill="#009af9" fill-rule="evenodd" fill-opacity="1" stroke="#000000" stroke-opacity="1" stroke-width="3.2"></circle>
<circle clip-path="url(#clip633)" cx="2317.84" cy="1212.2" r="14.4" fill="#009af9" fill-rule="evenodd" fill-opacity="1" stroke="#000000" stroke-opacity="1" stroke-width="3.2"></circle>
<circle clip-path="url(#clip633)" cx="2252.02" cy="1212.2" r="14.4" fill="#009af9" fill-rule="evenodd" fill-opacity="1" stroke="#000000" stroke-opacity="1" stroke-width="3.2"></circle>
<circle clip-path="url(#clip633)" cx="2130.4" cy="1212.2" r="14.4" fill="#009af9" fill-rule="evenodd" fill-opacity="1" stroke="#000000" stroke-opacity="1" stroke-width="3.2"></circle>
<circle clip-path="url(#clip633)" cx="1971.5" cy="1212.2" r="14.4" fill="#009af9" fill-rule="evenodd" fill-opacity="1" stroke="#000000" stroke-opacity="1" stroke-width="3.2"></circle>
<circle clip-path="url(#clip633)" cx="1799.51" cy="1212.2" r="14.4" fill="#009af9" fill-rule="evenodd" fill-opacity="1" stroke="#000000" stroke-opacity="1" stroke-width="3.2"></circle>
<circle clip-path="url(#clip633)" cx="1640.61" cy="1212.2" r="14.4" fill="#009af9" fill-rule="evenodd" fill-opacity="1" stroke="#000000" stroke-opacity="1" stroke-width="3.2"></circle>
<circle clip-path="url(#clip633)" cx="1518.99" cy="1212.2" r="14.4" fill="#009af9" fill-rule="evenodd" fill-opacity="1" stroke="#000000" stroke-opacity="1" stroke-width="3.2"></circle>
<circle clip-path="url(#clip633)" cx="1453.17" cy="1212.2" r="14.4" fill="#009af9" fill-rule="evenodd" fill-opacity="1" stroke="#000000" stroke-opacity="1" stroke-width="3.2"></circle>
</svg>