<?xml version="1.0" encoding="UTF-8" standalone="no"?>
<!-- Creator: CorelDRAW -->

<svg
   xml:space="preserve"
   width="157.323mm"
   height="70.1038mm"
   version="1.0"
   style="shape-rendering:geometricPrecision; text-rendering:geometricPrecision; image-rendering:optimizeQuality; fill-rule:evenodd; clip-rule:evenodd"
   viewBox="0 0 15037.81 6700.91"
   id="svg388"
   sodipodi:docname="figure2.svg"
   inkscape:version="1.1.2 (0a00cf5339, 2022-02-04)"
   xmlns:inkscape="http://www.inkscape.org/namespaces/inkscape"
   xmlns:sodipodi="http://sodipodi.sourceforge.net/DTD/sodipodi-0.dtd"
   xmlns="http://www.w3.org/2000/svg"
   xmlns:svg="http://www.w3.org/2000/svg"><sodipodi:namedview
   id="namedview390"
   pagecolor="#ffffff"
   bordercolor="#666666"
   borderopacity="1.0"
   inkscape:pageshadow="2"
   inkscape:pageopacity="0.0"
   inkscape:pagecheckerboard="0"
   inkscape:document-units="mm"
   showgrid="false"
   inkscape:zoom="2.2384548"
   inkscape:cx="297.52667"
   inkscape:cy="132.68081"
   inkscape:window-width="1920"
   inkscape:window-height="1008"
   inkscape:window-x="1920"
   inkscape:window-y="0"
   inkscape:window-maximized="1"
   inkscape:current-layer="Layer_x0020_1" />
 <defs
   id="defs31">
  <style
   type="text/css"
   id="style2">
   <![CDATA[
    .str0 {stroke:#2B2A29;stroke-width:19.12;stroke-miterlimit:22.9256}
    .fil1 {fill:gainsboro}
    .fil6 {fill:#585959}
    .fil7 {fill:#FEFEFE;fill-rule:nonzero}
    .fil2 {fill:#2B2A29;fill-rule:nonzero}
    .fil3 {fill:#2A2A2A;fill-rule:nonzero}
    .fil10 {fill:black;fill-rule:nonzero}
    .fil8 {fill:url(#id0)}
    .fil0 {fill:url(#id1)}
    .fil9 {fill:url(#id2)}
    .fil4 {fill:url(#id3)}
    .fil5 {fill:url(#id4)}
   ]]>
  </style>
  <linearGradient
   id="id0"
   gradientUnits="objectBoundingBox"
   x1="50%"
   y1="100%"
   x2="50%"
   y2="0%">
   <stop
   offset="0"
   style="stop-opacity:1; stop-color:#ECECEC"
   id="stop4" />
   <stop
   offset="0.168627"
   style="stop-opacity:1; stop-color:#B5B5B5"
   id="stop6" />
   <stop
   offset="1"
   style="stop-opacity:1; stop-color:#7D7D7D"
   id="stop8" />
  </linearGradient>
  <linearGradient
   id="id1"
   gradientUnits="objectBoundingBox"
   x1="0%"
   y1="50%"
   x2="100%"
   y2="50%">
   <stop
   offset="0"
   style="stop-opacity:1; stop-color:#838383"
   id="stop11" />
   <stop
   offset="1"
   style="stop-opacity:1; stop-color:#FEFEFE"
   id="stop13" />
  </linearGradient>
  <linearGradient
   id="id2"
   gradientUnits="userSpaceOnUse"
   x1="12160.69"
   y1="5292.35"
   x2="15028.25"
   y2="5292.35">
   <stop
   offset="0"
   style="stop-opacity:1; stop-color:#575757"
   id="stop16" />
   <stop
   offset="1"
   style="stop-opacity:1; stop-color:#FEFEFE"
   id="stop18" />
  </linearGradient>
  <radialGradient
   id="id3"
   gradientUnits="objectBoundingBox"
   cx="50%"
   cy="50%"
   r="50%"
   fx="50%"
   fy="50%">
   <stop
   offset="0"
   style="stop-opacity:1; stop-color:#282829"
   id="stop21" />
   <stop
   offset="1"
   style="stop-opacity:1; stop-color:#616161"
   id="stop23" />
  </radialGradient>
  <radialGradient
   id="id4"
   gradientUnits="userSpaceOnUse"
   gradientTransform="matrix(1 -0 -0 0.96096 0 132)"
   cx="1407.31"
   cy="3380.63"
   r="1194.82"
   fx="1407.31"
   fy="3380.63">
   <stop
   offset="0"
   style="stop-opacity:1; stop-color:#212120"
   id="stop26" />
   <stop
   offset="1"
   style="stop-opacity:1; stop-color:#A6A7A7"
   id="stop28" />
  </radialGradient>
 </defs>
 <g
   id="Layer_x0020_1"
   inkscape:label="Layer 1">
  <metadata
   id="CorelCorpID_0Corel-Layer" />
  <rect
   class="fil0 str0"
   x="12160.69"
   y="1229.96"
   width="2867.57"
   height="1433.78"
   id="rect34" />
  <rect
   class="fil1 str0"
   x="4991.77"
   y="274.1"
   width="4779.28"
   height="6213.06"
   rx="341.38"
   ry="443.79"
   id="rect36" />
  <path
   class="fil2"
   d="M6576.47 3525.49l0 -289.72 56.79 0 119.23 194.15 0 -194.15 54.23 0 0 289.72 -58.6 0 -117.42 -190.45 0 190.45 -54.23 0z"
   id="path38" />
  <path
   id="_1"
   class="fil2"
   d="M6866.67 3525.49l0 -289.72 58.67 0 0 289.72 -58.67 0z" />
  <path
   id="_2"
   class="fil2"
   d="M7093.54 3525.49l0 -289.72 199.09 0 0 48.96 -140.41 0 0 68.78 121.38 0 0 48.97 -121.38 0 0 123.01 -58.68 0z" />
  <path
   id="_3"
   class="fil2"
   d="M7340.71 3525.49l0 -289.72 93.82 0c35.54,0 58.67,1.41 69.46,4.31 16.58,4.39 30.48,13.83 41.68,28.39 11.19,14.57 16.79,33.39 16.79,56.45 0,17.81 -3.24,32.71 -9.64,44.85 -6.47,12.14 -14.63,21.65 -24.55,28.59 -9.92,6.88 -20.03,11.47 -30.28,13.7 -13.97,2.76 -34.12,4.18 -60.56,4.18l-38.03 0 0 109.25 -58.68 0zm58.68 -240.76l0 82.55 31.9 0c23,0 38.3,-1.55 46.06,-4.59 7.75,-3.03 13.82,-7.75 18.21,-14.3 4.38,-6.47 6.6,-13.96 6.6,-22.59 0,-10.59 -3.1,-19.29 -9.23,-26.17 -6.21,-6.88 -13.97,-11.19 -23.48,-12.95 -6.94,-1.28 -20.9,-1.95 -41.94,-1.95l-28.12 0z" />
  <path
   id="_4"
   class="fil2"
   d="M7745.35 3419.07l0 -48.96 125.85 0 0 115.59c-12.21,11.94 -29.95,22.4 -53.21,31.5 -23.2,9.04 -46.73,13.55 -70.61,13.55 -30.28,0 -56.65,-6.34 -79.17,-19.08 -22.46,-12.75 -39.39,-31.03 -50.72,-54.69 -11.33,-23.68 -17,-49.5 -17,-77.36 0,-30.21 6.34,-57.06 18.95,-80.59 12.67,-23.48 31.15,-41.55 55.5,-54.09 18.62,-9.64 41.68,-14.43 69.33,-14.43 35.95,0 64.07,7.55 84.31,22.66 20.16,15.17 33.18,36.02 38.98,62.72l-58.27 10.92c-4.05,-14.22 -11.74,-25.48 -23,-33.78 -11.19,-8.23 -25.23,-12.34 -42.09,-12.34 -25.49,0 -45.79,8.09 -60.83,24.35 -15.04,16.25 -22.59,40.33 -22.59,72.22 0,34.46 7.62,60.3 22.85,77.49 15.31,17.2 35.27,25.83 60.03,25.83 12.21,0 24.48,-2.43 36.75,-7.22 12.34,-4.79 22.86,-10.66 31.7,-17.53l0 -36.76 -66.77 0z" />
  <path
   id="_5"
   class="fil2"
   d="M8186.34 3525.49l-63.19 0 -25.01 -65.95 -116.2 0 -24.08 65.95 -62.04 0 112.49 -289.72 61.98 0 116.06 289.72zm-107.23 -114.92l-40.26 -107.23 -39.11 107.23 79.37 0z" />
  <path
   class="fil3 str0"
   d="M2841.09 871.21l1433.78 0 0 119.18 477.93 -238.35 -477.93 -238.35 0 119.18 -1433.78 0 0 238.35zm716.89 0m716.89 59.59m238.96 -59.59m0 -238.35m-238.96 -59.59m-716.89 59.59m-716.89 119.18"
   id="path45" />
  <path
   class="fil3 str0"
   d="M2841.09 4193.64l1433.78 0 0 119.18 477.93 -238.35 -477.93 -238.35 0 119.18 -1433.78 0 0 238.35zm716.89 0m716.89 59.59m238.96 -59.59m0 -238.35m-238.96 -59.59m-716.89 59.59m-716.89 119.18"
   id="path47" />
  <path
   class="fil3 str0"
   d="M4752.8 3239l-1433.78 0 0 -119.18 -477.93 238.35 477.93 238.35 0 -119.18 1433.78 0 0 -238.35zm-716.89 0m-716.89 -59.59m-238.96 59.59m0 238.35m238.96 59.59m716.89 -59.59m716.89 -119.18"
   id="path49" />
  <path
   class="fil3 str0"
   d="M10006.25 2066.64l1433.78 0 0 119.18 477.93 -238.35 -477.93 -238.35 0 119.18 -1433.78 0 0 238.35zm716.89 0m716.89 59.59m238.96 -59.59m0 -238.35m-238.96 -59.59m-716.89 59.59m-716.89 119.18"
   id="path51" />
  <path
   class="fil3 str0"
   d="M10006.25 5410.91l1433.78 0 0 119.18 477.93 -238.35 -477.93 -238.35 0 119.18 -1433.78 0 0 238.35zm716.89 0m716.89 59.59m238.96 -59.59m0 -238.35m-238.96 -59.59m-716.89 59.59m-716.89 119.18"
   id="path53" />
  <path
   class="fil3 str0"
   d="M2841.09 6128.41l1433.78 0 0 119.18 477.93 -238.35 -477.93 -238.35 0 119.18 -1433.78 0 0 238.35zm716.89 0m716.89 59.59m238.96 -59.59m0 -238.35m-238.96 -59.59m-716.89 59.59m-716.89 119.18"
   id="path55" />
  <path
   class="fil2"
   d="M3385.83 193.15l74.09 -193.15 28.1 0 78.64 193.15 -29.09 0 -22.35 -58.54 -81.33 0 -20.95 58.54 -27.11 0zm55.56 -79.31l65.83 0 -20.15 -53.55c-6.07,-16.28 -10.65,-29.72 -13.84,-40.34 -2.66,12.6 -6.21,24.96 -10.66,37.18l-21.18 56.7z"
   id="path57" />
  <path
   id="_1_0"
   class="fil2"
   d="M3583.97 193.15l0 -140 21.31 0 0 19.87c10.26,-15.25 25.09,-22.84 44.47,-22.84 8.45,0 16.18,1.53 23.25,4.54 7.05,3.02 12.36,7.02 15.87,11.92 3.51,4.9 5.98,10.74 7.38,17.49 0.85,4.41 1.3,12.09 1.3,23.06l0 85.96 -23.73 0 0 -85.06c0,-9.67 -0.9,-16.91 -2.74,-21.68 -1.84,-4.76 -5.13,-8.58 -9.81,-11.46 -4.67,-2.83 -10.2,-4.27 -16.5,-4.27 -10.07,0 -18.74,3.19 -26.08,9.63 -7.33,6.39 -10.97,18.56 -10.97,36.46l0 76.39 -23.73 0z" />
  <path
   id="_2_1"
   class="fil2"
   d="M3825.45 175.62c-8.81,7.5 -17.31,12.76 -25.44,15.87 -8.14,3.11 -16.86,4.63 -26.22,4.63 -15.37,0 -27.19,-3.73 -35.47,-11.23 -8.27,-7.47 -12.41,-17.04 -12.41,-28.69 0,-6.83 1.58,-13.09 4.67,-18.75 3.14,-5.67 7.24,-10.16 12.27,-13.57 5.09,-3.42 10.74,-6.03 17.09,-7.78 4.67,-1.21 11.73,-2.38 21.12,-3.56 19.16,-2.25 33.32,-4.99 42.35,-8.13 0.1,-3.24 0.13,-5.31 0.13,-6.16 0,-9.63 -2.25,-16.41 -6.74,-20.37 -6.07,-5.35 -15.11,-8 -27.07,-8 -11.19,0 -19.46,1.98 -24.78,5.89 -5.34,3.91 -9.25,10.83 -11.82,20.82l-23.2 -3.24c2.11,-9.94 5.58,-17.99 10.44,-24.1 4.86,-6.12 11.86,-10.79 21.04,-14.12 9.13,-3.29 19.79,-4.95 31.83,-4.95 11.96,0 21.72,1.4 29.22,4.22 7.47,2.84 13,6.35 16.51,10.62 3.51,4.26 5.97,9.66 7.42,16.18 0.76,4.04 1.17,11.33 1.17,21.8l0 31.48c0,21.98 0.5,35.87 1.48,41.76 0.95,5.9 2.92,11.52 5.8,16.91l-24.81 0c-2.39,-4.99 -3.92,-10.84 -4.59,-17.53zm-1.89 -52.61c-8.63,3.51 -21.57,6.48 -38.85,8.91 -9.8,1.39 -16.72,2.96 -20.77,4.71 -4.04,1.76 -7.15,4.32 -9.35,7.65 -2.21,3.37 -3.33,7.1 -3.33,11.24 0,6.25 2.38,11.51 7.19,15.7 4.82,4.18 11.83,6.29 21.05,6.29 9.13,0 17.26,-1.98 24.41,-5.97 7.1,-3.96 12.36,-9.41 15.69,-16.28 2.57,-5.35 3.82,-13.22 3.82,-23.61l0.13 -8.63z" />
  <path
   id="_3_2"
   class="fil2"
   d="M3883.49 193.15l0 -193.15 23.74 0 0 193.15 -23.74 0z" />
  <path
   id="_4_3"
   class="fil2"
   d="M3935.06 123.14c0,-25.85 7.2,-45 21.63,-57.46 12.01,-10.34 26.71,-15.51 44.02,-15.51 19.19,0 34.93,6.3 47.16,18.89 12.19,12.54 18.3,29.95 18.3,52.1 0,17.99 -2.7,32.11 -8.09,42.4 -5.4,10.29 -13.27,18.3 -23.61,24.01 -10.29,5.71 -21.58,8.54 -33.76,8.54 -19.6,0 -35.43,-6.24 -47.53,-18.79 -12.09,-12.54 -18.12,-30.62 -18.12,-54.18zm24.28 0.05c0,17.89 3.92,31.29 11.74,40.15 7.87,8.91 17.71,13.35 29.63,13.35 11.78,0 21.57,-4.44 29.45,-13.39 7.82,-8.95 11.73,-22.57 11.73,-40.87 0,-17.26 -3.96,-30.35 -11.82,-39.2 -7.87,-8.91 -17.66,-13.35 -29.35,-13.35 -11.92,0 -21.76,4.41 -29.63,13.26 -7.82,8.86 -11.74,22.21 -11.74,40.06z" />
  <path
   id="_5_4"
   class="fil2"
   d="M4089.63 204.75l22.93 3.23c0.95,7.1 3.64,12.27 8.05,15.56 5.89,4.36 13.94,6.56 24.14,6.56 10.97,0 19.47,-2.2 25.44,-6.56 5.98,-4.37 10.03,-10.52 12.14,-18.39 1.21,-4.81 1.81,-14.93 1.71,-30.35 -10.38,12.23 -23.28,18.34 -38.75,18.34 -19.25,0 -34.17,-6.92 -44.7,-20.82 -10.56,-13.85 -15.83,-30.48 -15.83,-49.86 0,-13.35 2.43,-25.67 7.25,-36.96 4.81,-11.28 11.82,-19.96 20.99,-26.11 9.18,-6.17 19.97,-9.22 32.37,-9.22 16.5,0 30.12,6.75 40.82,20.24l0 -17.26 21.85 0 0 120.9c0,21.8 -2.21,37.23 -6.65,46.31 -4.41,9.08 -11.47,16.27 -21.05,21.54 -9.62,5.26 -21.44,7.91 -35.47,7.91 -16.68,0 -30.12,-3.74 -40.38,-11.24 -10.29,-7.47 -15.24,-18.75 -14.88,-33.81zm19.42 -83.99c0,18.3 3.64,31.65 10.93,40.06 7.33,8.41 16.46,12.64 27.43,12.64 10.93,0 20.04,-4.19 27.47,-12.55 7.37,-8.35 11.06,-21.49 11.06,-39.38 0,-17.08 -3.82,-29.99 -11.42,-38.66 -7.6,-8.68 -16.78,-12.99 -27.47,-12.99 -10.56,0 -19.51,4.26 -26.94,12.81 -7.37,8.55 -11.06,21.22 -11.06,38.08z" />
  <path
   id="_6"
   class="fil2"
   d="M3531.32 494.51l0 -193.15 25.63 0 0 193.15 -25.63 0z" />
  <path
   id="_7"
   class="fil2"
   d="M3598.99 494.51l0 -140 21.31 0 0 19.87c10.26,-15.25 25.09,-22.84 44.47,-22.84 8.45,0 16.18,1.53 23.25,4.54 7.05,3.02 12.36,7.02 15.87,11.92 3.51,4.9 5.98,10.74 7.38,17.49 0.85,4.41 1.3,12.09 1.3,23.06l0 85.96 -23.73 0 0 -85.06c0,-9.67 -0.9,-16.91 -2.74,-21.68 -1.84,-4.76 -5.13,-8.58 -9.81,-11.46 -4.67,-2.83 -10.2,-4.27 -16.5,-4.27 -10.07,0 -18.74,3.19 -26.08,9.63 -7.33,6.39 -10.97,18.56 -10.97,36.46l0 76.39 -23.73 0z" />
  <path
   id="_8"
   class="fil2"
   d="M3749.02 548.19l0 -193.69 21.57 0 0 18.39c5.09,-7.11 10.84,-12.45 17.27,-16.01 6.39,-3.56 14.16,-5.35 23.28,-5.35 11.96,0 22.48,3.06 31.61,9.22 9.13,6.11 16,14.79 20.68,25.94 4.64,11.19 6.98,23.42 6.98,36.77 0,14.25 -2.57,27.12 -7.69,38.58 -5.12,11.42 -12.59,20.19 -22.39,26.31 -9.76,6.07 -20.05,9.12 -30.85,9.12 -7.91,0 -15.02,-1.66 -21.27,-4.99 -6.29,-3.33 -11.41,-7.5 -15.47,-12.59l0 68.3 -23.73 0zm21.57 -122.83c0,17.94 3.64,31.2 10.89,39.79 7.28,8.58 16.1,12.89 26.43,12.89 10.52,0 19.52,-4.44 26.98,-13.35 7.5,-8.9 11.24,-22.65 11.24,-41.31 0,-17.81 -3.64,-31.11 -10.97,-39.97 -7.33,-8.85 -16.05,-13.26 -26.21,-13.26 -10.07,0 -18.97,4.72 -26.71,14.12 -7.78,9.43 -11.65,23.1 -11.65,41.09z" />
  <path
   id="_9"
   class="fil2"
   d="M3990.5 494.51l0 -20.82c-10.88,15.88 -25.63,23.78 -44.28,23.78 -8.23,0 -15.92,-1.57 -23.06,-4.71 -7.15,-3.19 -12.45,-7.15 -15.92,-11.92 -3.46,-4.81 -5.89,-10.66 -7.28,-17.58 -0.95,-4.67 -1.44,-12.05 -1.44,-22.12l0 -86.64 23.74 0 0 77.46c0,12.37 0.49,20.73 1.43,25 1.48,6.25 4.64,11.11 9.49,14.66 4.81,3.55 10.74,5.35 17.85,5.35 7.1,0 13.75,-1.81 19.97,-5.45 6.2,-3.64 10.61,-8.63 13.21,-14.87 2.57,-6.25 3.87,-15.38 3.87,-27.3l0 -74.85 23.73 0 0 140 -21.31 0z" />
  <path
   id="_10"
   class="fil2"
   d="M4100.6 473.34l3.24 20.94c-6.65,1.4 -12.64,2.12 -17.86,2.12 -8.58,0 -15.24,-1.36 -20.01,-4.09 -4.72,-2.74 -8.05,-6.3 -9.98,-10.75 -1.93,-4.44 -2.88,-13.8 -2.88,-28.05l0 -80.66 -17.53 0 0 -18.34 17.53 0 0 -34.62 23.74 -14.25 0 48.87 23.73 0 0 18.34 -23.73 0 0 82c0,6.8 0.4,11.15 1.25,13.09 0.81,1.93 2.16,3.46 4.05,4.64 1.88,1.12 4.58,1.7 8.09,1.7 2.61,0 6.07,-0.32 10.34,-0.94z" />
  <path
   class="fil2"
   d="M2880.52 1295.71c-13.04,-16.51 -24.1,-35.79 -33.14,-57.92 -9.03,-22.12 -13.53,-45.05 -13.53,-68.75 0,-20.9 3.36,-40.91 10.11,-60.02 7.91,-22.21 20.09,-44.33 36.55,-66.37l17 0c-10.61,18.26 -17.67,31.29 -21.09,39.12 -5.35,12.09 -9.58,24.73 -12.64,37.9 -3.78,16.41 -5.66,32.91 -5.66,49.5 0,42.21 13.12,84.38 39.38,126.52l-17 0z"
   id="path69" />
  <path
   id="_1_5"
   class="fil2"
   d="M2915.59 1197.25l23.47 -3.79c1.31,9.41 4.99,16.59 11.02,21.63 6.02,4.99 14.47,7.5 25.26,7.5 10.93,0 19.02,-2.2 24.33,-6.65 5.26,-4.41 7.91,-9.62 7.91,-15.6 0,-5.35 -2.39,-9.58 -7.11,-12.64 -3.33,-2.11 -11.41,-4.76 -24.28,-8.05 -17.35,-4.36 -29.35,-8.13 -36.1,-11.33 -6.69,-3.24 -11.78,-7.64 -15.24,-13.31 -3.46,-5.62 -5.22,-11.87 -5.22,-18.71 0,-6.25 1.44,-12.01 4.27,-17.31 2.88,-5.31 6.75,-9.71 11.64,-13.22 3.69,-2.7 8.73,-4.99 15.06,-6.87 6.39,-1.89 13.17,-2.84 20.46,-2.84 10.97,0 20.59,1.58 28.87,4.77 8.32,3.14 14.43,7.47 18.39,12.86 3.91,5.44 6.65,12.68 8.13,21.76l-23.2 3.23c-1.03,-7.28 -4.09,-12.99 -9.13,-17.08 -5.04,-4.09 -12.14,-6.12 -21.35,-6.12 -10.84,0 -18.61,1.8 -23.25,5.4 -4.63,3.59 -6.97,7.82 -6.97,12.63 0,3.06 0.95,5.85 2.88,8.33 1.93,2.51 4.95,4.63 9.08,6.29 2.39,0.9 9.31,2.92 20.9,6.07 16.73,4.45 28.42,8.14 35.07,10.97 6.65,2.83 11.87,7.02 15.65,12.41 3.82,5.44 5.72,12.19 5.72,20.27 0,7.88 -2.29,15.29 -6.93,22.26 -4.63,6.97 -11.28,12.36 -19.96,16.18 -8.73,3.82 -18.57,5.71 -29.55,5.71 -18.16,0 -32.05,-3.78 -41.58,-11.28 -9.54,-7.55 -15.61,-18.71 -18.26,-33.49z" />
  <path
   id="_2_6"
   class="fil2"
   d="M3155.4 1193.74l24.55 3.23c-3.81,14.25 -10.96,25.36 -21.4,33.23 -10.43,7.88 -23.73,11.82 -39.96,11.82 -20.42,0 -36.6,-6.29 -48.56,-18.88 -11.96,-12.54 -17.94,-30.21 -17.94,-52.92 0,-23.48 6.03,-41.72 18.12,-54.67 12.09,-12.99 27.79,-19.47 47.08,-19.47 18.66,0 33.89,6.35 45.72,19.07 11.82,12.72 17.76,30.62 17.76,53.68 0,1.4 -0.05,3.51 -0.13,6.29l-104.26 0c0.9,15.33 5.22,27.12 13.04,35.25 7.78,8.13 17.54,12.23 29.18,12.23 8.68,0 16.1,-2.28 22.21,-6.87 6.16,-4.59 11.01,-11.92 14.61,-21.98zm-77.69 -38.04l77.96 0c-1.03,-11.78 -4.04,-20.59 -8.95,-26.48 -7.5,-9.13 -17.3,-13.72 -29.31,-13.72 -10.89,0 -20.01,3.64 -27.43,10.93 -7.37,7.28 -11.46,17.04 -12.27,29.27z" />
  <path
   id="_3_7"
   class="fil2"
   d="M3209.4 1239.06l0 -193.15 23.74 0 0 193.15 -23.74 0z" />
  <path
   id="_4_8"
   class="fil2"
   d="M3365.37 1193.74l24.55 3.23c-3.81,14.25 -10.96,25.36 -21.4,33.23 -10.43,7.88 -23.73,11.82 -39.96,11.82 -20.42,0 -36.6,-6.29 -48.56,-18.88 -11.96,-12.54 -17.94,-30.21 -17.94,-52.92 0,-23.48 6.03,-41.72 18.12,-54.67 12.09,-12.99 27.79,-19.47 47.08,-19.47 18.66,0 33.89,6.35 45.72,19.07 11.82,12.72 17.76,30.62 17.76,53.68 0,1.4 -0.05,3.51 -0.13,6.29l-104.26 0c0.9,15.33 5.22,27.12 13.04,35.25 7.78,8.13 17.54,12.23 29.18,12.23 8.68,0 16.1,-2.28 22.21,-6.87 6.16,-4.59 11.01,-11.92 14.61,-21.98zm-77.69 -38.04l77.96 0c-1.03,-11.78 -4.04,-20.59 -8.95,-26.48 -7.5,-9.13 -17.3,-13.72 -29.31,-13.72 -10.89,0 -20.01,3.64 -27.43,10.93 -7.37,7.28 -11.46,17.04 -12.27,29.27z" />
  <path
   id="_5_9"
   class="fil2"
   d="M3511.36 1187.8l23.2 3.23c-2.56,15.96 -9.03,28.42 -19.51,37.46 -10.48,9.03 -23.38,13.53 -38.63,13.53 -19.11,0 -34.49,-6.24 -46.08,-18.74 -11.64,-12.5 -17.44,-30.4 -17.44,-53.68 0,-15.11 2.51,-28.28 7.5,-39.61 4.99,-11.29 12.59,-19.79 22.84,-25.41 10.21,-5.66 21.31,-8.5 33.36,-8.5 15.15,0 27.61,3.82 37.23,11.51 9.66,7.69 15.87,18.62 18.56,32.74l-22.93 3.51c-2.2,-9.4 -6.07,-16.46 -11.69,-21.22 -5.57,-4.72 -12.31,-7.11 -20.23,-7.11 -11.96,0 -21.67,4.27 -29.18,12.82 -7.47,8.58 -11.19,22.07 -11.19,40.6 0,18.79 3.59,32.42 10.79,40.92 7.24,8.5 16.63,12.76 28.19,12.76 9.35,0 17.13,-2.83 23.33,-8.54 6.25,-5.67 10.21,-14.43 11.87,-26.26z" />
  <path
   id="_6_10"
   class="fil2"
   d="M3606.31 1217.88l3.24 20.94c-6.65,1.4 -12.64,2.12 -17.86,2.12 -8.58,0 -15.24,-1.36 -20.01,-4.09 -4.72,-2.74 -8.05,-6.3 -9.98,-10.75 -1.93,-4.44 -2.88,-13.8 -2.88,-28.05l0 -80.66 -17.53 0 0 -18.34 17.53 0 0 -34.62 23.74 -14.25 0 48.87 23.73 0 0 18.34 -23.73 0 0 82c0,6.8 0.4,11.15 1.25,13.09 0.81,1.93 2.16,3.46 4.05,4.64 1.88,1.12 4.58,1.7 8.09,1.7 2.61,0 6.07,-0.32 10.34,-0.94z" />
  <path
   id="_7_11"
   class="fil2"
   d="M3725.23 1193.74l24.55 3.23c-3.81,14.25 -10.96,25.36 -21.4,33.23 -10.43,7.88 -23.73,11.82 -39.96,11.82 -20.42,0 -36.6,-6.29 -48.56,-18.88 -11.96,-12.54 -17.94,-30.21 -17.94,-52.92 0,-23.48 6.03,-41.72 18.12,-54.67 12.09,-12.99 27.79,-19.47 47.08,-19.47 18.66,0 33.89,6.35 45.72,19.07 11.82,12.72 17.76,30.62 17.76,53.68 0,1.4 -0.05,3.51 -0.13,6.29l-104.26 0c0.9,15.33 5.22,27.12 13.04,35.25 7.78,8.13 17.54,12.23 29.18,12.23 8.68,0 16.1,-2.28 22.21,-6.87 6.16,-4.59 11.01,-11.92 14.61,-21.98zm-77.69 -38.04l77.96 0c-1.03,-11.78 -4.04,-20.59 -8.95,-26.48 -7.5,-9.13 -17.3,-13.72 -29.31,-13.72 -10.89,0 -20.01,3.64 -27.43,10.93 -7.37,7.28 -11.46,17.04 -12.27,29.27z" />
  <path
   id="_8_12"
   class="fil2"
   d="M3870.14 1239.06l0 -17.76c-8.86,13.8 -21.9,20.72 -39.11,20.72 -11.15,0 -21.4,-3.05 -30.71,-9.21 -9.35,-6.12 -16.58,-14.7 -21.76,-25.67 -5.13,-11.01 -7.69,-23.65 -7.69,-37.94 0,-13.95 2.34,-26.57 6.97,-37.95 4.68,-11.34 11.65,-20.05 20.95,-26.09 9.26,-6.07 19.7,-9.08 31.16,-9.08 8.45,0 15.96,1.8 22.52,5.35 6.57,3.56 11.92,8.23 16.06,13.94l0 -69.46 23.73 0 0 193.15 -22.12 0zm-75 -69.83c0,17.89 3.78,31.25 11.37,40.11 7.56,8.85 16.51,13.26 26.8,13.26 10.38,0 19.19,-4.22 26.48,-12.67 7.24,-8.45 10.88,-21.35 10.88,-38.71 0,-19.06 -3.68,-33.09 -11.1,-42.04 -7.38,-8.95 -16.51,-13.39 -27.34,-13.39 -10.57,0 -19.38,4.26 -26.49,12.86 -7.05,8.58 -10.61,22.12 -10.61,40.6z" />
  <path
   id="_9_13"
   class="fil2"
   d="M4122.64 1216.39l0 22.66 -127.87 0c-0.17,-5.71 0.76,-11.19 2.79,-16.5 3.28,-8.68 8.55,-17.26 15.78,-25.67 7.24,-8.41 17.58,-18.12 31.03,-29.13 20.9,-17.22 35.11,-30.85 42.53,-40.91 7.47,-10.07 11.19,-19.6 11.19,-28.6 0,-9.4 -3.36,-17.31 -10.11,-23.78 -6.74,-6.43 -15.55,-9.66 -26.39,-9.66 -11.46,0 -20.64,3.41 -27.52,10.25 -6.87,6.79 -10.33,16.23 -10.43,28.32l-24.28 -2.43c1.66,-18.16 7.96,-32.01 18.84,-41.54 10.93,-9.53 25.54,-14.3 43.93,-14.3 18.51,0 33.23,5.13 44.01,15.43 10.84,10.29 16.23,23.06 16.23,38.26 0,7.73 -1.57,15.33 -4.76,22.79 -3.14,7.51 -8.41,15.38 -15.73,23.65 -7.38,8.23 -19.57,19.6 -36.56,33.99 -14.25,11.97 -23.42,20.05 -27.46,24.33 -4.05,4.27 -7.38,8.55 -10.03,12.86l94.82 0z" />
  <path
   id="_10_14"
   class="fil2"
   d="M4220.82 1169.05c0,-25.85 7.2,-45 21.63,-57.46 12.01,-10.34 26.71,-15.51 44.02,-15.51 19.19,0 34.93,6.3 47.16,18.89 12.19,12.54 18.3,29.95 18.3,52.1 0,17.99 -2.7,32.11 -8.09,42.4 -5.4,10.29 -13.27,18.3 -23.61,24.01 -10.29,5.71 -21.58,8.54 -33.76,8.54 -19.6,0 -35.43,-6.24 -47.53,-18.79 -12.09,-12.54 -18.12,-30.62 -18.12,-54.18zm24.28 0.05c0,17.89 3.92,31.29 11.74,40.15 7.87,8.91 17.71,13.35 29.63,13.35 11.78,0 21.57,-4.44 29.45,-13.39 7.82,-8.95 11.73,-22.57 11.73,-40.87 0,-17.26 -3.96,-30.35 -11.82,-39.2 -7.87,-8.91 -17.66,-13.35 -29.35,-13.35 -11.92,0 -21.76,4.41 -29.63,13.26 -7.82,8.86 -11.74,22.21 -11.74,40.06z" />
  <path
   id="_11"
   class="fil2"
   d="M4471.21 1239.06l0 -20.82c-10.88,15.88 -25.63,23.78 -44.28,23.78 -8.23,0 -15.92,-1.57 -23.06,-4.71 -7.15,-3.19 -12.45,-7.15 -15.92,-11.92 -3.46,-4.81 -5.89,-10.66 -7.28,-17.58 -0.95,-4.67 -1.44,-12.05 -1.44,-22.12l0 -86.64 23.74 0 0 77.46c0,12.37 0.49,20.73 1.43,25 1.48,6.25 4.64,11.11 9.49,14.66 4.81,3.55 10.74,5.35 17.85,5.35 7.1,0 13.75,-1.81 19.97,-5.45 6.2,-3.64 10.61,-8.63 13.21,-14.87 2.57,-6.25 3.87,-15.38 3.87,-27.3l0 -74.85 23.73 0 0 140 -21.31 0z" />
  <path
   id="_12"
   class="fil2"
   d="M4581.31 1217.88l3.24 20.94c-6.65,1.4 -12.64,2.12 -17.86,2.12 -8.58,0 -15.24,-1.36 -20.01,-4.09 -4.72,-2.74 -8.05,-6.3 -9.98,-10.75 -1.93,-4.44 -2.88,-13.8 -2.88,-28.05l0 -80.66 -17.53 0 0 -18.34 17.53 0 0 -34.62 23.74 -14.25 0 48.87 23.73 0 0 18.34 -23.73 0 0 82c0,6.8 0.4,11.15 1.25,13.09 0.81,1.93 2.16,3.46 4.05,4.64 1.88,1.12 4.58,1.7 8.09,1.7 2.61,0 6.07,-0.32 10.34,-0.94z" />
  <path
   id="_13"
   class="fil2"
   d="M2931.21 1470.41c0,-25.85 7.2,-45 21.63,-57.46 12.01,-10.34 26.71,-15.51 44.02,-15.51 19.19,0 34.93,6.3 47.16,18.89 12.19,12.54 18.3,29.95 18.3,52.1 0,17.99 -2.7,32.11 -8.09,42.4 -5.4,10.29 -13.27,18.3 -23.61,24.01 -10.29,5.71 -21.58,8.54 -33.76,8.54 -19.6,0 -35.43,-6.24 -47.53,-18.79 -12.09,-12.54 -18.12,-30.62 -18.12,-54.18zm24.28 0.05c0,17.89 3.92,31.29 11.74,40.15 7.87,8.91 17.71,13.35 29.63,13.35 11.78,0 21.57,-4.44 29.45,-13.39 7.82,-8.95 11.73,-22.57 11.73,-40.87 0,-17.26 -3.96,-30.35 -11.82,-39.2 -7.87,-8.91 -17.66,-13.35 -29.35,-13.35 -11.92,0 -21.76,4.41 -29.63,13.26 -7.82,8.86 -11.74,22.21 -11.74,40.06z" />
  <path
   id="_14"
   class="fil2"
   d="M3095.81 1540.42l0 -121.66 -21.04 0 0 -18.34 21.04 0 0 -14.83c0,-9.4 0.81,-16.37 2.48,-20.91 2.29,-6.11 6.25,-11.1 12.01,-14.92 5.71,-3.82 13.75,-5.72 24.1,-5.72 6.7,0 14.07,0.81 22.17,2.39l-3.56 20.77c-4.94,-0.86 -9.58,-1.31 -13.97,-1.31 -7.2,0 -12.28,1.53 -15.29,4.59 -2.96,3.06 -4.44,8.77 -4.44,17.13l0 12.82 27.24 0 0 18.34 -26.97 0 0 121.66 -23.74 0z" />
  <path
   id="_15"
   class="fil2"
   d="M3270.12 1435.71c-9.85,-3.59 -17.13,-8.77 -21.89,-15.42 -4.72,-6.7 -7.1,-14.7 -7.1,-24.01 0,-14.07 5.03,-25.86 15.1,-35.42 10.11,-9.58 23.51,-14.4 40.28,-14.4 16.82,0 30.4,4.9 40.65,14.7 10.25,9.81 15.37,21.72 15.37,35.8 0,8.95 -2.33,16.77 -7.02,23.38 -4.67,6.65 -11.78,11.78 -21.35,15.37 11.82,3.87 20.77,10.07 26.94,18.71 6.16,8.58 9.26,18.84 9.26,30.8 0,16.5 -5.85,30.35 -17.49,41.59 -11.69,11.24 -27.02,16.86 -46.04,16.86 -19.01,0 -34.34,-5.62 -46.03,-16.91 -11.64,-11.29 -17.49,-25.36 -17.49,-42.22 0,-12.54 3.19,-23.06 9.58,-31.51 6.39,-8.5 15.47,-14.25 27.24,-17.31zm-4.71 -40.28c0,9.17 2.92,16.63 8.72,22.43 5.85,5.8 13.49,8.72 22.98,8.72 9.21,0 16.68,-2.88 22.47,-8.63 5.8,-5.75 8.68,-12.81 8.68,-21.17 0,-8.73 -2.96,-16.05 -8.95,-21.98 -5.94,-5.94 -13.44,-8.91 -22.48,-8.91 -9.12,0 -16.63,2.92 -22.57,8.73 -5.89,5.8 -8.85,12.72 -8.85,20.82zm-7.83 89.29c0,6.79 1.58,13.31 4.72,19.65 3.14,6.29 7.91,11.19 14.3,14.65 6.34,3.46 13.17,5.22 20.41,5.22 11.42,0 20.77,-3.64 28.1,-10.93 7.33,-7.28 10.97,-16.55 10.97,-27.79 0,-11.42 -3.78,-20.87 -11.29,-28.32 -7.55,-7.47 -17.08,-11.2 -28.55,-11.2 -11.24,0 -20.46,3.69 -27.74,11.06 -7.28,7.38 -10.93,16.59 -10.93,27.65z" />
  <path
   id="_16"
   class="fil2"
   d="M3556.47 1489.17l23.2 3.23c-2.56,15.96 -9.03,28.42 -19.51,37.46 -10.48,9.03 -23.38,13.53 -38.63,13.53 -19.11,0 -34.49,-6.24 -46.08,-18.74 -11.64,-12.5 -17.44,-30.4 -17.44,-53.68 0,-15.11 2.51,-28.28 7.5,-39.61 4.99,-11.29 12.59,-19.79 22.84,-25.41 10.21,-5.66 21.31,-8.5 33.36,-8.5 15.15,0 27.61,3.82 37.23,11.51 9.66,7.69 15.87,18.62 18.56,32.74l-22.93 3.51c-2.2,-9.4 -6.07,-16.46 -11.69,-21.22 -5.57,-4.72 -12.31,-7.11 -20.23,-7.11 -11.96,0 -21.67,4.27 -29.18,12.82 -7.47,8.58 -11.19,22.07 -11.19,40.6 0,18.79 3.59,32.42 10.79,40.92 7.24,8.5 16.63,12.76 28.19,12.76 9.35,0 17.13,-2.83 23.33,-8.54 6.25,-5.67 10.21,-14.43 11.87,-26.26z" />
  <path
   id="_17"
   class="fil2"
   d="M3599.91 1540.42l0 -193.15 23.73 0 0 69.51c11.02,-12.9 24.91,-19.34 41.72,-19.34 10.29,0 19.24,2.03 26.89,6.12 7.6,4.09 13.04,9.71 16.32,16.91 3.29,7.19 4.9,17.66 4.9,31.33l0 88.62 -23.73 0 0 -88.53c0,-11.82 -2.57,-20.46 -7.65,-25.85 -5.12,-5.4 -12.32,-8.1 -21.67,-8.1 -6.97,0 -13.53,1.8 -19.69,5.44 -6.17,3.64 -10.52,8.59 -13.18,14.84 -2.6,6.2 -3.91,14.79 -3.91,25.76l0 76.43 -23.73 0z" />
  <path
   id="_18"
   class="fil2"
   d="M3841.38 1522.89c-8.81,7.5 -17.31,12.76 -25.44,15.87 -8.14,3.11 -16.86,4.63 -26.22,4.63 -15.37,0 -27.19,-3.73 -35.47,-11.23 -8.27,-7.47 -12.41,-17.04 -12.41,-28.69 0,-6.83 1.58,-13.09 4.67,-18.75 3.14,-5.67 7.24,-10.16 12.27,-13.57 5.09,-3.42 10.74,-6.03 17.09,-7.78 4.67,-1.21 11.73,-2.38 21.12,-3.56 19.16,-2.25 33.32,-4.99 42.35,-8.13 0.1,-3.24 0.13,-5.31 0.13,-6.16 0,-9.63 -2.25,-16.41 -6.74,-20.37 -6.07,-5.35 -15.11,-8 -27.07,-8 -11.19,0 -19.46,1.98 -24.78,5.89 -5.34,3.91 -9.25,10.83 -11.82,20.82l-23.2 -3.24c2.11,-9.94 5.58,-17.99 10.44,-24.1 4.86,-6.12 11.86,-10.79 21.04,-14.12 9.13,-3.29 19.79,-4.95 31.83,-4.95 11.96,0 21.72,1.4 29.22,4.22 7.47,2.84 13,6.35 16.51,10.62 3.51,4.26 5.97,9.66 7.42,16.18 0.76,4.04 1.17,11.33 1.17,21.8l0 31.48c0,21.98 0.5,35.87 1.48,41.76 0.95,5.9 2.92,11.52 5.8,16.91l-24.81 0c-2.39,-4.99 -3.92,-10.84 -4.59,-17.53zm-1.89 -52.61c-8.63,3.51 -21.57,6.48 -38.85,8.91 -9.8,1.39 -16.72,2.96 -20.77,4.71 -4.04,1.76 -7.15,4.32 -9.35,7.65 -2.21,3.37 -3.33,7.1 -3.33,11.24 0,6.25 2.38,11.51 7.19,15.7 4.82,4.18 11.83,6.29 21.05,6.29 9.13,0 17.26,-1.98 24.41,-5.97 7.1,-3.96 12.36,-9.41 15.69,-16.28 2.57,-5.35 3.82,-13.22 3.82,-23.61l0.13 -8.63z" />
  <path
   id="_19"
   class="fil2"
   d="M3899.97 1540.42l0 -140 21.31 0 0 19.87c10.26,-15.25 25.09,-22.84 44.47,-22.84 8.45,0 16.18,1.53 23.25,4.54 7.05,3.02 12.36,7.02 15.87,11.92 3.51,4.9 5.98,10.74 7.38,17.49 0.85,4.41 1.3,12.09 1.3,23.06l0 85.96 -23.73 0 0 -85.06c0,-9.67 -0.9,-16.91 -2.74,-21.68 -1.84,-4.76 -5.13,-8.58 -9.81,-11.46 -4.67,-2.83 -10.2,-4.27 -16.5,-4.27 -10.07,0 -18.74,3.19 -26.08,9.63 -7.33,6.39 -10.97,18.56 -10.97,36.46l0 76.39 -23.73 0z" />
  <path
   id="_20"
   class="fil2"
   d="M4050 1540.42l0 -140 21.31 0 0 19.87c10.26,-15.25 25.09,-22.84 44.47,-22.84 8.45,0 16.18,1.53 23.25,4.54 7.05,3.02 12.36,7.02 15.87,11.92 3.51,4.9 5.98,10.74 7.38,17.49 0.85,4.41 1.3,12.09 1.3,23.06l0 85.96 -23.73 0 0 -85.06c0,-9.67 -0.9,-16.91 -2.74,-21.68 -1.84,-4.76 -5.13,-8.58 -9.81,-11.46 -4.67,-2.83 -10.2,-4.27 -16.5,-4.27 -10.07,0 -18.74,3.19 -26.08,9.63 -7.33,6.39 -10.97,18.56 -10.97,36.46l0 76.39 -23.73 0z" />
  <path
   id="_21"
   class="fil2"
   d="M4295.52 1495.1l24.55 3.23c-3.81,14.25 -10.96,25.36 -21.4,33.23 -10.43,7.88 -23.73,11.82 -39.96,11.82 -20.42,0 -36.6,-6.29 -48.56,-18.88 -11.96,-12.54 -17.94,-30.21 -17.94,-52.92 0,-23.48 6.03,-41.72 18.12,-54.67 12.09,-12.99 27.79,-19.47 47.08,-19.47 18.66,0 33.89,6.35 45.72,19.07 11.82,12.72 17.76,30.62 17.76,53.68 0,1.4 -0.05,3.51 -0.13,6.29l-104.26 0c0.9,15.33 5.22,27.12 13.04,35.25 7.78,8.13 17.54,12.23 29.18,12.23 8.68,0 16.1,-2.28 22.21,-6.87 6.16,-4.59 11.01,-11.92 14.61,-21.98zm-77.69 -38.04l77.96 0c-1.03,-11.78 -4.04,-20.59 -8.95,-26.48 -7.5,-9.13 -17.3,-13.72 -29.31,-13.72 -10.89,0 -20.01,3.64 -27.43,10.93 -7.37,7.28 -11.46,17.04 -12.27,29.27z" />
  <path
   id="_22"
   class="fil2"
   d="M4349.52 1540.42l0 -193.15 23.74 0 0 193.15 -23.74 0z" />
  <path
   id="_23"
   class="fil2"
   d="M4425.64 1597.07l-17 0c26.25,-42.13 39.38,-84.31 39.38,-126.52 0,-16.51 -1.89,-32.87 -5.67,-49.1 -2.96,-13.17 -7.15,-25.81 -12.49,-37.95 -3.42,-7.87 -10.52,-21.04 -21.22,-39.48l17 0c16.45,22.03 28.64,44.15 36.55,66.37 6.74,19.11 10.11,39.11 10.11,60.02 0,23.7 -4.54,46.63 -13.62,68.75 -9.04,22.13 -20.05,41.41 -33.04,57.92z" />
  <path
   class="fil2"
   d="M3217.94 2920.47l24.01 -2.16c1.13,9.71 3.78,17.67 7.96,23.93 4.18,6.2 10.65,11.23 19.42,15.1 8.77,3.82 18.66,5.75 29.62,5.75 9.76,0 18.34,-1.44 25.81,-4.36 7.47,-2.92 12.99,-6.93 16.63,-12.01 3.64,-5.09 5.49,-10.61 5.49,-16.55 0,-6.02 -1.75,-11.29 -5.26,-15.83 -3.51,-4.49 -9.31,-8.27 -17.4,-11.37 -5.17,-1.98 -16.64,-5.12 -34.4,-9.4 -17.76,-4.27 -30.17,-8.27 -37.27,-12.04 -9.21,-4.86 -16.05,-10.89 -20.55,-18.04 -4.54,-7.14 -6.79,-15.19 -6.79,-24.05 0,-9.8 2.79,-18.93 8.32,-27.39 5.53,-8.5 13.58,-14.92 24.24,-19.33 10.61,-4.41 22.43,-6.61 35.42,-6.61 14.3,0 26.94,2.29 37.86,6.93 10.93,4.59 19.33,11.37 25.22,20.37 5.9,8.95 9.04,19.11 9.49,30.43l-24.55 1.88c-1.31,-12.18 -5.75,-21.39 -13.35,-27.61 -7.6,-6.24 -18.84,-9.35 -33.67,-9.35 -15.47,0 -26.75,2.83 -33.82,8.5 -7.05,5.67 -10.61,12.5 -10.61,20.5 0,6.92 2.52,12.64 7.51,17.13 4.94,4.45 17.76,9.08 38.53,13.75 20.77,4.72 35.02,8.81 42.76,12.32 11.19,5.17 19.52,11.69 24.86,19.65 5.35,7.9 8.01,17.03 8.01,27.38 0,10.29 -2.92,19.92 -8.81,29 -5.9,9.08 -14.3,16.14 -25.32,21.17 -11.01,5.04 -23.37,7.56 -37.17,7.56 -17.45,0 -32.06,-2.56 -43.85,-7.65 -11.82,-5.08 -21.04,-12.72 -27.74,-22.98 -6.74,-10.2 -10.25,-21.76 -10.61,-34.66z"
   id="path94" />
  <path
   id="_1_15"
   class="fil2"
   d="M3406.23 2982.52l0 -193.15 72.92 0c12.82,0 22.62,0.63 29.41,1.84 9.48,1.58 17.44,4.59 23.87,8.99 6.43,4.44 11.6,10.65 15.51,18.61 3.91,7.95 5.85,16.73 5.85,26.31 0,16.36 -5.22,30.25 -15.7,41.58 -10.43,11.38 -29.36,17.04 -56.69,17.04l-49.55 0 0 78.77 -25.63 0zm25.63 -101.43l49.91 0c16.55,0 28.24,-3.06 35.2,-9.22 6.93,-6.16 10.39,-14.79 10.39,-25.98 0,-8.05 -2.03,-14.98 -6.12,-20.73 -4.09,-5.75 -9.48,-9.58 -16.14,-11.42 -4.31,-1.12 -12.27,-1.7 -23.82,-1.7l-49.42 0 0 69.06z" />
  <path
   id="_2_16"
   class="fil2"
   d="M3544.98 2982.52l74.09 -193.15 28.1 0 78.64 193.15 -29.09 0 -22.35 -58.54 -81.33 0 -20.95 58.54 -27.11 0zm55.56 -79.31l65.83 0 -20.15 -53.55c-6.07,-16.28 -10.65,-29.72 -13.84,-40.34 -2.66,12.6 -6.21,24.96 -10.66,37.18l-21.18 56.7z" />
  <path
   id="_3_17"
   class="fil2"
   d="M3746.09 2982.52l0 -193.15 66.55 0c15.02,0 26.48,0.9 34.39,2.74 11.06,2.56 20.5,7.2 28.32,13.85 10.21,8.63 17.81,19.6 22.84,33 5.08,13.4 7.6,28.73 7.6,45.95 0,14.66 -1.71,27.65 -5.13,38.98 -3.41,11.34 -7.82,20.73 -13.17,28.15 -5.39,7.42 -11.24,13.26 -17.63,17.49 -6.34,4.26 -14.02,7.5 -23.02,9.71 -9.03,2.2 -19.38,3.28 -31.07,3.28l-69.69 0zm25.63 -22.66l41.19 0c12.72,0 22.7,-1.17 29.94,-3.55 7.25,-2.39 13,-5.72 17.31,-10.03 6.03,-6.07 10.74,-14.25 14.12,-24.51 3.37,-10.25 5.09,-22.65 5.09,-37.27 0,-20.24 -3.33,-35.79 -9.94,-46.66 -6.6,-10.89 -14.65,-18.17 -24.14,-21.85 -6.83,-2.66 -17.85,-3.96 -33.04,-3.96l-40.51 0 0 147.82z" />
  <path
   id="_4_18"
   class="fil2"
   d="M4104.33 2931.27l23.2 3.23c-2.56,15.96 -9.03,28.42 -19.51,37.46 -10.48,9.03 -23.38,13.53 -38.63,13.53 -19.11,0 -34.49,-6.24 -46.08,-18.74 -11.64,-12.5 -17.44,-30.4 -17.44,-53.68 0,-15.11 2.51,-28.28 7.5,-39.61 4.99,-11.29 12.59,-19.79 22.84,-25.41 10.21,-5.66 21.31,-8.5 33.36,-8.5 15.15,0 27.61,3.82 37.23,11.51 9.66,7.69 15.87,18.62 18.56,32.74l-22.93 3.51c-2.2,-9.4 -6.07,-16.46 -11.69,-21.22 -5.57,-4.72 -12.31,-7.11 -20.23,-7.11 -11.96,0 -21.67,4.27 -29.18,12.82 -7.47,8.58 -11.19,22.07 -11.19,40.6 0,18.79 3.59,32.42 10.79,40.92 7.24,8.5 16.63,12.76 28.19,12.76 9.35,0 17.13,-2.83 23.33,-8.54 6.25,-5.67 10.21,-14.43 11.87,-26.26z" />
  <path
   id="_5_19"
   class="fil2"
   d="M4199.29 2961.35l3.24 20.94c-6.65,1.4 -12.64,2.12 -17.86,2.12 -8.58,0 -15.24,-1.36 -20.01,-4.09 -4.72,-2.74 -8.05,-6.3 -9.98,-10.75 -1.93,-4.44 -2.88,-13.8 -2.88,-28.05l0 -80.66 -17.53 0 0 -18.34 17.53 0 0 -34.62 23.74 -14.25 0 48.87 23.73 0 0 18.34 -23.73 0 0 82c0,6.8 0.4,11.15 1.25,13.09 0.81,1.93 2.16,3.46 4.05,4.64 1.88,1.12 4.58,1.7 8.09,1.7 2.61,0 6.07,-0.32 10.34,-0.94z" />
  <path
   id="_6_20"
   class="fil2"
   d="M4222.44 2982.52l0 -140 21.32 0 0 21.44c5.44,-9.93 10.48,-16.5 15.1,-19.64 4.64,-3.19 9.71,-4.77 15.25,-4.77 8,0 16.14,2.52 24.41,7.51l-8.45 21.9c-5.75,-3.24 -11.51,-4.86 -17.26,-4.86 -5.17,0 -9.81,1.57 -13.9,4.67 -4.09,3.1 -7.02,7.42 -8.77,12.94 -2.66,8.41 -3.96,17.63 -3.96,27.65l0 73.15 -23.74 0z" />
  <path
   id="_7_21"
   class="fil2"
   d="M4312 2982.52l0 -193.15 23.74 0 0 193.15 -23.74 0z" />
  <path
   id="_8_22"
   class="fil2"
   d="M4379.22 2982.52l0 -26.97 26.97 0 0 26.97 -26.97 0z" />
  <path
   class="fil2"
   d="m 3758.0156,4626.3 v 22.66 h -127.87 c -0.17,-5.71 0.76,-11.19 2.79,-16.5 3.28,-8.68 8.55,-17.26 15.78,-25.67 7.24,-8.41 17.58,-18.12 31.03,-29.13 20.9,-17.22 35.11,-30.85 42.53,-40.91 7.47,-10.07 11.19,-19.6 11.19,-28.6 0,-9.4 -3.36,-17.31 -10.11,-23.78 -6.74,-6.43 -15.55,-9.66 -26.39,-9.66 -11.46,0 -20.64,3.41 -27.52,10.25 -6.87,6.79 -10.33,16.23 -10.43,28.32 l -24.28,-2.43 c 1.66,-18.16 7.96,-32.01 18.84,-41.54 10.93,-9.53 25.54,-14.3 43.93,-14.3 18.51,0 33.23,5.13 44.01,15.43 10.84,10.29 16.23,23.06 16.23,38.26 0,7.73 -1.57,15.33 -4.76,22.79 -3.14,7.51 -8.41,15.38 -15.73,23.65 -7.38,8.23 -19.57,19.6 -36.56,33.99 -14.25,11.97 -23.42,20.05 -27.46,24.33 -4.05,4.27 -7.38,8.55 -10.03,12.86 h 94.82 z"
   id="path104" />
  <path
   id="_1_23"
   class="fil2"
   d="m 3783.6856,4598.25 24.82,-1.88 c 1.84,12.09 6.11,21.17 12.77,27.29 6.65,6.07 14.79,9.13 24.36,9.13 11.56,0 21.22,-4.32 29.09,-12.9 7.83,-8.63 11.74,-20.05 11.74,-34.26 0,-13.53 -3.73,-24.19 -11.24,-32.01 -7.51,-7.83 -17.44,-11.74 -29.81,-11.74 -7.69,0 -14.57,1.75 -20.68,5.26 -6.07,3.51 -10.84,8.05 -14.35,13.62 l -22.39,-3.23 18.61,-99.28 h 95.77 v 22.66 h -76.84 l -10.29,52.1 c 11.56,-8.13 23.7,-12.18 36.38,-12.18 16.81,0 31.02,5.84 42.57,17.53 11.56,11.69 17.36,26.71 17.36,45.05 0,17.49 -5.09,32.59 -15.25,45.32 -12.36,15.65 -29.27,23.48 -50.67,23.48 -17.53,0 -31.83,-4.95 -42.94,-14.8 -11.11,-9.85 -17.44,-22.88 -19.02,-39.16 z" />
  
  
  
  
  
  
  <path
   id="_8_30"
   class="fil2"
   d="M3390.91 4882.58l25.63 6.47c-5.34,21 -14.97,36.95 -28.86,47.97 -13.9,11.01 -30.89,16.55 -50.99,16.55 -20.77,0 -37.68,-4.22 -50.72,-12.72 -13.04,-8.46 -22.93,-20.73 -29.72,-36.78 -6.79,-16.1 -10.21,-33.31 -10.21,-51.75 0,-20.1 3.82,-37.63 11.51,-52.6 7.69,-14.98 18.62,-26.35 32.78,-34.12 14.17,-7.78 29.77,-11.65 46.76,-11.65 19.34,0 35.57,4.9 48.69,14.75 13.17,9.85 22.35,23.65 27.52,41.46l-25.09 5.94c-4.45,-14.03 -10.97,-24.28 -19.47,-30.66 -8.5,-6.43 -19.19,-9.63 -32.1,-9.63 -14.8,0 -27.2,3.56 -37.14,10.66 -9.94,7.1 -16.96,16.68 -20.95,28.64 -4.04,12.01 -6.07,24.37 -6.07,37.1 0,16.41 2.38,30.75 7.15,42.98 4.76,12.27 12.18,21.4 22.25,27.47 10.07,6.07 20.95,9.08 32.69,9.08 14.29,0 26.34,-4.14 36.24,-12.37 9.89,-8.27 16.58,-20.5 20.09,-36.77z" />
  <path
   id="_9_31"
   class="fil2"
   d="M3445.18 4950.33l0 -193.15 23.73 0 0 69.51c11.02,-12.9 24.91,-19.34 41.72,-19.34 10.29,0 19.24,2.03 26.89,6.12 7.6,4.09 13.04,9.71 16.32,16.91 3.29,7.19 4.9,17.66 4.9,31.33l0 88.62 -23.73 0 0 -88.53c0,-11.82 -2.57,-20.46 -7.65,-25.85 -5.12,-5.4 -12.32,-8.1 -21.67,-8.1 -6.97,0 -13.53,1.8 -19.69,5.44 -6.17,3.64 -10.52,8.59 -13.18,14.84 -2.6,6.2 -3.91,14.79 -3.91,25.76l0 76.43 -23.73 0z" />
  <path
   id="_10_32"
   class="fil2"
   d="M3686.66 4932.8c-8.81,7.5 -17.31,12.76 -25.44,15.87 -8.14,3.11 -16.86,4.63 -26.22,4.63 -15.37,0 -27.19,-3.73 -35.47,-11.23 -8.27,-7.47 -12.41,-17.04 -12.41,-28.69 0,-6.83 1.58,-13.09 4.67,-18.75 3.14,-5.67 7.24,-10.16 12.27,-13.57 5.09,-3.42 10.74,-6.03 17.09,-7.78 4.67,-1.21 11.73,-2.38 21.12,-3.56 19.16,-2.25 33.32,-4.99 42.35,-8.13 0.1,-3.24 0.13,-5.31 0.13,-6.16 0,-9.63 -2.25,-16.41 -6.74,-20.37 -6.07,-5.35 -15.11,-8 -27.07,-8 -11.19,0 -19.46,1.98 -24.78,5.89 -5.34,3.91 -9.25,10.83 -11.82,20.82l-23.2 -3.24c2.11,-9.94 5.58,-17.99 10.44,-24.1 4.86,-6.12 11.86,-10.79 21.04,-14.12 9.13,-3.29 19.79,-4.95 31.83,-4.95 11.96,0 21.72,1.4 29.22,4.22 7.47,2.84 13,6.35 16.51,10.62 3.51,4.26 5.97,9.66 7.42,16.18 0.76,4.04 1.17,11.33 1.17,21.8l0 31.48c0,21.98 0.5,35.87 1.48,41.76 0.95,5.9 2.92,11.52 5.8,16.91l-24.81 0c-2.39,-4.99 -3.92,-10.84 -4.59,-17.53zm-1.89 -52.61c-8.63,3.51 -21.57,6.48 -38.85,8.91 -9.8,1.39 -16.72,2.96 -20.77,4.71 -4.04,1.76 -7.15,4.32 -9.35,7.65 -2.21,3.37 -3.33,7.1 -3.33,11.24 0,6.25 2.38,11.51 7.19,15.7 4.82,4.18 11.83,6.29 21.05,6.29 9.13,0 17.26,-1.98 24.41,-5.97 7.1,-3.96 12.36,-9.41 15.69,-16.28 2.57,-5.35 3.82,-13.22 3.82,-23.61l0.13 -8.63z" />
  <path
   id="_11_33"
   class="fil2"
   d="M3745.24 4950.33l0 -140 21.31 0 0 19.87c10.26,-15.25 25.09,-22.84 44.47,-22.84 8.45,0 16.18,1.53 23.25,4.54 7.05,3.02 12.36,7.02 15.87,11.92 3.51,4.9 5.98,10.74 7.38,17.49 0.85,4.41 1.3,12.09 1.3,23.06l0 85.96 -23.73 0 0 -85.06c0,-9.67 -0.9,-16.91 -2.74,-21.68 -1.84,-4.76 -5.13,-8.58 -9.81,-11.46 -4.67,-2.83 -10.2,-4.27 -16.5,-4.27 -10.07,0 -18.74,3.19 -26.08,9.63 -7.33,6.39 -10.97,18.56 -10.97,36.46l0 76.39 -23.73 0z" />
  <path
   id="_12_34"
   class="fil2"
   d="M3895.28 4950.33l0 -140 21.31 0 0 19.87c10.26,-15.25 25.09,-22.84 44.47,-22.84 8.45,0 16.18,1.53 23.25,4.54 7.05,3.02 12.36,7.02 15.87,11.92 3.51,4.9 5.98,10.74 7.38,17.49 0.85,4.41 1.3,12.09 1.3,23.06l0 85.96 -23.73 0 0 -85.06c0,-9.67 -0.9,-16.91 -2.74,-21.68 -1.84,-4.76 -5.13,-8.58 -9.81,-11.46 -4.67,-2.83 -10.2,-4.27 -16.5,-4.27 -10.07,0 -18.74,3.19 -26.08,9.63 -7.33,6.39 -10.97,18.56 -10.97,36.46l0 76.39 -23.73 0z" />
  <path
   id="_13_35"
   class="fil2"
   d="M4140.8 4905.01l24.55 3.23c-3.81,14.25 -10.96,25.36 -21.4,33.23 -10.43,7.88 -23.73,11.82 -39.96,11.82 -20.42,0 -36.6,-6.29 -48.56,-18.88 -11.96,-12.54 -17.94,-30.21 -17.94,-52.92 0,-23.48 6.03,-41.72 18.12,-54.67 12.09,-12.99 27.79,-19.47 47.08,-19.47 18.66,0 33.89,6.35 45.72,19.07 11.82,12.72 17.76,30.62 17.76,53.68 0,1.4 -0.05,3.51 -0.13,6.29l-104.26 0c0.9,15.33 5.22,27.12 13.04,35.25 7.78,8.13 17.54,12.23 29.18,12.23 8.68,0 16.1,-2.28 22.21,-6.87 6.16,-4.59 11.01,-11.92 14.61,-21.98zm-77.69 -38.04l77.96 0c-1.03,-11.78 -4.04,-20.59 -8.95,-26.48 -7.5,-9.13 -17.3,-13.72 -29.31,-13.72 -10.89,0 -20.01,3.64 -27.43,10.93 -7.37,7.28 -11.46,17.04 -12.27,29.27z" />
  <path
   id="_14_36"
   class="fil2"
   d="M4194.79 4950.33l0 -193.15 23.74 0 0 193.15 -23.74 0z" />
  <path
   id="_15_37"
   class="fil2"
   d="M4245.83 4908.52l23.47 -3.79c1.31,9.41 4.99,16.59 11.02,21.63 6.02,4.99 14.47,7.5 25.26,7.5 10.93,0 19.02,-2.2 24.33,-6.65 5.26,-4.41 7.91,-9.62 7.91,-15.6 0,-5.35 -2.39,-9.58 -7.11,-12.64 -3.33,-2.11 -11.41,-4.76 -24.28,-8.05 -17.35,-4.36 -29.35,-8.13 -36.1,-11.33 -6.69,-3.24 -11.78,-7.64 -15.24,-13.31 -3.46,-5.62 -5.22,-11.87 -5.22,-18.71 0,-6.25 1.44,-12.01 4.27,-17.31 2.88,-5.31 6.75,-9.71 11.64,-13.22 3.69,-2.7 8.73,-4.99 15.06,-6.87 6.39,-1.89 13.17,-2.84 20.46,-2.84 10.97,0 20.59,1.58 28.87,4.77 8.32,3.14 14.43,7.47 18.39,12.86 3.91,5.44 6.65,12.68 8.13,21.76l-23.2 3.23c-1.03,-7.28 -4.09,-12.99 -9.13,-17.08 -5.04,-4.09 -12.14,-6.12 -21.35,-6.12 -10.84,0 -18.61,1.8 -23.25,5.4 -4.63,3.59 -6.97,7.82 -6.97,12.63 0,3.06 0.95,5.85 2.88,8.33 1.93,2.51 4.95,4.63 9.08,6.29 2.39,0.9 9.31,2.92 20.9,6.07 16.73,4.45 28.42,8.14 35.07,10.97 6.65,2.83 11.87,7.02 15.65,12.41 3.82,5.44 5.72,12.19 5.72,20.27 0,7.88 -2.29,15.29 -6.93,22.26 -4.63,6.97 -11.28,12.36 -19.96,16.18 -8.73,3.82 -18.57,5.71 -29.55,5.71 -18.16,0 -32.05,-3.78 -41.58,-11.28 -9.54,-7.55 -15.61,-18.71 -18.26,-33.49z" />
  <path
   class="fil2"
   d="M3384.16 6373.65l0 22.66 -127.87 0c-0.17,-5.71 0.76,-11.19 2.79,-16.5 3.28,-8.68 8.55,-17.26 15.78,-25.67 7.24,-8.41 17.58,-18.12 31.03,-29.13 20.9,-17.22 35.11,-30.85 42.53,-40.91 7.47,-10.07 11.19,-19.6 11.19,-28.6 0,-9.4 -3.36,-17.31 -10.11,-23.78 -6.74,-6.43 -15.55,-9.66 -26.39,-9.66 -11.46,0 -20.64,3.41 -27.52,10.25 -6.87,6.79 -10.33,16.23 -10.43,28.32l-24.28 -2.43c1.66,-18.16 7.96,-32.01 18.84,-41.54 10.93,-9.53 25.54,-14.3 43.93,-14.3 18.51,0 33.23,5.13 44.01,15.43 10.84,10.29 16.23,23.06 16.23,38.26 0,7.73 -1.57,15.33 -4.76,22.79 -3.14,7.51 -8.41,15.38 -15.73,23.65 -7.38,8.23 -19.57,19.6 -36.56,33.99 -14.25,11.97 -23.42,20.05 -27.46,24.33 -4.05,4.27 -7.38,8.55 -10.03,12.86l94.82 0z"
   id="path121" />
  <path
   id="_1_38"
   class="fil2"
   d="M3586.74 6350.99l24.55 3.23c-3.81,14.25 -10.96,25.36 -21.4,33.23 -10.43,7.88 -23.73,11.82 -39.96,11.82 -20.42,0 -36.6,-6.29 -48.56,-18.88 -11.96,-12.54 -17.94,-30.21 -17.94,-52.92 0,-23.48 6.03,-41.72 18.12,-54.67 12.09,-12.99 27.79,-19.47 47.08,-19.47 18.66,0 33.89,6.35 45.72,19.07 11.82,12.72 17.76,30.62 17.76,53.68 0,1.4 -0.05,3.51 -0.13,6.29l-104.26 0c0.9,15.33 5.22,27.12 13.04,35.25 7.78,8.13 17.54,12.23 29.18,12.23 8.68,0 16.1,-2.28 22.21,-6.87 6.16,-4.59 11.01,-11.92 14.61,-21.98zm-77.69 -38.04l77.96 0c-1.03,-11.78 -4.04,-20.59 -8.95,-26.48 -7.5,-9.13 -17.3,-13.72 -29.31,-13.72 -10.89,0 -20.01,3.64 -27.43,10.93 -7.37,7.28 -11.46,17.04 -12.27,29.27z" />
  <path
   id="_2_39"
   class="fil2"
   d="M3625.09 6396.31l51.12 -72.52 -47.34 -67.48 29.18 0 22.12 33.04c4.09,6.2 7.33,11.24 9.63,15.2 4.01,-5.62 7.55,-10.71 10.74,-15.25l23.29 -33 28.99 0 -47.61 67.48 50.72 72.52 -28.87 0 -28.95 -43.17 -6.6 -10.38 -37.41 53.55 -29 0z" />
  <path
   id="_3_40"
   class="fil2"
   d="M3827.69 6375.14l3.24 20.94c-6.65,1.4 -12.64,2.12 -17.86,2.12 -8.58,0 -15.24,-1.36 -20.01,-4.09 -4.72,-2.74 -8.05,-6.3 -9.98,-10.75 -1.93,-4.44 -2.88,-13.8 -2.88,-28.05l0 -80.66 -17.53 0 0 -18.34 17.53 0 0 -34.62 23.74 -14.25 0 48.87 23.73 0 0 18.34 -23.73 0 0 82c0,6.8 0.4,11.15 1.25,13.09 0.81,1.93 2.16,3.46 4.05,4.64 1.88,1.12 4.58,1.7 8.09,1.7 2.61,0 6.07,-0.32 10.34,-0.94z" />
  <path
   id="_4_41"
   class="fil2"
   d="M3850.84 6396.31l0 -140 21.32 0 0 21.44c5.44,-9.93 10.48,-16.5 15.1,-19.64 4.64,-3.19 9.71,-4.77 15.25,-4.77 8,0 16.14,2.52 24.41,7.51l-8.45 21.9c-5.75,-3.24 -11.51,-4.86 -17.26,-4.86 -5.17,0 -9.81,1.57 -13.9,4.67 -4.09,3.1 -7.02,7.42 -8.77,12.94 -2.66,8.41 -3.96,17.63 -3.96,27.65l0 73.15 -23.74 0z" />
  <path
   id="_5_42"
   class="fil2"
   d="M4032.39 6378.78c-8.81,7.5 -17.31,12.76 -25.44,15.87 -8.14,3.11 -16.86,4.63 -26.22,4.63 -15.37,0 -27.19,-3.73 -35.47,-11.23 -8.27,-7.47 -12.41,-17.04 -12.41,-28.69 0,-6.83 1.58,-13.09 4.67,-18.75 3.14,-5.67 7.24,-10.16 12.27,-13.57 5.09,-3.42 10.74,-6.03 17.09,-7.78 4.67,-1.21 11.73,-2.38 21.12,-3.56 19.16,-2.25 33.32,-4.99 42.35,-8.13 0.1,-3.24 0.13,-5.31 0.13,-6.16 0,-9.63 -2.25,-16.41 -6.74,-20.37 -6.07,-5.35 -15.11,-8 -27.07,-8 -11.19,0 -19.46,1.98 -24.78,5.89 -5.34,3.91 -9.25,10.83 -11.82,20.82l-23.2 -3.24c2.11,-9.94 5.58,-17.99 10.44,-24.1 4.86,-6.12 11.86,-10.79 21.04,-14.12 9.13,-3.29 19.79,-4.95 31.83,-4.95 11.96,0 21.72,1.4 29.22,4.22 7.47,2.84 13,6.35 16.51,10.62 3.51,4.26 5.97,9.66 7.42,16.18 0.76,4.04 1.17,11.33 1.17,21.8l0 31.48c0,21.98 0.5,35.87 1.48,41.76 0.95,5.9 2.92,11.52 5.8,16.91l-24.81 0c-2.39,-4.99 -3.92,-10.84 -4.59,-17.53zm-1.89 -52.61c-8.63,3.51 -21.57,6.48 -38.85,8.91 -9.8,1.39 -16.72,2.96 -20.77,4.71 -4.04,1.76 -7.15,4.32 -9.35,7.65 -2.21,3.37 -3.33,7.1 -3.33,11.24 0,6.25 2.38,11.51 7.19,15.7 4.82,4.18 11.83,6.29 21.05,6.29 9.13,0 17.26,-1.98 24.41,-5.97 7.1,-3.96 12.36,-9.41 15.69,-16.28 2.57,-5.35 3.82,-13.22 3.82,-23.61l0.13 -8.63z" />
  <path
   id="_6_43"
   class="fil2"
   d="M3249.28 6629.92l25.63 6.47c-5.34,21 -14.97,36.95 -28.86,47.97 -13.9,11.01 -30.89,16.55 -50.99,16.55 -20.77,0 -37.68,-4.22 -50.72,-12.72 -13.04,-8.46 -22.93,-20.73 -29.72,-36.78 -6.79,-16.1 -10.21,-33.31 -10.21,-51.75 0,-20.1 3.82,-37.63 11.51,-52.6 7.69,-14.98 18.62,-26.35 32.78,-34.12 14.17,-7.78 29.77,-11.65 46.76,-11.65 19.34,0 35.57,4.9 48.69,14.75 13.17,9.85 22.35,23.65 27.52,41.46l-25.09 5.94c-4.45,-14.03 -10.97,-24.28 -19.47,-30.66 -8.5,-6.43 -19.19,-9.63 -32.1,-9.63 -14.8,0 -27.2,3.56 -37.14,10.66 -9.94,7.1 -16.96,16.68 -20.95,28.64 -4.04,12.01 -6.07,24.37 -6.07,37.1 0,16.41 2.38,30.75 7.15,42.98 4.76,12.27 12.18,21.4 22.25,27.47 10.07,6.07 20.95,9.08 32.69,9.08 14.29,0 26.34,-4.14 36.24,-12.37 9.89,-8.27 16.58,-20.5 20.09,-36.77z" />
  <path
   id="_7_44"
   class="fil2"
   d="M3303.55 6697.67l0 -193.15 23.73 0 0 69.51c11.02,-12.9 24.91,-19.34 41.72,-19.34 10.29,0 19.24,2.03 26.89,6.12 7.6,4.09 13.04,9.71 16.32,16.91 3.29,7.19 4.9,17.66 4.9,31.33l0 88.62 -23.73 0 0 -88.53c0,-11.82 -2.57,-20.46 -7.65,-25.85 -5.12,-5.4 -12.32,-8.1 -21.67,-8.1 -6.97,0 -13.53,1.8 -19.69,5.44 -6.17,3.64 -10.52,8.59 -13.18,14.84 -2.6,6.2 -3.91,14.79 -3.91,25.76l0 76.43 -23.73 0z" />
  <path
   id="_8_45"
   class="fil2"
   d="M3545.03 6680.14c-8.81,7.5 -17.31,12.76 -25.44,15.87 -8.14,3.11 -16.86,4.63 -26.22,4.63 -15.37,0 -27.19,-3.73 -35.47,-11.23 -8.27,-7.47 -12.41,-17.04 -12.41,-28.69 0,-6.83 1.58,-13.09 4.67,-18.75 3.14,-5.67 7.24,-10.16 12.27,-13.57 5.09,-3.42 10.74,-6.03 17.09,-7.78 4.67,-1.21 11.73,-2.38 21.12,-3.56 19.16,-2.25 33.32,-4.99 42.35,-8.13 0.1,-3.24 0.13,-5.31 0.13,-6.16 0,-9.63 -2.25,-16.41 -6.74,-20.37 -6.07,-5.35 -15.11,-8 -27.07,-8 -11.19,0 -19.46,1.98 -24.78,5.89 -5.34,3.91 -9.25,10.83 -11.82,20.82l-23.2 -3.24c2.11,-9.94 5.58,-17.99 10.44,-24.1 4.86,-6.12 11.86,-10.79 21.04,-14.12 9.13,-3.29 19.79,-4.95 31.83,-4.95 11.96,0 21.72,1.4 29.22,4.22 7.47,2.84 13,6.35 16.51,10.62 3.51,4.26 5.97,9.66 7.42,16.18 0.76,4.04 1.17,11.33 1.17,21.8l0 31.48c0,21.98 0.5,35.87 1.48,41.76 0.95,5.9 2.92,11.52 5.8,16.91l-24.81 0c-2.39,-4.99 -3.92,-10.84 -4.59,-17.53zm-1.89 -52.61c-8.63,3.51 -21.57,6.48 -38.85,8.91 -9.8,1.39 -16.72,2.96 -20.77,4.71 -4.04,1.76 -7.15,4.32 -9.35,7.65 -2.21,3.37 -3.33,7.1 -3.33,11.24 0,6.25 2.38,11.51 7.19,15.7 4.82,4.18 11.83,6.29 21.05,6.29 9.13,0 17.26,-1.98 24.41,-5.97 7.1,-3.96 12.36,-9.41 15.69,-16.28 2.57,-5.35 3.82,-13.22 3.82,-23.61l0.13 -8.63z" />
  <path
   id="_9_46"
   class="fil2"
   d="M3603.62 6697.67l0 -140 21.31 0 0 19.87c10.26,-15.25 25.09,-22.84 44.47,-22.84 8.45,0 16.18,1.53 23.25,4.54 7.05,3.02 12.36,7.02 15.87,11.92 3.51,4.9 5.98,10.74 7.38,17.49 0.85,4.41 1.3,12.09 1.3,23.06l0 85.96 -23.73 0 0 -85.06c0,-9.67 -0.9,-16.91 -2.74,-21.68 -1.84,-4.76 -5.13,-8.58 -9.81,-11.46 -4.67,-2.83 -10.2,-4.27 -16.5,-4.27 -10.07,0 -18.74,3.19 -26.08,9.63 -7.33,6.39 -10.97,18.56 -10.97,36.46l0 76.39 -23.73 0z" />
  <path
   id="_10_47"
   class="fil2"
   d="M3753.65 6697.67l0 -140 21.31 0 0 19.87c10.26,-15.25 25.09,-22.84 44.47,-22.84 8.45,0 16.18,1.53 23.25,4.54 7.05,3.02 12.36,7.02 15.87,11.92 3.51,4.9 5.98,10.74 7.38,17.49 0.85,4.41 1.3,12.09 1.3,23.06l0 85.96 -23.73 0 0 -85.06c0,-9.67 -0.9,-16.91 -2.74,-21.68 -1.84,-4.76 -5.13,-8.58 -9.81,-11.46 -4.67,-2.83 -10.2,-4.27 -16.5,-4.27 -10.07,0 -18.74,3.19 -26.08,9.63 -7.33,6.39 -10.97,18.56 -10.97,36.46l0 76.39 -23.73 0z" />
  <path
   id="_11_48"
   class="fil2"
   d="M3999.17 6652.36l24.55 3.23c-3.81,14.25 -10.96,25.36 -21.4,33.23 -10.43,7.88 -23.73,11.82 -39.96,11.82 -20.42,0 -36.6,-6.29 -48.56,-18.88 -11.96,-12.54 -17.94,-30.21 -17.94,-52.92 0,-23.48 6.03,-41.72 18.12,-54.67 12.09,-12.99 27.79,-19.47 47.08,-19.47 18.66,0 33.89,6.35 45.72,19.07 11.82,12.72 17.76,30.62 17.76,53.68 0,1.4 -0.05,3.51 -0.13,6.29l-104.26 0c0.9,15.33 5.22,27.12 13.04,35.25 7.78,8.13 17.54,12.23 29.18,12.23 8.68,0 16.1,-2.28 22.21,-6.87 6.16,-4.59 11.01,-11.92 14.61,-21.98zm-77.69 -38.04l77.96 0c-1.03,-11.78 -4.04,-20.59 -8.95,-26.48 -7.5,-9.13 -17.3,-13.72 -29.31,-13.72 -10.89,0 -20.01,3.64 -27.43,10.93 -7.37,7.28 -11.46,17.04 -12.27,29.27z" />
  <path
   id="_12_49"
   class="fil2"
   d="M4053.16 6697.67l0 -193.15 23.74 0 0 193.15 -23.74 0z" />
  <path
   id="_13_50"
   class="fil2"
   d="M4104.2 6655.86l23.47 -3.79c1.31,9.41 4.99,16.59 11.02,21.63 6.02,4.99 14.47,7.5 25.26,7.5 10.93,0 19.02,-2.2 24.33,-6.65 5.26,-4.41 7.91,-9.62 7.91,-15.6 0,-5.35 -2.39,-9.58 -7.11,-12.64 -3.33,-2.11 -11.41,-4.76 -24.28,-8.05 -17.35,-4.36 -29.35,-8.13 -36.1,-11.33 -6.69,-3.24 -11.78,-7.64 -15.24,-13.31 -3.46,-5.62 -5.22,-11.87 -5.22,-18.71 0,-6.25 1.44,-12.01 4.27,-17.31 2.88,-5.31 6.75,-9.71 11.64,-13.22 3.69,-2.7 8.73,-4.99 15.06,-6.87 6.39,-1.89 13.17,-2.84 20.46,-2.84 10.97,0 20.59,1.58 28.87,4.77 8.32,3.14 14.43,7.47 18.39,12.86 3.91,5.44 6.65,12.68 8.13,21.76l-23.2 3.23c-1.03,-7.28 -4.09,-12.99 -9.13,-17.08 -5.04,-4.09 -12.14,-6.12 -21.35,-6.12 -10.84,0 -18.61,1.8 -23.25,5.4 -4.63,3.59 -6.97,7.82 -6.97,12.63 0,3.06 0.95,5.85 2.88,8.33 1.93,2.51 4.95,4.63 9.08,6.29 2.39,0.9 9.31,2.92 20.9,6.07 16.73,4.45 28.42,8.14 35.07,10.97 6.65,2.83 11.87,7.02 15.65,12.41 3.82,5.44 5.72,12.19 5.72,20.27 0,7.88 -2.29,15.29 -6.93,22.26 -4.63,6.97 -11.28,12.36 -19.96,16.18 -8.73,3.82 -18.57,5.71 -29.55,5.71 -18.16,0 -32.05,-3.78 -41.58,-11.28 -9.54,-7.55 -15.61,-18.71 -18.26,-33.49z" />
  <rect
   class="fil4 str0"
   x="212.49"
   y="2185.81"
   width="2389.64"
   height="2389.64"
   id="rect136" />
  <ellipse
   class="fil5 str0"
   cx="1407.31"
   cy="3380.63"
   rx="738.44"
   ry="709.61"
   id="ellipse138" />
  <rect
   class="fil6 str0"
   x="981.06"
   y="2954.39"
   width="852.49"
   height="852.49"
   id="rect140" />
  <path
   class="fil7"
   d="M1030.92 2451.62l38.03 -3.78c2.29,12.73 6.88,22.03 13.85,28.02 6.97,5.97 16.36,8.95 28.19,8.95 12.5,0 21.94,-2.66 28.28,-7.96 6.34,-5.31 9.53,-11.51 9.53,-18.61 0,-4.59 -1.35,-8.45 -4.01,-11.69 -2.65,-3.19 -7.33,-5.98 -13.98,-8.32 -4.54,-1.62 -14.88,-4.41 -31.07,-8.45 -20.82,-5.22 -35.42,-11.6 -43.84,-19.2 -11.82,-10.66 -17.71,-23.65 -17.71,-38.98 0,-9.85 2.78,-19.11 8.32,-27.69 5.57,-8.59 13.57,-15.11 24.05,-19.6 10.48,-4.5 23.06,-6.75 37.91,-6.75 24.14,0 42.34,5.35 54.53,16.1 12.23,10.74 18.61,25.04 19.24,42.98l-39.11 1.35c-1.66,-9.98 -5.22,-17.13 -10.66,-21.49 -5.44,-4.37 -13.62,-6.57 -24.5,-6.57 -11.24,0 -20.05,2.33 -26.39,7.02 -4.09,3.01 -6.17,7.01 -6.17,12.04 0,4.59 1.94,8.5 5.8,11.74 4.9,4.18 16.81,8.5 35.75,12.99 18.93,4.45 32.91,9.13 41.94,13.9 9.08,4.81 16.18,11.33 21.32,19.64 5.12,8.32 7.69,18.57 7.69,30.75 0,11.07 -3.06,21.45 -9.21,31.11 -6.17,9.67 -14.83,16.86 -26.08,21.54 -11.24,4.72 -25.27,7.06 -42.04,7.06 -24.41,0 -43.17,-5.62 -56.25,-16.91 -13.08,-11.24 -20.86,-27.64 -23.42,-49.19z"
   id="path142" />
  <path
   id="_1_51"
   class="fil7"
   d="M1221.1 2514.21l0 -193.15 62.54 0c23.7,0 39.11,0.95 46.31,2.88 11.06,2.92 20.32,9.21 27.79,18.93 7.46,9.71 11.19,22.26 11.19,37.63 0,11.87 -2.16,21.81 -6.43,29.9 -4.31,8.1 -9.75,14.43 -16.36,19.07 -6.6,4.58 -13.35,7.64 -20.19,9.12 -9.31,1.84 -22.75,2.79 -40.38,2.79l-25.36 0 0 72.84 -39.11 0zm39.11 -160.51l0 55.03 21.27 0c15.33,0 25.54,-1.03 30.71,-3.06 5.17,-2.02 9.21,-5.17 12.14,-9.53 2.92,-4.31 4.41,-9.3 4.41,-15.06 0,-7.05 -2.07,-12.86 -6.17,-17.44 -4.13,-4.58 -9.3,-7.46 -15.64,-8.63 -4.64,-0.85 -13.95,-1.3 -27.97,-1.3l-18.75 0z" />
  <path
   id="_2_52"
   class="fil7"
   d="M1555.02 2514.21l-42.12 0 -16.68 -43.97 -77.46 0 -16.06 43.97 -41.36 0 75 -193.15 41.31 0 77.38 193.15zm-71.48 -76.61l-26.85 -71.49 -26.08 71.49 52.93 0z" />
  <path
   id="_3_53"
   class="fil7"
   d="M1575.83 2321.06l71.13 0c16.06,0 28.28,1.21 36.7,3.69 11.28,3.33 20.99,9.26 29.04,17.8 8.1,8.5 14.21,18.94 18.44,31.29 4.18,12.32 6.29,27.57 6.29,45.63 0,15.92 -1.98,29.58 -5.94,41.1 -4.81,14.07 -11.69,25.44 -20.64,34.12 -6.74,6.6 -15.87,11.73 -27.34,15.42 -8.58,2.74 -20.04,4.09 -34.44,4.09l-73.24 0 0 -193.15zm39.11 32.64l0 127.86 29 0c10.84,0 18.66,-0.63 23.48,-1.84 6.34,-1.57 11.55,-4.27 15.69,-8.05 4.19,-3.78 7.55,-9.98 10.16,-18.61 2.66,-8.63 3.96,-20.46 3.96,-35.39 0,-14.92 -1.3,-26.34 -3.96,-34.34 -2.61,-8.01 -6.29,-14.21 -11.01,-18.71 -4.72,-4.45 -10.71,-7.51 -17.99,-9.08 -5.39,-1.21 -16.05,-1.84 -31.88,-1.84l-17.44 0z" />
  <rect
   class="fil0 str0"
   x="212.49"
   y="5531.31"
   width="2389.64"
   height="955.86"
   id="rect147" />
  <rect
   class="fil8 str0"
   x="9.56"
   y="5807.92"
   width="546.94"
   height="352.26"
   id="rect149" />
  <path
   class="fil2"
   d="M778.32 6133.6l-36.95 0 0 -139.82c-13.49,12.67 -29.4,22.07 -47.75,28.14l0 -33.72c9.66,-3.14 20.14,-9.13 31.42,-17.98 11.34,-8.81 19.07,-19.11 23.29,-30.85l29.99 0 0 194.23z"
   id="path151" />
  <path
   id="_1_54"
   class="fil2"
   d="M837.44 6082.08l0 -36.96 72.84 0 0 36.96 -72.84 0z" />
  <path
   id="_2_55"
   class="fil2"
   d="M930.52 5993.6l34.54 0 0 20.54c4.49,-7.01 10.51,-12.67 18.16,-17.03 7.64,-4.32 16.13,-6.48 25.44,-6.48 16.23,0 30.03,6.39 41.36,19.16 11.34,12.72 17,30.53 17,53.28 0,23.43 -5.71,41.59 -17.13,54.58 -11.41,13 -25.26,19.47 -41.54,19.47 -7.73,0 -14.75,-1.53 -21.04,-4.64 -6.25,-3.05 -12.9,-8.32 -19.82,-15.78l0 70.05 -36.96 0 0 -193.15zm36.42 67.85c0,15.78 3.11,27.42 9.35,34.97 6.21,7.51 13.8,11.29 22.71,11.29 8.58,0 15.73,-3.46 21.44,-10.39 5.72,-6.92 8.55,-18.26 8.55,-34.04 0,-14.74 -2.92,-25.66 -8.81,-32.81 -5.84,-7.15 -13.12,-10.71 -21.8,-10.71 -9.04,0 -16.55,3.51 -22.48,10.52 -5.97,7.02 -8.95,17.4 -8.95,31.16z" />
  <path
   id="_3_56"
   class="fil2"
   d="M1096.38 5974.71l0 -34.26 36.95 0 0 34.26 -36.95 0zm0 158.89l0 -140 36.95 0 0 140 -36.95 0z" />
  <path
   id="_4_57"
   class="fil2"
   d="M1153.38 6133.6l50.45 -72.12 -48.29 -67.88 45.14 0 24.73 38.48 26.26 -38.48 43.35 0 -47.44 66.32 51.75 73.69 -45.09 0 -28.83 -43.39 -28.68 43.39 -43.35 0z" />
  <path
   id="_5_58"
   class="fil2"
   d="M1402.29 6089.37l36.95 6.2c-4.72,13.53 -12.23,23.83 -22.43,30.93 -10.26,7.05 -23.06,10.61 -38.4,10.61 -24.33,0 -42.35,-7.96 -54,-23.88 -9.21,-12.77 -13.85,-28.87 -13.85,-48.33 0,-23.2 6.07,-41.41 18.16,-54.54 12.1,-13.17 27.43,-19.74 45.96,-19.74 20.77,0 37.17,6.88 49.23,20.64 12.01,13.76 17.76,34.85 17.22,63.26l-92.54 0c0.28,10.97 3.24,19.52 8.95,25.63 5.67,6.12 12.77,9.18 21.23,9.18 5.79,0 10.65,-1.58 14.57,-4.72 3.95,-3.14 6.92,-8.23 8.95,-15.24zm2.15 -37.5c-0.27,-10.74 -3.01,-18.94 -8.27,-24.51 -5.26,-5.62 -11.64,-8.4 -19.2,-8.4 -8.05,0 -14.7,2.96 -19.96,8.85 -5.26,5.89 -7.82,13.94 -7.73,24.06l55.16 0z" />
  <path
   id="_6_59"
   class="fil2"
   d="M1471.39 6133.6l0 -193.15 36.95 0 0 193.15 -36.95 0z" />
  <path
   id="_7_60"
   class="fil2"
   d="M1611.31 6071.01l38.03 -3.78c2.29,12.73 6.88,22.03 13.85,28.02 6.97,5.97 16.36,8.95 28.19,8.95 12.5,0 21.94,-2.66 28.28,-7.96 6.34,-5.31 9.53,-11.51 9.53,-18.61 0,-4.59 -1.35,-8.45 -4.01,-11.69 -2.65,-3.19 -7.33,-5.98 -13.98,-8.32 -4.54,-1.62 -14.88,-4.41 -31.07,-8.45 -20.82,-5.22 -35.42,-11.6 -43.84,-19.2 -11.82,-10.66 -17.71,-23.65 -17.71,-38.98 0,-9.85 2.78,-19.11 8.32,-27.69 5.57,-8.59 13.57,-15.11 24.05,-19.6 10.48,-4.5 23.06,-6.75 37.91,-6.75 24.14,0 42.34,5.35 54.53,16.1 12.23,10.74 18.61,25.04 19.24,42.98l-39.11 1.35c-1.66,-9.98 -5.22,-17.13 -10.66,-21.49 -5.44,-4.37 -13.62,-6.57 -24.5,-6.57 -11.24,0 -20.05,2.33 -26.39,7.02 -4.09,3.01 -6.17,7.01 -6.17,12.04 0,4.59 1.94,8.5 5.8,11.74 4.9,4.18 16.81,8.5 35.75,12.99 18.93,4.45 32.91,9.13 41.94,13.9 9.08,4.81 16.18,11.33 21.32,19.64 5.12,8.32 7.69,18.57 7.69,30.75 0,11.07 -3.06,21.45 -9.21,31.11 -6.17,9.67 -14.83,16.86 -26.08,21.54 -11.24,4.72 -25.27,7.06 -42.04,7.06 -24.41,0 -43.17,-5.62 -56.25,-16.91 -13.08,-11.24 -20.86,-27.64 -23.42,-49.19z" />
  <path
   id="_8_61"
   class="fil2"
   d="M1801.48 6133.6l0 -193.15 62.54 0c23.7,0 39.11,0.95 46.31,2.88 11.06,2.92 20.32,9.21 27.79,18.93 7.46,9.71 11.19,22.26 11.19,37.63 0,11.87 -2.16,21.81 -6.43,29.9 -4.31,8.1 -9.75,14.43 -16.36,19.07 -6.6,4.58 -13.35,7.64 -20.19,9.12 -9.31,1.84 -22.75,2.79 -40.38,2.79l-25.36 0 0 72.84 -39.11 0zm39.11 -160.51l0 55.03 21.27 0c15.33,0 25.54,-1.03 30.71,-3.06 5.17,-2.02 9.21,-5.17 12.14,-9.53 2.92,-4.31 4.41,-9.3 4.41,-15.06 0,-7.05 -2.07,-12.86 -6.17,-17.44 -4.13,-4.58 -9.3,-7.46 -15.64,-8.63 -4.64,-0.85 -13.95,-1.3 -27.97,-1.3l-18.75 0z" />
  <path
   id="_9_62"
   class="fil2"
   d="M2135.4 6133.6l-42.12 0 -16.68 -43.97 -77.46 0 -16.06 43.97 -41.36 0 75 -193.15 41.31 0 77.38 193.15zm-71.48 -76.61l-26.85 -71.49 -26.08 71.49 52.93 0z" />
  <path
   id="_10_63"
   class="fil2"
   d="M2156.22 5940.45l71.13 0c16.06,0 28.28,1.21 36.7,3.69 11.28,3.33 20.99,9.26 29.04,17.8 8.1,8.5 14.21,18.94 18.44,31.29 4.18,12.32 6.29,27.57 6.29,45.63 0,15.92 -1.98,29.58 -5.94,41.1 -4.81,14.07 -11.69,25.44 -20.64,34.12 -6.74,6.6 -15.87,11.73 -27.34,15.42 -8.58,2.74 -20.04,4.09 -34.44,4.09l-73.24 0 0 -193.15zm39.11 32.64l0 127.86 29 0c10.84,0 18.66,-0.63 23.48,-1.84 6.34,-1.57 11.55,-4.27 15.69,-8.05 4.19,-3.78 7.55,-9.98 10.16,-18.61 2.66,-8.63 3.96,-20.46 3.96,-35.39 0,-14.92 -1.3,-26.34 -3.96,-34.34 -2.61,-8.01 -6.29,-14.21 -11.01,-18.71 -4.72,-4.45 -10.71,-7.51 -17.99,-9.08 -5.39,-1.21 -16.05,-1.84 -31.88,-1.84l-17.44 0z" />
  <rect
   class="fil0 str0"
   x="212.49"
   y="274.1"
   width="2389.64"
   height="955.86"
   id="rect163" />
  <rect
   class="fil8 str0"
   x="9.56"
   y="550.71"
   width="546.94"
   height="352.26"
   id="rect165" />
  <path
   class="fil2"
   d="M1135.25 848.6l0 -193.15 62.54 0c23.7,0 39.11,0.95 46.31,2.88 11.06,2.92 20.32,9.21 27.79,18.93 7.46,9.71 11.19,22.26 11.19,37.63 0,11.87 -2.16,21.81 -6.43,29.9 -4.31,8.1 -9.75,14.43 -16.36,19.07 -6.6,4.58 -13.35,7.64 -20.19,9.12 -9.31,1.84 -22.75,2.79 -40.38,2.79l-25.36 0 0 72.84 -39.11 0zm39.11 -160.51l0 55.03 21.27 0c15.33,0 25.54,-1.03 30.71,-3.06 5.17,-2.02 9.21,-5.17 12.14,-9.53 2.92,-4.31 4.41,-9.3 4.41,-15.06 0,-7.05 -2.07,-12.86 -6.17,-17.44 -4.13,-4.58 -9.3,-7.46 -15.64,-8.63 -4.64,-0.85 -13.95,-1.3 -27.97,-1.3l-18.75 0z"
   id="path167" />
  <path
   id="_1_64"
   class="fil2"
   d="M1314.65 848.6l0 -193.15 58.58 0 34.61 131.74 34.22 -131.74 58.72 0 0 193.15 -36.15 0 -0.13 -152.06 -38.08 152.06 -37.58 0 -37.9 -152.06 -0.13 152.06 -36.15 0z" />
  <path
   id="_2_65"
   class="fil2"
   d="M1583.33 848.6l0 -160.51 -57.19 0 0 -32.64 153.22 0 0 32.64 -56.92 0 0 160.51 -39.11 0z" />
  <path
   class="fil2"
   d="M13035.87 1892.74l0 -193.15 58.58 0 34.61 131.74 34.22 -131.74 58.72 0 0 193.15 -36.15 0 -0.13 -152.06 -38.08 152.06 -37.58 0 -37.9 -152.06 -0.13 152.06 -36.15 0z"
   id="path171" />
  <path
   id="_1_66"
   class="fil2"
   d="M13259.77 1892.74l0 -193.15 39.11 0 0 193.15 -39.11 0z" />
  <path
   id="_2_67"
   class="fil2"
   d="M13336.06 1892.74l0 -193.15 82.15 0c20.64,0 35.65,1.75 45,5.22 9.4,3.46 16.86,9.62 22.48,18.48 5.62,8.9 8.45,19.02 8.45,30.43 0,14.53 -4.22,26.49 -12.72,35.92 -8.5,9.44 -21.17,15.38 -38.08,17.86 8.41,4.9 15.33,10.29 20.77,16.18 5.49,5.89 12.86,16.36 22.12,31.38l23.56 37.68 -46.63 0 -27.96 -42.17c-10.03,-14.97 -16.91,-24.41 -20.64,-28.32 -3.69,-3.87 -7.6,-6.57 -11.74,-8.01 -4.18,-1.43 -10.74,-2.15 -19.74,-2.15l-7.91 0 0 80.66 -39.11 0zm39.11 -111.41l28.87 0c18.71,0 30.35,-0.8 35.02,-2.38 4.64,-1.58 8.32,-4.32 10.93,-8.18 2.66,-3.87 3.96,-8.73 3.96,-14.52 0,-6.52 -1.75,-11.74 -5.21,-15.78 -3.47,-4.01 -8.36,-6.52 -14.66,-7.56 -3.19,-0.45 -12.67,-0.67 -28.46,-0.67l-30.44 0 0 49.09z" />
  <path
   id="_3_68"
   class="fil2"
   d="M13530.88 1892.74l0 -193.15 82.15 0c20.64,0 35.65,1.75 45,5.22 9.4,3.46 16.86,9.62 22.48,18.48 5.62,8.9 8.45,19.02 8.45,30.43 0,14.53 -4.22,26.49 -12.72,35.92 -8.5,9.44 -21.17,15.38 -38.08,17.86 8.41,4.9 15.33,10.29 20.77,16.18 5.49,5.89 12.86,16.36 22.12,31.38l23.56 37.68 -46.63 0 -27.96 -42.17c-10.03,-14.97 -16.91,-24.41 -20.64,-28.32 -3.69,-3.87 -7.6,-6.57 -11.74,-8.01 -4.18,-1.43 -10.74,-2.15 -19.74,-2.15l-7.91 0 0 80.66 -39.11 0zm39.11 -111.41l28.87 0c18.71,0 30.35,-0.8 35.02,-2.38 4.64,-1.58 8.32,-4.32 10.93,-8.18 2.66,-3.87 3.96,-8.73 3.96,-14.52 0,-6.52 -1.75,-11.74 -5.21,-15.78 -3.47,-4.01 -8.36,-6.52 -14.66,-7.56 -3.19,-0.45 -12.67,-0.67 -28.46,-0.67l-30.44 0 0 49.09z" />
  <path
   id="_4_69"
   class="fil2"
   d="M13717.6 1797.33c0,-19.69 2.96,-36.24 8.85,-49.64 4.36,-9.85 10.39,-18.71 17.99,-26.53 7.6,-7.83 15.92,-13.62 24.95,-17.44 12.05,-5.09 25.94,-7.65 41.68,-7.65 28.51,0 51.26,8.86 68.39,26.53 17.08,17.72 25.63,42.31 25.63,73.83 0,31.25 -8.5,55.71 -25.44,73.32 -16.96,17.67 -39.66,26.49 -68.03,26.49 -28.73,0 -51.62,-8.77 -68.56,-26.34 -16.95,-17.54 -25.44,-41.72 -25.44,-72.57zm40.19 -1.31c0,21.9 5.08,38.49 15.19,49.82 10.12,11.29 22.98,16.95 38.54,16.95 15.6,0 28.37,-5.62 38.39,-16.81 9.99,-11.24 14.98,-28.05 14.98,-50.49 0,-22.17 -4.86,-38.71 -14.62,-49.59 -9.71,-10.93 -22.62,-16.36 -38.75,-16.36 -16.1,0 -29.1,5.52 -38.94,16.55 -9.85,11.06 -14.79,27.69 -14.79,49.94z" />
  <path
   id="_5_70"
   class="fil2"
   d="M13935.52 1892.74l0 -193.15 82.15 0c20.64,0 35.65,1.75 45,5.22 9.4,3.46 16.86,9.62 22.48,18.48 5.62,8.9 8.45,19.02 8.45,30.43 0,14.53 -4.22,26.49 -12.72,35.92 -8.5,9.44 -21.17,15.38 -38.08,17.86 8.41,4.9 15.33,10.29 20.77,16.18 5.49,5.89 12.86,16.36 22.12,31.38l23.56 37.68 -46.63 0 -27.96 -42.17c-10.03,-14.97 -16.91,-24.41 -20.64,-28.32 -3.69,-3.87 -7.6,-6.57 -11.74,-8.01 -4.18,-1.43 -10.74,-2.15 -19.74,-2.15l-7.91 0 0 80.66 -39.11 0zm39.11 -111.41l28.87 0c18.71,0 30.35,-0.8 35.02,-2.38 4.64,-1.58 8.32,-4.32 10.93,-8.18 2.66,-3.87 3.96,-8.73 3.96,-14.52 0,-6.52 -1.75,-11.74 -5.21,-15.78 -3.47,-4.01 -8.36,-6.52 -14.66,-7.56 -3.19,-0.45 -12.67,-0.67 -28.46,-0.67l-30.44 0 0 49.09z" />
  <path
   id="_6_71"
   class="fil2"
   d="M14110.11 1895.98l48.01 -199.63 27.79 0 -48.29 199.63 -27.51 0z" />
  <path
   id="_7_72"
   class="fil2"
   d="M12846.85 2194.1l66.68 -100.71 -60.48 -92.44 45.55 0 38.03 57.5 38.04 -57.5 45.63 0 -60.61 92.48 66.55 100.67 -46.85 0 -42.8 -65.42 -42.85 65.42 -46.89 0z" />
  <path
   id="_8_73"
   class="fil2"
   d="M13097.05 2194.1l0 -81.29 -70.81 -111.86 45.72 0 45.68 76.48 44.47 -76.48 44.87 0 -70.81 112.13 0 81.02 -39.11 0z" />
  <path
   id="_9_74"
   class="fil2"
   d="M13209.27 2194.1l0 -35.07 101.79 -125.44 -90.19 0 0 -32.64 141.35 0 0 30.21 -105.75 130.29 109.79 0 0 32.64 -157 0z" />
  <path
   id="_10_75"
   class="fil2"
   d="M13455.75 2131.51l38.03 -3.78c2.29,12.73 6.88,22.03 13.85,28.02 6.97,5.97 16.36,8.95 28.19,8.95 12.5,0 21.94,-2.66 28.28,-7.96 6.34,-5.31 9.53,-11.51 9.53,-18.61 0,-4.59 -1.35,-8.45 -4.01,-11.69 -2.65,-3.19 -7.33,-5.98 -13.98,-8.32 -4.54,-1.62 -14.88,-4.41 -31.07,-8.45 -20.82,-5.22 -35.42,-11.6 -43.84,-19.2 -11.82,-10.66 -17.71,-23.65 -17.71,-38.98 0,-9.85 2.78,-19.11 8.32,-27.69 5.57,-8.59 13.57,-15.11 24.05,-19.6 10.48,-4.5 23.06,-6.75 37.91,-6.75 24.14,0 42.34,5.35 54.53,16.1 12.23,10.74 18.61,25.04 19.24,42.98l-39.11 1.35c-1.66,-9.98 -5.22,-17.13 -10.66,-21.49 -5.44,-4.37 -13.62,-6.57 -24.5,-6.57 -11.24,0 -20.05,2.33 -26.39,7.02 -4.09,3.01 -6.17,7.01 -6.17,12.04 0,4.59 1.94,8.5 5.8,11.74 4.9,4.18 16.81,8.5 35.75,12.99 18.93,4.45 32.91,9.13 41.94,13.9 9.08,4.81 16.18,11.33 21.32,19.64 5.12,8.32 7.69,18.57 7.69,30.75 0,11.07 -3.06,21.45 -9.21,31.11 -6.17,9.67 -14.83,16.86 -26.08,21.54 -11.24,4.72 -25.27,7.06 -42.04,7.06 -24.41,0 -43.17,-5.62 -56.25,-16.91 -13.08,-11.24 -20.86,-27.64 -23.42,-49.19z" />
  <path
   id="_11_76"
   class="fil2"
   d="M13689.36 2194.1l0 -160.51 -57.19 0 0 -32.64 153.22 0 0 32.64 -56.92 0 0 160.51 -39.11 0z" />
  <path
   id="_12_77"
   class="fil2"
   d="M13964.69 2194.1l-42.12 0 -16.68 -43.97 -77.46 0 -16.06 43.97 -41.36 0 75 -193.15 41.31 0 77.38 193.15zm-71.48 -76.61l-26.85 -71.49 -26.08 71.49 52.93 0z" />
  <path
   id="_13_78"
   class="fil2"
   d="M14075.34 2123.16l0 -32.64 83.9 0 0 77.06c-8.13,7.95 -19.96,14.92 -35.47,20.99 -15.47,6.03 -31.16,9.04 -47.08,9.04 -20.19,0 -37.77,-4.22 -52.78,-12.72 -14.97,-8.5 -26.26,-20.68 -33.81,-36.47 -7.55,-15.78 -11.33,-33 -11.33,-51.57 0,-20.14 4.22,-38.03 12.63,-53.73 8.46,-15.65 20.77,-27.69 37.01,-36.05 12.41,-6.43 27.78,-9.63 46.22,-9.63 23.96,0 42.71,5.04 56.19,15.11 13.45,10.11 22.13,24 25.99,41.81l-38.85 7.28c-2.7,-9.48 -7.82,-17 -15.33,-22.53 -7.47,-5.48 -16.81,-8.22 -28.05,-8.22 -17,0 -30.53,5.39 -40.56,16.23 -10.02,10.83 -15.05,26.89 -15.05,48.15 0,22.98 5.08,40.19 15.24,51.66 10.21,11.46 23.51,17.21 40.02,17.21 8.13,0 16.32,-1.62 24.5,-4.81 8.23,-3.19 15.25,-7.1 21.13,-11.69l0 -24.5 -44.51 0z" />
  <path
   id="_14_79"
   class="fil2"
   d="M14195.34 2194.1l0 -193.15 142.98 0 0 32.64 -103.86 0 0 42.89 96.58 0 0 32.64 -96.58 0 0 52.33 107.64 0 0 32.64 -146.75 0z" />
  <rect
   class="fil9 str0"
   x="12160.69"
   y="4575.45"
   width="2867.57"
   height="1433.78"
   id="rect187" />
  <g
   id="_2673472211008">
   <g
   id="g335">
    <circle
   class="fil10"
   cx="14408.92"
   cy="5298.49"
   r="176.79"
   id="circle189" />
    <g
   id="g201">
     <g
   id="g199">
      <g
   id="g193">
       <path
   class="fil10"
   d="M14416.78 5298.48l19.64 530.39 -55.01 0 19.64 -530.39 15.72 0zm0 0l0 0 0 0z"
   id="path191" />
      </g>
      <g
   id="g197">
       <path
   class="fil10"
   d="M14416.51 5300.52l-80.13 344.59 -37.95 -10.16 102.9 -338.49 15.18 4.06zm0 0l0 0 0 0z"
   id="path195" />
      </g>
     </g>
    </g>
    <g
   id="g213">
     <g
   id="g211">
      <g
   id="g205">
       <path
   class="fil10"
   d="M14415.72 5302.41l-248.17 469.14 -47.64 -27.5 282.21 -449.5 13.6 7.86zm0 0l0 0 0 0z"
   id="path203" />
      </g>
      <g
   id="g209">
       <path
   class="fil10"
   d="M14414.48 5304.04l-241.69 258.36 -27.79 -27.79 258.36 -241.69 11.12 11.12zm0 0l0 0 0 0z"
   id="path207" />
      </g>
     </g>
    </g>
    <g
   id="g225">
     <g
   id="g223">
      <g
   id="g217">
       <path
   class="fil10"
   d="M14412.86 5305.29l-449.5 282.21 -27.51 -47.64 469.14 -248.18 7.87 13.61zm0 0l0 0 0 0z"
   id="path215" />
      </g>
      <g
   id="g221">
       <path
   class="fil10"
   d="M14410.95 5306.07l-338.49 102.9 -10.16 -37.95 344.59 -80.13 4.06 15.18zm0 0l0 0 0 0z"
   id="path219" />
      </g>
     </g>
    </g>
    <g
   id="g237">
     <g
   id="g235">
      <g
   id="g229">
       <path
   class="fil10"
   d="M14408.93 5306.35l-2048.91 24.2 0 -33.91 2048.91 -6.01 0 15.72zm0 0l0 0 0 0z"
   id="path227" />
      </g>
      <g
   id="g233">
       <path
   class="fil10"
   d="M14406.89 5306.07l-344.59 -80.13 10.16 -37.95 338.49 102.9 -4.06 15.18zm0 0l0 0 0 0z"
   id="path231" />
      </g>
     </g>
    </g>
    <g
   id="g249">
     <g
   id="g247">
      <g
   id="g241">
       <path
   class="fil10"
   d="M14404.99 5305.29l-469.14 -248.18 27.51 -47.63 449.5 282.21 -7.87 13.6zm0 0l0 0 0 0z"
   id="path239" />
      </g>
      <g
   id="g245">
       <path
   class="fil10"
   d="M14403.36 5304.04l-258.36 -241.69 27.79 -27.79 241.69 258.36 -11.12 11.12zm0 0l0 0 0 0z"
   id="path243" />
      </g>
     </g>
    </g>
    <g
   id="g261">
     <g
   id="g259">
      <g
   id="g253">
       <path
   class="fil10"
   d="M14402.12 5302.41l-282.21 -449.49 47.64 -27.51 248.17 469.14 -13.6 7.86zm0 0l0 0 0 0z"
   id="path251" />
      </g>
      <g
   id="g257">
       <path
   class="fil10"
   d="M14401.34 5300.52l-102.91 -338.49 37.95 -10.17 80.13 344.6 -15.17 4.06zm0 0l0 0 0 0z"
   id="path255" />
      </g>
     </g>
    </g>
    <g
   id="g273">
     <g
   id="g271">
      <g
   id="g265">
       <path
   class="fil10"
   d="M14401.06 5298.48l-19.64 -530.38 55.01 0 -19.64 530.38 -15.72 0zm0 0l0 0 0 0z"
   id="path263" />
      </g>
      <g
   id="g269">
       <path
   class="fil10"
   d="M14401.34 5296.46l80.13 -344.6 37.95 10.17 -102.9 338.49 -15.18 -4.06zm0 0l0 0 0 0z"
   id="path267" />
      </g>
     </g>
    </g>
    <g
   id="g285">
     <g
   id="g283">
      <g
   id="g277">
       <path
   class="fil10"
   d="M14402.12 5294.55l248.18 -469.14 47.63 27.51 -282.21 449.49 -13.6 -7.86zm0 0l0 0 0 0z"
   id="path275" />
      </g>
      <g
   id="g281">
       <path
   class="fil10"
   d="M14403.36 5292.93l241.69 -258.36 27.79 27.79 -258.36 241.69 -11.12 -11.12zm0 0l0 0 0 0z"
   id="path279" />
      </g>
     </g>
    </g>
    <g
   id="g297">
     <g
   id="g295">
      <g
   id="g289">
       <path
   class="fil10"
   d="M14404.99 5291.68l449.5 -282.2 27.51 47.63 -469.14 248.18 -7.87 -13.61zm0 0l0 0 0 0z"
   id="path287" />
      </g>
      <g
   id="g293">
       <path
   class="fil10"
   d="M14406.89 5290.89l338.49 -102.9 10.17 37.95 -344.6 80.13 -4.06 -15.18zm0 0l0 0 0 0z"
   id="path291" />
      </g>
     </g>
    </g>
    <g
   id="g309">
     <g
   id="g307">
      <g
   id="g301">
       <path
   class="fil10"
   d="M14408.93 5290.62l530.38 -19.64 0 55.01 -530.38 -19.64 0 -15.72zm0 0l0 0 0 0z"
   id="path299" />
      </g>
      <g
   id="g305">
       <path
   class="fil10"
   d="M14410.95 5290.89l344.6 80.13 -10.17 37.96 -338.49 -102.9 4.06 -15.19zm0 0l0 0 0 0z"
   id="path303" />
      </g>
     </g>
    </g>
    <g
   id="g321">
     <g
   id="g319">
      <g
   id="g313">
       <path
   class="fil10"
   d="M14412.86 5291.68l469.14 248.18 -27.51 47.64 -449.5 -282.21 7.87 -13.61zm0 0l0 0 0 0z"
   id="path311" />
      </g>
      <g
   id="g317">
       <path
   class="fil10"
   d="M14414.48 5292.93l258.36 241.69 -27.79 27.79 -241.69 -258.36 11.12 -11.12zm0 0l0 0 0 0z"
   id="path315" />
      </g>
     </g>
    </g>
    <g
   id="g333">
     <g
   id="g331">
      <g
   id="g325">
       <path
   class="fil10"
   d="M14415.72 5294.55l282.21 449.5 -47.63 27.5 -248.18 -469.14 13.6 -7.86zm0 0l0 0 0 0z"
   id="path323" />
      </g>
      <g
   id="g329">
       <path
   class="fil10"
   d="M14416.51 5296.46l102.91 338.49 -37.95 10.16 -80.13 -344.59 15.17 -4.06zm0 0l0 0 0 0z"
   id="path327" />
      </g>
     </g>
    </g>
   </g>
  </g>
  <path
   class="fil2"
   d="M10341.96 1190.95l74.09 -193.15 28.1 0 78.64 193.15 -29.09 0 -22.35 -58.54 -81.33 0 -20.95 58.54 -27.11 0zm55.56 -79.31l65.83 0 -20.15 -53.55c-6.07,-16.28 -10.65,-29.72 -13.84,-40.34 -2.66,12.6 -6.21,24.96 -10.66,37.18l-21.18 56.7z"
   id="path338" />
  <path
   id="_1_80"
   class="fil2"
   d="M10540.1 1190.95l0 -140 21.31 0 0 19.87c10.26,-15.25 25.09,-22.84 44.47,-22.84 8.45,0 16.18,1.53 23.25,4.54 7.05,3.02 12.36,7.02 15.87,11.92 3.51,4.9 5.98,10.74 7.38,17.49 0.85,4.41 1.3,12.09 1.3,23.06l0 85.96 -23.73 0 0 -85.06c0,-9.67 -0.9,-16.91 -2.74,-21.68 -1.84,-4.76 -5.13,-8.58 -9.81,-11.46 -4.67,-2.83 -10.2,-4.27 -16.5,-4.27 -10.07,0 -18.74,3.19 -26.08,9.63 -7.33,6.39 -10.97,18.56 -10.97,36.46l0 76.39 -23.73 0z" />
  <path
   id="_2_81"
   class="fil2"
   d="M10781.58 1173.42c-8.81,7.5 -17.31,12.76 -25.44,15.87 -8.14,3.11 -16.86,4.63 -26.22,4.63 -15.37,0 -27.19,-3.73 -35.47,-11.23 -8.27,-7.47 -12.41,-17.04 -12.41,-28.69 0,-6.83 1.58,-13.09 4.67,-18.75 3.14,-5.67 7.24,-10.16 12.27,-13.57 5.09,-3.42 10.74,-6.03 17.09,-7.78 4.67,-1.21 11.73,-2.38 21.12,-3.56 19.16,-2.25 33.32,-4.99 42.35,-8.13 0.1,-3.24 0.13,-5.31 0.13,-6.16 0,-9.63 -2.25,-16.41 -6.74,-20.37 -6.07,-5.35 -15.11,-8 -27.07,-8 -11.19,0 -19.46,1.98 -24.78,5.89 -5.34,3.91 -9.25,10.83 -11.82,20.82l-23.2 -3.24c2.11,-9.94 5.58,-17.99 10.44,-24.1 4.86,-6.12 11.86,-10.79 21.04,-14.12 9.13,-3.29 19.79,-4.95 31.83,-4.95 11.96,0 21.72,1.4 29.22,4.22 7.47,2.84 13,6.35 16.51,10.62 3.51,4.26 5.97,9.66 7.42,16.18 0.76,4.04 1.17,11.33 1.17,21.8l0 31.48c0,21.98 0.5,35.87 1.48,41.76 0.95,5.9 2.92,11.52 5.8,16.91l-24.81 0c-2.39,-4.99 -3.92,-10.84 -4.59,-17.53zm-1.89 -52.61c-8.63,3.51 -21.57,6.48 -38.85,8.91 -9.8,1.39 -16.72,2.96 -20.77,4.71 -4.04,1.76 -7.15,4.32 -9.35,7.65 -2.21,3.37 -3.33,7.1 -3.33,11.24 0,6.25 2.38,11.51 7.19,15.7 4.82,4.18 11.83,6.29 21.05,6.29 9.13,0 17.26,-1.98 24.41,-5.97 7.1,-3.96 12.36,-9.41 15.69,-16.28 2.57,-5.35 3.82,-13.22 3.82,-23.61l0.13 -8.63z" />
  <path
   id="_3_82"
   class="fil2"
   d="M10839.62 1190.95l0 -193.15 23.74 0 0 193.15 -23.74 0z" />
  <path
   id="_4_83"
   class="fil2"
   d="M10891.19 1120.94c0,-25.85 7.2,-45 21.63,-57.46 12.01,-10.34 26.71,-15.51 44.02,-15.51 19.19,0 34.93,6.3 47.16,18.89 12.19,12.54 18.3,29.95 18.3,52.1 0,17.99 -2.7,32.11 -8.09,42.4 -5.4,10.29 -13.27,18.3 -23.61,24.01 -10.29,5.71 -21.58,8.54 -33.76,8.54 -19.6,0 -35.43,-6.24 -47.53,-18.79 -12.09,-12.54 -18.12,-30.62 -18.12,-54.18zm24.28 0.05c0,17.89 3.92,31.29 11.74,40.15 7.87,8.91 17.71,13.35 29.63,13.35 11.78,0 21.57,-4.44 29.45,-13.39 7.82,-8.95 11.73,-22.57 11.73,-40.87 0,-17.26 -3.96,-30.35 -11.82,-39.2 -7.87,-8.91 -17.66,-13.35 -29.35,-13.35 -11.92,0 -21.76,4.41 -29.63,13.26 -7.82,8.86 -11.74,22.21 -11.74,40.06z" />
  <path
   id="_5_84"
   class="fil2"
   d="M11045.76 1202.55l22.93 3.23c0.95,7.1 3.64,12.27 8.05,15.56 5.89,4.36 13.94,6.56 24.14,6.56 10.97,0 19.47,-2.2 25.44,-6.56 5.98,-4.37 10.03,-10.52 12.14,-18.39 1.21,-4.81 1.81,-14.93 1.71,-30.35 -10.38,12.23 -23.28,18.34 -38.75,18.34 -19.25,0 -34.17,-6.92 -44.7,-20.82 -10.56,-13.85 -15.83,-30.48 -15.83,-49.86 0,-13.35 2.43,-25.67 7.25,-36.96 4.81,-11.28 11.82,-19.96 20.99,-26.11 9.18,-6.17 19.97,-9.22 32.37,-9.22 16.5,0 30.12,6.75 40.82,20.24l0 -17.26 21.85 0 0 120.9c0,21.8 -2.21,37.23 -6.65,46.31 -4.41,9.08 -11.47,16.27 -21.05,21.54 -9.62,5.26 -21.44,7.91 -35.47,7.91 -16.68,0 -30.12,-3.74 -40.38,-11.24 -10.29,-7.47 -15.24,-18.75 -14.88,-33.81zm19.42 -83.99c0,18.3 3.64,31.65 10.93,40.06 7.33,8.41 16.46,12.64 27.43,12.64 10.93,0 20.04,-4.19 27.47,-12.55 7.37,-8.35 11.06,-21.49 11.06,-39.38 0,-17.08 -3.82,-29.99 -11.42,-38.66 -7.6,-8.68 -16.78,-12.99 -27.47,-12.99 -10.56,0 -19.51,4.26 -26.94,12.81 -7.37,8.55 -11.06,21.22 -11.06,38.08z" />
  <path
   id="_6_85"
   class="fil2"
   d="M10370.4 1398.3c0,-32.01 8.63,-57.1 25.85,-75.23 17.22,-18.11 39.43,-27.16 66.68,-27.16 17.85,0 33.89,4.27 48.24,12.77 14.3,8.5 25.23,20.37 32.73,35.62 7.51,15.19 11.29,32.46 11.29,51.74 0,19.57 -3.96,37.1 -11.87,52.51 -7.91,15.47 -19.11,27.16 -33.59,35.07 -14.52,7.96 -30.17,11.92 -46.93,11.92 -18.21,0 -34.44,-4.41 -48.79,-13.18 -14.3,-8.77 -25.18,-20.72 -32.55,-35.92 -7.38,-15.15 -11.06,-31.2 -11.06,-48.15zm26.43 0.45c0,23.24 6.25,41.54 18.75,54.89 12.49,13.35 28.19,20.05 47.08,20.05 19.24,0 35.02,-6.75 47.48,-20.24 12.41,-13.49 18.61,-32.64 18.61,-57.46 0,-15.7 -2.66,-29.4 -7.96,-41.09 -5.31,-11.69 -13.08,-20.77 -23.28,-27.2 -10.26,-6.43 -21.72,-9.66 -34.44,-9.66 -18.08,0 -33.63,6.2 -46.66,18.61 -13.05,12.41 -19.57,33.09 -19.57,62.09z" />
  <path
   id="_7_86"
   class="fil2"
   d="M10676.53 1492.31l0 -20.82c-10.88,15.88 -25.63,23.78 -44.28,23.78 -8.23,0 -15.92,-1.57 -23.06,-4.71 -7.15,-3.19 -12.45,-7.15 -15.92,-11.92 -3.46,-4.81 -5.89,-10.66 -7.28,-17.58 -0.95,-4.67 -1.44,-12.05 -1.44,-22.12l0 -86.64 23.74 0 0 77.46c0,12.37 0.49,20.73 1.43,25 1.48,6.25 4.64,11.11 9.49,14.66 4.81,3.55 10.74,5.35 17.85,5.35 7.1,0 13.75,-1.81 19.97,-5.45 6.2,-3.64 10.61,-8.63 13.21,-14.87 2.57,-6.25 3.87,-15.38 3.87,-27.3l0 -74.85 23.73 0 0 140 -21.31 0z" />
  <path
   id="_8_87"
   class="fil2"
   d="M10786.63 1471.14l3.24 20.94c-6.65,1.4 -12.64,2.12 -17.86,2.12 -8.58,0 -15.24,-1.36 -20.01,-4.09 -4.72,-2.74 -8.05,-6.3 -9.98,-10.75 -1.93,-4.44 -2.88,-13.8 -2.88,-28.05l0 -80.66 -17.53 0 0 -18.34 17.53 0 0 -34.62 23.74 -14.25 0 48.87 23.73 0 0 18.34 -23.73 0 0 82c0,6.8 0.4,11.15 1.25,13.09 0.81,1.93 2.16,3.46 4.05,4.64 1.88,1.12 4.58,1.7 8.09,1.7 2.61,0 6.07,-0.32 10.34,-0.94z" />
  <path
   id="_9_88"
   class="fil2"
   d="M10810.06 1545.99l0 -193.69 21.57 0 0 18.39c5.09,-7.11 10.84,-12.45 17.27,-16.01 6.39,-3.56 14.16,-5.35 23.28,-5.35 11.96,0 22.48,3.06 31.61,9.22 9.13,6.11 16,14.79 20.68,25.94 4.64,11.19 6.98,23.42 6.98,36.77 0,14.25 -2.57,27.12 -7.69,38.58 -5.12,11.42 -12.59,20.19 -22.39,26.31 -9.76,6.07 -20.05,9.12 -30.85,9.12 -7.91,0 -15.02,-1.66 -21.27,-4.99 -6.29,-3.33 -11.41,-7.5 -15.47,-12.59l0 68.3 -23.73 0zm21.57 -122.83c0,17.94 3.64,31.2 10.89,39.79 7.28,8.58 16.1,12.89 26.43,12.89 10.52,0 19.52,-4.44 26.98,-13.35 7.5,-8.9 11.24,-22.65 11.24,-41.31 0,-17.81 -3.64,-31.11 -10.97,-39.97 -7.33,-8.85 -16.05,-13.26 -26.21,-13.26 -10.07,0 -18.97,4.72 -26.71,14.12 -7.78,9.43 -11.65,23.1 -11.65,41.09z" />
  <path
   id="_10_89"
   class="fil2"
   d="M11051.54 1492.31l0 -20.82c-10.88,15.88 -25.63,23.78 -44.28,23.78 -8.23,0 -15.92,-1.57 -23.06,-4.71 -7.15,-3.19 -12.45,-7.15 -15.92,-11.92 -3.46,-4.81 -5.89,-10.66 -7.28,-17.58 -0.95,-4.67 -1.44,-12.05 -1.44,-22.12l0 -86.64 23.74 0 0 77.46c0,12.37 0.49,20.73 1.43,25 1.48,6.25 4.64,11.11 9.49,14.66 4.81,3.55 10.74,5.35 17.85,5.35 7.1,0 13.75,-1.81 19.97,-5.45 6.2,-3.64 10.61,-8.63 13.21,-14.87 2.57,-6.25 3.87,-15.38 3.87,-27.3l0 -74.85 23.73 0 0 140 -21.31 0z" />
  <path
   id="_11_90"
   class="fil2"
   d="M11161.65 1471.14l3.24 20.94c-6.65,1.4 -12.64,2.12 -17.86,2.12 -8.58,0 -15.24,-1.36 -20.01,-4.09 -4.72,-2.74 -8.05,-6.3 -9.98,-10.75 -1.93,-4.44 -2.88,-13.8 -2.88,-28.05l0 -80.66 -17.53 0 0 -18.34 17.53 0 0 -34.62 23.74 -14.25 0 48.87 23.73 0 0 18.34 -23.73 0 0 82c0,6.8 0.4,11.15 1.25,13.09 0.81,1.93 2.16,3.46 4.05,4.64 1.88,1.12 4.58,1.7 8.09,1.7 2.61,0 6.07,-0.32 10.34,-0.94z" />
  <path
   class="fil2"
   d="M10414.36 4575.45l0 -193.15 25.63 0 0 170.49 94.95 0 0 22.66 -120.58 0z"
   id="path351" />
  <path
   id="_1_91"
   class="fil2"
   d="M10544.3 4575.45l74.09 -193.15 28.1 0 78.64 193.15 -29.09 0 -22.35 -58.54 -81.33 0 -20.95 58.54 -27.11 0zm55.56 -79.31l65.83 0 -20.15 -53.55c-6.07,-16.28 -10.65,-29.72 -13.84,-40.34 -2.66,12.6 -6.21,24.96 -10.66,37.18l-21.18 56.7z" />
  <path
   id="_2_92"
   class="fil2"
   d="M10737.03 4513.41l24.01 -2.16c1.13,9.71 3.78,17.67 7.96,23.93 4.18,6.2 10.65,11.23 19.42,15.1 8.77,3.82 18.66,5.75 29.62,5.75 9.76,0 18.34,-1.44 25.81,-4.36 7.47,-2.92 12.99,-6.93 16.63,-12.01 3.64,-5.09 5.49,-10.61 5.49,-16.55 0,-6.02 -1.75,-11.29 -5.26,-15.83 -3.51,-4.49 -9.31,-8.27 -17.4,-11.37 -5.17,-1.98 -16.64,-5.12 -34.4,-9.4 -17.76,-4.27 -30.17,-8.27 -37.27,-12.04 -9.21,-4.86 -16.05,-10.89 -20.55,-18.04 -4.54,-7.14 -6.79,-15.19 -6.79,-24.05 0,-9.8 2.79,-18.93 8.32,-27.39 5.53,-8.5 13.58,-14.92 24.24,-19.33 10.61,-4.41 22.43,-6.61 35.42,-6.61 14.3,0 26.94,2.29 37.86,6.93 10.93,4.59 19.33,11.37 25.22,20.37 5.9,8.95 9.04,19.11 9.49,30.43l-24.55 1.88c-1.31,-12.18 -5.75,-21.39 -13.35,-27.61 -7.6,-6.24 -18.84,-9.35 -33.67,-9.35 -15.47,0 -26.75,2.83 -33.82,8.5 -7.05,5.67 -10.61,12.5 -10.61,20.5 0,6.92 2.52,12.64 7.51,17.13 4.94,4.45 17.76,9.08 38.53,13.75 20.77,4.72 35.02,8.81 42.76,12.32 11.19,5.17 19.52,11.69 24.86,19.65 5.35,7.9 8.01,17.03 8.01,27.38 0,10.29 -2.92,19.92 -8.81,29 -5.9,9.08 -14.3,16.14 -25.32,21.17 -11.01,5.04 -23.37,7.56 -37.17,7.56 -17.45,0 -32.06,-2.56 -43.85,-7.65 -11.82,-5.08 -21.04,-12.72 -27.74,-22.98 -6.74,-10.2 -10.25,-21.76 -10.61,-34.66z" />
  <path
   id="_3_93"
   class="fil2"
   d="M10925.87 4575.45l0 -193.15 139.46 0 0 22.66 -113.83 0 0 59.35 106.55 0 0 22.65 -106.55 0 0 65.82 118.42 0 0 22.66 -144.05 0z" />
  <path
   id="_4_94"
   class="fil2"
   d="M11105.8 4575.45l0 -193.15 85.6 0c17.22,0 30.31,1.75 39.26,5.22 8.95,3.46 16.1,9.58 21.44,18.34 5.35,8.77 8.01,18.48 8.01,29.09 0,13.72 -4.45,25.27 -13.32,34.67 -8.85,9.4 -22.52,15.33 -41.04,17.89 6.79,3.23 11.91,6.47 15.42,9.62 7.47,6.83 14.52,15.43 21.13,25.72l33.41 52.6 -31.93 0 -25.54 -40.19c-7.42,-11.64 -13.57,-20.5 -18.38,-26.66 -4.86,-6.17 -9.18,-10.44 -13,-12.9 -3.78,-2.43 -7.69,-4.14 -11.64,-5.13 -2.88,-0.58 -7.6,-0.9 -14.2,-0.9l-29.58 0 0 85.79 -25.63 0zm25.63 -107.91l54.85 0c11.69,0 20.77,-1.21 27.34,-3.64 6.57,-2.38 11.56,-6.25 14.93,-11.59 3.41,-5.31 5.12,-11.06 5.12,-17.31 0,-9.13 -3.29,-16.68 -9.89,-22.57 -6.6,-5.9 -17.04,-8.81 -31.29,-8.81l-61.05 0 0 63.93z" />
  <path
   id="_5_95"
   class="fil2"
   d="M9958.45 4876.82l0 -193.15 139.46 0 0 22.66 -113.83 0 0 59.35 106.55 0 0 22.65 -106.55 0 0 65.82 118.42 0 0 22.66 -144.05 0z" />
  <path
   id="_6_96"
   class="fil2"
   d="M10134.87 4876.82l0 -140 21.31 0 0 19.87c10.26,-15.25 25.09,-22.84 44.47,-22.84 8.45,0 16.18,1.53 23.25,4.54 7.05,3.02 12.36,7.02 15.87,11.92 3.51,4.9 5.98,10.74 7.38,17.49 0.85,4.41 1.3,12.09 1.3,23.06l0 85.96 -23.73 0 0 -85.06c0,-9.67 -0.9,-16.91 -2.74,-21.68 -1.84,-4.76 -5.13,-8.58 -9.81,-11.46 -4.67,-2.83 -10.2,-4.27 -16.5,-4.27 -10.07,0 -18.74,3.19 -26.08,9.63 -7.33,6.39 -10.97,18.56 -10.97,36.46l0 76.39 -23.73 0z" />
  <path
   id="_7_97"
   class="fil2"
   d="M10376.35 4859.29c-8.81,7.5 -17.31,12.76 -25.44,15.87 -8.14,3.11 -16.86,4.63 -26.22,4.63 -15.37,0 -27.19,-3.73 -35.47,-11.23 -8.27,-7.47 -12.41,-17.04 -12.41,-28.69 0,-6.83 1.58,-13.09 4.67,-18.75 3.14,-5.67 7.24,-10.16 12.27,-13.57 5.09,-3.42 10.74,-6.03 17.09,-7.78 4.67,-1.21 11.73,-2.38 21.12,-3.56 19.16,-2.25 33.32,-4.99 42.35,-8.13 0.1,-3.24 0.13,-5.31 0.13,-6.16 0,-9.63 -2.25,-16.41 -6.74,-20.37 -6.07,-5.35 -15.11,-8 -27.07,-8 -11.19,0 -19.46,1.98 -24.78,5.89 -5.34,3.91 -9.25,10.83 -11.82,20.82l-23.2 -3.24c2.11,-9.94 5.58,-17.99 10.44,-24.1 4.86,-6.12 11.86,-10.79 21.04,-14.12 9.13,-3.29 19.79,-4.95 31.83,-4.95 11.96,0 21.72,1.4 29.22,4.22 7.47,2.84 13,6.35 16.51,10.62 3.51,4.26 5.97,9.66 7.42,16.18 0.76,4.04 1.17,11.33 1.17,21.8l0 31.48c0,21.98 0.5,35.87 1.48,41.76 0.95,5.9 2.92,11.52 5.8,16.91l-24.81 0c-2.39,-4.99 -3.92,-10.84 -4.59,-17.53zm-1.89 -52.61c-8.63,3.51 -21.57,6.48 -38.85,8.91 -9.8,1.39 -16.72,2.96 -20.77,4.71 -4.04,1.76 -7.15,4.32 -9.35,7.65 -2.21,3.37 -3.33,7.1 -3.33,11.24 0,6.25 2.38,11.51 7.19,15.7 4.82,4.18 11.83,6.29 21.05,6.29 9.13,0 17.26,-1.98 24.41,-5.97 7.1,-3.96 12.36,-9.41 15.69,-16.28 2.57,-5.35 3.82,-13.22 3.82,-23.61l0.13 -8.63z" />
  <path
   id="_8_98"
   class="fil2"
   d="M10456.79 4876.82l-22.13 0 0 -193.15 23.74 0 0 68.93c10.03,-12.5 22.8,-18.75 38.35,-18.75 8.59,0 16.78,1.71 24.46,5.17 7.69,3.46 13.98,8.36 18.97,14.62 4.94,6.29 8.86,13.85 11.64,22.7 2.84,8.81 4.22,18.3 4.22,28.37 0,23.93 -5.94,42.45 -17.76,55.49 -11.86,13.08 -26.08,19.6 -42.66,19.6 -16.51,0 -29.45,-6.87 -38.85,-20.59l0 17.63zm-0.28 -71.04c0,16.73 2.29,28.82 6.83,36.28 7.47,12.19 17.54,18.3 30.26,18.3 10.38,0 19.34,-4.49 26.84,-13.49 7.55,-8.99 11.33,-22.39 11.33,-40.19 0,-18.25 -3.59,-31.7 -10.83,-40.38 -7.25,-8.67 -16.01,-13.04 -26.26,-13.04 -10.39,0 -19.34,4.5 -26.84,13.49 -7.55,8.99 -11.34,21.99 -11.34,39.03z" />
  <path
   id="_9_99"
   class="fil2"
   d="M10584.42 4876.82l0 -193.15 23.74 0 0 193.15 -23.74 0z" />
  <path
   id="_10_100"
   class="fil2"
   d="M10740.39 4831.5l24.55 3.23c-3.81,14.25 -10.96,25.36 -21.4,33.23 -10.43,7.88 -23.73,11.82 -39.96,11.82 -20.42,0 -36.6,-6.29 -48.56,-18.88 -11.96,-12.54 -17.94,-30.21 -17.94,-52.92 0,-23.48 6.03,-41.72 18.12,-54.67 12.09,-12.99 27.79,-19.47 47.08,-19.47 18.66,0 33.89,6.35 45.72,19.07 11.82,12.72 17.76,30.62 17.76,53.68 0,1.4 -0.05,3.51 -0.13,6.29l-104.26 0c0.9,15.33 5.22,27.12 13.04,35.25 7.78,8.13 17.54,12.23 29.18,12.23 8.68,0 16.1,-2.28 22.21,-6.87 6.16,-4.59 11.01,-11.92 14.61,-21.98zm-77.69 -38.04l77.96 0c-1.03,-11.78 -4.04,-20.59 -8.95,-26.48 -7.5,-9.13 -17.3,-13.72 -29.31,-13.72 -10.89,0 -20.01,3.64 -27.43,10.93 -7.37,7.28 -11.46,17.04 -12.27,29.27z" />
  <path
   id="_11_101"
   class="fil2"
   d="M10777.12 4880.06l56.11 -199.63 19.11 0 -56.11 199.63 -19.11 0z" />
  <path
   id="_12_102"
   class="fil2"
   d="M10872.84 4876.82l0 -193.15 72.92 0c12.82,0 22.62,0.63 29.41,1.84 9.48,1.58 17.44,4.59 23.87,8.99 6.43,4.44 11.6,10.65 15.51,18.61 3.91,7.95 5.85,16.73 5.85,26.31 0,16.36 -5.22,30.25 -15.7,41.58 -10.43,11.38 -29.36,17.04 -56.69,17.04l-49.55 0 0 78.77 -25.63 0zm25.63 -101.43l49.91 0c16.55,0 28.24,-3.06 35.2,-9.22 6.93,-6.16 10.39,-14.79 10.39,-25.98 0,-8.05 -2.03,-14.98 -6.12,-20.73 -4.09,-5.75 -9.48,-9.58 -16.14,-11.42 -4.31,-1.12 -12.27,-1.7 -23.82,-1.7l-49.42 0 0 69.06z" />
  <path
   id="_13_103"
   class="fil2"
   d="M11141.26 4876.82l0 -20.82c-10.88,15.88 -25.63,23.78 -44.28,23.78 -8.23,0 -15.92,-1.57 -23.06,-4.71 -7.15,-3.19 -12.45,-7.15 -15.92,-11.92 -3.46,-4.81 -5.89,-10.66 -7.28,-17.58 -0.95,-4.67 -1.44,-12.05 -1.44,-22.12l0 -86.64 23.74 0 0 77.46c0,12.37 0.49,20.73 1.43,25 1.48,6.25 4.64,11.11 9.49,14.66 4.81,3.55 10.74,5.35 17.85,5.35 7.1,0 13.75,-1.81 19.97,-5.45 6.2,-3.64 10.61,-8.63 13.21,-14.87 2.57,-6.25 3.87,-15.38 3.87,-27.3l0 -74.85 23.73 0 0 140 -21.31 0z" />
  <path
   id="_14_104"
   class="fil2"
   d="M11199.3 4876.82l0 -193.15 23.74 0 0 193.15 -23.74 0z" />
  <path
   id="_15_105"
   class="fil2"
   d="M11250.33 4835.01l23.47 -3.79c1.31,9.41 4.99,16.59 11.02,21.63 6.02,4.99 14.47,7.5 25.26,7.5 10.93,0 19.02,-2.2 24.33,-6.65 5.26,-4.41 7.91,-9.62 7.91,-15.6 0,-5.35 -2.39,-9.58 -7.11,-12.64 -3.33,-2.11 -11.41,-4.76 -24.28,-8.05 -17.35,-4.36 -29.35,-8.13 -36.1,-11.33 -6.69,-3.24 -11.78,-7.64 -15.24,-13.31 -3.46,-5.62 -5.22,-11.87 -5.22,-18.71 0,-6.25 1.44,-12.01 4.27,-17.31 2.88,-5.31 6.75,-9.71 11.64,-13.22 3.69,-2.7 8.73,-4.99 15.06,-6.87 6.39,-1.89 13.17,-2.84 20.46,-2.84 10.97,0 20.59,1.58 28.87,4.77 8.32,3.14 14.43,7.47 18.39,12.86 3.91,5.44 6.65,12.68 8.13,21.76l-23.2 3.23c-1.03,-7.28 -4.09,-12.99 -9.13,-17.08 -5.04,-4.09 -12.14,-6.12 -21.35,-6.12 -10.84,0 -18.61,1.8 -23.25,5.4 -4.63,3.59 -6.97,7.82 -6.97,12.63 0,3.06 0.95,5.85 2.88,8.33 1.93,2.51 4.95,4.63 9.08,6.29 2.39,0.9 9.31,2.92 20.9,6.07 16.73,4.45 28.42,8.14 35.07,10.97 6.65,2.83 11.87,7.02 15.65,12.41 3.82,5.44 5.72,12.19 5.72,20.27 0,7.88 -2.29,15.29 -6.93,22.26 -4.63,6.97 -11.28,12.36 -19.96,16.18 -8.73,3.82 -18.57,5.71 -29.55,5.71 -18.16,0 -32.05,-3.78 -41.58,-11.28 -9.54,-7.55 -15.61,-18.71 -18.26,-33.49z" />
  <path
   id="_16_106"
   class="fil2"
   d="M11394.65 4710.64l0 -26.97 23.73 0 0 26.97 -23.73 0zm0 166.18l0 -140 23.73 0 0 140 -23.73 0z" />
  <path
   id="_17_107"
   class="fil2"
   d="M11454.59 4876.82l0 -140 21.31 0 0 19.87c10.26,-15.25 25.09,-22.84 44.47,-22.84 8.45,0 16.18,1.53 23.25,4.54 7.05,3.02 12.36,7.02 15.87,11.92 3.51,4.9 5.98,10.74 7.38,17.49 0.85,4.41 1.3,12.09 1.3,23.06l0 85.96 -23.73 0 0 -85.06c0,-9.67 -0.9,-16.91 -2.74,-21.68 -1.84,-4.76 -5.13,-8.58 -9.81,-11.46 -4.67,-2.83 -10.2,-4.27 -16.5,-4.27 -10.07,0 -18.74,3.19 -26.08,9.63 -7.33,6.39 -10.97,18.56 -10.97,36.46l0 76.39 -23.73 0z" />
  <path
   id="_18_108"
   class="fil2"
   d="M11600.25 4888.42l22.93 3.23c0.95,7.1 3.64,12.27 8.05,15.56 5.89,4.36 13.94,6.56 24.14,6.56 10.97,0 19.47,-2.2 25.44,-6.56 5.98,-4.37 10.03,-10.52 12.14,-18.39 1.21,-4.81 1.81,-14.93 1.71,-30.35 -10.38,12.23 -23.28,18.34 -38.75,18.34 -19.25,0 -34.17,-6.92 -44.7,-20.82 -10.56,-13.85 -15.83,-30.48 -15.83,-49.86 0,-13.35 2.43,-25.67 7.25,-36.96 4.81,-11.28 11.82,-19.96 20.99,-26.11 9.18,-6.17 19.97,-9.22 32.37,-9.22 16.5,0 30.12,6.75 40.82,20.24l0 -17.26 21.85 0 0 120.9c0,21.8 -2.21,37.23 -6.65,46.31 -4.41,9.08 -11.47,16.27 -21.05,21.54 -9.62,5.26 -21.44,7.91 -35.47,7.91 -16.68,0 -30.12,-3.74 -40.38,-11.24 -10.29,-7.47 -15.24,-18.75 -14.88,-33.81zm19.42 -83.99c0,18.3 3.64,31.65 10.93,40.06 7.33,8.41 16.46,12.64 27.43,12.64 10.93,0 20.04,-4.19 27.47,-12.55 7.37,-8.35 11.06,-21.49 11.06,-39.38 0,-17.08 -3.82,-29.99 -11.42,-38.66 -7.6,-8.68 -16.78,-12.99 -27.47,-12.99 -10.56,0 -19.51,4.26 -26.94,12.81 -7.37,8.55 -11.06,21.22 -11.06,38.08z" />
  <path
   class="fil2"
   d="M10345.54 2562.55c-13.04,-16.51 -24.1,-35.79 -33.14,-57.92 -9.03,-22.12 -13.53,-45.05 -13.53,-68.75 0,-20.9 3.36,-40.91 10.11,-60.02 7.91,-22.21 20.09,-44.33 36.55,-66.37l17 0c-10.61,18.26 -17.67,31.29 -21.09,39.12 -5.35,12.09 -9.58,24.73 -12.64,37.9 -3.78,16.41 -5.66,32.91 -5.66,49.5 0,42.21 13.12,84.38 39.38,126.52l-17 0z"
   id="path371" />
  <path
   id="_1_109"
   class="fil2"
   d="M10481.5 2505.9l0 -20.82c-10.88,15.88 -25.63,23.78 -44.28,23.78 -8.23,0 -15.92,-1.57 -23.06,-4.71 -7.15,-3.19 -12.45,-7.15 -15.92,-11.92 -3.46,-4.81 -5.89,-10.66 -7.28,-17.58 -0.95,-4.67 -1.44,-12.05 -1.44,-22.12l0 -86.64 23.74 0 0 77.46c0,12.37 0.49,20.73 1.43,25 1.48,6.25 4.64,11.11 9.49,14.66 4.81,3.55 10.74,5.35 17.85,5.35 7.1,0 13.75,-1.81 19.97,-5.45 6.2,-3.64 10.61,-8.63 13.21,-14.87 2.57,-6.25 3.87,-15.38 3.87,-27.3l0 -74.85 23.73 0 0 140 -21.31 0z" />
  <path
   id="_2_110"
   class="fil2"
   d="M10540.08 2559.58l0 -193.69 21.57 0 0 18.39c5.09,-7.11 10.84,-12.45 17.27,-16.01 6.39,-3.56 14.16,-5.35 23.28,-5.35 11.96,0 22.48,3.06 31.61,9.22 9.13,6.11 16,14.79 20.68,25.94 4.64,11.19 6.98,23.42 6.98,36.77 0,14.25 -2.57,27.12 -7.69,38.58 -5.12,11.42 -12.59,20.19 -22.39,26.31 -9.76,6.07 -20.05,9.12 -30.85,9.12 -7.91,0 -15.02,-1.66 -21.27,-4.99 -6.29,-3.33 -11.41,-7.5 -15.47,-12.59l0 68.3 -23.73 0zm21.57 -122.83c0,17.94 3.64,31.2 10.89,39.79 7.28,8.58 16.1,12.89 26.43,12.89 10.52,0 19.52,-4.44 26.98,-13.35 7.5,-8.9 11.24,-22.65 11.24,-41.31 0,-17.81 -3.64,-31.11 -10.97,-39.97 -7.33,-8.85 -16.05,-13.26 -26.21,-13.26 -10.07,0 -18.97,4.72 -26.71,14.12 -7.78,9.43 -11.65,23.1 -11.65,41.09z" />
  <path
   id="_3_111"
   class="fil2"
   d="M10816.58 2484.73l3.24 20.94c-6.65,1.4 -12.64,2.12 -17.86,2.12 -8.58,0 -15.24,-1.36 -20.01,-4.09 -4.72,-2.74 -8.05,-6.3 -9.98,-10.75 -1.93,-4.44 -2.88,-13.8 -2.88,-28.05l0 -80.66 -17.53 0 0 -18.34 17.53 0 0 -34.62 23.74 -14.25 0 48.87 23.73 0 0 18.34 -23.73 0 0 82c0,6.8 0.4,11.15 1.25,13.09 0.81,1.93 2.16,3.46 4.05,4.64 1.88,1.12 4.58,1.7 8.09,1.7 2.61,0 6.07,-0.32 10.34,-0.94z" />
  <path
   id="_4_112"
   class="fil2"
   d="M10831.1 2435.89c0,-25.85 7.2,-45 21.63,-57.46 12.01,-10.34 26.71,-15.51 44.02,-15.51 19.19,0 34.93,6.3 47.16,18.89 12.19,12.54 18.3,29.95 18.3,52.1 0,17.99 -2.7,32.11 -8.09,42.4 -5.4,10.29 -13.27,18.3 -23.61,24.01 -10.29,5.71 -21.58,8.54 -33.76,8.54 -19.6,0 -35.43,-6.24 -47.53,-18.79 -12.09,-12.54 -18.12,-30.62 -18.12,-54.18zm24.28 0.05c0,17.89 3.92,31.29 11.74,40.15 7.87,8.91 17.71,13.35 29.63,13.35 11.78,0 21.57,-4.44 29.45,-13.39 7.82,-8.95 11.73,-22.57 11.73,-40.87 0,-17.26 -3.96,-30.35 -11.82,-39.2 -7.87,-8.91 -17.66,-13.35 -29.35,-13.35 -11.92,0 -21.76,4.41 -29.63,13.26 -7.82,8.86 -11.74,22.21 -11.74,40.06z" />
  <path
   id="_5_113"
   class="fil2"
   d="M11095.06 2401.19c-9.85,-3.59 -17.13,-8.77 -21.89,-15.42 -4.72,-6.7 -7.1,-14.7 -7.1,-24.01 0,-14.07 5.03,-25.86 15.1,-35.42 10.11,-9.58 23.51,-14.4 40.28,-14.4 16.82,0 30.4,4.9 40.65,14.7 10.25,9.81 15.37,21.72 15.37,35.8 0,8.95 -2.33,16.77 -7.02,23.38 -4.67,6.65 -11.78,11.78 -21.35,15.37 11.82,3.87 20.77,10.07 26.94,18.71 6.16,8.58 9.26,18.84 9.26,30.8 0,16.5 -5.85,30.35 -17.49,41.59 -11.69,11.24 -27.02,16.86 -46.04,16.86 -19.01,0 -34.34,-5.62 -46.03,-16.91 -11.64,-11.29 -17.49,-25.36 -17.49,-42.22 0,-12.54 3.19,-23.06 9.58,-31.51 6.39,-8.5 15.47,-14.25 27.24,-17.31zm-4.71 -40.28c0,9.17 2.92,16.63 8.72,22.43 5.85,5.8 13.49,8.72 22.98,8.72 9.21,0 16.68,-2.88 22.47,-8.63 5.8,-5.75 8.68,-12.81 8.68,-21.17 0,-8.73 -2.96,-16.05 -8.95,-21.98 -5.94,-5.94 -13.44,-8.91 -22.48,-8.91 -9.12,0 -16.63,2.92 -22.57,8.73 -5.89,5.8 -8.85,12.72 -8.85,20.82zm-7.83 89.29c0,6.79 1.58,13.31 4.72,19.65 3.14,6.29 7.91,11.19 14.3,14.65 6.34,3.46 13.17,5.22 20.41,5.22 11.42,0 20.77,-3.64 28.1,-10.93 7.33,-7.28 10.97,-16.55 10.97,-27.79 0,-11.42 -3.78,-20.87 -11.29,-28.32 -7.55,-7.47 -17.08,-11.2 -28.55,-11.2 -11.24,0 -20.46,3.69 -27.74,11.06 -7.28,7.38 -10.93,16.59 -10.93,27.65z" />
  <path
   id="_6_114"
   class="fil2"
   d="M11230.67 2562.55l-17 0c26.25,-42.13 39.38,-84.31 39.38,-126.52 0,-16.51 -1.89,-32.87 -5.67,-49.1 -2.96,-13.17 -7.15,-25.81 -12.49,-37.95 -3.42,-7.87 -10.52,-21.04 -21.22,-39.48l17 0c16.45,22.03 28.64,44.15 36.55,66.37 6.74,19.11 10.11,39.11 10.11,60.02 0,23.7 -4.54,46.63 -13.62,68.75 -9.04,22.13 -20.05,41.41 -33.04,57.92z" />
  <path
   class="fil2"
   d="M10401.37 5898.77c-13.04,-16.51 -24.1,-35.79 -33.14,-57.92 -9.03,-22.12 -13.53,-45.05 -13.53,-68.75 0,-20.9 3.36,-40.91 10.11,-60.02 7.91,-22.21 20.09,-44.33 36.55,-66.37l17 0c-10.61,18.26 -17.67,31.29 -21.09,39.12 -5.35,12.09 -9.58,24.73 -12.64,37.9 -3.78,16.41 -5.66,32.91 -5.66,49.5 0,42.21 13.12,84.38 39.38,126.52l-17 0z"
   id="path379" />
  <path
   id="_1_115"
   class="fil2"
   d="M10537.33 5842.12l0 -20.82c-10.88,15.88 -25.63,23.78 -44.28,23.78 -8.23,0 -15.92,-1.57 -23.06,-4.71 -7.15,-3.19 -12.45,-7.15 -15.92,-11.92 -3.46,-4.81 -5.89,-10.66 -7.28,-17.58 -0.95,-4.67 -1.44,-12.05 -1.44,-22.12l0 -86.64 23.74 0 0 77.46c0,12.37 0.49,20.73 1.43,25 1.48,6.25 4.64,11.11 9.49,14.66 4.81,3.55 10.74,5.35 17.85,5.35 7.1,0 13.75,-1.81 19.97,-5.45 6.2,-3.64 10.61,-8.63 13.21,-14.87 2.57,-6.25 3.87,-15.38 3.87,-27.3l0 -74.85 23.73 0 0 140 -21.31 0z" />
  <path
   id="_2_116"
   class="fil2"
   d="M10595.91 5895.8l0 -193.69 21.57 0 0 18.39c5.09,-7.11 10.84,-12.45 17.27,-16.01 6.39,-3.56 14.16,-5.35 23.28,-5.35 11.96,0 22.48,3.06 31.61,9.22 9.13,6.11 16,14.79 20.68,25.94 4.64,11.19 6.98,23.42 6.98,36.77 0,14.25 -2.57,27.12 -7.69,38.58 -5.12,11.42 -12.59,20.19 -22.39,26.31 -9.76,6.07 -20.05,9.12 -30.85,9.12 -7.91,0 -15.02,-1.66 -21.27,-4.99 -6.29,-3.33 -11.41,-7.5 -15.47,-12.59l0 68.3 -23.73 0zm21.57 -122.83c0,17.94 3.64,31.2 10.89,39.79 7.28,8.58 16.1,12.89 26.43,12.89 10.52,0 19.52,-4.44 26.98,-13.35 7.5,-8.9 11.24,-22.65 11.24,-41.31 0,-17.81 -3.64,-31.11 -10.97,-39.97 -7.33,-8.85 -16.05,-13.26 -26.21,-13.26 -10.07,0 -18.97,4.72 -26.71,14.12 -7.78,9.43 -11.65,23.1 -11.65,41.09z" />
  <path
   id="_3_117"
   class="fil2"
   d="M10872.41 5820.94l3.24 20.94c-6.65,1.4 -12.64,2.12 -17.86,2.12 -8.58,0 -15.24,-1.36 -20.01,-4.09 -4.72,-2.74 -8.05,-6.3 -9.98,-10.75 -1.93,-4.44 -2.88,-13.8 -2.88,-28.05l0 -80.66 -17.53 0 0 -18.34 17.53 0 0 -34.62 23.74 -14.25 0 48.87 23.73 0 0 18.34 -23.73 0 0 82c0,6.8 0.4,11.15 1.25,13.09 0.81,1.93 2.16,3.46 4.05,4.64 1.88,1.12 4.58,1.7 8.09,1.7 2.61,0 6.07,-0.32 10.34,-0.94z" />
  <path
   id="_4_118"
   class="fil2"
   d="M10886.93 5772.11c0,-25.85 7.2,-45 21.63,-57.46 12.01,-10.34 26.71,-15.51 44.02,-15.51 19.19,0 34.93,6.3 47.16,18.89 12.19,12.54 18.3,29.95 18.3,52.1 0,17.99 -2.7,32.11 -8.09,42.4 -5.4,10.29 -13.27,18.3 -23.61,24.01 -10.29,5.71 -21.58,8.54 -33.76,8.54 -19.6,0 -35.43,-6.24 -47.53,-18.79 -12.09,-12.54 -18.12,-30.62 -18.12,-54.18zm24.28 0.05c0,17.89 3.92,31.29 11.74,40.15 7.87,8.91 17.71,13.35 29.63,13.35 11.78,0 21.57,-4.44 29.45,-13.39 7.82,-8.95 11.73,-22.57 11.73,-40.87 0,-17.26 -3.96,-30.35 -11.82,-39.2 -7.87,-8.91 -17.66,-13.35 -29.35,-13.35 -11.92,0 -21.76,4.41 -29.63,13.26 -7.82,8.86 -11.74,22.21 -11.74,40.06z" />
  <path
   id="_5_119"
   class="fil2"
   d="M11190.15 5842.12l0 -46.13 -83.9 0 0 -21.85 88.21 -125.17 19.42 0 0 125.17 26.17 0 0 21.85 -26.17 0 0 46.13 -23.73 0zm0 -67.98l0 -86.91 -60.56 86.91 60.56 0z" />
  <path
   id="_6_120"
   class="fil2"
   d="M11286.5 5898.77l-17 0c26.25,-42.13 39.38,-84.31 39.38,-126.52 0,-16.51 -1.89,-32.87 -5.67,-49.1 -2.96,-13.17 -7.15,-25.81 -12.49,-37.95 -3.42,-7.87 -10.52,-21.04 -21.22,-39.48l17 0c16.45,22.03 28.64,44.15 36.55,66.37 6.74,19.11 10.11,39.11 10.11,60.02 0,23.7 -4.54,46.63 -13.62,68.75 -9.04,22.13 -20.05,41.41 -33.04,57.92z" />
 </g>
</svg>
