<?xml version="1.0" encoding="UTF-8"?>
<!DOCTYPE svg PUBLIC "-//W3C//DTD SVG 1.0//EN" "http://www.w3.org/TR/2001/REC-SVG-20010904/DTD/svg10.dtd">
<!-- Creator: CorelDRAW -->
<svg xmlns="http://www.w3.org/2000/svg" xml:space="preserve" width="210mm" height="65.4616mm" version="1.0" style="shape-rendering:geometricPrecision; text-rendering:geometricPrecision; image-rendering:optimizeQuality; fill-rule:evenodd; clip-rule:evenodd"
viewBox="0 0 20985.75 6541.72"
 xmlns:xlink="http://www.w3.org/1999/xlink"
 xmlns:xodm="http://www.corel.com/coreldraw/odm/2003">
 <defs>
  <style type="text/css">
   <![CDATA[
    .str0 {stroke:#2B2A29;stroke-width:19.99;stroke-miterlimit:22.9256}
    .str1 {stroke:#2B2A29;stroke-width:19.99;stroke-miterlimit:22.9256}
    .str2 {stroke:#2B2A29;stroke-width:49.97;stroke-miterlimit:22.9256;stroke-dasharray:49.966071 49.966071}
    .fil6 {fill:none}
    .fil5 {fill:#F3F3F3}
    .fil4 {fill:#E5E4E5}
    .fil3 {fill:#2B2A29;fill-rule:nonzero}
    .fil7 {fill:#E7E7E7;fill-rule:nonzero}
    .fil2 {fill:url(#id0)}
    .fil0 {fill:url(#id1)}
    .fil1 {fill:url(#id2)}
   ]]>
  </style>
  <linearGradient id="id0" gradientUnits="userSpaceOnUse" x1="3362.27" y1="6541.72" x2="3362.27" y2="46.13">
   <stop offset="0" style="stop-opacity:1; stop-color:#8A8A8B"/>
   <stop offset="1" style="stop-opacity:1; stop-color:#DFDFE0"/>
  </linearGradient>
  <linearGradient id="id1" gradientUnits="userSpaceOnUse" x1="18399.4" y1="6541.72" x2="18399.4" y2="46.13">
   <stop offset="0" style="stop-opacity:1; stop-color:gray"/>
   <stop offset="1" style="stop-opacity:1; stop-color:#B6B6B6"/>
  </linearGradient>
  <linearGradient id="id2" gradientUnits="userSpaceOnUse" x1="15813.04" y1="3293.92" x2="6724.53" y2="3293.92">
   <stop offset="0" style="stop-opacity:1; stop-color:#616161"/>
   <stop offset="1" style="stop-opacity:1; stop-color:#B6B6B6"/>
  </linearGradient>
 </defs>
 <g id="Layer_x0020_1">
  <metadata id="CorelCorpID_0Corel-Layer"/>
  <rect class="fil0" x="15813.04" y="46.13" width="5172.71" height="6495.59"/>
  <rect class="fil1" x="6724.53" y="46.13" width="9088.51" height="6495.59"/>
  <rect class="fil2" y="46.13" width="6724.53" height="6495.59"/>
  <path class="fil3" d="M1366.82 1851.65l121.14 0c24.04,0 41.88,0.98 53.65,2.96 11.84,2.05 22.34,6.21 31.66,12.48 9.3,6.35 17.06,14.73 23.26,25.24 6.21,10.5 9.3,22.34 9.3,35.39 0,14.11 -3.81,27.15 -11.42,38.92 -7.61,11.84 -17.98,20.66 -31.02,26.58 18.41,5.43 32.51,14.6 42.44,27.57 9.87,12.97 14.81,28.2 14.81,45.76 0,13.82 -3.17,27.21 -9.58,40.25 -6.42,13.05 -15.16,23.48 -26.3,31.31 -11.07,7.75 -24.75,12.55 -41.03,14.38 -10.15,1.06 -34.77,1.77 -73.75,2.05l-103.16 0 0 -302.89zm61.35 50.34l0 69.8 40.04 0c23.76,0 38.56,-0.35 44.35,-1.06 10.43,-1.2 18.69,-4.79 24.67,-10.78 6,-6 8.96,-13.82 8.96,-23.55 0,-9.37 -2.62,-16.92 -7.76,-22.77 -5.15,-5.85 -12.83,-9.37 -22.98,-10.57 -6.06,-0.71 -23.47,-1.06 -52.17,-1.06l-35.11 0zm0 120.15l0 81.22 56.68 0c22.01,0 36.04,-0.64 41.95,-1.84 9.09,-1.69 16.5,-5.71 22.21,-12.12 5.71,-6.49 8.59,-15.02 8.59,-25.81 0,-9.16 -2.18,-16.85 -6.63,-23.19 -4.37,-6.35 -10.78,-11 -19.11,-13.89 -8.31,-2.89 -26.44,-4.37 -54.28,-4.37l-49.43 0z"/>
  <path id="_1" class="fil3" d="M1727.33 2154.55l-57.96 0 0 -219.56 53.72 0 0 31.17c9.24,-14.74 17.56,-24.39 24.96,-28.98 7.4,-4.59 15.79,-6.84 25.17,-6.84 13.25,0 26.01,3.66 38.28,10.92l-17.98 50.63c-9.8,-6.35 -18.9,-9.52 -27.29,-9.52 -8.17,0 -15.09,2.26 -20.73,6.71 -5.65,4.51 -10.08,12.55 -13.33,24.25 -3.24,11.7 -4.86,36.24 -4.86,73.54l0 67.68z"/>
  <path id="_2" class="fil3" d="M1836.54 1905.38l0 -53.72 57.96 0 0 53.72 -57.96 0zm0 249.17l0 -219.56 57.96 0 0 219.56 -57.96 0z"/>
  <path id="_3" class="fil3" d="M1948.59 2168.51l66.41 8.03c1.13,7.82 3.67,13.19 7.61,16.15 5.57,4.16 14.24,6.28 26.08,6.28 15.16,0 26.51,-2.26 34.13,-6.84 5.08,-3.04 8.95,-7.9 11.56,-14.67 1.77,-4.8 2.69,-13.75 2.69,-26.65l0.28 -32.08c-17.49,23.9 -39.48,35.82 -66,35.82 -29.47,0 -52.88,-12.48 -70.08,-37.36 -13.54,-19.68 -20.31,-44.21 -20.31,-73.47 0,-36.81 8.88,-64.87 26.58,-84.26 17.7,-19.39 39.76,-29.11 66.14,-29.11 27.14,0 49.57,11.91 67.19,35.75l0 -31.1 54.14 0 0 196.86c0,25.87 -2.12,45.27 -6.42,58.03 -4.23,12.83 -10.22,22.84 -17.98,30.18 -7.68,7.26 -17.98,13.04 -30.88,17.13 -12.91,4.16 -29.19,6.21 -48.87,6.21 -37.22,0 -63.6,-6.42 -79.18,-19.18 -15.58,-12.83 -23.34,-28.98 -23.34,-48.65 0,-1.91 0.08,-4.31 0.22,-7.06zm52.03 -128.18c0,23.26 4.51,40.26 13.46,51.05 9.02,10.79 20.17,16.22 33.35,16.22 14.11,0 26.09,-5.57 35.83,-16.64 9.79,-11.07 14.66,-27.43 14.66,-49.15 0,-22.7 -4.65,-39.55 -14.03,-50.56 -9.3,-10.99 -21.15,-16.5 -35.47,-16.5 -13.89,0 -25.31,5.44 -34.34,16.22 -8.95,10.79 -13.46,27.22 -13.46,49.36z"/>
  <path id="_4" class="fil3" d="M2269.6 1851.65l0 112.24c18.83,-22.35 41.39,-33.56 67.54,-33.56 13.47,0 25.59,2.46 36.39,7.39 10.78,5.01 18.9,11.28 24.39,19.04 5.5,7.68 9.23,16.22 11.21,25.59 2.04,9.38 3.03,23.9 3.03,43.58l0 128.6 -57.95 0 0 -115.77c0,-22.98 -1.13,-37.58 -3.32,-43.79 -2.26,-6.2 -6.21,-11.13 -11.84,-14.73 -5.65,-3.67 -12.69,-5.51 -21.23,-5.51 -9.73,0 -18.41,2.33 -26.09,7.06 -7.68,4.66 -13.25,11.7 -16.78,21.16 -3.6,9.37 -5.36,23.33 -5.36,41.74l0 109.85 -57.96 0 0 -302.89 57.96 0z"/>
  <path id="_5" class="fil3" d="M2571.15 1934.99l0 46.11 -39.76 0 0 88.91c0,18.06 0.35,28.56 1.12,31.52 0.78,2.97 2.47,5.44 5.23,7.4 2.68,1.91 5.92,2.89 9.79,2.89 5.44,0 13.19,-1.83 23.41,-5.57l4.87 45.13c-13.47,5.78 -28.7,8.66 -45.76,8.66 -10.44,0 -19.82,-1.76 -28.21,-5.29 -8.38,-3.53 -14.52,-8.1 -18.4,-13.68 -3.95,-5.64 -6.63,-13.18 -8.18,-22.77 -1.2,-6.77 -1.83,-20.45 -1.83,-41.1l0 -96.1 -26.65 0 0 -46.11 26.65 0 0 -43.57 57.96 -34.27 0 77.84 39.76 0z"/>
  <path id="_6" class="fil3" d="M2612.19 2154.55l0 -302.89 224.22 0 0 51.19 -162.87 0 0 67.26 151.45 0 0 51.19 -151.45 0 0 82.07 168.79 0 0 51.19 -230.13 0z"/>
  <path id="_7" class="fil3" d="M2866.01 1934.99l61.77 0 52.66 155.75 51.41 -155.75 60.07 0 -77.42 211.32 -13.96 38.14c-5.15,12.76 -10.01,22.48 -14.67,29.26 -4.58,6.7 -9.93,12.19 -15.93,16.35 -6,4.24 -13.4,7.47 -22.21,9.8 -8.74,2.33 -18.68,3.53 -29.75,3.53 -11.14,0 -22.14,-1.2 -32.93,-3.53l-5.08 -45.26c9.09,1.76 17.35,2.68 24.67,2.68 13.54,0 23.55,-3.95 30.04,-11.92 6.49,-7.96 11.49,-18.12 14.95,-30.39l-83.62 -219.98z"/>
  <path id="_8" class="fil3" d="M3256.13 2085.16l57.95 9.73c-7.39,21.23 -19.18,37.36 -35.18,48.51 -16.08,11.07 -36.18,16.64 -60.22,16.64 -38.14,0 -66.41,-12.47 -84.67,-37.43 -14.46,-20.03 -21.72,-45.27 -21.72,-75.8 0,-36.38 9.51,-64.94 28.48,-85.52 18.97,-20.66 43.01,-30.95 72.06,-30.95 32.57,0 58.31,10.78 77.21,32.36 18.82,21.58 27.84,54.64 27,99.2l-145.1 0c0.42,17.21 5.08,30.6 14.03,40.19 8.88,9.58 20.02,14.38 33.28,14.38 9.09,0 16.71,-2.47 22.84,-7.4 6.21,-4.94 10.85,-12.9 14.03,-23.9zm3.39 -58.8c-0.43,-16.85 -4.73,-29.68 -12.98,-38.42 -8.24,-8.81 -18.26,-13.19 -30.1,-13.19 -12.62,0 -23.06,4.66 -31.31,13.89 -8.25,9.24 -12.27,21.87 -12.13,37.72l86.52 0z"/>
  <path id="_9" class="fil3" d="M3343.77 2092.78l58.38 -8.88c2.47,11.21 7.46,19.75 15.08,25.52 7.54,5.86 18.2,8.74 31.81,8.74 15.01,0 26.29,-2.75 33.91,-8.24 5.08,-3.88 7.61,-9.09 7.61,-15.58 0,-4.38 -1.41,-8.04 -4.16,-10.93 -2.89,-2.75 -9.37,-5.36 -19.39,-7.68 -46.89,-10.36 -76.58,-19.82 -89.12,-28.34 -17.42,-11.92 -26.09,-28.42 -26.09,-49.5 0,-19.11 7.54,-35.12 22.56,-48.09 15.02,-12.97 38.28,-19.46 69.8,-19.46 30.03,0 52.38,4.93 66.97,14.73 14.6,9.87 24.68,24.39 30.18,43.64l-54.57 10.15c-2.33,-8.59 -6.84,-15.23 -13.39,-19.81 -6.56,-4.59 -15.94,-6.85 -28.13,-6.85 -15.38,0 -26.37,2.12 -33.08,6.43 -4.44,3.03 -6.63,6.98 -6.63,11.77 0,4.16 1.91,7.68 5.79,10.57 5.29,3.88 23.4,9.3 54.43,16.36 31.02,7.06 52.66,15.65 64.94,25.87 12.19,10.29 18.26,24.75 18.26,43.22 0,20.1 -8.38,37.44 -25.24,51.89 -16.78,14.46 -41.67,21.72 -74.66,21.72 -29.9,0 -53.59,-6.06 -71.07,-18.12 -17.42,-12.05 -28.84,-28.41 -34.2,-49.15z"/>
  <path id="_10" class="fil3" d="M3593.01 2073.74l0 -57.95 114.22 0 0 57.95 -114.22 0z"/>
  <path id="_11" class="fil3" d="M3740.23 2154.55l0 -302.89 91.87 0 54.29 206.58 53.65 -206.58 92.08 0 0 302.89 -56.68 0 -0.21 -238.46 -59.72 238.46 -58.95 0 -59.44 -238.46 -0.21 238.46 -56.68 0z"/>
  <path id="_12" class="fil3" d="M4287.22 2042.86l59.22 18.19c-9.09,33.36 -24.25,58.1 -45.4,74.32 -21.16,16.15 -47.95,24.25 -80.46,24.25 -40.25,0 -73.32,-13.75 -99.27,-41.24 -25.87,-27.5 -38.84,-65.09 -38.84,-112.81 0,-50.42 13.04,-89.62 39.05,-117.54 26.02,-27.92 60.29,-41.88 102.73,-41.88 37.08,0 67.19,11 90.32,32.93 13.82,12.97 24.11,31.59 31.03,55.91l-60.5 14.38c-3.6,-15.65 -11.07,-28.06 -22.41,-37.15 -11.42,-9.09 -25.24,-13.6 -41.46,-13.6 -22.49,0 -40.75,8.03 -54.71,24.18 -14.03,16.07 -21.02,42.16 -21.02,78.26 0,38.21 6.92,65.51 20.67,81.72 13.81,16.28 31.73,24.39 53.79,24.39 16.29,0 30.32,-5.15 42.02,-15.52 11.7,-10.36 20.17,-26.57 25.24,-48.79z"/>
  <path id="_13" class="fil3" d="M4382.89 2056.4l59.65 -5.93c3.59,19.96 10.78,34.55 21.72,43.93 10.92,9.37 25.66,14.03 44.21,14.03 19.6,0 34.41,-4.17 44.34,-12.48 9.94,-8.32 14.95,-18.05 14.95,-29.19 0,-7.2 -2.11,-13.26 -6.28,-18.34 -4.16,-5 -11.49,-9.37 -21.93,-13.04 -7.13,-2.54 -23.33,-6.91 -48.72,-13.25 -32.65,-8.18 -55.56,-18.2 -68.74,-30.11 -18.55,-16.71 -27.78,-37.08 -27.78,-61.13 0,-15.44 4.37,-29.97 13.04,-43.43 8.74,-13.47 21.3,-23.69 37.72,-30.74 16.43,-7.06 36.17,-10.58 59.43,-10.58 37.86,0 66.42,8.39 85.53,25.24 19.18,16.85 29.19,39.27 30.17,67.4l-61.34 2.12c-2.61,-15.65 -8.17,-26.86 -16.71,-33.71 -8.53,-6.84 -21.37,-10.29 -38.42,-10.29 -17.63,0 -31.45,3.67 -41.39,11 -6.42,4.73 -9.65,11 -9.65,18.9 0,7.19 3.03,13.32 9.09,18.4 7.68,6.56 26.37,13.33 56.05,20.38 29.68,6.99 51.61,14.32 65.79,21.79 14.24,7.54 25.38,17.77 33.42,30.82 8.03,13.04 12.05,29.12 12.05,48.23 0,17.34 -4.79,33.63 -14.45,48.79 -9.66,15.16 -23.26,26.44 -40.89,33.78 -17.63,7.39 -39.62,11.06 -65.93,11.06 -38.28,0 -67.68,-8.81 -88.2,-26.51 -20.53,-17.62 -32.72,-43.36 -36.74,-77.13z"/>
  <rect class="fil4 str0" x="499.66" y="1545.11" width="4996.61" height="4496.95" rx="249.83" ry="249.83"/>
  <rect class="fil5 str0" x="999.32" y="2544.43" width="3997.29" height="2997.96" rx="249.83" ry="249.83"/>
  <path class="fil3" d="M1804.67 4075.98l0 -35.54 128.18 0 0 112.25c-19.67,15.65 -39.97,27.49 -60.92,35.4 -20.94,7.89 -42.44,11.84 -64.45,11.84 -29.75,0 -56.75,-6.35 -81.07,-19.11 -24.26,-12.69 -42.66,-31.17 -55,-55.21 -12.4,-24.1 -18.61,-51.05 -18.61,-80.73 0,-29.47 6.13,-56.97 18.47,-82.56 12.34,-25.52 30.04,-44.49 53.16,-56.83 23.12,-12.41 49.78,-18.61 79.96,-18.61 21.86,0 41.67,3.52 59.37,10.64 17.7,7.13 31.59,16.99 41.59,29.61 10.08,12.69 17.7,29.26 22.91,49.64l-36.17 9.87c-4.59,-15.37 -10.22,-27.5 -16.92,-36.39 -6.78,-8.8 -16.36,-15.86 -28.91,-21.15 -12.48,-5.29 -26.37,-7.96 -41.67,-7.96 -18.26,0 -34.06,2.82 -47.45,8.38 -13.33,5.58 -24.04,12.9 -32.3,22.08 -8.17,9.09 -14.52,19.11 -19.04,29.96 -7.68,18.83 -11.56,39.13 -11.56,61.06 0,27.07 4.66,49.71 13.89,67.97 9.31,18.19 22.84,31.73 40.54,40.54 17.77,8.81 36.6,13.25 56.55,13.25 17.34,0 34.27,-3.39 50.77,-10.08 16.5,-6.77 28.97,-13.89 37.5,-21.58l0 -56.76 -88.84 0z"/>
  <path id="_1_0" class="fil3" d="M2190.42 3891.97l40.18 0 0 174.92c0,30.46 -3.45,54.64 -10.29,72.55 -6.91,17.84 -19.32,32.44 -37.22,43.65 -17.98,11.21 -41.46,16.85 -70.65,16.85 -28.27,0 -51.47,-4.87 -69.44,-14.67 -18.05,-9.79 -30.89,-23.89 -38.57,-42.44 -7.68,-18.55 -11.56,-43.85 -11.56,-75.94l0 -174.92 40.19 0 0 174.85c0,26.3 2.47,45.76 7.34,58.17 4.87,12.48 13.18,22.13 25.09,28.84 11.85,6.77 26.37,10.15 43.51,10.15 29.33,0 50.27,-6.71 62.75,-20.03 12.48,-13.4 18.69,-39.06 18.69,-77.14l0 -174.85z"/>
  <path id="_2_1" class="fil3" d="M2304.29 4194.86l0 -302.89 40.19 0 0 302.89 -40.19 0z"/>
  <path class="fil3" d="M3175.35 4150.44l0 -302.89 60.07 0 71.64 214.4c6.63,19.96 11.42,34.91 14.45,44.85 3.46,-11 8.88,-27.22 16.22,-48.59l72.9 -210.67 53.65 0 0 302.89 -38.49 0 0 -253.4 -88.41 253.4 -36.11 0 -87.43 -258.05 0 258.05 -38.49 0z"/>
  <path id="_1_2" class="fil3" d="M3667.35 4122.94c-13.82,11.78 -27.15,20.03 -39.91,24.89 -12.76,4.87 -26.43,7.27 -41.1,7.27 -24.11,0 -42.65,-5.86 -55.63,-17.63 -12.97,-11.7 -19.46,-26.72 -19.46,-44.99 0,-10.71 2.47,-20.52 7.34,-29.4 4.94,-8.88 11.35,-15.93 19.25,-21.3 7.96,-5.36 16.85,-9.44 26.79,-12.19 7.34,-1.91 18.4,-3.74 33.14,-5.58 30.04,-3.52 52.24,-7.82 66.41,-12.76 0.14,-5.08 0.22,-8.31 0.22,-9.65 0,-15.09 -3.53,-25.73 -10.58,-31.94 -9.51,-8.39 -23.68,-12.55 -42.44,-12.55 -17.56,0 -30.53,3.1 -38.85,9.23 -8.38,6.14 -14.52,16.99 -18.54,32.65l-36.39 -5.08c3.32,-15.58 8.74,-28.2 16.36,-37.79 7.61,-9.59 18.62,-16.92 33,-22.13 14.31,-5.15 31.02,-7.75 49.92,-7.75 18.76,0 34.06,2.18 45.83,6.63 11.7,4.44 20.38,9.94 25.88,16.64 5.5,6.7 9.37,15.16 11.63,25.38 1.2,6.35 1.83,17.77 1.83,34.2l0 49.36c0,34.48 0.78,56.26 2.33,65.5 1.48,9.23 4.59,18.05 9.09,26.51l-38.91 0c-3.74,-7.82 -6.14,-16.99 -7.2,-27.5zm-2.96 -82.49c-13.54,5.51 -33.85,10.15 -60.92,13.96 -15.38,2.19 -26.23,4.66 -32.58,7.4 -6.35,2.75 -11.21,6.78 -14.67,11.99 -3.45,5.29 -5.22,11.13 -5.22,17.63 0,9.79 3.74,18.05 11.28,24.6 7.54,6.56 18.55,9.87 33,9.87 14.31,0 27.07,-3.11 38.28,-9.38 11.14,-6.21 19.4,-14.73 24.61,-25.52 4.02,-8.38 5.99,-20.73 5.99,-37.01l0.22 -13.54z"/>
  <path id="_2_3" class="fil3" d="M3759.22 4150.44l0 -219.56 33.42 0 0 31.17c16.08,-23.9 39.34,-35.82 69.73,-35.82 13.26,0 25.38,2.39 36.46,7.12 11.07,4.73 19.39,11 24.88,18.69 5.51,7.68 9.38,16.85 11.57,27.42 1.34,6.92 2.04,18.97 2.04,36.18l0 134.81 -37.22 0 0 -133.4c0,-15.16 -1.41,-26.51 -4.31,-33.99 -2.89,-7.47 -8.03,-13.46 -15.37,-17.98 -7.33,-4.44 -16,-6.7 -25.87,-6.7 -15.79,0 -29.4,5.01 -40.89,15.09 -11.49,10.01 -17.21,29.12 -17.21,57.18l0 119.79 -37.22 0z"/>
  <path id="_3_4" class="fil3" d="M4137.91 4122.94c-13.82,11.78 -27.15,20.03 -39.91,24.89 -12.76,4.87 -26.43,7.27 -41.1,7.27 -24.11,0 -42.65,-5.86 -55.63,-17.63 -12.97,-11.7 -19.46,-26.72 -19.46,-44.99 0,-10.71 2.47,-20.52 7.34,-29.4 4.94,-8.88 11.35,-15.93 19.25,-21.3 7.96,-5.36 16.85,-9.44 26.79,-12.19 7.34,-1.91 18.4,-3.74 33.14,-5.58 30.04,-3.52 52.24,-7.82 66.41,-12.76 0.14,-5.08 0.22,-8.31 0.22,-9.65 0,-15.09 -3.53,-25.73 -10.58,-31.94 -9.51,-8.39 -23.68,-12.55 -42.44,-12.55 -17.56,0 -30.53,3.1 -38.85,9.23 -8.38,6.14 -14.52,16.99 -18.54,32.65l-36.39 -5.08c3.32,-15.58 8.74,-28.2 16.36,-37.79 7.61,-9.59 18.62,-16.92 33,-22.13 14.31,-5.15 31.02,-7.75 49.92,-7.75 18.76,0 34.06,2.18 45.83,6.63 11.7,4.44 20.38,9.94 25.88,16.64 5.5,6.7 9.37,15.16 11.63,25.38 1.2,6.35 1.83,17.77 1.83,34.2l0 49.36c0,34.48 0.78,56.26 2.33,65.5 1.48,9.23 4.59,18.05 9.09,26.51l-38.91 0c-3.74,-7.82 -6.14,-16.99 -7.2,-27.5zm-2.96 -82.49c-13.54,5.51 -33.85,10.15 -60.92,13.96 -15.38,2.19 -26.23,4.66 -32.58,7.4 -6.35,2.75 -11.21,6.78 -14.67,11.99 -3.45,5.29 -5.22,11.13 -5.22,17.63 0,9.79 3.74,18.05 11.28,24.6 7.54,6.56 18.55,9.87 33,9.87 14.31,0 27.07,-3.11 38.28,-9.38 11.14,-6.21 19.4,-14.73 24.61,-25.52 4.02,-8.38 5.99,-20.73 5.99,-37.01l0.22 -13.54z"/>
  <path id="_4_5" class="fil3" d="M4222.94 4168.63l35.96 5.08c1.48,11.14 5.71,19.25 12.62,24.4 9.23,6.84 21.86,10.29 37.86,10.29 17.2,0 30.53,-3.46 39.9,-10.29 9.37,-6.85 15.72,-16.5 19.04,-28.84 1.91,-7.54 2.82,-23.41 2.68,-47.6 -16.29,19.18 -36.53,28.77 -60.78,28.77 -30.17,0 -53.58,-10.86 -70.08,-32.65 -16.57,-21.72 -24.81,-47.8 -24.81,-78.19 0,-20.95 3.81,-40.26 11.35,-57.96 7.53,-17.7 18.54,-31.31 32.92,-40.96 14.39,-9.66 31.31,-14.45 50.77,-14.45 25.88,0 47.25,10.57 64.03,31.72l0 -27.07 34.27 0 0 189.59c0,34.2 -3.46,58.38 -10.43,72.63 -6.92,14.24 -17.99,25.52 -33,33.77 -15.09,8.25 -33.64,12.41 -55.63,12.41 -26.16,0 -47.24,-5.86 -63.32,-17.63 -16.15,-11.7 -23.9,-29.4 -23.33,-53.02zm30.46 -131.7c0,28.69 5.71,49.64 17.13,62.82 11.49,13.18 25.8,19.82 43.01,19.82 17.13,0 31.45,-6.56 43.08,-19.68 11.56,-13.11 17.34,-33.7 17.34,-61.76 0,-26.8 -5.99,-47.03 -17.91,-60.64 -11.91,-13.61 -26.29,-20.38 -43.08,-20.38 -16.57,0 -30.6,6.7 -42.23,20.1 -11.56,13.39 -17.34,33.28 -17.34,59.72z"/>
  <path id="_5_6" class="fil3" d="M4614.82 4079.37l38.49 5.08c-6,22.35 -17.2,39.76 -33.56,52.1 -16.36,12.34 -37.23,18.55 -62.69,18.55 -32.01,0 -57.39,-9.87 -76.15,-29.62 -18.75,-19.67 -28.13,-47.38 -28.13,-82.98 0,-36.81 9.45,-65.43 28.42,-85.73 18.97,-20.38 43.57,-30.53 73.82,-30.53 29.26,0 53.16,9.93 71.7,29.89 18.55,19.96 27.85,48.02 27.85,84.18 0,2.19 -0.07,5.51 -0.21,9.87l-163.51 0c1.41,24.04 8.18,42.52 20.45,55.28 12.2,12.76 27.5,19.18 45.76,19.18 13.61,0 25.24,-3.6 34.84,-10.79 9.65,-7.19 17.27,-18.69 22.91,-34.48zm-121.84 -59.65l122.26 0c-1.62,-18.47 -6.35,-32.29 -14.03,-41.53 -11.77,-14.31 -27.14,-21.51 -45.97,-21.51 -17.06,0 -31.38,5.72 -43.01,17.14 -11.56,11.42 -17.98,26.72 -19.25,45.9z"/>
  <path id="_6_7" class="fil3" d="M4699.92 4150.44l0 -219.56 33.42 0 0 33.64c8.53,-15.59 16.43,-25.88 23.69,-30.82 7.26,-5.01 15.23,-7.46 23.89,-7.46 12.55,0 25.31,3.95 38.29,11.77l-13.26 34.34c-9.02,-5.08 -18.05,-7.61 -27.07,-7.61 -8.11,0 -15.37,2.47 -21.79,7.34 -6.42,4.86 -11,11.63 -13.75,20.31 -4.16,13.18 -6.21,27.63 -6.21,43.36l0 114.71 -37.22 0z"/>
  <g id="_2673471634800">
   <path class="fil6 str1" d="M2997.96 5542.4l0 -2997.96"/>
  </g>
  <path class="fil3" d="M10098.05 1851.65l121.14 0c24.04,0 41.88,0.98 53.65,2.96 11.84,2.05 22.34,6.21 31.66,12.48 9.3,6.35 17.06,14.73 23.26,25.24 6.21,10.5 9.3,22.34 9.3,35.39 0,14.11 -3.81,27.15 -11.42,38.92 -7.61,11.84 -17.98,20.66 -31.02,26.58 18.41,5.43 32.51,14.6 42.44,27.57 9.87,12.97 14.81,28.2 14.81,45.76 0,13.82 -3.17,27.21 -9.58,40.25 -6.42,13.05 -15.16,23.48 -26.3,31.31 -11.07,7.75 -24.75,12.55 -41.03,14.38 -10.15,1.06 -34.77,1.77 -73.75,2.05l-103.16 0 0 -302.89zm61.35 50.34l0 69.8 40.04 0c23.76,0 38.56,-0.35 44.35,-1.06 10.43,-1.2 18.69,-4.79 24.67,-10.78 6,-6 8.96,-13.82 8.96,-23.55 0,-9.37 -2.62,-16.92 -7.76,-22.77 -5.15,-5.85 -12.83,-9.37 -22.98,-10.57 -6.06,-0.71 -23.47,-1.06 -52.17,-1.06l-35.11 0zm0 120.15l0 81.22 56.68 0c22.01,0 36.04,-0.64 41.95,-1.84 9.09,-1.69 16.5,-5.71 22.21,-12.12 5.71,-6.49 8.59,-15.02 8.59,-25.81 0,-9.16 -2.18,-16.85 -6.63,-23.19 -4.37,-6.35 -10.78,-11 -19.11,-13.89 -8.31,-2.89 -26.44,-4.37 -54.28,-4.37l-49.43 0z"/>
  <path id="_1_8" class="fil3" d="M10458.56 2154.55l-57.96 0 0 -219.56 53.72 0 0 31.17c9.24,-14.74 17.56,-24.39 24.96,-28.98 7.4,-4.59 15.79,-6.84 25.17,-6.84 13.25,0 26.01,3.66 38.28,10.92l-17.98 50.63c-9.8,-6.35 -18.9,-9.52 -27.29,-9.52 -8.17,0 -15.09,2.26 -20.73,6.71 -5.65,4.51 -10.08,12.55 -13.33,24.25 -3.24,11.7 -4.86,36.24 -4.86,73.54l0 67.68z"/>
  <path id="_2_9" class="fil3" d="M10567.77 1905.38l0 -53.72 57.96 0 0 53.72 -57.96 0zm0 249.17l0 -219.56 57.96 0 0 219.56 -57.96 0z"/>
  <path id="_3_10" class="fil3" d="M10679.82 2168.51l66.41 8.03c1.13,7.82 3.67,13.19 7.61,16.15 5.57,4.16 14.24,6.28 26.08,6.28 15.16,0 26.51,-2.26 34.13,-6.84 5.08,-3.04 8.95,-7.9 11.56,-14.67 1.77,-4.8 2.69,-13.75 2.69,-26.65l0.28 -32.08c-17.49,23.9 -39.48,35.82 -66,35.82 -29.47,0 -52.88,-12.48 -70.08,-37.36 -13.54,-19.68 -20.31,-44.21 -20.31,-73.47 0,-36.81 8.88,-64.87 26.58,-84.26 17.7,-19.39 39.76,-29.11 66.14,-29.11 27.14,0 49.57,11.91 67.19,35.75l0 -31.1 54.14 0 0 196.86c0,25.87 -2.12,45.27 -6.42,58.03 -4.23,12.83 -10.22,22.84 -17.98,30.18 -7.68,7.26 -17.98,13.04 -30.88,17.13 -12.91,4.16 -29.19,6.21 -48.87,6.21 -37.22,0 -63.6,-6.42 -79.18,-19.18 -15.58,-12.83 -23.34,-28.98 -23.34,-48.65 0,-1.91 0.08,-4.31 0.22,-7.06zm52.03 -128.18c0,23.26 4.51,40.26 13.46,51.05 9.02,10.79 20.17,16.22 33.35,16.22 14.11,0 26.09,-5.57 35.83,-16.64 9.79,-11.07 14.66,-27.43 14.66,-49.15 0,-22.7 -4.65,-39.55 -14.03,-50.56 -9.3,-10.99 -21.15,-16.5 -35.47,-16.5 -13.89,0 -25.31,5.44 -34.34,16.22 -8.95,10.79 -13.46,27.22 -13.46,49.36z"/>
  <path id="_4_11" class="fil3" d="M11000.83 1851.65l0 112.24c18.83,-22.35 41.39,-33.56 67.54,-33.56 13.47,0 25.59,2.46 36.39,7.39 10.78,5.01 18.9,11.28 24.39,19.04 5.5,7.68 9.23,16.22 11.21,25.59 2.04,9.38 3.03,23.9 3.03,43.58l0 128.6 -57.95 0 0 -115.77c0,-22.98 -1.13,-37.58 -3.32,-43.79 -2.26,-6.2 -6.21,-11.13 -11.84,-14.73 -5.65,-3.67 -12.69,-5.51 -21.23,-5.51 -9.73,0 -18.41,2.33 -26.09,7.06 -7.68,4.66 -13.25,11.7 -16.78,21.16 -3.6,9.37 -5.36,23.33 -5.36,41.74l0 109.85 -57.96 0 0 -302.89 57.96 0z"/>
  <path id="_5_12" class="fil3" d="M11302.39 1934.99l0 46.11 -39.76 0 0 88.91c0,18.06 0.35,28.56 1.12,31.52 0.78,2.97 2.47,5.44 5.23,7.4 2.68,1.91 5.92,2.89 9.79,2.89 5.44,0 13.19,-1.83 23.41,-5.57l4.87 45.13c-13.47,5.78 -28.7,8.66 -45.76,8.66 -10.44,0 -19.82,-1.76 -28.21,-5.29 -8.38,-3.53 -14.52,-8.1 -18.4,-13.68 -3.95,-5.64 -6.63,-13.18 -8.18,-22.77 -1.2,-6.77 -1.83,-20.45 -1.83,-41.1l0 -96.1 -26.65 0 0 -46.11 26.65 0 0 -43.57 57.96 -34.27 0 77.84 39.76 0z"/>
  <path id="_6_13" class="fil3" d="M11343.42 2154.55l0 -302.89 224.22 0 0 51.19 -162.87 0 0 67.26 151.45 0 0 51.19 -151.45 0 0 82.07 168.79 0 0 51.19 -230.13 0z"/>
  <path id="_7_14" class="fil3" d="M11597.24 1934.99l61.77 0 52.66 155.75 51.41 -155.75 60.07 0 -77.42 211.32 -13.96 38.14c-5.15,12.76 -10.01,22.48 -14.67,29.26 -4.58,6.7 -9.93,12.19 -15.93,16.35 -6,4.24 -13.4,7.47 -22.21,9.8 -8.74,2.33 -18.68,3.53 -29.75,3.53 -11.14,0 -22.14,-1.2 -32.93,-3.53l-5.08 -45.26c9.09,1.76 17.35,2.68 24.67,2.68 13.54,0 23.55,-3.95 30.04,-11.92 6.49,-7.96 11.49,-18.12 14.95,-30.39l-83.62 -219.98z"/>
  <path id="_8_15" class="fil3" d="M11987.36 2085.16l57.95 9.73c-7.39,21.23 -19.18,37.36 -35.18,48.51 -16.08,11.07 -36.18,16.64 -60.22,16.64 -38.14,0 -66.41,-12.47 -84.67,-37.43 -14.46,-20.03 -21.72,-45.27 -21.72,-75.8 0,-36.38 9.51,-64.94 28.48,-85.52 18.97,-20.66 43.01,-30.95 72.06,-30.95 32.57,0 58.31,10.78 77.21,32.36 18.82,21.58 27.84,54.64 27,99.2l-145.1 0c0.42,17.21 5.08,30.6 14.03,40.19 8.88,9.58 20.02,14.38 33.28,14.38 9.09,0 16.71,-2.47 22.84,-7.4 6.21,-4.94 10.85,-12.9 14.03,-23.9zm3.39 -58.8c-0.43,-16.85 -4.73,-29.68 -12.98,-38.42 -8.24,-8.81 -18.26,-13.19 -30.1,-13.19 -12.62,0 -23.06,4.66 -31.31,13.89 -8.25,9.24 -12.27,21.87 -12.13,37.72l86.52 0z"/>
  <path id="_9_16" class="fil3" d="M12075 2092.78l58.38 -8.88c2.47,11.21 7.46,19.75 15.08,25.52 7.54,5.86 18.2,8.74 31.81,8.74 15.01,0 26.29,-2.75 33.91,-8.24 5.08,-3.88 7.61,-9.09 7.61,-15.58 0,-4.38 -1.41,-8.04 -4.16,-10.93 -2.89,-2.75 -9.37,-5.36 -19.39,-7.68 -46.89,-10.36 -76.58,-19.82 -89.12,-28.34 -17.42,-11.92 -26.09,-28.42 -26.09,-49.5 0,-19.11 7.54,-35.12 22.56,-48.09 15.02,-12.97 38.28,-19.46 69.8,-19.46 30.03,0 52.38,4.93 66.97,14.73 14.6,9.87 24.68,24.39 30.18,43.64l-54.57 10.15c-2.33,-8.59 -6.84,-15.23 -13.39,-19.81 -6.56,-4.59 -15.94,-6.85 -28.13,-6.85 -15.38,0 -26.37,2.12 -33.08,6.43 -4.44,3.03 -6.63,6.98 -6.63,11.77 0,4.16 1.91,7.68 5.79,10.57 5.29,3.88 23.4,9.3 54.43,16.36 31.02,7.06 52.66,15.65 64.94,25.87 12.19,10.29 18.26,24.75 18.26,43.22 0,20.1 -8.38,37.44 -25.24,51.89 -16.78,14.46 -41.67,21.72 -74.66,21.72 -29.9,0 -53.59,-6.06 -71.07,-18.12 -17.42,-12.05 -28.84,-28.41 -34.2,-49.15z"/>
  <path id="_10_17" class="fil3" d="M12324.24 2073.74l0 -57.95 114.22 0 0 57.95 -114.22 0z"/>
  <path id="_11_18" class="fil3" d="M12471.46 2154.55l0 -302.89 91.87 0 54.29 206.58 53.65 -206.58 92.08 0 0 302.89 -56.68 0 -0.21 -238.46 -59.72 238.46 -58.95 0 -59.44 -238.46 -0.21 238.46 -56.68 0z"/>
  <path id="_12_19" class="fil3" d="M13018.45 2042.86l59.22 18.19c-9.09,33.36 -24.25,58.1 -45.4,74.32 -21.16,16.15 -47.95,24.25 -80.46,24.25 -40.25,0 -73.32,-13.75 -99.27,-41.24 -25.87,-27.5 -38.84,-65.09 -38.84,-112.81 0,-50.42 13.04,-89.62 39.05,-117.54 26.02,-27.92 60.29,-41.88 102.73,-41.88 37.08,0 67.19,11 90.32,32.93 13.82,12.97 24.11,31.59 31.03,55.91l-60.5 14.38c-3.6,-15.65 -11.07,-28.06 -22.41,-37.15 -11.42,-9.09 -25.24,-13.6 -41.46,-13.6 -22.49,0 -40.75,8.03 -54.71,24.18 -14.03,16.07 -21.02,42.16 -21.02,78.26 0,38.21 6.92,65.51 20.67,81.72 13.81,16.28 31.73,24.39 53.79,24.39 16.29,0 30.32,-5.15 42.02,-15.52 11.7,-10.36 20.17,-26.57 25.24,-48.79z"/>
  <path id="_13_20" class="fil3" d="M13114.12 2056.4l59.65 -5.93c3.59,19.96 10.78,34.55 21.72,43.93 10.92,9.37 25.66,14.03 44.21,14.03 19.6,0 34.41,-4.17 44.34,-12.48 9.94,-8.32 14.95,-18.05 14.95,-29.19 0,-7.2 -2.11,-13.26 -6.28,-18.34 -4.16,-5 -11.49,-9.37 -21.93,-13.04 -7.13,-2.54 -23.33,-6.91 -48.72,-13.25 -32.65,-8.18 -55.56,-18.2 -68.74,-30.11 -18.55,-16.71 -27.78,-37.08 -27.78,-61.13 0,-15.44 4.37,-29.97 13.04,-43.43 8.74,-13.47 21.3,-23.69 37.72,-30.74 16.43,-7.06 36.17,-10.58 59.43,-10.58 37.86,0 66.42,8.39 85.53,25.24 19.18,16.85 29.19,39.27 30.17,67.4l-61.34 2.12c-2.61,-15.65 -8.17,-26.86 -16.71,-33.71 -8.53,-6.84 -21.37,-10.29 -38.42,-10.29 -17.63,0 -31.45,3.67 -41.39,11 -6.42,4.73 -9.65,11 -9.65,18.9 0,7.19 3.03,13.32 9.09,18.4 7.68,6.56 26.37,13.33 56.05,20.38 29.68,6.99 51.61,14.32 65.79,21.79 14.24,7.54 25.38,17.77 33.42,30.82 8.03,13.04 12.05,29.12 12.05,48.23 0,17.34 -4.79,33.63 -14.45,48.79 -9.66,15.16 -23.26,26.44 -40.89,33.78 -17.63,7.39 -39.62,11.06 -65.93,11.06 -38.28,0 -67.68,-8.81 -88.2,-26.51 -20.53,-17.62 -32.72,-43.36 -36.74,-77.13z"/>
  <path id="_14" class="fil3" d="M13414.06 2154.55l0 -300.36 61.34 0 0 249.17 151.87 0 0 51.19 -213.21 0z"/>
  <path id="_15" class="fil3" d="M13672.47 2154.55l0 -300.36 61.34 0 0 249.17 151.87 0 0 51.19 -213.21 0z"/>
  <rect class="fil4 str0" x="9493.55" y="1545.11" width="4996.61" height="4496.95" rx="249.83" ry="249.83"/>
  <rect class="fil5 str0" x="9993.21" y="2544.43" width="3997.29" height="2997.96" rx="249.83" ry="249.83"/>
  <path class="fil3" d="M11069.66 4192.53l0 -302.89 40.19 0 0 267.36 148.91 0 0 35.54 -189.1 0z"/>
  <path id="_1_21" class="fil3" d="M11288.02 4082.76c0,-40.54 11.28,-70.58 33.92,-90.11 18.83,-16.22 41.88,-24.32 69.02,-24.32 30.11,0 54.78,9.86 73.96,29.61 19.11,19.67 28.7,46.96 28.7,81.71 0,28.2 -4.24,50.35 -12.69,66.48 -8.46,16.15 -20.81,28.7 -37.01,37.65 -16.15,8.95 -33.85,13.4 -52.95,13.4 -30.74,0 -55.56,-9.8 -74.53,-29.48 -18.97,-19.67 -28.41,-48.01 -28.41,-84.95zm38.07 0.07c0,28.06 6.14,49.07 18.4,62.96 12.34,13.96 27.78,20.95 46.47,20.95 18.48,0 33.85,-6.99 46.18,-21.02 12.27,-14.03 18.41,-35.4 18.41,-64.09 0,-27.08 -6.21,-47.6 -18.55,-61.49 -12.33,-13.96 -27.71,-20.94 -46.04,-20.94 -18.69,0 -34.13,6.91 -46.47,20.8 -12.26,13.89 -18.4,34.84 -18.4,62.83z"/>
  <path id="_2_22" class="fil3" d="M11576.75 4192.53l-66.34 -219.56 38.91 0 35.05 126.7 12.41 47.17c0.49,-2.33 4.3,-17.42 11.35,-45.27l34.76 -128.6 38.14 0 33.07 127.48 10.79 41.8 12.62 -42.37 37.92 -126.91 36.18 0 -68.88 219.56 -38.5 0 -34.83 -131.35 -8.81 -37.58 -44.42 168.94 -39.41 0z"/>
  <path id="_3_23" class="fil3" d="M11963.27 4192.53l0 -302.89 40.19 0 0 267.36 148.91 0 0 35.54 -189.1 0z"/>
  <path id="_4_24" class="fil3" d="M12345.35 4121.46l38.49 5.08c-6,22.35 -17.2,39.76 -33.56,52.1 -16.36,12.34 -37.23,18.55 -62.69,18.55 -32.01,0 -57.39,-9.87 -76.15,-29.62 -18.75,-19.67 -28.13,-47.38 -28.13,-82.98 0,-36.81 9.45,-65.43 28.42,-85.73 18.97,-20.38 43.57,-30.53 73.82,-30.53 29.26,0 53.16,9.93 71.7,29.89 18.55,19.96 27.85,48.02 27.85,84.18 0,2.19 -0.07,5.51 -0.21,9.87l-163.51 0c1.41,24.04 8.18,42.52 20.45,55.28 12.2,12.76 27.5,19.18 45.76,19.18 13.61,0 25.24,-3.6 34.84,-10.79 9.65,-7.19 17.27,-18.69 22.91,-34.48zm-121.84 -59.65l122.26 0c-1.62,-18.47 -6.35,-32.29 -14.03,-41.53 -11.77,-14.31 -27.14,-21.51 -45.97,-21.51 -17.06,0 -31.38,5.72 -43.01,17.14 -11.56,11.42 -17.98,26.72 -19.25,45.9z"/>
  <path id="_5_25" class="fil3" d="M12490.87 4192.53l-82.84 -219.56 39.83 0 46.96 131.5c5.08,14.17 9.8,28.9 14.1,44.2 3.32,-11.56 7.9,-25.45 13.89,-41.73l48.8 -133.97 38.21 0 -83.13 219.56 -35.82 0z"/>
  <path id="_6_26" class="fil3" d="M12792.15 4121.46l38.49 5.08c-6,22.35 -17.2,39.76 -33.56,52.1 -16.36,12.34 -37.23,18.55 -62.69,18.55 -32.01,0 -57.39,-9.87 -76.15,-29.62 -18.75,-19.67 -28.13,-47.38 -28.13,-82.98 0,-36.81 9.45,-65.43 28.42,-85.73 18.97,-20.38 43.57,-30.53 73.82,-30.53 29.26,0 53.16,9.93 71.7,29.89 18.55,19.96 27.85,48.02 27.85,84.18 0,2.19 -0.07,5.51 -0.21,9.87l-163.51 0c1.41,24.04 8.18,42.52 20.45,55.28 12.2,12.76 27.5,19.18 45.76,19.18 13.61,0 25.24,-3.6 34.84,-10.79 9.65,-7.19 17.27,-18.69 22.91,-34.48zm-121.84 -59.65l122.26 0c-1.62,-18.47 -6.35,-32.29 -14.03,-41.53 -11.77,-14.31 -27.14,-21.51 -45.97,-21.51 -17.06,0 -31.38,5.72 -43.01,17.14 -11.56,11.42 -17.98,26.72 -19.25,45.9z"/>
  <path id="_7_27" class="fil3" d="M12876.83 4192.53l0 -302.89 37.23 0 0 302.89 -37.23 0z"/>
  <g id="_2673471656208">
   <g>
    <path class="fil3" d="M5496.27 2526.62l217.55 -108.74 0 217.54 -217.55 -108.81zm3791.12 9.99l-3584.95 0 0 -19.99 3584.95 0 0 19.99zm206.17 -9.99l-217.55 108.81 0 -217.54 217.55 108.74z"/>
   </g>
  </g>
  <g id="_2673471657408">
   <g>
    <path class="fil3" d="M9425.4 5552.37l-3929.13 0 0 -19.99 3929.13 0 0 19.99zm-49.69 16.16l-78.61 52.38 52.38 -78.54 -52.38 -78.61 78.61 52.38 -26.08 -52.38 143.92 78.61 -143.92 78.54 26.08 -52.38z"/>
   </g>
  </g>
  <path class="fil3" d="M4220.48 460.93l63.46 -302.89 126.42 0c21.93,0 38.35,2.54 49.29,7.54 10.99,5 20.02,13.6 27.21,25.8 7.13,12.19 10.71,25.8 10.71,40.96 0,12.55 -2.54,25.24 -7.68,38.21 -5.08,12.9 -11.49,23.55 -19.32,31.94 -7.75,8.39 -15.65,14.74 -23.68,19.04 -7.97,4.24 -16.5,7.4 -25.6,9.45 -19.46,4.58 -39.12,6.84 -58.94,6.84l-75.87 0 -25.8 123.11 -40.19 0zm73.12 -157.37l67.12 0c26.01,0 45.12,-2.82 57.25,-8.38 12.19,-5.58 22,-14.04 29.26,-25.46 7.34,-11.34 10.99,-23.47 10.99,-36.24 0,-9.87 -1.9,-17.98 -5.78,-24.18 -3.88,-6.28 -9.37,-10.86 -16.43,-13.82 -7.06,-2.96 -20.66,-4.44 -40.75,-4.44l-78.13 0 -23.54 112.52z"/>
  <path id="_1_28" class="fil3" d="M4739.98 354.32l40.19 5.5c-12.69,34.98 -31.17,61.42 -55.49,79.33 -24.25,17.91 -51.47,26.86 -81.71,26.86 -36.81,0 -66.07,-11.21 -87.64,-33.63 -21.58,-22.49 -32.37,-54.64 -32.37,-96.45 0,-54.5 16.43,-99.63 49.22,-135.31 29.19,-31.8 65.51,-47.66 108.87,-47.66 32.15,0 58.17,8.59 78.05,25.8 19.89,17.2 31.45,40.33 34.62,69.38l-37.64 3.38c-4.16,-21.86 -12.48,-38.14 -24.96,-48.93 -12.48,-10.79 -28.55,-16.22 -48.23,-16.22 -37.08,0 -67.12,16.43 -89.97,49.36 -19.81,28.41 -29.75,62.05 -29.75,101.03 0,31.1 7.68,54.85 22.98,71.21 15.3,16.43 35.26,24.61 59.86,24.61 20.95,0 39.98,-6.85 56.9,-20.45 16.99,-13.61 29.33,-32.93 37.08,-57.82z"/>
  <path id="_2_29" class="fil3" d="M3617.65 835.39l59.65 -5.93c3.59,19.96 10.78,34.55 21.72,43.93 10.92,9.37 25.66,14.03 44.21,14.03 19.6,0 34.41,-4.17 44.34,-12.48 9.94,-8.32 14.95,-18.05 14.95,-29.19 0,-7.2 -2.11,-13.26 -6.28,-18.34 -4.16,-5 -11.49,-9.37 -21.93,-13.04 -7.13,-2.54 -23.33,-6.91 -48.72,-13.25 -32.65,-8.18 -55.56,-18.2 -68.74,-30.11 -18.55,-16.71 -27.78,-37.08 -27.78,-61.13 0,-15.44 4.37,-29.97 13.04,-43.43 8.74,-13.47 21.3,-23.69 37.72,-30.74 16.43,-7.06 36.17,-10.58 59.43,-10.58 37.86,0 66.42,8.39 85.53,25.24 19.18,16.85 29.19,39.27 30.17,67.4l-61.34 2.12c-2.61,-15.65 -8.17,-26.86 -16.71,-33.71 -8.53,-6.84 -21.37,-10.29 -38.42,-10.29 -17.63,0 -31.45,3.67 -41.39,11 -6.42,4.73 -9.65,11 -9.65,18.9 0,7.19 3.03,13.32 9.09,18.4 7.68,6.56 26.37,13.33 56.05,20.38 29.68,6.99 51.61,14.32 65.79,21.79 14.24,7.54 25.38,17.77 33.42,30.82 8.03,13.04 12.05,29.12 12.05,48.23 0,17.34 -4.79,33.63 -14.45,48.79 -9.66,15.16 -23.26,26.44 -40.89,33.78 -17.63,7.39 -39.62,11.06 -65.93,11.06 -38.28,0 -67.68,-8.81 -88.2,-26.51 -20.53,-17.62 -32.72,-43.36 -36.74,-77.13z"/>
  <path id="_3_30" class="fil3" d="M3901.93 821.07c0,-19.32 4.73,-37.99 14.25,-56.05 9.51,-18.12 22.98,-31.87 40.39,-41.38 17.42,-9.52 36.81,-14.31 58.31,-14.31 33.21,0 60.36,10.78 81.57,32.36 21.23,21.65 31.8,48.86 31.8,81.85 0,33.29 -10.71,60.85 -32.08,82.71 -21.44,21.86 -48.37,32.78 -80.87,32.78 -20.1,0 -39.27,-4.58 -57.54,-13.67 -18.19,-9.1 -32.08,-22.42 -41.59,-40.05 -9.52,-17.56 -14.25,-38.99 -14.25,-64.24zm59.65 3.11c0,21.79 5.15,38.49 15.44,50.06 10.37,11.63 23.06,17.42 38.22,17.42 15.08,0 27.77,-5.79 37.99,-17.42 10.22,-11.56 15.38,-28.41 15.38,-50.48 0,-21.51 -5.16,-38.07 -15.38,-49.64 -10.22,-11.64 -22.91,-17.42 -37.99,-17.42 -15.16,0 -27.85,5.78 -38.22,17.42 -10.29,11.56 -15.44,28.27 -15.44,50.06z"/>
  <path id="_4_31" class="fil3" d="M4148.49 713.98l32.15 0 0 -16.57c0,-18.47 1.98,-32.29 5.93,-41.38 3.95,-9.17 11.21,-16.57 21.79,-22.28 10.64,-5.71 24.04,-8.6 40.26,-8.6 16.57,0 32.86,2.47 48.79,7.4l-7.4 40.33c-9.44,-2.19 -18.54,-3.32 -27.28,-3.32 -8.6,0 -14.74,1.98 -18.48,5.93 -3.74,3.95 -5.64,11.56 -5.64,22.84l0 15.65 43.57 0 0 45.69 -43.57 0 0 173.87 -57.96 0 0 -173.87 -32.15 0 0 -45.69z"/>
  <path id="_5_32" class="fil3" d="M4415.01 713.98l0 46.11 -39.76 0 0 88.91c0,18.06 0.35,28.56 1.12,31.52 0.78,2.97 2.47,5.44 5.23,7.4 2.68,1.91 5.92,2.89 9.79,2.89 5.44,0 13.19,-1.83 23.41,-5.57l4.87 45.13c-13.47,5.78 -28.7,8.66 -45.76,8.66 -10.44,0 -19.82,-1.76 -28.21,-5.29 -8.38,-3.53 -14.52,-8.1 -18.4,-13.68 -3.95,-5.64 -6.63,-13.18 -8.18,-22.77 -1.2,-6.77 -1.83,-20.45 -1.83,-41.1l0 -96.1 -26.65 0 0 -46.11 26.65 0 0 -43.57 57.96 -34.27 0 77.84 39.76 0z"/>
  <path id="_6_33" class="fil3" d="M4496.24 933.54l-69.38 -219.56 56.41 0 41.1 143.9 37.86 -143.9 55.98 0 36.46 143.9 41.95 -143.9 57.25 0 -70.51 219.56 -55.7 0 -37.71 -141.22 -37.23 141.22 -56.47 0z"/>
  <path id="_7_34" class="fil3" d="M4827.83 781.66l-52.45 -9.3c5.92,-21.44 16.14,-37.29 30.6,-47.59 14.45,-10.29 35.96,-15.44 64.44,-15.44 25.88,0 45.2,3.03 57.89,9.16 12.62,6.14 21.58,13.89 26.72,23.33 5.15,9.45 7.75,26.72 7.75,51.96l-0.84 67.68c0,19.25 0.91,33.5 2.75,42.66 1.83,9.16 5.29,18.97 10.36,29.4l-57.53 0c-1.49,-3.81 -3.39,-9.44 -5.58,-16.92 -0.92,-3.46 -1.62,-5.72 -2.04,-6.78 -9.87,9.73 -20.46,17 -31.73,21.87 -11.28,4.86 -23.27,7.33 -36.04,7.33 -22.48,0 -40.25,-6.13 -53.23,-18.4 -12.97,-12.2 -19.46,-27.71 -19.46,-46.47 0,-12.33 2.96,-23.4 8.88,-33.14 5.93,-9.65 14.17,-17.13 24.89,-22.27 10.64,-5.15 26.01,-9.66 46.11,-13.54 27.07,-5.08 45.9,-9.87 56.33,-14.24l0 -5.86c0,-11.28 -2.75,-19.32 -8.24,-24.18 -5.58,-4.8 -16.01,-7.2 -31.31,-7.2 -10.36,0 -18.4,2.05 -24.18,6.21 -5.86,4.1 -10.5,11.35 -14.1,21.72zm77.84 46.96c-7.4,2.47 -19.18,5.44 -35.33,8.88 -16.07,3.46 -26.65,6.85 -31.58,10.08 -7.54,5.44 -11.35,12.2 -11.35,20.45 0,8.18 3.03,15.16 9.09,21.09 6.07,5.93 13.75,8.88 23.12,8.88 10.43,0 20.45,-3.46 29.97,-10.29 6.98,-5.29 11.63,-11.63 13.81,-19.25 1.49,-4.94 2.26,-14.39 2.26,-28.27l0 -11.57z"/>
  <path id="_8_35" class="fil3" d="M5075.38 933.54l-57.96 0 0 -219.56 53.72 0 0 31.17c9.24,-14.74 17.56,-24.39 24.96,-28.98 7.4,-4.59 15.79,-6.84 25.17,-6.84 13.25,0 26.01,3.66 38.28,10.92l-17.98 50.63c-9.8,-6.35 -18.9,-9.52 -27.29,-9.52 -8.17,0 -15.09,2.26 -20.73,6.71 -5.65,4.51 -10.08,12.55 -13.33,24.25 -3.24,11.7 -4.86,36.24 -4.86,73.54l0 67.68z"/>
  <path id="_9_36" class="fil3" d="M5311.51 864.15l57.95 9.73c-7.39,21.23 -19.18,37.36 -35.18,48.51 -16.08,11.07 -36.18,16.64 -60.22,16.64 -38.14,0 -66.41,-12.47 -84.67,-37.43 -14.46,-20.03 -21.72,-45.27 -21.72,-75.8 0,-36.38 9.51,-64.94 28.48,-85.52 18.97,-20.66 43.01,-30.95 72.06,-30.95 32.57,0 58.31,10.78 77.21,32.36 18.82,21.58 27.84,54.64 27,99.2l-145.1 0c0.42,17.21 5.08,30.6 14.03,40.19 8.88,9.58 20.02,14.38 33.28,14.38 9.09,0 16.71,-2.47 22.84,-7.4 6.21,-4.94 10.85,-12.9 14.03,-23.9zm3.39 -58.8c-0.43,-16.85 -4.73,-29.68 -12.98,-38.42 -8.24,-8.81 -18.26,-13.19 -30.1,-13.19 -12.62,0 -23.06,4.66 -31.31,13.89 -8.25,9.24 -12.27,21.87 -12.13,37.72l86.52 0z"/>
  <path class="fil3" d="M7936.56 460.93l63.46 -302.89 197.07 0 -7.2 34.27 -156.87 0 -20.31 96.87 159.56 0 -7.2 34.27 -159.56 0 -28.76 137.49 -40.19 0z"/>
  <path id="_1_37" class="fil3" d="M8194.12 460.93l63.46 -302.89 126.42 0c21.93,0 38.35,2.54 49.29,7.54 10.99,5 20.02,13.6 27.21,25.8 7.13,12.19 10.71,25.8 10.71,40.96 0,12.55 -2.54,25.24 -7.68,38.21 -5.08,12.9 -11.49,23.55 -19.32,31.94 -7.75,8.39 -15.65,14.74 -23.68,19.04 -7.97,4.24 -16.5,7.4 -25.6,9.45 -19.46,4.58 -39.12,6.84 -58.94,6.84l-75.87 0 -25.8 123.11 -40.19 0zm73.12 -157.37l67.12 0c26.01,0 45.12,-2.82 57.25,-8.38 12.19,-5.58 22,-14.04 29.26,-25.46 7.34,-11.34 10.99,-23.47 10.99,-36.24 0,-9.87 -1.9,-17.98 -5.78,-24.18 -3.88,-6.28 -9.37,-10.86 -16.43,-13.82 -7.06,-2.96 -20.66,-4.44 -40.75,-4.44l-78.13 0 -23.54 112.52z"/>
  <path id="_2_38" class="fil3" d="M8631.33 341.63l7.27 -34.27 132.55 0 -25.8 123.18c-16.64,10.43 -35.68,18.97 -56.97,25.59 -21.37,6.56 -42.37,9.87 -63.03,9.87 -44.07,0 -77,-13.25 -98.71,-39.83 -18.33,-22.42 -27.5,-51.34 -27.5,-86.51 0,-36.39 8.04,-69.45 24.04,-99.28 16.08,-29.75 36.32,-51.81 60.78,-66.07 24.39,-14.24 51.54,-21.36 81.43,-21.36 21.51,0 40.75,3.88 57.82,11.7 17.13,7.75 30.17,18.19 39.27,31.23 9.09,13.05 15.65,30.04 19.6,50.99l-39.34 4.65c-4.23,-21.01 -13.11,-37.15 -26.58,-48.37 -13.46,-11.21 -30.74,-16.78 -51.82,-16.78 -21.93,0 -42.44,6 -61.48,17.91 -19.04,11.91 -34.2,29.9 -45.62,53.93 -11.35,24.04 -17.06,51.34 -17.06,81.93 0,30.46 7.54,53.51 22.55,69.09 15.09,15.59 35.83,23.34 62.33,23.34 26.37,0 54.79,-8.67 85.1,-26.02l13.61 -64.94 -92.44 0z"/>
  <path id="_3_39" class="fil3" d="M8778.41 460.93l171.33 -302.89 48.37 0 49.92 302.89 -39.27 0 -14.17 -87.15 -123.04 0 -48.44 87.15 -44.7 0zm111.05 -118.45l100.11 0 -11.7 -76.01c-4.87,-30.18 -7.82,-55.35 -9.02,-75.44 -6.98,17.34 -17.06,37.85 -30.46,61.69l-48.93 89.76z"/>
  <path id="_4_40" class="fil3" d="M7583.8 933.54l0 -302.89 208.14 0 0 51.19 -146.79 0 0 71.91 126.9 0 0 51.2 -126.9 0 0 128.6 -61.35 0z"/>
  <path id="_5_41" class="fil3" d="M7841.79 684.37l0 -53.72 57.96 0 0 53.72 -57.96 0zm0 249.17l0 -219.56 57.96 0 0 219.56 -57.96 0z"/>
  <path id="_6_42" class="fil3" d="M8014.75 933.54l-57.96 0 0 -219.56 53.72 0 0 31.17c9.24,-14.74 17.56,-24.39 24.96,-28.98 7.4,-4.59 15.79,-6.84 25.17,-6.84 13.25,0 26.01,3.66 38.28,10.92l-17.98 50.63c-9.8,-6.35 -18.9,-9.52 -27.29,-9.52 -8.17,0 -15.09,2.26 -20.73,6.71 -5.65,4.51 -10.08,12.55 -13.33,24.25 -3.24,11.7 -4.86,36.24 -4.86,73.54l0 67.68z"/>
  <path id="_7_43" class="fil3" d="M8119.74 713.98l53.3 0 0 29.97c19.11,-23.05 41.88,-34.62 68.31,-34.62 14.03,0 26.23,2.89 36.53,8.66 10.36,5.79 18.83,14.53 25.38,26.23 9.66,-11.7 20.1,-20.45 31.24,-26.23 11.13,-5.78 23.05,-8.66 35.75,-8.66 16.07,0 29.68,3.24 40.89,9.79 11.14,6.56 19.46,16.15 24.96,28.84 4.02,9.3 5.99,24.46 5.99,45.41l0 140.16 -57.95 0 0 -125.29c0,-21.79 -1.98,-35.82 -6,-42.09 -5.36,-8.24 -13.68,-12.41 -24.81,-12.41 -8.11,0 -15.8,2.47 -22.99,7.4 -7.12,5.01 -12.33,12.27 -15.51,21.79 -3.17,9.59 -4.73,24.68 -4.73,45.34l0 105.27 -57.95 0 0 -120.15c0,-21.29 -1.06,-35.11 -3.11,-41.24 -2.04,-6.21 -5.22,-10.86 -9.58,-13.89 -4.3,-3.03 -10.22,-4.52 -17.63,-4.52 -8.95,0 -16.99,2.4 -24.11,7.2 -7.2,4.87 -12.27,11.77 -15.37,20.88 -3.11,9.09 -4.66,24.18 -4.66,45.19l0 106.54 -57.95 0 0 -219.56z"/>
  <path id="_8_44" class="fil3" d="M8540.73 933.54l-69.38 -219.56 56.41 0 41.1 143.9 37.86 -143.9 55.98 0 36.46 143.9 41.95 -143.9 57.25 0 -70.51 219.56 -55.7 0 -37.71 -141.22 -37.23 141.22 -56.47 0z"/>
  <path id="_9_45" class="fil3" d="M8872.33 781.66l-52.45 -9.3c5.92,-21.44 16.14,-37.29 30.6,-47.59 14.45,-10.29 35.96,-15.44 64.44,-15.44 25.88,0 45.2,3.03 57.89,9.16 12.62,6.14 21.58,13.89 26.72,23.33 5.15,9.45 7.75,26.72 7.75,51.96l-0.84 67.68c0,19.25 0.91,33.5 2.75,42.66 1.83,9.16 5.29,18.97 10.36,29.4l-57.53 0c-1.49,-3.81 -3.39,-9.44 -5.58,-16.92 -0.92,-3.46 -1.62,-5.72 -2.04,-6.78 -9.87,9.73 -20.46,17 -31.73,21.87 -11.28,4.86 -23.27,7.33 -36.04,7.33 -22.48,0 -40.25,-6.13 -53.23,-18.4 -12.97,-12.2 -19.46,-27.71 -19.46,-46.47 0,-12.33 2.96,-23.4 8.88,-33.14 5.93,-9.65 14.17,-17.13 24.89,-22.27 10.64,-5.15 26.01,-9.66 46.11,-13.54 27.07,-5.08 45.9,-9.87 56.33,-14.24l0 -5.86c0,-11.28 -2.75,-19.32 -8.24,-24.18 -5.58,-4.8 -16.01,-7.2 -31.31,-7.2 -10.36,0 -18.4,2.05 -24.18,6.21 -5.86,4.1 -10.5,11.35 -14.1,21.72zm77.84 46.96c-7.4,2.47 -19.18,5.44 -35.33,8.88 -16.07,3.46 -26.65,6.85 -31.58,10.08 -7.54,5.44 -11.35,12.2 -11.35,20.45 0,8.18 3.03,15.16 9.09,21.09 6.07,5.93 13.75,8.88 23.12,8.88 10.43,0 20.45,-3.46 29.97,-10.29 6.98,-5.29 11.63,-11.63 13.81,-19.25 1.49,-4.94 2.26,-14.39 2.26,-28.27l0 -11.57z"/>
  <path id="_10_46" class="fil3" d="M9119.88 933.54l-57.96 0 0 -219.56 53.72 0 0 31.17c9.24,-14.74 17.56,-24.39 24.96,-28.98 7.4,-4.59 15.79,-6.84 25.17,-6.84 13.25,0 26.01,3.66 38.28,10.92l-17.98 50.63c-9.8,-6.35 -18.9,-9.52 -27.29,-9.52 -8.17,0 -15.09,2.26 -20.73,6.71 -5.65,4.51 -10.08,12.55 -13.33,24.25 -3.24,11.7 -4.86,36.24 -4.86,73.54l0 67.68z"/>
  <path id="_11_47" class="fil3" d="M9356.01 864.15l57.95 9.73c-7.39,21.23 -19.18,37.36 -35.18,48.51 -16.08,11.07 -36.18,16.64 -60.22,16.64 -38.14,0 -66.41,-12.47 -84.67,-37.43 -14.46,-20.03 -21.72,-45.27 -21.72,-75.8 0,-36.38 9.51,-64.94 28.48,-85.52 18.97,-20.66 43.01,-30.95 72.06,-30.95 32.57,0 58.31,10.78 77.21,32.36 18.82,21.58 27.84,54.64 27,99.2l-145.1 0c0.42,17.21 5.08,30.6 14.03,40.19 8.88,9.58 20.02,14.38 33.28,14.38 9.09,0 16.71,-2.47 22.84,-7.4 6.21,-4.94 10.85,-12.9 14.03,-23.9zm3.39 -58.8c-0.43,-16.85 -4.73,-29.68 -12.98,-38.42 -8.24,-8.81 -18.26,-13.19 -30.1,-13.19 -12.62,0 -23.06,4.66 -31.31,13.89 -8.25,9.24 -12.27,21.87 -12.13,37.72l86.52 0z"/>
  <path class="fil3" d="M17049.04 361.81c0,-54 15.59,-97.65 46.82,-131.07 31.24,-33.35 69.17,-50.06 113.66,-50.06 37.78,0 68.6,12.26 92.36,36.87 23.76,24.53 35.68,57.46 35.68,98.77 0,29.48 -5.99,56.83 -17.98,82 -8.95,18.83 -20.31,35.12 -33.91,48.86 -13.68,13.68 -28.28,24.25 -43.86,31.66 -20.66,9.94 -42.58,14.88 -65.79,14.88 -24.25,0 -46.32,-5.79 -66.27,-17.35 -19.96,-11.56 -35.04,-27.7 -45.27,-48.44 -10.29,-20.73 -15.44,-42.79 -15.44,-66.14zm39.34 1.98c0,17.77 3.67,34.13 11.07,49 7.4,14.88 18.48,26.51 33.14,34.91 14.67,8.38 30.11,12.62 46.25,12.62 15.66,0 30.54,-3.67 44.64,-11.07 14.1,-7.34 26.72,-17.63 37.85,-30.81 11.14,-13.12 19.96,-29.33 26.37,-48.59 6.42,-19.18 9.66,-38.14 9.66,-56.75 0,-30.18 -8.46,-54.22 -25.45,-72.13 -16.93,-17.91 -37.86,-26.86 -62.76,-26.86 -31.8,0 -59.93,13.54 -84.25,40.61 -24.32,27.07 -36.53,63.46 -36.53,109.08z"/>
  <path id="_1_48" class="fil3" d="M17336.22 572.84l63.46 -303.74 34.55 0 -6.35 30.74c12.77,-13.32 24.26,-22.55 34.42,-27.7 10.08,-5.15 20.8,-7.68 32.15,-7.68 20.94,0 38.28,7.61 52.1,22.76 13.75,15.23 20.66,36.95 20.66,65.3 0,22.77 -3.81,43.57 -11.42,62.33 -7.54,18.76 -16.85,33.85 -27.92,45.27 -11.07,11.42 -22.2,19.81 -33.56,25.16 -11.28,5.37 -22.91,8.04 -34.77,8.04 -26.36,0 -46.81,-13.4 -61.34,-40.19l-24.81 119.72 -37.16 0zm73.68 -173.72c0,16.35 1.2,27.63 3.53,33.91 3.46,8.95 9.16,16.15 16.99,21.58 7.9,5.51 17.07,8.25 27.43,8.25 21.51,0 38.92,-12.06 52.24,-36.25 13.26,-24.11 19.89,-48.79 19.89,-73.96 0,-18.55 -4.45,-32.86 -13.4,-43.01 -8.88,-10.08 -19.95,-15.16 -33.28,-15.16 -9.51,0 -18.33,2.54 -26.51,7.54 -8.17,5.01 -15.72,12.55 -22.7,22.56 -6.98,10.01 -12.76,22.2 -17.34,36.74 -4.52,14.45 -6.85,27.07 -6.85,37.79z"/>
  <path id="_2_49" class="fil3" d="M17676.28 458.34l-6.21 30.6c-8.95,2.33 -17.63,3.53 -26.02,3.53 -14.87,0 -26.65,-3.67 -35.46,-11 -6.57,-5.5 -9.87,-13.04 -9.87,-22.55 0,-4.8 1.76,-15.94 5.36,-33.29l26.65 -127.75 -29.61 0 5.92 -28.77 29.62 0 11.35 -53.79 42.79 -25.73 -16.92 79.53 36.81 0 -6.35 28.77 -36.39 0 -25.38 121.48c-3.17,15.45 -4.72,24.68 -4.72,27.71 0,4.45 1.27,7.82 3.81,10.15 2.54,2.33 6.7,3.53 12.47,3.53 8.25,0 15.66,-0.78 22.14,-2.4z"/>
  <path id="_3_50" class="fil3" d="M17760.54 228.07l8.88 -42.3 37.15 0 -8.88 42.3 -37.15 0zm-54.57 260.59l45.97 -219.56 37.15 0 -45.97 219.56 -37.15 0z"/>
  <path id="_4_51" class="fil3" d="M17951.82 408.7l37.65 3.81c-9.38,27.36 -22.7,47.67 -40.05,60.92 -17.27,13.25 -36.94,19.89 -59.01,19.89 -23.9,0 -43.22,-7.68 -58.1,-23.13 -14.81,-15.37 -22.2,-36.87 -22.2,-64.51 0,-23.9 4.72,-47.39 14.24,-70.51 9.51,-23.05 23.12,-40.68 40.82,-52.66 17.77,-12.06 38,-18.05 60.71,-18.05 23.54,0 42.23,6.63 56.05,19.95 13.75,13.33 20.66,30.89 20.66,52.81l-36.81 2.54c-0.14,-13.89 -4.16,-24.82 -12.12,-32.65 -7.9,-7.82 -18.41,-11.77 -31.38,-11.77 -15.02,0 -28.06,4.73 -39.13,14.24 -11,9.44 -19.67,23.83 -25.94,43.15 -6.28,19.32 -9.45,37.93 -9.45,55.77 0,18.69 4.17,32.72 12.41,42.02 8.25,9.37 18.48,14.03 30.6,14.03 12.2,0 23.76,-4.59 34.91,-13.82 11.06,-9.16 19.81,-23.19 26.15,-42.02z"/>
  <path id="_5_52" class="fil3" d="M18015.71 413.36l37.65 -2.12c0,10.71 1.62,19.89 4.94,27.5 3.24,7.54 9.3,13.75 18.12,18.54 8.88,4.87 19.18,7.27 30.88,7.27 16.43,0 28.77,-3.32 36.94,-9.94 8.25,-6.56 12.34,-14.38 12.34,-23.33 0,-6.42 -2.47,-12.55 -7.34,-18.34 -5.08,-5.78 -17.42,-12.9 -36.94,-21.36 -19.6,-8.39 -32.15,-14.32 -37.65,-17.77 -9.3,-5.65 -16.28,-12.27 -21.01,-19.96 -4.73,-7.61 -7.06,-16.36 -7.06,-26.3 0,-17.27 6.85,-32.15 20.6,-44.56 13.74,-12.34 32.92,-18.54 57.67,-18.54 27.42,0 48.37,6.35 62.68,19.11 14.39,12.69 21.79,29.47 22.35,50.27l-36.39 2.54c-0.56,-13.25 -5.22,-23.76 -13.96,-31.52 -8.74,-7.75 -21.15,-11.63 -37.15,-11.63 -12.9,0 -22.91,2.96 -30.04,8.88 -7.12,6 -10.64,12.41 -10.64,19.32 0,6.85 3.1,12.98 9.23,18.2 4.09,3.6 14.67,9.09 31.73,16.5 28.49,12.33 46.4,22.07 53.8,29.26 11.84,11.35 17.77,25.24 17.77,41.59 0,10.86 -3.32,21.51 -10.01,31.95 -6.64,10.43 -16.79,18.75 -30.46,25.02 -13.68,6.28 -29.76,9.38 -48.3,9.38 -25.24,0 -46.75,-6.28 -64.45,-18.83 -17.7,-12.48 -26.16,-32.93 -25.31,-61.13z"/>
  <path id="_6_53" class="fil3" d="M18187.89 493.73l162.87 -313.05 32.58 0 -162.87 313.05 -32.58 0z"/>
  <path id="_7_54" class="fil3" d="M18345.19 488.66l63.46 -302.89 219.98 0 -7.12 34.27 -179.87 0 -19.88 94.76 175.98 0 -7.2 34.27 -175.91 0 -22.07 105.34 191.71 0 -7.27 34.27 -231.83 0z"/>
  <path id="_8_55" class="fil3" d="M18620.81 488.66l63.25 -302.89 37.15 0 -63.25 302.89 -37.15 0z"/>
  <path id="_9_56" class="fil3" d="M18878.86 414.2l36.39 3.39c-5.29,18.05 -17.35,35.12 -36.18,51.41 -18.82,16.21 -41.31,24.32 -67.4,24.32 -16.28,0 -31.23,-3.74 -44.77,-11.21 -13.61,-7.54 -23.97,-18.41 -31.09,-32.72 -7.13,-14.31 -10.65,-30.6 -10.65,-48.86 0,-23.9 5.58,-47.1 16.64,-69.59 11.14,-22.49 25.53,-39.2 43.15,-50.14 17.7,-10.92 36.81,-16.35 57.4,-16.35 26.22,0 47.17,8.1 62.82,24.32 15.65,16.14 23.47,38.28 23.47,66.27 0,10.71 -0.98,21.65 -2.89,32.93l-162.09 0c-0.57,4.3 -0.85,8.1 -0.85,11.56 0,20.59 4.73,36.24 14.24,47.1 9.45,10.78 21.09,16.22 34.77,16.22 12.83,0 25.52,-4.17 37.99,-12.55 12.41,-8.32 22.14,-20.38 29.05,-36.11zm-109.22 -54.99l123.68 0c0.14,-3.81 0.21,-6.56 0.21,-8.24 0,-18.62 -4.73,-32.93 -14.1,-42.87 -9.45,-9.94 -21.51,-14.88 -36.32,-14.88 -16.07,0 -30.67,5.5 -43.85,16.43 -13.26,11 -23.06,27.5 -29.62,49.57z"/>
  <path id="_10_57" class="fil3" d="M19103.85 408.7l37.65 3.81c-9.38,27.36 -22.7,47.67 -40.05,60.92 -17.27,13.25 -36.94,19.89 -59.01,19.89 -23.9,0 -43.22,-7.68 -58.1,-23.13 -14.81,-15.37 -22.2,-36.87 -22.2,-64.51 0,-23.9 4.72,-47.39 14.24,-70.51 9.51,-23.05 23.12,-40.68 40.82,-52.66 17.77,-12.06 38,-18.05 60.71,-18.05 23.54,0 42.23,6.63 56.05,19.95 13.75,13.33 20.66,30.89 20.66,52.81l-36.81 2.54c-0.14,-13.89 -4.16,-24.82 -12.12,-32.65 -7.9,-7.82 -18.41,-11.77 -31.38,-11.77 -15.02,0 -28.06,4.73 -39.13,14.24 -11,9.44 -19.67,23.83 -25.94,43.15 -6.28,19.32 -9.45,37.93 -9.45,55.77 0,18.69 4.17,32.72 12.41,42.02 8.25,9.37 18.48,14.03 30.6,14.03 12.2,0 23.76,-4.59 34.91,-13.82 11.06,-9.16 19.81,-23.19 26.15,-42.02z"/>
  <path id="_11_58" class="fil3" d="M19251.36 458.34l-6.21 30.6c-8.95,2.33 -17.63,3.53 -26.02,3.53 -14.87,0 -26.65,-3.67 -35.46,-11 -6.57,-5.5 -9.87,-13.04 -9.87,-22.55 0,-4.8 1.76,-15.94 5.36,-33.29l26.65 -127.75 -29.61 0 5.92 -28.77 29.62 0 11.35 -53.79 42.79 -25.73 -16.92 79.53 36.81 0 -6.35 28.77 -36.39 0 -25.38 121.48c-3.17,15.45 -4.72,24.68 -4.72,27.71 0,4.45 1.27,7.82 3.81,10.15 2.54,2.33 6.7,3.53 12.47,3.53 8.25,0 15.66,-0.78 22.14,-2.4z"/>
  <path id="_12_59" class="fil3" d="M19281.89 488.66l45.69 -219.56 33.36 0 -9.45 44.92c11.42,-16.86 22.49,-29.34 33.35,-37.44 10.79,-8.1 21.87,-12.12 33.14,-12.12 7.4,0 16.57,2.68 27.43,8.03l-15.23 34.69c-6.49,-4.8 -13.61,-7.2 -21.3,-7.2 -13.11,0 -26.58,7.34 -40.4,21.94 -13.81,14.59 -24.74,40.82 -32.71,78.76l-18.34 87.99 -35.54 0z"/>
  <path id="_13_60" class="fil3" d="M19429.11 405.24c0,-42.72 12.62,-78.12 37.79,-106.18 20.8,-23.05 48.02,-34.62 81.78,-34.62 26.37,0 47.67,8.24 63.89,24.74 16.14,16.5 24.25,38.78 24.25,66.77 0,25.16 -5.08,48.58 -15.3,70.22 -10.15,21.65 -24.68,38.28 -43.43,49.78 -18.83,11.56 -38.57,17.35 -59.37,17.35 -17.07,0 -32.58,-3.67 -46.54,-10.93 -14.03,-7.27 -24.67,-17.63 -32.01,-30.95 -7.4,-13.33 -11.07,-28.7 -11.07,-46.19zm37.23 -3.67c0,20.67 5.01,36.32 14.94,46.96 9.94,10.65 22.63,16.01 38,16.01 8.04,0 16.01,-1.62 23.83,-4.87 7.89,-3.24 15.23,-8.1 22,-14.73 6.85,-6.64 12.62,-14.18 17.35,-22.63 4.8,-8.46 8.67,-17.56 11.56,-27.36 4.31,-13.6 6.42,-26.65 6.42,-39.2 0,-19.81 -5.01,-35.18 -15.02,-46.11 -10.08,-10.93 -22.7,-16.43 -37.92,-16.43 -11.78,0 -22.49,2.82 -32.16,8.39 -9.72,5.57 -18.47,13.68 -26.3,24.46 -7.82,10.71 -13.53,23.19 -17.2,37.43 -3.67,14.25 -5.5,26.94 -5.5,38.07z"/>
  <path id="_14_61" class="fil3" d="M19657.62 488.66l45.97 -219.56 34.13 0 -7.89 38.35c14.88,-14.94 28.76,-25.87 41.74,-32.71 12.97,-6.85 26.15,-10.29 39.69,-10.29 17.98,0 32.08,4.86 42.3,14.52 10.22,9.66 15.37,22.56 15.37,38.77 0,8.11 -1.9,20.88 -5.71,38.36l-29.69 132.55 -37.15 0 30.81 -138.83c3.04,-13.54 4.59,-23.48 4.59,-29.97 0,-7.27 -2.54,-13.18 -7.68,-17.7 -5.15,-4.58 -12.55,-6.84 -22.28,-6.84 -19.53,0 -36.87,6.84 -52.17,20.59 -15.23,13.75 -26.43,37.29 -33.56,70.65l-21.3 102.09 -37.15 0z"/>
  <path id="_15_62" class="fil3" d="M19947.05 228.07l8.88 -42.3 37.15 0 -8.88 42.3 -37.15 0zm-54.57 260.59l45.97 -219.56 37.15 0 -45.97 219.56 -37.15 0z"/>
  <path id="_16" class="fil3" d="M20138.34 408.7l37.65 3.81c-9.38,27.36 -22.7,47.67 -40.05,60.92 -17.27,13.25 -36.94,19.89 -59.01,19.89 -23.9,0 -43.22,-7.68 -58.1,-23.13 -14.81,-15.37 -22.2,-36.87 -22.2,-64.51 0,-23.9 4.72,-47.39 14.24,-70.51 9.51,-23.05 23.12,-40.68 40.82,-52.66 17.77,-12.06 38,-18.05 60.71,-18.05 23.54,0 42.23,6.63 56.05,19.95 13.75,13.33 20.66,30.89 20.66,52.81l-36.81 2.54c-0.14,-13.89 -4.16,-24.82 -12.12,-32.65 -7.9,-7.82 -18.41,-11.77 -31.38,-11.77 -15.02,0 -28.06,4.73 -39.13,14.24 -11,9.44 -19.67,23.83 -25.94,43.15 -6.28,19.32 -9.45,37.93 -9.45,55.77 0,18.69 4.17,32.72 12.41,42.02 8.25,9.37 18.48,14.03 30.6,14.03 12.2,0 23.76,-4.59 34.91,-13.82 11.06,-9.16 19.81,-23.19 26.15,-42.02z"/>
  <path id="_17" class="fil3" d="M20202.22 413.36l37.65 -2.12c0,10.71 1.62,19.89 4.94,27.5 3.24,7.54 9.3,13.75 18.12,18.54 8.88,4.87 19.18,7.27 30.88,7.27 16.43,0 28.77,-3.32 36.94,-9.94 8.25,-6.56 12.34,-14.38 12.34,-23.33 0,-6.42 -2.47,-12.55 -7.34,-18.34 -5.08,-5.78 -17.42,-12.9 -36.94,-21.36 -19.6,-8.39 -32.15,-14.32 -37.65,-17.77 -9.3,-5.65 -16.28,-12.27 -21.01,-19.96 -4.73,-7.61 -7.06,-16.36 -7.06,-26.3 0,-17.27 6.85,-32.15 20.6,-44.56 13.74,-12.34 32.92,-18.54 57.67,-18.54 27.42,0 48.37,6.35 62.68,19.11 14.39,12.69 21.79,29.47 22.35,50.27l-36.39 2.54c-0.56,-13.25 -5.22,-23.76 -13.96,-31.52 -8.74,-7.75 -21.15,-11.63 -37.15,-11.63 -12.9,0 -22.91,2.96 -30.04,8.88 -7.12,6 -10.64,12.41 -10.64,19.32 0,6.85 3.1,12.98 9.23,18.2 4.09,3.6 14.67,9.09 31.73,16.5 28.49,12.33 46.4,22.07 53.8,29.26 11.84,11.35 17.77,25.24 17.77,41.59 0,10.86 -3.32,21.51 -10.01,31.95 -6.64,10.43 -16.79,18.75 -30.46,25.02 -13.68,6.28 -29.76,9.38 -48.3,9.38 -25.24,0 -46.75,-6.28 -64.45,-18.83 -17.7,-12.48 -26.16,-32.93 -25.31,-61.13z"/>
  <path id="_18" class="fil3" d="M17557.86 961.27l0 -302.89 91.87 0 54.29 206.58 53.65 -206.58 92.08 0 0 302.89 -56.68 0 -0.21 -238.46 -59.72 238.46 -58.95 0 -59.44 -238.46 -0.21 238.46 -56.68 0z"/>
  <path id="_19" class="fil3" d="M17910.67 712.1l0 -53.72 57.96 0 0 53.72 -57.96 0zm0 249.17l0 -219.56 57.96 0 0 219.56 -57.96 0z"/>
  <path id="_20" class="fil3" d="M18219.42 806.85l-57.1 10.15c-1.91,-11.34 -6.28,-19.88 -13.12,-25.66 -6.84,-5.71 -15.65,-8.6 -26.51,-8.6 -14.45,0 -26.01,5.01 -34.62,15.02 -8.6,10.01 -12.9,26.72 -12.9,50.21 0,26.08 4.37,44.49 13.11,55.27 8.74,10.79 20.45,16.15 35.12,16.15 11,0 20.03,-3.17 27,-9.44 7.06,-6.28 11.99,-17.07 14.88,-32.44l57.11 9.73c-5.93,26.22 -17.28,46.04 -34.06,59.44 -16.78,13.39 -39.27,20.09 -67.54,20.09 -32.01,0 -57.6,-10.15 -76.64,-30.39 -19.12,-20.31 -28.63,-48.37 -28.63,-84.25 0,-36.31 9.59,-64.52 28.7,-84.75 19.11,-20.24 44.98,-30.31 77.63,-30.31 26.65,0 47.87,5.78 63.67,17.27 15.72,11.49 27,28.98 33.91,52.52z"/>
  <path id="_21" class="fil3" d="M18318.91 961.27l-57.96 0 0 -219.56 53.72 0 0 31.17c9.24,-14.74 17.56,-24.39 24.96,-28.98 7.4,-4.59 15.79,-6.84 25.17,-6.84 13.25,0 26.01,3.66 38.28,10.92l-17.98 50.63c-9.8,-6.35 -18.9,-9.52 -27.29,-9.52 -8.17,0 -15.09,2.26 -20.73,6.71 -5.65,4.51 -10.08,12.55 -13.33,24.25 -3.24,11.7 -4.86,36.24 -4.86,73.54l0 67.68z"/>
  <path id="_22" class="fil3" d="M18414.59 848.8c0,-19.32 4.73,-37.99 14.25,-56.05 9.51,-18.12 22.98,-31.87 40.39,-41.38 17.42,-9.52 36.81,-14.31 58.31,-14.31 33.21,0 60.36,10.78 81.57,32.36 21.23,21.65 31.8,48.86 31.8,81.85 0,33.29 -10.71,60.85 -32.08,82.71 -21.44,21.86 -48.37,32.78 -80.87,32.78 -20.1,0 -39.27,-4.58 -57.54,-13.67 -18.19,-9.1 -32.08,-22.42 -41.59,-40.05 -9.52,-17.56 -14.25,-38.99 -14.25,-64.24zm59.65 3.11c0,21.79 5.15,38.49 15.44,50.06 10.37,11.63 23.06,17.42 38.22,17.42 15.08,0 27.77,-5.79 37.99,-17.42 10.22,-11.56 15.38,-28.41 15.38,-50.48 0,-21.51 -5.16,-38.07 -15.38,-49.64 -10.22,-11.64 -22.91,-17.42 -37.99,-17.42 -15.16,0 -27.85,5.78 -38.22,17.42 -10.29,11.56 -15.44,28.27 -15.44,50.06z"/>
  <path id="_23" class="fil3" d="M18665.81 899.5l58.38 -8.88c2.47,11.21 7.46,19.75 15.08,25.52 7.54,5.86 18.2,8.74 31.81,8.74 15.01,0 26.29,-2.75 33.91,-8.24 5.08,-3.88 7.61,-9.09 7.61,-15.58 0,-4.38 -1.41,-8.04 -4.16,-10.93 -2.89,-2.75 -9.37,-5.36 -19.39,-7.68 -46.89,-10.36 -76.58,-19.82 -89.12,-28.34 -17.42,-11.92 -26.09,-28.42 -26.09,-49.5 0,-19.11 7.54,-35.12 22.56,-48.09 15.02,-12.97 38.28,-19.46 69.8,-19.46 30.03,0 52.38,4.93 66.97,14.73 14.6,9.87 24.68,24.39 30.18,43.64l-54.57 10.15c-2.33,-8.59 -6.84,-15.23 -13.39,-19.81 -6.56,-4.59 -15.94,-6.85 -28.13,-6.85 -15.38,0 -26.37,2.12 -33.08,6.43 -4.44,3.03 -6.63,6.98 -6.63,11.77 0,4.16 1.91,7.68 5.79,10.57 5.29,3.88 23.4,9.3 54.43,16.36 31.02,7.06 52.66,15.65 64.94,25.87 12.19,10.29 18.26,24.75 18.26,43.22 0,20.1 -8.38,37.44 -25.24,51.89 -16.78,14.46 -41.67,21.72 -74.66,21.72 -29.9,0 -53.59,-6.06 -71.07,-18.12 -17.42,-12.05 -28.84,-28.41 -34.2,-49.15z"/>
  <path id="_24" class="fil3" d="M19113.02 806.85l-57.1 10.15c-1.91,-11.34 -6.28,-19.88 -13.12,-25.66 -6.84,-5.71 -15.65,-8.6 -26.51,-8.6 -14.45,0 -26.01,5.01 -34.62,15.02 -8.6,10.01 -12.9,26.72 -12.9,50.21 0,26.08 4.37,44.49 13.11,55.27 8.74,10.79 20.45,16.15 35.12,16.15 11,0 20.03,-3.17 27,-9.44 7.06,-6.28 11.99,-17.07 14.88,-32.44l57.11 9.73c-5.93,26.22 -17.28,46.04 -34.06,59.44 -16.78,13.39 -39.27,20.09 -67.54,20.09 -32.01,0 -57.6,-10.15 -76.64,-30.39 -19.12,-20.31 -28.63,-48.37 -28.63,-84.25 0,-36.31 9.59,-64.52 28.7,-84.75 19.11,-20.24 44.98,-30.31 77.63,-30.31 26.65,0 47.87,5.78 63.67,17.27 15.72,11.49 27,28.98 33.91,52.52z"/>
  <path id="_25" class="fil3" d="M19143.55 848.8c0,-19.32 4.73,-37.99 14.25,-56.05 9.51,-18.12 22.98,-31.87 40.39,-41.38 17.42,-9.52 36.81,-14.31 58.31,-14.31 33.21,0 60.36,10.78 81.57,32.36 21.23,21.65 31.8,48.86 31.8,81.85 0,33.29 -10.71,60.85 -32.08,82.71 -21.44,21.86 -48.37,32.78 -80.87,32.78 -20.1,0 -39.27,-4.58 -57.54,-13.67 -18.19,-9.1 -32.08,-22.42 -41.59,-40.05 -9.52,-17.56 -14.25,-38.99 -14.25,-64.24zm59.65 3.11c0,21.79 5.15,38.49 15.44,50.06 10.37,11.63 23.06,17.42 38.22,17.42 15.08,0 27.77,-5.79 37.99,-17.42 10.22,-11.56 15.38,-28.41 15.38,-50.48 0,-21.51 -5.16,-38.07 -15.38,-49.64 -10.22,-11.64 -22.91,-17.42 -37.99,-17.42 -15.16,0 -27.85,5.78 -38.22,17.42 -10.29,11.56 -15.44,28.27 -15.44,50.06z"/>
  <path id="_26" class="fil3" d="M19413.81 741.71l54.14 0 0 32.23c7.06,-11 16.5,-19.89 28.49,-26.72 11.98,-6.78 25.31,-10.15 39.9,-10.15 25.45,0 47.1,10 64.87,30.03 17.77,19.96 26.65,47.88 26.65,83.55 0,36.74 -8.95,65.22 -26.86,85.59 -17.91,20.38 -39.62,30.53 -65.15,30.53 -12.13,0 -23.12,-2.4 -33,-7.26 -9.8,-4.8 -20.24,-13.05 -31.1,-24.75l0 109.86 -57.95 0 0 -302.9zm57.11 106.4c0,24.74 4.86,43.01 14.66,54.85 9.73,11.77 21.65,17.7 35.61,17.7 13.47,0 24.68,-5.43 33.64,-16.29 8.95,-10.85 13.39,-28.62 13.39,-53.37 0,-23.12 -4.58,-40.25 -13.82,-51.47 -9.16,-11.21 -20.59,-16.79 -34.2,-16.79 -14.17,0 -25.94,5.51 -35.25,16.5 -9.38,11 -14.03,27.29 -14.03,48.87z"/>
  <path id="_27" class="fil3" d="M19800.81 891.88l57.95 9.73c-7.39,21.23 -19.18,37.36 -35.18,48.51 -16.08,11.07 -36.18,16.64 -60.22,16.64 -38.14,0 -66.41,-12.47 -84.67,-37.43 -14.46,-20.03 -21.72,-45.27 -21.72,-75.8 0,-36.38 9.51,-64.94 28.48,-85.52 18.97,-20.66 43.01,-30.95 72.06,-30.95 32.57,0 58.31,10.78 77.21,32.36 18.82,21.58 27.84,54.64 27,99.2l-145.1 0c0.42,17.21 5.08,30.6 14.03,40.19 8.88,9.58 20.02,14.38 33.28,14.38 9.09,0 16.71,-2.47 22.84,-7.4 6.21,-4.94 10.85,-12.9 14.03,-23.9zm3.39 -58.8c-0.43,-16.85 -4.73,-29.68 -12.98,-38.42 -8.24,-8.81 -18.26,-13.19 -30.1,-13.19 -12.62,0 -23.06,4.66 -31.31,13.89 -8.25,9.24 -12.27,21.87 -12.13,37.72l86.52 0z"/>
  <g id="_2673471668208">
   <path class="fil6 str2" d="M6724.53 6541.72l0 -6495.59"/>
  </g>
  <g id="_2673471672576">
   <path class="fil6 str2" d="M15813.04 6495.59l0 -6495.59"/>
  </g>
  <path class="fil7 str0" d="M5496.27 4046.64l999.32 496.43 0 -248.21 1998.64 0 0 248.21 999.32 -496.43 -999.32 -496.44 0 248.21 -1998.64 0 0 -248.21 -999.32 496.44zm499.66 248.22m499.66 124.11m999.32 -124.11m999.32 124.11m499.66 -124.11m0 -496.44m-499.66 -124.12m-999.32 124.11m-999.32 -124.11m-499.66 124.12"/>
  <path class="fil7 str0" d="M14490.16 3047.32l687.03 496.43 0 -248.21 4122.2 0 0 248.21 687.03 -496.43 -687.03 -496.44 0 248.21 -4122.2 0 0 -248.21 -687.03 496.44zm343.52 248.22m343.52 124.11m2061.1 -124.11m2061.1 124.11m343.52 -124.11m0 -496.44m-343.52 -124.12m-2061.1 124.11m-2061.1 -124.11m-343.52 124.12"/>
  <path class="fil7 str0" d="M14490.16 5039.52l687.03 496.43 0 -248.21 4122.2 0 0 248.21 687.03 -496.43 -687.03 -496.44 0 248.21 -4122.2 0 0 -248.21 -687.03 496.44zm343.52 248.22m343.52 124.11m2061.1 -124.11m2061.1 124.11m343.52 -124.11m0 -496.44m-343.52 -124.12m-2061.1 124.11m-2061.1 -124.11m-343.52 124.12"/>
  <path class="fil3" d="M6995.25 2347.67l0 -302.89 134.25 0c27,0 47.52,2.75 61.55,8.17 14.03,5.43 25.24,15.02 33.64,28.77 8.39,13.74 12.55,28.97 12.55,45.62 0,21.5 -6.99,39.62 -20.88,54.35 -13.89,14.74 -35.32,24.04 -64.37,28.06 10.64,5.08 18.68,10.15 24.18,15.09 11.7,10.72 22.77,24.18 33.14,40.33l52.38 82.49 -50.06 0 -40.05 -63.04c-11.63,-18.26 -21.3,-32.15 -28.84,-41.81 -7.61,-9.65 -14.38,-16.35 -20.38,-20.23 -5.92,-3.81 -12.05,-6.5 -18.26,-8.04 -4.52,-0.92 -11.91,-1.41 -22.28,-1.41l-46.39 0 0 134.53 -40.19 0zm40.19 -169.22l86.02 0c18.33,0 32.57,-1.91 42.86,-5.72 10.29,-3.74 18.13,-9.79 23.41,-18.19 5.36,-8.32 8.03,-17.35 8.03,-27.14 0,-14.32 -5.15,-26.16 -15.51,-35.4 -10.36,-9.24 -26.72,-13.82 -49.08,-13.82l-95.74 0 0 100.26z"/>
  <path id="_1_63" class="fil3" d="M7445.01 2276.59l38.49 5.08c-6,22.35 -17.2,39.76 -33.56,52.1 -16.36,12.34 -37.23,18.55 -62.69,18.55 -32.01,0 -57.39,-9.87 -76.15,-29.62 -18.75,-19.67 -28.13,-47.38 -28.13,-82.98 0,-36.81 9.45,-65.43 28.42,-85.73 18.97,-20.38 43.57,-30.53 73.82,-30.53 29.26,0 53.16,9.93 71.7,29.89 18.55,19.96 27.85,48.02 27.85,84.18 0,2.19 -0.07,5.51 -0.21,9.87l-163.51 0c1.41,24.04 8.18,42.52 20.45,55.28 12.2,12.76 27.5,19.18 45.76,19.18 13.61,0 25.24,-3.6 34.84,-10.79 9.65,-7.19 17.27,-18.69 22.91,-34.48zm-121.84 -59.65l122.26 0c-1.62,-18.47 -6.35,-32.29 -14.03,-41.53 -11.77,-14.31 -27.14,-21.51 -45.97,-21.51 -17.06,0 -31.38,5.72 -43.01,17.14 -11.56,11.42 -17.98,26.72 -19.25,45.9z"/>
  <path id="_2_64" class="fil3" d="M7523.7 2365.85l35.96 5.08c1.48,11.14 5.71,19.25 12.62,24.4 9.23,6.84 21.86,10.29 37.86,10.29 17.2,0 30.53,-3.46 39.9,-10.29 9.37,-6.85 15.72,-16.5 19.04,-28.84 1.91,-7.54 2.82,-23.41 2.68,-47.6 -16.29,19.18 -36.53,28.77 -60.78,28.77 -30.17,0 -53.58,-10.86 -70.08,-32.65 -16.57,-21.72 -24.81,-47.8 -24.81,-78.19 0,-20.95 3.81,-40.26 11.35,-57.96 7.53,-17.7 18.54,-31.31 32.92,-40.96 14.39,-9.66 31.31,-14.45 50.77,-14.45 25.88,0 47.25,10.57 64.03,31.72l0 -27.07 34.27 0 0 189.59c0,34.2 -3.46,58.38 -10.43,72.63 -6.92,14.24 -17.99,25.52 -33,33.77 -15.09,8.25 -33.64,12.41 -55.63,12.41 -26.16,0 -47.24,-5.86 -63.32,-17.63 -16.15,-11.7 -23.9,-29.4 -23.33,-53.02zm30.46 -131.7c0,28.69 5.71,49.64 17.13,62.82 11.49,13.18 25.8,19.82 43.01,19.82 17.13,0 31.45,-6.56 43.08,-19.68 11.56,-13.11 17.34,-33.7 17.34,-61.76 0,-26.8 -5.99,-47.03 -17.91,-60.64 -11.91,-13.61 -26.29,-20.38 -43.08,-20.38 -16.57,0 -30.6,6.7 -42.23,20.1 -11.56,13.39 -17.34,33.28 -17.34,59.72z"/>
  <path id="_3_65" class="fil3" d="M7765.82 2087.07l0 -42.3 37.22 0 0 42.3 -37.22 0zm0 260.59l0 -219.56 37.22 0 0 219.56 -37.22 0z"/>
  <path id="_4_66" class="fil3" d="M7844.99 2282.09l36.81 -5.92c2.05,14.73 7.82,26.01 17.28,33.91 9.44,7.83 22.7,11.78 39.62,11.78 17.14,0 29.83,-3.46 38.14,-10.44 8.25,-6.91 12.41,-15.08 12.41,-24.46 0,-8.38 -3.74,-15.02 -11.14,-19.81 -5.22,-3.32 -17.91,-7.47 -38.07,-12.62 -27.21,-6.85 -46.04,-12.76 -56.61,-17.77 -10.51,-5.08 -18.48,-11.99 -23.9,-20.88 -5.44,-8.81 -8.18,-18.61 -8.18,-29.33 0,-9.8 2.26,-18.83 6.71,-27.14 4.51,-8.32 10.57,-15.23 18.26,-20.74 5.79,-4.23 13.68,-7.82 23.62,-10.78 10,-2.96 20.66,-4.44 32.08,-4.44 17.2,0 32.29,2.46 45.26,7.46 13.05,4.94 22.63,11.71 28.84,20.17 6.14,8.53 10.43,19.89 12.76,34.13l-36.38 5.08c-1.63,-11.42 -6.43,-20.38 -14.32,-26.79 -7.89,-6.42 -19.04,-9.59 -33.49,-9.59 -16.99,0 -29.19,2.83 -36.46,8.46 -7.26,5.65 -10.92,12.27 -10.92,19.82 0,4.8 1.48,9.16 4.51,13.04 3.04,3.95 7.75,7.27 14.24,9.87 3.74,1.41 14.6,4.58 32.79,9.51 26.23,6.99 44.56,12.76 54.99,17.21 10.44,4.44 18.62,10.99 24.54,19.46 6,8.53 8.95,19.11 8.95,31.8 0,12.34 -3.6,23.97 -10.86,34.91 -7.26,10.92 -17.7,19.39 -31.3,25.38 -13.68,5.99 -29.12,8.95 -46.33,8.95 -28.48,0 -50.27,-5.93 -65.22,-17.7 -14.95,-11.85 -24.46,-29.33 -28.63,-52.53z"/>
  <path id="_5_67" class="fil3" d="M8152.13 2314.46l5.08 32.86c-10.44,2.18 -19.82,3.31 -27.99,3.31 -13.47,0 -23.9,-2.11 -31.38,-6.42 -7.4,-4.3 -12.62,-9.86 -15.65,-16.85 -3.04,-6.98 -4.52,-21.65 -4.52,-44l0 -126.48 -27.5 0 0 -28.77 27.5 0 0 -54.29 37.22 -22.34 0 76.64 37.23 0 0 28.77 -37.23 0 0 128.6c0,10.64 0.64,17.49 1.98,20.52 1.27,3.04 3.38,5.43 6.35,7.27 2.96,1.76 7.19,2.68 12.69,2.68 4.09,0 9.51,-0.49 16.22,-1.48z"/>
  <path id="_6_68" class="fil3" d="M8338.63 2276.59l38.49 5.08c-6,22.35 -17.2,39.76 -33.56,52.1 -16.36,12.34 -37.23,18.55 -62.69,18.55 -32.01,0 -57.39,-9.87 -76.15,-29.62 -18.75,-19.67 -28.13,-47.38 -28.13,-82.98 0,-36.81 9.45,-65.43 28.42,-85.73 18.97,-20.38 43.57,-30.53 73.82,-30.53 29.26,0 53.16,9.93 71.7,29.89 18.55,19.96 27.85,48.02 27.85,84.18 0,2.19 -0.07,5.51 -0.21,9.87l-163.51 0c1.41,24.04 8.18,42.52 20.45,55.28 12.2,12.76 27.5,19.18 45.76,19.18 13.61,0 25.24,-3.6 34.84,-10.79 9.65,-7.19 17.27,-18.69 22.91,-34.48zm-121.84 -59.65l122.26 0c-1.62,-18.47 -6.35,-32.29 -14.03,-41.53 -11.77,-14.31 -27.14,-21.51 -45.97,-21.51 -17.06,0 -31.38,5.72 -43.01,17.14 -11.56,11.42 -17.98,26.72 -19.25,45.9z"/>
  <path id="_7_69" class="fil3" d="M8423.73 2347.67l0 -219.56 33.42 0 0 33.64c8.53,-15.59 16.43,-25.88 23.69,-30.82 7.26,-5.01 15.23,-7.46 23.89,-7.46 12.55,0 25.31,3.95 38.29,11.77l-13.26 34.34c-9.02,-5.08 -18.05,-7.61 -27.07,-7.61 -8.11,0 -15.37,2.47 -21.79,7.34 -6.42,4.86 -11,11.63 -13.75,20.31 -4.16,13.18 -6.21,27.63 -6.21,43.36l0 114.71 -37.22 0z"/>
  <path id="_8_70" class="fil3" d="M8550.21 2282.09l36.81 -5.92c2.05,14.73 7.82,26.01 17.28,33.91 9.44,7.83 22.7,11.78 39.62,11.78 17.14,0 29.83,-3.46 38.14,-10.44 8.25,-6.91 12.41,-15.08 12.41,-24.46 0,-8.38 -3.74,-15.02 -11.14,-19.81 -5.22,-3.32 -17.91,-7.47 -38.07,-12.62 -27.21,-6.85 -46.04,-12.76 -56.61,-17.77 -10.51,-5.08 -18.48,-11.99 -23.9,-20.88 -5.44,-8.81 -8.18,-18.61 -8.18,-29.33 0,-9.8 2.26,-18.83 6.71,-27.14 4.51,-8.32 10.57,-15.23 18.26,-20.74 5.79,-4.23 13.68,-7.82 23.62,-10.78 10,-2.96 20.66,-4.44 32.08,-4.44 17.2,0 32.29,2.46 45.26,7.46 13.05,4.94 22.63,11.71 28.84,20.17 6.14,8.53 10.43,19.89 12.76,34.13l-36.38 5.08c-1.63,-11.42 -6.43,-20.38 -14.32,-26.79 -7.89,-6.42 -19.04,-9.59 -33.49,-9.59 -16.99,0 -29.19,2.83 -36.46,8.46 -7.26,5.65 -10.92,12.27 -10.92,19.82 0,4.8 1.48,9.16 4.51,13.04 3.04,3.95 7.75,7.27 14.24,9.87 3.74,1.41 14.6,4.58 32.79,9.51 26.23,6.99 44.56,12.76 54.99,17.21 10.44,4.44 18.62,10.99 24.54,19.46 6,8.53 8.95,19.11 8.95,31.8 0,12.34 -3.6,23.97 -10.86,34.91 -7.26,10.92 -17.7,19.39 -31.3,25.38 -13.68,5.99 -29.12,8.95 -46.33,8.95 -28.48,0 -50.27,-5.93 -65.22,-17.7 -14.95,-11.85 -24.46,-29.33 -28.63,-52.53z"/>
  <path class="fil3" d="M6995.25 3538.68l0 -302.89 204.33 0 0 35.54 -164.14 0 0 94.34 142.14 0 0 35.54 -142.14 0 0 137.49 -40.19 0z"/>
  <path id="_1_71" class="fil3" d="M7258.31 3538.68l0 -302.89 40.19 0 0 302.89 -40.19 0z"/>
  <path id="_2_72" class="fil3" d="M7371.19 3538.68l0 -302.89 204.33 0 0 35.54 -164.14 0 0 94.34 142.14 0 0 35.54 -142.14 0 0 137.49 -40.19 0z"/>
  <path id="_3_73" class="fil3" d="M7615.22 3391.25c0,-50.21 13.54,-89.55 40.54,-117.96 27,-28.41 61.84,-42.58 104.56,-42.58 27.99,0 53.16,6.7 75.66,20.02 22.41,13.33 39.55,31.94 51.33,55.84 11.77,23.83 17.7,50.91 17.7,81.15 0,30.67 -6.21,58.17 -18.62,82.35 -12.4,24.25 -29.96,42.59 -52.66,54.99 -22.77,12.48 -47.31,18.69 -73.61,18.69 -28.55,0 -54,-6.91 -76.5,-20.66 -22.42,-13.75 -39.48,-32.51 -51.05,-56.34 -11.56,-23.75 -17.35,-48.93 -17.35,-75.51zm41.46 0.71c0,36.45 9.79,65.15 29.4,86.08 19.6,20.95 44.21,31.45 73.82,31.45 30.18,0 54.92,-10.57 74.45,-31.73 19.47,-21.16 29.19,-51.19 29.19,-90.11 0,-24.6 -4.16,-46.11 -12.47,-64.45 -8.32,-18.33 -20.53,-32.57 -36.53,-42.65 -16.08,-10.08 -34.06,-15.16 -54.01,-15.16 -28.34,0 -52.73,9.73 -73.18,29.19 -20.45,19.46 -30.67,51.89 -30.67,97.37z"/>
  <path id="_4_74" class="fil3" d="M7937.08 3473.1l36.81 -5.92c2.05,14.73 7.82,26.01 17.28,33.91 9.44,7.83 22.7,11.78 39.62,11.78 17.14,0 29.83,-3.46 38.14,-10.44 8.25,-6.91 12.41,-15.08 12.41,-24.46 0,-8.38 -3.74,-15.02 -11.14,-19.81 -5.22,-3.32 -17.91,-7.47 -38.07,-12.62 -27.21,-6.85 -46.04,-12.76 -56.61,-17.77 -10.51,-5.08 -18.48,-11.99 -23.9,-20.88 -5.44,-8.81 -8.18,-18.61 -8.18,-29.33 0,-9.8 2.26,-18.83 6.71,-27.14 4.51,-8.32 10.57,-15.23 18.26,-20.74 5.79,-4.23 13.68,-7.82 23.62,-10.78 10,-2.96 20.66,-4.44 32.08,-4.44 17.2,0 32.29,2.46 45.26,7.46 13.05,4.94 22.63,11.71 28.84,20.17 6.14,8.53 10.43,19.89 12.76,34.13l-36.38 5.08c-1.63,-11.42 -6.43,-20.38 -14.32,-26.79 -7.89,-6.42 -19.04,-9.59 -33.49,-9.59 -16.99,0 -29.19,2.83 -36.46,8.46 -7.26,5.65 -10.92,12.27 -10.92,19.82 0,4.8 1.48,9.16 4.51,13.04 3.04,3.95 7.75,7.27 14.24,9.87 3.74,1.41 14.6,4.58 32.79,9.51 26.23,6.99 44.56,12.76 54.99,17.21 10.44,4.44 18.62,10.99 24.54,19.46 6,8.53 8.95,19.11 8.95,31.8 0,12.34 -3.6,23.97 -10.86,34.91 -7.26,10.92 -17.7,19.39 -31.3,25.38 -13.68,5.99 -29.12,8.95 -46.33,8.95 -28.48,0 -50.27,-5.93 -65.22,-17.7 -14.95,-11.85 -24.46,-29.33 -28.63,-52.53z"/>
  <path class="fil3" d="M6995.25 5345.63l0 -302.89 204.33 0 0 35.54 -164.14 0 0 94.34 142.14 0 0 35.54 -142.14 0 0 137.49 -40.19 0z"/>
  <path id="_1_75" class="fil3" d="M7246.89 5085.04l0 -42.3 37.22 0 0 42.3 -37.22 0zm0 260.59l0 -219.56 37.22 0 0 219.56 -37.22 0z"/>
  <path id="_2_76" class="fil3" d="M7340.46 5345.63l0 -219.56 33.42 0 0 33.64c8.53,-15.59 16.43,-25.88 23.69,-30.82 7.26,-5.01 15.23,-7.46 23.89,-7.46 12.55,0 25.31,3.95 38.29,11.77l-13.26 34.34c-9.02,-5.08 -18.05,-7.61 -27.07,-7.61 -8.11,0 -15.37,2.47 -21.79,7.34 -6.42,4.86 -11,11.63 -13.75,20.31 -4.16,13.18 -6.21,27.63 -6.21,43.36l0 114.71 -37.22 0z"/>
  <path id="_3_77" class="fil3" d="M7481.75 5345.63l0 -219.56 33.42 0 0 31.03c6.85,-10.72 16.01,-19.4 27.43,-25.88 11.42,-6.56 24.39,-9.79 38.99,-9.79 16.21,0 29.54,3.38 39.9,10.07 10.36,6.78 17.7,16.15 21.93,28.28 17.49,-25.59 40.12,-38.35 68.04,-38.35 21.86,0 38.7,5.99 50.41,18.05 11.78,12.05 17.7,30.6 17.7,55.63l0 150.53 -37.22 0 0 -138.2c0,-14.8 -1.27,-25.52 -3.67,-32.08 -2.4,-6.56 -6.77,-11.77 -13.18,-15.79 -6.35,-4.03 -13.82,-6 -22.35,-6 -15.51,0 -28.34,5.15 -38.56,15.37 -10.22,10.29 -15.3,26.72 -15.3,49.29l0 127.4 -37.22 0 0 -142.49c0,-16.5 -3.04,-28.91 -9.1,-37.15 -6.06,-8.25 -16,-12.41 -29.75,-12.41 -10.43,0 -20.1,2.75 -28.98,8.24 -8.88,5.51 -15.3,13.54 -19.32,24.18 -3.95,10.58 -5.93,25.88 -5.93,45.83l0 113.8 -37.22 0z"/>
  <path id="_4_78" class="fil3" d="M7873.62 5345.63l-66.34 -219.56 38.91 0 35.05 126.7 12.41 47.17c0.49,-2.33 4.3,-17.42 11.35,-45.27l34.76 -128.6 38.14 0 33.07 127.48 10.79 41.8 12.62 -42.37 37.92 -126.91 36.18 0 -68.88 219.56 -38.5 0 -34.83 -131.35 -8.81 -37.58 -44.42 168.94 -39.41 0z"/>
  <path id="_5_79" class="fil3" d="M8283.06 5318.13c-13.82,11.78 -27.15,20.03 -39.91,24.89 -12.76,4.87 -26.43,7.27 -41.1,7.27 -24.11,0 -42.65,-5.86 -55.63,-17.63 -12.97,-11.7 -19.46,-26.72 -19.46,-44.99 0,-10.71 2.47,-20.52 7.34,-29.4 4.94,-8.88 11.35,-15.93 19.25,-21.3 7.96,-5.36 16.85,-9.44 26.79,-12.19 7.34,-1.91 18.4,-3.74 33.14,-5.58 30.04,-3.52 52.24,-7.82 66.41,-12.76 0.14,-5.08 0.22,-8.31 0.22,-9.65 0,-15.09 -3.53,-25.73 -10.58,-31.94 -9.51,-8.39 -23.68,-12.55 -42.44,-12.55 -17.56,0 -30.53,3.1 -38.85,9.23 -8.38,6.14 -14.52,16.99 -18.54,32.65l-36.39 -5.08c3.32,-15.58 8.74,-28.2 16.36,-37.79 7.61,-9.59 18.62,-16.92 33,-22.13 14.31,-5.15 31.02,-7.75 49.92,-7.75 18.76,0 34.06,2.18 45.83,6.63 11.7,4.44 20.38,9.94 25.88,16.64 5.5,6.7 9.37,15.16 11.63,25.38 1.2,6.35 1.83,17.77 1.83,34.2l0 49.36c0,34.48 0.78,56.26 2.33,65.5 1.48,9.23 4.59,18.05 9.09,26.51l-38.91 0c-3.74,-7.82 -6.14,-16.99 -7.2,-27.5zm-2.96 -82.49c-13.54,5.51 -33.85,10.15 -60.92,13.96 -15.38,2.19 -26.23,4.66 -32.58,7.4 -6.35,2.75 -11.21,6.78 -14.67,11.99 -3.45,5.29 -5.22,11.13 -5.22,17.63 0,9.79 3.74,18.05 11.28,24.6 7.54,6.56 18.55,9.87 33,9.87 14.31,0 27.07,-3.11 38.28,-9.38 11.14,-6.21 19.4,-14.73 24.61,-25.52 4.02,-8.38 5.99,-20.73 5.99,-37.01l0.22 -13.54z"/>
  <path id="_6_80" class="fil3" d="M8374.5 5345.63l0 -219.56 33.42 0 0 33.64c8.53,-15.59 16.43,-25.88 23.69,-30.82 7.26,-5.01 15.23,-7.46 23.89,-7.46 12.55,0 25.31,3.95 38.29,11.77l-13.26 34.34c-9.02,-5.08 -18.05,-7.61 -27.07,-7.61 -8.11,0 -15.37,2.47 -21.79,7.34 -6.42,4.86 -11,11.63 -13.75,20.31 -4.16,13.18 -6.21,27.63 -6.21,43.36l0 114.71 -37.22 0z"/>
  <path id="_7_81" class="fil3" d="M8665.56 5274.56l38.49 5.08c-6,22.35 -17.2,39.76 -33.56,52.1 -16.36,12.34 -37.23,18.55 -62.69,18.55 -32.01,0 -57.39,-9.87 -76.15,-29.62 -18.75,-19.67 -28.13,-47.38 -28.13,-82.98 0,-36.81 9.45,-65.43 28.42,-85.73 18.97,-20.38 43.57,-30.53 73.82,-30.53 29.26,0 53.16,9.93 71.7,29.89 18.55,19.96 27.85,48.02 27.85,84.18 0,2.19 -0.07,5.51 -0.21,9.87l-163.51 0c1.41,24.04 8.18,42.52 20.45,55.28 12.2,12.76 27.5,19.18 45.76,19.18 13.61,0 25.24,-3.6 34.84,-10.79 9.65,-7.19 17.27,-18.69 22.91,-34.48zm-121.84 -59.65l122.26 0c-1.62,-18.47 -6.35,-32.29 -14.03,-41.53 -11.77,-14.31 -27.14,-21.51 -45.97,-21.51 -17.06,0 -31.38,5.72 -43.01,17.14 -11.56,11.42 -17.98,26.72 -19.25,45.9z"/>
  <path class="fil3" d="M16585.28 2654l0 -302.89 104.35 0c23.54,0 41.52,1.41 53.93,4.3 17.35,4.02 32.16,11.28 44.42,21.72 16.01,13.54 27.92,30.74 35.82,51.75 7.97,21.01 11.92,45.05 11.92,72.06 0,22.98 -2.68,43.36 -8.04,61.13 -5.36,17.77 -12.26,32.5 -20.66,44.13 -8.45,11.64 -17.63,20.81 -27.64,27.43 -9.93,6.7 -22,11.77 -36.1,15.23 -14.17,3.46 -30.39,5.15 -48.72,5.15l-109.29 0zm40.18 -35.54l64.59 0c19.96,0 35.61,-1.83 46.96,-5.57 11.35,-3.74 20.38,-8.95 27.14,-15.73 9.45,-9.51 16.86,-22.34 22.14,-38.42 5.29,-16.08 7.96,-35.54 7.96,-58.45 0,-31.73 -5.22,-56.12 -15.58,-73.19 -10.36,-17.06 -22.98,-28.48 -37.86,-34.27 -10.71,-4.16 -27.99,-6.2 -51.82,-6.2l-63.53 0 0 231.82z"/>
  <path id="_1_82" class="fil3" d="M16886.12 2393.4l0 -42.3 37.22 0 0 42.3 -37.22 0zm0 260.59l0 -219.56 37.22 0 0 219.56 -37.22 0z"/>
  <path id="_2_83" class="fil3" d="M16973.27 2672.19l35.96 5.08c1.48,11.14 5.71,19.25 12.62,24.4 9.23,6.84 21.86,10.29 37.86,10.29 17.2,0 30.53,-3.46 39.9,-10.29 9.37,-6.85 15.72,-16.5 19.04,-28.84 1.91,-7.54 2.82,-23.41 2.68,-47.6 -16.29,19.18 -36.53,28.77 -60.78,28.77 -30.17,0 -53.58,-10.86 -70.08,-32.65 -16.57,-21.72 -24.81,-47.8 -24.81,-78.19 0,-20.95 3.81,-40.26 11.35,-57.96 7.53,-17.7 18.54,-31.31 32.92,-40.96 14.39,-9.66 31.31,-14.45 50.77,-14.45 25.88,0 47.25,10.57 64.03,31.72l0 -27.07 34.27 0 0 189.59c0,34.2 -3.46,58.38 -10.43,72.63 -6.92,14.24 -17.99,25.52 -33,33.77 -15.09,8.25 -33.64,12.41 -55.63,12.41 -26.16,0 -47.24,-5.86 -63.32,-17.63 -16.15,-11.7 -23.9,-29.4 -23.33,-53.02zm30.46 -131.7c0,28.69 5.71,49.64 17.13,62.82 11.49,13.18 25.8,19.82 43.01,19.82 17.13,0 31.45,-6.56 43.08,-19.68 11.56,-13.11 17.34,-33.7 17.34,-61.76 0,-26.8 -5.99,-47.03 -17.91,-60.64 -11.91,-13.61 -26.29,-20.38 -43.08,-20.38 -16.57,0 -30.6,6.7 -42.23,20.1 -11.56,13.39 -17.34,33.28 -17.34,59.72z"/>
  <path id="_3_84" class="fil3" d="M17215.39 2393.4l0 -42.3 37.22 0 0 42.3 -37.22 0zm0 260.59l0 -219.56 37.22 0 0 219.56 -37.22 0z"/>
  <path id="_4_85" class="fil3" d="M17390.18 2620.79l5.08 32.86c-10.44,2.18 -19.82,3.31 -27.99,3.31 -13.47,0 -23.9,-2.11 -31.38,-6.42 -7.4,-4.3 -12.62,-9.86 -15.65,-16.85 -3.04,-6.98 -4.52,-21.65 -4.52,-44l0 -126.48 -27.5 0 0 -28.77 27.5 0 0 -54.29 37.22 -22.34 0 76.64 37.23 0 0 28.77 -37.23 0 0 128.6c0,10.64 0.64,17.49 1.98,20.52 1.27,3.04 3.38,5.43 6.35,7.27 2.96,1.76 7.19,2.68 12.69,2.68 4.09,0 9.51,-0.49 16.22,-1.48z"/>
  <path id="_5_86" class="fil3" d="M17570.33 2626.5c-13.82,11.78 -27.15,20.03 -39.91,24.89 -12.76,4.87 -26.43,7.27 -41.1,7.27 -24.11,0 -42.65,-5.86 -55.63,-17.63 -12.97,-11.7 -19.46,-26.72 -19.46,-44.99 0,-10.71 2.47,-20.52 7.34,-29.4 4.94,-8.88 11.35,-15.93 19.25,-21.3 7.96,-5.36 16.85,-9.44 26.79,-12.19 7.34,-1.91 18.4,-3.74 33.14,-5.58 30.04,-3.52 52.24,-7.82 66.41,-12.76 0.14,-5.08 0.22,-8.31 0.22,-9.65 0,-15.09 -3.53,-25.73 -10.58,-31.94 -9.51,-8.39 -23.68,-12.55 -42.44,-12.55 -17.56,0 -30.53,3.1 -38.85,9.23 -8.38,6.14 -14.52,16.99 -18.54,32.65l-36.39 -5.08c3.32,-15.58 8.74,-28.2 16.36,-37.79 7.61,-9.59 18.62,-16.92 33,-22.13 14.31,-5.15 31.02,-7.75 49.92,-7.75 18.76,0 34.06,2.18 45.83,6.63 11.7,4.44 20.38,9.94 25.88,16.64 5.5,6.7 9.37,15.16 11.63,25.38 1.2,6.35 1.83,17.77 1.83,34.2l0 49.36c0,34.48 0.78,56.26 2.33,65.5 1.48,9.23 4.59,18.05 9.09,26.51l-38.91 0c-3.74,-7.82 -6.14,-16.99 -7.2,-27.5zm-2.96 -82.49c-13.54,5.51 -33.85,10.15 -60.92,13.96 -15.38,2.19 -26.23,4.66 -32.58,7.4 -6.35,2.75 -11.21,6.78 -14.67,11.99 -3.45,5.29 -5.22,11.13 -5.22,17.63 0,9.79 3.74,18.05 11.28,24.6 7.54,6.56 18.55,9.87 33,9.87 14.31,0 27.07,-3.11 38.28,-9.38 11.14,-6.21 19.4,-14.73 24.61,-25.52 4.02,-8.38 5.99,-20.73 5.99,-37.01l0.22 -13.54z"/>
  <path id="_6_87" class="fil3" d="M17661.35 2654l0 -302.89 37.23 0 0 302.89 -37.23 0z"/>
  <path id="_7_88" class="fil3" d="M17885.15 2654l0 -302.89 40.19 0 0 302.89 -40.19 0z"/>
  <path id="_8_89" class="fil3" d="M17963.34 2659.07l87.99 -313.05 29.97 0 -87.99 313.05 -29.97 0z"/>
  <path id="_9_90" class="fil3" d="M18101.19 2506.57c0,-50.21 13.54,-89.55 40.54,-117.96 27,-28.41 61.84,-42.58 104.56,-42.58 27.99,0 53.16,6.7 75.66,20.02 22.41,13.33 39.55,31.94 51.33,55.84 11.77,23.83 17.7,50.91 17.7,81.15 0,30.67 -6.21,58.17 -18.62,82.35 -12.4,24.25 -29.96,42.59 -52.66,54.99 -22.77,12.48 -47.31,18.69 -73.61,18.69 -28.55,0 -54,-6.91 -76.5,-20.66 -22.42,-13.75 -39.48,-32.51 -51.05,-56.34 -11.56,-23.75 -17.35,-48.93 -17.35,-75.51zm41.46 0.71c0,36.45 9.79,65.15 29.4,86.08 19.6,20.95 44.21,31.45 73.82,31.45 30.18,0 54.92,-10.57 74.45,-31.73 19.47,-21.16 29.19,-51.19 29.19,-90.11 0,-24.6 -4.16,-46.11 -12.47,-64.45 -8.32,-18.33 -20.53,-32.57 -36.53,-42.65 -16.08,-10.08 -34.06,-15.16 -54.01,-15.16 -28.34,0 -52.73,9.73 -73.18,29.19 -20.45,19.46 -30.67,51.89 -30.67,97.37z"/>
  <path class="fil3" d="M16497.82 4652.64l116.19 -302.89 44.07 0 123.32 302.89 -45.62 0 -35.05 -91.8 -127.54 0 -32.86 91.8 -42.51 0zm87.14 -124.38l103.22 0 -31.59 -83.97c-9.51,-25.52 -16.71,-46.61 -21.72,-63.25 -4.16,19.75 -9.72,39.13 -16.71,58.31l-33.21 88.91z"/>
  <path id="_1_91" class="fil3" d="M16808.54 4652.64l0 -219.56 33.42 0 0 31.17c16.08,-23.9 39.34,-35.82 69.73,-35.82 13.26,0 25.38,2.39 36.46,7.12 11.07,4.73 19.39,11 24.88,18.69 5.51,7.68 9.38,16.85 11.57,27.42 1.34,6.92 2.04,18.97 2.04,36.18l0 134.81 -37.22 0 0 -133.4c0,-15.16 -1.41,-26.51 -4.31,-33.99 -2.89,-7.47 -8.03,-13.46 -15.37,-17.98 -7.33,-4.44 -16,-6.7 -25.87,-6.7 -15.79,0 -29.4,5.01 -40.89,15.09 -11.49,10.01 -17.21,29.12 -17.21,57.18l0 119.79 -37.22 0z"/>
  <path id="_2_92" class="fil3" d="M17187.23 4625.14c-13.82,11.78 -27.15,20.03 -39.91,24.89 -12.76,4.87 -26.43,7.27 -41.1,7.27 -24.11,0 -42.65,-5.86 -55.63,-17.63 -12.97,-11.7 -19.46,-26.72 -19.46,-44.99 0,-10.71 2.47,-20.52 7.34,-29.4 4.94,-8.88 11.35,-15.93 19.25,-21.3 7.96,-5.36 16.85,-9.44 26.79,-12.19 7.34,-1.91 18.4,-3.74 33.14,-5.58 30.04,-3.52 52.24,-7.82 66.41,-12.76 0.14,-5.08 0.22,-8.31 0.22,-9.65 0,-15.09 -3.53,-25.73 -10.58,-31.94 -9.51,-8.39 -23.68,-12.55 -42.44,-12.55 -17.56,0 -30.53,3.1 -38.85,9.23 -8.38,6.14 -14.52,16.99 -18.54,32.65l-36.39 -5.08c3.32,-15.58 8.74,-28.2 16.36,-37.79 7.61,-9.59 18.62,-16.92 33,-22.13 14.31,-5.15 31.02,-7.75 49.92,-7.75 18.76,0 34.06,2.18 45.83,6.63 11.7,4.44 20.38,9.94 25.88,16.64 5.5,6.7 9.37,15.16 11.63,25.38 1.2,6.35 1.83,17.77 1.83,34.2l0 49.36c0,34.48 0.78,56.26 2.33,65.5 1.48,9.23 4.59,18.05 9.09,26.51l-38.91 0c-3.74,-7.82 -6.14,-16.99 -7.2,-27.5zm-2.96 -82.49c-13.54,5.51 -33.85,10.15 -60.92,13.96 -15.38,2.19 -26.23,4.66 -32.58,7.4 -6.35,2.75 -11.21,6.78 -14.67,11.99 -3.45,5.29 -5.22,11.13 -5.22,17.63 0,9.79 3.74,18.05 11.28,24.6 7.54,6.56 18.55,9.87 33,9.87 14.31,0 27.07,-3.11 38.28,-9.38 11.14,-6.21 19.4,-14.73 24.61,-25.52 4.02,-8.38 5.99,-20.73 5.99,-37.01l0.22 -13.54z"/>
  <path id="_3_93" class="fil3" d="M17278.25 4652.64l0 -302.89 37.23 0 0 302.89 -37.23 0z"/>
  <path id="_4_94" class="fil3" d="M17359.12 4542.87c0,-40.54 11.28,-70.58 33.92,-90.11 18.83,-16.22 41.88,-24.32 69.02,-24.32 30.11,0 54.78,9.86 73.96,29.61 19.11,19.67 28.7,46.96 28.7,81.71 0,28.2 -4.24,50.35 -12.69,66.48 -8.46,16.15 -20.81,28.7 -37.01,37.65 -16.15,8.95 -33.85,13.4 -52.95,13.4 -30.74,0 -55.56,-9.8 -74.53,-29.48 -18.97,-19.67 -28.41,-48.01 -28.41,-84.95zm38.07 0.07c0,28.06 6.14,49.07 18.4,62.96 12.34,13.96 27.78,20.95 46.47,20.95 18.48,0 33.85,-6.99 46.18,-21.02 12.27,-14.03 18.41,-35.4 18.41,-64.09 0,-27.08 -6.21,-47.6 -18.55,-61.49 -12.33,-13.96 -27.71,-20.94 -46.04,-20.94 -18.69,0 -34.13,6.91 -46.47,20.8 -12.26,13.89 -18.4,34.84 -18.4,62.83z"/>
  <path id="_5_95" class="fil3" d="M17601.53 4670.83l35.96 5.08c1.48,11.14 5.71,19.25 12.62,24.4 9.23,6.84 21.86,10.29 37.86,10.29 17.2,0 30.53,-3.46 39.9,-10.29 9.37,-6.85 15.72,-16.5 19.04,-28.84 1.91,-7.54 2.82,-23.41 2.68,-47.6 -16.29,19.18 -36.53,28.77 -60.78,28.77 -30.17,0 -53.58,-10.86 -70.08,-32.65 -16.57,-21.72 -24.81,-47.8 -24.81,-78.19 0,-20.95 3.81,-40.26 11.35,-57.96 7.53,-17.7 18.54,-31.31 32.92,-40.96 14.39,-9.66 31.31,-14.45 50.77,-14.45 25.88,0 47.25,10.57 64.03,31.72l0 -27.07 34.27 0 0 189.59c0,34.2 -3.46,58.38 -10.43,72.63 -6.92,14.24 -17.99,25.52 -33,33.77 -15.09,8.25 -33.64,12.41 -55.63,12.41 -26.16,0 -47.24,-5.86 -63.32,-17.63 -16.15,-11.7 -23.9,-29.4 -23.33,-53.02zm30.46 -131.7c0,28.69 5.71,49.64 17.13,62.82 11.49,13.18 25.8,19.82 43.01,19.82 17.13,0 31.45,-6.56 43.08,-19.68 11.56,-13.11 17.34,-33.7 17.34,-61.76 0,-26.8 -5.99,-47.03 -17.91,-60.64 -11.91,-13.61 -26.29,-20.38 -43.08,-20.38 -16.57,0 -30.6,6.7 -42.23,20.1 -11.56,13.39 -17.34,33.28 -17.34,59.72z"/>
  <path id="_6_96" class="fil3" d="M17972.61 4652.64l0 -302.89 40.19 0 0 302.89 -40.19 0z"/>
  <path id="_7_97" class="fil3" d="M18050.8 4657.72l87.99 -313.05 29.97 0 -87.99 313.05 -29.97 0z"/>
  <path id="_8_98" class="fil3" d="M18188.65 4505.21c0,-50.21 13.54,-89.55 40.54,-117.96 27,-28.41 61.84,-42.58 104.56,-42.58 27.99,0 53.16,6.7 75.66,20.02 22.41,13.33 39.55,31.94 51.33,55.84 11.77,23.83 17.7,50.91 17.7,81.15 0,30.67 -6.21,58.17 -18.62,82.35 -12.4,24.25 -29.96,42.59 -52.66,54.99 -22.77,12.48 -47.31,18.69 -73.61,18.69 -28.55,0 -54,-6.91 -76.5,-20.66 -22.42,-13.75 -39.48,-32.51 -51.05,-56.34 -11.56,-23.75 -17.35,-48.93 -17.35,-75.51zm41.46 0.71c0,36.45 9.79,65.15 29.4,86.08 19.6,20.95 44.21,31.45 73.82,31.45 30.18,0 54.92,-10.57 74.45,-31.73 19.47,-21.16 29.19,-51.19 29.19,-90.11 0,-24.6 -4.16,-46.11 -12.47,-64.45 -8.32,-18.33 -20.53,-32.57 -36.53,-42.65 -16.08,-10.08 -34.06,-15.16 -54.01,-15.16 -28.34,0 -52.73,9.73 -73.18,29.19 -20.45,19.46 -30.67,51.89 -30.67,97.37z"/>
 </g>
</svg>
