<svg xmlns="http://www.w3.org/2000/svg" xmlns:xlink="http://www.w3.org/1999/xlink" width="250pt" height="270pt" viewBox="0.00 0.00 293.00 310.00">
<g id="graph0" class="graph" transform="scale(1 1) rotate(0) translate(4 305.55)">
<title>algagents_relations</title>
<polygon fill="white" stroke="none" points="-4,4 -4,-305.55 289.14,-305.55 289.14,4 -4,4"/>
<!-- 3bd2b8fc -->
<g id="node1" class="node">
<title>3bd2b8fc</title>
<ellipse fill="lightblue" stroke="none" cx="165" cy="-222.72" rx="29.51" ry="29.51"/>
<text xml:space="preserve" text-anchor="middle" x="165" y="-220.62" font-family="Times,serif" font-size="7.00">RawMaterial</text>
</g>
<!-- 4a59612b -->
<g id="node4" class="node">
<title>4a59612b</title>
<ellipse fill="lightblue" stroke="none" cx="262.84" cy="-143.72" rx="22.3" ry="22.3"/>
<text xml:space="preserve" text-anchor="middle" x="262.84" y="-141.62" font-family="Times,serif" font-size="7.00">Material</text>
</g>
<!-- 3bd2b8fc&#45;&gt;4a59612b -->
<g id="edge1" class="edge">
<title>3bd2b8fc-&gt;4a59612b</title>
<path fill="none" stroke="black" stroke-width="0.5" d="M188.23,-204.39C204.37,-191.09 226.03,-173.23 241.67,-160.34"/>
<polygon fill="black" stroke="black" stroke-width="0.5" points="242.33,-161.61 244.53,-157.98 240.55,-159.44 242.33,-161.61"/>
<text xml:space="preserve" text-anchor="middle" x="218.5" y="-182.35" font-family="Times,serif" font-size="5.00">is_a</text>
</g>
<!-- 70390314 -->
<g id="node2" class="node">
<title>70390314</title>
<ellipse fill="lightblue" stroke="none" cx="165" cy="-62.72" rx="31.48" ry="31.48"/>
<text xml:space="preserve" text-anchor="middle" x="165" y="-60.62" font-family="Times,serif" font-size="7.00">InventoryItem</text>
</g>
<!-- 70390314&#45;&gt;4a59612b -->
<g id="edge3" class="edge">
<title>70390314-&gt;4a59612b</title>
<path fill="none" stroke="black" stroke-width="0.5" d="M189.69,-82.74C205.66,-96.24 226.51,-113.86 241.69,-126.69"/>
<polygon fill="black" stroke="black" stroke-width="0.5" points="240.49,-127.51 244.45,-129.02 242.3,-125.37 240.49,-127.51"/>
<text xml:space="preserve" text-anchor="middle" x="218.5" y="-111.97" font-family="Times,serif" font-size="5.00">is_a</text>
</g>
<!-- fac91bb3 -->
<g id="node3" class="node">
<title>fac91bb3</title>
<ellipse fill="lightblue" stroke="none" cx="165" cy="-143.72" rx="31.27" ry="31.27"/>
<text xml:space="preserve" text-anchor="middle" x="165" y="-141.62" font-family="Times,serif" font-size="7.00">FinishedGood</text>
</g>
<!-- fac91bb3&#45;&gt;4a59612b -->
<g id="edge2" class="edge">
<title>fac91bb3-&gt;4a59612b</title>
<path fill="none" stroke="black" stroke-width="0.5" d="M196.59,-143.72C209.16,-143.72 223.57,-143.72 235.65,-143.72"/>
<polygon fill="black" stroke="black" stroke-width="0.5" points="235.57,-145.12 239.57,-143.72 235.57,-142.32 235.57,-145.12"/>
<text xml:space="preserve" text-anchor="middle" x="218.5" y="-145.22" font-family="Times,serif" font-size="5.00">is_a</text>
</g>
<!-- b3900758 -->
<g id="node5" class="node">
<title>b3900758</title>
<ellipse fill="none" stroke="Teal" cx="38.9" cy="-36.72" rx="36.72" ry="36.72"/>
<text xml:space="preserve" text-anchor="middle" x="38.9" y="-34.62" font-family="Times,serif" font-size="7.00">inventory_central</text>
</g>
<!-- b3900758&#45;&gt;70390314 -->
<g id="edge9" class="edge">
<title>b3900758-&gt;70390314</title>
<path fill="none" stroke="black" stroke-width="0.5" d="M75.47,-41.43C88.17,-43.36 102.55,-45.82 115.52,-48.72 120.24,-49.77 125.17,-51.01 130.01,-52.32"/>
<polygon fill="black" stroke="black" stroke-width="0.5" points="129.45,-53.62 133.68,-53.34 130.2,-50.92 129.45,-53.62"/>
<text xml:space="preserve" text-anchor="middle" x="105.66" y="-50.22" font-family="Times,serif" font-size="5.00">produces</text>
</g>
<!-- b3900758&#45;&gt;fac91bb3 -->
<g id="edge8" class="edge">
<title>b3900758-&gt;fac91bb3</title>
<path fill="none" stroke="black" stroke-width="0.5" d="M72.64,-52.16C86.67,-59.66 102.74,-69.49 115.52,-80.72 118.92,-83.7 131.55,-100.15 143.07,-115.49"/>
<polygon fill="black" stroke="black" stroke-width="0.5" points="141.68,-115.98 145.2,-118.34 143.92,-114.3 141.68,-115.98"/>
<text xml:space="preserve" text-anchor="middle" x="105.66" y="-82.22" font-family="Times,serif" font-size="5.00">consumes</text>
</g>
<!-- b8801b37 -->
<g id="node6" class="node">
<title>b8801b37</title>
<ellipse fill="none" stroke="Teal" cx="38.9" cy="-211.72" rx="24.05" ry="24.05"/>
<text xml:space="preserve" text-anchor="middle" x="38.9" y="-209.62" font-family="Times,serif" font-size="7.00">factory_b</text>
</g>
<!-- b8801b37&#45;&gt;3bd2b8fc -->
<g id="edge6" class="edge">
<title>b8801b37-&gt;3bd2b8fc</title>
<path fill="none" stroke="black" stroke-width="0.5" d="M63.08,-213.41C78.05,-214.54 97.95,-216.11 115.52,-217.72 120.43,-218.16 125.6,-218.67 130.68,-219.17"/>
<polygon fill="black" stroke="black" stroke-width="0.5" points="130.43,-220.56 134.55,-219.57 130.71,-217.77 130.43,-220.56"/>
<text xml:space="preserve" text-anchor="middle" x="105.66" y="-219.22" font-family="Times,serif" font-size="5.00">consumes</text>
</g>
<!-- b8801b37&#45;&gt;fac91bb3 -->
<g id="edge7" class="edge">
<title>b8801b37-&gt;fac91bb3</title>
<path fill="none" stroke="black" stroke-width="0.5" d="M60.39,-200.49C80.1,-189.69 110.14,-173.23 132.81,-160.8"/>
<polygon fill="black" stroke="black" stroke-width="0.5" points="133.46,-162.05 136.29,-158.9 132.11,-159.59 133.46,-162.05"/>
<text xml:space="preserve" text-anchor="middle" x="105.66" y="-181.25" font-family="Times,serif" font-size="5.00">produces</text>
</g>
<!-- 331e661f -->
<g id="node7" class="node">
<title>331e661f</title>
<ellipse fill="none" stroke="Teal" cx="38.9" cy="-130.72" rx="38.9" ry="38.9"/>
<text xml:space="preserve" text-anchor="middle" x="38.9" y="-128.62" font-family="Times,serif" font-size="7.00">inventory_regional</text>
</g>
<!-- 331e661f&#45;&gt;70390314 -->
<g id="edge11" class="edge">
<title>331e661f-&gt;70390314</title>
<path fill="none" stroke="black" stroke-width="0.5" d="M73.49,-112.31C92.04,-102.15 114.92,-89.61 133.04,-79.68"/>
<polygon fill="black" stroke="black" stroke-width="0.5" points="133.57,-80.99 136.4,-77.84 132.22,-78.53 133.57,-80.99"/>
<text xml:space="preserve" text-anchor="middle" x="105.66" y="-100.25" font-family="Times,serif" font-size="5.00">produces</text>
</g>
<!-- 331e661f&#45;&gt;fac91bb3 -->
<g id="edge10" class="edge">
<title>331e661f-&gt;fac91bb3</title>
<path fill="none" stroke="black" stroke-width="0.5" d="M77.81,-134.69C94.23,-136.41 113.32,-138.41 129.35,-140.09"/>
<polygon fill="black" stroke="black" stroke-width="0.5" points="128.91,-141.45 133.04,-140.47 129.21,-138.66 128.91,-141.45"/>
<text xml:space="preserve" text-anchor="middle" x="105.66" y="-139.88" font-family="Times,serif" font-size="5.00">consumes</text>
</g>
<!-- 342f3d11 -->
<g id="node8" class="node">
<title>342f3d11</title>
<ellipse fill="none" stroke="Teal" cx="38.9" cy="-277.72" rx="23.83" ry="23.83"/>
<text xml:space="preserve" text-anchor="middle" x="38.9" y="-275.62" font-family="Times,serif" font-size="7.00">factory_a</text>
</g>
<!-- 342f3d11&#45;&gt;3bd2b8fc -->
<g id="edge4" class="edge">
<title>342f3d11-&gt;3bd2b8fc</title>
<path fill="none" stroke="black" stroke-width="0.5" d="M62.37,-272.69C77.75,-268.82 98.39,-262.77 115.52,-254.72 122.76,-251.31 130.17,-246.95 136.94,-242.54"/>
<polygon fill="black" stroke="black" stroke-width="0.5" points="137.44,-243.89 140.01,-240.51 135.9,-241.56 137.44,-243.89"/>
<text xml:space="preserve" text-anchor="middle" x="105.66" y="-263.61" font-family="Times,serif" font-size="5.00">consumes</text>
</g>
<!-- 342f3d11&#45;&gt;fac91bb3 -->
<g id="edge5" class="edge">
<title>342f3d11-&gt;fac91bb3</title>
<path fill="none" stroke="black" stroke-width="0.5" d="M60.5,-267.04C77.17,-257.55 100.28,-242.3 115.52,-223.72 127.88,-208.64 123.55,-200.47 133.52,-183.72 136.04,-179.5 138.92,-175.2 141.88,-171.06"/>
<polygon fill="black" stroke="black" stroke-width="0.5" points="142.71,-172.3 143.94,-168.24 140.45,-170.65 142.71,-172.3"/>
<text xml:space="preserve" text-anchor="middle" x="105.66" y="-243.1" font-family="Times,serif" font-size="5.00">produces</text>
</g>
</g>
</svg>