<svg xmlns="http://www.w3.org/2000/svg" xmlns:xlink="http://www.w3.org/1999/xlink" width="300pt" height="230pt" viewBox="0.00 0.00 488.00 413.00">
<g id="graph0" class="graph" transform="scale(1 1) rotate(0) translate(4 409.42)">
<title>algagents</title>
<polygon fill="white" stroke="none" points="-4,4 -4,-409.42 484,-409.42 484,4 -4,4"/>
<g id="clust1" class="cluster">
<title>cluster_1</title>
<polygon fill="none" stroke="black" points="8,-163.72 8,-397.42 100,-397.42 100,-163.72 8,-163.72"/>
<text xml:space="preserve" text-anchor="middle" x="54" y="-380.82" font-family="Times,serif" font-size="14.00">Factory A</text>
</g>
<g id="clust2" class="cluster">
<title>cluster_2</title>
<polygon fill="none" stroke="black" points="241,-163.5 241,-281.23 419,-281.23 419,-163.5 241,-163.5"/>
<text xml:space="preserve" text-anchor="middle" x="330" y="-264.63" font-family="Times,serif" font-size="14.00">Factory B</text>
</g>
<g id="clust3" class="cluster">
<title>cluster_3</title>
<polygon fill="none" stroke="black" points="108,-10.19 108,-289.31 226,-289.31 226,-10.19 108,-10.19"/>
<text xml:space="preserve" text-anchor="middle" x="167" y="-272.71" font-family="Times,serif" font-size="14.00">Central Inventory</text>
</g>
<g id="clust4" class="cluster">
<title>cluster_4</title>
<polygon fill="none" stroke="black" points="234,-8 234,-155.42 472,-155.42 472,-8 234,-8"/>
<text xml:space="preserve" text-anchor="middle" x="353" y="-138.82" font-family="Times,serif" font-size="14.00">Regional Inventory</text>
</g>
<!-- 1 -->
<g id="node1" class="node">
<title>1</title>
<ellipse fill="none" stroke="Teal" cx="58" cy="-330.96" rx="33.66" ry="33.66"/>
<text xml:space="preserve" text-anchor="middle" x="58" y="-328.86" font-family="Times,serif" font-size="7.00">factory_a_main</text>
</g>
<!-- 2 -->
<g id="node2" class="node">
<title>2</title>
<ellipse fill="none" stroke="Teal" cx="54" cy="-209.96" rx="38.25" ry="38.25"/>
<text xml:space="preserve" text-anchor="middle" x="54" y="-207.86" font-family="Times,serif" font-size="7.00">factory_a_monitor</text>
</g>
<!-- 1&#45;&gt;2 -->
<g id="edge1" class="edge">
<title>1-&gt;2</title>
<path fill="none" stroke="black" d="M56.9,-297.13C56.44,-283.41 55.89,-267.31 55.41,-252.77"/>
<polygon fill="black" stroke="black" points="56.46,-252.78 55.31,-249.82 54.36,-252.85 56.46,-252.78"/>
<text xml:space="preserve" text-anchor="middle" x="33.1" y="-250.41" font-family="Times,serif" font-size="7.00">production_rate</text>
<text xml:space="preserve" text-anchor="middle" x="37.27" y="-290.83" font-family="Times,serif" font-size="7.00">observed_rate</text>
</g>
<!-- 3 -->
<g id="node3" class="node">
<title>3</title>
<ellipse fill="none" stroke="Teal" cx="283" cy="-209.96" rx="33.88" ry="33.88"/>
<text xml:space="preserve" text-anchor="middle" x="283" y="-207.86" font-family="Times,serif" font-size="7.00">factory_b_main</text>
</g>
<!-- 1&#45;&gt;3 -->
<g id="edge2" class="edge">
<title>1-&gt;3</title>
<path fill="none" stroke="black" d="M91.95,-329.1C128.92,-326.64 188.33,-318.06 230,-289.31 245.95,-278.3 258.45,-260.8 267.3,-245.12"/>
<polygon fill="black" stroke="black" points="268.22,-245.64 268.74,-242.51 266.38,-244.63 268.22,-245.64"/>
<text xml:space="preserve" text-anchor="middle" x="247.32" y="-243.28" font-family="Times,serif" font-size="7.00">production_rate</text>
<text xml:space="preserve" text-anchor="middle" x="113.14" y="-331.2" font-family="Times,serif" font-size="7.00">demand_signal</text>
</g>
<!-- 5 -->
<g id="node5" class="node">
<title>5</title>
<ellipse fill="none" stroke="Teal" cx="165" cy="-209.96" rx="46.54" ry="46.54"/>
<text xml:space="preserve" text-anchor="middle" x="165" y="-207.86" font-family="Times,serif" font-size="7.00">inventory_central_main</text>
</g>
<!-- 1&#45;&gt;5 -->
<g id="edge3" class="edge">
<title>1-&gt;5</title>
<path fill="none" stroke="black" d="M83.61,-308.83C90.47,-302.77 97.72,-295.99 104,-289.31 114.9,-277.71 125.87,-264.29 135.44,-251.87"/>
<polygon fill="black" stroke="black" points="136.19,-252.61 137.18,-249.59 134.53,-251.34 136.19,-252.61"/>
<text xml:space="preserve" text-anchor="middle" x="116.91" y="-242.09" font-family="Times,serif" font-size="7.00">output_volume</text>
<text xml:space="preserve" text-anchor="middle" x="105.97" y="-310.93" font-family="Times,serif" font-size="7.00">incoming_stock</text>
</g>
<!-- 7 -->
<g id="node7" class="node">
<title>7</title>
<ellipse fill="none" stroke="Teal" cx="291" cy="-69.31" rx="48.73" ry="48.73"/>
<text xml:space="preserve" text-anchor="middle" x="291" y="-67.21" font-family="Times,serif" font-size="7.00">inventory_regional_main</text>
</g>
<!-- 3&#45;&gt;7 -->
<g id="edge4" class="edge">
<title>3-&gt;7</title>
<path fill="none" stroke="black" d="M284.92,-175.75C285.83,-159.87 286.95,-140.49 287.98,-122.69"/>
<polygon fill="black" stroke="black" points="289.03,-122.77 288.15,-119.71 286.93,-122.65 289.03,-122.77"/>
<text xml:space="preserve" text-anchor="middle" x="267.04" y="-120.3" font-family="Times,serif" font-size="7.00">output_volume</text>
<text xml:space="preserve" text-anchor="middle" x="262.56" y="-169.45" font-family="Times,serif" font-size="7.00">incoming_stock</text>
</g>
<!-- 4 -->
<g id="node4" class="node">
<title>4</title>
<ellipse fill="none" stroke="Teal" cx="373" cy="-209.96" rx="38.47" ry="38.47"/>
<text xml:space="preserve" text-anchor="middle" x="373" y="-207.86" font-family="Times,serif" font-size="7.00">factory_b_monitor</text>
</g>
<!-- 6 -->
<g id="node6" class="node">
<title>6</title>
<ellipse fill="none" stroke="Teal" cx="167" cy="-69.31" rx="51.12" ry="51.12"/>
<text xml:space="preserve" text-anchor="middle" x="167" y="-67.21" font-family="Times,serif" font-size="7.00">inventory_central_forecast</text>
</g>
<!-- 5&#45;&gt;6 -->
<g id="edge5" class="edge">
<title>5-&gt;6</title>
<path fill="none" stroke="black" d="M165.66,-163.18C165.84,-150.99 166.03,-137.7 166.21,-125.08"/>
<polygon fill="black" stroke="black" points="167.26,-125.36 166.25,-122.34 165.16,-125.33 167.26,-125.36"/>
<text xml:space="preserve" text-anchor="middle" x="150.33" y="-122.93" font-family="Times,serif" font-size="7.00">stock_level</text>
<text xml:space="preserve" text-anchor="middle" x="140.59" y="-156.88" font-family="Times,serif" font-size="7.00">current_inventory</text>
</g>
<!-- 8 -->
<g id="node8" class="node">
<title>8</title>
<ellipse fill="none" stroke="Teal" cx="411" cy="-69.31" rx="53.31" ry="53.31"/>
<text xml:space="preserve" text-anchor="middle" x="411" y="-67.21" font-family="Times,serif" font-size="7.00">inventory_regional_forecast</text>
</g>
</g>
</svg>