<?xml version="1.0" encoding="UTF-8" standalone="no"?>
<svg
   width="524.59351pt"
   height="288pt"
   viewBox="0 0 524.59351 288"
   version="1.1"
   id="svg519"
   sodipodi:docname="hypnogram.svg"
   inkscape:version="1.2.2 (b0a8486541, 2022-12-01)"
   xmlns:inkscape="http://www.inkscape.org/namespaces/inkscape"
   xmlns:sodipodi="http://sodipodi.sourceforge.net/DTD/sodipodi-0.dtd"
   xmlns:xlink="http://www.w3.org/1999/xlink"
   xmlns="http://www.w3.org/2000/svg"
   xmlns:svg="http://www.w3.org/2000/svg"
   xmlns:rdf="http://www.w3.org/1999/02/22-rdf-syntax-ns#"
   xmlns:cc="http://creativecommons.org/ns#"
   xmlns:dc="http://purl.org/dc/elements/1.1/">
  <sodipodi:namedview
     id="namedview521"
     pagecolor="#ffffff"
     bordercolor="#666666"
     borderopacity="1.0"
     inkscape:showpageshadow="2"
     inkscape:pageopacity="0.0"
     inkscape:pagecheckerboard="0"
     inkscape:deskcolor="#d1d1d1"
     inkscape:document-units="pt"
     showgrid="false"
     inkscape:zoom="1.3721239"
     inkscape:cx="233.57949"
     inkscape:cy="196.04644"
     inkscape:window-width="2560"
     inkscape:window-height="1355"
     inkscape:window-x="0"
     inkscape:window-y="0"
     inkscape:window-maximized="1"
     inkscape:current-layer="figure_1" />
  <metadata
     id="metadata2">
    <rdf:RDF>
      <cc:Work>
        <dc:type
           rdf:resource="http://purl.org/dc/dcmitype/StillImage" />
        <dc:date>2023-05-22T11:23:25.518097</dc:date>
        <dc:format>image/svg+xml</dc:format>
        <dc:creator>
          <cc:Agent>
            <dc:title>Matplotlib v3.7.1, https://matplotlib.org/</dc:title>
          </cc:Agent>
        </dc:creator>
      </cc:Work>
    </rdf:RDF>
  </metadata>
  <defs
     id="defs6">
    <style
       type="text/css"
       id="style4">*{stroke-linejoin: round; stroke-linecap: butt}</style>
  </defs>
  <g
     id="figure_1">
    <g
       id="g3863"
       transform="translate(-24.660934,-16.354774)">
      <g
         id="axes_1">
        <g
           id="patch_2">
          <path
             d="M 63,99.783529 H 453.6 V 34.56 H 63 Z"
             style="fill:#ffffff"
             id="path11" />
        </g>
        <g
           id="matplotlib.axis_1">
          <g
             id="xtick_1">
            <g
               id="line2d_1">
              <defs
                 id="defs15">
                <path
                   id="m50acc93d1c"
                   d="M 0,0 V 3.5"
                   style="stroke:#000000;stroke-width:0.8" />
              </defs>
              <g
                 id="g19">
                <use
                   xlink:href="#m50acc93d1c"
                   x="115.15244"
                   y="99.783531"
                   style="stroke:#000000;stroke-width:0.8"
                   id="use17" />
              </g>
            </g>
          </g>
          <g
             id="xtick_2">
            <g
               id="line2d_2">
              <g
                 id="g25">
                <use
                   xlink:href="#m50acc93d1c"
                   x="180.34297"
                   y="99.783531"
                   style="stroke:#000000;stroke-width:0.8"
                   id="use23" />
              </g>
            </g>
          </g>
          <g
             id="xtick_3">
            <g
               id="line2d_3">
              <g
                 id="g31">
                <use
                   xlink:href="#m50acc93d1c"
                   x="245.53352"
                   y="99.783531"
                   style="stroke:#000000;stroke-width:0.8"
                   id="use29" />
              </g>
            </g>
          </g>
          <g
             id="xtick_4">
            <g
               id="line2d_4">
              <g
                 id="g37">
                <use
                   xlink:href="#m50acc93d1c"
                   x="310.72406"
                   y="99.783531"
                   style="stroke:#000000;stroke-width:0.8"
                   id="use35" />
              </g>
            </g>
          </g>
          <g
             id="xtick_5">
            <g
               id="line2d_5">
              <g
                 id="g43">
                <use
                   xlink:href="#m50acc93d1c"
                   x="375.91461"
                   y="99.783531"
                   style="stroke:#000000;stroke-width:0.8"
                   id="use41" />
              </g>
            </g>
          </g>
          <g
             id="xtick_6">
            <g
               id="line2d_6">
              <g
                 id="g49">
                <use
                   xlink:href="#m50acc93d1c"
                   x="441.10513"
                   y="99.783531"
                   style="stroke:#000000;stroke-width:0.8"
                   id="use47" />
              </g>
            </g>
          </g>
        </g>
        <g
           id="matplotlib.axis_2">
          <g
             id="ytick_1">
            <g
               id="line2d_7">
              <defs
                 id="defs55">
                <path
                   id="m8fa6d85d9d"
                   d="M 0,0 H 3.5"
                   style="stroke:#000000;stroke-width:0.8" />
              </defs>
              <g
                 id="g59">
                <use
                   xlink:href="#m8fa6d85d9d"
                   x="453.60001"
                   y="96.818825"
                   style="stroke:#000000;stroke-width:0.8"
                   id="use57" />
              </g>
            </g>
            <g
               id="text_1">
              <!-- SLEEP -->
              <g
                 transform="matrix(0.1,0,0,-0.1,460.6,100.61804)"
                 id="g78">
                <defs
                   id="defs66">
                  <path
                     id="DejaVuSans-53"
                     d="m 3425,4513 v -616 q -359,172 -678,256 -319,85 -616,85 -515,0 -795,-200 -280,-200 -280,-569 0,-310 186,-468 186,-157 705,-254 l 381,-78 q 706,-135 1042,-474 336,-339 336,-907 0,-679 -455,-1029 -454,-350 -1332,-350 -331,0 -705,75 -373,75 -773,222 v 650 q 384,-215 753,-325 369,-109 725,-109 540,0 834,212 294,213 294,607 0,343 -211,537 -211,194 -692,291 l -385,75 q -706,140 -1022,440 -315,300 -315,835 0,619 436,975 436,356 1201,356 329,0 669,-60 341,-59 697,-177 z"
                     transform="scale(0.015625)" />
                  <path
                     id="DejaVuSans-4c"
                     d="m 628,4666 h 631 V 531 H 3531 V 0 H 628 Z"
                     transform="scale(0.015625)" />
                  <path
                     id="DejaVuSans-45"
                     d="M 628,4666 H 3578 V 4134 H 1259 V 2753 H 3481 V 2222 H 1259 V 531 H 3634 V 0 H 628 Z"
                     transform="scale(0.015625)" />
                  <path
                     id="DejaVuSans-50"
                     d="M 1259,4147 V 2394 h 794 q 441,0 681,228 241,228 241,650 0,419 -241,647 -240,228 -681,228 z m -631,519 h 1425 q 785,0 1186,-355 402,-355 402,-1039 0,-691 -402,-1044 -401,-353 -1186,-353 H 1259 V 0 H 628 Z"
                     transform="scale(0.015625)" />
                </defs>
                <use
                   xlink:href="#DejaVuSans-53"
                   id="use68" />
                <use
                   xlink:href="#DejaVuSans-4c"
                   x="63.476562"
                   id="use70" />
                <use
                   xlink:href="#DejaVuSans-45"
                   x="119.18945"
                   id="use72" />
                <use
                   xlink:href="#DejaVuSans-45"
                   x="182.37305"
                   id="use74" />
                <use
                   xlink:href="#DejaVuSans-50"
                   x="245.55664"
                   id="use76" />
              </g>
            </g>
          </g>
          <g
             id="ytick_2">
            <g
               id="line2d_8">
              <g
                 id="g84">
                <use
                   xlink:href="#m8fa6d85d9d"
                   x="453.60001"
                   y="37.524708"
                   style="stroke:#000000;stroke-width:0.8"
                   id="use82" />
              </g>
            </g>
            <g
               id="text_2">
              <!-- WAKE -->
              <g
                 transform="matrix(0.1,0,0,-0.1,460.6,41.323925)"
                 id="g100">
                <defs
                   id="defs90">
                  <path
                     id="DejaVuSans-57"
                     d="m 213,4666 h 637 l 981,-3944 978,3944 h 710 l 981,-3944 978,3944 h 641 L 4947,0 H 4153 L 3169,4050 2175,0 h -794 z"
                     transform="scale(0.015625)" />
                  <path
                     id="DejaVuSans-41"
                     d="M 2188,4044 1331,1722 h 1716 z m -357,622 h 716 L 4325,0 H 3669 L 3244,1197 H 1141 L 716,0 H 50 Z"
                     transform="scale(0.015625)" />
                  <path
                     id="DejaVuSans-4b"
                     d="m 628,4666 h 631 V 2694 l 2094,1972 h 813 L 1850,2491 4331,0 H 3500 L 1259,2247 V 0 H 628 Z"
                     transform="scale(0.015625)" />
                </defs>
                <use
                   xlink:href="#DejaVuSans-57"
                   id="use92" />
                <use
                   xlink:href="#DejaVuSans-41"
                   x="93.376953"
                   id="use94" />
                <use
                   xlink:href="#DejaVuSans-4b"
                   x="161.78516"
                   id="use96" />
                <use
                   xlink:href="#DejaVuSans-45"
                   x="227.36133"
                   id="use98" />
              </g>
            </g>
          </g>
          <g
             id="text_3">
            <!-- predicted -->
            <g
               transform="matrix(0,-0.1,-0.1,0,56.920312,90.888952)"
               id="g131">
              <defs
                 id="defs111">
                <path
                   id="DejaVuSans-70"
                   d="M 1159,525 V -1331 H 581 v 4831 h 578 v -531 q 182,312 458,463 277,152 661,152 638,0 1036,-506 399,-506 399,-1331 0,-825 -399,-1332 -398,-506 -1036,-506 -384,0 -661,152 -276,152 -458,464 z m 1957,1222 q 0,634 -261,995 -261,361 -717,361 -457,0 -718,-361 -261,-361 -261,-995 0,-634 261,-995 261,-361 718,-361 456,0 717,361 261,361 261,995 z"
                   transform="scale(0.015625)" />
                <path
                   id="DejaVuSans-72"
                   d="m 2631,2963 q -97,56 -211,82 -114,27 -251,27 -488,0 -749,-317 -261,-317 -261,-911 V 0 H 581 v 3500 h 578 v -544 q 182,319 472,473 291,155 707,155 59,0 131,-8 72,-7 159,-23 z"
                   transform="scale(0.015625)" />
                <path
                   id="DejaVuSans-65"
                   d="M 3597,1894 V 1613 H 953 q 38,-594 358,-905 320,-311 892,-311 331,0 642,81 311,81 618,244 V 178 Q 3153,47 2828,-22 2503,-91 2169,-91 1331,-91 842,396 353,884 353,1716 q 0,859 464,1363 464,505 1252,505 706,0 1117,-455 411,-454 411,-1235 z m -575,169 q -6,471 -264,752 -258,282 -683,282 -481,0 -770,-272 -289,-272 -333,-766 z"
                   transform="scale(0.015625)" />
                <path
                   id="DejaVuSans-64"
                   d="m 2906,2969 v 1894 h 575 V 0 H 2906 V 525 Q 2725,213 2448,61 2172,-91 1784,-91 1150,-91 751,415 353,922 353,1747 q 0,825 398,1331 399,506 1033,506 388,0 664,-152 277,-151 458,-463 z M 947,1747 q 0,-634 261,-995 261,-361 717,-361 456,0 718,361 263,361 263,995 0,634 -263,995 -262,361 -718,361 -456,0 -717,-361 -261,-361 -261,-995 z"
                   transform="scale(0.015625)" />
                <path
                   id="DejaVuSans-69"
                   d="m 603,3500 h 575 V 0 H 603 Z m 0,1363 h 575 V 4134 H 603 Z"
                   transform="scale(0.015625)" />
                <path
                   id="DejaVuSans-63"
                   d="m 3122,3366 v -538 q -244,135 -489,202 -245,67 -495,67 -560,0 -870,-355 -309,-354 -309,-995 0,-641 309,-996 310,-354 870,-354 250,0 495,67 245,67 489,202 V 134 Q 2881,22 2623,-34 2366,-91 2075,-91 1284,-91 818,406 353,903 353,1747 q 0,856 470,1346 471,491 1290,491 265,0 518,-55 253,-54 491,-163 z"
                   transform="scale(0.015625)" />
                <path
                   id="DejaVuSans-74"
                   d="M 1172,4494 V 3500 H 2356 V 3053 H 1172 V 1153 q 0,-428 117,-550 117,-122 477,-122 h 590 V 0 H 1766 Q 1100,0 847,248 594,497 594,1153 V 3053 H 172 v 447 h 422 v 994 z"
                   transform="scale(0.015625)" />
              </defs>
              <use
                 xlink:href="#DejaVuSans-70"
                 id="use113" />
              <use
                 xlink:href="#DejaVuSans-72"
                 x="63.476562"
                 id="use115" />
              <use
                 xlink:href="#DejaVuSans-65"
                 x="102.33984"
                 id="use117" />
              <use
                 xlink:href="#DejaVuSans-64"
                 x="163.86328"
                 id="use119" />
              <use
                 xlink:href="#DejaVuSans-69"
                 x="227.33984"
                 id="use121" />
              <use
                 xlink:href="#DejaVuSans-63"
                 x="255.12305"
                 id="use123" />
              <use
                 xlink:href="#DejaVuSans-74"
                 x="310.10352"
                 id="use125" />
              <use
                 xlink:href="#DejaVuSans-65"
                 x="349.3125"
                 id="use127" />
              <use
                 xlink:href="#DejaVuSans-64"
                 x="410.83594"
                 id="use129" />
            </g>
          </g>
        </g>
        <g
           id="line2d_9">
          <path
             d="m 63,37.524706 h 17.384145 l 0.543254,59.294118 h 63.560781 l 0.54325,-59.294118 h 36.94131 l 0.54325,59.294118 h 71.7096 l 0.54326,-59.294118 h 8.69207 l 0.54325,59.294118 h 46.17664 l 0.54325,-59.294118 h 30.96551 l 0.54325,59.294118 h 106.47789 l 0.54325,-59.294118 H 453.6 v 0"
             clip-path="url(#pd119947ccb)"
             style="fill:none;stroke:#1f77b4;stroke-width:1.5;stroke-linecap:square"
             id="path135" />
        </g>
        <g
           id="patch_3">
          <path
             d="M 63,99.783529 V 34.56"
             style="fill:none;stroke:#000000;stroke-width:0.8;stroke-linecap:square;stroke-linejoin:miter"
             id="path138" />
        </g>
        <g
           id="patch_4">
          <path
             d="M 453.6,99.783529 V 34.56"
             style="fill:none;stroke:#000000;stroke-width:0.8;stroke-linecap:square;stroke-linejoin:miter"
             id="path141" />
        </g>
        <g
           id="patch_5">
          <path
             d="M 63,99.783529 H 453.6"
             style="fill:none;stroke:#000000;stroke-width:0.8;stroke-linecap:square;stroke-linejoin:miter"
             id="path144" />
        </g>
        <g
           id="patch_6">
          <path
             d="M 63,34.56 H 453.6"
             style="fill:none;stroke:#000000;stroke-width:0.8;stroke-linecap:square;stroke-linejoin:miter"
             id="path147" />
        </g>
      </g>
      <g
         id="axes_2">
        <g
           id="patch_7">
          <path
             d="M 63,178.05176 H 453.6 V 112.82824 H 63 Z"
             style="fill:#ffffff"
             id="path151" />
        </g>
        <g
           id="PolyCollection_1">
          <path
             d="m 63,156.54543 v 21.50633 h 0.543255 0.543254 0.543255 0.543254 0.543255 0.543254 0.543255 0.543254 0.543255 0.543254 0.543255 0.543254 0.543255 0.543254 0.543255 0.543254 0.543255 0.543254 0.543255 0.543254 0.543255 0.543254 0.543255 0.543254 0.543255 0.543255 0.543254 0.543255 0.543254 0.543255 0.543254 0.543255 0.543254 0.543255 0.543254 0.543255 0.543254 0.543255 0.543254 0.543255 0.543254 0.543255 0.543254 0.543255 0.543254 0.543255 0.543254 0.543255 0.543254 0.543255 0.543255 0.543254 0.543255 0.543254 0.543255 0.543254 0.543255 0.543254 0.543255 0.543254 0.543255 0.543254 0.543255 0.543254 0.543255 0.543254 0.543255 0.543254 0.543253 0.54326 0.54325 0.54325 0.54326 0.54325 0.54326 0.54325 0.54326 0.54325 0.54326 0.54325 0.54326 0.54325 0.54326 0.54325 0.54325 0.54326 0.54325 0.54326 0.54325 0.54326 0.54325 0.54326 0.54325 0.54325 0.54326 0.54325 0.54326 0.54325 0.54326 0.54325 0.54326 0.54325 0.54326 0.54325 0.54326 0.54325 0.54325 0.54326 0.54325 0.54326 0.54325 0.54326 0.54325 0.54326 0.54325 0.54325 0.54326 0.54325 0.54326 0.54325 0.54326 0.54325 0.54326 0.54325 0.54325 0.54326 0.54325 0.54326 0.54325 0.54326 0.54325 0.54326 0.54325 0.54326 0.54325 0.54325 0.54326 0.54325 0.54326 0.54325 0.54326 0.54325 0.54326 0.54325 0.54325 0.54326 0.54325 0.54326 0.54325 0.54326 0.54325 0.54326 0.54325 0.54326 0.54325 0.54325 0.54326 0.54325 0.54326 0.54325 0.54326 0.54325 0.54326 0.54325 0.54326 0.54325 0.54325 0.54326 0.54325 0.54326 0.54325 0.54326 0.54325 0.54326 0.54325 0.54326 0.54325 0.54325 0.54326 0.54325 0.54326 0.54325 0.54326 0.54325 0.54326 0.54325 0.54325 0.54326 0.54325 0.54326 0.54325 0.54326 0.54325 0.54326 0.54325 0.54326 0.54325 0.54325 0.54326 0.54325 0.54326 0.54325 0.54326 0.54325 0.54326 0.54325 0.54326 0.54325 0.54325 0.54326 0.54325 0.54326 0.54325 0.54326 0.54325 0.54326 0.54325 0.54325 0.54326 0.54325 0.54326 0.54325 0.54326 0.54325 0.54326 0.54325 0.54326 0.54325 0.54325 0.54326 0.54325 0.54326 0.54325 0.54326 0.54325 0.54326 0.54325 0.54326 0.54325 0.54326 0.54325 0.54325 0.54326 0.54325 0.54326 0.54325 0.54326 0.54325 0.54326 0.54325 0.54325 0.54326 0.54325 0.54326 0.54325 0.54326 0.54325 0.54326 0.54325 0.54325 0.54326 0.54325 0.54326 0.54325 0.54326 0.54325 0.54326 0.54325 0.54326 0.54325 0.54325 0.54326 0.54325 0.54326 0.54325 0.54326 0.54325 0.54326 0.54325 0.54326 0.54325 0.54325 0.54326 0.54325 0.54326 0.54325 0.54326 0.54325 0.54326 0.54325 0.54325 0.54326 0.54325 0.54326 0.54325 0.54326 0.54325 0.54326 0.54325 0.54326 0.54325 0.54325 0.54326 0.54325 0.54326 0.54325 0.54326 0.54325 0.54326 0.54325 0.54326 0.54325 0.54325 0.54326 0.54325 0.54326 0.54325 0.54326 0.54325 0.54326 0.54325 0.54325 0.54326 0.54325 0.54326 0.54325 0.54326 0.54325 0.54326 0.54325 0.54326 0.54325 0.54325 0.54326 0.54325 0.54326 0.54325 0.54326 0.54325 0.54326 0.54325 0.54326 0.54325 0.54325 0.54326 0.54325 0.54326 0.54325 0.54326 0.54325 0.54326 0.54325 0.54326 0.54325 0.54325 0.54326 0.54325 0.54326 0.54325 0.54326 0.54325 0.54326 0.54325 0.54325 0.54326 0.54325 0.54326 0.54325 0.54326 0.54325 0.54326 0.54325 0.54326 0.54325 0.54325 0.54326 0.54325 0.54326 0.54325 0.54326 0.54325 0.54326 0.54325 0.54326 0.54325 0.54325 0.54326 0.54325 0.54326 0.54325 0.54326 0.54325 0.54326 0.54325 0.54325 0.54326 0.54326 0.54325 0.54325 0.54326 0.54325 0.54326 0.54325 0.54326 0.54325 0.54325 0.54326 0.54325 0.54326 0.54325 0.54326 0.54325 0.54326 0.54325 0.54326 0.54325 0.54325 0.54326 0.54325 0.54326 0.54325 0.54326 0.54325 0.54326 0.54325 0.54326 0.54325 0.54326 0.54325 0.54325 0.54326 0.54325 0.54326 0.54325 0.54326 0.54325 0.54325 0.54326 0.54325 0.54326 0.54325 0.54326 0.54325 0.54326 0.54325 0.54326 0.54325 0.54325 0.54326 0.54325 0.54326 0.54325 0.54326 0.54325 0.54326 0.54325 0.54326 0.54325 0.54325 0.54326 0.54325 0.54326 0.54325 0.54326 0.54325 0.54326 0.54325 0.54325 0.54326 0.54325 0.54326 0.54325 0.54326 0.54325 0.54326 0.54325 0.54326 0.54325 0.54325 0.54326 0.54325 0.54326 0.54325 0.54326 0.54325 0.54326 0.54325 0.54326 0.54325 0.54325 0.54326 0.54325 0.54326 0.54325 0.54326 0.54325 0.54326 0.54325 0.54326 0.54325 0.54326 0.54325 0.54325 0.54326 0.54325 0.54326 0.54325 0.54326 0.54325 0.54325 0.54326 0.54325 0.54326 0.54325 0.54326 0.54325 0.54326 0.54325 0.54326 0.54325 0.54325 0.54326 0.54325 0.54326 0.54325 0.54326 0.54325 0.54326 0.54325 0.54326 0.54325 0.54326 0.54325 0.54325 0.54326 0.54325 0.54326 0.54325 0.54326 0.54325 0.54325 0.54326 0.54325 0.54326 0.54325 0.54326 0.54325 0.54326 0.54325 0.54326 0.54325 0.54325 0.54326 0.54325 0.54326 0.54325 0.54326 0.54325 0.54326 0.54325 0.54326 0.54325 0.54326 0.54325 0.54325 0.54326 0.54325 0.54326 0.54325 0.54326 0.54325 0.54326 0.54325 0.54326 0.54325 0.54325 0.54326 0.54325 0.54326 0.54325 0.54326 0.54325 0.54325 0.54326 0.54325 0.54326 0.54325 0.54326 0.54325 0.54326 0.54325 0.54326 0.54325 0.54326 0.54325 0.54325 0.54326 0.54325 0.54326 0.54325 0.54326 0.54325 0.54326 0.54325 0.54326 0.54325 0.54325 0.54326 0.54325 0.54326 0.54325 0.54326 0.54325 0.54325 0.54326 0.54325 0.54326 0.54325 0.54326 0.54325 0.54326 0.54325 0.54326 0.54325 0.54325 0.54326 0.54325 0.54326 0.54325 0.54326 0.54325 0.54326 0.54325 0.54326 0.54325 0.54326 0.54325 0.54325 0.54326 0.54325 0.54326 0.54325 0.54326 0.54325 0.54326 0.54325 0.54326 0.54325 0.54325 0.54326 0.54325 0.54326 0.54325 0.54326 0.54325 0.54325 0.54326 0.54325 0.54326 0.54325 0.54326 0.54325 0.54326 0.54325 0.54326 0.54325 0.54326 0.54325 0.54325 0.54326 0.54325 0.54326 0.54325 0.54326 0.54325 0.54326 0.54325 0.54326 0.54325 0.54325 0.54326 0.54325 0.54326 0.54325 0.54326 0.54325 0.54325 0.54326 0.54325 0.54326 0.54325 0.54326 0.54325 0.54326 0.54325 0.54326 0.54325 0.54326 0.54325 0.54325 0.54326 0.54325 0.54326 0.54325 0.54326 0.54325 0.54326 0.54325 0.54326 0.54325 0.54325 0.54326 0.54325 0.54326 0.54325 0.54326 0.54325 0.54325 0.54326 v -16.52945 0 l -0.54326,-0.45131 -0.54325,-1.76525 -0.54325,-2.44483 -0.54326,-2.00744 -0.54325,-2.02767 -0.54326,-2.38257 -0.54325,-1.76024 -0.54326,-1.93196 -0.54325,-1.94259 -0.54325,-2.16184 -0.54326,-1.78451 -0.54325,-1.50086 -0.54326,-1.25511 -0.54325,-1.45027 -0.54326,-1.8353 -0.54325,-1.08911 -0.54326,-0.74465 -0.54325,-0.68019 -0.54326,-0.39418 -0.54325,-0.50796 -0.54325,-0.39244 -0.54326,-0.42247 -0.54325,-0.0526 -0.54326,0.29484 -0.54325,0.63343 -0.54326,0.88012 -0.54325,0.72608 -0.54326,0.71134 -0.54325,0.2758 -0.54326,0.49329 -0.54325,0.51358 -0.54326,0.56562 -0.54325,0.62425 -0.54325,0.26868 -0.54326,-0.15637 -0.54325,-0.27054 -0.54326,-0.37429 -0.54325,-0.62425 -0.54326,-0.0173 -0.54325,-1.05619 -0.54325,-0.32518 -0.54326,-0.53514 -0.54325,-0.81256 -0.54326,-0.55991 -0.54325,-1.28817 -0.54326,-0.61237 -0.54325,-0.10357 -0.54326,-0.26344 -0.54325,-0.49898 -0.54326,-0.2511 -0.54325,-0.29478 -0.54325,-0.26989 -0.54326,-0.26149 -0.54325,-0.28702 -0.54326,-0.2513 -0.54325,-0.53332 -0.54326,-0.15864 -0.54325,-0.0773 -0.54326,-0.0746 -0.54325,-0.71848 -0.54326,-0.16142 -0.54325,-0.2598 -0.54326,-0.26711 -0.54325,-0.43895 -0.54325,-0.19178 -0.54326,-0.25569 -0.54325,0.0322 -0.54326,-0.11769 -0.54325,0.0848 -0.54326,-0.0553 -0.54325,0.0702 -0.54325,0.0262 -0.54326,0.0178 -0.54325,-0.12199 -0.54326,-0.12534 -0.54325,-0.16058 -0.54326,-0.11493 -0.54325,0.0203 -0.54326,-0.5222 -0.54325,-0.1676 -0.54326,0.0547 -0.54325,-0.13848 -0.54325,0.0582 -0.54326,0.0798 -0.54325,-0.26756 -0.54326,0.16061 -0.54325,0.4166 -0.54326,0.32902 -0.54325,0.33818 -0.54326,0.34879 -0.54325,0.36301 -0.54326,0.33821 -0.54325,0.30582 -0.54326,0.19568 -0.54325,0.004 -0.54325,0.1895 -0.54326,0.0764 -0.54325,0.16547 -0.54326,0.23824 -0.54325,0.13883 -0.54326,0.28829 -0.54325,0.0223 -0.54326,0.182 -0.54325,0.12023 -0.54326,0.0769 -0.54325,0.0784 -0.54325,-0.001 -0.54326,0.12128 -0.54325,0.30351 -0.54326,0.34939 -0.54325,0.32417 -0.54326,0.65179 -0.54325,0.69601 -0.54325,0.48579 -0.54326,-0.35074 -0.54325,0.72494 -0.54326,0.56659 -0.54325,0.58851 -0.54326,0.67949 -0.54325,1.01636 -0.54326,0.85279 -0.54325,0.71943 -0.54326,0.26318 -0.54325,0.39774 -0.54325,-0.0252 -0.54326,-0.0913 -0.54325,-0.15384 -0.54326,-0.16394 -0.54325,-0.42052 -0.54326,-0.59508 -0.54325,-0.60401 -0.54326,-0.91358 -0.54325,-0.56642 -0.54326,-0.83157 -0.54325,-0.8111 -0.54326,-0.92603 -0.54325,-1.30913 -0.54325,-1.05489 -0.54326,-0.89839 -0.54325,-0.36047 -0.54326,-0.20915 -0.54325,-0.007 -0.54326,-0.81309 -0.54325,0.75147 -0.54325,0.7972 -0.54326,0.69137 -0.54325,1.2278 -0.54326,1.18921 -0.54325,1.14602 -0.54326,0.49476 -0.54325,0.58391 -0.54326,0.32577 -0.54325,0.41031 -0.54326,0.19016 -0.54325,-0.12423 -0.54325,-0.36409 -0.54326,-0.37673 -0.54325,-0.87066 -0.54326,-0.23056 -0.54325,0.008 -0.54326,-0.42628 -0.54325,-0.59475 -0.54326,-0.58777 -0.54325,-0.86842 -0.54326,-0.49129 -0.54325,-0.35637 -0.54326,0.006 -0.54325,-0.18789 -0.54325,-0.5195 -0.54326,0.35033 -0.54325,0.21674 -0.54326,0.0293 -0.54325,0.18726 -0.54326,0.28787 -0.54325,0.21456 -0.54326,0.11423 -0.54325,0.11549 -0.54326,0.11255 -0.54325,0.0256 -0.54325,-0.12044 -0.54326,0.008 -0.54325,0.0387 -0.54326,-0.0199 -0.54325,-1.2966 -0.54326,0.57174 -0.54325,0.0836 -0.54325,0.2591 -0.54326,0.31957 -0.54325,0.33443 -0.54326,0.39644 -0.54325,0.28447 -0.54326,0.31343 -0.54325,0.41009 -0.54326,0.4966 -0.54325,0.48676 -0.54326,0.34716 -0.54325,0.84088 -0.54326,0.69387 -0.54325,0.74356 -0.54325,1.20355 -0.54326,1.1972 -0.54325,1.34916 -0.54326,2.16036 -0.54325,2.07345 -0.54326,2.19562 -0.54325,2.46346 -0.54326,2.6994 -0.54325,3.00436 -0.54326,2.41639 -0.54325,2.34641 -0.54325,1.47893 -0.54326,0.95334 -0.54325,0.68145 -0.54326,0.54773 -0.54325,0.53607 -0.54326,0.42823 -0.54325,0.37922 -0.54325,0.33935 -0.54326,0.25632 -0.54325,0.17453 -0.54326,0.10365 -0.54325,-0.0634 -0.54326,-0.21004 -0.54325,-0.316 -0.54326,-0.37634 -0.54325,-0.5426 -0.54326,-1.15018 -0.54325,-13.6761 -0.54326,0.53105 -0.54325,2.99801 -0.54325,3.60618 -0.54326,4.3194 -0.54325,2.99014 -0.54326,2.21694 -0.54325,1.58715 -0.54326,1.21409 -0.54325,0.9676 -0.54326,0.72702 -0.54325,0.56792 -0.54326,0.53336 -0.54325,0.45292 -0.54325,0.53414 -0.54326,0.55736 -0.54325,0.56056 -0.54326,0.53821 -0.54325,0.66592 -0.54326,0.37217 -0.54325,0.23924 -0.54326,0.12979 -0.54325,0.0243 -0.54326,-0.0847 -0.54325,-0.17825 -0.54325,-0.28931 -0.54326,-0.43998 -0.54325,-0.6358 -0.54326,-0.85047 -0.54325,-1.05638 -0.54326,-1.25733 -0.54325,-1.73038 -0.54326,-2.31892 -0.54325,-3.22443 -0.54325,-4.34215 -0.54326,-6.9944 -0.54325,-5.27754 -0.54326,-5.69781 -0.54325,-2.47716 -0.54326,-2.57223 -0.54325,-1.71814 -0.54326,-1.51301 -0.54325,-1.38641 -0.54326,-1.01345 -0.54325,-0.87318 -0.54325,-0.65305 -0.54326,-0.61277 -0.54325,-0.58522 -0.54326,-0.76025 -0.54325,-0.16505 -0.54326,-0.30278 -0.54325,-0.40237 -0.54326,-0.27372 -0.54325,-0.10269 -0.54326,-0.21086 -0.54325,-0.18701 -0.54325,-0.1179 -0.54326,-0.0999 -0.54325,-0.0992 -0.54326,-0.46852 -0.54325,0.10174 -0.54326,-0.0511 -0.54325,-0.17221 -0.54325,-0.0423 -0.54326,-0.0722 -0.54325,-0.33372 -0.54326,0.0566 -0.54325,-0.0315 -0.54326,0.13317 -0.54325,0.007 -0.54326,0.0863 -0.54325,0.005 -0.54326,0.16629 -0.54325,-0.024 -0.54326,0.20809 -0.54325,-0.0984 -0.54325,0.12521 -0.54326,0.19395 -0.54325,0.0644 -0.54326,0.15532 -0.54325,0.20226 -0.54326,0.0673 -0.54325,0.17418 -0.54326,0.0143 -0.54325,0.20636 -0.54326,0.14949 -0.54325,0.25562 -0.54325,0.17317 -0.54326,0.3071 -0.54325,0.15857 -0.54326,-0.5847 -0.54325,0.13357 -0.54326,-0.0954 -0.54325,-0.20755 -0.54325,0.009 -0.54326,-0.27488 -0.54326,0.13464 -0.54325,0.0471 -0.54325,0.20179 -0.54326,0.0637 -0.54325,0.10634 -0.54326,0.0359 -0.54325,-0.006 -0.54326,-0.19045 -0.54325,-0.0474 -0.54326,-0.28256 -0.54325,-0.28952 -0.54325,-1.30822 -0.54326,0.62163 -0.54325,1.02332 -0.54326,1.03958 -0.54325,1.14732 -0.54326,1.64738 -0.54325,1.62667 -0.54326,1.77529 -0.54325,2.19188 -0.54326,2.21777 -0.54325,2.11876 -0.54325,2.10681 -0.54326,2.10092 -0.54325,1.94447 -0.54326,1.74981 -0.54325,1.18352 -0.54326,1.20476 -0.54325,1.05931 -0.54326,0.44676 -0.54325,1.08649 -0.54326,0.88675 -0.54325,0.73415 -0.54325,0.71355 -0.54326,0.43453 -0.54325,0.13474 -0.54326,0.0225 -0.54325,-0.52488 -0.54326,-0.75663 -0.54325,-0.97383 -0.54326,-1.23209 -0.54325,-1.38559 -0.54325,-1.13314 -0.54326,-1.11117 -0.54325,-0.69396 -0.54326,-0.31727 -0.54325,-0.51156 -0.54326,-1.35171 -0.54325,-1.52996 -0.54326,-1.46787 -0.54325,-1.29266 -0.54326,-4.5632 -0.54325,0.93809 -0.54325,-0.23817 -0.54326,0.97469 -0.54325,-4.5e-4 -0.54326,-0.26954 -0.54325,-0.56291 -0.54326,-0.99353 -0.54325,-0.85179 -0.54326,-2.15041 -0.54325,-1.76348 -0.54326,-6.51198 -0.54325,0.3098 -0.54325,0.66703 -0.54326,1.17392 -0.54325,0.97606 -0.54326,0.96438 -0.54325,1.31783 -0.54326,0.67378 -0.54325,0.99502 -0.54326,0.70332 -0.54325,0.3481 -0.54326,0.59609 -0.54325,0.26161 -0.54325,0.43234 -0.54326,-0.0808 -0.54325,-0.24893 -0.54326,-0.30433 -0.54325,-0.40548 -0.54326,-0.37968 -0.54325,-0.44944 -0.54326,-0.45526 -0.54325,-0.44097 -0.54325,-0.47977 -0.54326,-0.32781 -0.54325,-0.51282 -0.54326,-0.57465 -0.54325,-0.69055 -0.54326,-0.68998 -0.54325,-0.67119 -0.54326,-0.74661 -0.54325,-0.63522 -0.54326,-0.52633 -0.54325,-0.4299 -0.54325,-0.55212 -0.54326,-0.15826 -0.54325,-0.20258 -0.54326,-0.15826 -0.54325,-0.21499 -0.54326,-0.1956 -0.54325,-0.0747 -0.54326,-0.50258 -0.54325,0.23216 -0.54326,0.0178 -0.54325,-0.11382 -0.54325,0.28546 -0.54326,0.15286 -0.54325,0.17601 -0.54326,0.1842 -0.54325,0.18539 -0.54326,0.13912 -0.54325,0.1296 -0.54326,0.15064 -0.54325,-0.52582 -0.54325,0.51593 -0.54326,0.26305 -0.54325,0.31861 -0.54326,0.25262 -0.54325,0.31389 -0.54326,0.22394 -0.54325,0.0493 -0.54326,0.43939 -0.54325,0.23804 -0.54326,0.32719 -0.54325,0.23327 -0.54325,-0.2084 -0.54326,0.13467 -0.54325,0.23676 -0.54326,-1.00267 -0.54325,0.67438 -0.54326,-0.0252 -0.54325,0.51479 -0.54326,0.36457 -0.54325,0.22702 -0.54326,0.30528 -0.54325,0.0705 -0.54325,0.40222 -0.54326,0.22075 -0.54325,0.0962 -0.54326,0.13441 -0.54325,0.0272 -0.54326,0.21371 -0.54325,0.0596 -0.54326,0.23104 -0.54325,0.19836 -0.54325,0.21592 -0.54326,0.11249 -0.54325,-0.0547 -0.54326,0.43141 -0.54325,0.30638 -0.54326,0.29928 -0.54325,0.23347 -0.54326,0.19718 -0.54325,0.30852 -0.54325,0.29711 -0.54326,0.28443 -0.54325,0.28828 -0.54326,-0.20909 -0.54325,0.8685 -0.54326,0.38961 -0.54325,0.60139 -0.54326,0.79228 -0.54325,0.55788 -0.54326,0.81622 -0.54325,0.84901 -0.54326,0.65152 -0.54325,0.68208 -0.54325,0.44575 -0.54326,0.62443 -0.54325,0.73906 -0.54326,-3.52272 -0.54325,0.28357 -0.54326,2.5951 -0.54325,3.51692 -0.54326,3.63802 -0.54325,3.25965 -0.54326,3.64515 -0.54325,3.35464 -0.54325,2.36771 -0.54326,2.76514 -0.54325,2.30967 -0.54326,2.04892 -0.54325,1.96279 -0.54326,1.66515 -0.54325,1.4216 -0.54326,1.23771 -0.54325,1.04035 -0.54325,1.58121 -0.54326,0.97841 -0.54325,0.5472 -0.54326,0.33799 -0.54325,0.23094 -0.54326,0.15044 -0.54325,0.0591 -0.54326,0.0672 -0.54325,0.005 -0.54326,-0.0215 -0.54325,-0.056 -0.54325,-0.0911 -0.54326,-0.11639 -0.54325,-0.11934 -0.54326,-0.1188 -0.54325,-0.10473 -0.54326,-0.0757 -0.54325,-0.0545 -0.54326,0.0855 -0.54325,-0.028 -0.54326,-0.0504 -0.54325,-0.0637 -0.54325,-0.0654 -0.54326,-0.0641 -0.54325,-0.0723 -0.54326,-0.0722 -0.54325,-0.10396 -0.54326,-0.0748 -0.54325,-0.10135 -0.54326,-0.16482 -0.54325,-0.24374 -0.54325,-0.53663 -0.54326,-0.30558 -0.54325,-0.28035 -0.54326,-0.3258 -0.54325,-0.37026 -0.54326,-0.42155 -0.54325,-0.41891 -0.54326,-0.4812 -0.54325,-0.56486 -0.54326,-0.61833 -0.54325,-0.87021 -0.54325,-0.84201 -0.54326,-1.12452 -0.54325,-1.46973 -0.54326,-1.33562 -0.54325,-1.37978 -0.54326,-1.42494 -0.54325,-1.48112 -0.54326,-1.1288 -0.54325,-1.56437 -0.54326,-1.74595 -0.54325,-1.83439 -0.54325,-1.6118 -0.54326,-1.88446 -0.54325,-1.74044 -0.54326,-1.5752 -0.54325,-1.58643 -0.54326,-1.82433 -0.54325,-1.03165 -0.54326,-1.20828 -0.54325,-1.0234 -0.54326,-1.2884 -0.54325,-1.51221 -0.54325,0.68268 -0.54326,-0.46442 -0.54325,-0.62664 -0.54326,-0.6458 -0.54325,-0.90202 -0.54326,-0.57988 -0.54325,-0.56831 -0.54326,-0.31341 -0.54325,-0.78038 -0.54325,-0.94658 -0.54326,-0.6972 -0.54325,-0.9503 -0.54326,-0.83739 -0.54325,-0.72005 -0.54326,-0.53408 -0.54325,-0.11818 -0.54326,-0.048 -0.54325,-0.27959 -0.54326,-0.30171 -0.54325,-0.57017 -0.54325,-0.28619 -0.54326,-0.0753 -0.54325,-0.31236 -0.54326,-0.21719 -0.54325,-0.20898 -0.54326,-0.29577 -0.54325,-0.42963 -0.54326,-0.50419 -0.54325,-0.23205 -0.54325,-0.21285 -0.54326,-0.29673 -0.54325,-0.47116 -0.54326,-0.34459 -0.54325,-0.32398 -0.54326,-0.25035 -0.54325,-0.24938 -0.54326,-0.30908 -0.54325,-0.59806 -0.54325,-0.34674 -0.54326,-0.20158 -0.54325,0.11227 -0.54326,0.68705 -0.54325,4.89357 -0.54326,0.43873 -0.54325,-0.0829 -0.54326,-0.0338 -0.54325,0.40994 -0.54326,0.0253 -0.54325,-0.0404 -0.54326,-0.10616 -0.54325,-0.20343 -0.54325,-0.15432 -0.54326,-0.25011 -0.54325,-0.21237 -0.54326,-0.38056 -0.54325,-0.34488 -0.54326,-0.27063 -0.54325,-0.26934 -0.54326,-0.91217 -0.54325,0.37902 -0.54325,-0.0628 -0.54326,-0.10664 -0.54325,-0.30478 -0.54326,0.28965 -0.54325,-0.0577 -0.54326,0.10173 -0.54325,0.002 -0.54326,-0.0561 -0.54325,0.0263 -0.54326,0.0612 -0.54325,0.0871 -0.54326,0.2738 -0.54325,0.0196 -0.54325,0.21167 -0.54326,0.25983 -0.543253,-0.38295 -0.543254,0.83076 -0.543255,0.62077 -0.543254,0.35416 -0.543255,0.50172 -0.543254,0.5338 -0.543255,0.83727 -0.543254,0.372 -0.543255,0.47353 -0.543254,0.62232 -0.543255,0.57422 -0.543254,0.68911 -0.543255,0.64901 -0.543254,0.38654 -0.543255,0.52663 -0.543254,0.53849 -0.543255,0.53279 -0.543254,0.71676 -0.543255,0.45265 -0.543255,0.53559 -0.543254,0.29833 -0.543255,0.65789 -0.543254,0.75327 -0.543255,0.48763 -0.543254,0.40716 -0.543255,-0.18152 -0.543254,-0.43632 -0.543255,-1.02617 -0.543254,-0.87412 -0.543255,-7.70639 -0.543254,-0.28142 -0.543255,4.14566 -0.543254,3.21115 -0.543255,3.21541 -0.543254,2.69294 -0.543255,2.42799 -0.543254,2.34742 -0.543255,1.83283 -0.543254,1.56839 -0.543255,1.35524 -0.543254,1.16891 -0.543255,0.69139 -0.543254,0.56979 -0.543255,0.34599 -0.543255,0.29223 -0.543254,0.5124 -0.543255,0.49047 -0.543254,0.48646 -0.543255,-0.0832 -0.543254,-0.0138 -0.543255,0.16544 -0.543254,0.0889 -0.543255,-0.1416 -0.543254,-0.42317 -0.543255,-0.28445 -0.543254,-0.15526 -0.543255,-0.20828 -0.543254,0.0915 -0.543255,0.33251 -0.543254,-0.21352 -0.543255,0.57944 -0.543254,0.17367 -0.543255,0.25158 -0.543254,0.10197 -0.543255,0.0833 -0.543254,0.68132 -0.543255,1.24886 -0.543254,0.34723 z"
             clip-path="url(#pd4fafac9f0)"
             style="fill:#1f77b4"
             id="path154" />
        </g>
        <g
           id="PolyCollection_2">
          <path
             d="m 63,113.61624 v 42.92919 l 0.543255,1.21177 0.543254,-0.34723 0.543255,-1.24886 0.543254,-0.68132 0.543255,-0.0833 0.543254,-0.10197 0.543255,-0.25158 0.543254,-0.17367 0.543255,-0.57944 0.543254,0.21352 0.543255,-0.33251 0.543254,-0.0915 0.543255,0.20828 0.543254,0.15526 0.543255,0.28445 0.543254,0.42317 0.543255,0.1416 0.543254,-0.0889 0.543255,-0.16544 0.543254,0.0138 0.543255,0.0832 0.543254,-0.48646 0.543255,-0.49047 0.543254,-0.5124 0.543255,-0.29223 0.543255,-0.34599 0.543254,-0.56979 0.543255,-0.69139 0.543254,-1.16891 0.543255,-1.35524 0.543254,-1.56839 0.543255,-1.83283 0.543254,-2.34742 0.543255,-2.42799 0.543254,-2.69294 0.543255,-3.21541 0.543254,-3.21115 0.543255,-4.14566 0.543254,0.28142 0.543255,7.70639 0.543254,0.87412 0.543255,1.02617 0.543254,0.43632 0.543255,0.18152 0.543254,-0.40716 0.543255,-0.48763 0.543254,-0.75327 0.543255,-0.65789 0.543254,-0.29833 0.543255,-0.53559 0.543255,-0.45265 0.543254,-0.71676 0.543255,-0.53279 0.543254,-0.53849 0.543255,-0.52663 0.543254,-0.38654 0.543255,-0.64901 0.543254,-0.68911 0.543255,-0.57422 0.543254,-0.62232 0.543255,-0.47353 0.543254,-0.372 0.543255,-0.83727 0.543254,-0.5338 0.543255,-0.50172 0.543254,-0.35416 0.543255,-0.62077 0.543254,-0.83076 0.543253,0.38295 0.54326,-0.25983 0.54325,-0.21167 0.54325,-0.0196 0.54326,-0.2738 0.54325,-0.0871 0.54326,-0.0612 0.54325,-0.0263 0.54326,0.0561 0.54325,-0.002 0.54326,-0.10173 0.54325,0.0577 0.54326,-0.28965 0.54325,0.30478 0.54326,0.10664 0.54325,0.0628 0.54325,-0.37902 0.54326,0.91217 0.54325,0.26934 0.54326,0.27063 0.54325,0.34488 0.54326,0.38056 0.54325,0.21237 0.54326,0.25011 0.54325,0.15432 0.54325,0.20343 0.54326,0.10616 0.54325,0.0404 0.54326,-0.0253 0.54325,-0.40994 0.54326,0.0338 0.54325,0.0829 0.54326,-0.43873 0.54325,-4.89357 0.54326,-0.68705 0.54325,-0.11227 0.54326,0.20158 0.54325,0.34674 0.54325,0.59806 0.54326,0.30908 0.54325,0.24938 0.54326,0.25035 0.54325,0.32398 0.54326,0.34459 0.54325,0.47116 0.54326,0.29673 0.54325,0.21285 0.54325,0.23205 0.54326,0.50419 0.54325,0.42963 0.54326,0.29577 0.54325,0.20898 0.54326,0.21719 0.54325,0.31236 0.54326,0.0753 0.54325,0.28619 0.54325,0.57017 0.54326,0.30171 0.54325,0.27959 0.54326,0.048 0.54325,0.11818 0.54326,0.53408 0.54325,0.72005 0.54326,0.83739 0.54325,0.9503 0.54326,0.6972 0.54325,0.94658 0.54325,0.78038 0.54326,0.31341 0.54325,0.56831 0.54326,0.57988 0.54325,0.90202 0.54326,0.6458 0.54325,0.62664 0.54326,0.46442 0.54325,-0.68268 0.54325,1.51221 0.54326,1.2884 0.54325,1.0234 0.54326,1.20828 0.54325,1.03165 0.54326,1.82433 0.54325,1.58643 0.54326,1.5752 0.54325,1.74044 0.54326,1.88446 0.54325,1.6118 0.54325,1.83439 0.54326,1.74595 0.54325,1.56437 0.54326,1.1288 0.54325,1.48112 0.54326,1.42494 0.54325,1.37978 0.54326,1.33562 0.54325,1.46973 0.54326,1.12452 0.54325,0.84201 0.54325,0.87021 0.54326,0.61833 0.54325,0.56486 0.54326,0.4812 0.54325,0.41891 0.54326,0.42155 0.54325,0.37026 0.54326,0.3258 0.54325,0.28035 0.54326,0.30558 0.54325,0.53663 0.54325,0.24374 0.54326,0.16482 0.54325,0.10135 0.54326,0.0748 0.54325,0.10396 0.54326,0.0722 0.54325,0.0723 0.54326,0.0641 0.54325,0.0654 0.54325,0.0637 0.54326,0.0504 0.54325,0.028 0.54326,-0.0855 0.54325,0.0545 0.54326,0.0757 0.54325,0.10473 0.54326,0.1188 0.54325,0.11934 0.54326,0.11639 0.54325,0.0911 0.54325,0.056 0.54326,0.0215 0.54325,-0.005 0.54326,-0.0672 0.54325,-0.0591 0.54326,-0.15044 0.54325,-0.23094 0.54326,-0.33799 0.54325,-0.5472 0.54326,-0.97841 0.54325,-1.58121 0.54325,-1.04035 0.54326,-1.23771 0.54325,-1.4216 0.54326,-1.66515 0.54325,-1.96279 0.54326,-2.04892 0.54325,-2.30967 0.54326,-2.76514 0.54325,-2.36771 0.54325,-3.35464 0.54326,-3.64515 0.54325,-3.25965 0.54326,-3.63802 0.54325,-3.51692 0.54326,-2.5951 0.54325,-0.28357 0.54326,3.52272 0.54325,-0.73906 0.54326,-0.62443 0.54325,-0.44575 0.54325,-0.68208 0.54326,-0.65152 0.54325,-0.84901 0.54326,-0.81622 0.54325,-0.55788 0.54326,-0.79228 0.54325,-0.60139 0.54326,-0.38961 0.54325,-0.8685 0.54326,0.20909 0.54325,-0.28828 0.54326,-0.28443 0.54325,-0.29711 0.54325,-0.30852 0.54326,-0.19718 0.54325,-0.23347 0.54326,-0.29928 0.54325,-0.30638 0.54326,-0.43141 0.54325,0.0547 0.54326,-0.11249 0.54325,-0.21592 0.54325,-0.19836 0.54326,-0.23104 0.54325,-0.0596 0.54326,-0.21371 0.54325,-0.0272 0.54326,-0.13441 0.54325,-0.0962 0.54326,-0.22075 0.54325,-0.40222 0.54325,-0.0705 0.54326,-0.30528 0.54325,-0.22702 0.54326,-0.36457 0.54325,-0.51479 0.54326,0.0252 0.54325,-0.67438 0.54326,1.00267 0.54325,-0.23676 0.54326,-0.13467 0.54325,0.2084 0.54325,-0.23327 0.54326,-0.32719 0.54325,-0.23804 0.54326,-0.43939 0.54325,-0.0493 0.54326,-0.22394 0.54325,-0.31389 0.54326,-0.25262 0.54325,-0.31861 0.54326,-0.26305 0.54325,-0.51593 0.54325,0.52582 0.54326,-0.15064 0.54325,-0.1296 0.54326,-0.13912 0.54325,-0.18539 0.54326,-0.1842 0.54325,-0.17601 0.54326,-0.15286 0.54325,-0.28546 0.54325,0.11382 0.54326,-0.0178 0.54325,-0.23216 0.54326,0.50258 0.54325,0.0747 0.54326,0.1956 0.54325,0.21499 0.54326,0.15826 0.54325,0.20258 0.54326,0.15826 0.54325,0.55212 0.54325,0.4299 0.54326,0.52633 0.54325,0.63522 0.54326,0.74661 0.54325,0.67119 0.54326,0.68998 0.54325,0.69055 0.54326,0.57465 0.54325,0.51282 0.54326,0.32781 0.54325,0.47977 0.54325,0.44097 0.54326,0.45526 0.54325,0.44944 0.54326,0.37968 0.54325,0.40548 0.54326,0.30433 0.54325,0.24893 0.54326,0.0808 0.54325,-0.43234 0.54325,-0.26161 0.54326,-0.59609 0.54325,-0.3481 0.54326,-0.70332 0.54325,-0.99502 0.54326,-0.67378 0.54325,-1.31783 0.54326,-0.96438 0.54325,-0.97606 0.54326,-1.17392 0.54325,-0.66703 0.54325,-0.3098 0.54326,6.51198 0.54325,1.76348 0.54326,2.15041 0.54325,0.85179 0.54326,0.99353 0.54325,0.56291 0.54326,0.26954 0.54325,4.5e-4 0.54326,-0.97469 0.54325,0.23817 0.54325,-0.93809 0.54326,4.5632 0.54325,1.29266 0.54326,1.46787 0.54325,1.52996 0.54326,1.35171 0.54325,0.51156 0.54326,0.31727 0.54325,0.69396 0.54326,1.11117 0.54325,1.13314 0.54325,1.38559 0.54326,1.23209 0.54325,0.97383 0.54326,0.75663 0.54325,0.52488 0.54326,-0.0225 0.54325,-0.13474 0.54326,-0.43453 0.54325,-0.71355 0.54325,-0.73415 0.54326,-0.88675 0.54325,-1.08649 0.54326,-0.44676 0.54325,-1.05931 0.54326,-1.20476 0.54325,-1.18352 0.54326,-1.74981 0.54325,-1.94447 0.54326,-2.10092 0.54325,-2.10681 0.54325,-2.11876 0.54326,-2.21777 0.54325,-2.19188 0.54326,-1.77529 0.54325,-1.62667 0.54326,-1.64738 0.54325,-1.14732 0.54326,-1.03958 0.54325,-1.02332 0.54326,-0.62163 0.54325,1.30822 0.54325,0.28952 0.54326,0.28256 0.54325,0.0474 0.54326,0.19045 0.54325,0.006 0.54326,-0.0359 0.54325,-0.10634 0.54326,-0.0637 0.54325,-0.20179 0.54325,-0.0471 0.54326,-0.13464 0.54326,0.27488 0.54325,-0.009 0.54325,0.20755 0.54326,0.0954 0.54325,-0.13357 0.54326,0.5847 0.54325,-0.15857 0.54326,-0.3071 0.54325,-0.17317 0.54325,-0.25562 0.54326,-0.14949 0.54325,-0.20636 0.54326,-0.0143 0.54325,-0.17418 0.54326,-0.0673 0.54325,-0.20226 0.54326,-0.15532 0.54325,-0.0644 0.54326,-0.19395 0.54325,-0.12521 0.54325,0.0984 0.54326,-0.20809 0.54325,0.024 0.54326,-0.16629 0.54325,-0.005 0.54326,-0.0863 0.54325,-0.007 0.54326,-0.13317 0.54325,0.0315 0.54326,-0.0566 0.54325,0.33372 0.54326,0.0722 0.54325,0.0423 0.54325,0.17221 0.54326,0.0511 0.54325,-0.10174 0.54326,0.46852 0.54325,0.0992 0.54326,0.0999 0.54325,0.1179 0.54325,0.18701 0.54326,0.21086 0.54325,0.10269 0.54326,0.27372 0.54325,0.40237 0.54326,0.30278 0.54325,0.16505 0.54326,0.76025 0.54325,0.58522 0.54326,0.61277 0.54325,0.65305 0.54325,0.87318 0.54326,1.01345 0.54325,1.38641 0.54326,1.51301 0.54325,1.71814 0.54326,2.57223 0.54325,2.47716 0.54326,5.69781 0.54325,5.27754 0.54326,6.9944 0.54325,4.34215 0.54325,3.22443 0.54326,2.31892 0.54325,1.73038 0.54326,1.25733 0.54325,1.05638 0.54326,0.85047 0.54325,0.6358 0.54326,0.43998 0.54325,0.28931 0.54325,0.17825 0.54326,0.0847 0.54325,-0.0243 0.54326,-0.12979 0.54325,-0.23924 0.54326,-0.37217 0.54325,-0.66592 0.54326,-0.53821 0.54325,-0.56056 0.54326,-0.55736 0.54325,-0.53414 0.54325,-0.45292 0.54326,-0.53336 0.54325,-0.56792 0.54326,-0.72702 0.54325,-0.9676 0.54326,-1.21409 0.54325,-1.58715 0.54326,-2.21694 0.54325,-2.99014 0.54326,-4.3194 0.54325,-3.60618 0.54325,-2.99801 0.54326,-0.53105 0.54325,13.6761 0.54326,1.15018 0.54325,0.5426 0.54326,0.37634 0.54325,0.316 0.54326,0.21004 0.54325,0.0634 0.54326,-0.10365 0.54325,-0.17453 0.54326,-0.25632 0.54325,-0.33935 0.54325,-0.37922 0.54326,-0.42823 0.54325,-0.53607 0.54326,-0.54773 0.54325,-0.68145 0.54326,-0.95334 0.54325,-1.47893 0.54325,-2.34641 0.54326,-2.41639 0.54325,-3.00436 0.54326,-2.6994 0.54325,-2.46346 0.54326,-2.19562 0.54325,-2.07345 0.54326,-2.16036 0.54325,-1.34916 0.54326,-1.1972 0.54325,-1.20355 0.54325,-0.74356 0.54326,-0.69387 0.54325,-0.84088 0.54326,-0.34716 0.54325,-0.48676 0.54326,-0.4966 0.54325,-0.41009 0.54326,-0.31343 0.54325,-0.28447 0.54326,-0.39644 0.54325,-0.33443 0.54326,-0.31957 0.54325,-0.2591 0.54325,-0.0836 0.54326,-0.57174 0.54325,1.2966 0.54326,0.0199 0.54325,-0.0387 0.54326,-0.008 0.54325,0.12044 0.54325,-0.0256 0.54326,-0.11255 0.54325,-0.11549 0.54326,-0.11423 0.54325,-0.21456 0.54326,-0.28787 0.54325,-0.18726 0.54326,-0.0293 0.54325,-0.21674 0.54326,-0.35033 0.54325,0.5195 0.54325,0.18789 0.54326,-0.006 0.54325,0.35637 0.54326,0.49129 0.54325,0.86842 0.54326,0.58777 0.54325,0.59475 0.54326,0.42628 0.54325,-0.008 0.54326,0.23056 0.54325,0.87066 0.54326,0.37673 0.54325,0.36409 0.54325,0.12423 0.54326,-0.19016 0.54325,-0.41031 0.54326,-0.32577 0.54325,-0.58391 0.54326,-0.49476 0.54325,-1.14602 0.54326,-1.18921 0.54325,-1.2278 0.54326,-0.69137 0.54325,-0.7972 0.54325,-0.75147 0.54326,0.81309 0.54325,0.007 0.54326,0.20915 0.54325,0.36047 0.54326,0.89839 0.54325,1.05489 0.54325,1.30913 0.54326,0.92603 0.54325,0.8111 0.54326,0.83157 0.54325,0.56642 0.54326,0.91358 0.54325,0.60401 0.54326,0.59508 0.54325,0.42052 0.54326,0.16394 0.54325,0.15384 0.54326,0.0913 0.54325,0.0252 0.54325,-0.39774 0.54326,-0.26318 0.54325,-0.71943 0.54326,-0.85279 0.54325,-1.01636 0.54326,-0.67949 0.54325,-0.58851 0.54326,-0.56659 0.54325,-0.72494 0.54326,0.35074 0.54325,-0.48579 0.54325,-0.69601 0.54326,-0.65179 0.54325,-0.32417 0.54326,-0.34939 0.54325,-0.30351 0.54326,-0.12128 0.54325,10e-4 0.54325,-0.0784 0.54326,-0.0769 0.54325,-0.12023 0.54326,-0.182 0.54325,-0.0223 0.54326,-0.28829 0.54325,-0.13883 0.54326,-0.23824 0.54325,-0.16547 0.54326,-0.0764 0.54325,-0.1895 0.54325,-0.004 0.54326,-0.19568 0.54325,-0.30582 0.54326,-0.33821 0.54325,-0.36301 0.54326,-0.34879 0.54325,-0.33818 0.54326,-0.32902 0.54325,-0.4166 0.54326,-0.16061 0.54325,0.26756 0.54326,-0.0798 0.54325,-0.0582 0.54325,0.13848 0.54326,-0.0547 0.54325,0.1676 0.54326,0.5222 0.54325,-0.0203 0.54326,0.11493 0.54325,0.16058 0.54326,0.12534 0.54325,0.12199 0.54326,-0.0178 0.54325,-0.0262 0.54325,-0.0702 0.54326,0.0553 0.54325,-0.0848 0.54326,0.11769 0.54325,-0.0322 0.54326,0.25569 0.54325,0.19178 0.54325,0.43895 0.54326,0.26711 0.54325,0.2598 0.54326,0.16142 0.54325,0.71848 0.54326,0.0746 0.54325,0.0773 0.54326,0.15864 0.54325,0.53332 0.54326,0.2513 0.54325,0.28702 0.54326,0.26149 0.54325,0.26989 0.54325,0.29478 0.54326,0.2511 0.54325,0.49898 0.54326,0.26344 0.54325,0.10357 0.54326,0.61237 0.54325,1.28817 0.54326,0.55991 0.54325,0.81256 0.54326,0.53514 0.54325,0.32518 0.54325,1.05619 0.54326,0.0173 0.54325,0.62425 0.54326,0.37429 0.54325,0.27054 0.54326,0.15637 0.54325,-0.26868 0.54325,-0.62425 0.54326,-0.56562 0.54325,-0.51358 0.54326,-0.49329 0.54325,-0.2758 0.54326,-0.71134 0.54325,-0.72608 0.54326,-0.88012 0.54325,-0.63343 0.54326,-0.29484 0.54325,0.0526 0.54326,0.42247 0.54325,0.39244 0.54325,0.50796 0.54326,0.39418 0.54325,0.68019 0.54326,0.74465 0.54325,1.08911 0.54326,1.8353 0.54325,1.45027 0.54326,1.25511 0.54325,1.50086 0.54326,1.78451 0.54325,2.16184 0.54325,1.94259 0.54326,1.93196 0.54325,1.76024 0.54326,2.38257 0.54325,2.02767 0.54326,2.00744 0.54325,2.44483 0.54325,1.76525 0.54326,0.45131 v -48.59469 0 l -0.54326,-0.0187 -0.54325,-0.005 -0.54325,-10e-4 -0.54326,-3.2e-4 -0.54325,1.3e-4 -0.54326,-3.3e-4 -0.54325,-2.1e-4 -0.54326,-7.4e-4 -0.54325,-10e-4 -0.54325,-0.002 -0.54326,-10e-4 -0.54325,-0.001 -0.54326,-8.7e-4 -0.54325,-0.001 -0.54326,-0.004 -0.54325,-0.003 -0.54326,-0.002 -0.54325,-0.001 -0.54326,-10e-4 -0.54325,-9.2e-4 -0.54325,-0.001 -0.54326,-0.002 -0.54325,-0.002 -0.54326,-0.001 -0.54325,0.001 -0.54326,0.002 -0.54325,0.001 -0.54326,10e-4 -0.54325,4.4e-4 -0.54326,2.9e-4 -0.54325,5.5e-4 -0.54326,9.4e-4 -0.54325,4.9e-4 -0.54325,-1e-5 -0.54326,-8.2e-4 -0.54325,-10e-4 -0.54326,-0.001 -0.54325,-0.001 -0.54326,-2e-4 -0.54325,-0.001 -0.54325,-6.2e-4 -0.54326,-3.7e-4 -0.54325,-10e-4 -0.54326,-1.9e-4 -0.54325,-7.7e-4 -0.54326,-10e-4 -0.54325,-1.8e-4 -0.54326,2e-4 -0.54325,-8.6e-4 -0.54326,-7.9e-4 -0.54325,-2.6e-4 -0.54325,-3.5e-4 -0.54326,-3.7e-4 -0.54325,-4e-5 -0.54326,3e-5 -0.54325,2.2e-4 -0.54326,-8.8e-4 -0.54325,-1.1e-4 -0.54326,8.5e-4 -0.54325,7.1e-4 -0.54326,-9e-4 -0.54325,-6.3e-4 -0.54326,-3.6e-4 -0.54325,-0.002 -0.54325,-10e-4 -0.54326,-3.2e-4 -0.54325,-0.001 -0.54326,1.2e-4 -0.54325,-5e-4 -0.54326,3.4e-4 -0.54325,9e-5 -0.54325,5e-5 -0.54326,1.1e-4 -0.54325,3.3e-4 -0.54326,-1e-4 -0.54325,-2e-4 -0.54326,-5.2e-4 -0.54325,1e-4 -0.54326,7.5e-4 -0.54325,-4.3e-4 -0.54326,-0.001 -0.54325,-5.6e-4 -0.54325,-4.7e-4 -0.54326,4.3e-4 -0.54325,10e-4 -0.54326,1.6e-4 -0.54325,-7.5e-4 -0.54326,-4.1e-4 -0.54325,7.1e-4 -0.54326,0.001 -0.54325,2.8e-4 -0.54326,1.6e-4 -0.54325,1.8e-4 -0.54326,6.4e-4 -0.54325,4.9e-4 -0.54325,-5e-5 -0.54326,4.5e-4 -0.54325,-5e-5 -0.54326,-1e-5 -0.54325,2.9e-4 -0.54326,-3.6e-4 -0.54325,-1.8e-4 -0.54326,-4.5e-4 -0.54325,-4.6e-4 -0.54326,1.1e-4 -0.54325,5e-5 -0.54325,-9.9e-4 -0.54326,-3.2e-4 -0.54325,-3.3e-4 -0.54326,3.8e-4 -0.54325,7e-4 -0.54326,3.4e-4 -0.54325,9.5e-4 -0.54325,0.002 -0.54326,9.6e-4 -0.54325,-2.1e-4 -0.54326,8.7e-4 -0.54325,9.5e-4 -0.54326,3.1e-4 -0.54325,0.002 -0.54326,0.001 -0.54325,0.001 -0.54326,6.6e-4 -0.54325,5.1e-4 -0.54325,5.5e-4 -0.54326,2.7e-4 -0.54325,7e-5 -0.54326,1.6e-4 -0.54325,2.3e-4 -0.54326,-1.8e-4 -0.54325,-2.1e-4 -0.54326,-1.1e-4 -0.54325,-6.7e-4 -0.54326,-5.7e-4 -0.54325,-5.6e-4 -0.54326,-5.1e-4 -0.54325,-0.003 -0.54325,-0.002 -0.54326,-0.003 -0.54325,-0.002 -0.54326,-9.1e-4 -0.54325,-3.4e-4 -0.54326,4e-5 -0.54325,-0.001 -0.54325,5.7e-4 -0.54326,5.6e-4 -0.54325,0.003 -0.54326,0.001 -0.54325,0.002 -0.54326,7.5e-4 -0.54325,0.002 -0.54326,5.6e-4 -0.54325,3.3e-4 -0.54326,6.5e-4 -0.54325,1.8e-4 -0.54325,-3.4e-4 -0.54326,-5.2e-4 -0.54325,-10e-4 -0.54326,-9.1e-4 -0.54325,-2.5e-4 -0.54326,3.8e-4 -0.54325,-9.8e-4 -0.54326,-0.001 -0.54325,-0.003 -0.54326,-10e-4 -0.54325,-7.8e-4 -0.54326,-0.001 -0.54325,-5.2e-4 -0.54325,2.3e-4 -0.54326,-0.001 -0.54325,-8.8e-4 -0.54326,3.5e-4 -0.54325,1.7e-4 -0.54326,0.001 -0.54325,7e-4 -0.54326,6.4e-4 -0.54325,2.1e-4 -0.54326,5.3e-4 -0.54325,2.3e-4 -0.54325,6e-4 -0.54326,3.8e-4 -0.54325,8e-4 -0.54326,10e-4 -0.54325,9.3e-4 -0.54326,-4.9e-4 -0.54325,6.2e-4 -0.54325,2.9e-4 -0.54326,2.1e-4 -0.54325,5.2e-4 -0.54326,1.4e-4 -0.54325,-3.8e-4 -0.54326,9e-5 -0.54325,7e-5 -0.54326,4e-5 -0.54325,-2.9e-4 -0.54326,6.3e-4 -0.54325,-1.6e-4 -0.54326,-4.3e-4 -0.54325,-1.3e-4 -0.54325,-2.9e-4 -0.54326,-0.001 -0.54325,-9e-5 -0.54326,0.001 -0.54325,9e-4 -0.54326,9.1e-4 -0.54325,0.002 -0.54326,0.002 -0.54325,0.003 -0.54326,0.002 -0.54325,0.002 -0.54325,0.002 -0.54326,9.6e-4 -0.54325,4.1e-4 -0.54326,1e-4 -0.54325,5e-5 -0.54326,-9e-5 -0.54325,-2e-5 -0.54325,4e-5 -0.54326,10e-6 -0.54325,1.1e-4 -0.54326,3.5e-4 -0.54325,5.7e-4 -0.54326,7.8e-4 -0.54325,0.001 -0.54326,0.002 -0.54325,0.003 -0.54326,0.003 -0.54325,-0.007 -0.54326,-0.0101 -0.54325,-0.003 -0.54325,-3.4e-4 -0.54326,0.002 -0.54325,10e-4 -0.54326,6.9e-4 -0.54325,4.3e-4 -0.54326,3.3e-4 -0.54325,2.4e-4 -0.54326,6e-5 -0.54325,-1.9e-4 -0.54326,-8e-5 -0.54325,1.8e-4 -0.54325,0.001 -0.54326,4.5e-4 -0.54325,2.7e-4 -0.54326,2.5e-4 -0.54325,8.1e-4 -0.54326,4.2e-4 -0.54325,4e-5 -0.54326,-2e-4 -0.54325,-2.5e-4 -0.54326,-3.2e-4 -0.54325,-2.9e-4 -0.54325,-9e-5 -0.54326,5e-5 -0.54325,2e-4 -0.54326,3.7e-4 -0.54325,6.7e-4 -0.54326,9.5e-4 -0.54325,3.2e-4 -0.54326,0.001 -0.54325,0.001 -0.54325,4.2e-4 -0.54326,-0.004 -0.54325,-0.004 -0.54326,-0.004 -0.54325,-0.004 -0.54326,-0.002 -0.54325,-0.003 -0.54326,-0.002 -0.54325,-0.002 -0.54326,-0.001 -0.54325,-0.001 -0.54325,-10e-4 -0.54326,-9.1e-4 -0.54325,-6.9e-4 -0.54326,-3.3e-4 -0.54325,-0.001 -0.54326,-6.8e-4 -0.54325,-2.3e-4 -0.54326,-3.4e-4 -0.54325,-6e-4 -0.54326,-4.2e-4 -0.54325,-3.2e-4 -0.54325,-2.5e-4 -0.54326,-2.1e-4 -0.54325,-3e-5 -0.54326,3.8e-4 -0.54325,-4.1e-4 -0.54326,-3.5e-4 -0.54325,1.5e-4 h -0.54325 l -0.54326,3e-5 -0.54325,4.2e-4 -0.54326,-2.3e-4 -0.54325,-6e-5 -0.54326,-9.1e-4 -0.54325,2.5e-4 -0.54326,2e-4 -0.54325,1.2e-4 -0.54326,-1.4e-4 -0.54325,1.8e-4 -0.54326,-1.1e-4 -0.54325,4.6e-4 -0.54325,-1e-5 -0.54326,-1e-4 -0.54325,4.1e-4 -0.54326,-6e-5 -0.54325,-6.7e-4 -0.54326,4.7e-4 -0.54325,2e-4 -0.54326,2.5e-4 -0.54325,10e-5 -0.54326,1.7e-4 -0.54325,1.9e-4 -0.54325,2.1e-4 -0.54326,5.4e-4 -0.54325,6.2e-4 -0.54326,8.4e-4 -0.54325,-1.8e-4 -0.54326,-6e-5 -0.54325,1.8e-4 -0.54325,-2.3e-4 -0.54326,3.3e-4 -0.54326,-3.6e-4 -0.54325,-1.4e-4 -0.54325,-3e-4 -0.54326,4.7e-4 -0.54325,4.1e-4 -0.54326,2.1e-4 -0.54325,3.1e-4 -0.54326,7.2e-4 -0.54325,3.4e-4 -0.54326,3.8e-4 -0.54325,0.001 -0.54325,-0.001 -0.54326,-0.003 -0.54325,-6.3e-4 -0.54326,4.3e-4 -0.54325,4.8e-4 -0.54326,7e-5 -0.54325,6.4e-4 -0.54326,6.4e-4 -0.54325,0.002 -0.54326,0.001 -0.54325,0.001 -0.54325,7.8e-4 -0.54326,5.6e-4 -0.54325,2.4e-4 -0.54326,2.5e-4 -0.54325,6.1e-4 -0.54326,2.4e-4 -0.54325,3.6e-4 -0.54326,6.4e-4 -0.54325,-1e-5 -0.54326,3e-4 -0.54325,3.5e-4 -0.54325,0.001 -0.54326,0.001 -0.54325,10e-4 -0.54326,0.002 -0.54325,0.002 -0.54326,0.002 -0.54325,0.002 -0.54326,10e-4 -0.54325,0.002 -0.54325,0.002 -0.54326,0.002 -0.54325,0.003 -0.54326,0.004 -0.54325,0.003 -0.54326,0.002 -0.54325,6e-4 -0.54326,2e-5 -0.54325,-10e-5 -0.54326,-0.007 -0.54325,-0.003 -0.54325,-0.002 -0.54326,0.003 -0.54325,10e-4 -0.54326,1.7e-4 -0.54325,-4e-5 -0.54326,-4.8e-4 h -0.54325 l -0.54326,-1.8e-4 -0.54325,1e-5 -0.54326,-0.0185 -0.54325,-0.006 -0.54325,-0.001 -0.54326,-9.6e-4 -0.54325,1.8e-4 -0.54326,5.8e-4 -0.54325,4.2e-4 -0.54326,0.002 -0.54325,8.3e-4 -0.54326,0.001 -0.54325,0.001 -0.54326,3.8e-4 -0.54325,8.9e-4 -0.54325,1.5e-4 -0.54326,7.8e-4 -0.54325,2.2e-4 -0.54326,3e-5 -0.54325,-5.9e-4 -0.54326,-6.8e-4 -0.54325,-2.8e-4 -0.54326,-5.8e-4 -0.54325,-3.2e-4 -0.54325,-7.6e-4 -0.54326,-0.001 -0.54325,-6.7e-4 -0.54326,-4.4e-4 -0.54325,-8.9e-4 -0.54326,-0.002 -0.54325,-4.8e-4 -0.54326,-8.7e-4 -0.54325,-5.8e-4 -0.54326,-6.9e-4 -0.54325,-5.9e-4 -0.54325,-4.9e-4 -0.54326,-9.7e-4 -0.54325,-5e-4 -0.54326,-2.9e-4 -0.54325,2e-4 -0.54326,2.9e-4 -0.54325,-1.6e-4 -0.54326,3.5e-4 -0.54325,-6.4e-4 -0.54326,-10e-5 -0.54325,3.9e-4 -0.54325,-5.2e-4 -0.54326,-1.9e-4 -0.54325,-5.6e-4 -0.54326,4.2e-4 -0.54325,3.8e-4 -0.54326,7.9e-4 -0.54325,5e-4 -0.54326,3e-4 -0.54325,8.2e-4 -0.54325,-5e-4 -0.54326,-7e-5 -0.54325,-1.8e-4 -0.54326,1.6e-4 -0.54325,2.4e-4 -0.54326,5.9e-4 -0.54325,0.001 -0.54326,1.7e-4 -0.54325,6.8e-4 -0.54326,4e-4 -0.54325,5.3e-4 -0.54325,0.001 -0.54326,2.8e-4 -0.54325,-4.3e-4 -0.54326,4e-4 -0.54325,-4.4e-4 -0.54326,6.3e-4 -0.54325,-0.001 -0.54326,5.1e-4 -0.54325,9.3e-4 -0.54326,3.4e-4 -0.54325,6.3e-4 -0.54325,-4.9e-4 -0.54326,1.1e-4 -0.54325,-1.9e-4 -0.54326,-2.5e-4 -0.54325,9e-5 -0.54326,-2.4e-4 -0.54325,1.5e-4 -0.54326,-2.4e-4 -0.54325,-1.3e-4 -0.54325,6.1e-4 -0.54326,6.6e-4 -0.54325,7.1e-4 -0.54326,-8e-5 -0.54325,-2.5e-4 -0.54326,5.3e-4 -0.54325,7.4e-4 -0.54326,5.1e-4 -0.54325,2.6e-4 -0.54325,2.9e-4 -0.54326,5.4e-4 -0.54325,5.8e-4 -0.54326,0.001 -0.54325,-5.6e-4 -0.54326,4e-4 -0.54325,4.8e-4 -0.54326,2.9e-4 -0.54325,8.8e-4 -0.54326,9.3e-4 -0.54325,8.4e-4 -0.54326,0.001 -0.54325,10e-4 -0.54325,0.002 -0.54326,0.002 -0.54325,0.002 -0.54326,-0.002 -0.54325,-0.007 -0.54326,-0.003 -0.54325,6.2e-4 -0.54326,9.9e-4 -0.54325,8.5e-4 -0.54326,3.8e-4 -0.54325,4.4e-4 -0.54325,0.001 -0.54326,-0.001 -0.54325,-8.2e-4 -0.54326,-2.3e-4 -0.54325,-10e-4 -0.54326,-8.3e-4 -0.54325,-4.6e-4 -0.54326,-9.3e-4 -0.54325,-4.2e-4 -0.54325,8.4e-4 -0.54326,0.002 -0.54325,9.7e-4 -0.54326,6.1e-4 -0.54325,2.5e-4 -0.54326,1.2e-4 -0.54325,1.7e-4 -0.54326,0.002 -0.54325,0.001 -0.54326,0.001 -0.54325,0.002 -0.54325,0.002 -0.54326,0.003 -0.54325,0.003 -0.54326,0.003 -0.54325,0.003 -0.54326,0.002 -0.54325,10e-4 -0.54326,-0.003 -0.54325,-0.002 -0.54326,-7.6e-4 -0.54325,-2.3e-4 -0.54325,-9e-5 -0.54326,1.2e-4 -0.54325,5.3e-4 -0.54326,6.3e-4 -0.54325,3.4e-4 -0.54326,-4.4e-4 -0.54325,-0.001 -0.54326,-0.002 -0.54325,-0.001 -0.54325,0.002 -0.54326,0.001 -0.54325,-3e-4 -0.54326,-0.002 -0.54325,-10e-4 -0.54326,-0.001 -0.54325,-2.1e-4 -0.54326,4.6e-4 -0.54325,-2.2e-4 -0.54326,-10e-4 -0.54325,-9.3e-4 -0.54325,1.5e-4 -0.54326,7.4e-4 -0.54325,4.4e-4 -0.54326,9.2e-4 -0.54325,0.001 -0.54326,0.002 -0.54325,0.002 -0.54326,0.003 -0.54325,0.002 -0.54326,0.002 -0.54325,0.001 -0.54325,9.3e-4 -0.54326,7.4e-4 -0.54325,-3e-5 -0.54326,1.1e-4 -0.54325,-5.2e-4 -0.54326,-10e-4 -0.54325,-7.5e-4 -0.54326,-0.001 -0.54325,-9.3e-4 -0.54326,-0.002 -0.54325,-0.004 -0.54325,0.003 -0.54326,1.8e-4 -0.54325,-5.7e-4 -0.54326,-5.3e-4 -0.54325,-8.8e-4 -0.54326,-0.001 -0.54325,-7.8e-4 -0.54326,-6.8e-4 -0.54325,-5.7e-4 -0.54325,-0.001 -0.54326,-9.5e-4 -0.54325,-0.001 -0.54326,-10e-4 -0.54325,-0.002 -0.54326,-0.003 -0.54325,0.002 -0.54326,4.2e-4 -0.54325,5.1e-4 -0.54326,3e-5 -0.54325,-1.6e-4 -0.54325,-1e-5 -0.54326,2.2e-4 -0.54325,8.8e-4 -0.54326,2.3e-4 -0.54325,6.3e-4 -0.54326,0.001 -0.54325,6.8e-4 -0.54326,2e-5 -0.54325,-10e-4 -0.54325,0.004 -0.54326,0.001 -0.54325,6.2e-4 -0.54326,4.1e-4 -0.54325,9e-4 -0.54326,7.3e-4 -0.54325,0.002 -0.54326,0.001 -0.54325,4.5e-4 -0.54325,-0.001 -0.54326,-0.003 -0.54325,-0.003 -0.54326,0.001 -0.54325,-0.006 -0.54326,10e-4 -0.54325,-4e-5 -0.54326,-6.6e-4 -0.54325,0.004 -0.54326,10e-4 -0.54325,7.8e-4 -0.54326,3.8e-4 -0.54325,1.2e-4 -0.54325,-4.2e-4 -0.54326,-0.001 -0.54325,-10e-4 -0.54326,-0.002 -0.54325,-10e-4 -0.54326,-0.001 -0.54325,-0.001 -0.54326,-0.002 -0.54325,1.5e-4 -0.54325,-1.9e-4 -0.54326,-3.3e-4 -0.54325,-6.1e-4 -0.54326,-4.7e-4 -0.54325,-2e-4 -0.54326,7e-5 -0.54325,-4.1e-4 -0.54326,-10e-4 -0.54325,-7.7e-4 -0.54326,8.8e-4 -0.54325,4.3e-4 -0.54326,-1.1e-4 -0.54325,-4.2e-4 -0.54325,-0.003 -0.54326,0.002 -0.543253,-1.6e-4 -0.543254,8.7e-4 -0.543255,-6.9e-4 -0.543254,0.002 -0.543255,-0.001 -0.543254,0.004 -0.543255,0.002 -0.543254,0.001 -0.543255,10e-4 -0.543254,0.001 -0.543255,0.001 -0.543254,7.7e-4 -0.543255,-9e-5 -0.543254,10e-4 -0.543255,0.001 -0.543254,8.1e-4 -0.543255,10e-4 -0.543254,0.002 -0.543255,0.002 -0.543255,0.001 -0.543254,7e-4 -0.543255,-0.002 -0.543254,0.005 -0.543255,0.003 -0.543254,0.003 -0.543255,0.006 -0.543254,0.006 -0.543255,0.007 -0.543254,0.01 -0.543255,-0.0131 -0.543254,-0.013 -0.543255,-0.002 -0.543254,0.002 -0.543255,0.003 -0.543254,0.003 -0.543255,0.003 -0.543254,0.002 -0.543255,10e-4 -0.543254,2.3e-4 -0.543255,9.6e-4 -0.543254,10e-4 -0.543255,0.002 -0.543254,-9.4e-4 -0.543255,0.002 -0.543255,0.001 -0.543254,10e-4 -0.543255,0.001 -0.543254,0.001 -0.543255,0.002 -0.543254,0.002 -0.543255,0.002 -0.543254,0.003 -0.543255,0.003 -0.543254,0.004 -0.543255,0.005 -0.543254,0.005 -0.543255,0.006 -0.543254,0.006 -0.543255,0.006 -0.543254,0.006 -0.543255,0.002 -0.543254,0.007 -0.543255,0.007 -0.543254,0.009 -0.543255,0.0106 -0.543254,0.0126 -0.543255,0.0184 -0.543254,0.0976 z"
             clip-path="url(#pd4fafac9f0)"
             style="fill:#ff7f0e"
             id="path157" />
        </g>
        <g
           id="matplotlib.axis_3">
          <g
             id="xtick_7">
            <g
               id="line2d_10">
              <g
                 id="g162">
                <use
                   xlink:href="#m50acc93d1c"
                   x="115.15244"
                   y="178.05176"
                   style="stroke:#000000;stroke-width:0.8"
                   id="use160" />
              </g>
            </g>
          </g>
          <g
             id="xtick_8">
            <g
               id="line2d_11">
              <g
                 id="g168">
                <use
                   xlink:href="#m50acc93d1c"
                   x="180.34297"
                   y="178.05176"
                   style="stroke:#000000;stroke-width:0.8"
                   id="use166" />
              </g>
            </g>
          </g>
          <g
             id="xtick_9">
            <g
               id="line2d_12">
              <g
                 id="g174">
                <use
                   xlink:href="#m50acc93d1c"
                   x="245.53352"
                   y="178.05176"
                   style="stroke:#000000;stroke-width:0.8"
                   id="use172" />
              </g>
            </g>
          </g>
          <g
             id="xtick_10">
            <g
               id="line2d_13">
              <g
                 id="g180">
                <use
                   xlink:href="#m50acc93d1c"
                   x="310.72406"
                   y="178.05176"
                   style="stroke:#000000;stroke-width:0.8"
                   id="use178" />
              </g>
            </g>
          </g>
          <g
             id="xtick_11">
            <g
               id="line2d_14">
              <g
                 id="g186">
                <use
                   xlink:href="#m50acc93d1c"
                   x="375.91461"
                   y="178.05176"
                   style="stroke:#000000;stroke-width:0.8"
                   id="use184" />
              </g>
            </g>
          </g>
          <g
             id="xtick_12">
            <g
               id="line2d_15">
              <g
                 id="g192">
                <use
                   xlink:href="#m50acc93d1c"
                   x="441.10513"
                   y="178.05176"
                   style="stroke:#000000;stroke-width:0.8"
                   id="use190" />
              </g>
            </g>
          </g>
        </g>
        <g
           id="matplotlib.axis_4">
          <g
             id="text_4">
            <!-- probabilities -->
            <g
               transform="matrix(0,-0.1,-0.1,0,56.920312,176.22672)"
               id="g230">
              <defs
                 id="defs202">
                <path
                   id="DejaVuSans-6f"
                   d="m 1959,3097 q -462,0 -731,-361 -269,-361 -269,-989 0,-628 267,-989 268,-361 733,-361 460,0 728,362 269,363 269,988 0,622 -269,986 -268,364 -728,364 z m 0,487 q 750,0 1178,-488 429,-487 429,-1349 Q 3566,888 3137,398 2709,-91 1959,-91 1206,-91 779,398 353,888 353,1747 q 0,862 426,1349 427,488 1180,488 z"
                   transform="scale(0.015625)" />
                <path
                   id="DejaVuSans-62"
                   d="m 3116,1747 q 0,634 -261,995 -261,361 -717,361 -457,0 -718,-361 -261,-361 -261,-995 0,-634 261,-995 261,-361 718,-361 456,0 717,361 261,361 261,995 z M 1159,2969 q 182,312 458,463 277,152 661,152 638,0 1036,-506 399,-506 399,-1331 Q 3713,922 3314,415 2916,-91 2278,-91 1894,-91 1617,61 1341,213 1159,525 V 0 H 581 v 4863 h 578 z"
                   transform="scale(0.015625)" />
                <path
                   id="DejaVuSans-61"
                   d="m 2194,1759 q -697,0 -966,-159 -269,-159 -269,-544 0,-306 202,-486 202,-179 548,-179 479,0 768,339 289,339 289,901 v 128 z m 1147,238 V 0 H 2766 V 531 Q 2569,213 2275,61 1981,-91 1556,-91 q -537,0 -855,302 -317,302 -317,808 0,590 395,890 396,300 1180,300 h 807 v 57 q 0,397 -261,614 -261,217 -733,217 -300,0 -585,-72 -284,-72 -546,-216 v 532 q 315,122 612,182 297,61 578,61 760,0 1135,-394 375,-393 375,-1193 z"
                   transform="scale(0.015625)" />
                <path
                   id="DejaVuSans-6c"
                   d="m 603,4863 h 575 V 0 H 603 Z"
                   transform="scale(0.015625)" />
                <path
                   id="DejaVuSans-73"
                   d="m 2834,3397 v -544 q -243,125 -506,187 -262,63 -544,63 -428,0 -642,-131 -214,-131 -214,-394 0,-200 153,-314 153,-114 616,-217 l 197,-44 q 612,-131 870,-370 258,-239 258,-667 0,-488 -386,-773 Q 2250,-91 1575,-91 1294,-91 989,-36 684,19 347,128 v 594 q 319,-166 628,-249 309,-82 613,-82 406,0 624,139 219,139 219,392 0,234 -158,359 -157,125 -692,241 l -200,47 q -534,112 -772,345 -237,233 -237,639 0,494 350,762 350,269 994,269 318,0 599,-47 282,-46 519,-140 z"
                   transform="scale(0.015625)" />
              </defs>
              <use
                 xlink:href="#DejaVuSans-70"
                 id="use204" />
              <use
                 xlink:href="#DejaVuSans-72"
                 x="63.476562"
                 id="use206" />
              <use
                 xlink:href="#DejaVuSans-6f"
                 x="102.33984"
                 id="use208" />
              <use
                 xlink:href="#DejaVuSans-62"
                 x="163.52148"
                 id="use210" />
              <use
                 xlink:href="#DejaVuSans-61"
                 x="226.99805"
                 id="use212" />
              <use
                 xlink:href="#DejaVuSans-62"
                 x="288.27734"
                 id="use214" />
              <use
                 xlink:href="#DejaVuSans-69"
                 x="351.75391"
                 id="use216" />
              <use
                 xlink:href="#DejaVuSans-6c"
                 x="379.53711"
                 id="use218" />
              <use
                 xlink:href="#DejaVuSans-69"
                 x="407.32031"
                 id="use220" />
              <use
                 xlink:href="#DejaVuSans-74"
                 x="435.10352"
                 id="use222" />
              <use
                 xlink:href="#DejaVuSans-69"
                 x="474.3125"
                 id="use224" />
              <use
                 xlink:href="#DejaVuSans-65"
                 x="502.0957"
                 id="use226" />
              <use
                 xlink:href="#DejaVuSans-73"
                 x="563.61914"
                 id="use228" />
            </g>
          </g>
        </g>
        <g
           id="patch_8">
          <path
             d="M 63,178.05176 V 112.82824"
             style="fill:none;stroke:#000000;stroke-width:0.8;stroke-linecap:square;stroke-linejoin:miter"
             id="path234" />
        </g>
        <g
           id="patch_9">
          <path
             d="M 453.6,178.05176 V 112.82824"
             style="fill:none;stroke:#000000;stroke-width:0.8;stroke-linecap:square;stroke-linejoin:miter"
             id="path237" />
        </g>
        <g
           id="patch_10">
          <path
             d="M 63,178.05176 H 453.6"
             style="fill:none;stroke:#000000;stroke-width:0.8;stroke-linecap:square;stroke-linejoin:miter"
             id="path240" />
        </g>
        <g
           id="patch_11">
          <path
             d="M 63,112.82824 H 453.6"
             style="fill:none;stroke:#000000;stroke-width:0.8;stroke-linecap:square;stroke-linejoin:miter"
             id="path243" />
        </g>
        <g
           id="legend_1">
          <g
             id="patch_12">
            <path
               d="m 459.506,178.05176 h 62.5875 q 2,0 2,-2 v -28.35625 q 0,-2 -2,-2 H 459.506 q -2,0 -2,2 v 28.35625 q 0,2 2,2 z"
               style="opacity:0.8;fill:#ffffff;stroke:#cccccc;stroke-linejoin:miter"
               id="path246" />
          </g>
          <g
             id="patch_13">
            <path
               d="m 461.506,157.29395 h 20 v -7 h -20 z"
               style="fill:#ff7f0e"
               id="path249" />
          </g>
          <g
             id="text_5">
            <!-- WAKE -->
            <g
               transform="matrix(0.1,0,0,-0.1,489.506,157.29395)"
               id="g260">
              <use
                 xlink:href="#DejaVuSans-57"
                 id="use252" />
              <use
                 xlink:href="#DejaVuSans-41"
                 x="93.376953"
                 id="use254" />
              <use
                 xlink:href="#DejaVuSans-4b"
                 x="161.78516"
                 id="use256" />
              <use
                 xlink:href="#DejaVuSans-45"
                 x="227.36133"
                 id="use258" />
            </g>
          </g>
          <g
             id="patch_14">
            <path
               d="m 461.506,171.97208 h 20 v -7 h -20 z"
               style="fill:#1f77b4"
               id="path263" />
          </g>
          <g
             id="text_6">
            <!-- SLEEP -->
            <g
               transform="matrix(0.1,0,0,-0.1,489.506,171.97208)"
               id="g276">
              <use
                 xlink:href="#DejaVuSans-53"
                 id="use266" />
              <use
                 xlink:href="#DejaVuSans-4c"
                 x="63.476562"
                 id="use268" />
              <use
                 xlink:href="#DejaVuSans-45"
                 x="119.18945"
                 id="use270" />
              <use
                 xlink:href="#DejaVuSans-45"
                 x="182.37305"
                 id="use272" />
              <use
                 xlink:href="#DejaVuSans-50"
                 x="245.55664"
                 id="use274" />
            </g>
          </g>
        </g>
      </g>
      <g
         id="axes_3">
        <g
           id="patch_15">
          <path
             d="M 63,256.32 H 453.6 V 191.09647 H 63 Z"
             style="fill:#ffffff"
             id="path281" />
        </g>
        <g
           id="matplotlib.axis_5">
          <g
             id="xtick_13">
            <g
               id="line2d_16">
              <g
                 id="g286">
                <use
                   xlink:href="#m50acc93d1c"
                   x="115.15244"
                   y="256.32001"
                   style="stroke:#000000;stroke-width:0.8"
                   id="use284" />
              </g>
            </g>
            <g
               id="text_7">
              <!-- 00 -->
              <g
                 transform="matrix(0.1,0,0,-0.1,108.78993,270.91844)"
                 id="g296">
                <defs
                   id="defs290">
                  <path
                     id="DejaVuSans-30"
                     d="m 2034,4250 q -487,0 -733,-480 -245,-479 -245,-1442 0,-959 245,-1439 246,-480 733,-480 491,0 736,480 246,480 246,1439 0,963 -246,1442 -245,480 -736,480 z m 0,500 q 785,0 1199,-621 414,-620 414,-1801 0,-1178 -414,-1799 -414,-620 -1199,-620 -784,0 -1198,620 -414,621 -414,1799 0,1181 414,1801 414,621 1198,621 z"
                     transform="scale(0.015625)" />
                </defs>
                <use
                   xlink:href="#DejaVuSans-30"
                   id="use292" />
                <use
                   xlink:href="#DejaVuSans-30"
                   x="63.623047"
                   id="use294" />
              </g>
            </g>
          </g>
          <g
             id="xtick_14">
            <g
               id="line2d_17">
              <g
                 id="g302">
                <use
                   xlink:href="#m50acc93d1c"
                   x="180.34297"
                   y="256.32001"
                   style="stroke:#000000;stroke-width:0.8"
                   id="use300" />
              </g>
            </g>
            <g
               id="text_8">
              <!-- 01 -->
              <g
                 transform="matrix(0.1,0,0,-0.1,173.98048,270.91844)"
                 id="g312">
                <defs
                   id="defs306">
                  <path
                     id="DejaVuSans-31"
                     d="M 794,531 H 1825 V 4091 L 703,3866 v 575 l 1116,225 h 631 V 531 H 3481 V 0 H 794 Z"
                     transform="scale(0.015625)" />
                </defs>
                <use
                   xlink:href="#DejaVuSans-30"
                   id="use308" />
                <use
                   xlink:href="#DejaVuSans-31"
                   x="63.623047"
                   id="use310" />
              </g>
            </g>
          </g>
          <g
             id="xtick_15">
            <g
               id="line2d_18">
              <g
                 id="g318">
                <use
                   xlink:href="#m50acc93d1c"
                   x="245.53352"
                   y="256.32001"
                   style="stroke:#000000;stroke-width:0.8"
                   id="use316" />
              </g>
            </g>
            <g
               id="text_9">
              <!-- 02 -->
              <g
                 transform="matrix(0.1,0,0,-0.1,239.17102,270.91844)"
                 id="g328">
                <defs
                   id="defs322">
                  <path
                     id="DejaVuSans-32"
                     d="M 1228,531 H 3431 V 0 H 469 v 531 q 359,372 979,998 621,627 780,809 303,340 423,576 121,236 121,464 0,372 -261,606 -261,235 -680,235 -297,0 -627,-103 -329,-103 -704,-313 v 638 q 381,153 712,231 332,78 607,78 725,0 1156,-363 431,-362 431,-968 0,-288 -108,-546 -107,-257 -392,-607 -78,-91 -497,-524 Q 1991,1309 1228,531 Z"
                     transform="scale(0.015625)" />
                </defs>
                <use
                   xlink:href="#DejaVuSans-30"
                   id="use324" />
                <use
                   xlink:href="#DejaVuSans-32"
                   x="63.623047"
                   id="use326" />
              </g>
            </g>
          </g>
          <g
             id="xtick_16">
            <g
               id="line2d_19">
              <g
                 id="g334">
                <use
                   xlink:href="#m50acc93d1c"
                   x="310.72406"
                   y="256.32001"
                   style="stroke:#000000;stroke-width:0.8"
                   id="use332" />
              </g>
            </g>
            <g
               id="text_10">
              <!-- 03 -->
              <g
                 transform="matrix(0.1,0,0,-0.1,304.36156,270.91844)"
                 id="g344">
                <defs
                   id="defs338">
                  <path
                     id="DejaVuSans-33"
                     d="m 2597,2516 q 453,-97 707,-404 255,-306 255,-756 0,-690 -475,-1069 -475,-378 -1350,-378 -293,0 -604,58 -311,58 -642,174 v 609 q 262,-153 574,-231 313,-78 654,-78 593,0 904,234 311,234 311,681 0,413 -289,645 -289,233 -804,233 h -544 v 519 h 569 q 465,0 712,186 247,186 247,536 0,359 -255,551 -254,193 -729,193 -260,0 -557,-57 -297,-56 -653,-174 v 562 q 360,100 674,150 314,50 592,50 719,0 1137,-327 419,-326 419,-882 0,-388 -222,-655 -222,-267 -631,-370 z"
                     transform="scale(0.015625)" />
                </defs>
                <use
                   xlink:href="#DejaVuSans-30"
                   id="use340" />
                <use
                   xlink:href="#DejaVuSans-33"
                   x="63.623047"
                   id="use342" />
              </g>
            </g>
          </g>
          <g
             id="xtick_17">
            <g
               id="line2d_20">
              <g
                 id="g350">
                <use
                   xlink:href="#m50acc93d1c"
                   x="375.91461"
                   y="256.32001"
                   style="stroke:#000000;stroke-width:0.8"
                   id="use348" />
              </g>
            </g>
            <g
               id="text_11">
              <!-- 04 -->
              <g
                 transform="matrix(0.1,0,0,-0.1,369.5521,270.91844)"
                 id="g360">
                <defs
                   id="defs354">
                  <path
                     id="DejaVuSans-34"
                     d="M 2419,4116 825,1625 h 1594 z m -166,550 h 794 V 1625 h 666 V 1100 H 3047 V 0 H 2419 V 1100 H 313 v 609 z"
                     transform="scale(0.015625)" />
                </defs>
                <use
                   xlink:href="#DejaVuSans-30"
                   id="use356" />
                <use
                   xlink:href="#DejaVuSans-34"
                   x="63.623047"
                   id="use358" />
              </g>
            </g>
          </g>
          <g
             id="xtick_18">
            <g
               id="line2d_21">
              <g
                 id="g366">
                <use
                   xlink:href="#m50acc93d1c"
                   x="441.10513"
                   y="256.32001"
                   style="stroke:#000000;stroke-width:0.8"
                   id="use364" />
              </g>
            </g>
            <g
               id="text_12">
              <!-- 05 -->
              <g
                 transform="matrix(0.1,0,0,-0.1,434.74265,270.91844)"
                 id="g376">
                <defs
                   id="defs370">
                  <path
                     id="DejaVuSans-35"
                     d="M 691,4666 H 3169 V 4134 H 1269 V 2991 q 137,47 274,70 138,23 276,23 781,0 1237,-428 457,-428 457,-1159 Q 3513,744 3044,326 2575,-91 1722,-91 1428,-91 1123,-41 819,9 494,109 v 635 q 281,-153 581,-228 300,-75 634,-75 541,0 856,284 316,284 316,772 0,487 -316,771 -315,285 -856,285 -253,0 -505,-56 -251,-56 -513,-175 z"
                     transform="scale(0.015625)" />
                </defs>
                <use
                   xlink:href="#DejaVuSans-30"
                   id="use372" />
                <use
                   xlink:href="#DejaVuSans-35"
                   x="63.623047"
                   id="use374" />
              </g>
            </g>
          </g>
          <g
             id="text_13">
            <!-- time of day in hours -->
            <g
               transform="matrix(0.1,0,0,-0.1,208.01562,284.59656)"
               id="g429">
              <defs
                 id="defs387">
                <path
                   id="DejaVuSans-6d"
                   d="m 3328,2828 q 216,388 516,572 300,184 706,184 547,0 844,-383 297,-382 297,-1088 V 0 h -578 v 2094 q 0,503 -179,746 -178,244 -543,244 -447,0 -707,-297 -259,-296 -259,-809 V 0 h -578 v 2094 q 0,506 -178,748 -178,242 -550,242 -441,0 -701,-298 -259,-298 -259,-808 V 0 H 581 v 3500 h 578 v -544 q 197,322 472,475 275,153 653,153 382,0 649,-194 267,-193 395,-562 z"
                   transform="scale(0.015625)" />
                <path
                   id="DejaVuSans-20"
                   transform="scale(0.015625)"
                   d="" />
                <path
                   id="DejaVuSans-66"
                   d="m 2375,4863 v -479 h -550 q -309,0 -430,-125 -120,-125 -120,-450 v -309 h 947 V 3053 H 1275 V 0 H 697 V 3053 H 147 v 447 h 550 v 244 q 0,584 272,851 272,268 862,268 z"
                   transform="scale(0.015625)" />
                <path
                   id="DejaVuSans-79"
                   d="m 2059,-325 q -243,-625 -475,-815 -231,-191 -618,-191 H 506 v 481 h 338 q 237,0 368,113 132,112 291,531 L 1606,56 191,3500 H 800 L 1894,763 2988,3500 h 609 z"
                   transform="scale(0.015625)" />
                <path
                   id="DejaVuSans-6e"
                   d="M 3513,2113 V 0 h -575 v 2094 q 0,497 -194,743 -194,247 -581,247 -466,0 -735,-297 -269,-296 -269,-809 V 0 H 581 v 3500 h 578 v -544 q 207,316 486,472 280,156 646,156 603,0 912,-373 310,-373 310,-1098 z"
                   transform="scale(0.015625)" />
                <path
                   id="DejaVuSans-68"
                   d="M 3513,2113 V 0 h -575 v 2094 q 0,497 -194,743 -194,247 -581,247 -466,0 -735,-297 -269,-296 -269,-809 V 0 H 581 v 4863 h 578 V 2956 q 207,316 486,472 280,156 646,156 603,0 912,-373 310,-373 310,-1098 z"
                   transform="scale(0.015625)" />
                <path
                   id="DejaVuSans-75"
                   d="m 544,1381 v 2119 h 575 V 1403 q 0,-497 193,-746 194,-248 582,-248 465,0 735,297 271,297 271,810 v 1984 h 575 V 0 H 2900 V 538 Q 2691,219 2414,64 2138,-91 1772,-91 1169,-91 856,284 544,659 544,1381 Z m 1447,2203 z"
                   transform="scale(0.015625)" />
              </defs>
              <use
                 xlink:href="#DejaVuSans-74"
                 id="use389" />
              <use
                 xlink:href="#DejaVuSans-69"
                 x="39.208984"
                 id="use391" />
              <use
                 xlink:href="#DejaVuSans-6d"
                 x="66.992188"
                 id="use393" />
              <use
                 xlink:href="#DejaVuSans-65"
                 x="164.4043"
                 id="use395" />
              <use
                 xlink:href="#DejaVuSans-20"
                 x="225.92773"
                 id="use397" />
              <use
                 xlink:href="#DejaVuSans-6f"
                 x="257.71484"
                 id="use399" />
              <use
                 xlink:href="#DejaVuSans-66"
                 x="318.89648"
                 id="use401" />
              <use
                 xlink:href="#DejaVuSans-20"
                 x="354.10156"
                 id="use403" />
              <use
                 xlink:href="#DejaVuSans-64"
                 x="385.88867"
                 id="use405" />
              <use
                 xlink:href="#DejaVuSans-61"
                 x="449.36523"
                 id="use407" />
              <use
                 xlink:href="#DejaVuSans-79"
                 x="510.64453"
                 id="use409" />
              <use
                 xlink:href="#DejaVuSans-20"
                 x="569.82422"
                 id="use411" />
              <use
                 xlink:href="#DejaVuSans-69"
                 x="601.61133"
                 id="use413" />
              <use
                 xlink:href="#DejaVuSans-6e"
                 x="629.39453"
                 id="use415" />
              <use
                 xlink:href="#DejaVuSans-20"
                 x="692.77344"
                 id="use417" />
              <use
                 xlink:href="#DejaVuSans-68"
                 x="724.56055"
                 id="use419" />
              <use
                 xlink:href="#DejaVuSans-6f"
                 x="787.93945"
                 id="use421" />
              <use
                 xlink:href="#DejaVuSans-75"
                 x="849.12109"
                 id="use423" />
              <use
                 xlink:href="#DejaVuSans-72"
                 x="912.5"
                 id="use425" />
              <use
                 xlink:href="#DejaVuSans-73"
                 x="953.61328"
                 id="use427" />
            </g>
          </g>
        </g>
        <g
           id="matplotlib.axis_6">
          <g
             id="ytick_3">
            <g
               id="line2d_22">
              <g
                 id="g435">
                <use
                   xlink:href="#m8fa6d85d9d"
                   x="453.60001"
                   y="253.3553"
                   style="stroke:#000000;stroke-width:0.8"
                   id="use433" />
              </g>
            </g>
            <g
               id="text_14">
              <!-- SLEEP -->
              <g
                 transform="matrix(0.1,0,0,-0.1,460.6,257.15451)"
                 id="g448">
                <use
                   xlink:href="#DejaVuSans-53"
                   id="use438" />
                <use
                   xlink:href="#DejaVuSans-4c"
                   x="63.476562"
                   id="use440" />
                <use
                   xlink:href="#DejaVuSans-45"
                   x="119.18945"
                   id="use442" />
                <use
                   xlink:href="#DejaVuSans-45"
                   x="182.37305"
                   id="use444" />
                <use
                   xlink:href="#DejaVuSans-50"
                   x="245.55664"
                   id="use446" />
              </g>
            </g>
          </g>
          <g
             id="ytick_4">
            <g
               id="line2d_23">
              <g
                 id="g454">
                <use
                   xlink:href="#m8fa6d85d9d"
                   x="453.60001"
                   y="194.06117"
                   style="stroke:#000000;stroke-width:0.8"
                   id="use452" />
              </g>
            </g>
            <g
               id="text_15">
              <!-- WAKE -->
              <g
                 transform="matrix(0.1,0,0,-0.1,460.6,197.86039)"
                 id="g465">
                <use
                   xlink:href="#DejaVuSans-57"
                   id="use457" />
                <use
                   xlink:href="#DejaVuSans-41"
                   x="93.376953"
                   id="use459" />
                <use
                   xlink:href="#DejaVuSans-4b"
                   x="161.78516"
                   id="use461" />
                <use
                   xlink:href="#DejaVuSans-45"
                   x="227.36133"
                   id="use463" />
              </g>
            </g>
          </g>
          <g
             id="text_16">
            <!-- annotated -->
            <g
               transform="matrix(0,-0.1,-0.1,0,56.920312,249.40433)"
               id="g487">
              <use
                 xlink:href="#DejaVuSans-61"
                 id="use469" />
              <use
                 xlink:href="#DejaVuSans-6e"
                 x="61.279297"
                 id="use471" />
              <use
                 xlink:href="#DejaVuSans-6e"
                 x="124.6582"
                 id="use473" />
              <use
                 xlink:href="#DejaVuSans-6f"
                 x="188.03711"
                 id="use475" />
              <use
                 xlink:href="#DejaVuSans-74"
                 x="249.21875"
                 id="use477" />
              <use
                 xlink:href="#DejaVuSans-61"
                 x="288.42773"
                 id="use479" />
              <use
                 xlink:href="#DejaVuSans-74"
                 x="349.70703"
                 id="use481" />
              <use
                 xlink:href="#DejaVuSans-65"
                 x="388.91602"
                 id="use483" />
              <use
                 xlink:href="#DejaVuSans-64"
                 x="450.43945"
                 id="use485" />
            </g>
          </g>
        </g>
        <g
           id="line2d_24">
          <path
             d="m 63,253.35529 h 6.519054 l 0.543255,-59.29411 0.543254,59.29411 0.543255,-59.29411 0.543254,59.29411 h 1.629764 l 0.543254,-59.29411 0.543255,59.29411 h 0.543254 l 0.543255,-59.29411 h 0.543254 l 0.543255,59.29411 H 110.8064 l 0.54325,-59.29411 0.54326,59.29411 h 39.65758 l 0.54325,-59.29411 h 20.64367 l 0.54326,59.29411 h 55.95521 l 0.54326,-59.29411 0.54325,59.29411 h 20.10042 l 0.54325,-59.29411 h 7.06231 l 0.54326,59.29411 h 51.06592 l 0.54326,-59.29411 h 26.07621 l 0.54326,59.29411 h 13.03811 l 0.54325,-59.29411 0.54326,59.29411 h 0.54325 l 0.54326,-59.29411 0.54325,59.29411 h 3.80278 l 0.54325,-59.29411 0.54326,59.29411 h 8.14882 l 0.54325,-59.29411 0.54326,59.29411 h 11.40834 l 0.54326,-59.29411 h 2.17301 l 0.54326,59.29411 h 1.62976 l 0.54326,-59.29411 h 0.54325 l 0.54326,59.29411 h 11.40834 l 0.54325,-59.29411 0.54326,59.29411 h 4.88929 l 0.54325,-59.29411 0.54326,59.29411 h 5.9758 l 0.54325,-59.29411 0.54326,59.29411 h 8.69207 l 0.54325,-59.29411 0.54326,59.29411 h 3.80278 l 0.54326,-59.29411 0.54325,59.29411 h 2.17302 l 0.54325,-59.29411 h 4.34604 l 0.54325,59.29411 h 5.43255 l 0.54325,-59.29411 0.54326,59.29411 h 2.71627 l 0.54326,-59.29411 h 0.54325 l 0.54325,59.29411 h 2.17302 l 0.54326,-59.29411 h 1.62976 l 0.54326,59.29411 0.54325,-59.29411 H 453.6 v 0"
             clip-path="url(#p4da8286b72)"
             style="fill:none;stroke:#1f77b4;stroke-width:1.5;stroke-linecap:square"
             id="path491" />
        </g>
        <g
           id="patch_16">
          <path
             d="M 63,256.32 V 191.09647"
             style="fill:none;stroke:#000000;stroke-width:0.8;stroke-linecap:square;stroke-linejoin:miter"
             id="path494" />
        </g>
        <g
           id="patch_17">
          <path
             d="M 453.6,256.32 V 191.09647"
             style="fill:none;stroke:#000000;stroke-width:0.8;stroke-linecap:square;stroke-linejoin:miter"
             id="path497" />
        </g>
        <g
           id="patch_18">
          <path
             d="M 63,256.32 H 453.6"
             style="fill:none;stroke:#000000;stroke-width:0.8;stroke-linecap:square;stroke-linejoin:miter"
             id="path500" />
        </g>
        <g
           id="patch_19">
          <path
             d="M 63,191.09647 H 453.6"
             style="fill:none;stroke:#000000;stroke-width:0.8;stroke-linecap:square;stroke-linejoin:miter"
             id="path503" />
        </g>
      </g>
    </g>
  </g>
  <defs
     id="defs517">
    <clipPath
       id="pd119947ccb">
      <rect
         x="63"
         y="34.560001"
         width="390.60001"
         height="65.223526"
         id="rect508" />
    </clipPath>
    <clipPath
       id="pd4fafac9f0">
      <rect
         x="63"
         y="112.82823"
         width="390.60001"
         height="65.223526"
         id="rect511" />
    </clipPath>
    <clipPath
       id="p4da8286b72">
      <rect
         x="63"
         y="191.09647"
         width="390.60001"
         height="65.223526"
         id="rect514" />
    </clipPath>
  </defs>
</svg>
