<?xml version="1.0" encoding="UTF-8" standalone="no"?>
<!-- Generator: Adobe Illustrator 27.9.0, SVG Export Plug-In . SVG Version: 6.00 Build 0)  -->

<svg
   version="1.1"
   id="svg8"
   inkscape:export-filename="/home/jakob/Desktop/drawing.png"
   x="0px"
   y="0px"
   viewBox="0 0 3676.4342 565.47868"
   xml:space="preserve"
   sodipodi:docname="logo-openterrace.svg"
   inkscape:version="1.3.1 (9b9bdc1480, 2023-11-25, custom)"
   width="3676.4343"
   height="565.4787"
   xmlns:inkscape="http://www.inkscape.org/namespaces/inkscape"
   xmlns:sodipodi="http://sodipodi.sourceforge.net/DTD/sodipodi-0.dtd"
   xmlns="http://www.w3.org/2000/svg"
   xmlns:svg="http://www.w3.org/2000/svg"><defs
   id="defs1" />
<style
   type="text/css"
   id="style1">
	.st0{fill:#4CAE4F;}
</style>
<sodipodi:namedview
   bordercolor="#666666"
   borderopacity="1.0"
   id="base"
   inkscape:current-layer="layer1"
   inkscape:cx="2157.6858"
   inkscape:cy="959.64492"
   inkscape:document-units="mm"
   inkscape:pageopacity="0.0"
   inkscape:pageshadow="2"
   inkscape:window-height="1237"
   inkscape:window-maximized="0"
   inkscape:window-width="1984"
   inkscape:window-x="561"
   inkscape:window-y="96"
   inkscape:zoom="0.24748737"
   pagecolor="#ffffff"
   showgrid="false"
   inkscape:showpageshadow="2"
   inkscape:pagecheckerboard="0"
   inkscape:deskcolor="#d1d1d1">
	</sodipodi:namedview>
<g
   id="layer1"
   transform="translate(-406.51045,84.71439)"
   inkscape:groupmode="layer"
   inkscape:label="Layer 1">
	
		
	<g
   id="flowRoot3961"
   transform="matrix(4.8645092,0,0,4.8645092,74.750921,4142.2804)">
		<path
   id="path831"
   class="st0"
   d="m 130.2,-834.2 c 0,6.1 -0.8,12.5 -2.4,19 -1.5,6.5 -3.4,12.1 -5.6,16.8 -2.1,4.7 -4.3,8.6 -6.7,11.7 -2.3,3 -4.2,4.5 -5.7,4.5 -1.2,0 -2,0.6 -2.4,1.8 -0.2,0.7 -1.9,1.3 -5,1.8 -3,0.6 -6.2,0.9 -9.5,0.9 -2,0 -3.7,-0.3 -4.9,-0.8 -1.2,-0.5 -2.8,-1.4 -4.8,-2.9 -4,-3.2 -7.5,-8.1 -10.5,-14.9 -3,-6.8 -4.5,-13.2 -4.5,-19.2 0,-6.9 1.5,-13.7 4.6,-20.5 3.1,-6.9 7,-12 11.8,-15.4 4.5,-3.2 7.6,-4.8 9.1,-4.8 1,0 2.5,-1 4.6,-3.1 2.1,-2 3.8,-3.1 5.1,-3.1 1.4,0 2.6,-0.5 3.5,-1.5 1,-1.1 2.4,-1.6 4.2,-1.6 5.7,0 10.2,2.8 13.7,8.5 3.6,5.9 5.4,13.4 5.4,22.8 z m -6.3,-2.1 c 0,-2.2 -1.1,-5.4 -3.3,-9.8 -2.1,-4.3 -3.6,-6.7 -4.4,-7.3 -0.9,-0.6 -2.3,-0.9 -4.3,-0.9 -3.3,0 -7.6,0.9 -12.9,2.6 -11.5,3.7 -18.5,13.3 -21.1,28.7 -0.8,4.7 -1.1,7.7 -1.1,9.2 0,2.2 0.9,6 2.7,11.3 4.1,11.4 9.6,17.1 16.7,17.1 2,0 4.1,-0.5 6.3,-1.4 2.6,-1 5.9,-4.3 9.6,-9.9 3.9,-5.7 6.1,-10.4 6.7,-14.1 0.4,-3.1 1.3,-7.8 2.8,-14.1 1.6,-6 2.3,-9.9 2.3,-11.4 z" />
		<path
   id="path833"
   class="st0"
   d="m 145.6,-833.7 c 2.1,-1.9 3.2,-3.5 3.2,-4.9 0,-1.4 0.4,-3 1.2,-4.9 0.9,-2 2.2,-2.9 3.9,-2.9 1.1,0 2,0.6 2.7,1.8 0.8,1.1 1.7,1.7 2.6,1.7 0.7,0 3.5,-0.6 8.4,-1.7 4.9,-1.2 9.2,-1.8 12.9,-1.8 3.1,0 6.5,0.4 10.3,1.2 7.9,1.8 11.8,6.7 11.8,14.6 0,6 -2.3,14.1 -7,24.2 -3.1,6.7 -6.9,11.8 -11.3,15.4 -4.5,3.6 -9.2,5.3 -14.3,5.3 -1.4,0 -2.5,-0.1 -3.3,-0.2 l -5.2,-0.8 1.2,6.1 c 2.7,12.9 4.1,20.9 4.1,24.2 0,1.5 -0.3,2.5 -0.8,2.9 -0.5,0.5 -1.4,0.8 -2.7,0.8 -1.4,0 -2.3,-0.3 -2.9,-1 -0.5,-0.6 -1.1,-1.9 -1.7,-4 -2.9,-10.6 -5.3,-26.4 -7.1,-47.4 -0.8,-10.4 -1.5,-16.7 -2.2,-18.9 -0.5,-2.3 -1.6,-3.5 -3.3,-3.5 -2.4,0 -3.6,-0.7 -3.6,-2.2 -0.1,-0.8 1,-2.1 3.1,-4 z m 16.9,37.6 c 1.1,0 2.5,0.5 4,1.5 1.5,0.9 2.8,1.4 3.9,1.4 3,0 6.5,-1.9 10.4,-5.8 3.9,-3.9 7.3,-8.7 10,-14.2 2.8,-5.5 4.2,-10.4 4.2,-14.7 0,-2.3 -0.5,-4.5 -1.6,-6.3 -1,-1.9 -1.9,-2.9 -2.6,-3.2 -1.3,-0.5 -3.5,-0.8 -6.7,-0.8 -7,0 -13.3,0.9 -18.7,2.6 l -7.6,2.5 0.2,7.3 c 0.2,4.8 0.6,11 1.2,18.5 0.4,4.5 0.8,7.4 1.2,9 0.4,1.6 1.2,2.1 2.1,2.2 z" />
		<path
   id="path835"
   class="st0"
   d="m 274.3,-804.9 c 0.4,0 0.6,0.3 0.6,0.9 0,1.4 -1,3.6 -3.1,6.6 -2,3 -4.1,5.5 -6.3,7.5 -7.9,7 -15.9,10.5 -23.8,10.5 -3,0 -6,-0.7 -9.1,-2 -2.9,-1.4 -5.7,-3.4 -8.3,-6 -2.6,-2.6 -4.6,-6 -6.2,-10.3 -1.6,-4.3 -2.4,-9.1 -2.4,-14.4 0,-3.3 0.4,-6 1.1,-8.3 1.5,-4.6 4.7,-9.5 9.6,-14.6 5,-5.1 9.7,-7.7 14.1,-7.7 1.2,0 3,0.1 5.4,0.3 3.6,0.3 6.2,0.7 7.6,1.1 1.5,0.5 3.2,1.4 5.1,2.8 2.4,1.8 4.5,4.2 6.2,7 1.8,2.8 2.7,5.1 2.7,7 0,2.4 -0.9,4.3 -2.8,5.6 -1.9,1.2 -5.6,2.4 -11,3.6 -7.1,1.6 -14.1,2.6 -20.9,2.9 l -10.5,0.6 v 4.5 c 0,5.6 2.6,10.9 7.8,15.9 3.9,3.8 8,5.7 12.2,5.7 3.3,0 6.7,-1 10.3,-2.9 3.7,-2 6.8,-4.3 9.4,-6.7 2.6,-2.4 5,-4.6 7.4,-6.6 2.5,-2 4,-3 4.9,-3 z M 256,-832.6 c -2.3,-2.1 -4.1,-3.4 -5.3,-4 -1.1,-0.6 -2.6,-0.9 -4.5,-0.9 -3.8,0 -6.6,0.4 -8.5,1.1 -1.8,0.7 -3.7,2.1 -5.6,4.3 -5.7,6.6 -8.6,11 -8.6,13.2 0,1 0.9,1.5 2.7,1.5 6.9,0 16.6,-1.4 29.3,-4.3 3.8,-0.9 5.7,-2.5 5.7,-4.8 -0.1,-1 -1.8,-3.1 -5.2,-6.1 z" />
		<path
   id="path837"
   class="st0"
   d="m 294.1,-841.9 c 0,-2.6 0.8,-3.9 2.3,-3.9 1,0 1.7,1.1 2.2,3.4 0.5,2.2 1.3,8.8 2.5,19.7 1.4,11.9 2.2,18.1 2.4,18.6 0.3,-0.3 1.4,-3.4 3.3,-9.2 1.7,-5.4 3.1,-9.2 4.1,-11.3 1.1,-2.2 2.9,-5.1 5.4,-8.7 5.5,-7.6 9.8,-11.5 12.8,-11.5 2,0 3.8,1.3 5.6,4 2.3,3.5 3.8,6.9 4.3,10.3 0.5,3.4 0.9,11.5 1.1,24.2 0.2,8.2 0.2,13 0.2,14.5 0,3.8 -0.2,6.5 -0.5,8.3 -0.2,1.7 -0.6,2.7 -1.1,3.1 -0.5,0.5 -1.3,0.7 -2.5,0.8 -0.7,0 -1.1,-0.3 -1.4,-0.9 -0.2,-0.5 -0.3,-1.8 -0.3,-3.9 0,-1.1 0.1,-3.6 0.2,-7.3 0.2,-3.8 0.2,-7 0.2,-9.5 0,-6.4 -0.3,-12.7 -0.8,-18.8 -0.5,-6.2 -1,-10.2 -1.7,-11.9 -0.4,-1 -1,-2 -1.8,-3.1 -0.8,-1.1 -1.6,-1.6 -2.4,-1.6 -1.6,0 -4.1,2.7 -7.6,8.2 -3.5,5.4 -6.5,11 -9,17 -2.3,5.7 -3.9,10.1 -4.8,12.9 -0.8,2.9 -1.5,6.7 -1.9,11.5 -0.8,7.7 -1.4,11.6 -1.8,11.6 -0.6,0 -1.5,-0.6 -2.6,-1.9 -0.8,-0.8 -1.4,-2.6 -1.7,-5.3 -0.3,-2.8 -0.7,-8.3 -1.2,-16.4 -0.5,-8.2 -1.2,-16.6 -2.2,-24.9 -0.8,-8.9 -1.3,-14.8 -1.3,-18 z" />
	</g>
	
	<g
   id="flowRoot3961-9"
   transform="matrix(4.8645092,0,0,4.8645092,1642.4205,3769.9227)">
		<path
   id="path997"
   class="st0"
   d="m 50.6,-775.7 c -2.5,0 -5.1,0.3 -7.8,0.9 -2.7,0.6 -4.5,0.9 -5.3,0.9 -1.9,0 -3.5,-0.3 -4.9,-1 -1.3,-0.7 -1.9,-1.5 -1.9,-2.6 0,-1.3 0.8,-2.2 2.5,-2.6 1.7,-0.5 6.3,-1.4 13.6,-2.5 14.9,-2.3 29.1,-4.7 42.7,-7.4 8.4,-1.6 13.8,-2.4 16.3,-2.4 2.3,0 4.7,0.5 7.1,1.5 2.4,1 3.6,2.1 3.6,3.3 0,1.1 -1,2.1 -2.9,2.9 -2,0.8 -4.6,1.1 -7.8,1.1 -5.1,0 -10.5,0.7 -16.2,2 l -8.7,2 1.7,9.5 c 0.8,5.9 1.8,17.2 2.9,33.9 1.2,16.6 1.9,25.9 2.2,27.9 0.2,2 0.3,3.4 0.3,4.4 0,2.3 -1,3.5 -3.1,3.5 -2,0 -3.4,-2.5 -4.4,-7.4 -0.9,-4.9 -1.8,-14.6 -2.6,-28.9 -1.5,-24.5 -3.5,-38 -5.9,-40.6 -0.6,-0.6 -1.6,-0.9 -2.9,-0.9 -0.6,0 -3.2,0.4 -7.8,1.1 -4.6,1 -8.1,1.4 -10.7,1.4 z" />
		<path
   id="path999"
   class="st0"
   d="m 184.3,-729.8 c 0.4,0 0.6,0.3 0.6,0.9 0,1.4 -1,3.6 -3.1,6.6 -2,3 -4.1,5.5 -6.3,7.5 -7.9,7 -15.9,10.5 -23.8,10.5 -3,0 -6,-0.7 -9.1,-2 -2.9,-1.4 -5.7,-3.4 -8.3,-6 -2.6,-2.6 -4.6,-6 -6.2,-10.3 -1.6,-4.3 -2.4,-9.1 -2.4,-14.4 0,-3.3 0.4,-6 1.1,-8.3 1.5,-4.6 4.7,-9.5 9.6,-14.6 5,-5.1 9.7,-7.7 14.1,-7.7 1.2,0 3,0.1 5.4,0.3 3.6,0.3 6.2,0.7 7.6,1.1 1.5,0.5 3.2,1.4 5.1,2.8 2.4,1.8 4.5,4.2 6.2,7 1.8,2.8 2.7,5.1 2.7,7 0,2.4 -0.9,4.3 -2.8,5.6 -1.9,1.2 -5.6,2.4 -11,3.6 -7.1,1.6 -14.1,2.6 -20.9,2.9 l -10.5,0.6 v 4.5 c 0,5.6 2.6,10.9 7.8,15.9 3.9,3.8 8,5.7 12.2,5.7 3.3,0 6.7,-1 10.3,-2.9 3.7,-2 6.8,-4.3 9.4,-6.7 2.6,-2.4 5,-4.6 7.4,-6.6 2.5,-2 4,-3 4.9,-3 z M 166,-757.5 c -2.3,-2.1 -4.1,-3.4 -5.3,-4 -1.1,-0.6 -2.6,-0.9 -4.5,-0.9 -3.8,0 -6.6,0.4 -8.5,1.1 -1.8,0.7 -3.7,2.1 -5.6,4.3 -5.7,6.6 -8.6,11 -8.6,13.2 0,1 0.9,1.5 2.7,1.5 6.9,0 16.6,-1.4 29.3,-4.3 3.8,-0.9 5.7,-2.5 5.7,-4.8 -0.1,-1 -1.8,-3 -5.2,-6.1 z" />
		<path
   id="path1001"
   class="st0"
   d="m 236.8,-760.5 c 1.3,0 2.4,0.4 3.4,1.2 1,0.8 1.5,1.4 1.5,1.9 0,0.9 -1.4,1.9 -4.3,3.1 -4.7,1.9 -9.5,6.5 -14.4,13.7 -4.8,7.2 -7.8,14.1 -8.8,20.9 -1.2,7.6 -2.2,12.6 -2.9,15 -0.8,2.4 -1.7,3.6 -2.9,3.6 -1.1,0 -1.9,-0.4 -2.5,-1.1 -0.5,-0.8 -0.9,-1.6 -1.1,-2.5 -0.2,-0.9 -0.3,-2.6 -0.6,-5 -0.1,-0.5 -0.1,-0.8 -0.1,-1 -1.8,-19 -2.7,-34.1 -2.7,-45.1 0,-3.9 0.2,-6.3 0.5,-7.3 0.8,-2.4 1.9,-3.6 3.2,-3.6 1.2,0 1.8,1 1.8,3.1 0,3.4 0.5,8.9 1.6,16.4 1.1,7.6 1.9,11.3 2.4,11.3 0.7,0 2.1,-2.1 4.2,-6.2 2.6,-4.9 6.2,-9.2 10.5,-12.8 4.2,-3.8 8,-5.6 11.2,-5.6 z" />
		<path
   id="path1003"
   class="st0"
   d="m 296.4,-760.5 c 1.3,0 2.4,0.4 3.4,1.2 1,0.8 1.5,1.4 1.5,1.9 0,0.9 -1.4,1.9 -4.3,3.1 -4.7,1.9 -9.5,6.5 -14.4,13.7 -4.8,7.2 -7.8,14.1 -8.8,20.9 -1.2,7.6 -2.2,12.6 -2.9,15 -0.8,2.4 -1.7,3.6 -2.9,3.6 -1.1,0 -1.9,-0.4 -2.5,-1.1 -0.5,-0.8 -0.9,-1.6 -1.1,-2.5 -0.2,-0.9 -0.3,-2.6 -0.6,-5 -0.1,-0.5 -0.1,-0.8 -0.1,-1 -1.8,-19 -2.7,-34.1 -2.7,-45.1 0,-3.9 0.2,-6.3 0.5,-7.3 0.8,-2.4 1.9,-3.6 3.2,-3.6 1.2,0 1.8,1 1.8,3.1 0,3.4 0.5,8.9 1.6,16.4 1.1,7.6 1.9,11.3 2.4,11.3 0.7,0 2.1,-2.1 4.2,-6.2 2.6,-4.9 6.2,-9.2 10.5,-12.8 4.2,-3.8 8,-5.6 11.2,-5.6 z" />
		<path
   id="path1005"
   class="st0"
   d="m 350.2,-761.9 c -3.5,0 -7.2,0.7 -11.1,2.2 -3.9,1.4 -7.3,2.9 -10.3,4.4 -3,1.4 -5.2,2.2 -6.6,2.2 -0.9,0 -1.4,-0.4 -1.4,-1.1 0,-1.1 0.2,-2 0.7,-2.7 0.5,-0.8 1.3,-1.5 2.5,-2.2 1.2,-0.7 2.3,-1.2 3.4,-1.7 1.1,-0.5 2.9,-1.1 5.3,-1.9 2.4,-0.9 4.5,-1.7 6.2,-2.5 4.1,-1.6 7.5,-2.4 10.3,-2.4 5,0 8.9,2.7 11.7,8.2 1.4,2.6 2.2,5.1 2.4,7.4 0.2,2.2 0.4,8.4 0.6,18.7 0.1,5.7 0.2,10.6 0.3,14.5 0.2,3.9 0.3,6.3 0.5,7.4 l 0.2,1.5 c 0,1.1 -0.5,2.2 -1.5,3.4 -0.9,1.2 -1.6,1.8 -2,1.8 -1.5,0 -2.7,-2.4 -3.5,-7.1 -0.8,-4.8 -1.3,-7.3 -1.4,-7.3 -0.2,0 -0.6,0.4 -1,1.2 -1.5,2.5 -4.6,5.3 -9.2,8.3 -4.5,2.9 -8.4,4.4 -11.5,4.4 -1.9,0 -4.1,-0.3 -6.7,-1 -2.5,-0.8 -4.3,-1.5 -5.4,-2.4 -0.8,-0.7 -1.5,-2 -2.2,-4.1 -0.5,-2 -0.8,-4.1 -0.8,-6.2 0,-3.2 0.8,-5.9 2.5,-8.2 1.7,-2.3 4.8,-4.7 9.2,-7.1 4.8,-2.8 9.4,-4.2 13.8,-4.2 1.8,0 3.3,0.3 4.5,0.9 1.2,0.6 2.1,1.2 2.7,1.9 0.6,0.6 1.1,0.9 1.5,0.9 0.3,0 1,0.4 2.2,1.2 1.1,0.8 1.7,1.1 1.8,1.1 0.3,0 0.5,-0.8 0.5,-2.5 0,-10.1 -0.7,-17.2 -2.2,-21.1 -1.3,-3.9 -3.3,-5.9 -6,-5.9 z m 5.1,35.2 c 0,-0.3 -0.1,-0.6 -0.3,-1 -0.2,-0.5 -0.5,-0.9 -1.1,-1.5 -0.5,-0.6 -1.2,-1.1 -2.2,-1.6 -0.8,-0.5 -2,-0.9 -3.5,-1.2 -1.5,-0.4 -3.2,-0.6 -5.1,-0.6 -3.3,0 -6.1,0.6 -8.6,1.7 -2.4,1.1 -4.2,2.6 -5.4,4.3 -1.2,1.7 -2.1,3.4 -2.7,4.9 -0.5,1.4 -0.8,2.7 -0.8,3.9 0,1.9 0.2,3.2 0.5,3.9 0.4,0.7 1.2,1.4 2.6,2.2 1.7,0.8 3.2,1.2 4.5,1.2 2.6,0 5.7,-0.9 9.5,-2.7 3.9,-1.9 5.8,-3.3 5.8,-4.1 0,-0.6 1.1,-2 3.4,-4.3 2.2,-2.5 3.4,-4.2 3.4,-5.1 z" />
		<path
   id="path1007"
   class="st0"
   d="m 429.4,-751 c 0,1.3 -0.3,2.3 -0.9,3.2 -0.5,0.8 -1.2,1.2 -1.9,1.2 -1.4,0 -2.3,-1.1 -2.7,-3.3 -0.2,-1.7 -1.4,-3.9 -3.7,-6.6 -1,-1.1 -1.8,-1.8 -2.4,-2.3 -0.6,-0.5 -2,-0.9 -4.3,-1.5 -2.2,-0.5 -5.1,-0.8 -8.7,-0.8 -2.9,0 -5.2,0.5 -6.8,1.6 -1.5,1.1 -3.4,3.2 -5.7,6.5 -5.4,7.7 -8.2,14.7 -8.2,20.9 0,3.2 0.3,5.9 1,8.1 0.7,2.1 1.3,3.6 1.9,4.3 0.7,0.7 1.8,1.8 3.3,3.3 2.2,2.1 3.9,3.5 5,4.1 1.2,0.5 2.9,0.8 5,0.8 6.6,0 13.8,-4.5 21.5,-13.4 4.1,-4.5 7,-6.8 8.8,-6.8 1,0 1.5,0.7 1.5,2.2 0,1.4 -1.8,4.3 -5.4,8.7 -3.6,4.5 -6.6,7.6 -9.2,9.4 -6,4.3 -11.3,6.5 -16,6.5 -3.4,0 -7.1,-1 -11.2,-3.1 -4.2,-2 -7.2,-4.8 -9.1,-8.3 -1.8,-3.5 -2.9,-8.5 -3.3,-15.2 -0.2,-2.6 -0.3,-4.6 -0.3,-6.1 0,-2.9 1,-6.3 3.1,-10.1 2.1,-4.1 5.2,-8 9.2,-11.8 4.1,-3.8 7.6,-6.1 10.5,-6.9 2.3,-0.5 4.7,-0.8 7.4,-0.8 5.7,0 10.8,1.9 15.1,5.6 4.3,3.6 6.5,7.1 6.5,10.6 z" />
		<path
   id="path1009"
   class="st0"
   d="m 501.1,-729.8 c 0.4,0 0.6,0.3 0.6,0.9 0,1.4 -1,3.6 -3.1,6.6 -2,3 -4.1,5.5 -6.3,7.5 -7.9,7 -15.9,10.5 -23.8,10.5 -3,0 -6,-0.7 -9.1,-2 -2.9,-1.4 -5.7,-3.4 -8.3,-6 -2.6,-2.6 -4.6,-6 -6.2,-10.3 -1.6,-4.3 -2.4,-9.1 -2.4,-14.4 0,-3.3 0.4,-6 1.1,-8.3 1.5,-4.6 4.7,-9.5 9.6,-14.6 5,-5.1 9.7,-7.7 14.1,-7.7 1.2,0 3,0.1 5.4,0.3 3.6,0.3 6.2,0.7 7.6,1.1 1.5,0.5 3.2,1.4 5.1,2.8 2.4,1.8 4.5,4.2 6.2,7 1.8,2.8 2.7,5.1 2.7,7 0,2.4 -0.9,4.3 -2.8,5.6 -1.9,1.2 -5.6,2.4 -11,3.6 -7.1,1.6 -14.1,2.6 -20.9,2.9 l -10.5,0.6 v 4.5 c 0,5.6 2.6,10.9 7.8,15.9 3.9,3.8 8,5.7 12.2,5.7 3.3,0 6.7,-1 10.3,-2.9 3.7,-2 6.8,-4.3 9.4,-6.7 2.6,-2.4 5,-4.6 7.4,-6.6 2.5,-2 4,-3 4.9,-3 z m -18.3,-27.7 c -2.3,-2.1 -4.1,-3.4 -5.3,-4 -1.1,-0.6 -2.6,-0.9 -4.5,-0.9 -3.8,0 -6.6,0.4 -8.5,1.1 -1.8,0.7 -3.7,2.1 -5.6,4.3 -5.7,6.6 -8.6,11 -8.6,13.2 0,1 0.9,1.5 2.7,1.5 6.9,0 16.6,-1.4 29.3,-4.3 3.8,-0.9 5.7,-2.5 5.7,-4.8 -0.1,-1 -1.8,-3 -5.2,-6.1 z" />
	</g>
	<g
   id="text828">
	</g>
</g>
</svg>
