<?xml version="1.0" encoding="UTF-8" standalone="no"?>
<svg
   width="576pt"
   height="432pt"
   viewBox="0 0 576 432"
   version="1.1"
   id="svg170"
   sodipodi:docname="virgo_relative_epoch_time_speedup.svg"
   inkscape:version="1.4 (86a8ad7, 2024-10-11)"
   xmlns:inkscape="http://www.inkscape.org/namespaces/inkscape"
   xmlns:sodipodi="http://sodipodi.sourceforge.net/DTD/sodipodi-0.dtd"
   xmlns:xlink="http://www.w3.org/1999/xlink"
   xmlns="http://www.w3.org/2000/svg"
   xmlns:svg="http://www.w3.org/2000/svg"
   xmlns:rdf="http://www.w3.org/1999/02/22-rdf-syntax-ns#"
   xmlns:cc="http://creativecommons.org/ns#"
   xmlns:dc="http://purl.org/dc/elements/1.1/">
  <sodipodi:namedview
     id="namedview170"
     pagecolor="#ffffff"
     bordercolor="#000000"
     borderopacity="0.25"
     inkscape:showpageshadow="2"
     inkscape:pageopacity="0.0"
     inkscape:pagecheckerboard="0"
     inkscape:deskcolor="#d1d1d1"
     inkscape:document-units="pt"
     inkscape:zoom="2.0260417"
     inkscape:cx="384"
     inkscape:cy="288"
     inkscape:window-width="2560"
     inkscape:window-height="1369"
     inkscape:window-x="2552"
     inkscape:window-y="3"
     inkscape:window-maximized="1"
     inkscape:current-layer="axes_1" />
  <metadata
     id="metadata1">
    <rdf:RDF>
      <cc:Work>
        <dc:type
           rdf:resource="http://purl.org/dc/dcmitype/StillImage" />
        <dc:date>2025-08-14T11:55:18.000087</dc:date>
        <dc:format>image/svg+xml</dc:format>
        <dc:creator>
          <cc:Agent>
            <dc:title>Matplotlib v3.10.3, https://matplotlib.org/</dc:title>
          </cc:Agent>
        </dc:creator>
      </cc:Work>
    </rdf:RDF>
  </metadata>
  <defs
     id="defs1">
    <style
       type="text/css"
       id="style1">*{stroke-linejoin: round; stroke-linecap: butt}</style>
  </defs>
  <g
     id="figure_1">
    <g
       id="patch_1">
      <path
         d="M 0 432  L 576 432  L 576 0  L 0 0  z "
         style="fill: #ffffff"
         id="path1" />
    </g>
    <g
       id="axes_1">
      <g
         id="patch_2">
        <path
           d="M 63.72 381.78  L 563.04 381.78  L 563.04 29.04  L 63.72 29.04  z "
           style="fill: #eaeaf2"
           id="path2" />
      </g>
      <g
         id="matplotlib.axis_1">
        <g
           id="xtick_1">
          <g
             id="line2d_1">
            <path
               d="M 86.416364 381.78  L 86.416364 29.04  "
               clip-path="url(#p944442639b)"
               style="fill: none; stroke: #ffffff; stroke-linecap: round"
               id="path3" />
          </g>
          <g
             id="text_1">
            <!-- 4 -->
            <g
               style="fill: #262626"
               transform="translate(82.916989 399.638281) scale(0.11 -0.11)"
               id="g3">
              <defs
                 id="defs3">
                <path
                   id="DejaVuSans-34"
                   d="M 2419 4116  L 825 1625  L 2419 1625  L 2419 4116  z M 2253 4666  L 3047 4666  L 3047 1625  L 3713 1625  L 3713 1100  L 3047 1100  L 3047 0  L 2419 0  L 2419 1100  L 313 1100  L 313 1709  L 2253 4666  z "
                   transform="scale(0.015625)" />
              </defs>
              <use
                 xlink:href="#DejaVuSans-34"
                 id="use3" />
            </g>
          </g>
        </g>
        <g
           id="xtick_2">
          <g
             id="line2d_2">
            <path
               d="M 237.725455 381.78  L 237.725455 29.04  "
               clip-path="url(#p944442639b)"
               style="fill: none; stroke: #ffffff; stroke-linecap: round"
               id="path4" />
          </g>
          <g
             id="text_2">
            <!-- 8 -->
            <g
               style="fill: #262626"
               transform="translate(234.22608 399.638281) scale(0.11 -0.11)"
               id="g4">
              <defs
                 id="defs4">
                <path
                   id="DejaVuSans-38"
                   d="M 2034 2216  Q 1584 2216 1326 1975  Q 1069 1734 1069 1313  Q 1069 891 1326 650  Q 1584 409 2034 409  Q 2484 409 2743 651  Q 3003 894 3003 1313  Q 3003 1734 2745 1975  Q 2488 2216 2034 2216  z M 1403 2484  Q 997 2584 770 2862  Q 544 3141 544 3541  Q 544 4100 942 4425  Q 1341 4750 2034 4750  Q 2731 4750 3128 4425  Q 3525 4100 3525 3541  Q 3525 3141 3298 2862  Q 3072 2584 2669 2484  Q 3125 2378 3379 2068  Q 3634 1759 3634 1313  Q 3634 634 3220 271  Q 2806 -91 2034 -91  Q 1263 -91 848 271  Q 434 634 434 1313  Q 434 1759 690 2068  Q 947 2378 1403 2484  z M 1172 3481  Q 1172 3119 1398 2916  Q 1625 2713 2034 2713  Q 2441 2713 2670 2916  Q 2900 3119 2900 3481  Q 2900 3844 2670 4047  Q 2441 4250 2034 4250  Q 1625 4250 1398 4047  Q 1172 3844 1172 3481  z "
                   transform="scale(0.015625)" />
              </defs>
              <use
                 xlink:href="#DejaVuSans-38"
                 id="use4" />
            </g>
          </g>
        </g>
        <g
           id="xtick_3">
          <g
             id="line2d_3">
            <path
               d="M 389.034545 381.78  L 389.034545 29.04  "
               clip-path="url(#p944442639b)"
               style="fill: none; stroke: #ffffff; stroke-linecap: round"
               id="path5" />
          </g>
          <g
             id="text_3">
            <!-- 16 -->
            <g
               style="fill: #262626"
               transform="translate(382.035795 399.638281) scale(0.11 -0.11)"
               id="g6">
              <defs
                 id="defs5">
                <path
                   id="DejaVuSans-31"
                   d="M 794 531  L 1825 531  L 1825 4091  L 703 3866  L 703 4441  L 1819 4666  L 2450 4666  L 2450 531  L 3481 531  L 3481 0  L 794 0  L 794 531  z "
                   transform="scale(0.015625)" />
                <path
                   id="DejaVuSans-36"
                   d="M 2113 2584  Q 1688 2584 1439 2293  Q 1191 2003 1191 1497  Q 1191 994 1439 701  Q 1688 409 2113 409  Q 2538 409 2786 701  Q 3034 994 3034 1497  Q 3034 2003 2786 2293  Q 2538 2584 2113 2584  z M 3366 4563  L 3366 3988  Q 3128 4100 2886 4159  Q 2644 4219 2406 4219  Q 1781 4219 1451 3797  Q 1122 3375 1075 2522  Q 1259 2794 1537 2939  Q 1816 3084 2150 3084  Q 2853 3084 3261 2657  Q 3669 2231 3669 1497  Q 3669 778 3244 343  Q 2819 -91 2113 -91  Q 1303 -91 875 529  Q 447 1150 447 2328  Q 447 3434 972 4092  Q 1497 4750 2381 4750  Q 2619 4750 2861 4703  Q 3103 4656 3366 4563  z "
                   transform="scale(0.015625)" />
              </defs>
              <use
                 xlink:href="#DejaVuSans-31"
                 id="use5" />
              <use
                 xlink:href="#DejaVuSans-36"
                 transform="translate(63.623047 0)"
                 id="use6" />
            </g>
          </g>
        </g>
        <g
           id="xtick_4">
          <g
             id="line2d_4">
            <path
               d="M 540.343636 381.78  L 540.343636 29.04  "
               clip-path="url(#p944442639b)"
               style="fill: none; stroke: #ffffff; stroke-linecap: round"
               id="path6" />
          </g>
          <g
             id="text_4">
            <!-- 32 -->
            <g
               style="fill: #262626"
               transform="translate(533.344886 399.638281) scale(0.11 -0.11)"
               id="g8">
              <defs
                 id="defs6">
                <path
                   id="DejaVuSans-33"
                   d="M 2597 2516  Q 3050 2419 3304 2112  Q 3559 1806 3559 1356  Q 3559 666 3084 287  Q 2609 -91 1734 -91  Q 1441 -91 1130 -33  Q 819 25 488 141  L 488 750  Q 750 597 1062 519  Q 1375 441 1716 441  Q 2309 441 2620 675  Q 2931 909 2931 1356  Q 2931 1769 2642 2001  Q 2353 2234 1838 2234  L 1294 2234  L 1294 2753  L 1863 2753  Q 2328 2753 2575 2939  Q 2822 3125 2822 3475  Q 2822 3834 2567 4026  Q 2313 4219 1838 4219  Q 1578 4219 1281 4162  Q 984 4106 628 3988  L 628 4550  Q 988 4650 1302 4700  Q 1616 4750 1894 4750  Q 2613 4750 3031 4423  Q 3450 4097 3450 3541  Q 3450 3153 3228 2886  Q 3006 2619 2597 2516  z "
                   transform="scale(0.015625)" />
                <path
                   id="DejaVuSans-32"
                   d="M 1228 531  L 3431 531  L 3431 0  L 469 0  L 469 531  Q 828 903 1448 1529  Q 2069 2156 2228 2338  Q 2531 2678 2651 2914  Q 2772 3150 2772 3378  Q 2772 3750 2511 3984  Q 2250 4219 1831 4219  Q 1534 4219 1204 4116  Q 875 4013 500 3803  L 500 4441  Q 881 4594 1212 4672  Q 1544 4750 1819 4750  Q 2544 4750 2975 4387  Q 3406 4025 3406 3419  Q 3406 3131 3298 2873  Q 3191 2616 2906 2266  Q 2828 2175 2409 1742  Q 1991 1309 1228 531  z "
                   transform="scale(0.015625)" />
              </defs>
              <use
                 xlink:href="#DejaVuSans-33"
                 id="use7" />
              <use
                 xlink:href="#DejaVuSans-32"
                 transform="translate(63.623047 0)"
                 id="use8" />
            </g>
          </g>
        </g>
        <g
           id="text_5">
          <!-- Number of workers -->
          <g
             style="fill: #262626"
             transform="translate(256.094063 415.044062) scale(0.12 -0.12)"
             id="g25">
            <defs
               id="defs8">
              <path
                 id="DejaVuSans-4e"
                 d="M 628 4666  L 1478 4666  L 3547 763  L 3547 4666  L 4159 4666  L 4159 0  L 3309 0  L 1241 3903  L 1241 0  L 628 0  L 628 4666  z "
                 transform="scale(0.015625)" />
              <path
                 id="DejaVuSans-75"
                 d="M 544 1381  L 544 3500  L 1119 3500  L 1119 1403  Q 1119 906 1312 657  Q 1506 409 1894 409  Q 2359 409 2629 706  Q 2900 1003 2900 1516  L 2900 3500  L 3475 3500  L 3475 0  L 2900 0  L 2900 538  Q 2691 219 2414 64  Q 2138 -91 1772 -91  Q 1169 -91 856 284  Q 544 659 544 1381  z M 1991 3584  L 1991 3584  z "
                 transform="scale(0.015625)" />
              <path
                 id="DejaVuSans-6d"
                 d="M 3328 2828  Q 3544 3216 3844 3400  Q 4144 3584 4550 3584  Q 5097 3584 5394 3201  Q 5691 2819 5691 2113  L 5691 0  L 5113 0  L 5113 2094  Q 5113 2597 4934 2840  Q 4756 3084 4391 3084  Q 3944 3084 3684 2787  Q 3425 2491 3425 1978  L 3425 0  L 2847 0  L 2847 2094  Q 2847 2600 2669 2842  Q 2491 3084 2119 3084  Q 1678 3084 1418 2786  Q 1159 2488 1159 1978  L 1159 0  L 581 0  L 581 3500  L 1159 3500  L 1159 2956  Q 1356 3278 1631 3431  Q 1906 3584 2284 3584  Q 2666 3584 2933 3390  Q 3200 3197 3328 2828  z "
                 transform="scale(0.015625)" />
              <path
                 id="DejaVuSans-62"
                 d="M 3116 1747  Q 3116 2381 2855 2742  Q 2594 3103 2138 3103  Q 1681 3103 1420 2742  Q 1159 2381 1159 1747  Q 1159 1113 1420 752  Q 1681 391 2138 391  Q 2594 391 2855 752  Q 3116 1113 3116 1747  z M 1159 2969  Q 1341 3281 1617 3432  Q 1894 3584 2278 3584  Q 2916 3584 3314 3078  Q 3713 2572 3713 1747  Q 3713 922 3314 415  Q 2916 -91 2278 -91  Q 1894 -91 1617 61  Q 1341 213 1159 525  L 1159 0  L 581 0  L 581 4863  L 1159 4863  L 1159 2969  z "
                 transform="scale(0.015625)" />
              <path
                 id="DejaVuSans-65"
                 d="M 3597 1894  L 3597 1613  L 953 1613  Q 991 1019 1311 708  Q 1631 397 2203 397  Q 2534 397 2845 478  Q 3156 559 3463 722  L 3463 178  Q 3153 47 2828 -22  Q 2503 -91 2169 -91  Q 1331 -91 842 396  Q 353 884 353 1716  Q 353 2575 817 3079  Q 1281 3584 2069 3584  Q 2775 3584 3186 3129  Q 3597 2675 3597 1894  z M 3022 2063  Q 3016 2534 2758 2815  Q 2500 3097 2075 3097  Q 1594 3097 1305 2825  Q 1016 2553 972 2059  L 3022 2063  z "
                 transform="scale(0.015625)" />
              <path
                 id="DejaVuSans-72"
                 d="M 2631 2963  Q 2534 3019 2420 3045  Q 2306 3072 2169 3072  Q 1681 3072 1420 2755  Q 1159 2438 1159 1844  L 1159 0  L 581 0  L 581 3500  L 1159 3500  L 1159 2956  Q 1341 3275 1631 3429  Q 1922 3584 2338 3584  Q 2397 3584 2469 3576  Q 2541 3569 2628 3553  L 2631 2963  z "
                 transform="scale(0.015625)" />
              <path
                 id="DejaVuSans-20"
                 transform="scale(0.015625)" />
              <path
                 id="DejaVuSans-6f"
                 d="M 1959 3097  Q 1497 3097 1228 2736  Q 959 2375 959 1747  Q 959 1119 1226 758  Q 1494 397 1959 397  Q 2419 397 2687 759  Q 2956 1122 2956 1747  Q 2956 2369 2687 2733  Q 2419 3097 1959 3097  z M 1959 3584  Q 2709 3584 3137 3096  Q 3566 2609 3566 1747  Q 3566 888 3137 398  Q 2709 -91 1959 -91  Q 1206 -91 779 398  Q 353 888 353 1747  Q 353 2609 779 3096  Q 1206 3584 1959 3584  z "
                 transform="scale(0.015625)" />
              <path
                 id="DejaVuSans-66"
                 d="M 2375 4863  L 2375 4384  L 1825 4384  Q 1516 4384 1395 4259  Q 1275 4134 1275 3809  L 1275 3500  L 2222 3500  L 2222 3053  L 1275 3053  L 1275 0  L 697 0  L 697 3053  L 147 3053  L 147 3500  L 697 3500  L 697 3744  Q 697 4328 969 4595  Q 1241 4863 1831 4863  L 2375 4863  z "
                 transform="scale(0.015625)" />
              <path
                 id="DejaVuSans-77"
                 d="M 269 3500  L 844 3500  L 1563 769  L 2278 3500  L 2956 3500  L 3675 769  L 4391 3500  L 4966 3500  L 4050 0  L 3372 0  L 2619 2869  L 1863 0  L 1184 0  L 269 3500  z "
                 transform="scale(0.015625)" />
              <path
                 id="DejaVuSans-6b"
                 d="M 581 4863  L 1159 4863  L 1159 1991  L 2875 3500  L 3609 3500  L 1753 1863  L 3688 0  L 2938 0  L 1159 1709  L 1159 0  L 581 0  L 581 4863  z "
                 transform="scale(0.015625)" />
              <path
                 id="DejaVuSans-73"
                 d="M 2834 3397  L 2834 2853  Q 2591 2978 2328 3040  Q 2066 3103 1784 3103  Q 1356 3103 1142 2972  Q 928 2841 928 2578  Q 928 2378 1081 2264  Q 1234 2150 1697 2047  L 1894 2003  Q 2506 1872 2764 1633  Q 3022 1394 3022 966  Q 3022 478 2636 193  Q 2250 -91 1575 -91  Q 1294 -91 989 -36  Q 684 19 347 128  L 347 722  Q 666 556 975 473  Q 1284 391 1588 391  Q 1994 391 2212 530  Q 2431 669 2431 922  Q 2431 1156 2273 1281  Q 2116 1406 1581 1522  L 1381 1569  Q 847 1681 609 1914  Q 372 2147 372 2553  Q 372 3047 722 3315  Q 1072 3584 1716 3584  Q 2034 3584 2315 3537  Q 2597 3491 2834 3397  z "
                 transform="scale(0.015625)" />
            </defs>
            <use
               xlink:href="#DejaVuSans-4e"
               id="use9" />
            <use
               xlink:href="#DejaVuSans-75"
               transform="translate(74.804688 0)"
               id="use10" />
            <use
               xlink:href="#DejaVuSans-6d"
               transform="translate(138.183594 0)"
               id="use11" />
            <use
               xlink:href="#DejaVuSans-62"
               transform="translate(235.595703 0)"
               id="use12" />
            <use
               xlink:href="#DejaVuSans-65"
               transform="translate(299.072266 0)"
               id="use13" />
            <use
               xlink:href="#DejaVuSans-72"
               transform="translate(360.595703 0)"
               id="use14" />
            <use
               xlink:href="#DejaVuSans-20"
               transform="translate(401.708984 0)"
               id="use15" />
            <use
               xlink:href="#DejaVuSans-6f"
               transform="translate(433.496094 0)"
               id="use16" />
            <use
               xlink:href="#DejaVuSans-66"
               transform="translate(494.677734 0)"
               id="use17" />
            <use
               xlink:href="#DejaVuSans-20"
               transform="translate(529.882812 0)"
               id="use18" />
            <use
               xlink:href="#DejaVuSans-77"
               transform="translate(561.669922 0)"
               id="use19" />
            <use
               xlink:href="#DejaVuSans-6f"
               transform="translate(643.457031 0)"
               id="use20" />
            <use
               xlink:href="#DejaVuSans-72"
               transform="translate(704.638672 0)"
               id="use21" />
            <use
               xlink:href="#DejaVuSans-6b"
               transform="translate(745.751953 0)"
               id="use22" />
            <use
               xlink:href="#DejaVuSans-65"
               transform="translate(800.037109 0)"
               id="use23" />
            <use
               xlink:href="#DejaVuSans-72"
               transform="translate(861.560547 0)"
               id="use24" />
            <use
               xlink:href="#DejaVuSans-73"
               transform="translate(902.673828 0)"
               id="use25" />
          </g>
        </g>
      </g>
      <g
         id="matplotlib.axis_2">
        <g
           id="ytick_1">
          <g
             id="line2d_5">
            <path
               d="M 63.72 365.746364  L 563.04 365.746364  "
               clip-path="url(#p944442639b)"
               style="fill: none; stroke: #ffffff; stroke-linecap: round"
               id="path25" />
          </g>
          <g
             id="text_6">
            <!-- 1.00 -->
            <g
               style="fill: #262626"
               transform="translate(29.727812 369.925504) scale(0.11 -0.11)"
               id="g29">
              <defs
                 id="defs25">
                <path
                   id="DejaVuSans-2e"
                   d="M 684 794  L 1344 794  L 1344 0  L 684 0  L 684 794  z "
                   transform="scale(0.015625)" />
                <path
                   id="DejaVuSans-30"
                   d="M 2034 4250  Q 1547 4250 1301 3770  Q 1056 3291 1056 2328  Q 1056 1369 1301 889  Q 1547 409 2034 409  Q 2525 409 2770 889  Q 3016 1369 3016 2328  Q 3016 3291 2770 3770  Q 2525 4250 2034 4250  z M 2034 4750  Q 2819 4750 3233 4129  Q 3647 3509 3647 2328  Q 3647 1150 3233 529  Q 2819 -91 2034 -91  Q 1250 -91 836 529  Q 422 1150 422 2328  Q 422 3509 836 4129  Q 1250 4750 2034 4750  z "
                   transform="scale(0.015625)" />
              </defs>
              <use
                 xlink:href="#DejaVuSans-31"
                 id="use26" />
              <use
                 xlink:href="#DejaVuSans-2e"
                 transform="translate(63.623047 0)"
                 id="use27" />
              <use
                 xlink:href="#DejaVuSans-30"
                 transform="translate(95.410156 0)"
                 id="use28" />
              <use
                 xlink:href="#DejaVuSans-30"
                 transform="translate(159.033203 0)"
                 id="use29" />
            </g>
          </g>
        </g>
        <g
           id="ytick_2">
          <g
             id="line2d_6">
            <path
               d="M 63.72 258.855455  L 563.04 258.855455  "
               clip-path="url(#p944442639b)"
               style="fill: none; stroke: #ffffff; stroke-linecap: round"
               id="path29" />
          </g>
          <g
             id="text_7">
            <!-- 2.00 -->
            <g
               style="fill: #262626"
               transform="translate(29.727812 263.034595) scale(0.11 -0.11)"
               id="g33">
              <use
                 xlink:href="#DejaVuSans-32"
                 id="use30" />
              <use
                 xlink:href="#DejaVuSans-2e"
                 transform="translate(63.623047 0)"
                 id="use31" />
              <use
                 xlink:href="#DejaVuSans-30"
                 transform="translate(95.410156 0)"
                 id="use32" />
              <use
                 xlink:href="#DejaVuSans-30"
                 transform="translate(159.033203 0)"
                 id="use33" />
            </g>
          </g>
        </g>
        <g
           id="ytick_3">
          <g
             id="line2d_7">
            <path
               d="M 63.72 151.964545  L 563.04 151.964545  "
               clip-path="url(#p944442639b)"
               style="fill: none; stroke: #ffffff; stroke-linecap: round"
               id="path33" />
          </g>
          <g
             id="text_8">
            <!-- 4.00 -->
            <g
               style="fill: #262626"
               transform="translate(29.727812 156.143686) scale(0.11 -0.11)"
               id="g37">
              <use
                 xlink:href="#DejaVuSans-34"
                 id="use34" />
              <use
                 xlink:href="#DejaVuSans-2e"
                 transform="translate(63.623047 0)"
                 id="use35" />
              <use
                 xlink:href="#DejaVuSans-30"
                 transform="translate(95.410156 0)"
                 id="use36" />
              <use
                 xlink:href="#DejaVuSans-30"
                 transform="translate(159.033203 0)"
                 id="use37" />
            </g>
          </g>
        </g>
        <g
           id="ytick_4">
          <g
             id="line2d_8">
            <path
               d="M 63.72 45.073636  L 563.04 45.073636  "
               clip-path="url(#p944442639b)"
               style="fill: none; stroke: #ffffff; stroke-linecap: round"
               id="path37" />
          </g>
          <g
             id="text_9">
            <!-- 8.00 -->
            <g
               style="fill: #262626"
               transform="translate(29.727812 49.252777) scale(0.11 -0.11)"
               id="g41">
              <use
                 xlink:href="#DejaVuSans-38"
                 id="use38" />
              <use
                 xlink:href="#DejaVuSans-2e"
                 transform="translate(63.623047 0)"
                 id="use39" />
              <use
                 xlink:href="#DejaVuSans-30"
                 transform="translate(95.410156 0)"
                 id="use40" />
              <use
                 xlink:href="#DejaVuSans-30"
                 transform="translate(159.033203 0)"
                 id="use41" />
            </g>
          </g>
        </g>
        <g
           id="text_10">
          <!-- Speedup -->
          <g
             style="fill: #262626"
             transform="translate(23.232187 231.8325) rotate(-90) scale(0.12 -0.12)"
             id="g48">
            <defs
               id="defs41">
              <path
                 id="DejaVuSans-53"
                 d="M 3425 4513  L 3425 3897  Q 3066 4069 2747 4153  Q 2428 4238 2131 4238  Q 1616 4238 1336 4038  Q 1056 3838 1056 3469  Q 1056 3159 1242 3001  Q 1428 2844 1947 2747  L 2328 2669  Q 3034 2534 3370 2195  Q 3706 1856 3706 1288  Q 3706 609 3251 259  Q 2797 -91 1919 -91  Q 1588 -91 1214 -16  Q 841 59 441 206  L 441 856  Q 825 641 1194 531  Q 1563 422 1919 422  Q 2459 422 2753 634  Q 3047 847 3047 1241  Q 3047 1584 2836 1778  Q 2625 1972 2144 2069  L 1759 2144  Q 1053 2284 737 2584  Q 422 2884 422 3419  Q 422 4038 858 4394  Q 1294 4750 2059 4750  Q 2388 4750 2728 4690  Q 3069 4631 3425 4513  z "
                 transform="scale(0.015625)" />
              <path
                 id="DejaVuSans-70"
                 d="M 1159 525  L 1159 -1331  L 581 -1331  L 581 3500  L 1159 3500  L 1159 2969  Q 1341 3281 1617 3432  Q 1894 3584 2278 3584  Q 2916 3584 3314 3078  Q 3713 2572 3713 1747  Q 3713 922 3314 415  Q 2916 -91 2278 -91  Q 1894 -91 1617 61  Q 1341 213 1159 525  z M 3116 1747  Q 3116 2381 2855 2742  Q 2594 3103 2138 3103  Q 1681 3103 1420 2742  Q 1159 2381 1159 1747  Q 1159 1113 1420 752  Q 1681 391 2138 391  Q 2594 391 2855 752  Q 3116 1113 3116 1747  z "
                 transform="scale(0.015625)" />
              <path
                 id="DejaVuSans-64"
                 d="M 2906 2969  L 2906 4863  L 3481 4863  L 3481 0  L 2906 0  L 2906 525  Q 2725 213 2448 61  Q 2172 -91 1784 -91  Q 1150 -91 751 415  Q 353 922 353 1747  Q 353 2572 751 3078  Q 1150 3584 1784 3584  Q 2172 3584 2448 3432  Q 2725 3281 2906 2969  z M 947 1747  Q 947 1113 1208 752  Q 1469 391 1925 391  Q 2381 391 2643 752  Q 2906 1113 2906 1747  Q 2906 2381 2643 2742  Q 2381 3103 1925 3103  Q 1469 3103 1208 2742  Q 947 2381 947 1747  z "
                 transform="scale(0.015625)" />
            </defs>
            <use
               xlink:href="#DejaVuSans-53"
               id="use42" />
            <use
               xlink:href="#DejaVuSans-70"
               transform="translate(63.476562 0)"
               id="use43" />
            <use
               xlink:href="#DejaVuSans-65"
               transform="translate(126.953125 0)"
               id="use44" />
            <use
               xlink:href="#DejaVuSans-65"
               transform="translate(188.476562 0)"
               id="use45" />
            <use
               xlink:href="#DejaVuSans-64"
               transform="translate(250 0)"
               id="use46" />
            <use
               xlink:href="#DejaVuSans-75"
               transform="translate(313.476562 0)"
               id="use47" />
            <use
               xlink:href="#DejaVuSans-70"
               transform="translate(376.855469 0)"
               id="use48" />
          </g>
        </g>
      </g>
      <g
         id="line2d_9">
        <path
           d="M 86.416364 365.746364  L 237.725455 271.293391  L 389.034545 180.339201  L 540.343636 99.167794  "
           clip-path="url(#p944442639b)"
           style="fill: none; stroke: #4c72b0; stroke-opacity: 0.7; stroke-linecap: round"
           id="path48" />
        <defs
           id="defs48">
          <path
             id="mdf2ff66162"
             d="M -3 3  L 3 3  L 3 -3  L -3 -3  z "
             style="stroke: #4c72b0; stroke-opacity: 0.7; stroke-linejoin: miter" />
        </defs>
        <g
           clip-path="url(#p944442639b)"
           id="g52">
          <use
             xlink:href="#mdf2ff66162"
             x="86.416364"
             y="365.746364"
             style="fill: #4c72b0; fill-opacity: 0.7; stroke: #4c72b0; stroke-opacity: 0.7; stroke-linejoin: miter"
             id="use49" />
          <use
             xlink:href="#mdf2ff66162"
             x="237.725455"
             y="271.293391"
             style="fill: #4c72b0; fill-opacity: 0.7; stroke: #4c72b0; stroke-opacity: 0.7; stroke-linejoin: miter"
             id="use50" />
          <use
             xlink:href="#mdf2ff66162"
             x="389.034545"
             y="180.339201"
             style="fill: #4c72b0; fill-opacity: 0.7; stroke: #4c72b0; stroke-opacity: 0.7; stroke-linejoin: miter"
             id="use51" />
          <use
             xlink:href="#mdf2ff66162"
             x="540.343636"
             y="99.167794"
             style="fill: #4c72b0; fill-opacity: 0.7; stroke: #4c72b0; stroke-opacity: 0.7; stroke-linejoin: miter"
             id="use52" />
        </g>
      </g>
      <g
         id="line2d_10">
        <path
           d="M 86.416364 365.746364  L 237.725455 273.467698  L 389.034545 186.175328  L 540.343636 114.015164  "
           clip-path="url(#p944442639b)"
           style="fill: none; stroke: #dd8452; stroke-opacity: 0.7; stroke-linecap: round"
           id="path52" />
        <defs
           id="defs52">
          <path
             id="m6196cd5726"
             d="M 0 -3  L -0.673542 -0.927051  L -2.85317 -0.927051  L -1.089814 0.354102  L -1.763356 2.427051  L -0 1.145898  L 1.763356 2.427051  L 1.089814 0.354102  L 2.85317 -0.927051  L 0.673542 -0.927051  z "
             style="stroke: #dd8452; stroke-opacity: 0.7; stroke-linejoin: bevel" />
        </defs>
        <g
           clip-path="url(#p944442639b)"
           id="g56">
          <use
             xlink:href="#m6196cd5726"
             x="86.416364"
             y="365.746364"
             style="fill: #dd8452; fill-opacity: 0.7; stroke: #dd8452; stroke-opacity: 0.7; stroke-linejoin: bevel"
             id="use53" />
          <use
             xlink:href="#m6196cd5726"
             x="237.725455"
             y="273.467698"
             style="fill: #dd8452; fill-opacity: 0.7; stroke: #dd8452; stroke-opacity: 0.7; stroke-linejoin: bevel"
             id="use54" />
          <use
             xlink:href="#m6196cd5726"
             x="389.034545"
             y="186.175328"
             style="fill: #dd8452; fill-opacity: 0.7; stroke: #dd8452; stroke-opacity: 0.7; stroke-linejoin: bevel"
             id="use55" />
          <use
             xlink:href="#m6196cd5726"
             x="540.343636"
             y="114.015164"
             style="fill: #dd8452; fill-opacity: 0.7; stroke: #dd8452; stroke-opacity: 0.7; stroke-linejoin: bevel"
             id="use56" />
        </g>
      </g>
      <g
         id="line2d_11">
        <path
           d="M 86.416364 365.746364  L 237.725455 274.118211  L 389.034545 189.369397  L 540.343636 110.763379  "
           clip-path="url(#p944442639b)"
           style="fill: none; stroke: #55a868; stroke-opacity: 0.7; stroke-linecap: round"
           id="path56" />
        <defs
           id="defs56">
          <path
             id="me775cee8a7"
             d="M -0 4.242641  L 2.545584 0  L 0 -4.242641  L -2.545584 -0  z "
             style="stroke: #55a868; stroke-opacity: 0.7; stroke-linejoin: miter" />
        </defs>
        <g
           clip-path="url(#p944442639b)"
           id="g60">
          <use
             xlink:href="#me775cee8a7"
             x="86.416364"
             y="365.746364"
             style="fill: #55a868; fill-opacity: 0.7; stroke: #55a868; stroke-opacity: 0.7; stroke-linejoin: miter"
             id="use57" />
          <use
             xlink:href="#me775cee8a7"
             x="237.725455"
             y="274.118211"
             style="fill: #55a868; fill-opacity: 0.7; stroke: #55a868; stroke-opacity: 0.7; stroke-linejoin: miter"
             id="use58" />
          <use
             xlink:href="#me775cee8a7"
             x="389.034545"
             y="189.369397"
             style="fill: #55a868; fill-opacity: 0.7; stroke: #55a868; stroke-opacity: 0.7; stroke-linejoin: miter"
             id="use59" />
          <use
             xlink:href="#me775cee8a7"
             x="540.343636"
             y="110.763379"
             style="fill: #55a868; fill-opacity: 0.7; stroke: #55a868; stroke-opacity: 0.7; stroke-linejoin: miter"
             id="use60" />
        </g>
      </g>
      <g
         id="line2d_12">
        <path
           d="M 86.416364 365.746364  L 237.725455 258.855455  L 389.034545 151.964545  L 540.343636 45.073636  "
           clip-path="url(#p944442639b)"
           style="fill: none; stroke-dasharray: 3.7,1.6; stroke-dashoffset: 0; stroke: #1a1a1a"
           id="path60" />
      </g>
      <g
         id="patch_3">
        <path
           d="M 63.72 381.78  L 63.72 29.04  "
           style="fill: none; stroke: #ffffff; stroke-width: 1.25; stroke-linejoin: miter; stroke-linecap: square"
           id="path61" />
      </g>
      <g
         id="patch_4">
        <path
           d="M 563.04 381.78  L 563.04 29.04  "
           style="fill: none; stroke: #ffffff; stroke-width: 1.25; stroke-linejoin: miter; stroke-linecap: square"
           id="path62" />
      </g>
      <g
         id="patch_5">
        <path
           d="M 63.72 381.78  L 563.04 381.78  "
           style="fill: none; stroke: #ffffff; stroke-width: 1.25; stroke-linejoin: miter; stroke-linecap: square"
           id="path63" />
      </g>
      <g
         id="patch_6">
        <path
           d="M 63.72 29.04  L 563.04 29.04  "
           style="fill: none; stroke: #ffffff; stroke-width: 1.25; stroke-linejoin: miter; stroke-linecap: square"
           id="path64" />
      </g>
      <g
         id="legend_1">
        <g
           id="patch_7">
          <path
             d="M 71.42 102.42375  L 218.519219 102.42375  Q 220.719219 102.42375 220.719219 100.22375  L 220.719219 36.74  Q 220.719219 34.54 218.519219 34.54  L 71.42 34.54  Q 69.22 34.54 69.22 36.74  L 69.22 100.22375  Q 69.22 102.42375 71.42 102.42375  z "
             style="fill: #eaeaf2; opacity: 0.8; stroke: #cccccc; stroke-linejoin: miter"
             id="path122" />
        </g>
        <g
           id="line2d_13">
          <path
             d="M 73.62 43.448281  L 84.62 43.448281  L 95.62 43.448281  "
             style="fill: none; stroke: #4c72b0; stroke-opacity: 0.7; stroke-linecap: round"
             id="path123" />
          <g
             id="g123">
            <use
               xlink:href="#mdf2ff66162"
               x="84.62"
               y="43.448281"
               style="fill: #4c72b0; fill-opacity: 0.7; stroke: #4c72b0; stroke-opacity: 0.7; stroke-linejoin: miter"
               id="use123" />
          </g>
        </g>
        <g
           id="text_12">
          <!-- deepspeed -->
          <g
             style="fill: #262626"
             transform="translate(104.42 47.298281) scale(0.11 -0.11)"
             id="g132">
            <use
               xlink:href="#DejaVuSans-64"
               id="use124" />
            <use
               xlink:href="#DejaVuSans-65"
               transform="translate(63.476562 0)"
               id="use125" />
            <use
               xlink:href="#DejaVuSans-65"
               transform="translate(125 0)"
               id="use126" />
            <use
               xlink:href="#DejaVuSans-70"
               transform="translate(186.523438 0)"
               id="use127" />
            <use
               xlink:href="#DejaVuSans-73"
               transform="translate(250 0)"
               id="use128" />
            <use
               xlink:href="#DejaVuSans-70"
               transform="translate(302.099609 0)"
               id="use129" />
            <use
               xlink:href="#DejaVuSans-65"
               transform="translate(365.576172 0)"
               id="use130" />
            <use
               xlink:href="#DejaVuSans-65"
               transform="translate(427.099609 0)"
               id="use131" />
            <use
               xlink:href="#DejaVuSans-64"
               transform="translate(488.623047 0)"
               id="use132" />
          </g>
        </g>
        <g
           id="line2d_14">
          <path
             d="M 73.62 59.594219  L 84.62 59.594219  L 95.62 59.594219  "
             style="fill: none; stroke: #dd8452; stroke-opacity: 0.7; stroke-linecap: round"
             id="path132" />
          <g
             id="g133">
            <use
               xlink:href="#m6196cd5726"
               x="84.62"
               y="59.594219"
               style="fill: #dd8452; fill-opacity: 0.7; stroke: #dd8452; stroke-opacity: 0.7; stroke-linejoin: bevel"
               id="use133" />
          </g>
        </g>
        <g
           id="text_13">
          <!-- horovod -->
          <g
             style="fill: #262626"
             transform="translate(104.42 63.444219) scale(0.11 -0.11)"
             id="g140">
            <path
               id="use134"
               d="M 54.890625,33.015625 V 0 H 45.90625 v 32.71875 q 0,7.765625 -3.03125,11.609375 -3.03125,3.859375 -9.078125,3.859375 -7.28125,0 -11.484375,-4.640625 -4.203125,-4.625 -4.203125,-12.640625 V 0 h -9.03125 v 75.984375 h 9.03125 V 46.1875 q 3.234375,4.9375 7.59375,7.375 4.375,2.4375 10.09375,2.4375 9.421875,0 14.25,-5.828125 4.84375,-5.828125 4.84375,-17.15625 z"
               style="stroke-width:0.015625" />
            <use
               xlink:href="#DejaVuSans-6f"
               transform="translate(63.378906 0)"
               id="use135" />
            <use
               xlink:href="#DejaVuSans-72"
               transform="translate(124.560547 0)"
               id="use136" />
            <use
               xlink:href="#DejaVuSans-6f"
               transform="translate(163.423828 0)"
               id="use137" />
            <path
               id="use138"
               d="m 227.58984,54.6875 h 9.51563 L 254.19922,8.796875 271.29297,54.6875 h 9.51562 L 260.29297,0 h -12.20313 z"
               style="stroke-width:0.015625" />
            <use
               xlink:href="#DejaVuSans-6f"
               transform="translate(283.785156 0)"
               id="use139" />
            <use
               xlink:href="#DejaVuSans-64"
               transform="translate(344.966797 0)"
               id="use140" />
          </g>
        </g>
        <g
           id="line2d_15">
          <path
             d="M 73.62 75.740156  L 84.62 75.740156  L 95.62 75.740156  "
             style="fill: none; stroke: #55a868; stroke-opacity: 0.7; stroke-linecap: round"
             id="path140" />
          <g
             id="g141">
            <use
               xlink:href="#me775cee8a7"
               x="84.62"
               y="75.740156"
               style="fill: #55a868; fill-opacity: 0.7; stroke: #55a868; stroke-opacity: 0.7; stroke-linejoin: miter"
               id="use141" />
          </g>
        </g>
        <g
           id="text_14">
          <!-- torch-ddp -->
          <g
             style="fill: #262626"
             transform="translate(104.42 79.590156) scale(0.11 -0.11)"
             id="g150">
            <defs
               id="defs141">
              <path
                 id="DejaVuSans-2d"
                 d="M 313 2009  L 1997 2009  L 1997 1497  L 313 1497  L 313 2009  z "
                 transform="scale(0.015625)" />
            </defs>
            <path
               id="use142"
               d="M 18.3125,70.21875 V 54.6875 h 18.5 v -6.984375 h -18.5 v -29.6875 q 0,-6.6875 1.828125,-8.59375 1.828125,-1.90625 7.453125,-1.90625 H 36.8125 V 0 H 27.59375 Q 17.1875,0 13.234375,3.875 9.28125,7.765625 9.28125,18.015625 v 29.6875 H 2.6875 V 54.6875 h 6.59375 v 15.53125 z"
               style="stroke-width:0.015625" />
            <use
               xlink:href="#DejaVuSans-6f"
               transform="translate(39.208984 0)"
               id="use143" />
            <use
               xlink:href="#DejaVuSans-72"
               transform="translate(100.390625 0)"
               id="use144" />
            <path
               id="use145"
               d="M 188.03516,52.59375 V 44.1875 q -3.8125,2.109375 -7.64063,3.15625 -3.82812,1.046875 -7.73437,1.046875 -8.75,0 -13.59375,-5.546875 -4.82813,-5.53125 -4.82813,-15.546875 0,-10.015625 4.82813,-15.5625 4.84375,-5.53125 13.59375,-5.53125 3.90625,0 7.73437,1.046875 3.82813,1.046875 7.64063,3.15625 v -8.3125 q -3.76563,-1.75 -7.79688,-2.625 -4.01562,-0.890625 -8.5625,-0.890625 -12.35937,0 -19.64062,7.765625 -7.26563,7.765625 -7.26563,20.953125 0,13.375 7.34375,21.03125 Q 159.47266,56 172.26953,56 q 4.14063,0 8.09375,-0.859375 3.95313,-0.84375 7.67188,-2.546875 z"
               style="stroke-width:0.015625" />
            <path
               id="use146"
               d="M 249.125,33.015625 V 0 h -8.98438 v 32.71875 q 0,7.765625 -3.03125,11.609375 -3.03125,3.859375 -9.07812,3.859375 -7.28125,0 -11.48438,-4.640625 -4.20312,-4.625 -4.20312,-12.640625 V 0 h -9.03125 v 75.984375 h 9.03125 V 46.1875 q 3.23437,4.9375 7.59375,7.375 4.375,2.4375 10.09375,2.4375 9.42187,0 14.25,-5.828125 4.84375,-5.828125 4.84375,-17.15625 z"
               style="stroke-width:0.015625" />
            <use
               xlink:href="#DejaVuSans-2d"
               transform="translate(257.613281 0)"
               id="use147" />
            <use
               xlink:href="#DejaVuSans-64"
               transform="translate(293.697266 0)"
               id="use148" />
            <use
               xlink:href="#DejaVuSans-64"
               transform="translate(357.173828 0)"
               id="use149" />
            <use
               xlink:href="#DejaVuSans-70"
               transform="translate(420.650391 0)"
               id="use150" />
          </g>
        </g>
        <g
           id="line2d_16">
          <path
             d="M 73.62 91.886094  L 84.62 91.886094  L 95.62 91.886094  "
             style="fill: none; stroke-dasharray: 3.7,1.6; stroke-dashoffset: 0; stroke: #1a1a1a"
             id="path150" />
        </g>
        <g
           id="text_15">
          <!-- ideal linear speedup -->
          <g
             style="fill: #262626"
             transform="translate(104.42 95.736094) scale(0.11 -0.11)"
             id="g170">
            <defs
               id="defs150">
              <path
                 id="DejaVuSans-6e"
                 d="M 3513 2113  L 3513 0  L 2938 0  L 2938 2094  Q 2938 2591 2744 2837  Q 2550 3084 2163 3084  Q 1697 3084 1428 2787  Q 1159 2491 1159 1978  L 1159 0  L 581 0  L 581 3500  L 1159 3500  L 1159 2956  Q 1366 3272 1645 3428  Q 1925 3584 2291 3584  Q 2894 3584 3203 3211  Q 3513 2838 3513 2113  z "
                 transform="scale(0.015625)" />
            </defs>
            <path
               id="use151"
               d="M 9.421875,54.6875 H 18.40625 V 0 H 9.421875 Z m 0,21.296875 H 18.40625 V 64.59375 H 9.421875 Z"
               style="stroke-width:0.015625" />
            <use
               xlink:href="#DejaVuSans-64"
               transform="translate(27.783203 0)"
               id="use152" />
            <use
               xlink:href="#DejaVuSans-65"
               transform="translate(91.259766 0)"
               id="use153" />
            <path
               id="use154"
               d="m 187.06445,27.484375 q -10.89062,0 -15.09375,-2.484375 -4.20312,-2.484375 -4.20312,-8.5 0,-4.78125 3.15625,-7.59375 3.15625,-2.796875 8.5625,-2.796875 7.48437,0 12,5.296875 4.51562,5.296875 4.51562,14.078125 v 2 z m 17.92188,3.71875 V 0 h -8.98438 v 8.296875 q -3.07812,-4.96875 -7.67187,-7.34375 -4.59375,-2.375 -11.23438,-2.375 -8.39062,0 -13.35937,4.71875 -4.95313,4.71875 -4.95313,12.625 0,9.21875 6.17188,13.90625 6.1875,4.6875 18.4375,4.6875 h 12.60937 v 0.890625 q 0,6.203125 -4.07812,9.59375 -4.07813,3.390625 -11.45313,3.390625 -4.6875,0 -9.14062,-1.125 -4.4375,-1.125 -8.53125,-3.375 v 8.3125 q 4.92187,1.90625 9.5625,2.84375 Q 177.00195,56 181.39258,56 q 11.875,0 17.73437,-6.15625 5.85938,-6.140625 5.85938,-18.640625 z"
               style="stroke-width:0.015625" />
            <path
               id="use155"
               d="m 223.48437,75.984375 h 8.98438 V 0 h -8.98438 z"
               style="stroke-width:0.015625" />
            <use
               xlink:href="#DejaVuSans-20"
               transform="translate(241.845703 0)"
               id="use156" />
            <path
               id="use157"
               d="m 283.05469,75.984375 h 8.98437 V 0 h -8.98437 z"
               style="stroke-width:0.015625" />
            <path
               id="use158"
               d="m 310.83789,54.6875 h 8.98438 V 0 h -8.98438 z m 0,21.296875 h 8.98438 V 64.59375 h -8.98438 z"
               style="stroke-width:0.015625" />
            <use
               xlink:href="#DejaVuSans-6e"
               transform="translate(329.199219 0)"
               id="use159" />
            <use
               xlink:href="#DejaVuSans-65"
               transform="translate(392.578125 0)"
               id="use160" />
            <path
               id="use161"
               d="m 488.38281,27.484375 q -10.89062,0 -15.09375,-2.484375 -4.20312,-2.484375 -4.20312,-8.5 0,-4.78125 3.15625,-7.59375 3.15625,-2.796875 8.5625,-2.796875 7.48437,0 12,5.296875 4.51562,5.296875 4.51562,14.078125 v 2 z m 17.92188,3.71875 V 0 h -8.98438 v 8.296875 q -3.07812,-4.96875 -7.67187,-7.34375 -4.59375,-2.375 -11.23438,-2.375 -8.39062,0 -13.35937,4.71875 -4.95313,4.71875 -4.95313,12.625 0,9.21875 6.17188,13.90625 6.1875,4.6875 18.4375,4.6875 h 12.60937 v 0.890625 q 0,6.203125 -4.07812,9.59375 -4.07813,3.390625 -11.45313,3.390625 -4.6875,0 -9.14062,-1.125 -4.4375,-1.125 -8.53125,-3.375 v 8.3125 q 4.92187,1.90625 9.5625,2.84375 Q 478.32031,56 482.71094,56 q 11.875,0 17.73437,-6.15625 5.85938,-6.140625 5.85938,-18.640625 z"
               style="stroke-width:0.015625" />
            <use
               xlink:href="#DejaVuSans-72"
               transform="translate(515.380859 0)"
               id="use162" />
            <use
               xlink:href="#DejaVuSans-20"
               transform="translate(556.494141 0)"
               id="use163" />
            <use
               xlink:href="#DejaVuSans-73"
               transform="translate(588.28125 0)"
               id="use164" />
            <use
               xlink:href="#DejaVuSans-70"
               transform="translate(640.380859 0)"
               id="use165" />
            <use
               xlink:href="#DejaVuSans-65"
               transform="translate(703.857422 0)"
               id="use166" />
            <use
               xlink:href="#DejaVuSans-65"
               transform="translate(765.380859 0)"
               id="use167" />
            <use
               xlink:href="#DejaVuSans-64"
               transform="translate(826.904297 0)"
               id="use168" />
            <use
               xlink:href="#DejaVuSans-75"
               transform="translate(890.380859 0)"
               id="use169" />
            <use
               xlink:href="#DejaVuSans-70"
               transform="translate(953.759766 0)"
               id="use170" />
          </g>
        </g>
      </g>
    </g>
  </g>
  <defs
     id="defs170">
    <clipPath
       id="p944442639b">
      <rect
         x="63.72"
         y="29.04"
         width="499.32"
         height="352.74"
         id="rect170" />
    </clipPath>
  </defs>
</svg>
