<?xml version="1.0" encoding="utf-8" standalone="no"?>
<!DOCTYPE svg PUBLIC "-//W3C//DTD SVG 1.1//EN"
  "http://www.w3.org/Graphics/SVG/1.1/DTD/svg11.dtd">
<svg xmlns:xlink="http://www.w3.org/1999/xlink" width="855.48875pt" height="423.689375pt" viewBox="0 0 855.48875 423.689375" xmlns="http://www.w3.org/2000/svg" version="1.1">
 <metadata>
  <rdf:RDF xmlns:dc="http://purl.org/dc/elements/1.1/" xmlns:cc="http://creativecommons.org/ns#" xmlns:rdf="http://www.w3.org/1999/02/22-rdf-syntax-ns#">
   <cc:Work>
    <dc:type rdf:resource="http://purl.org/dc/dcmitype/StillImage"/>
    <dc:date>2024-10-02T14:55:06.308428</dc:date>
    <dc:format>image/svg+xml</dc:format>
    <dc:creator>
     <cc:Agent>
      <dc:title>Matplotlib v3.7.4, https://matplotlib.org/</dc:title>
     </cc:Agent>
    </dc:creator>
   </cc:Work>
  </rdf:RDF>
 </metadata>
 <defs>
  <style type="text/css">*{stroke-linejoin: round; stroke-linecap: butt}</style>
 </defs>
 <g id="figure_1">
  <g id="patch_1">
   <path d="M 0 423.689375 
L 855.48875 423.689375 
L 855.48875 0 
L 0 0 
z
" style="fill: #ffffff"/>
  </g>
  <g id="axes_1">
   <g id="patch_2">
    <path d="M 42.53875 384.1975 
L 848.28875 384.1975 
L 848.28875 25.3575 
L 42.53875 25.3575 
z
" style="fill: #ffffff"/>
   </g>
   <g id="patch_3">
    <path d="M 143.2575 373.891276 
L 143.2575 373.891276 
L 143.2575 373.891276 
L 143.2575 373.891276 
z
" clip-path="url(#pa18eead8bb)" style="fill: #3274a1; stroke: #3d3d3d; stroke-linejoin: miter"/>
   </g>
   <g id="patch_4">
    <path d="M 143.2575 373.891276 
L 143.2575 373.891276 
L 143.2575 373.891276 
L 143.2575 373.891276 
z
" clip-path="url(#pa18eead8bb)" style="fill: #e1812c; stroke: #3d3d3d; stroke-linejoin: miter"/>
   </g>
   <g id="patch_5">
    <path d="M 143.2575 373.891276 
L 143.2575 373.891276 
L 143.2575 373.891276 
L 143.2575 373.891276 
z
" clip-path="url(#pa18eead8bb)" style="fill: #3a923a; stroke: #3d3d3d; stroke-linejoin: miter"/>
   </g>
   <g id="matplotlib.axis_1">
    <g id="xtick_1">
     <g id="line2d_1">
      <defs>
       <path id="ma42baa372b" d="M 0 0 
L 0 3.5 
" style="stroke: #000000; stroke-width: 0.8"/>
      </defs>
      <g>
       <use xlink:href="#ma42baa372b" x="143.2575" y="384.1975" style="stroke: #000000; stroke-width: 0.8"/>
      </g>
     </g>
     <g id="text_1">
      <!-- 14M -->
      <g transform="translate(132.580938 398.795938) scale(0.1 -0.1)">
       <defs>
        <path id="DejaVuSans-31" d="M 794 531 
L 1825 531 
L 1825 4091 
L 703 3866 
L 703 4441 
L 1819 4666 
L 2450 4666 
L 2450 531 
L 3481 531 
L 3481 0 
L 794 0 
L 794 531 
z
" transform="scale(0.015625)"/>
        <path id="DejaVuSans-34" d="M 2419 4116 
L 825 1625 
L 2419 1625 
L 2419 4116 
z
M 2253 4666 
L 3047 4666 
L 3047 1625 
L 3713 1625 
L 3713 1100 
L 3047 1100 
L 3047 0 
L 2419 0 
L 2419 1100 
L 313 1100 
L 313 1709 
L 2253 4666 
z
" transform="scale(0.015625)"/>
        <path id="DejaVuSans-4d" d="M 628 4666 
L 1569 4666 
L 2759 1491 
L 3956 4666 
L 4897 4666 
L 4897 0 
L 4281 0 
L 4281 4097 
L 3078 897 
L 2444 897 
L 1241 4097 
L 1241 0 
L 628 0 
L 628 4666 
z
" transform="scale(0.015625)"/>
       </defs>
       <use xlink:href="#DejaVuSans-31"/>
       <use xlink:href="#DejaVuSans-34" x="63.623047"/>
       <use xlink:href="#DejaVuSans-4d" x="127.246094"/>
      </g>
     </g>
    </g>
    <g id="xtick_2">
     <g id="line2d_2">
      <g>
       <use xlink:href="#ma42baa372b" x="344.695" y="384.1975" style="stroke: #000000; stroke-width: 0.8"/>
      </g>
     </g>
     <g id="text_2">
      <!-- 230M -->
      <g transform="translate(330.837187 398.795938) scale(0.1 -0.1)">
       <defs>
        <path id="DejaVuSans-32" d="M 1228 531 
L 3431 531 
L 3431 0 
L 469 0 
L 469 531 
Q 828 903 1448 1529 
Q 2069 2156 2228 2338 
Q 2531 2678 2651 2914 
Q 2772 3150 2772 3378 
Q 2772 3750 2511 3984 
Q 2250 4219 1831 4219 
Q 1534 4219 1204 4116 
Q 875 4013 500 3803 
L 500 4441 
Q 881 4594 1212 4672 
Q 1544 4750 1819 4750 
Q 2544 4750 2975 4387 
Q 3406 4025 3406 3419 
Q 3406 3131 3298 2873 
Q 3191 2616 2906 2266 
Q 2828 2175 2409 1742 
Q 1991 1309 1228 531 
z
" transform="scale(0.015625)"/>
        <path id="DejaVuSans-33" d="M 2597 2516 
Q 3050 2419 3304 2112 
Q 3559 1806 3559 1356 
Q 3559 666 3084 287 
Q 2609 -91 1734 -91 
Q 1441 -91 1130 -33 
Q 819 25 488 141 
L 488 750 
Q 750 597 1062 519 
Q 1375 441 1716 441 
Q 2309 441 2620 675 
Q 2931 909 2931 1356 
Q 2931 1769 2642 2001 
Q 2353 2234 1838 2234 
L 1294 2234 
L 1294 2753 
L 1863 2753 
Q 2328 2753 2575 2939 
Q 2822 3125 2822 3475 
Q 2822 3834 2567 4026 
Q 2313 4219 1838 4219 
Q 1578 4219 1281 4162 
Q 984 4106 628 3988 
L 628 4550 
Q 988 4650 1302 4700 
Q 1616 4750 1894 4750 
Q 2613 4750 3031 4423 
Q 3450 4097 3450 3541 
Q 3450 3153 3228 2886 
Q 3006 2619 2597 2516 
z
" transform="scale(0.015625)"/>
        <path id="DejaVuSans-30" d="M 2034 4250 
Q 1547 4250 1301 3770 
Q 1056 3291 1056 2328 
Q 1056 1369 1301 889 
Q 1547 409 2034 409 
Q 2525 409 2770 889 
Q 3016 1369 3016 2328 
Q 3016 3291 2770 3770 
Q 2525 4250 2034 4250 
z
M 2034 4750 
Q 2819 4750 3233 4129 
Q 3647 3509 3647 2328 
Q 3647 1150 3233 529 
Q 2819 -91 2034 -91 
Q 1250 -91 836 529 
Q 422 1150 422 2328 
Q 422 3509 836 4129 
Q 1250 4750 2034 4750 
z
" transform="scale(0.015625)"/>
       </defs>
       <use xlink:href="#DejaVuSans-32"/>
       <use xlink:href="#DejaVuSans-33" x="63.623047"/>
       <use xlink:href="#DejaVuSans-30" x="127.246094"/>
       <use xlink:href="#DejaVuSans-4d" x="190.869141"/>
      </g>
     </g>
    </g>
    <g id="xtick_3">
     <g id="line2d_3">
      <g>
       <use xlink:href="#ma42baa372b" x="546.1325" y="384.1975" style="stroke: #000000; stroke-width: 0.8"/>
      </g>
     </g>
     <g id="text_3">
      <!-- 3G -->
      <g transform="translate(539.077031 398.795938) scale(0.1 -0.1)">
       <defs>
        <path id="DejaVuSans-47" d="M 3809 666 
L 3809 1919 
L 2778 1919 
L 2778 2438 
L 4434 2438 
L 4434 434 
Q 4069 175 3628 42 
Q 3188 -91 2688 -91 
Q 1594 -91 976 548 
Q 359 1188 359 2328 
Q 359 3472 976 4111 
Q 1594 4750 2688 4750 
Q 3144 4750 3555 4637 
Q 3966 4525 4313 4306 
L 4313 3634 
Q 3963 3931 3569 4081 
Q 3175 4231 2741 4231 
Q 1884 4231 1454 3753 
Q 1025 3275 1025 2328 
Q 1025 1384 1454 906 
Q 1884 428 2741 428 
Q 3075 428 3337 486 
Q 3600 544 3809 666 
z
" transform="scale(0.015625)"/>
       </defs>
       <use xlink:href="#DejaVuSans-33"/>
       <use xlink:href="#DejaVuSans-47" x="63.623047"/>
      </g>
     </g>
    </g>
    <g id="xtick_4">
     <g id="line2d_4">
      <g>
       <use xlink:href="#ma42baa372b" x="747.57" y="384.1975" style="stroke: #000000; stroke-width: 0.8"/>
      </g>
     </g>
     <g id="text_4">
      <!-- 7G -->
      <g transform="translate(740.514531 398.795938) scale(0.1 -0.1)">
       <defs>
        <path id="DejaVuSans-37" d="M 525 4666 
L 3525 4666 
L 3525 4397 
L 1831 0 
L 1172 0 
L 2766 4134 
L 525 4134 
L 525 4666 
z
" transform="scale(0.015625)"/>
       </defs>
       <use xlink:href="#DejaVuSans-37"/>
       <use xlink:href="#DejaVuSans-47" x="63.623047"/>
      </g>
     </g>
    </g>
    <g id="text_5">
     <!-- File Size (Benchmark ID) -->
     <g transform="translate(372.088125 413.99375) scale(0.12 -0.12)">
      <defs>
       <path id="DejaVuSans-46" d="M 628 4666 
L 3309 4666 
L 3309 4134 
L 1259 4134 
L 1259 2759 
L 3109 2759 
L 3109 2228 
L 1259 2228 
L 1259 0 
L 628 0 
L 628 4666 
z
" transform="scale(0.015625)"/>
       <path id="DejaVuSans-69" d="M 603 3500 
L 1178 3500 
L 1178 0 
L 603 0 
L 603 3500 
z
M 603 4863 
L 1178 4863 
L 1178 4134 
L 603 4134 
L 603 4863 
z
" transform="scale(0.015625)"/>
       <path id="DejaVuSans-6c" d="M 603 4863 
L 1178 4863 
L 1178 0 
L 603 0 
L 603 4863 
z
" transform="scale(0.015625)"/>
       <path id="DejaVuSans-65" d="M 3597 1894 
L 3597 1613 
L 953 1613 
Q 991 1019 1311 708 
Q 1631 397 2203 397 
Q 2534 397 2845 478 
Q 3156 559 3463 722 
L 3463 178 
Q 3153 47 2828 -22 
Q 2503 -91 2169 -91 
Q 1331 -91 842 396 
Q 353 884 353 1716 
Q 353 2575 817 3079 
Q 1281 3584 2069 3584 
Q 2775 3584 3186 3129 
Q 3597 2675 3597 1894 
z
M 3022 2063 
Q 3016 2534 2758 2815 
Q 2500 3097 2075 3097 
Q 1594 3097 1305 2825 
Q 1016 2553 972 2059 
L 3022 2063 
z
" transform="scale(0.015625)"/>
       <path id="DejaVuSans-20" transform="scale(0.015625)"/>
       <path id="DejaVuSans-53" d="M 3425 4513 
L 3425 3897 
Q 3066 4069 2747 4153 
Q 2428 4238 2131 4238 
Q 1616 4238 1336 4038 
Q 1056 3838 1056 3469 
Q 1056 3159 1242 3001 
Q 1428 2844 1947 2747 
L 2328 2669 
Q 3034 2534 3370 2195 
Q 3706 1856 3706 1288 
Q 3706 609 3251 259 
Q 2797 -91 1919 -91 
Q 1588 -91 1214 -16 
Q 841 59 441 206 
L 441 856 
Q 825 641 1194 531 
Q 1563 422 1919 422 
Q 2459 422 2753 634 
Q 3047 847 3047 1241 
Q 3047 1584 2836 1778 
Q 2625 1972 2144 2069 
L 1759 2144 
Q 1053 2284 737 2584 
Q 422 2884 422 3419 
Q 422 4038 858 4394 
Q 1294 4750 2059 4750 
Q 2388 4750 2728 4690 
Q 3069 4631 3425 4513 
z
" transform="scale(0.015625)"/>
       <path id="DejaVuSans-7a" d="M 353 3500 
L 3084 3500 
L 3084 2975 
L 922 459 
L 3084 459 
L 3084 0 
L 275 0 
L 275 525 
L 2438 3041 
L 353 3041 
L 353 3500 
z
" transform="scale(0.015625)"/>
       <path id="DejaVuSans-28" d="M 1984 4856 
Q 1566 4138 1362 3434 
Q 1159 2731 1159 2009 
Q 1159 1288 1364 580 
Q 1569 -128 1984 -844 
L 1484 -844 
Q 1016 -109 783 600 
Q 550 1309 550 2009 
Q 550 2706 781 3412 
Q 1013 4119 1484 4856 
L 1984 4856 
z
" transform="scale(0.015625)"/>
       <path id="DejaVuSans-42" d="M 1259 2228 
L 1259 519 
L 2272 519 
Q 2781 519 3026 730 
Q 3272 941 3272 1375 
Q 3272 1813 3026 2020 
Q 2781 2228 2272 2228 
L 1259 2228 
z
M 1259 4147 
L 1259 2741 
L 2194 2741 
Q 2656 2741 2882 2914 
Q 3109 3088 3109 3444 
Q 3109 3797 2882 3972 
Q 2656 4147 2194 4147 
L 1259 4147 
z
M 628 4666 
L 2241 4666 
Q 2963 4666 3353 4366 
Q 3744 4066 3744 3513 
Q 3744 3084 3544 2831 
Q 3344 2578 2956 2516 
Q 3422 2416 3680 2098 
Q 3938 1781 3938 1306 
Q 3938 681 3513 340 
Q 3088 0 2303 0 
L 628 0 
L 628 4666 
z
" transform="scale(0.015625)"/>
       <path id="DejaVuSans-6e" d="M 3513 2113 
L 3513 0 
L 2938 0 
L 2938 2094 
Q 2938 2591 2744 2837 
Q 2550 3084 2163 3084 
Q 1697 3084 1428 2787 
Q 1159 2491 1159 1978 
L 1159 0 
L 581 0 
L 581 3500 
L 1159 3500 
L 1159 2956 
Q 1366 3272 1645 3428 
Q 1925 3584 2291 3584 
Q 2894 3584 3203 3211 
Q 3513 2838 3513 2113 
z
" transform="scale(0.015625)"/>
       <path id="DejaVuSans-63" d="M 3122 3366 
L 3122 2828 
Q 2878 2963 2633 3030 
Q 2388 3097 2138 3097 
Q 1578 3097 1268 2742 
Q 959 2388 959 1747 
Q 959 1106 1268 751 
Q 1578 397 2138 397 
Q 2388 397 2633 464 
Q 2878 531 3122 666 
L 3122 134 
Q 2881 22 2623 -34 
Q 2366 -91 2075 -91 
Q 1284 -91 818 406 
Q 353 903 353 1747 
Q 353 2603 823 3093 
Q 1294 3584 2113 3584 
Q 2378 3584 2631 3529 
Q 2884 3475 3122 3366 
z
" transform="scale(0.015625)"/>
       <path id="DejaVuSans-68" d="M 3513 2113 
L 3513 0 
L 2938 0 
L 2938 2094 
Q 2938 2591 2744 2837 
Q 2550 3084 2163 3084 
Q 1697 3084 1428 2787 
Q 1159 2491 1159 1978 
L 1159 0 
L 581 0 
L 581 4863 
L 1159 4863 
L 1159 2956 
Q 1366 3272 1645 3428 
Q 1925 3584 2291 3584 
Q 2894 3584 3203 3211 
Q 3513 2838 3513 2113 
z
" transform="scale(0.015625)"/>
       <path id="DejaVuSans-6d" d="M 3328 2828 
Q 3544 3216 3844 3400 
Q 4144 3584 4550 3584 
Q 5097 3584 5394 3201 
Q 5691 2819 5691 2113 
L 5691 0 
L 5113 0 
L 5113 2094 
Q 5113 2597 4934 2840 
Q 4756 3084 4391 3084 
Q 3944 3084 3684 2787 
Q 3425 2491 3425 1978 
L 3425 0 
L 2847 0 
L 2847 2094 
Q 2847 2600 2669 2842 
Q 2491 3084 2119 3084 
Q 1678 3084 1418 2786 
Q 1159 2488 1159 1978 
L 1159 0 
L 581 0 
L 581 3500 
L 1159 3500 
L 1159 2956 
Q 1356 3278 1631 3431 
Q 1906 3584 2284 3584 
Q 2666 3584 2933 3390 
Q 3200 3197 3328 2828 
z
" transform="scale(0.015625)"/>
       <path id="DejaVuSans-61" d="M 2194 1759 
Q 1497 1759 1228 1600 
Q 959 1441 959 1056 
Q 959 750 1161 570 
Q 1363 391 1709 391 
Q 2188 391 2477 730 
Q 2766 1069 2766 1631 
L 2766 1759 
L 2194 1759 
z
M 3341 1997 
L 3341 0 
L 2766 0 
L 2766 531 
Q 2569 213 2275 61 
Q 1981 -91 1556 -91 
Q 1019 -91 701 211 
Q 384 513 384 1019 
Q 384 1609 779 1909 
Q 1175 2209 1959 2209 
L 2766 2209 
L 2766 2266 
Q 2766 2663 2505 2880 
Q 2244 3097 1772 3097 
Q 1472 3097 1187 3025 
Q 903 2953 641 2809 
L 641 3341 
Q 956 3463 1253 3523 
Q 1550 3584 1831 3584 
Q 2591 3584 2966 3190 
Q 3341 2797 3341 1997 
z
" transform="scale(0.015625)"/>
       <path id="DejaVuSans-72" d="M 2631 2963 
Q 2534 3019 2420 3045 
Q 2306 3072 2169 3072 
Q 1681 3072 1420 2755 
Q 1159 2438 1159 1844 
L 1159 0 
L 581 0 
L 581 3500 
L 1159 3500 
L 1159 2956 
Q 1341 3275 1631 3429 
Q 1922 3584 2338 3584 
Q 2397 3584 2469 3576 
Q 2541 3569 2628 3553 
L 2631 2963 
z
" transform="scale(0.015625)"/>
       <path id="DejaVuSans-6b" d="M 581 4863 
L 1159 4863 
L 1159 1991 
L 2875 3500 
L 3609 3500 
L 1753 1863 
L 3688 0 
L 2938 0 
L 1159 1709 
L 1159 0 
L 581 0 
L 581 4863 
z
" transform="scale(0.015625)"/>
       <path id="DejaVuSans-49" d="M 628 4666 
L 1259 4666 
L 1259 0 
L 628 0 
L 628 4666 
z
" transform="scale(0.015625)"/>
       <path id="DejaVuSans-44" d="M 1259 4147 
L 1259 519 
L 2022 519 
Q 2988 519 3436 956 
Q 3884 1394 3884 2338 
Q 3884 3275 3436 3711 
Q 2988 4147 2022 4147 
L 1259 4147 
z
M 628 4666 
L 1925 4666 
Q 3281 4666 3915 4102 
Q 4550 3538 4550 2338 
Q 4550 1131 3912 565 
Q 3275 0 1925 0 
L 628 0 
L 628 4666 
z
" transform="scale(0.015625)"/>
       <path id="DejaVuSans-29" d="M 513 4856 
L 1013 4856 
Q 1481 4119 1714 3412 
Q 1947 2706 1947 2009 
Q 1947 1309 1714 600 
Q 1481 -109 1013 -844 
L 513 -844 
Q 928 -128 1133 580 
Q 1338 1288 1338 2009 
Q 1338 2731 1133 3434 
Q 928 4138 513 4856 
z
" transform="scale(0.015625)"/>
      </defs>
      <use xlink:href="#DejaVuSans-46"/>
      <use xlink:href="#DejaVuSans-69" x="50.269531"/>
      <use xlink:href="#DejaVuSans-6c" x="78.052734"/>
      <use xlink:href="#DejaVuSans-65" x="105.835938"/>
      <use xlink:href="#DejaVuSans-20" x="167.359375"/>
      <use xlink:href="#DejaVuSans-53" x="199.146484"/>
      <use xlink:href="#DejaVuSans-69" x="262.623047"/>
      <use xlink:href="#DejaVuSans-7a" x="290.40625"/>
      <use xlink:href="#DejaVuSans-65" x="342.896484"/>
      <use xlink:href="#DejaVuSans-20" x="404.419922"/>
      <use xlink:href="#DejaVuSans-28" x="436.207031"/>
      <use xlink:href="#DejaVuSans-42" x="475.220703"/>
      <use xlink:href="#DejaVuSans-65" x="543.824219"/>
      <use xlink:href="#DejaVuSans-6e" x="605.347656"/>
      <use xlink:href="#DejaVuSans-63" x="668.726562"/>
      <use xlink:href="#DejaVuSans-68" x="723.707031"/>
      <use xlink:href="#DejaVuSans-6d" x="787.085938"/>
      <use xlink:href="#DejaVuSans-61" x="884.498047"/>
      <use xlink:href="#DejaVuSans-72" x="945.777344"/>
      <use xlink:href="#DejaVuSans-6b" x="986.890625"/>
      <use xlink:href="#DejaVuSans-20" x="1044.800781"/>
      <use xlink:href="#DejaVuSans-49" x="1076.587891"/>
      <use xlink:href="#DejaVuSans-44" x="1106.080078"/>
      <use xlink:href="#DejaVuSans-29" x="1183.082031"/>
     </g>
    </g>
   </g>
   <g id="matplotlib.axis_2">
    <g id="ytick_1">
     <g id="line2d_5">
      <defs>
       <path id="m87de04fd4b" d="M 0 0 
L -3.5 0 
" style="stroke: #000000; stroke-width: 0.8"/>
      </defs>
      <g>
       <use xlink:href="#m87de04fd4b" x="42.53875" y="373.891276" style="stroke: #000000; stroke-width: 0.8"/>
      </g>
     </g>
     <g id="text_6">
      <!-- 0 -->
      <g transform="translate(29.17625 377.690495) scale(0.1 -0.1)">
       <use xlink:href="#DejaVuSans-30"/>
      </g>
     </g>
    </g>
    <g id="ytick_2">
     <g id="line2d_6">
      <g>
       <use xlink:href="#m87de04fd4b" x="42.53875" y="319.303227" style="stroke: #000000; stroke-width: 0.8"/>
      </g>
     </g>
     <g id="text_7">
      <!-- 5 -->
      <g transform="translate(29.17625 323.102446) scale(0.1 -0.1)">
       <defs>
        <path id="DejaVuSans-35" d="M 691 4666 
L 3169 4666 
L 3169 4134 
L 1269 4134 
L 1269 2991 
Q 1406 3038 1543 3061 
Q 1681 3084 1819 3084 
Q 2600 3084 3056 2656 
Q 3513 2228 3513 1497 
Q 3513 744 3044 326 
Q 2575 -91 1722 -91 
Q 1428 -91 1123 -41 
Q 819 9 494 109 
L 494 744 
Q 775 591 1075 516 
Q 1375 441 1709 441 
Q 2250 441 2565 725 
Q 2881 1009 2881 1497 
Q 2881 1984 2565 2268 
Q 2250 2553 1709 2553 
Q 1456 2553 1204 2497 
Q 953 2441 691 2322 
L 691 4666 
z
" transform="scale(0.015625)"/>
       </defs>
       <use xlink:href="#DejaVuSans-35"/>
      </g>
     </g>
    </g>
    <g id="ytick_3">
     <g id="line2d_7">
      <g>
       <use xlink:href="#m87de04fd4b" x="42.53875" y="264.715178" style="stroke: #000000; stroke-width: 0.8"/>
      </g>
     </g>
     <g id="text_8">
      <!-- 10 -->
      <g transform="translate(22.81375 268.514397) scale(0.1 -0.1)">
       <use xlink:href="#DejaVuSans-31"/>
       <use xlink:href="#DejaVuSans-30" x="63.623047"/>
      </g>
     </g>
    </g>
    <g id="ytick_4">
     <g id="line2d_8">
      <g>
       <use xlink:href="#m87de04fd4b" x="42.53875" y="210.127129" style="stroke: #000000; stroke-width: 0.8"/>
      </g>
     </g>
     <g id="text_9">
      <!-- 15 -->
      <g transform="translate(22.81375 213.926348) scale(0.1 -0.1)">
       <use xlink:href="#DejaVuSans-31"/>
       <use xlink:href="#DejaVuSans-35" x="63.623047"/>
      </g>
     </g>
    </g>
    <g id="ytick_5">
     <g id="line2d_9">
      <g>
       <use xlink:href="#m87de04fd4b" x="42.53875" y="155.53908" style="stroke: #000000; stroke-width: 0.8"/>
      </g>
     </g>
     <g id="text_10">
      <!-- 20 -->
      <g transform="translate(22.81375 159.338298) scale(0.1 -0.1)">
       <use xlink:href="#DejaVuSans-32"/>
       <use xlink:href="#DejaVuSans-30" x="63.623047"/>
      </g>
     </g>
    </g>
    <g id="ytick_6">
     <g id="line2d_10">
      <g>
       <use xlink:href="#m87de04fd4b" x="42.53875" y="100.95103" style="stroke: #000000; stroke-width: 0.8"/>
      </g>
     </g>
     <g id="text_11">
      <!-- 25 -->
      <g transform="translate(22.81375 104.750249) scale(0.1 -0.1)">
       <use xlink:href="#DejaVuSans-32"/>
       <use xlink:href="#DejaVuSans-35" x="63.623047"/>
      </g>
     </g>
    </g>
    <g id="ytick_7">
     <g id="line2d_11">
      <g>
       <use xlink:href="#m87de04fd4b" x="42.53875" y="46.362981" style="stroke: #000000; stroke-width: 0.8"/>
      </g>
     </g>
     <g id="text_12">
      <!-- 30 -->
      <g transform="translate(22.81375 50.1622) scale(0.1 -0.1)">
       <use xlink:href="#DejaVuSans-33"/>
       <use xlink:href="#DejaVuSans-30" x="63.623047"/>
      </g>
     </g>
    </g>
    <g id="text_13">
     <!-- Average Speed (MB/s) -->
     <g transform="translate(16.318125 271.16375) rotate(-90) scale(0.12 -0.12)">
      <defs>
       <path id="DejaVuSans-41" d="M 2188 4044 
L 1331 1722 
L 3047 1722 
L 2188 4044 
z
M 1831 4666 
L 2547 4666 
L 4325 0 
L 3669 0 
L 3244 1197 
L 1141 1197 
L 716 0 
L 50 0 
L 1831 4666 
z
" transform="scale(0.015625)"/>
       <path id="DejaVuSans-76" d="M 191 3500 
L 800 3500 
L 1894 563 
L 2988 3500 
L 3597 3500 
L 2284 0 
L 1503 0 
L 191 3500 
z
" transform="scale(0.015625)"/>
       <path id="DejaVuSans-67" d="M 2906 1791 
Q 2906 2416 2648 2759 
Q 2391 3103 1925 3103 
Q 1463 3103 1205 2759 
Q 947 2416 947 1791 
Q 947 1169 1205 825 
Q 1463 481 1925 481 
Q 2391 481 2648 825 
Q 2906 1169 2906 1791 
z
M 3481 434 
Q 3481 -459 3084 -895 
Q 2688 -1331 1869 -1331 
Q 1566 -1331 1297 -1286 
Q 1028 -1241 775 -1147 
L 775 -588 
Q 1028 -725 1275 -790 
Q 1522 -856 1778 -856 
Q 2344 -856 2625 -561 
Q 2906 -266 2906 331 
L 2906 616 
Q 2728 306 2450 153 
Q 2172 0 1784 0 
Q 1141 0 747 490 
Q 353 981 353 1791 
Q 353 2603 747 3093 
Q 1141 3584 1784 3584 
Q 2172 3584 2450 3431 
Q 2728 3278 2906 2969 
L 2906 3500 
L 3481 3500 
L 3481 434 
z
" transform="scale(0.015625)"/>
       <path id="DejaVuSans-70" d="M 1159 525 
L 1159 -1331 
L 581 -1331 
L 581 3500 
L 1159 3500 
L 1159 2969 
Q 1341 3281 1617 3432 
Q 1894 3584 2278 3584 
Q 2916 3584 3314 3078 
Q 3713 2572 3713 1747 
Q 3713 922 3314 415 
Q 2916 -91 2278 -91 
Q 1894 -91 1617 61 
Q 1341 213 1159 525 
z
M 3116 1747 
Q 3116 2381 2855 2742 
Q 2594 3103 2138 3103 
Q 1681 3103 1420 2742 
Q 1159 2381 1159 1747 
Q 1159 1113 1420 752 
Q 1681 391 2138 391 
Q 2594 391 2855 752 
Q 3116 1113 3116 1747 
z
" transform="scale(0.015625)"/>
       <path id="DejaVuSans-64" d="M 2906 2969 
L 2906 4863 
L 3481 4863 
L 3481 0 
L 2906 0 
L 2906 525 
Q 2725 213 2448 61 
Q 2172 -91 1784 -91 
Q 1150 -91 751 415 
Q 353 922 353 1747 
Q 353 2572 751 3078 
Q 1150 3584 1784 3584 
Q 2172 3584 2448 3432 
Q 2725 3281 2906 2969 
z
M 947 1747 
Q 947 1113 1208 752 
Q 1469 391 1925 391 
Q 2381 391 2643 752 
Q 2906 1113 2906 1747 
Q 2906 2381 2643 2742 
Q 2381 3103 1925 3103 
Q 1469 3103 1208 2742 
Q 947 2381 947 1747 
z
" transform="scale(0.015625)"/>
       <path id="DejaVuSans-2f" d="M 1625 4666 
L 2156 4666 
L 531 -594 
L 0 -594 
L 1625 4666 
z
" transform="scale(0.015625)"/>
       <path id="DejaVuSans-73" d="M 2834 3397 
L 2834 2853 
Q 2591 2978 2328 3040 
Q 2066 3103 1784 3103 
Q 1356 3103 1142 2972 
Q 928 2841 928 2578 
Q 928 2378 1081 2264 
Q 1234 2150 1697 2047 
L 1894 2003 
Q 2506 1872 2764 1633 
Q 3022 1394 3022 966 
Q 3022 478 2636 193 
Q 2250 -91 1575 -91 
Q 1294 -91 989 -36 
Q 684 19 347 128 
L 347 722 
Q 666 556 975 473 
Q 1284 391 1588 391 
Q 1994 391 2212 530 
Q 2431 669 2431 922 
Q 2431 1156 2273 1281 
Q 2116 1406 1581 1522 
L 1381 1569 
Q 847 1681 609 1914 
Q 372 2147 372 2553 
Q 372 3047 722 3315 
Q 1072 3584 1716 3584 
Q 2034 3584 2315 3537 
Q 2597 3491 2834 3397 
z
" transform="scale(0.015625)"/>
      </defs>
      <use xlink:href="#DejaVuSans-41"/>
      <use xlink:href="#DejaVuSans-76" x="62.533203"/>
      <use xlink:href="#DejaVuSans-65" x="121.712891"/>
      <use xlink:href="#DejaVuSans-72" x="183.236328"/>
      <use xlink:href="#DejaVuSans-61" x="224.349609"/>
      <use xlink:href="#DejaVuSans-67" x="285.628906"/>
      <use xlink:href="#DejaVuSans-65" x="349.105469"/>
      <use xlink:href="#DejaVuSans-20" x="410.628906"/>
      <use xlink:href="#DejaVuSans-53" x="442.416016"/>
      <use xlink:href="#DejaVuSans-70" x="505.892578"/>
      <use xlink:href="#DejaVuSans-65" x="569.369141"/>
      <use xlink:href="#DejaVuSans-65" x="630.892578"/>
      <use xlink:href="#DejaVuSans-64" x="692.416016"/>
      <use xlink:href="#DejaVuSans-20" x="755.892578"/>
      <use xlink:href="#DejaVuSans-28" x="787.679688"/>
      <use xlink:href="#DejaVuSans-4d" x="826.693359"/>
      <use xlink:href="#DejaVuSans-42" x="912.972656"/>
      <use xlink:href="#DejaVuSans-2f" x="981.576172"/>
      <use xlink:href="#DejaVuSans-73" x="1015.267578"/>
      <use xlink:href="#DejaVuSans-29" x="1067.367188"/>
     </g>
    </g>
   </g>
   <g id="patch_6">
    <path d="M 62.6825 352.056057 
L 116.399167 352.056057 
L 116.399167 335.679642 
L 62.6825 335.679642 
L 62.6825 352.056057 
z
" clip-path="url(#pa18eead8bb)" style="fill: #3274a1; stroke: #3d3d3d; stroke-linejoin: miter"/>
   </g>
   <g id="line2d_12">
    <path d="M 89.540833 352.056057 
L 89.540833 366.467302 
" clip-path="url(#pa18eead8bb)" style="fill: none; stroke: #3d3d3d"/>
   </g>
   <g id="line2d_13">
    <path d="M 89.540833 335.679642 
L 89.540833 323.015214 
" clip-path="url(#pa18eead8bb)" style="fill: none; stroke: #3d3d3d"/>
   </g>
   <g id="line2d_14">
    <path d="M 76.111667 366.467302 
L 102.97 366.467302 
" clip-path="url(#pa18eead8bb)" style="fill: none; stroke: #3d3d3d; stroke-linecap: square"/>
   </g>
   <g id="line2d_15">
    <path d="M 76.111667 323.015214 
L 102.97 323.015214 
" clip-path="url(#pa18eead8bb)" style="fill: none; stroke: #3d3d3d; stroke-linecap: square"/>
   </g>
   <g id="line2d_16"/>
   <g id="patch_7">
    <path d="M 264.12 329.210958 
L 317.836667 329.210958 
L 317.836667 266.461996 
L 264.12 266.461996 
L 264.12 329.210958 
z
" clip-path="url(#pa18eead8bb)" style="fill: #3274a1; stroke: #3d3d3d; stroke-linejoin: miter"/>
   </g>
   <g id="line2d_17">
    <path d="M 290.978333 329.210958 
L 290.978333 361.226849 
" clip-path="url(#pa18eead8bb)" style="fill: none; stroke: #3d3d3d"/>
   </g>
   <g id="line2d_18">
    <path d="M 290.978333 266.461996 
L 290.978333 259.256373 
" clip-path="url(#pa18eead8bb)" style="fill: none; stroke: #3d3d3d"/>
   </g>
   <g id="line2d_19">
    <path d="M 277.549167 361.226849 
L 304.4075 361.226849 
" clip-path="url(#pa18eead8bb)" style="fill: none; stroke: #3d3d3d; stroke-linecap: square"/>
   </g>
   <g id="line2d_20">
    <path d="M 277.549167 259.256373 
L 304.4075 259.256373 
" clip-path="url(#pa18eead8bb)" style="fill: none; stroke: #3d3d3d; stroke-linecap: square"/>
   </g>
   <g id="line2d_21">
    <defs>
     <path id="m676bd7db5b" d="M 0 3 
C 0.795609 3 1.55874 2.683901 2.12132 2.12132 
C 2.683901 1.55874 3 0.795609 3 0 
C 3 -0.795609 2.683901 -1.55874 2.12132 -2.12132 
C 1.55874 -2.683901 0.795609 -3 0 -3 
C -0.795609 -3 -1.55874 -2.683901 -2.12132 -2.12132 
C -2.683901 -1.55874 -3 -0.795609 -3 0 
C -3 0.795609 -2.683901 1.55874 -2.12132 2.12132 
C -1.55874 2.683901 -0.795609 3 0 3 
z
" style="stroke: #3d3d3d"/>
    </defs>
    <g clip-path="url(#pa18eead8bb)">
     <use xlink:href="#m676bd7db5b" x="290.978333" y="144.62147" style="fill-opacity: 0; stroke: #3d3d3d"/>
     <use xlink:href="#m676bd7db5b" x="290.978333" y="121.694489" style="fill-opacity: 0; stroke: #3d3d3d"/>
    </g>
   </g>
   <g id="patch_8">
    <path d="M 465.5575 335.897994 
L 519.274167 335.897994 
L 519.274167 226.394367 
L 465.5575 226.394367 
L 465.5575 335.897994 
z
" clip-path="url(#pa18eead8bb)" style="fill: #3274a1; stroke: #3d3d3d; stroke-linejoin: miter"/>
   </g>
   <g id="line2d_22">
    <path d="M 492.415833 335.897994 
L 492.415833 359.589207 
" clip-path="url(#pa18eead8bb)" style="fill: none; stroke: #3d3d3d"/>
   </g>
   <g id="line2d_23">
    <path d="M 492.415833 226.394367 
L 492.415833 220.17133 
" clip-path="url(#pa18eead8bb)" style="fill: none; stroke: #3d3d3d"/>
   </g>
   <g id="line2d_24">
    <path d="M 478.986667 359.589207 
L 505.845 359.589207 
" clip-path="url(#pa18eead8bb)" style="fill: none; stroke: #3d3d3d; stroke-linecap: square"/>
   </g>
   <g id="line2d_25">
    <path d="M 478.986667 220.17133 
L 505.845 220.17133 
" clip-path="url(#pa18eead8bb)" style="fill: none; stroke: #3d3d3d; stroke-linecap: square"/>
   </g>
   <g id="line2d_26">
    <g clip-path="url(#pa18eead8bb)">
     <use xlink:href="#m676bd7db5b" x="492.415833" y="46.253805" style="fill-opacity: 0; stroke: #3d3d3d"/>
     <use xlink:href="#m676bd7db5b" x="492.415833" y="46.253805" style="fill-opacity: 0; stroke: #3d3d3d"/>
    </g>
   </g>
   <g id="patch_9">
    <path d="M 666.995 345.287139 
L 720.711667 345.287139 
L 720.711667 261.985776 
L 666.995 261.985776 
L 666.995 345.287139 
z
" clip-path="url(#pa18eead8bb)" style="fill: #3274a1; stroke: #3d3d3d; stroke-linejoin: miter"/>
   </g>
   <g id="line2d_27">
    <path d="M 693.853333 345.287139 
L 693.853333 359.589207 
" clip-path="url(#pa18eead8bb)" style="fill: none; stroke: #3d3d3d"/>
   </g>
   <g id="line2d_28">
    <path d="M 693.853333 261.985776 
L 693.853333 221.263091 
" clip-path="url(#pa18eead8bb)" style="fill: none; stroke: #3d3d3d"/>
   </g>
   <g id="line2d_29">
    <path d="M 680.424167 359.589207 
L 707.2825 359.589207 
" clip-path="url(#pa18eead8bb)" style="fill: none; stroke: #3d3d3d; stroke-linecap: square"/>
   </g>
   <g id="line2d_30">
    <path d="M 680.424167 221.263091 
L 707.2825 221.263091 
" clip-path="url(#pa18eead8bb)" style="fill: none; stroke: #3d3d3d; stroke-linecap: square"/>
   </g>
   <g id="line2d_31">
    <g clip-path="url(#pa18eead8bb)">
     <use xlink:href="#m676bd7db5b" x="693.853333" y="64.486214" style="fill-opacity: 0; stroke: #3d3d3d"/>
     <use xlink:href="#m676bd7db5b" x="693.853333" y="41.668409" style="fill-opacity: 0; stroke: #3d3d3d"/>
    </g>
   </g>
   <g id="patch_10">
    <path d="M 116.399167 357.514862 
L 170.115833 357.514862 
L 170.115833 350.527591 
L 116.399167 350.527591 
L 116.399167 357.514862 
z
" clip-path="url(#pa18eead8bb)" style="fill: #e1812c; stroke: #3d3d3d; stroke-linejoin: miter"/>
   </g>
   <g id="line2d_32">
    <path d="M 143.2575 357.514862 
L 143.2575 365.703069 
" clip-path="url(#pa18eead8bb)" style="fill: none; stroke: #3d3d3d"/>
   </g>
   <g id="line2d_33">
    <path d="M 143.2575 350.527591 
L 143.2575 341.138447 
" clip-path="url(#pa18eead8bb)" style="fill: none; stroke: #3d3d3d"/>
   </g>
   <g id="line2d_34">
    <path d="M 129.828333 365.703069 
L 156.686667 365.703069 
" clip-path="url(#pa18eead8bb)" style="fill: none; stroke: #3d3d3d; stroke-linecap: square"/>
   </g>
   <g id="line2d_35">
    <path d="M 129.828333 341.138447 
L 156.686667 341.138447 
" clip-path="url(#pa18eead8bb)" style="fill: none; stroke: #3d3d3d; stroke-linecap: square"/>
   </g>
   <g id="line2d_36"/>
   <g id="patch_11">
    <path d="M 317.836667 309.804907 
L 371.553333 309.804907 
L 371.553333 286.222869 
L 317.836667 286.222869 
L 317.836667 309.804907 
z
" clip-path="url(#pa18eead8bb)" style="fill: #e1812c; stroke: #3d3d3d; stroke-linejoin: miter"/>
   </g>
   <g id="line2d_37">
    <path d="M 344.695 309.804907 
L 344.695 327.818963 
" clip-path="url(#pa18eead8bb)" style="fill: none; stroke: #3d3d3d"/>
   </g>
   <g id="line2d_38">
    <path d="M 344.695 286.222869 
L 344.695 279.999832 
" clip-path="url(#pa18eead8bb)" style="fill: none; stroke: #3d3d3d"/>
   </g>
   <g id="line2d_39">
    <path d="M 331.265833 327.818963 
L 358.124167 327.818963 
" clip-path="url(#pa18eead8bb)" style="fill: none; stroke: #3d3d3d; stroke-linecap: square"/>
   </g>
   <g id="line2d_40">
    <path d="M 331.265833 279.999832 
L 358.124167 279.999832 
" clip-path="url(#pa18eead8bb)" style="fill: none; stroke: #3d3d3d; stroke-linecap: square"/>
   </g>
   <g id="line2d_41"/>
   <g id="patch_12">
    <path d="M 519.274167 297.249655 
L 572.990833 297.249655 
L 572.990833 265.479411 
L 519.274167 265.479411 
L 519.274167 297.249655 
z
" clip-path="url(#pa18eead8bb)" style="fill: #e1812c; stroke: #3d3d3d; stroke-linejoin: miter"/>
   </g>
   <g id="line2d_42">
    <path d="M 546.1325 297.249655 
L 546.1325 323.670271 
" clip-path="url(#pa18eead8bb)" style="fill: none; stroke: #3d3d3d"/>
   </g>
   <g id="line2d_43">
    <path d="M 546.1325 265.479411 
L 546.1325 253.47004 
" clip-path="url(#pa18eead8bb)" style="fill: none; stroke: #3d3d3d"/>
   </g>
   <g id="line2d_44">
    <path d="M 532.703333 323.670271 
L 559.561667 323.670271 
" clip-path="url(#pa18eead8bb)" style="fill: none; stroke: #3d3d3d; stroke-linecap: square"/>
   </g>
   <g id="line2d_45">
    <path d="M 532.703333 253.47004 
L 559.561667 253.47004 
" clip-path="url(#pa18eead8bb)" style="fill: none; stroke: #3d3d3d; stroke-linecap: square"/>
   </g>
   <g id="line2d_46"/>
   <g id="patch_13">
    <path d="M 720.711667 296.376247 
L 774.428333 296.376247 
L 774.428333 262.313304 
L 720.711667 262.313304 
L 720.711667 296.376247 
z
" clip-path="url(#pa18eead8bb)" style="fill: #e1812c; stroke: #3d3d3d; stroke-linejoin: miter"/>
   </g>
   <g id="line2d_47">
    <path d="M 747.57 296.376247 
L 747.57 321.159221 
" clip-path="url(#pa18eead8bb)" style="fill: none; stroke: #3d3d3d"/>
   </g>
   <g id="line2d_48">
    <path d="M 747.57 262.313304 
L 747.57 258.49214 
" clip-path="url(#pa18eead8bb)" style="fill: none; stroke: #3d3d3d"/>
   </g>
   <g id="line2d_49">
    <path d="M 734.140833 321.159221 
L 760.999167 321.159221 
" clip-path="url(#pa18eead8bb)" style="fill: none; stroke: #3d3d3d; stroke-linecap: square"/>
   </g>
   <g id="line2d_50">
    <path d="M 734.140833 258.49214 
L 760.999167 258.49214 
" clip-path="url(#pa18eead8bb)" style="fill: none; stroke: #3d3d3d; stroke-linecap: square"/>
   </g>
   <g id="line2d_51"/>
   <g id="patch_14">
    <path d="M 170.115833 362.973666 
L 223.8325 362.973666 
L 223.8325 350.527591 
L 170.115833 350.527591 
L 170.115833 362.973666 
z
" clip-path="url(#pa18eead8bb)" style="fill: #3a923a; stroke: #3d3d3d; stroke-linejoin: miter"/>
   </g>
   <g id="line2d_52">
    <path d="M 196.974167 362.973666 
L 196.974167 367.886591 
" clip-path="url(#pa18eead8bb)" style="fill: none; stroke: #3d3d3d"/>
   </g>
   <g id="line2d_53">
    <path d="M 196.974167 350.527591 
L 196.974167 341.138447 
" clip-path="url(#pa18eead8bb)" style="fill: none; stroke: #3d3d3d"/>
   </g>
   <g id="line2d_54">
    <path d="M 183.545 367.886591 
L 210.403333 367.886591 
" clip-path="url(#pa18eead8bb)" style="fill: none; stroke: #3d3d3d; stroke-linecap: square"/>
   </g>
   <g id="line2d_55">
    <path d="M 183.545 341.138447 
L 210.403333 341.138447 
" clip-path="url(#pa18eead8bb)" style="fill: none; stroke: #3d3d3d; stroke-linecap: square"/>
   </g>
   <g id="line2d_56"/>
   <g id="patch_15">
    <path d="M 371.553333 354.348755 
L 425.27 354.348755 
L 425.27 319.084875 
L 371.553333 319.084875 
L 371.553333 354.348755 
z
" clip-path="url(#pa18eead8bb)" style="fill: #3a923a; stroke: #3d3d3d; stroke-linejoin: miter"/>
   </g>
   <g id="line2d_57">
    <path d="M 398.411667 354.348755 
L 398.411667 359.370855 
" clip-path="url(#pa18eead8bb)" style="fill: none; stroke: #3d3d3d"/>
   </g>
   <g id="line2d_58">
    <path d="M 398.411667 319.084875 
L 398.411667 273.012561 
" clip-path="url(#pa18eead8bb)" style="fill: none; stroke: #3d3d3d"/>
   </g>
   <g id="line2d_59">
    <path d="M 384.9825 359.370855 
L 411.840833 359.370855 
" clip-path="url(#pa18eead8bb)" style="fill: none; stroke: #3d3d3d; stroke-linecap: square"/>
   </g>
   <g id="line2d_60">
    <path d="M 384.9825 273.012561 
L 411.840833 273.012561 
" clip-path="url(#pa18eead8bb)" style="fill: none; stroke: #3d3d3d; stroke-linecap: square"/>
   </g>
   <g id="line2d_61"/>
   <g id="patch_16">
    <path d="M 572.990833 348.234893 
L 626.7075 348.234893 
L 626.7075 280.109008 
L 572.990833 280.109008 
L 572.990833 348.234893 
z
" clip-path="url(#pa18eead8bb)" style="fill: #3a923a; stroke: #3d3d3d; stroke-linejoin: miter"/>
   </g>
   <g id="line2d_62">
    <path d="M 599.849167 348.234893 
L 599.849167 359.370855 
" clip-path="url(#pa18eead8bb)" style="fill: none; stroke: #3d3d3d"/>
   </g>
   <g id="line2d_63">
    <path d="M 599.849167 280.109008 
L 599.849167 274.650203 
" clip-path="url(#pa18eead8bb)" style="fill: none; stroke: #3d3d3d"/>
   </g>
   <g id="line2d_64">
    <path d="M 586.42 359.370855 
L 613.278333 359.370855 
" clip-path="url(#pa18eead8bb)" style="fill: none; stroke: #3d3d3d; stroke-linecap: square"/>
   </g>
   <g id="line2d_65">
    <path d="M 586.42 274.650203 
L 613.278333 274.650203 
" clip-path="url(#pa18eead8bb)" style="fill: none; stroke: #3d3d3d; stroke-linecap: square"/>
   </g>
   <g id="line2d_66"/>
   <g id="patch_17">
    <path d="M 774.428333 348.780774 
L 828.145 348.780774 
L 828.145 280.545712 
L 774.428333 280.545712 
L 774.428333 348.780774 
z
" clip-path="url(#pa18eead8bb)" style="fill: #3a923a; stroke: #3d3d3d; stroke-linejoin: miter"/>
   </g>
   <g id="line2d_67">
    <path d="M 801.286667 348.780774 
L 801.286667 361.991082 
" clip-path="url(#pa18eead8bb)" style="fill: none; stroke: #3d3d3d"/>
   </g>
   <g id="line2d_68">
    <path d="M 801.286667 280.545712 
L 801.286667 279.890656 
" clip-path="url(#pa18eead8bb)" style="fill: none; stroke: #3d3d3d"/>
   </g>
   <g id="line2d_69">
    <path d="M 787.8575 361.991082 
L 814.715833 361.991082 
" clip-path="url(#pa18eead8bb)" style="fill: none; stroke: #3d3d3d; stroke-linecap: square"/>
   </g>
   <g id="line2d_70">
    <path d="M 787.8575 279.890656 
L 814.715833 279.890656 
" clip-path="url(#pa18eead8bb)" style="fill: none; stroke: #3d3d3d; stroke-linecap: square"/>
   </g>
   <g id="line2d_71"/>
   <g id="line2d_72">
    <path d="M 62.6825 341.138447 
L 116.399167 341.138447 
" clip-path="url(#pa18eead8bb)" style="fill: none; stroke: #3d3d3d"/>
   </g>
   <g id="line2d_73">
    <path d="M 264.12 301.507523 
L 317.836667 301.507523 
" clip-path="url(#pa18eead8bb)" style="fill: none; stroke: #3d3d3d"/>
   </g>
   <g id="line2d_74">
    <path d="M 465.5575 294.629429 
L 519.274167 294.629429 
" clip-path="url(#pa18eead8bb)" style="fill: none; stroke: #3d3d3d"/>
   </g>
   <g id="line2d_75">
    <path d="M 666.995 279.126423 
L 720.711667 279.126423 
" clip-path="url(#pa18eead8bb)" style="fill: none; stroke: #3d3d3d"/>
   </g>
   <g id="line2d_76">
    <path d="M 116.399167 352.056057 
L 170.115833 352.056057 
" clip-path="url(#pa18eead8bb)" style="fill: none; stroke: #3d3d3d"/>
   </g>
   <g id="line2d_77">
    <path d="M 317.836667 289.825681 
L 371.553333 289.825681 
" clip-path="url(#pa18eead8bb)" style="fill: none; stroke: #3d3d3d"/>
   </g>
   <g id="line2d_78">
    <path d="M 519.274167 291.354146 
L 572.990833 291.354146 
" clip-path="url(#pa18eead8bb)" style="fill: none; stroke: #3d3d3d"/>
   </g>
   <g id="line2d_79">
    <path d="M 720.711667 278.253014 
L 774.428333 278.253014 
" clip-path="url(#pa18eead8bb)" style="fill: none; stroke: #3d3d3d"/>
   </g>
   <g id="line2d_80">
    <path d="M 170.115833 358.606623 
L 223.8325 358.606623 
" clip-path="url(#pa18eead8bb)" style="fill: none; stroke: #3d3d3d"/>
   </g>
   <g id="line2d_81">
    <path d="M 371.553333 325.417089 
L 425.27 325.417089 
" clip-path="url(#pa18eead8bb)" style="fill: none; stroke: #3d3d3d"/>
   </g>
   <g id="line2d_82">
    <path d="M 572.990833 321.050045 
L 626.7075 321.050045 
" clip-path="url(#pa18eead8bb)" style="fill: none; stroke: #3d3d3d"/>
   </g>
   <g id="line2d_83">
    <path d="M 774.428333 327.273082 
L 828.145 327.273082 
" clip-path="url(#pa18eead8bb)" style="fill: none; stroke: #3d3d3d"/>
   </g>
   <g id="patch_18">
    <path d="M 42.53875 384.1975 
L 42.53875 25.3575 
" style="fill: none; stroke: #000000; stroke-width: 0.8; stroke-linejoin: miter; stroke-linecap: square"/>
   </g>
   <g id="patch_19">
    <path d="M 848.28875 384.1975 
L 848.28875 25.3575 
" style="fill: none; stroke: #000000; stroke-width: 0.8; stroke-linejoin: miter; stroke-linecap: square"/>
   </g>
   <g id="patch_20">
    <path d="M 42.53875 384.1975 
L 848.28875 384.1975 
" style="fill: none; stroke: #000000; stroke-width: 0.8; stroke-linejoin: miter; stroke-linecap: square"/>
   </g>
   <g id="patch_21">
    <path d="M 42.53875 25.3575 
L 848.28875 25.3575 
" style="fill: none; stroke: #000000; stroke-width: 0.8; stroke-linejoin: miter; stroke-linecap: square"/>
   </g>
   <g id="text_14">
    <!-- Average Speed by Protocol and File Size -->
    <g transform="translate(285.31375 19.3575) scale(0.16 -0.16)">
     <defs>
      <path id="DejaVuSans-62" d="M 3116 1747 
Q 3116 2381 2855 2742 
Q 2594 3103 2138 3103 
Q 1681 3103 1420 2742 
Q 1159 2381 1159 1747 
Q 1159 1113 1420 752 
Q 1681 391 2138 391 
Q 2594 391 2855 752 
Q 3116 1113 3116 1747 
z
M 1159 2969 
Q 1341 3281 1617 3432 
Q 1894 3584 2278 3584 
Q 2916 3584 3314 3078 
Q 3713 2572 3713 1747 
Q 3713 922 3314 415 
Q 2916 -91 2278 -91 
Q 1894 -91 1617 61 
Q 1341 213 1159 525 
L 1159 0 
L 581 0 
L 581 4863 
L 1159 4863 
L 1159 2969 
z
" transform="scale(0.015625)"/>
      <path id="DejaVuSans-79" d="M 2059 -325 
Q 1816 -950 1584 -1140 
Q 1353 -1331 966 -1331 
L 506 -1331 
L 506 -850 
L 844 -850 
Q 1081 -850 1212 -737 
Q 1344 -625 1503 -206 
L 1606 56 
L 191 3500 
L 800 3500 
L 1894 763 
L 2988 3500 
L 3597 3500 
L 2059 -325 
z
" transform="scale(0.015625)"/>
      <path id="DejaVuSans-50" d="M 1259 4147 
L 1259 2394 
L 2053 2394 
Q 2494 2394 2734 2622 
Q 2975 2850 2975 3272 
Q 2975 3691 2734 3919 
Q 2494 4147 2053 4147 
L 1259 4147 
z
M 628 4666 
L 2053 4666 
Q 2838 4666 3239 4311 
Q 3641 3956 3641 3272 
Q 3641 2581 3239 2228 
Q 2838 1875 2053 1875 
L 1259 1875 
L 1259 0 
L 628 0 
L 628 4666 
z
" transform="scale(0.015625)"/>
      <path id="DejaVuSans-6f" d="M 1959 3097 
Q 1497 3097 1228 2736 
Q 959 2375 959 1747 
Q 959 1119 1226 758 
Q 1494 397 1959 397 
Q 2419 397 2687 759 
Q 2956 1122 2956 1747 
Q 2956 2369 2687 2733 
Q 2419 3097 1959 3097 
z
M 1959 3584 
Q 2709 3584 3137 3096 
Q 3566 2609 3566 1747 
Q 3566 888 3137 398 
Q 2709 -91 1959 -91 
Q 1206 -91 779 398 
Q 353 888 353 1747 
Q 353 2609 779 3096 
Q 1206 3584 1959 3584 
z
" transform="scale(0.015625)"/>
      <path id="DejaVuSans-74" d="M 1172 4494 
L 1172 3500 
L 2356 3500 
L 2356 3053 
L 1172 3053 
L 1172 1153 
Q 1172 725 1289 603 
Q 1406 481 1766 481 
L 2356 481 
L 2356 0 
L 1766 0 
Q 1100 0 847 248 
Q 594 497 594 1153 
L 594 3053 
L 172 3053 
L 172 3500 
L 594 3500 
L 594 4494 
L 1172 4494 
z
" transform="scale(0.015625)"/>
     </defs>
     <use xlink:href="#DejaVuSans-41"/>
     <use xlink:href="#DejaVuSans-76" x="62.533203"/>
     <use xlink:href="#DejaVuSans-65" x="121.712891"/>
     <use xlink:href="#DejaVuSans-72" x="183.236328"/>
     <use xlink:href="#DejaVuSans-61" x="224.349609"/>
     <use xlink:href="#DejaVuSans-67" x="285.628906"/>
     <use xlink:href="#DejaVuSans-65" x="349.105469"/>
     <use xlink:href="#DejaVuSans-20" x="410.628906"/>
     <use xlink:href="#DejaVuSans-53" x="442.416016"/>
     <use xlink:href="#DejaVuSans-70" x="505.892578"/>
     <use xlink:href="#DejaVuSans-65" x="569.369141"/>
     <use xlink:href="#DejaVuSans-65" x="630.892578"/>
     <use xlink:href="#DejaVuSans-64" x="692.416016"/>
     <use xlink:href="#DejaVuSans-20" x="755.892578"/>
     <use xlink:href="#DejaVuSans-62" x="787.679688"/>
     <use xlink:href="#DejaVuSans-79" x="851.15625"/>
     <use xlink:href="#DejaVuSans-20" x="910.335938"/>
     <use xlink:href="#DejaVuSans-50" x="942.123047"/>
     <use xlink:href="#DejaVuSans-72" x="1000.675781"/>
     <use xlink:href="#DejaVuSans-6f" x="1039.539062"/>
     <use xlink:href="#DejaVuSans-74" x="1100.720703"/>
     <use xlink:href="#DejaVuSans-6f" x="1139.929688"/>
     <use xlink:href="#DejaVuSans-63" x="1201.111328"/>
     <use xlink:href="#DejaVuSans-6f" x="1256.091797"/>
     <use xlink:href="#DejaVuSans-6c" x="1317.273438"/>
     <use xlink:href="#DejaVuSans-20" x="1345.056641"/>
     <use xlink:href="#DejaVuSans-61" x="1376.84375"/>
     <use xlink:href="#DejaVuSans-6e" x="1438.123047"/>
     <use xlink:href="#DejaVuSans-64" x="1501.501953"/>
     <use xlink:href="#DejaVuSans-20" x="1564.978516"/>
     <use xlink:href="#DejaVuSans-46" x="1596.765625"/>
     <use xlink:href="#DejaVuSans-69" x="1647.035156"/>
     <use xlink:href="#DejaVuSans-6c" x="1674.818359"/>
     <use xlink:href="#DejaVuSans-65" x="1702.601562"/>
     <use xlink:href="#DejaVuSans-20" x="1764.125"/>
     <use xlink:href="#DejaVuSans-53" x="1795.912109"/>
     <use xlink:href="#DejaVuSans-69" x="1859.388672"/>
     <use xlink:href="#DejaVuSans-7a" x="1887.171875"/>
     <use xlink:href="#DejaVuSans-65" x="1939.662109"/>
    </g>
   </g>
   <g id="legend_1">
    <g id="patch_22">
     <path d="M 49.53875 92.07 
L 144.023125 92.07 
Q 146.023125 92.07 146.023125 90.07 
L 146.023125 32.3575 
Q 146.023125 30.3575 144.023125 30.3575 
L 49.53875 30.3575 
Q 47.53875 30.3575 47.53875 32.3575 
L 47.53875 90.07 
Q 47.53875 92.07 49.53875 92.07 
z
" style="fill: #ffffff; opacity: 0.8; stroke: #cccccc; stroke-linejoin: miter"/>
    </g>
    <g id="text_15">
     <!-- Protocol -->
     <g transform="translate(76.634062 41.955938) scale(0.1 -0.1)">
      <use xlink:href="#DejaVuSans-50"/>
      <use xlink:href="#DejaVuSans-72" x="58.552734"/>
      <use xlink:href="#DejaVuSans-6f" x="97.416016"/>
      <use xlink:href="#DejaVuSans-74" x="158.597656"/>
      <use xlink:href="#DejaVuSans-6f" x="197.806641"/>
      <use xlink:href="#DejaVuSans-63" x="258.988281"/>
      <use xlink:href="#DejaVuSans-6f" x="313.96875"/>
      <use xlink:href="#DejaVuSans-6c" x="375.150391"/>
     </g>
    </g>
    <g id="patch_23">
     <path d="M 51.53875 56.634063 
L 71.53875 56.634063 
L 71.53875 49.634063 
L 51.53875 49.634063 
z
" style="fill: #3274a1; stroke: #3d3d3d; stroke-linejoin: miter"/>
    </g>
    <g id="text_16">
     <!-- ftp -->
     <g transform="translate(79.53875 56.634063) scale(0.1 -0.1)">
      <defs>
       <path id="DejaVuSans-66" d="M 2375 4863 
L 2375 4384 
L 1825 4384 
Q 1516 4384 1395 4259 
Q 1275 4134 1275 3809 
L 1275 3500 
L 2222 3500 
L 2222 3053 
L 1275 3053 
L 1275 0 
L 697 0 
L 697 3053 
L 147 3053 
L 147 3500 
L 697 3500 
L 697 3744 
Q 697 4328 969 4595 
Q 1241 4863 1831 4863 
L 2375 4863 
z
" transform="scale(0.015625)"/>
      </defs>
      <use xlink:href="#DejaVuSans-66"/>
      <use xlink:href="#DejaVuSans-74" x="33.455078"/>
      <use xlink:href="#DejaVuSans-70" x="72.664062"/>
     </g>
    </g>
    <g id="patch_24">
     <path d="M 51.53875 71.312188 
L 71.53875 71.312188 
L 71.53875 64.312188 
L 51.53875 64.312188 
z
" style="fill: #e1812c; stroke: #3d3d3d; stroke-linejoin: miter"/>
    </g>
    <g id="text_17">
     <!-- aspera -->
     <g transform="translate(79.53875 71.312188) scale(0.1 -0.1)">
      <use xlink:href="#DejaVuSans-61"/>
      <use xlink:href="#DejaVuSans-73" x="61.279297"/>
      <use xlink:href="#DejaVuSans-70" x="113.378906"/>
      <use xlink:href="#DejaVuSans-65" x="176.855469"/>
      <use xlink:href="#DejaVuSans-72" x="238.378906"/>
      <use xlink:href="#DejaVuSans-61" x="279.492188"/>
     </g>
    </g>
    <g id="patch_25">
     <path d="M 51.53875 85.990313 
L 71.53875 85.990313 
L 71.53875 78.990313 
L 51.53875 78.990313 
z
" style="fill: #3a923a; stroke: #3d3d3d; stroke-linejoin: miter"/>
    </g>
    <g id="text_18">
     <!-- globus-https -->
     <g transform="translate(79.53875 85.990313) scale(0.1 -0.1)">
      <defs>
       <path id="DejaVuSans-75" d="M 544 1381 
L 544 3500 
L 1119 3500 
L 1119 1403 
Q 1119 906 1312 657 
Q 1506 409 1894 409 
Q 2359 409 2629 706 
Q 2900 1003 2900 1516 
L 2900 3500 
L 3475 3500 
L 3475 0 
L 2900 0 
L 2900 538 
Q 2691 219 2414 64 
Q 2138 -91 1772 -91 
Q 1169 -91 856 284 
Q 544 659 544 1381 
z
M 1991 3584 
L 1991 3584 
z
" transform="scale(0.015625)"/>
       <path id="DejaVuSans-2d" d="M 313 2009 
L 1997 2009 
L 1997 1497 
L 313 1497 
L 313 2009 
z
" transform="scale(0.015625)"/>
      </defs>
      <use xlink:href="#DejaVuSans-67"/>
      <use xlink:href="#DejaVuSans-6c" x="63.476562"/>
      <use xlink:href="#DejaVuSans-6f" x="91.259766"/>
      <use xlink:href="#DejaVuSans-62" x="152.441406"/>
      <use xlink:href="#DejaVuSans-75" x="215.917969"/>
      <use xlink:href="#DejaVuSans-73" x="279.296875"/>
      <use xlink:href="#DejaVuSans-2d" x="331.396484"/>
      <use xlink:href="#DejaVuSans-68" x="367.480469"/>
      <use xlink:href="#DejaVuSans-74" x="430.859375"/>
      <use xlink:href="#DejaVuSans-74" x="470.068359"/>
      <use xlink:href="#DejaVuSans-70" x="509.277344"/>
      <use xlink:href="#DejaVuSans-73" x="572.753906"/>
     </g>
    </g>
   </g>
  </g>
 </g>
 <defs>
  <clipPath id="pa18eead8bb">
   <rect x="42.53875" y="25.3575" width="805.75" height="358.84"/>
  </clipPath>
 </defs>
</svg>
