<?xml version="1.0" encoding="utf-8" standalone="no"?>
<!DOCTYPE svg PUBLIC "-//W3C//DTD SVG 1.1//EN"
  "http://www.w3.org/Graphics/SVG/1.1/DTD/svg11.dtd">
<svg xmlns:xlink="http://www.w3.org/1999/xlink" width="910.28928pt" height="1293.79625pt" viewBox="0 0 910.28928 1293.79625" xmlns="http://www.w3.org/2000/svg" version="1.1">
 <metadata>
  <rdf:RDF xmlns:dc="http://purl.org/dc/elements/1.1/" xmlns:cc="http://creativecommons.org/ns#" xmlns:rdf="http://www.w3.org/1999/02/22-rdf-syntax-ns#">
   <cc:Work>
    <dc:type rdf:resource="http://purl.org/dc/dcmitype/StillImage"/>
    <dc:date>2024-10-02T14:55:07.254923</dc:date>
    <dc:format>image/svg+xml</dc:format>
    <dc:creator>
     <cc:Agent>
      <dc:title>Matplotlib v3.7.4, https://matplotlib.org/</dc:title>
     </cc:Agent>
    </dc:creator>
   </cc:Work>
  </rdf:RDF>
 </metadata>
 <defs>
  <style type="text/css">*{stroke-linejoin: round; stroke-linecap: butt}</style>
 </defs>
 <g id="figure_1">
  <g id="patch_1">
   <path d="M 0 1293.79625 
L 910.28928 1293.79625 
L 910.28928 0 
L 0 0 
z
" style="fill: #ffffff"/>
  </g>
  <g id="axes_1">
   <g id="patch_2">
    <path d="M 40.603125 496.411214 
L 820.83248 496.411214 
L 820.83248 131.8 
L 40.603125 131.8 
z
" style="fill: #ffffff"/>
   </g>
   <g id="patch_3">
    <path d="M 60.108859 496.411214 
L 99.120327 496.411214 
L 99.120327 458.319145 
L 60.108859 458.319145 
z
" clip-path="url(#p855619a020)" style="fill: #e1812c"/>
   </g>
   <g id="patch_4">
    <path d="M 255.166198 496.411214 
L 294.177665 496.411214 
L 294.177665 422.153666 
L 255.166198 422.153666 
z
" clip-path="url(#p855619a020)" style="fill: #e1812c"/>
   </g>
   <g id="patch_5">
    <path d="M 450.223536 496.411214 
L 489.235004 496.411214 
L 489.235004 414.510953 
L 450.223536 414.510953 
z
" clip-path="url(#p855619a020)" style="fill: #e1812c"/>
   </g>
   <g id="patch_6">
    <path d="M 645.280875 496.411214 
L 684.292343 496.411214 
L 684.292343 412.243017 
L 645.280875 412.243017 
z
" clip-path="url(#p855619a020)" style="fill: #e1812c"/>
   </g>
   <g id="patch_7">
    <path d="M 99.120327 496.411214 
L 138.131794 496.411214 
L 138.131794 454.465968 
L 99.120327 454.465968 
z
" clip-path="url(#p855619a020)" style="fill: #3274a1"/>
   </g>
   <g id="patch_8">
    <path d="M 294.177665 496.411214 
L 333.189133 496.411214 
L 333.189133 448.911839 
L 294.177665 448.911839 
z
" clip-path="url(#p855619a020)" style="fill: #3274a1"/>
   </g>
   <g id="patch_9">
    <path d="M 489.235004 496.411214 
L 528.246472 496.411214 
L 528.246472 458.515854 
L 489.235004 458.515854 
z
" clip-path="url(#p855619a020)" style="fill: #3274a1"/>
   </g>
   <g id="patch_10">
    <path d="M 684.292343 496.411214 
L 723.303811 496.411214 
L 723.303811 466.268493 
L 684.292343 466.268493 
z
" clip-path="url(#p855619a020)" style="fill: #3274a1"/>
   </g>
   <g id="patch_11">
    <path d="M 138.131794 496.411214 
L 177.143262 496.411214 
L 177.143262 472.025116 
L 138.131794 472.025116 
z
" clip-path="url(#p855619a020)" style="fill: #c03d3e"/>
   </g>
   <g id="patch_12">
    <path d="M 333.189133 496.411214 
L 372.200601 496.411214 
L 372.200601 361.029319 
L 333.189133 361.029319 
z
" clip-path="url(#p855619a020)" style="fill: #c03d3e"/>
   </g>
   <g id="patch_13">
    <path d="M 528.246472 496.411214 
L 567.25794 496.411214 
L 567.25794 315.178827 
L 528.246472 315.178827 
z
" clip-path="url(#p855619a020)" style="fill: #c03d3e"/>
   </g>
   <g id="patch_14">
    <path d="M 723.303811 496.411214 
L 762.315279 496.411214 
L 762.315279 318.216241 
L 723.303811 318.216241 
z
" clip-path="url(#p855619a020)" style="fill: #c03d3e"/>
   </g>
   <g id="patch_15">
    <path d="M 177.143262 496.411214 
L 216.15473 496.411214 
L 216.15473 474.715397 
L 177.143262 474.715397 
z
" clip-path="url(#p855619a020)" style="fill: #9372b2"/>
   </g>
   <g id="patch_16">
    <path d="M 372.200601 496.411214 
L 411.212069 496.411214 
L 411.212069 380.005926 
L 372.200601 380.005926 
z
" clip-path="url(#p855619a020)" style="fill: #9372b2"/>
   </g>
   <g id="patch_17">
    <path d="M 567.25794 496.411214 
L 606.269408 496.411214 
L 606.269408 336.78786 
L 567.25794 336.78786 
z
" clip-path="url(#p855619a020)" style="fill: #9372b2"/>
   </g>
   <g id="patch_18">
    <path d="M 762.315279 496.411214 
L 801.326746 496.411214 
L 801.326746 356.227311 
L 762.315279 356.227311 
z
" clip-path="url(#p855619a020)" style="fill: #9372b2"/>
   </g>
   <g id="patch_19">
    <path d="M 138.131794 496.411214 
L 138.131794 496.411214 
L 138.131794 496.411214 
L 138.131794 496.411214 
z
" clip-path="url(#p855619a020)" style="fill: #e1812c"/>
   </g>
   <g id="patch_20">
    <path d="M 138.131794 496.411214 
L 138.131794 496.411214 
L 138.131794 496.411214 
L 138.131794 496.411214 
z
" clip-path="url(#p855619a020)" style="fill: #3274a1"/>
   </g>
   <g id="patch_21">
    <path d="M 138.131794 496.411214 
L 138.131794 496.411214 
L 138.131794 496.411214 
L 138.131794 496.411214 
z
" clip-path="url(#p855619a020)" style="fill: #c03d3e"/>
   </g>
   <g id="patch_22">
    <path d="M 138.131794 496.411214 
L 138.131794 496.411214 
L 138.131794 496.411214 
L 138.131794 496.411214 
z
" clip-path="url(#p855619a020)" style="fill: #9372b2"/>
   </g>
   <g id="matplotlib.axis_1">
    <g id="xtick_1">
     <g id="line2d_1">
      <defs>
       <path id="mf139604adc" d="M 0 0 
L 0 3.5 
" style="stroke: #000000; stroke-width: 0.8"/>
      </defs>
      <g>
       <use xlink:href="#mf139604adc" x="138.131794" y="496.411214" style="stroke: #000000; stroke-width: 0.8"/>
      </g>
     </g>
    </g>
    <g id="xtick_2">
     <g id="line2d_2">
      <g>
       <use xlink:href="#mf139604adc" x="333.189133" y="496.411214" style="stroke: #000000; stroke-width: 0.8"/>
      </g>
     </g>
    </g>
    <g id="xtick_3">
     <g id="line2d_3">
      <g>
       <use xlink:href="#mf139604adc" x="528.246472" y="496.411214" style="stroke: #000000; stroke-width: 0.8"/>
      </g>
     </g>
    </g>
    <g id="xtick_4">
     <g id="line2d_4">
      <g>
       <use xlink:href="#mf139604adc" x="723.303811" y="496.411214" style="stroke: #000000; stroke-width: 0.8"/>
      </g>
     </g>
    </g>
   </g>
   <g id="matplotlib.axis_2">
    <g id="ytick_1">
     <g id="line2d_5">
      <defs>
       <path id="mbf91ba449f" d="M 0 0 
L -3.5 0 
" style="stroke: #000000; stroke-width: 0.8"/>
      </defs>
      <g>
       <use xlink:href="#mbf91ba449f" x="40.603125" y="496.411214" style="stroke: #000000; stroke-width: 0.8"/>
      </g>
     </g>
     <g id="text_1">
      <!-- 0 -->
      <g transform="translate(27.240625 500.210432) scale(0.1 -0.1)">
       <defs>
        <path id="DejaVuSans-30" d="M 2034 4250 
Q 1547 4250 1301 3770 
Q 1056 3291 1056 2328 
Q 1056 1369 1301 889 
Q 1547 409 2034 409 
Q 2525 409 2770 889 
Q 3016 1369 3016 2328 
Q 3016 3291 2770 3770 
Q 2525 4250 2034 4250 
z
M 2034 4750 
Q 2819 4750 3233 4129 
Q 3647 3509 3647 2328 
Q 3647 1150 3233 529 
Q 2819 -91 2034 -91 
Q 1250 -91 836 529 
Q 422 1150 422 2328 
Q 422 3509 836 4129 
Q 1250 4750 2034 4750 
z
" transform="scale(0.015625)"/>
       </defs>
       <use xlink:href="#DejaVuSans-30"/>
      </g>
     </g>
    </g>
    <g id="ytick_2">
     <g id="line2d_6">
      <g>
       <use xlink:href="#mbf91ba449f" x="40.603125" y="438.555703" style="stroke: #000000; stroke-width: 0.8"/>
      </g>
     </g>
     <g id="text_2">
      <!-- 5 -->
      <g transform="translate(27.240625 442.354922) scale(0.1 -0.1)">
       <defs>
        <path id="DejaVuSans-35" d="M 691 4666 
L 3169 4666 
L 3169 4134 
L 1269 4134 
L 1269 2991 
Q 1406 3038 1543 3061 
Q 1681 3084 1819 3084 
Q 2600 3084 3056 2656 
Q 3513 2228 3513 1497 
Q 3513 744 3044 326 
Q 2575 -91 1722 -91 
Q 1428 -91 1123 -41 
Q 819 9 494 109 
L 494 744 
Q 775 591 1075 516 
Q 1375 441 1709 441 
Q 2250 441 2565 725 
Q 2881 1009 2881 1497 
Q 2881 1984 2565 2268 
Q 2250 2553 1709 2553 
Q 1456 2553 1204 2497 
Q 953 2441 691 2322 
L 691 4666 
z
" transform="scale(0.015625)"/>
       </defs>
       <use xlink:href="#DejaVuSans-35"/>
      </g>
     </g>
    </g>
    <g id="ytick_3">
     <g id="line2d_7">
      <g>
       <use xlink:href="#mbf91ba449f" x="40.603125" y="380.700192" style="stroke: #000000; stroke-width: 0.8"/>
      </g>
     </g>
     <g id="text_3">
      <!-- 10 -->
      <g transform="translate(20.878125 384.499411) scale(0.1 -0.1)">
       <defs>
        <path id="DejaVuSans-31" d="M 794 531 
L 1825 531 
L 1825 4091 
L 703 3866 
L 703 4441 
L 1819 4666 
L 2450 4666 
L 2450 531 
L 3481 531 
L 3481 0 
L 794 0 
L 794 531 
z
" transform="scale(0.015625)"/>
       </defs>
       <use xlink:href="#DejaVuSans-31"/>
       <use xlink:href="#DejaVuSans-30" x="63.623047"/>
      </g>
     </g>
    </g>
    <g id="ytick_4">
     <g id="line2d_8">
      <g>
       <use xlink:href="#mbf91ba449f" x="40.603125" y="322.844682" style="stroke: #000000; stroke-width: 0.8"/>
      </g>
     </g>
     <g id="text_4">
      <!-- 15 -->
      <g transform="translate(20.878125 326.6439) scale(0.1 -0.1)">
       <use xlink:href="#DejaVuSans-31"/>
       <use xlink:href="#DejaVuSans-35" x="63.623047"/>
      </g>
     </g>
    </g>
    <g id="ytick_5">
     <g id="line2d_9">
      <g>
       <use xlink:href="#mbf91ba449f" x="40.603125" y="264.989171" style="stroke: #000000; stroke-width: 0.8"/>
      </g>
     </g>
     <g id="text_5">
      <!-- 20 -->
      <g transform="translate(20.878125 268.78839) scale(0.1 -0.1)">
       <defs>
        <path id="DejaVuSans-32" d="M 1228 531 
L 3431 531 
L 3431 0 
L 469 0 
L 469 531 
Q 828 903 1448 1529 
Q 2069 2156 2228 2338 
Q 2531 2678 2651 2914 
Q 2772 3150 2772 3378 
Q 2772 3750 2511 3984 
Q 2250 4219 1831 4219 
Q 1534 4219 1204 4116 
Q 875 4013 500 3803 
L 500 4441 
Q 881 4594 1212 4672 
Q 1544 4750 1819 4750 
Q 2544 4750 2975 4387 
Q 3406 4025 3406 3419 
Q 3406 3131 3298 2873 
Q 3191 2616 2906 2266 
Q 2828 2175 2409 1742 
Q 1991 1309 1228 531 
z
" transform="scale(0.015625)"/>
       </defs>
       <use xlink:href="#DejaVuSans-32"/>
       <use xlink:href="#DejaVuSans-30" x="63.623047"/>
      </g>
     </g>
    </g>
    <g id="ytick_6">
     <g id="line2d_10">
      <g>
       <use xlink:href="#mbf91ba449f" x="40.603125" y="207.13366" style="stroke: #000000; stroke-width: 0.8"/>
      </g>
     </g>
     <g id="text_6">
      <!-- 25 -->
      <g transform="translate(20.878125 210.932879) scale(0.1 -0.1)">
       <use xlink:href="#DejaVuSans-32"/>
       <use xlink:href="#DejaVuSans-35" x="63.623047"/>
      </g>
     </g>
    </g>
    <g id="ytick_7">
     <g id="line2d_11">
      <g>
       <use xlink:href="#mbf91ba449f" x="40.603125" y="149.27815" style="stroke: #000000; stroke-width: 0.8"/>
      </g>
     </g>
     <g id="text_7">
      <!-- 30 -->
      <g transform="translate(20.878125 153.077369) scale(0.1 -0.1)">
       <defs>
        <path id="DejaVuSans-33" d="M 2597 2516 
Q 3050 2419 3304 2112 
Q 3559 1806 3559 1356 
Q 3559 666 3084 287 
Q 2609 -91 1734 -91 
Q 1441 -91 1130 -33 
Q 819 25 488 141 
L 488 750 
Q 750 597 1062 519 
Q 1375 441 1716 441 
Q 2309 441 2620 675 
Q 2931 909 2931 1356 
Q 2931 1769 2642 2001 
Q 2353 2234 1838 2234 
L 1294 2234 
L 1294 2753 
L 1863 2753 
Q 2328 2753 2575 2939 
Q 2822 3125 2822 3475 
Q 2822 3834 2567 4026 
Q 2313 4219 1838 4219 
Q 1578 4219 1281 4162 
Q 984 4106 628 3988 
L 628 4550 
Q 988 4650 1302 4700 
Q 1616 4750 1894 4750 
Q 2613 4750 3031 4423 
Q 3450 4097 3450 3541 
Q 3450 3153 3228 2886 
Q 3006 2619 2597 2516 
z
" transform="scale(0.015625)"/>
       </defs>
       <use xlink:href="#DejaVuSans-33"/>
       <use xlink:href="#DejaVuSans-30" x="63.623047"/>
      </g>
     </g>
    </g>
    <g id="text_8">
     <!-- Average Speed (MB/s) -->
     <g transform="translate(14.798438 369.427482) rotate(-90) scale(0.1 -0.1)">
      <defs>
       <path id="DejaVuSans-41" d="M 2188 4044 
L 1331 1722 
L 3047 1722 
L 2188 4044 
z
M 1831 4666 
L 2547 4666 
L 4325 0 
L 3669 0 
L 3244 1197 
L 1141 1197 
L 716 0 
L 50 0 
L 1831 4666 
z
" transform="scale(0.015625)"/>
       <path id="DejaVuSans-76" d="M 191 3500 
L 800 3500 
L 1894 563 
L 2988 3500 
L 3597 3500 
L 2284 0 
L 1503 0 
L 191 3500 
z
" transform="scale(0.015625)"/>
       <path id="DejaVuSans-65" d="M 3597 1894 
L 3597 1613 
L 953 1613 
Q 991 1019 1311 708 
Q 1631 397 2203 397 
Q 2534 397 2845 478 
Q 3156 559 3463 722 
L 3463 178 
Q 3153 47 2828 -22 
Q 2503 -91 2169 -91 
Q 1331 -91 842 396 
Q 353 884 353 1716 
Q 353 2575 817 3079 
Q 1281 3584 2069 3584 
Q 2775 3584 3186 3129 
Q 3597 2675 3597 1894 
z
M 3022 2063 
Q 3016 2534 2758 2815 
Q 2500 3097 2075 3097 
Q 1594 3097 1305 2825 
Q 1016 2553 972 2059 
L 3022 2063 
z
" transform="scale(0.015625)"/>
       <path id="DejaVuSans-72" d="M 2631 2963 
Q 2534 3019 2420 3045 
Q 2306 3072 2169 3072 
Q 1681 3072 1420 2755 
Q 1159 2438 1159 1844 
L 1159 0 
L 581 0 
L 581 3500 
L 1159 3500 
L 1159 2956 
Q 1341 3275 1631 3429 
Q 1922 3584 2338 3584 
Q 2397 3584 2469 3576 
Q 2541 3569 2628 3553 
L 2631 2963 
z
" transform="scale(0.015625)"/>
       <path id="DejaVuSans-61" d="M 2194 1759 
Q 1497 1759 1228 1600 
Q 959 1441 959 1056 
Q 959 750 1161 570 
Q 1363 391 1709 391 
Q 2188 391 2477 730 
Q 2766 1069 2766 1631 
L 2766 1759 
L 2194 1759 
z
M 3341 1997 
L 3341 0 
L 2766 0 
L 2766 531 
Q 2569 213 2275 61 
Q 1981 -91 1556 -91 
Q 1019 -91 701 211 
Q 384 513 384 1019 
Q 384 1609 779 1909 
Q 1175 2209 1959 2209 
L 2766 2209 
L 2766 2266 
Q 2766 2663 2505 2880 
Q 2244 3097 1772 3097 
Q 1472 3097 1187 3025 
Q 903 2953 641 2809 
L 641 3341 
Q 956 3463 1253 3523 
Q 1550 3584 1831 3584 
Q 2591 3584 2966 3190 
Q 3341 2797 3341 1997 
z
" transform="scale(0.015625)"/>
       <path id="DejaVuSans-67" d="M 2906 1791 
Q 2906 2416 2648 2759 
Q 2391 3103 1925 3103 
Q 1463 3103 1205 2759 
Q 947 2416 947 1791 
Q 947 1169 1205 825 
Q 1463 481 1925 481 
Q 2391 481 2648 825 
Q 2906 1169 2906 1791 
z
M 3481 434 
Q 3481 -459 3084 -895 
Q 2688 -1331 1869 -1331 
Q 1566 -1331 1297 -1286 
Q 1028 -1241 775 -1147 
L 775 -588 
Q 1028 -725 1275 -790 
Q 1522 -856 1778 -856 
Q 2344 -856 2625 -561 
Q 2906 -266 2906 331 
L 2906 616 
Q 2728 306 2450 153 
Q 2172 0 1784 0 
Q 1141 0 747 490 
Q 353 981 353 1791 
Q 353 2603 747 3093 
Q 1141 3584 1784 3584 
Q 2172 3584 2450 3431 
Q 2728 3278 2906 2969 
L 2906 3500 
L 3481 3500 
L 3481 434 
z
" transform="scale(0.015625)"/>
       <path id="DejaVuSans-20" transform="scale(0.015625)"/>
       <path id="DejaVuSans-53" d="M 3425 4513 
L 3425 3897 
Q 3066 4069 2747 4153 
Q 2428 4238 2131 4238 
Q 1616 4238 1336 4038 
Q 1056 3838 1056 3469 
Q 1056 3159 1242 3001 
Q 1428 2844 1947 2747 
L 2328 2669 
Q 3034 2534 3370 2195 
Q 3706 1856 3706 1288 
Q 3706 609 3251 259 
Q 2797 -91 1919 -91 
Q 1588 -91 1214 -16 
Q 841 59 441 206 
L 441 856 
Q 825 641 1194 531 
Q 1563 422 1919 422 
Q 2459 422 2753 634 
Q 3047 847 3047 1241 
Q 3047 1584 2836 1778 
Q 2625 1972 2144 2069 
L 1759 2144 
Q 1053 2284 737 2584 
Q 422 2884 422 3419 
Q 422 4038 858 4394 
Q 1294 4750 2059 4750 
Q 2388 4750 2728 4690 
Q 3069 4631 3425 4513 
z
" transform="scale(0.015625)"/>
       <path id="DejaVuSans-70" d="M 1159 525 
L 1159 -1331 
L 581 -1331 
L 581 3500 
L 1159 3500 
L 1159 2969 
Q 1341 3281 1617 3432 
Q 1894 3584 2278 3584 
Q 2916 3584 3314 3078 
Q 3713 2572 3713 1747 
Q 3713 922 3314 415 
Q 2916 -91 2278 -91 
Q 1894 -91 1617 61 
Q 1341 213 1159 525 
z
M 3116 1747 
Q 3116 2381 2855 2742 
Q 2594 3103 2138 3103 
Q 1681 3103 1420 2742 
Q 1159 2381 1159 1747 
Q 1159 1113 1420 752 
Q 1681 391 2138 391 
Q 2594 391 2855 752 
Q 3116 1113 3116 1747 
z
" transform="scale(0.015625)"/>
       <path id="DejaVuSans-64" d="M 2906 2969 
L 2906 4863 
L 3481 4863 
L 3481 0 
L 2906 0 
L 2906 525 
Q 2725 213 2448 61 
Q 2172 -91 1784 -91 
Q 1150 -91 751 415 
Q 353 922 353 1747 
Q 353 2572 751 3078 
Q 1150 3584 1784 3584 
Q 2172 3584 2448 3432 
Q 2725 3281 2906 2969 
z
M 947 1747 
Q 947 1113 1208 752 
Q 1469 391 1925 391 
Q 2381 391 2643 752 
Q 2906 1113 2906 1747 
Q 2906 2381 2643 2742 
Q 2381 3103 1925 3103 
Q 1469 3103 1208 2742 
Q 947 2381 947 1747 
z
" transform="scale(0.015625)"/>
       <path id="DejaVuSans-28" d="M 1984 4856 
Q 1566 4138 1362 3434 
Q 1159 2731 1159 2009 
Q 1159 1288 1364 580 
Q 1569 -128 1984 -844 
L 1484 -844 
Q 1016 -109 783 600 
Q 550 1309 550 2009 
Q 550 2706 781 3412 
Q 1013 4119 1484 4856 
L 1984 4856 
z
" transform="scale(0.015625)"/>
       <path id="DejaVuSans-4d" d="M 628 4666 
L 1569 4666 
L 2759 1491 
L 3956 4666 
L 4897 4666 
L 4897 0 
L 4281 0 
L 4281 4097 
L 3078 897 
L 2444 897 
L 1241 4097 
L 1241 0 
L 628 0 
L 628 4666 
z
" transform="scale(0.015625)"/>
       <path id="DejaVuSans-42" d="M 1259 2228 
L 1259 519 
L 2272 519 
Q 2781 519 3026 730 
Q 3272 941 3272 1375 
Q 3272 1813 3026 2020 
Q 2781 2228 2272 2228 
L 1259 2228 
z
M 1259 4147 
L 1259 2741 
L 2194 2741 
Q 2656 2741 2882 2914 
Q 3109 3088 3109 3444 
Q 3109 3797 2882 3972 
Q 2656 4147 2194 4147 
L 1259 4147 
z
M 628 4666 
L 2241 4666 
Q 2963 4666 3353 4366 
Q 3744 4066 3744 3513 
Q 3744 3084 3544 2831 
Q 3344 2578 2956 2516 
Q 3422 2416 3680 2098 
Q 3938 1781 3938 1306 
Q 3938 681 3513 340 
Q 3088 0 2303 0 
L 628 0 
L 628 4666 
z
" transform="scale(0.015625)"/>
       <path id="DejaVuSans-2f" d="M 1625 4666 
L 2156 4666 
L 531 -594 
L 0 -594 
L 1625 4666 
z
" transform="scale(0.015625)"/>
       <path id="DejaVuSans-73" d="M 2834 3397 
L 2834 2853 
Q 2591 2978 2328 3040 
Q 2066 3103 1784 3103 
Q 1356 3103 1142 2972 
Q 928 2841 928 2578 
Q 928 2378 1081 2264 
Q 1234 2150 1697 2047 
L 1894 2003 
Q 2506 1872 2764 1633 
Q 3022 1394 3022 966 
Q 3022 478 2636 193 
Q 2250 -91 1575 -91 
Q 1294 -91 989 -36 
Q 684 19 347 128 
L 347 722 
Q 666 556 975 473 
Q 1284 391 1588 391 
Q 1994 391 2212 530 
Q 2431 669 2431 922 
Q 2431 1156 2273 1281 
Q 2116 1406 1581 1522 
L 1381 1569 
Q 847 1681 609 1914 
Q 372 2147 372 2553 
Q 372 3047 722 3315 
Q 1072 3584 1716 3584 
Q 2034 3584 2315 3537 
Q 2597 3491 2834 3397 
z
" transform="scale(0.015625)"/>
       <path id="DejaVuSans-29" d="M 513 4856 
L 1013 4856 
Q 1481 4119 1714 3412 
Q 1947 2706 1947 2009 
Q 1947 1309 1714 600 
Q 1481 -109 1013 -844 
L 513 -844 
Q 928 -128 1133 580 
Q 1338 1288 1338 2009 
Q 1338 2731 1133 3434 
Q 928 4138 513 4856 
z
" transform="scale(0.015625)"/>
      </defs>
      <use xlink:href="#DejaVuSans-41"/>
      <use xlink:href="#DejaVuSans-76" x="62.533203"/>
      <use xlink:href="#DejaVuSans-65" x="121.712891"/>
      <use xlink:href="#DejaVuSans-72" x="183.236328"/>
      <use xlink:href="#DejaVuSans-61" x="224.349609"/>
      <use xlink:href="#DejaVuSans-67" x="285.628906"/>
      <use xlink:href="#DejaVuSans-65" x="349.105469"/>
      <use xlink:href="#DejaVuSans-20" x="410.628906"/>
      <use xlink:href="#DejaVuSans-53" x="442.416016"/>
      <use xlink:href="#DejaVuSans-70" x="505.892578"/>
      <use xlink:href="#DejaVuSans-65" x="569.369141"/>
      <use xlink:href="#DejaVuSans-65" x="630.892578"/>
      <use xlink:href="#DejaVuSans-64" x="692.416016"/>
      <use xlink:href="#DejaVuSans-20" x="755.892578"/>
      <use xlink:href="#DejaVuSans-28" x="787.679688"/>
      <use xlink:href="#DejaVuSans-4d" x="826.693359"/>
      <use xlink:href="#DejaVuSans-42" x="912.972656"/>
      <use xlink:href="#DejaVuSans-2f" x="981.576172"/>
      <use xlink:href="#DejaVuSans-73" x="1015.267578"/>
      <use xlink:href="#DejaVuSans-29" x="1067.367188"/>
     </g>
    </g>
   </g>
   <g id="line2d_12">
    <path d="M 79.614593 464.474972 
L 79.614593 450.534108 
" clip-path="url(#p855619a020)" style="fill: none; stroke: #424242; stroke-width: 2.25; stroke-linecap: square"/>
   </g>
   <g id="line2d_13">
    <path d="M 274.671932 441.217057 
L 274.671932 403.090275 
" clip-path="url(#p855619a020)" style="fill: none; stroke: #424242; stroke-width: 2.25; stroke-linecap: square"/>
   </g>
   <g id="line2d_14">
    <path d="M 469.72927 430.918776 
L 469.72927 398.658543 
" clip-path="url(#p855619a020)" style="fill: none; stroke: #424242; stroke-width: 2.25; stroke-linecap: square"/>
   </g>
   <g id="line2d_15">
    <path d="M 664.786609 428.928546 
L 664.786609 395.557488 
" clip-path="url(#p855619a020)" style="fill: none; stroke: #424242; stroke-width: 2.25; stroke-linecap: square"/>
   </g>
   <g id="line2d_16">
    <path d="M 118.626061 455.912356 
L 118.626061 453.019581 
" clip-path="url(#p855619a020)" style="fill: none; stroke: #424242; stroke-width: 2.25; stroke-linecap: square"/>
   </g>
   <g id="line2d_17">
    <path d="M 313.683399 467.71488 
L 313.683399 430.108798 
" clip-path="url(#p855619a020)" style="fill: none; stroke: #424242; stroke-width: 2.25; stroke-linecap: square"/>
   </g>
   <g id="line2d_18">
    <path d="M 508.740738 460.88793 
L 508.740738 456.143778 
" clip-path="url(#p855619a020)" style="fill: none; stroke: #424242; stroke-width: 2.25; stroke-linecap: square"/>
   </g>
   <g id="line2d_19">
    <path d="M 703.798077 466.442059 
L 703.798077 466.094926 
" clip-path="url(#p855619a020)" style="fill: none; stroke: #424242; stroke-width: 2.25; stroke-linecap: square"/>
   </g>
   <g id="line2d_20">
    <path d="M 157.637528 488.137876 
L 157.637528 455.912356 
" clip-path="url(#p855619a020)" style="fill: none; stroke: #424242; stroke-width: 2.25; stroke-linecap: square"/>
   </g>
   <g id="line2d_21">
    <path d="M 352.694867 480.790226 
L 352.694867 241.268412 
" clip-path="url(#p855619a020)" style="fill: none; stroke: #424242; stroke-width: 2.25; stroke-linecap: square"/>
   </g>
   <g id="line2d_22">
    <path d="M 547.752206 481.195214 
L 547.752206 149.162439 
" clip-path="url(#p855619a020)" style="fill: none; stroke: #424242; stroke-width: 2.25; stroke-linecap: square"/>
   </g>
   <g id="line2d_23">
    <path d="M 742.809545 480.038104 
L 742.809545 156.394378 
" clip-path="url(#p855619a020)" style="fill: none; stroke: #424242; stroke-width: 2.25; stroke-linecap: square"/>
   </g>
   <g id="line2d_24">
    <path d="M 196.648996 476.161785 
L 196.648996 473.269009 
" clip-path="url(#p855619a020)" style="fill: none; stroke: #424242; stroke-width: 2.25; stroke-linecap: square"/>
   </g>
   <g id="line2d_25">
    <path d="M 391.706335 385.097211 
L 391.706335 374.914641 
" clip-path="url(#p855619a020)" style="fill: none; stroke: #424242; stroke-width: 2.25; stroke-linecap: square"/>
   </g>
   <g id="line2d_26">
    <path d="M 586.763674 340.085624 
L 586.763674 333.490096 
" clip-path="url(#p855619a020)" style="fill: none; stroke: #424242; stroke-width: 2.25; stroke-linecap: square"/>
   </g>
   <g id="line2d_27">
    <path d="M 781.821012 377.807417 
L 781.821012 334.647206 
" clip-path="url(#p855619a020)" style="fill: none; stroke: #424242; stroke-width: 2.25; stroke-linecap: square"/>
   </g>
   <g id="patch_23">
    <path d="M 40.603125 496.411214 
L 40.603125 131.8 
" style="fill: none; stroke: #000000; stroke-width: 0.8; stroke-linejoin: miter; stroke-linecap: square"/>
   </g>
   <g id="patch_24">
    <path d="M 40.603125 496.411214 
L 820.83248 496.411214 
" style="fill: none; stroke: #000000; stroke-width: 0.8; stroke-linejoin: miter; stroke-linecap: square"/>
   </g>
   <g id="text_9">
    <!-- Method: ftp -->
    <g transform="translate(838.516755 285.272013) rotate(-270) scale(0.1 -0.1)">
     <defs>
      <path id="DejaVuSans-74" d="M 1172 4494 
L 1172 3500 
L 2356 3500 
L 2356 3053 
L 1172 3053 
L 1172 1153 
Q 1172 725 1289 603 
Q 1406 481 1766 481 
L 2356 481 
L 2356 0 
L 1766 0 
Q 1100 0 847 248 
Q 594 497 594 1153 
L 594 3053 
L 172 3053 
L 172 3500 
L 594 3500 
L 594 4494 
L 1172 4494 
z
" transform="scale(0.015625)"/>
      <path id="DejaVuSans-68" d="M 3513 2113 
L 3513 0 
L 2938 0 
L 2938 2094 
Q 2938 2591 2744 2837 
Q 2550 3084 2163 3084 
Q 1697 3084 1428 2787 
Q 1159 2491 1159 1978 
L 1159 0 
L 581 0 
L 581 4863 
L 1159 4863 
L 1159 2956 
Q 1366 3272 1645 3428 
Q 1925 3584 2291 3584 
Q 2894 3584 3203 3211 
Q 3513 2838 3513 2113 
z
" transform="scale(0.015625)"/>
      <path id="DejaVuSans-6f" d="M 1959 3097 
Q 1497 3097 1228 2736 
Q 959 2375 959 1747 
Q 959 1119 1226 758 
Q 1494 397 1959 397 
Q 2419 397 2687 759 
Q 2956 1122 2956 1747 
Q 2956 2369 2687 2733 
Q 2419 3097 1959 3097 
z
M 1959 3584 
Q 2709 3584 3137 3096 
Q 3566 2609 3566 1747 
Q 3566 888 3137 398 
Q 2709 -91 1959 -91 
Q 1206 -91 779 398 
Q 353 888 353 1747 
Q 353 2609 779 3096 
Q 1206 3584 1959 3584 
z
" transform="scale(0.015625)"/>
      <path id="DejaVuSans-3a" d="M 750 794 
L 1409 794 
L 1409 0 
L 750 0 
L 750 794 
z
M 750 3309 
L 1409 3309 
L 1409 2516 
L 750 2516 
L 750 3309 
z
" transform="scale(0.015625)"/>
      <path id="DejaVuSans-66" d="M 2375 4863 
L 2375 4384 
L 1825 4384 
Q 1516 4384 1395 4259 
Q 1275 4134 1275 3809 
L 1275 3500 
L 2222 3500 
L 2222 3053 
L 1275 3053 
L 1275 0 
L 697 0 
L 697 3053 
L 147 3053 
L 147 3500 
L 697 3500 
L 697 3744 
Q 697 4328 969 4595 
Q 1241 4863 1831 4863 
L 2375 4863 
z
" transform="scale(0.015625)"/>
     </defs>
     <use xlink:href="#DejaVuSans-4d"/>
     <use xlink:href="#DejaVuSans-65" x="86.279297"/>
     <use xlink:href="#DejaVuSans-74" x="147.802734"/>
     <use xlink:href="#DejaVuSans-68" x="187.011719"/>
     <use xlink:href="#DejaVuSans-6f" x="250.390625"/>
     <use xlink:href="#DejaVuSans-64" x="311.572266"/>
     <use xlink:href="#DejaVuSans-3a" x="375.048828"/>
     <use xlink:href="#DejaVuSans-20" x="408.740234"/>
     <use xlink:href="#DejaVuSans-66" x="440.527344"/>
     <use xlink:href="#DejaVuSans-74" x="473.982422"/>
     <use xlink:href="#DejaVuSans-70" x="513.191406"/>
    </g>
   </g>
  </g>
  <g id="axes_2">
   <g id="patch_25">
    <path d="M 40.603125 876.325607 
L 820.83248 876.325607 
L 820.83248 511.714393 
L 40.603125 511.714393 
z
" style="fill: #ffffff"/>
   </g>
   <g id="patch_26">
    <path d="M 60.108859 876.325607 
L 99.120327 876.325607 
L 99.120327 851.123746 
L 60.108859 851.123746 
z
" clip-path="url(#p9733114387)" style="fill: #e1812c"/>
   </g>
   <g id="patch_27">
    <path d="M 255.166198 876.325607 
L 294.177665 876.325607 
L 294.177665 798.428947 
L 255.166198 798.428947 
z
" clip-path="url(#p9733114387)" style="fill: #e1812c"/>
   </g>
   <g id="patch_28">
    <path d="M 450.223536 876.325607 
L 489.235004 876.325607 
L 489.235004 798.128099 
L 450.223536 798.128099 
z
" clip-path="url(#p9733114387)" style="fill: #e1812c"/>
   </g>
   <g id="patch_29">
    <path d="M 645.280875 876.325607 
L 684.292343 876.325607 
L 684.292343 794.517915 
L 645.280875 794.517915 
z
" clip-path="url(#p9733114387)" style="fill: #e1812c"/>
   </g>
   <g id="patch_30">
    <path d="M 99.120327 876.325607 
L 138.131794 876.325607 
L 138.131794 851.563448 
L 99.120327 851.563448 
z
" clip-path="url(#p9733114387)" style="fill: #3274a1"/>
   </g>
   <g id="patch_31">
    <path d="M 294.177665 876.325607 
L 333.189133 876.325607 
L 333.189133 815.635176 
L 294.177665 815.635176 
z
" clip-path="url(#p9733114387)" style="fill: #3274a1"/>
   </g>
   <g id="patch_32">
    <path d="M 489.235004 876.325607 
L 528.246472 876.325607 
L 528.246472 794.460059 
L 489.235004 794.460059 
z
" clip-path="url(#p9733114387)" style="fill: #3274a1"/>
   </g>
   <g id="patch_33">
    <path d="M 684.292343 876.325607 
L 723.303811 876.325607 
L 723.303811 801.171299 
L 684.292343 801.171299 
z
" clip-path="url(#p9733114387)" style="fill: #3274a1"/>
   </g>
   <g id="patch_34">
    <path d="M 138.131794 876.325607 
L 177.143262 876.325607 
L 177.143262 855.613334 
L 138.131794 855.613334 
z
" clip-path="url(#p9733114387)" style="fill: #c03d3e"/>
   </g>
   <g id="patch_35">
    <path d="M 333.189133 876.325607 
L 372.200601 876.325607 
L 372.200601 781.269003 
L 333.189133 781.269003 
z
" clip-path="url(#p9733114387)" style="fill: #c03d3e"/>
   </g>
   <g id="patch_36">
    <path d="M 528.246472 876.325607 
L 567.25794 876.325607 
L 567.25794 774.615619 
L 528.246472 774.615619 
z
" clip-path="url(#p9733114387)" style="fill: #c03d3e"/>
   </g>
   <g id="patch_37">
    <path d="M 723.303811 876.325607 
L 762.315279 876.325607 
L 762.315279 755.812578 
L 723.303811 755.812578 
z
" clip-path="url(#p9733114387)" style="fill: #c03d3e"/>
   </g>
   <g id="patch_38">
    <path d="M 177.143262 876.325607 
L 216.15473 876.325607 
L 216.15473 860.878186 
L 177.143262 860.878186 
z
" clip-path="url(#p9733114387)" style="fill: #9372b2"/>
   </g>
   <g id="patch_39">
    <path d="M 372.200601 876.325607 
L 411.212069 876.325607 
L 411.212069 788.674508 
L 372.200601 788.674508 
z
" clip-path="url(#p9733114387)" style="fill: #9372b2"/>
   </g>
   <g id="patch_40">
    <path d="M 567.25794 876.325607 
L 606.269408 876.325607 
L 606.269408 755.060457 
L 567.25794 755.060457 
z
" clip-path="url(#p9733114387)" style="fill: #9372b2"/>
   </g>
   <g id="patch_41">
    <path d="M 762.315279 876.325607 
L 801.326746 876.325607 
L 801.326746 763.970205 
L 762.315279 763.970205 
z
" clip-path="url(#p9733114387)" style="fill: #9372b2"/>
   </g>
   <g id="patch_42">
    <path d="M 138.131794 876.325607 
L 138.131794 876.325607 
L 138.131794 876.325607 
L 138.131794 876.325607 
z
" clip-path="url(#p9733114387)" style="fill: #e1812c"/>
   </g>
   <g id="patch_43">
    <path d="M 138.131794 876.325607 
L 138.131794 876.325607 
L 138.131794 876.325607 
L 138.131794 876.325607 
z
" clip-path="url(#p9733114387)" style="fill: #3274a1"/>
   </g>
   <g id="patch_44">
    <path d="M 138.131794 876.325607 
L 138.131794 876.325607 
L 138.131794 876.325607 
L 138.131794 876.325607 
z
" clip-path="url(#p9733114387)" style="fill: #c03d3e"/>
   </g>
   <g id="patch_45">
    <path d="M 138.131794 876.325607 
L 138.131794 876.325607 
L 138.131794 876.325607 
L 138.131794 876.325607 
z
" clip-path="url(#p9733114387)" style="fill: #9372b2"/>
   </g>
   <g id="matplotlib.axis_3">
    <g id="xtick_5">
     <g id="line2d_28">
      <g>
       <use xlink:href="#mf139604adc" x="138.131794" y="876.325607" style="stroke: #000000; stroke-width: 0.8"/>
      </g>
     </g>
    </g>
    <g id="xtick_6">
     <g id="line2d_29">
      <g>
       <use xlink:href="#mf139604adc" x="333.189133" y="876.325607" style="stroke: #000000; stroke-width: 0.8"/>
      </g>
     </g>
    </g>
    <g id="xtick_7">
     <g id="line2d_30">
      <g>
       <use xlink:href="#mf139604adc" x="528.246472" y="876.325607" style="stroke: #000000; stroke-width: 0.8"/>
      </g>
     </g>
    </g>
    <g id="xtick_8">
     <g id="line2d_31">
      <g>
       <use xlink:href="#mf139604adc" x="723.303811" y="876.325607" style="stroke: #000000; stroke-width: 0.8"/>
      </g>
     </g>
    </g>
   </g>
   <g id="matplotlib.axis_4">
    <g id="ytick_8">
     <g id="line2d_32">
      <g>
       <use xlink:href="#mbf91ba449f" x="40.603125" y="876.325607" style="stroke: #000000; stroke-width: 0.8"/>
      </g>
     </g>
     <g id="text_10">
      <!-- 0 -->
      <g transform="translate(27.240625 880.124826) scale(0.1 -0.1)">
       <use xlink:href="#DejaVuSans-30"/>
      </g>
     </g>
    </g>
    <g id="ytick_9">
     <g id="line2d_33">
      <g>
       <use xlink:href="#mbf91ba449f" x="40.603125" y="818.470096" style="stroke: #000000; stroke-width: 0.8"/>
      </g>
     </g>
     <g id="text_11">
      <!-- 5 -->
      <g transform="translate(27.240625 822.269315) scale(0.1 -0.1)">
       <use xlink:href="#DejaVuSans-35"/>
      </g>
     </g>
    </g>
    <g id="ytick_10">
     <g id="line2d_34">
      <g>
       <use xlink:href="#mbf91ba449f" x="40.603125" y="760.614586" style="stroke: #000000; stroke-width: 0.8"/>
      </g>
     </g>
     <g id="text_12">
      <!-- 10 -->
      <g transform="translate(20.878125 764.413804) scale(0.1 -0.1)">
       <use xlink:href="#DejaVuSans-31"/>
       <use xlink:href="#DejaVuSans-30" x="63.623047"/>
      </g>
     </g>
    </g>
    <g id="ytick_11">
     <g id="line2d_35">
      <g>
       <use xlink:href="#mbf91ba449f" x="40.603125" y="702.759075" style="stroke: #000000; stroke-width: 0.8"/>
      </g>
     </g>
     <g id="text_13">
      <!-- 15 -->
      <g transform="translate(20.878125 706.558294) scale(0.1 -0.1)">
       <use xlink:href="#DejaVuSans-31"/>
       <use xlink:href="#DejaVuSans-35" x="63.623047"/>
      </g>
     </g>
    </g>
    <g id="ytick_12">
     <g id="line2d_36">
      <g>
       <use xlink:href="#mbf91ba449f" x="40.603125" y="644.903564" style="stroke: #000000; stroke-width: 0.8"/>
      </g>
     </g>
     <g id="text_14">
      <!-- 20 -->
      <g transform="translate(20.878125 648.702783) scale(0.1 -0.1)">
       <use xlink:href="#DejaVuSans-32"/>
       <use xlink:href="#DejaVuSans-30" x="63.623047"/>
      </g>
     </g>
    </g>
    <g id="ytick_13">
     <g id="line2d_37">
      <g>
       <use xlink:href="#mbf91ba449f" x="40.603125" y="587.048054" style="stroke: #000000; stroke-width: 0.8"/>
      </g>
     </g>
     <g id="text_15">
      <!-- 25 -->
      <g transform="translate(20.878125 590.847272) scale(0.1 -0.1)">
       <use xlink:href="#DejaVuSans-32"/>
       <use xlink:href="#DejaVuSans-35" x="63.623047"/>
      </g>
     </g>
    </g>
    <g id="ytick_14">
     <g id="line2d_38">
      <g>
       <use xlink:href="#mbf91ba449f" x="40.603125" y="529.192543" style="stroke: #000000; stroke-width: 0.8"/>
      </g>
     </g>
     <g id="text_16">
      <!-- 30 -->
      <g transform="translate(20.878125 532.991762) scale(0.1 -0.1)">
       <use xlink:href="#DejaVuSans-33"/>
       <use xlink:href="#DejaVuSans-30" x="63.623047"/>
      </g>
     </g>
    </g>
    <g id="text_17">
     <!-- Average Speed (MB/s) -->
     <g transform="translate(14.798438 749.341875) rotate(-90) scale(0.1 -0.1)">
      <use xlink:href="#DejaVuSans-41"/>
      <use xlink:href="#DejaVuSans-76" x="62.533203"/>
      <use xlink:href="#DejaVuSans-65" x="121.712891"/>
      <use xlink:href="#DejaVuSans-72" x="183.236328"/>
      <use xlink:href="#DejaVuSans-61" x="224.349609"/>
      <use xlink:href="#DejaVuSans-67" x="285.628906"/>
      <use xlink:href="#DejaVuSans-65" x="349.105469"/>
      <use xlink:href="#DejaVuSans-20" x="410.628906"/>
      <use xlink:href="#DejaVuSans-53" x="442.416016"/>
      <use xlink:href="#DejaVuSans-70" x="505.892578"/>
      <use xlink:href="#DejaVuSans-65" x="569.369141"/>
      <use xlink:href="#DejaVuSans-65" x="630.892578"/>
      <use xlink:href="#DejaVuSans-64" x="692.416016"/>
      <use xlink:href="#DejaVuSans-20" x="755.892578"/>
      <use xlink:href="#DejaVuSans-28" x="787.679688"/>
      <use xlink:href="#DejaVuSans-4d" x="826.693359"/>
      <use xlink:href="#DejaVuSans-42" x="912.972656"/>
      <use xlink:href="#DejaVuSans-2f" x="981.576172"/>
      <use xlink:href="#DejaVuSans-73" x="1015.267578"/>
      <use xlink:href="#DejaVuSans-29" x="1067.367188"/>
     </g>
    </g>
   </g>
   <g id="line2d_39">
    <path d="M 79.614593 859.547509 
L 79.614593 845.075531 
" clip-path="url(#p9733114387)" style="fill: none; stroke: #424242; stroke-width: 2.25; stroke-linecap: square"/>
   </g>
   <g id="line2d_40">
    <path d="M 274.671932 814.859912 
L 274.671932 785.214749 
" clip-path="url(#p9733114387)" style="fill: none; stroke: #424242; stroke-width: 2.25; stroke-linecap: square"/>
   </g>
   <g id="line2d_41">
    <path d="M 469.72927 816.641862 
L 469.72927 779.568051 
" clip-path="url(#p9733114387)" style="fill: none; stroke: #424242; stroke-width: 2.25; stroke-linecap: square"/>
   </g>
   <g id="line2d_42">
    <path d="M 664.786609 811.758857 
L 664.786609 777.276973 
" clip-path="url(#p9733114387)" style="fill: none; stroke: #424242; stroke-width: 2.25; stroke-linecap: square"/>
   </g>
   <g id="line2d_43">
    <path d="M 118.626061 851.563448 
L 118.626061 851.563448 
" clip-path="url(#p9733114387)" style="fill: none; stroke: #424242; stroke-width: 2.25; stroke-linecap: square"/>
   </g>
   <g id="line2d_44">
    <path d="M 313.683399 818.238674 
L 313.683399 813.031678 
" clip-path="url(#p9733114387)" style="fill: none; stroke: #424242; stroke-width: 2.25; stroke-linecap: square"/>
   </g>
   <g id="line2d_45">
    <path d="M 508.740738 800.072044 
L 508.740738 788.848075 
" clip-path="url(#p9733114387)" style="fill: none; stroke: #424242; stroke-width: 2.25; stroke-linecap: square"/>
   </g>
   <g id="line2d_46">
    <path d="M 703.798077 808.171815 
L 703.798077 794.170782 
" clip-path="url(#p9733114387)" style="fill: none; stroke: #424242; stroke-width: 2.25; stroke-linecap: square"/>
   </g>
   <g id="line2d_47">
    <path d="M 157.637528 858.043265 
L 157.637528 853.183403 
" clip-path="url(#p9733114387)" style="fill: none; stroke: #424242; stroke-width: 2.25; stroke-linecap: square"/>
   </g>
   <g id="line2d_48">
    <path d="M 352.694867 785.463527 
L 352.694867 777.8266 
" clip-path="url(#p9733114387)" style="fill: none; stroke: #424242; stroke-width: 2.25; stroke-linecap: square"/>
   </g>
   <g id="line2d_49">
    <path d="M 547.752206 793.881504 
L 547.752206 753.874419 
" clip-path="url(#p9733114387)" style="fill: none; stroke: #424242; stroke-width: 2.25; stroke-linecap: square"/>
   </g>
   <g id="line2d_50">
    <path d="M 742.809545 758.184654 
L 742.809545 754.076913 
" clip-path="url(#p9733114387)" style="fill: none; stroke: #424242; stroke-width: 2.25; stroke-linecap: square"/>
   </g>
   <g id="line2d_51">
    <path d="M 196.648996 861.630307 
L 196.648996 860.126064 
" clip-path="url(#p9733114387)" style="fill: none; stroke: #424242; stroke-width: 2.25; stroke-linecap: square"/>
   </g>
   <g id="line2d_52">
    <path d="M 391.706335 790.120896 
L 391.706335 787.22812 
" clip-path="url(#p9733114387)" style="fill: none; stroke: #424242; stroke-width: 2.25; stroke-linecap: square"/>
   </g>
   <g id="line2d_53">
    <path d="M 586.763674 761.424563 
L 586.763674 748.69635 
" clip-path="url(#p9733114387)" style="fill: none; stroke: #424242; stroke-width: 2.25; stroke-linecap: square"/>
   </g>
   <g id="line2d_54">
    <path d="M 781.821012 769.871467 
L 781.821012 758.068943 
" clip-path="url(#p9733114387)" style="fill: none; stroke: #424242; stroke-width: 2.25; stroke-linecap: square"/>
   </g>
   <g id="patch_46">
    <path d="M 40.603125 876.325607 
L 40.603125 511.714393 
" style="fill: none; stroke: #000000; stroke-width: 0.8; stroke-linejoin: miter; stroke-linecap: square"/>
   </g>
   <g id="patch_47">
    <path d="M 40.603125 876.325607 
L 820.83248 876.325607 
" style="fill: none; stroke: #000000; stroke-width: 0.8; stroke-linejoin: miter; stroke-linecap: square"/>
   </g>
   <g id="text_18">
    <!-- Method: aspera -->
    <g transform="translate(838.516755 654.954375) rotate(-270) scale(0.1 -0.1)">
     <use xlink:href="#DejaVuSans-4d"/>
     <use xlink:href="#DejaVuSans-65" x="86.279297"/>
     <use xlink:href="#DejaVuSans-74" x="147.802734"/>
     <use xlink:href="#DejaVuSans-68" x="187.011719"/>
     <use xlink:href="#DejaVuSans-6f" x="250.390625"/>
     <use xlink:href="#DejaVuSans-64" x="311.572266"/>
     <use xlink:href="#DejaVuSans-3a" x="375.048828"/>
     <use xlink:href="#DejaVuSans-20" x="408.740234"/>
     <use xlink:href="#DejaVuSans-61" x="440.527344"/>
     <use xlink:href="#DejaVuSans-73" x="501.806641"/>
     <use xlink:href="#DejaVuSans-70" x="553.90625"/>
     <use xlink:href="#DejaVuSans-65" x="617.382812"/>
     <use xlink:href="#DejaVuSans-72" x="678.90625"/>
     <use xlink:href="#DejaVuSans-61" x="720.019531"/>
    </g>
   </g>
  </g>
  <g id="axes_3">
   <g id="patch_48">
    <path d="M 40.603125 1256.24 
L 820.83248 1256.24 
L 820.83248 891.628786 
L 40.603125 891.628786 
z
" style="fill: #ffffff"/>
   </g>
   <g id="patch_49">
    <path d="M 60.108859 1256.24 
L 99.120327 1256.24 
L 99.120327 1232.19525 
L 60.108859 1232.19525 
z
" clip-path="url(#p9236c87c3a)" style="fill: #e1812c"/>
   </g>
   <g id="patch_50">
    <path d="M 255.166198 1256.24 
L 294.177665 1256.24 
L 294.177665 1198.939902 
L 255.166198 1198.939902 
z
" clip-path="url(#p9236c87c3a)" style="fill: #e1812c"/>
   </g>
   <g id="patch_51">
    <path d="M 450.223536 1256.24 
L 489.235004 1256.24 
L 489.235004 1176.700244 
L 450.223536 1176.700244 
z
" clip-path="url(#p9236c87c3a)" style="fill: #e1812c"/>
   </g>
   <g id="patch_52">
    <path d="M 645.280875 1256.24 
L 684.292343 1256.24 
L 684.292343 1176.607675 
L 645.280875 1176.607675 
z
" clip-path="url(#p9236c87c3a)" style="fill: #e1812c"/>
   </g>
   <g id="patch_53">
    <path d="M 99.120327 1256.24 
L 138.131794 1256.24 
L 138.131794 1237.321248 
L 99.120327 1237.321248 
z
" clip-path="url(#p9236c87c3a)" style="fill: #3274a1"/>
   </g>
   <g id="patch_54">
    <path d="M 294.177665 1256.24 
L 333.189133 1256.24 
L 333.189133 1238.189081 
L 294.177665 1238.189081 
z
" clip-path="url(#p9236c87c3a)" style="fill: #3274a1"/>
   </g>
   <g id="patch_55">
    <path d="M 489.235004 1256.24 
L 528.246472 1256.24 
L 528.246472 1230.494298 
L 489.235004 1230.494298 
z
" clip-path="url(#p9236c87c3a)" style="fill: #3274a1"/>
   </g>
   <g id="patch_56">
    <path d="M 684.292343 1256.24 
L 723.303811 1256.24 
L 723.303811 1230.320731 
L 684.292343 1230.320731 
z
" clip-path="url(#p9236c87c3a)" style="fill: #3274a1"/>
   </g>
   <g id="patch_57">
    <path d="M 138.131794 1256.24 
L 177.143262 1256.24 
L 177.143262 1243.916776 
L 138.131794 1243.916776 
z
" clip-path="url(#p9236c87c3a)" style="fill: #c03d3e"/>
   </g>
   <g id="patch_58">
    <path d="M 333.189133 1256.24 
L 372.200601 1256.24 
L 372.200601 1210.649858 
L 333.189133 1210.649858 
z
" clip-path="url(#p9236c87c3a)" style="fill: #c03d3e"/>
   </g>
   <g id="patch_59">
    <path d="M 528.246472 1256.24 
L 567.25794 1256.24 
L 567.25794 1196.764535 
L 528.246472 1196.764535 
z
" clip-path="url(#p9236c87c3a)" style="fill: #c03d3e"/>
   </g>
   <g id="patch_60">
    <path d="M 723.303811 1256.24 
L 762.315279 1256.24 
L 762.315279 1215.046876 
L 723.303811 1215.046876 
z
" clip-path="url(#p9236c87c3a)" style="fill: #c03d3e"/>
   </g>
   <g id="patch_61">
    <path d="M 177.143262 1256.24 
L 216.15473 1256.24 
L 216.15473 1238.767636 
L 177.143262 1238.767636 
z
" clip-path="url(#p9236c87c3a)" style="fill: #9372b2"/>
   </g>
   <g id="patch_62">
    <path d="M 372.200601 1256.24 
L 411.212069 1256.24 
L 411.212069 1201.508687 
L 372.200601 1201.508687 
z
" clip-path="url(#p9236c87c3a)" style="fill: #9372b2"/>
   </g>
   <g id="patch_63">
    <path d="M 567.25794 1256.24 
L 606.269408 1256.24 
L 606.269408 1194.739592 
L 567.25794 1194.739592 
z
" clip-path="url(#p9236c87c3a)" style="fill: #9372b2"/>
   </g>
   <g id="patch_64">
    <path d="M 762.315279 1256.24 
L 801.326746 1256.24 
L 801.326746 1202.665797 
L 762.315279 1202.665797 
z
" clip-path="url(#p9236c87c3a)" style="fill: #9372b2"/>
   </g>
   <g id="patch_65">
    <path d="M 138.131794 1256.24 
L 138.131794 1256.24 
L 138.131794 1256.24 
L 138.131794 1256.24 
z
" clip-path="url(#p9236c87c3a)" style="fill: #e1812c"/>
   </g>
   <g id="patch_66">
    <path d="M 138.131794 1256.24 
L 138.131794 1256.24 
L 138.131794 1256.24 
L 138.131794 1256.24 
z
" clip-path="url(#p9236c87c3a)" style="fill: #3274a1"/>
   </g>
   <g id="patch_67">
    <path d="M 138.131794 1256.24 
L 138.131794 1256.24 
L 138.131794 1256.24 
L 138.131794 1256.24 
z
" clip-path="url(#p9236c87c3a)" style="fill: #c03d3e"/>
   </g>
   <g id="patch_68">
    <path d="M 138.131794 1256.24 
L 138.131794 1256.24 
L 138.131794 1256.24 
L 138.131794 1256.24 
z
" clip-path="url(#p9236c87c3a)" style="fill: #9372b2"/>
   </g>
   <g id="matplotlib.axis_5">
    <g id="xtick_9">
     <g id="line2d_55">
      <g>
       <use xlink:href="#mf139604adc" x="138.131794" y="1256.24" style="stroke: #000000; stroke-width: 0.8"/>
      </g>
     </g>
     <g id="text_19">
      <!-- 14M -->
      <g transform="translate(127.455232 1270.838437) scale(0.1 -0.1)">
       <defs>
        <path id="DejaVuSans-34" d="M 2419 4116 
L 825 1625 
L 2419 1625 
L 2419 4116 
z
M 2253 4666 
L 3047 4666 
L 3047 1625 
L 3713 1625 
L 3713 1100 
L 3047 1100 
L 3047 0 
L 2419 0 
L 2419 1100 
L 313 1100 
L 313 1709 
L 2253 4666 
z
" transform="scale(0.015625)"/>
       </defs>
       <use xlink:href="#DejaVuSans-31"/>
       <use xlink:href="#DejaVuSans-34" x="63.623047"/>
       <use xlink:href="#DejaVuSans-4d" x="127.246094"/>
      </g>
     </g>
    </g>
    <g id="xtick_10">
     <g id="line2d_56">
      <g>
       <use xlink:href="#mf139604adc" x="333.189133" y="1256.24" style="stroke: #000000; stroke-width: 0.8"/>
      </g>
     </g>
     <g id="text_20">
      <!-- 230M -->
      <g transform="translate(319.331321 1270.838437) scale(0.1 -0.1)">
       <use xlink:href="#DejaVuSans-32"/>
       <use xlink:href="#DejaVuSans-33" x="63.623047"/>
       <use xlink:href="#DejaVuSans-30" x="127.246094"/>
       <use xlink:href="#DejaVuSans-4d" x="190.869141"/>
      </g>
     </g>
    </g>
    <g id="xtick_11">
     <g id="line2d_57">
      <g>
       <use xlink:href="#mf139604adc" x="528.246472" y="1256.24" style="stroke: #000000; stroke-width: 0.8"/>
      </g>
     </g>
     <g id="text_21">
      <!-- 3G -->
      <g transform="translate(521.191003 1270.838437) scale(0.1 -0.1)">
       <defs>
        <path id="DejaVuSans-47" d="M 3809 666 
L 3809 1919 
L 2778 1919 
L 2778 2438 
L 4434 2438 
L 4434 434 
Q 4069 175 3628 42 
Q 3188 -91 2688 -91 
Q 1594 -91 976 548 
Q 359 1188 359 2328 
Q 359 3472 976 4111 
Q 1594 4750 2688 4750 
Q 3144 4750 3555 4637 
Q 3966 4525 4313 4306 
L 4313 3634 
Q 3963 3931 3569 4081 
Q 3175 4231 2741 4231 
Q 1884 4231 1454 3753 
Q 1025 3275 1025 2328 
Q 1025 1384 1454 906 
Q 1884 428 2741 428 
Q 3075 428 3337 486 
Q 3600 544 3809 666 
z
" transform="scale(0.015625)"/>
       </defs>
       <use xlink:href="#DejaVuSans-33"/>
       <use xlink:href="#DejaVuSans-47" x="63.623047"/>
      </g>
     </g>
    </g>
    <g id="xtick_12">
     <g id="line2d_58">
      <g>
       <use xlink:href="#mf139604adc" x="723.303811" y="1256.24" style="stroke: #000000; stroke-width: 0.8"/>
      </g>
     </g>
     <g id="text_22">
      <!-- 7G -->
      <g transform="translate(716.248342 1270.838437) scale(0.1 -0.1)">
       <defs>
        <path id="DejaVuSans-37" d="M 525 4666 
L 3525 4666 
L 3525 4397 
L 1831 0 
L 1172 0 
L 2766 4134 
L 525 4134 
L 525 4666 
z
" transform="scale(0.015625)"/>
       </defs>
       <use xlink:href="#DejaVuSans-37"/>
       <use xlink:href="#DejaVuSans-47" x="63.623047"/>
      </g>
     </g>
    </g>
    <g id="text_23">
     <!-- Benchmark ID -->
     <g transform="translate(395.324834 1284.516562) scale(0.1 -0.1)">
      <defs>
       <path id="DejaVuSans-6e" d="M 3513 2113 
L 3513 0 
L 2938 0 
L 2938 2094 
Q 2938 2591 2744 2837 
Q 2550 3084 2163 3084 
Q 1697 3084 1428 2787 
Q 1159 2491 1159 1978 
L 1159 0 
L 581 0 
L 581 3500 
L 1159 3500 
L 1159 2956 
Q 1366 3272 1645 3428 
Q 1925 3584 2291 3584 
Q 2894 3584 3203 3211 
Q 3513 2838 3513 2113 
z
" transform="scale(0.015625)"/>
       <path id="DejaVuSans-63" d="M 3122 3366 
L 3122 2828 
Q 2878 2963 2633 3030 
Q 2388 3097 2138 3097 
Q 1578 3097 1268 2742 
Q 959 2388 959 1747 
Q 959 1106 1268 751 
Q 1578 397 2138 397 
Q 2388 397 2633 464 
Q 2878 531 3122 666 
L 3122 134 
Q 2881 22 2623 -34 
Q 2366 -91 2075 -91 
Q 1284 -91 818 406 
Q 353 903 353 1747 
Q 353 2603 823 3093 
Q 1294 3584 2113 3584 
Q 2378 3584 2631 3529 
Q 2884 3475 3122 3366 
z
" transform="scale(0.015625)"/>
       <path id="DejaVuSans-6d" d="M 3328 2828 
Q 3544 3216 3844 3400 
Q 4144 3584 4550 3584 
Q 5097 3584 5394 3201 
Q 5691 2819 5691 2113 
L 5691 0 
L 5113 0 
L 5113 2094 
Q 5113 2597 4934 2840 
Q 4756 3084 4391 3084 
Q 3944 3084 3684 2787 
Q 3425 2491 3425 1978 
L 3425 0 
L 2847 0 
L 2847 2094 
Q 2847 2600 2669 2842 
Q 2491 3084 2119 3084 
Q 1678 3084 1418 2786 
Q 1159 2488 1159 1978 
L 1159 0 
L 581 0 
L 581 3500 
L 1159 3500 
L 1159 2956 
Q 1356 3278 1631 3431 
Q 1906 3584 2284 3584 
Q 2666 3584 2933 3390 
Q 3200 3197 3328 2828 
z
" transform="scale(0.015625)"/>
       <path id="DejaVuSans-6b" d="M 581 4863 
L 1159 4863 
L 1159 1991 
L 2875 3500 
L 3609 3500 
L 1753 1863 
L 3688 0 
L 2938 0 
L 1159 1709 
L 1159 0 
L 581 0 
L 581 4863 
z
" transform="scale(0.015625)"/>
       <path id="DejaVuSans-49" d="M 628 4666 
L 1259 4666 
L 1259 0 
L 628 0 
L 628 4666 
z
" transform="scale(0.015625)"/>
       <path id="DejaVuSans-44" d="M 1259 4147 
L 1259 519 
L 2022 519 
Q 2988 519 3436 956 
Q 3884 1394 3884 2338 
Q 3884 3275 3436 3711 
Q 2988 4147 2022 4147 
L 1259 4147 
z
M 628 4666 
L 1925 4666 
Q 3281 4666 3915 4102 
Q 4550 3538 4550 2338 
Q 4550 1131 3912 565 
Q 3275 0 1925 0 
L 628 0 
L 628 4666 
z
" transform="scale(0.015625)"/>
      </defs>
      <use xlink:href="#DejaVuSans-42"/>
      <use xlink:href="#DejaVuSans-65" x="68.603516"/>
      <use xlink:href="#DejaVuSans-6e" x="130.126953"/>
      <use xlink:href="#DejaVuSans-63" x="193.505859"/>
      <use xlink:href="#DejaVuSans-68" x="248.486328"/>
      <use xlink:href="#DejaVuSans-6d" x="311.865234"/>
      <use xlink:href="#DejaVuSans-61" x="409.277344"/>
      <use xlink:href="#DejaVuSans-72" x="470.556641"/>
      <use xlink:href="#DejaVuSans-6b" x="511.669922"/>
      <use xlink:href="#DejaVuSans-20" x="569.580078"/>
      <use xlink:href="#DejaVuSans-49" x="601.367188"/>
      <use xlink:href="#DejaVuSans-44" x="630.859375"/>
     </g>
    </g>
   </g>
   <g id="matplotlib.axis_6">
    <g id="ytick_15">
     <g id="line2d_59">
      <g>
       <use xlink:href="#mbf91ba449f" x="40.603125" y="1256.24" style="stroke: #000000; stroke-width: 0.8"/>
      </g>
     </g>
     <g id="text_24">
      <!-- 0 -->
      <g transform="translate(27.240625 1260.039219) scale(0.1 -0.1)">
       <use xlink:href="#DejaVuSans-30"/>
      </g>
     </g>
    </g>
    <g id="ytick_16">
     <g id="line2d_60">
      <g>
       <use xlink:href="#mbf91ba449f" x="40.603125" y="1198.384489" style="stroke: #000000; stroke-width: 0.8"/>
      </g>
     </g>
     <g id="text_25">
      <!-- 5 -->
      <g transform="translate(27.240625 1202.183708) scale(0.1 -0.1)">
       <use xlink:href="#DejaVuSans-35"/>
      </g>
     </g>
    </g>
    <g id="ytick_17">
     <g id="line2d_61">
      <g>
       <use xlink:href="#mbf91ba449f" x="40.603125" y="1140.528979" style="stroke: #000000; stroke-width: 0.8"/>
      </g>
     </g>
     <g id="text_26">
      <!-- 10 -->
      <g transform="translate(20.878125 1144.328197) scale(0.1 -0.1)">
       <use xlink:href="#DejaVuSans-31"/>
       <use xlink:href="#DejaVuSans-30" x="63.623047"/>
      </g>
     </g>
    </g>
    <g id="ytick_18">
     <g id="line2d_62">
      <g>
       <use xlink:href="#mbf91ba449f" x="40.603125" y="1082.673468" style="stroke: #000000; stroke-width: 0.8"/>
      </g>
     </g>
     <g id="text_27">
      <!-- 15 -->
      <g transform="translate(20.878125 1086.472687) scale(0.1 -0.1)">
       <use xlink:href="#DejaVuSans-31"/>
       <use xlink:href="#DejaVuSans-35" x="63.623047"/>
      </g>
     </g>
    </g>
    <g id="ytick_19">
     <g id="line2d_63">
      <g>
       <use xlink:href="#mbf91ba449f" x="40.603125" y="1024.817957" style="stroke: #000000; stroke-width: 0.8"/>
      </g>
     </g>
     <g id="text_28">
      <!-- 20 -->
      <g transform="translate(20.878125 1028.617176) scale(0.1 -0.1)">
       <use xlink:href="#DejaVuSans-32"/>
       <use xlink:href="#DejaVuSans-30" x="63.623047"/>
      </g>
     </g>
    </g>
    <g id="ytick_20">
     <g id="line2d_64">
      <g>
       <use xlink:href="#mbf91ba449f" x="40.603125" y="966.962447" style="stroke: #000000; stroke-width: 0.8"/>
      </g>
     </g>
     <g id="text_29">
      <!-- 25 -->
      <g transform="translate(20.878125 970.761665) scale(0.1 -0.1)">
       <use xlink:href="#DejaVuSans-32"/>
       <use xlink:href="#DejaVuSans-35" x="63.623047"/>
      </g>
     </g>
    </g>
    <g id="ytick_21">
     <g id="line2d_65">
      <g>
       <use xlink:href="#mbf91ba449f" x="40.603125" y="909.106936" style="stroke: #000000; stroke-width: 0.8"/>
      </g>
     </g>
     <g id="text_30">
      <!-- 30 -->
      <g transform="translate(20.878125 912.906155) scale(0.1 -0.1)">
       <use xlink:href="#DejaVuSans-33"/>
       <use xlink:href="#DejaVuSans-30" x="63.623047"/>
      </g>
     </g>
    </g>
    <g id="text_31">
     <!-- Average Speed (MB/s) -->
     <g transform="translate(14.798438 1129.256268) rotate(-90) scale(0.1 -0.1)">
      <use xlink:href="#DejaVuSans-41"/>
      <use xlink:href="#DejaVuSans-76" x="62.533203"/>
      <use xlink:href="#DejaVuSans-65" x="121.712891"/>
      <use xlink:href="#DejaVuSans-72" x="183.236328"/>
      <use xlink:href="#DejaVuSans-61" x="224.349609"/>
      <use xlink:href="#DejaVuSans-67" x="285.628906"/>
      <use xlink:href="#DejaVuSans-65" x="349.105469"/>
      <use xlink:href="#DejaVuSans-20" x="410.628906"/>
      <use xlink:href="#DejaVuSans-53" x="442.416016"/>
      <use xlink:href="#DejaVuSans-70" x="505.892578"/>
      <use xlink:href="#DejaVuSans-65" x="569.369141"/>
      <use xlink:href="#DejaVuSans-65" x="630.892578"/>
      <use xlink:href="#DejaVuSans-64" x="692.416016"/>
      <use xlink:href="#DejaVuSans-20" x="755.892578"/>
      <use xlink:href="#DejaVuSans-28" x="787.679688"/>
      <use xlink:href="#DejaVuSans-4d" x="826.693359"/>
      <use xlink:href="#DejaVuSans-42" x="912.972656"/>
      <use xlink:href="#DejaVuSans-2f" x="981.576172"/>
      <use xlink:href="#DejaVuSans-73" x="1015.267578"/>
      <use xlink:href="#DejaVuSans-29" x="1067.367188"/>
     </g>
    </g>
   </g>
   <g id="line2d_66">
    <path d="M 79.614593 1240.295021 
L 79.614593 1223.516923 
" clip-path="url(#p9236c87c3a)" style="fill: none; stroke: #424242; stroke-width: 2.25; stroke-linecap: square"/>
   </g>
   <g id="line2d_67">
    <path d="M 274.671932 1204.870671 
L 274.671932 1191.835246 
" clip-path="url(#p9236c87c3a)" style="fill: none; stroke: #424242; stroke-width: 2.25; stroke-linecap: square"/>
   </g>
   <g id="line2d_68">
    <path d="M 469.72927 1199.078755 
L 469.72927 1156.612811 
" clip-path="url(#p9236c87c3a)" style="fill: none; stroke: #424242; stroke-width: 2.25; stroke-linecap: square"/>
   </g>
   <g id="line2d_69">
    <path d="M 664.786609 1198.592769 
L 664.786609 1156.890517 
" clip-path="url(#p9236c87c3a)" style="fill: none; stroke: #424242; stroke-width: 2.25; stroke-linecap: square"/>
   </g>
   <g id="line2d_70">
    <path d="M 118.626061 1240.040457 
L 118.626061 1234.602039 
" clip-path="url(#p9236c87c3a)" style="fill: none; stroke: #424242; stroke-width: 2.25; stroke-linecap: square"/>
   </g>
   <g id="line2d_71">
    <path d="M 313.683399 1240.850434 
L 313.683399 1235.527727 
" clip-path="url(#p9236c87c3a)" style="fill: none; stroke: #424242; stroke-width: 2.25; stroke-linecap: square"/>
   </g>
   <g id="line2d_72">
    <path d="M 508.740738 1231.940686 
L 508.740738 1229.04791 
" clip-path="url(#p9236c87c3a)" style="fill: none; stroke: #424242; stroke-width: 2.25; stroke-linecap: square"/>
   </g>
   <g id="line2d_73">
    <path d="M 703.798077 1231.014997 
L 703.798077 1229.626465 
" clip-path="url(#p9236c87c3a)" style="fill: none; stroke: #424242; stroke-width: 2.25; stroke-linecap: square"/>
   </g>
   <g id="line2d_74">
    <path d="M 157.637528 1249.586616 
L 157.637528 1234.428472 
" clip-path="url(#p9236c87c3a)" style="fill: none; stroke: #424242; stroke-width: 2.25; stroke-linecap: square"/>
   </g>
   <g id="line2d_75">
    <path d="M 352.694867 1239.143697 
L 352.694867 1171.713099 
" clip-path="url(#p9236c87c3a)" style="fill: none; stroke: #424242; stroke-width: 2.25; stroke-linecap: square"/>
   </g>
   <g id="line2d_76">
    <path d="M 547.752206 1240.445446 
L 547.752206 1153.083624 
" clip-path="url(#p9236c87c3a)" style="fill: none; stroke: #424242; stroke-width: 2.25; stroke-linecap: square"/>
   </g>
   <g id="line2d_77">
    <path d="M 742.809545 1243.22251 
L 742.809545 1178.511121 
" clip-path="url(#p9236c87c3a)" style="fill: none; stroke: #424242; stroke-width: 2.25; stroke-linecap: square"/>
   </g>
   <g id="line2d_78">
    <path d="M 196.648996 1241.5447 
L 196.648996 1235.990571 
" clip-path="url(#p9236c87c3a)" style="fill: none; stroke: #424242; stroke-width: 2.25; stroke-linecap: square"/>
   </g>
   <g id="line2d_79">
    <path d="M 391.706335 1204.864307 
L 391.706335 1198.153067 
" clip-path="url(#p9236c87c3a)" style="fill: none; stroke: #424242; stroke-width: 2.25; stroke-linecap: square"/>
   </g>
   <g id="line2d_80">
    <path d="M 586.763674 1200.235866 
L 586.763674 1189.243319 
" clip-path="url(#p9236c87c3a)" style="fill: none; stroke: #424242; stroke-width: 2.25; stroke-linecap: square"/>
   </g>
   <g id="line2d_81">
    <path d="M 781.821012 1206.831394 
L 781.821012 1198.5002 
" clip-path="url(#p9236c87c3a)" style="fill: none; stroke: #424242; stroke-width: 2.25; stroke-linecap: square"/>
   </g>
   <g id="patch_69">
    <path d="M 40.603125 1256.24 
L 40.603125 891.628786 
" style="fill: none; stroke: #000000; stroke-width: 0.8; stroke-linejoin: miter; stroke-linecap: square"/>
   </g>
   <g id="patch_70">
    <path d="M 40.603125 1256.24 
L 820.83248 1256.24 
" style="fill: none; stroke: #000000; stroke-width: 0.8; stroke-linejoin: miter; stroke-linecap: square"/>
   </g>
   <g id="text_32">
    <!-- Method: globus-https -->
    <g transform="translate(838.516755 1020.665643) rotate(-270) scale(0.1 -0.1)">
     <defs>
      <path id="DejaVuSans-6c" d="M 603 4863 
L 1178 4863 
L 1178 0 
L 603 0 
L 603 4863 
z
" transform="scale(0.015625)"/>
      <path id="DejaVuSans-62" d="M 3116 1747 
Q 3116 2381 2855 2742 
Q 2594 3103 2138 3103 
Q 1681 3103 1420 2742 
Q 1159 2381 1159 1747 
Q 1159 1113 1420 752 
Q 1681 391 2138 391 
Q 2594 391 2855 752 
Q 3116 1113 3116 1747 
z
M 1159 2969 
Q 1341 3281 1617 3432 
Q 1894 3584 2278 3584 
Q 2916 3584 3314 3078 
Q 3713 2572 3713 1747 
Q 3713 922 3314 415 
Q 2916 -91 2278 -91 
Q 1894 -91 1617 61 
Q 1341 213 1159 525 
L 1159 0 
L 581 0 
L 581 4863 
L 1159 4863 
L 1159 2969 
z
" transform="scale(0.015625)"/>
      <path id="DejaVuSans-75" d="M 544 1381 
L 544 3500 
L 1119 3500 
L 1119 1403 
Q 1119 906 1312 657 
Q 1506 409 1894 409 
Q 2359 409 2629 706 
Q 2900 1003 2900 1516 
L 2900 3500 
L 3475 3500 
L 3475 0 
L 2900 0 
L 2900 538 
Q 2691 219 2414 64 
Q 2138 -91 1772 -91 
Q 1169 -91 856 284 
Q 544 659 544 1381 
z
M 1991 3584 
L 1991 3584 
z
" transform="scale(0.015625)"/>
      <path id="DejaVuSans-2d" d="M 313 2009 
L 1997 2009 
L 1997 1497 
L 313 1497 
L 313 2009 
z
" transform="scale(0.015625)"/>
     </defs>
     <use xlink:href="#DejaVuSans-4d"/>
     <use xlink:href="#DejaVuSans-65" x="86.279297"/>
     <use xlink:href="#DejaVuSans-74" x="147.802734"/>
     <use xlink:href="#DejaVuSans-68" x="187.011719"/>
     <use xlink:href="#DejaVuSans-6f" x="250.390625"/>
     <use xlink:href="#DejaVuSans-64" x="311.572266"/>
     <use xlink:href="#DejaVuSans-3a" x="375.048828"/>
     <use xlink:href="#DejaVuSans-20" x="408.740234"/>
     <use xlink:href="#DejaVuSans-67" x="440.527344"/>
     <use xlink:href="#DejaVuSans-6c" x="504.003906"/>
     <use xlink:href="#DejaVuSans-6f" x="531.787109"/>
     <use xlink:href="#DejaVuSans-62" x="592.96875"/>
     <use xlink:href="#DejaVuSans-75" x="656.445312"/>
     <use xlink:href="#DejaVuSans-73" x="719.824219"/>
     <use xlink:href="#DejaVuSans-2d" x="771.923828"/>
     <use xlink:href="#DejaVuSans-68" x="808.007812"/>
     <use xlink:href="#DejaVuSans-74" x="871.386719"/>
     <use xlink:href="#DejaVuSans-74" x="910.595703"/>
     <use xlink:href="#DejaVuSans-70" x="949.804688"/>
     <use xlink:href="#DejaVuSans-73" x="1013.28125"/>
    </g>
   </g>
  </g>
  <g id="text_33">
   <!-- Average Speed (MB/s) by Location and Method -->
   <g transform="translate(263.36178 40.2775) scale(0.16 -0.16)">
    <defs>
     <path id="DejaVuSans-79" d="M 2059 -325 
Q 1816 -950 1584 -1140 
Q 1353 -1331 966 -1331 
L 506 -1331 
L 506 -850 
L 844 -850 
Q 1081 -850 1212 -737 
Q 1344 -625 1503 -206 
L 1606 56 
L 191 3500 
L 800 3500 
L 1894 763 
L 2988 3500 
L 3597 3500 
L 2059 -325 
z
" transform="scale(0.015625)"/>
     <path id="DejaVuSans-4c" d="M 628 4666 
L 1259 4666 
L 1259 531 
L 3531 531 
L 3531 0 
L 628 0 
L 628 4666 
z
" transform="scale(0.015625)"/>
     <path id="DejaVuSans-69" d="M 603 3500 
L 1178 3500 
L 1178 0 
L 603 0 
L 603 3500 
z
M 603 4863 
L 1178 4863 
L 1178 4134 
L 603 4134 
L 603 4863 
z
" transform="scale(0.015625)"/>
    </defs>
    <use xlink:href="#DejaVuSans-41"/>
    <use xlink:href="#DejaVuSans-76" x="62.533203"/>
    <use xlink:href="#DejaVuSans-65" x="121.712891"/>
    <use xlink:href="#DejaVuSans-72" x="183.236328"/>
    <use xlink:href="#DejaVuSans-61" x="224.349609"/>
    <use xlink:href="#DejaVuSans-67" x="285.628906"/>
    <use xlink:href="#DejaVuSans-65" x="349.105469"/>
    <use xlink:href="#DejaVuSans-20" x="410.628906"/>
    <use xlink:href="#DejaVuSans-53" x="442.416016"/>
    <use xlink:href="#DejaVuSans-70" x="505.892578"/>
    <use xlink:href="#DejaVuSans-65" x="569.369141"/>
    <use xlink:href="#DejaVuSans-65" x="630.892578"/>
    <use xlink:href="#DejaVuSans-64" x="692.416016"/>
    <use xlink:href="#DejaVuSans-20" x="755.892578"/>
    <use xlink:href="#DejaVuSans-28" x="787.679688"/>
    <use xlink:href="#DejaVuSans-4d" x="826.693359"/>
    <use xlink:href="#DejaVuSans-42" x="912.972656"/>
    <use xlink:href="#DejaVuSans-2f" x="981.576172"/>
    <use xlink:href="#DejaVuSans-73" x="1015.267578"/>
    <use xlink:href="#DejaVuSans-29" x="1067.367188"/>
    <use xlink:href="#DejaVuSans-20" x="1106.380859"/>
    <use xlink:href="#DejaVuSans-62" x="1138.167969"/>
    <use xlink:href="#DejaVuSans-79" x="1201.644531"/>
    <use xlink:href="#DejaVuSans-20" x="1260.824219"/>
    <use xlink:href="#DejaVuSans-4c" x="1292.611328"/>
    <use xlink:href="#DejaVuSans-6f" x="1346.574219"/>
    <use xlink:href="#DejaVuSans-63" x="1407.755859"/>
    <use xlink:href="#DejaVuSans-61" x="1462.736328"/>
    <use xlink:href="#DejaVuSans-74" x="1524.015625"/>
    <use xlink:href="#DejaVuSans-69" x="1563.224609"/>
    <use xlink:href="#DejaVuSans-6f" x="1591.007812"/>
    <use xlink:href="#DejaVuSans-6e" x="1652.189453"/>
    <use xlink:href="#DejaVuSans-20" x="1715.568359"/>
    <use xlink:href="#DejaVuSans-61" x="1747.355469"/>
    <use xlink:href="#DejaVuSans-6e" x="1808.634766"/>
    <use xlink:href="#DejaVuSans-64" x="1872.013672"/>
    <use xlink:href="#DejaVuSans-20" x="1935.490234"/>
    <use xlink:href="#DejaVuSans-4d" x="1967.277344"/>
    <use xlink:href="#DejaVuSans-65" x="2053.556641"/>
    <use xlink:href="#DejaVuSans-74" x="2115.080078"/>
    <use xlink:href="#DejaVuSans-68" x="2154.289062"/>
    <use xlink:href="#DejaVuSans-6f" x="2217.667969"/>
    <use xlink:href="#DejaVuSans-64" x="2278.849609"/>
   </g>
  </g>
  <g id="legend_1">
   <g id="text_34">
    <!-- Location -->
    <g transform="translate(858.836155 16.598438) scale(0.1 -0.1)">
     <use xlink:href="#DejaVuSans-4c"/>
     <use xlink:href="#DejaVuSans-6f" x="53.962891"/>
     <use xlink:href="#DejaVuSans-63" x="115.144531"/>
     <use xlink:href="#DejaVuSans-61" x="170.125"/>
     <use xlink:href="#DejaVuSans-74" x="231.404297"/>
     <use xlink:href="#DejaVuSans-69" x="270.613281"/>
     <use xlink:href="#DejaVuSans-6f" x="298.396484"/>
     <use xlink:href="#DejaVuSans-6e" x="359.578125"/>
    </g>
   </g>
   <g id="patch_71">
    <path d="M 858.679905 31.276562 
L 878.679905 31.276562 
L 878.679905 24.276562 
L 858.679905 24.276562 
z
" style="fill: #e1812c"/>
   </g>
   <g id="text_35">
    <!-- GB -->
    <g transform="translate(886.679905 31.276562) scale(0.1 -0.1)">
     <use xlink:href="#DejaVuSans-47"/>
     <use xlink:href="#DejaVuSans-42" x="77.490234"/>
    </g>
   </g>
   <g id="patch_72">
    <path d="M 858.679905 45.954687 
L 878.679905 45.954687 
L 878.679905 38.954687 
L 858.679905 38.954687 
z
" style="fill: #3274a1"/>
   </g>
   <g id="text_36">
    <!-- DE -->
    <g transform="translate(886.679905 45.954687) scale(0.1 -0.1)">
     <defs>
      <path id="DejaVuSans-45" d="M 628 4666 
L 3578 4666 
L 3578 4134 
L 1259 4134 
L 1259 2753 
L 3481 2753 
L 3481 2222 
L 1259 2222 
L 1259 531 
L 3634 531 
L 3634 0 
L 628 0 
L 628 4666 
z
" transform="scale(0.015625)"/>
     </defs>
     <use xlink:href="#DejaVuSans-44"/>
     <use xlink:href="#DejaVuSans-45" x="77.001953"/>
    </g>
   </g>
   <g id="patch_73">
    <path d="M 858.679905 60.632812 
L 878.679905 60.632812 
L 878.679905 53.632812 
L 858.679905 53.632812 
z
" style="fill: #c03d3e"/>
   </g>
   <g id="text_37">
    <!-- US -->
    <g transform="translate(886.679905 60.632812) scale(0.1 -0.1)">
     <defs>
      <path id="DejaVuSans-55" d="M 556 4666 
L 1191 4666 
L 1191 1831 
Q 1191 1081 1462 751 
Q 1734 422 2344 422 
Q 2950 422 3222 751 
Q 3494 1081 3494 1831 
L 3494 4666 
L 4128 4666 
L 4128 1753 
Q 4128 841 3676 375 
Q 3225 -91 2344 -91 
Q 1459 -91 1007 375 
Q 556 841 556 1753 
L 556 4666 
z
" transform="scale(0.015625)"/>
     </defs>
     <use xlink:href="#DejaVuSans-55"/>
     <use xlink:href="#DejaVuSans-53" x="73.193359"/>
    </g>
   </g>
   <g id="patch_74">
    <path d="M 858.679905 75.310937 
L 878.679905 75.310937 
L 878.679905 68.310937 
L 858.679905 68.310937 
z
" style="fill: #9372b2"/>
   </g>
   <g id="text_38">
    <!-- HK -->
    <g transform="translate(886.679905 75.310937) scale(0.1 -0.1)">
     <defs>
      <path id="DejaVuSans-48" d="M 628 4666 
L 1259 4666 
L 1259 2753 
L 3553 2753 
L 3553 4666 
L 4184 4666 
L 4184 0 
L 3553 0 
L 3553 2222 
L 1259 2222 
L 1259 0 
L 628 0 
L 628 4666 
z
" transform="scale(0.015625)"/>
      <path id="DejaVuSans-4b" d="M 628 4666 
L 1259 4666 
L 1259 2694 
L 3353 4666 
L 4166 4666 
L 1850 2491 
L 4331 0 
L 3500 0 
L 1259 2247 
L 1259 0 
L 628 0 
L 628 4666 
z
" transform="scale(0.015625)"/>
     </defs>
     <use xlink:href="#DejaVuSans-48"/>
     <use xlink:href="#DejaVuSans-4b" x="75.195312"/>
    </g>
   </g>
  </g>
 </g>
 <defs>
  <clipPath id="p855619a020">
   <rect x="40.603125" y="131.8" width="780.229355" height="364.611214"/>
  </clipPath>
  <clipPath id="p9733114387">
   <rect x="40.603125" y="511.714393" width="780.229355" height="364.611214"/>
  </clipPath>
  <clipPath id="p9236c87c3a">
   <rect x="40.603125" y="891.628786" width="780.229355" height="364.611214"/>
  </clipPath>
 </defs>
</svg>
