<?xml version="1.0" encoding="utf-8" standalone="no"?>
<!DOCTYPE svg PUBLIC "-//W3C//DTD SVG 1.1//EN"
  "http://www.w3.org/Graphics/SVG/1.1/DTD/svg11.dtd">
<svg xmlns:xlink="http://www.w3.org/1999/xlink" width="360pt" height="288pt" viewBox="0 0 360 288" xmlns="http://www.w3.org/2000/svg" version="1.1">
 <metadata>
  <rdf:RDF xmlns:dc="http://purl.org/dc/elements/1.1/" xmlns:cc="http://creativecommons.org/ns#" xmlns:rdf="http://www.w3.org/1999/02/22-rdf-syntax-ns#">
   <cc:Work>
    <dc:type rdf:resource="http://purl.org/dc/dcmitype/StillImage"/>
    <dc:date>2023-11-24T17:05:33.220220</dc:date>
    <dc:format>image/svg+xml</dc:format>
    <dc:creator>
     <cc:Agent>
      <dc:title>Matplotlib v3.7.1, https://matplotlib.org/</dc:title>
     </cc:Agent>
    </dc:creator>
   </cc:Work>
  </rdf:RDF>
 </metadata>
 <defs>
  <style type="text/css">*{stroke-linejoin: round; stroke-linecap: butt}</style>
 </defs>
 <g id="figure_1">
  <g id="patch_1">
   <path d="M 0 288
L 360 288
L 360 0
L 0 0
L 0 288
z
" style="fill: none"/>
  </g>
  <g id="axes_1">
   <g id="patch_2">
    <path d="M 45 256.32
L 324 256.32
L 324 34.56
L 45 34.56
L 45 256.32
z
" style="fill: none"/>
   </g>
   <g id="PathCollection_1">
    <defs>
     <path id="m37de00d799" d="M -4.330127 4.330127
L 4.330127 -4.330127
M -4.330127 -4.330127
L 4.330127 4.330127
" style="stroke: #000000; stroke-width: 1.5"/>
    </defs>
    <g clip-path="url(#p87edaf7a9c)">
     <use xlink:href="#m37de00d799" x="57.681818" y="57.25344" style="stroke: #000000; stroke-width: 1.5"/>
     <use xlink:href="#m37de00d799" x="311.318182" y="190.5312" style="stroke: #000000; stroke-width: 1.5"/>
    </g>
   </g>
   <g id="matplotlib.axis_1">
    <g id="xtick_1">
     <g id="line2d_1">
      <path d="M 57.681818 256.32
L 57.681818 34.56
" clip-path="url(#p87edaf7a9c)" style="fill: none; stroke-dasharray: 0.8,1.32; stroke-dashoffset: 0; stroke: #b0b0b0; stroke-opacity: 0.6; stroke-width: 0.8"/>
     </g>
     <g id="line2d_2">
      <defs>
       <path id="m0af51379ca" d="M 0 0
L 0 -3.5
" style="stroke: #000000; stroke-width: 0.8"/>
      </defs>
      <g>
       <use xlink:href="#m0af51379ca" x="57.681818" y="256.32" style="stroke: #000000; stroke-width: 0.8"/>
      </g>
     </g>
     <g id="text_1">
      <!-- 0 -->
      <g transform="translate(54.181818 269.54125) scale(0.14 -0.14)">
       <defs>
        <path id="TimesNewRomanPSMT-30" d="M 231 2094
Q 231 2819 450 3342
Q 669 3866 1031 4122
Q 1313 4325 1613 4325
Q 2100 4325 2488 3828
Q 2972 3213 2972 2159
Q 2972 1422 2759 906
Q 2547 391 2217 158
Q 1888 -75 1581 -75
Q 975 -75 572 641
Q 231 1244 231 2094
z
M 844 2016
Q 844 1141 1059 588
Q 1238 122 1591 122
Q 1759 122 1940 273
Q 2122 425 2216 781
Q 2359 1319 2359 2297
Q 2359 3022 2209 3506
Q 2097 3866 1919 4016
Q 1791 4119 1609 4119
Q 1397 4119 1231 3928
Q 1006 3669 925 3112
Q 844 2556 844 2016
z
" transform="scale(0.015625)"/>
       </defs>
       <use xlink:href="#TimesNewRomanPSMT-30"/>
      </g>
     </g>
    </g>
    <g id="xtick_2">
     <g id="line2d_3">
      <path d="M 142.227273 256.32
L 142.227273 34.56
" clip-path="url(#p87edaf7a9c)" style="fill: none; stroke-dasharray: 0.8,1.32; stroke-dashoffset: 0; stroke: #b0b0b0; stroke-opacity: 0.6; stroke-width: 0.8"/>
     </g>
     <g id="line2d_4">
      <g>
       <use xlink:href="#m0af51379ca" x="142.227273" y="256.32" style="stroke: #000000; stroke-width: 0.8"/>
      </g>
     </g>
     <g id="text_2">
      <!-- 10 -->
      <g transform="translate(135.227273 269.54125) scale(0.14 -0.14)">
       <defs>
        <path id="TimesNewRomanPSMT-31" d="M 750 3822
L 1781 4325
L 1884 4325
L 1884 747
Q 1884 391 1914 303
Q 1944 216 2037 169
Q 2131 122 2419 116
L 2419 0
L 825 0
L 825 116
Q 1125 122 1212 167
Q 1300 213 1334 289
Q 1369 366 1369 747
L 1369 3034
Q 1369 3497 1338 3628
Q 1316 3728 1258 3775
Q 1200 3822 1119 3822
Q 1003 3822 797 3725
L 750 3822
z
" transform="scale(0.015625)"/>
       </defs>
       <use xlink:href="#TimesNewRomanPSMT-31"/>
       <use xlink:href="#TimesNewRomanPSMT-30" x="50"/>
      </g>
     </g>
    </g>
    <g id="xtick_3">
     <g id="line2d_5">
      <path d="M 226.772727 256.32
L 226.772727 34.56
" clip-path="url(#p87edaf7a9c)" style="fill: none; stroke-dasharray: 0.8,1.32; stroke-dashoffset: 0; stroke: #b0b0b0; stroke-opacity: 0.6; stroke-width: 0.8"/>
     </g>
     <g id="line2d_6">
      <g>
       <use xlink:href="#m0af51379ca" x="226.772727" y="256.32" style="stroke: #000000; stroke-width: 0.8"/>
      </g>
     </g>
     <g id="text_3">
      <!-- 20 -->
      <g transform="translate(219.772727 269.54125) scale(0.14 -0.14)">
       <defs>
        <path id="TimesNewRomanPSMT-32" d="M 2934 816
L 2638 0
L 138 0
L 138 116
Q 1241 1122 1691 1759
Q 2141 2397 2141 2925
Q 2141 3328 1894 3587
Q 1647 3847 1303 3847
Q 991 3847 742 3664
Q 494 3481 375 3128
L 259 3128
Q 338 3706 661 4015
Q 984 4325 1469 4325
Q 1984 4325 2329 3994
Q 2675 3663 2675 3213
Q 2675 2891 2525 2569
Q 2294 2063 1775 1497
Q 997 647 803 472
L 1909 472
Q 2247 472 2383 497
Q 2519 522 2628 598
Q 2738 675 2819 816
L 2934 816
z
" transform="scale(0.015625)"/>
       </defs>
       <use xlink:href="#TimesNewRomanPSMT-32"/>
       <use xlink:href="#TimesNewRomanPSMT-30" x="50"/>
      </g>
     </g>
    </g>
    <g id="xtick_4">
     <g id="line2d_7">
      <path d="M 311.318182 256.32
L 311.318182 34.56
" clip-path="url(#p87edaf7a9c)" style="fill: none; stroke-dasharray: 0.8,1.32; stroke-dashoffset: 0; stroke: #b0b0b0; stroke-opacity: 0.6; stroke-width: 0.8"/>
     </g>
     <g id="line2d_8">
      <g>
       <use xlink:href="#m0af51379ca" x="311.318182" y="256.32" style="stroke: #000000; stroke-width: 0.8"/>
      </g>
     </g>
     <g id="text_4">
      <!-- 30 -->
      <g transform="translate(304.318182 269.54125) scale(0.14 -0.14)">
       <defs>
        <path id="TimesNewRomanPSMT-33" d="M 325 3431
Q 506 3859 782 4092
Q 1059 4325 1472 4325
Q 1981 4325 2253 3994
Q 2459 3747 2459 3466
Q 2459 3003 1878 2509
Q 2269 2356 2469 2072
Q 2669 1788 2669 1403
Q 2669 853 2319 450
Q 1863 -75 997 -75
Q 569 -75 414 31
Q 259 138 259 259
Q 259 350 332 419
Q 406 488 509 488
Q 588 488 669 463
Q 722 447 909 348
Q 1097 250 1169 231
Q 1284 197 1416 197
Q 1734 197 1970 444
Q 2206 691 2206 1028
Q 2206 1275 2097 1509
Q 2016 1684 1919 1775
Q 1784 1900 1550 2001
Q 1316 2103 1072 2103
L 972 2103
L 972 2197
Q 1219 2228 1467 2375
Q 1716 2522 1828 2728
Q 1941 2934 1941 3181
Q 1941 3503 1739 3701
Q 1538 3900 1238 3900
Q 753 3900 428 3381
L 325 3431
z
" transform="scale(0.015625)"/>
       </defs>
       <use xlink:href="#TimesNewRomanPSMT-33"/>
       <use xlink:href="#TimesNewRomanPSMT-30" x="50"/>
      </g>
     </g>
    </g>
    <g id="text_5">
     <!-- Jerk setting $j$ in mm/s -->
     <g transform="translate(123.95 284.0) scale(0.14 -0.14)">
      <defs>
       <path id="TimesNewRomanPSMT-4a" d="M 638 4122
L 638 4238
L 2453 4238
L 2453 4122
L 2300 4122
Q 2041 4122 1922 3969
Q 1847 3869 1847 3488
L 1847 1416
Q 1847 938 1742 641
Q 1638 344 1381 123
Q 1125 -97 763 -97
Q 469 -97 300 48
Q 131 194 131 381
Q 131 534 209 613
Q 313 709 450 709
Q 550 709 629 643
Q 709 578 831 294
Q 903 125 1016 125
Q 1100 125 1173 228
Q 1247 331 1247 594
L 1247 3488
Q 1247 3809 1206 3913
Q 1175 3991 1075 4047
Q 941 4122 791 4122
L 638 4122
z
" transform="scale(0.015625)"/>
       <path id="TimesNewRomanPSMT-65" d="M 681 1784
Q 678 1147 991 784
Q 1303 422 1725 422
Q 2006 422 2214 576
Q 2422 731 2563 1106
L 2659 1044
Q 2594 616 2278 264
Q 1963 -88 1488 -88
Q 972 -88 605 314
Q 238 716 238 1394
Q 238 2128 614 2539
Q 991 2950 1559 2950
Q 2041 2950 2350 2633
Q 2659 2316 2659 1784
L 681 1784
z
M 681 1966
L 2006 1966
Q 1991 2241 1941 2353
Q 1863 2528 1708 2628
Q 1553 2728 1384 2728
Q 1125 2728 920 2526
Q 716 2325 681 1966
z
" transform="scale(0.015625)"/>
       <path id="TimesNewRomanPSMT-72" d="M 1038 2947
L 1038 2303
Q 1397 2947 1775 2947
Q 1947 2947 2059 2842
Q 2172 2738 2172 2600
Q 2172 2478 2090 2393
Q 2009 2309 1897 2309
Q 1788 2309 1652 2417
Q 1516 2525 1450 2525
Q 1394 2525 1328 2463
Q 1188 2334 1038 2041
L 1038 669
Q 1038 431 1097 309
Q 1138 225 1241 169
Q 1344 113 1538 113
L 1538 0
L 72 0
L 72 113
Q 291 113 397 181
Q 475 231 506 341
Q 522 394 522 644
L 522 1753
Q 522 2253 501 2348
Q 481 2444 426 2487
Q 372 2531 291 2531
Q 194 2531 72 2484
L 41 2597
L 906 2947
L 1038 2947
z
" transform="scale(0.015625)"/>
       <path id="TimesNewRomanPSMT-6b" d="M 1047 4444
L 1047 1597
L 1775 2259
Q 2006 2472 2044 2528
Q 2069 2566 2069 2603
Q 2069 2666 2017 2711
Q 1966 2756 1847 2763
L 1847 2863
L 3091 2863
L 3091 2763
Q 2834 2756 2664 2684
Q 2494 2613 2291 2428
L 1556 1750
L 2291 822
Q 2597 438 2703 334
Q 2853 188 2966 144
Q 3044 113 3238 113
L 3238 0
L 1847 0
L 1847 113
Q 1966 116 2008 148
Q 2050 181 2050 241
Q 2050 313 1925 472
L 1047 1594
L 1047 644
Q 1047 366 1086 278
Q 1125 191 1197 153
Q 1269 116 1509 113
L 1509 0
L 53 0
L 53 113
Q 272 113 381 166
Q 447 200 481 272
Q 528 375 528 628
L 528 3234
Q 528 3731 506 3842
Q 484 3953 434 3995
Q 384 4038 303 4038
Q 238 4038 106 3984
L 53 4094
L 903 4444
L 1047 4444
z
" transform="scale(0.015625)"/>
       <path id="TimesNewRomanPSMT-20" transform="scale(0.015625)"/>
       <path id="TimesNewRomanPSMT-73" d="M 2050 2947
L 2050 1972
L 1947 1972
Q 1828 2431 1642 2597
Q 1456 2763 1169 2763
Q 950 2763 815 2647
Q 681 2531 681 2391
Q 681 2216 781 2091
Q 878 1963 1175 1819
L 1631 1597
Q 2266 1288 2266 781
Q 2266 391 1970 151
Q 1675 -88 1309 -88
Q 1047 -88 709 6
Q 606 38 541 38
Q 469 38 428 -44
L 325 -44
L 325 978
L 428 978
Q 516 541 762 319
Q 1009 97 1316 97
Q 1531 97 1667 223
Q 1803 350 1803 528
Q 1803 744 1651 891
Q 1500 1038 1047 1263
Q 594 1488 453 1669
Q 313 1847 313 2119
Q 313 2472 555 2709
Q 797 2947 1181 2947
Q 1350 2947 1591 2875
Q 1750 2828 1803 2828
Q 1853 2828 1881 2850
Q 1909 2872 1947 2947
L 2050 2947
z
" transform="scale(0.015625)"/>
       <path id="TimesNewRomanPSMT-74" d="M 1031 3803
L 1031 2863
L 1700 2863
L 1700 2644
L 1031 2644
L 1031 788
Q 1031 509 1111 412
Q 1191 316 1316 316
Q 1419 316 1516 380
Q 1613 444 1666 569
L 1788 569
Q 1678 263 1478 108
Q 1278 -47 1066 -47
Q 922 -47 784 33
Q 647 113 581 261
Q 516 409 516 719
L 516 2644
L 63 2644
L 63 2747
Q 234 2816 414 2980
Q 594 3144 734 3369
Q 806 3488 934 3803
L 1031 3803
z
" transform="scale(0.015625)"/>
       <path id="TimesNewRomanPSMT-69" d="M 928 4444
Q 1059 4444 1151 4351
Q 1244 4259 1244 4128
Q 1244 3997 1151 3903
Q 1059 3809 928 3809
Q 797 3809 703 3903
Q 609 3997 609 4128
Q 609 4259 701 4351
Q 794 4444 928 4444
z
M 1188 2947
L 1188 647
Q 1188 378 1227 289
Q 1266 200 1342 156
Q 1419 113 1622 113
L 1622 0
L 231 0
L 231 113
Q 441 113 512 153
Q 584 194 626 287
Q 669 381 669 647
L 669 1750
Q 669 2216 641 2353
Q 619 2453 572 2492
Q 525 2531 444 2531
Q 356 2531 231 2484
L 188 2597
L 1050 2947
L 1188 2947
z
" transform="scale(0.015625)"/>
       <path id="TimesNewRomanPSMT-6e" d="M 1034 2341
Q 1538 2947 1994 2947
Q 2228 2947 2397 2830
Q 2566 2713 2666 2444
Q 2734 2256 2734 1869
L 2734 647
Q 2734 375 2778 278
Q 2813 200 2889 156
Q 2966 113 3172 113
L 3172 0
L 1756 0
L 1756 113
L 1816 113
Q 2016 113 2095 173
Q 2175 234 2206 353
Q 2219 400 2219 647
L 2219 1819
Q 2219 2209 2117 2386
Q 2016 2563 1775 2563
Q 1403 2563 1034 2156
L 1034 647
Q 1034 356 1069 288
Q 1113 197 1189 155
Q 1266 113 1500 113
L 1500 0
L 84 0
L 84 113
L 147 113
Q 366 113 442 223
Q 519 334 519 647
L 519 1709
Q 519 2225 495 2337
Q 472 2450 423 2490
Q 375 2531 294 2531
Q 206 2531 84 2484
L 38 2597
L 900 2947
L 1034 2947
L 1034 2341
z
" transform="scale(0.015625)"/>
       <path id="TimesNewRomanPSMT-67" d="M 966 1044
Q 703 1172 562 1401
Q 422 1631 422 1909
Q 422 2334 742 2640
Q 1063 2947 1563 2947
Q 1972 2947 2272 2747
L 2878 2747
Q 3013 2747 3034 2739
Q 3056 2731 3066 2713
Q 3084 2684 3084 2613
Q 3084 2531 3069 2500
Q 3059 2484 3036 2475
Q 3013 2466 2878 2466
L 2506 2466
Q 2681 2241 2681 1891
Q 2681 1491 2375 1206
Q 2069 922 1553 922
Q 1341 922 1119 984
Q 981 866 932 777
Q 884 688 884 625
Q 884 572 936 522
Q 988 472 1138 450
Q 1225 438 1575 428
Q 2219 413 2409 384
Q 2700 344 2873 169
Q 3047 -6 3047 -263
Q 3047 -616 2716 -925
Q 2228 -1381 1444 -1381
Q 841 -1381 425 -1109
Q 191 -953 191 -784
Q 191 -709 225 -634
Q 278 -519 444 -313
Q 466 -284 763 25
Q 600 122 533 198
Q 466 275 466 372
Q 466 481 555 628
Q 644 775 966 1044
z
M 1509 2797
Q 1278 2797 1122 2612
Q 966 2428 966 2047
Q 966 1553 1178 1281
Q 1341 1075 1591 1075
Q 1828 1075 1981 1253
Q 2134 1431 2134 1813
Q 2134 2309 1919 2591
Q 1759 2797 1509 2797
z
M 934 0
Q 788 -159 713 -296
Q 638 -434 638 -550
Q 638 -700 819 -813
Q 1131 -1006 1722 -1006
Q 2284 -1006 2551 -807
Q 2819 -609 2819 -384
Q 2819 -222 2659 -153
Q 2497 -84 2016 -72
Q 1313 -53 934 0
z
" transform="scale(0.015625)"/>
       <path id="DejaVuSerif-Italic-6a" d="M 1172 4353
Q 1197 4497 1323 4603
Q 1450 4709 1597 4709
Q 1741 4709 1825 4603
Q 1888 4522 1888 4422
Q 1888 4388 1881 4353
Q 1850 4206 1729 4103
Q 1609 4000 1459 4000
Q 1313 4000 1225 4103
Q 1163 4181 1163 4281
Q 1163 4316 1172 4353
z
M 1047 2988
L 503 2988
L 566 3322
L 1684 3322
L 978 -325
Q 878 -838 515 -1130
Q 153 -1422 -381 -1422
Q -606 -1422 -800 -1370
Q -994 -1319 -1169 -1216
L -1034 -531
L -738 -531
Q -747 -609 -747 -675
Q -747 -869 -669 -972
Q -563 -1113 -306 -1113
Q -22 -1113 150 -920
Q 322 -728 403 -325
L 1047 2988
z
" transform="scale(0.015625)"/>
       <path id="TimesNewRomanPSMT-6d" d="M 1050 2338
Q 1363 2650 1419 2697
Q 1559 2816 1721 2881
Q 1884 2947 2044 2947
Q 2313 2947 2506 2790
Q 2700 2634 2766 2338
Q 3088 2713 3309 2830
Q 3531 2947 3766 2947
Q 3994 2947 4170 2830
Q 4347 2713 4450 2447
Q 4519 2266 4519 1878
L 4519 647
Q 4519 378 4559 278
Q 4591 209 4675 161
Q 4759 113 4950 113
L 4950 0
L 3538 0
L 3538 113
L 3597 113
Q 3781 113 3884 184
Q 3956 234 3988 344
Q 4000 397 4000 647
L 4000 1878
Q 4000 2228 3916 2372
Q 3794 2572 3525 2572
Q 3359 2572 3192 2489
Q 3025 2406 2788 2181
L 2781 2147
L 2788 2013
L 2788 647
Q 2788 353 2820 281
Q 2853 209 2943 161
Q 3034 113 3253 113
L 3253 0
L 1806 0
L 1806 113
Q 2044 113 2133 169
Q 2222 225 2256 338
Q 2272 391 2272 647
L 2272 1878
Q 2272 2228 2169 2381
Q 2031 2581 1784 2581
Q 1616 2581 1450 2491
Q 1191 2353 1050 2181
L 1050 647
Q 1050 366 1089 281
Q 1128 197 1204 155
Q 1281 113 1516 113
L 1516 0
L 100 0
L 100 113
Q 297 113 375 155
Q 453 197 493 289
Q 534 381 534 647
L 534 1741
Q 534 2213 506 2350
Q 484 2453 437 2492
Q 391 2531 309 2531
Q 222 2531 100 2484
L 53 2597
L 916 2947
L 1050 2947
L 1050 2338
z
" transform="scale(0.015625)"/>
       <path id="TimesNewRomanPSMT-2f" d="M 1794 4444
L 259 -88
L 9 -88
L 1544 4444
L 1794 4444
z
" transform="scale(0.015625)"/>
      </defs>
      <use xlink:href="#TimesNewRomanPSMT-4a" transform="translate(0 0.421875)"/>
      <use xlink:href="#TimesNewRomanPSMT-65" transform="translate(38.916016 0.421875)"/>
      <use xlink:href="#TimesNewRomanPSMT-72" transform="translate(83.300781 0.421875)"/>
      <use xlink:href="#TimesNewRomanPSMT-6b" transform="translate(116.601562 0.421875)"/>
      <use xlink:href="#TimesNewRomanPSMT-20" transform="translate(166.601562 0.421875)"/>
      <use xlink:href="#TimesNewRomanPSMT-73" transform="translate(191.601562 0.421875)"/>
      <use xlink:href="#TimesNewRomanPSMT-65" transform="translate(230.517578 0.421875)"/>
      <use xlink:href="#TimesNewRomanPSMT-74" transform="translate(274.902344 0.421875)"/>
      <use xlink:href="#TimesNewRomanPSMT-74" transform="translate(302.685547 0.421875)"/>
      <use xlink:href="#TimesNewRomanPSMT-69" transform="translate(330.46875 0.421875)"/>
      <use xlink:href="#TimesNewRomanPSMT-6e" transform="translate(358.251953 0.421875)"/>
      <use xlink:href="#TimesNewRomanPSMT-67" transform="translate(408.251953 0.421875)"/>
      <use xlink:href="#TimesNewRomanPSMT-20" transform="translate(458.251953 0.421875)"/>
      <use xlink:href="#DejaVuSerif-Italic-6a" transform="translate(483.251953 0.421875)"/>
      <use xlink:href="#TimesNewRomanPSMT-20" transform="translate(514.257812 0.421875)"/>
      <use xlink:href="#TimesNewRomanPSMT-69" transform="translate(539.257812 0.421875)"/>
      <use xlink:href="#TimesNewRomanPSMT-6e" transform="translate(567.041016 0.421875)"/>
      <use xlink:href="#TimesNewRomanPSMT-20" transform="translate(617.041016 0.421875)"/>
      <use xlink:href="#TimesNewRomanPSMT-6d" transform="translate(642.041016 0.421875)"/>
      <use xlink:href="#TimesNewRomanPSMT-6d" transform="translate(719.824219 0.421875)"/>
      <use xlink:href="#TimesNewRomanPSMT-2f" transform="translate(797.607422 0.421875)"/>
      <use xlink:href="#TimesNewRomanPSMT-73" transform="translate(825.390625 0.421875)"/>
     </g>
    </g>
   </g>
   <g id="matplotlib.axis_2">
    <g id="ytick_1">
     <g id="line2d_9">
      <path d="M 45 256.32
L 324 256.32
" clip-path="url(#p87edaf7a9c)" style="fill: none; stroke-dasharray: 0.8,1.32; stroke-dashoffset: 0; stroke: #b0b0b0; stroke-opacity: 0.6; stroke-width: 0.8"/>
     </g>
     <g id="line2d_10">
      <defs>
       <path id="m953dfc7ef3" d="M 0 0
L 3.5 0
" style="stroke: #000000; stroke-width: 0.8"/>
      </defs>
      <g>
       <use xlink:href="#m953dfc7ef3" x="45" y="256.32" style="stroke: #000000; stroke-width: 0.8"/>
      </g>
     </g>
     <g id="text_6">
      <!-- 45 -->
      <g transform="translate(27.5 261.180625) scale(0.14 -0.14)">
       <defs>
        <path id="TimesNewRomanPSMT-34" d="M 2978 1563
L 2978 1119
L 2409 1119
L 2409 0
L 1894 0
L 1894 1119
L 100 1119
L 100 1519
L 2066 4325
L 2409 4325
L 2409 1563
L 2978 1563
z
M 1894 1563
L 1894 3666
L 406 1563
L 1894 1563
z
" transform="scale(0.015625)"/>
        <path id="TimesNewRomanPSMT-35" d="M 2778 4238
L 2534 3706
L 1259 3706
L 981 3138
Q 1809 3016 2294 2522
Q 2709 2097 2709 1522
Q 2709 1188 2573 903
Q 2438 619 2231 419
Q 2025 219 1772 97
Q 1413 -75 1034 -75
Q 653 -75 479 54
Q 306 184 306 341
Q 306 428 378 495
Q 450 563 559 563
Q 641 563 702 538
Q 763 513 909 409
Q 1144 247 1384 247
Q 1750 247 2026 523
Q 2303 800 2303 1197
Q 2303 1581 2056 1914
Q 1809 2247 1375 2428
Q 1034 2569 447 2591
L 1259 4238
L 2778 4238
z
" transform="scale(0.015625)"/>
       </defs>
       <use xlink:href="#TimesNewRomanPSMT-34"/>
       <use xlink:href="#TimesNewRomanPSMT-35" x="50"/>
      </g>
     </g>
    </g>
    <g id="ytick_2">
     <g id="line2d_11">
      <path d="M 45 219.36
L 324 219.36
" clip-path="url(#p87edaf7a9c)" style="fill: none; stroke-dasharray: 0.8,1.32; stroke-dashoffset: 0; stroke: #b0b0b0; stroke-opacity: 0.6; stroke-width: 0.8"/>
     </g>
     <g id="line2d_12">
      <g>
       <use xlink:href="#m953dfc7ef3" x="45" y="219.36" style="stroke: #000000; stroke-width: 0.8"/>
      </g>
     </g>
     <g id="text_7">
      <!-- 50 -->
      <g transform="translate(27.5 224.220625) scale(0.14 -0.14)">
       <use xlink:href="#TimesNewRomanPSMT-35"/>
       <use xlink:href="#TimesNewRomanPSMT-30" x="50"/>
      </g>
     </g>
    </g>
    <g id="ytick_3">
     <g id="line2d_13">
      <path d="M 45 182.4
L 324 182.4
" clip-path="url(#p87edaf7a9c)" style="fill: none; stroke-dasharray: 0.8,1.32; stroke-dashoffset: 0; stroke: #b0b0b0; stroke-opacity: 0.6; stroke-width: 0.8"/>
     </g>
     <g id="line2d_14">
      <g>
       <use xlink:href="#m953dfc7ef3" x="45" y="182.4" style="stroke: #000000; stroke-width: 0.8"/>
      </g>
     </g>
     <g id="text_8">
      <!-- 55 -->
      <g transform="translate(27.5 187.260625) scale(0.14 -0.14)">
       <use xlink:href="#TimesNewRomanPSMT-35"/>
       <use xlink:href="#TimesNewRomanPSMT-35" x="50"/>
      </g>
     </g>
    </g>
    <g id="ytick_4">
     <g id="line2d_15">
      <path d="M 45 145.44
L 324 145.44
" clip-path="url(#p87edaf7a9c)" style="fill: none; stroke-dasharray: 0.8,1.32; stroke-dashoffset: 0; stroke: #b0b0b0; stroke-opacity: 0.6; stroke-width: 0.8"/>
     </g>
     <g id="line2d_16">
      <g>
       <use xlink:href="#m953dfc7ef3" x="45" y="145.44" style="stroke: #000000; stroke-width: 0.8"/>
      </g>
     </g>
     <g id="text_9">
      <!-- 60 -->
      <g transform="translate(27.5 150.300625) scale(0.14 -0.14)">
       <defs>
        <path id="TimesNewRomanPSMT-36" d="M 2869 4325
L 2869 4209
Q 2456 4169 2195 4045
Q 1934 3922 1679 3669
Q 1425 3416 1258 3105
Q 1091 2794 978 2366
Q 1428 2675 1881 2675
Q 2316 2675 2634 2325
Q 2953 1975 2953 1425
Q 2953 894 2631 456
Q 2244 -75 1606 -75
Q 1172 -75 869 213
Q 275 772 275 1663
Q 275 2231 503 2743
Q 731 3256 1154 3653
Q 1578 4050 1965 4187
Q 2353 4325 2688 4325
L 2869 4325
z
M 925 2138
Q 869 1716 869 1456
Q 869 1156 980 804
Q 1091 453 1309 247
Q 1469 100 1697 100
Q 1969 100 2183 356
Q 2397 613 2397 1088
Q 2397 1622 2184 2012
Q 1972 2403 1581 2403
Q 1463 2403 1327 2353
Q 1191 2303 925 2138
z
" transform="scale(0.015625)"/>
       </defs>
       <use xlink:href="#TimesNewRomanPSMT-36"/>
       <use xlink:href="#TimesNewRomanPSMT-30" x="50"/>
      </g>
     </g>
    </g>
    <g id="ytick_5">
     <g id="line2d_17">
      <path d="M 45 108.48
L 324 108.48
" clip-path="url(#p87edaf7a9c)" style="fill: none; stroke-dasharray: 0.8,1.32; stroke-dashoffset: 0; stroke: #b0b0b0; stroke-opacity: 0.6; stroke-width: 0.8"/>
     </g>
     <g id="line2d_18">
      <g>
       <use xlink:href="#m953dfc7ef3" x="45" y="108.48" style="stroke: #000000; stroke-width: 0.8"/>
      </g>
     </g>
     <g id="text_10">
      <!-- 65 -->
      <g transform="translate(27.5 113.340625) scale(0.14 -0.14)">
       <use xlink:href="#TimesNewRomanPSMT-36"/>
       <use xlink:href="#TimesNewRomanPSMT-35" x="50"/>
      </g>
     </g>
    </g>
    <g id="ytick_6">
     <g id="line2d_19">
      <path d="M 45 71.52
L 324 71.52
" clip-path="url(#p87edaf7a9c)" style="fill: none; stroke-dasharray: 0.8,1.32; stroke-dashoffset: 0; stroke: #b0b0b0; stroke-opacity: 0.6; stroke-width: 0.8"/>
     </g>
     <g id="line2d_20">
      <g>
       <use xlink:href="#m953dfc7ef3" x="45" y="71.52" style="stroke: #000000; stroke-width: 0.8"/>
      </g>
     </g>
     <g id="text_11">
      <!-- 70 -->
      <g transform="translate(27.5 76.380625) scale(0.14 -0.14)">
       <defs>
        <path id="TimesNewRomanPSMT-37" d="M 644 4238
L 2916 4238
L 2916 4119
L 1503 -88
L 1153 -88
L 2419 3728
L 1253 3728
Q 900 3728 750 3644
Q 488 3500 328 3200
L 238 3234
L 644 4238
z
" transform="scale(0.015625)"/>
       </defs>
       <use xlink:href="#TimesNewRomanPSMT-37"/>
       <use xlink:href="#TimesNewRomanPSMT-30" x="50"/>
      </g>
     </g>
    </g>
    <g id="ytick_7">
     <g id="line2d_21">
      <path d="M 45 34.56
L 324 34.56
" clip-path="url(#p87edaf7a9c)" style="fill: none; stroke-dasharray: 0.8,1.32; stroke-dashoffset: 0; stroke: #b0b0b0; stroke-opacity: 0.6; stroke-width: 0.8"/>
     </g>
     <g id="line2d_22">
      <g>
       <use xlink:href="#m953dfc7ef3" x="45" y="34.56" style="stroke: #000000; stroke-width: 0.8"/>
      </g>
     </g>
     <g id="text_12">
      <!-- 75 -->
      <g transform="translate(27.5 39.420625) scale(0.14 -0.14)">
       <use xlink:href="#TimesNewRomanPSMT-37"/>
       <use xlink:href="#TimesNewRomanPSMT-35" x="50"/>
      </g>
     </g>
    </g>
    <g id="text_13">
     <!-- Layer duration $t_\mathrm{layer}$ in s -->
     <g transform="translate(19.02 215.79) rotate(-90) scale(0.14 -0.14)">
      <defs>
       <path id="TimesNewRomanPSMT-4c" d="M 3669 1172
L 3772 1150
L 3409 0
L 128 0
L 128 116
L 288 116
Q 556 116 672 291
Q 738 391 738 753
L 738 3488
Q 738 3884 650 3984
Q 528 4122 288 4122
L 128 4122
L 128 4238
L 2047 4238
L 2047 4122
Q 1709 4125 1573 4059
Q 1438 3994 1388 3894
Q 1338 3794 1338 3416
L 1338 753
Q 1338 494 1388 397
Q 1425 331 1503 300
Q 1581 269 1991 269
L 2300 269
Q 2788 269 2984 341
Q 3181 413 3343 595
Q 3506 778 3669 1172
z
" transform="scale(0.015625)"/>
       <path id="TimesNewRomanPSMT-61" d="M 1822 413
Q 1381 72 1269 19
Q 1100 -59 909 -59
Q 613 -59 420 144
Q 228 347 228 678
Q 228 888 322 1041
Q 450 1253 767 1440
Q 1084 1628 1822 1897
L 1822 2009
Q 1822 2438 1686 2597
Q 1550 2756 1291 2756
Q 1094 2756 978 2650
Q 859 2544 859 2406
L 866 2225
Q 866 2081 792 2003
Q 719 1925 600 1925
Q 484 1925 411 2006
Q 338 2088 338 2228
Q 338 2497 613 2722
Q 888 2947 1384 2947
Q 1766 2947 2009 2819
Q 2194 2722 2281 2516
Q 2338 2381 2338 1966
L 2338 994
Q 2338 584 2353 492
Q 2369 400 2405 369
Q 2441 338 2488 338
Q 2538 338 2575 359
Q 2641 400 2828 588
L 2828 413
Q 2478 -56 2159 -56
Q 2006 -56 1915 50
Q 1825 156 1822 413
z
M 1822 616
L 1822 1706
Q 1350 1519 1213 1441
Q 966 1303 859 1153
Q 753 1003 753 825
Q 753 600 887 451
Q 1022 303 1197 303
Q 1434 303 1822 616
z
" transform="scale(0.015625)"/>
       <path id="TimesNewRomanPSMT-79" d="M 38 2863
L 1372 2863
L 1372 2747
L 1306 2747
Q 1166 2747 1095 2686
Q 1025 2625 1025 2534
Q 1025 2413 1128 2197
L 1825 753
L 2466 2334
Q 2519 2463 2519 2588
Q 2519 2644 2497 2672
Q 2472 2706 2419 2726
Q 2366 2747 2231 2747
L 2231 2863
L 3163 2863
L 3163 2747
Q 3047 2734 2984 2696
Q 2922 2659 2847 2556
Q 2819 2513 2741 2316
L 1575 -541
Q 1406 -956 1132 -1168
Q 859 -1381 606 -1381
Q 422 -1381 303 -1275
Q 184 -1169 184 -1031
Q 184 -900 270 -820
Q 356 -741 506 -741
Q 609 -741 788 -809
Q 913 -856 944 -856
Q 1038 -856 1148 -759
Q 1259 -663 1372 -384
L 1575 113
L 547 2272
Q 500 2369 397 2513
Q 319 2622 269 2659
Q 197 2709 38 2747
L 38 2863
z
" transform="scale(0.015625)"/>
       <path id="TimesNewRomanPSMT-64" d="M 2222 322
Q 2013 103 1813 7
Q 1613 -88 1381 -88
Q 913 -88 563 304
Q 213 697 213 1313
Q 213 1928 600 2439
Q 988 2950 1597 2950
Q 1975 2950 2222 2709
L 2222 3238
Q 2222 3728 2198 3840
Q 2175 3953 2125 3993
Q 2075 4034 2000 4034
Q 1919 4034 1784 3984
L 1744 4094
L 2597 4444
L 2738 4444
L 2738 1134
Q 2738 631 2761 520
Q 2784 409 2836 365
Q 2888 322 2956 322
Q 3041 322 3181 375
L 3216 266
L 2366 -88
L 2222 -88
L 2222 322
z
M 2222 541
L 2222 2016
Q 2203 2228 2109 2403
Q 2016 2578 1861 2667
Q 1706 2756 1559 2756
Q 1284 2756 1069 2509
Q 784 2184 784 1559
Q 784 928 1059 592
Q 1334 256 1672 256
Q 1956 256 2222 541
z
" transform="scale(0.015625)"/>
       <path id="TimesNewRomanPSMT-75" d="M 2709 2863
L 2709 1128
Q 2709 631 2732 520
Q 2756 409 2807 365
Q 2859 322 2928 322
Q 3025 322 3147 375
L 3191 266
L 2334 -88
L 2194 -88
L 2194 519
Q 1825 119 1631 15
Q 1438 -88 1222 -88
Q 981 -88 804 51
Q 628 191 559 409
Q 491 628 491 1028
L 491 2306
Q 491 2509 447 2587
Q 403 2666 317 2708
Q 231 2750 6 2747
L 6 2863
L 1009 2863
L 1009 947
Q 1009 547 1148 422
Q 1288 297 1484 297
Q 1619 297 1789 381
Q 1959 466 2194 703
L 2194 2325
Q 2194 2569 2105 2655
Q 2016 2741 1734 2747
L 1734 2863
L 2709 2863
z
" transform="scale(0.015625)"/>
       <path id="TimesNewRomanPSMT-6f" d="M 1600 2947
Q 2250 2947 2644 2453
Q 2978 2031 2978 1484
Q 2978 1100 2793 706
Q 2609 313 2286 112
Q 1963 -88 1566 -88
Q 919 -88 538 428
Q 216 863 216 1403
Q 216 1797 411 2186
Q 606 2575 925 2761
Q 1244 2947 1600 2947
z
M 1503 2744
Q 1338 2744 1170 2645
Q 1003 2547 900 2300
Q 797 2053 797 1666
Q 797 1041 1045 587
Q 1294 134 1700 134
Q 2003 134 2200 384
Q 2397 634 2397 1244
Q 2397 2006 2069 2444
Q 1847 2744 1503 2744
z
" transform="scale(0.015625)"/>
       <path id="DejaVuSerif-Italic-74" d="M 856 2988
L 350 2988
L 416 3322
L 922 3322
L 1122 4353
L 1700 4353
L 1500 3322
L 2581 3322
L 2516 2988
L 1434 2988
L 1025 878
Q 978 631 978 488
Q 978 388 1000 338
Q 1059 219 1278 219
Q 1503 219 1633 351
Q 1763 484 1825 781
L 2259 781
Q 2147 328 1884 118
Q 1622 -91 1169 -91
Q 672 -91 506 131
Q 406 266 406 516
Q 406 675 447 878
L 856 2988
z
" transform="scale(0.015625)"/>
       <path id="DejaVuSerif-6c" d="M 1313 331
L 1856 331
L 1856 0
L 184 0
L 184 331
L 738 331
L 738 4531
L 184 4531
L 184 4863
L 1313 4863
L 1313 331
z
" transform="scale(0.015625)"/>
       <path id="DejaVuSerif-61" d="M 2547 1044
L 2547 1747
L 1806 1747
Q 1378 1747 1168 1562
Q 959 1378 959 997
Q 959 650 1171 447
Q 1384 244 1747 244
Q 2106 244 2326 466
Q 2547 688 2547 1044
z
M 3122 2075
L 3122 331
L 3634 331
L 3634 0
L 2547 0
L 2547 359
Q 2356 128 2106 18
Q 1856 -91 1522 -91
Q 969 -91 644 203
Q 319 497 319 997
Q 319 1513 691 1797
Q 1063 2081 1741 2081
L 2547 2081
L 2547 2309
Q 2547 2688 2317 2895
Q 2088 3103 1672 3103
Q 1328 3103 1125 2947
Q 922 2791 872 2484
L 575 2484
L 575 3156
Q 875 3284 1158 3348
Q 1441 3413 1709 3413
Q 2400 3413 2761 3070
Q 3122 2728 3122 2075
z
" transform="scale(0.015625)"/>
       <path id="DejaVuSerif-79" d="M 1381 -609
L 1600 -56
L 359 2988
L -19 2988
L -19 3322
L 1509 3322
L 1509 2988
L 978 2988
L 1913 703
L 2847 2988
L 2350 2988
L 2350 3322
L 3597 3322
L 3597 2988
L 3225 2988
L 1703 -750
Q 1547 -1138 1356 -1280
Q 1166 -1422 819 -1422
Q 672 -1422 517 -1397
Q 363 -1372 206 -1325
L 206 -691
L 500 -691
Q 519 -903 608 -995
Q 697 -1088 884 -1088
Q 1056 -1088 1161 -992
Q 1266 -897 1381 -609
z
" transform="scale(0.015625)"/>
       <path id="DejaVuSerif-65" d="M 3469 1600
L 991 1600
L 991 1575
Q 991 903 1244 561
Q 1497 219 1991 219
Q 2369 219 2611 417
Q 2853 616 2950 1006
L 3413 1006
Q 3275 459 2904 184
Q 2534 -91 1931 -91
Q 1203 -91 761 389
Q 319 869 319 1663
Q 319 2450 753 2931
Q 1188 3413 1894 3413
Q 2647 3413 3050 2948
Q 3453 2484 3469 1600
z
M 2791 1931
Q 2772 2513 2545 2808
Q 2319 3103 1894 3103
Q 1497 3103 1269 2806
Q 1041 2509 991 1931
L 2791 1931
z
" transform="scale(0.015625)"/>
       <path id="DejaVuSerif-72" d="M 3059 3328
L 3059 2497
L 2728 2497
Q 2713 2744 2591 2866
Q 2469 2988 2234 2988
Q 1809 2988 1582 2694
Q 1356 2400 1356 1850
L 1356 331
L 2022 331
L 2022 0
L 263 0
L 263 331
L 781 331
L 781 2994
L 231 2994
L 231 3322
L 1356 3322
L 1356 2731
Q 1525 3078 1790 3245
Q 2056 3413 2438 3413
Q 2578 3413 2733 3391
Q 2888 3369 3059 3328
z
" transform="scale(0.015625)"/>
      </defs>
      <use xlink:href="#TimesNewRomanPSMT-4c" transform="translate(0 0.5625)"/>
      <use xlink:href="#TimesNewRomanPSMT-61" transform="translate(61.083984 0.5625)"/>
      <use xlink:href="#TimesNewRomanPSMT-79" transform="translate(105.46875 0.5625)"/>
      <use xlink:href="#TimesNewRomanPSMT-65" transform="translate(155.46875 0.5625)"/>
      <use xlink:href="#TimesNewRomanPSMT-72" transform="translate(199.853516 0.5625)"/>
      <use xlink:href="#TimesNewRomanPSMT-20" transform="translate(233.154297 0.5625)"/>
      <use xlink:href="#TimesNewRomanPSMT-64" transform="translate(258.154297 0.5625)"/>
      <use xlink:href="#TimesNewRomanPSMT-75" transform="translate(308.154297 0.5625)"/>
      <use xlink:href="#TimesNewRomanPSMT-72" transform="translate(358.154297 0.5625)"/>
      <use xlink:href="#TimesNewRomanPSMT-61" transform="translate(391.455078 0.5625)"/>
      <use xlink:href="#TimesNewRomanPSMT-74" transform="translate(435.839844 0.5625)"/>
      <use xlink:href="#TimesNewRomanPSMT-69" transform="translate(463.623047 0.5625)"/>
      <use xlink:href="#TimesNewRomanPSMT-6f" transform="translate(491.40625 0.5625)"/>
      <use xlink:href="#TimesNewRomanPSMT-6e" transform="translate(541.40625 0.5625)"/>
      <use xlink:href="#TimesNewRomanPSMT-20" transform="translate(591.40625 0.5625)"/>
      <use xlink:href="#DejaVuSerif-Italic-74" transform="translate(616.40625 0.5625)"/>
      <use xlink:href="#DejaVuSerif-6c" transform="translate(656.591797 -15.009375) scale(0.7)"/>
      <use xlink:href="#DejaVuSerif-61" transform="translate(678.979492 -15.009375) scale(0.7)"/>
      <use xlink:href="#DejaVuSerif-79" transform="translate(720.712891 -15.009375) scale(0.7)"/>
      <use xlink:href="#DejaVuSerif-65" transform="translate(760.258789 -15.009375) scale(0.7)"/>
      <use xlink:href="#DejaVuSerif-72" transform="translate(801.68457 -15.009375) scale(0.7)"/>
      <use xlink:href="#TimesNewRomanPSMT-20" transform="translate(837.741797 0.5625)"/>
      <use xlink:href="#TimesNewRomanPSMT-69" transform="translate(862.741797 0.5625)"/>
      <use xlink:href="#TimesNewRomanPSMT-6e" transform="translate(890.525 0.5625)"/>
      <use xlink:href="#TimesNewRomanPSMT-20" transform="translate(940.525 0.5625)"/>
      <use xlink:href="#TimesNewRomanPSMT-73" transform="translate(965.525 0.5625)"/>
     </g>
    </g>
   </g>
   <g id="line2d_23">
    <path d="M 66.136364 67.38048
L 99.954545 103.82304
L 116.863636 119.64192
L 142.227273 139.67424
L 184.5 165.32448
L 226.772727 181.51296
L 311.318182 188.3136
" clip-path="url(#p87edaf7a9c)" style="fill: none; stroke: #1b9e77; stroke-width: 1.5; stroke-linecap: square"/>
    <defs>
     <path id="mf8d8b910d9" d="M 0 -3
L -3 3
L 3 3
z
" style="stroke: #1b9e77; stroke-linejoin: miter"/>
    </defs>
    <g clip-path="url(#p87edaf7a9c)">
     <use xlink:href="#mf8d8b910d9" x="66.136364" y="67.38048" style="fill: #1b9e77; stroke: #1b9e77; stroke-linejoin: miter"/>
     <use xlink:href="#mf8d8b910d9" x="99.954545" y="103.82304" style="fill: #1b9e77; stroke: #1b9e77; stroke-linejoin: miter"/>
     <use xlink:href="#mf8d8b910d9" x="116.863636" y="119.64192" style="fill: #1b9e77; stroke: #1b9e77; stroke-linejoin: miter"/>
     <use xlink:href="#mf8d8b910d9" x="142.227273" y="139.67424" style="fill: #1b9e77; stroke: #1b9e77; stroke-linejoin: miter"/>
     <use xlink:href="#mf8d8b910d9" x="184.5" y="165.32448" style="fill: #1b9e77; stroke: #1b9e77; stroke-linejoin: miter"/>
     <use xlink:href="#mf8d8b910d9" x="226.772727" y="181.51296" style="fill: #1b9e77; stroke: #1b9e77; stroke-linejoin: miter"/>
     <use xlink:href="#mf8d8b910d9" x="311.318182" y="188.3136" style="fill: #1b9e77; stroke: #1b9e77; stroke-linejoin: miter"/>
    </g>
   </g>
   <g id="line2d_24">
    <path d="M 66.136364 67.0848
L 99.954545 101.8272
L 116.863636 116.6112
L 142.227273 136.5696
L 184.5 161.7024
L 226.772727 178.704
L 311.318182 189.0528
" clip-path="url(#p87edaf7a9c)" style="fill: none; stroke: #d95f02; stroke-width: 1.5; stroke-linecap: square"/>
    <defs>
     <path id="mc48559afdf" d="M 0 -3
L -3 3
L 3 3
z
" style="stroke: #d95f02; stroke-linejoin: miter"/>
    </defs>
    <g clip-path="url(#p87edaf7a9c)">
     <use xlink:href="#mc48559afdf" x="66.136364" y="67.0848" style="fill: #d95f02; stroke: #d95f02; stroke-linejoin: miter"/>
     <use xlink:href="#mc48559afdf" x="99.954545" y="101.8272" style="fill: #d95f02; stroke: #d95f02; stroke-linejoin: miter"/>
     <use xlink:href="#mc48559afdf" x="116.863636" y="116.6112" style="fill: #d95f02; stroke: #d95f02; stroke-linejoin: miter"/>
     <use xlink:href="#mc48559afdf" x="142.227273" y="136.5696" style="fill: #d95f02; stroke: #d95f02; stroke-linejoin: miter"/>
     <use xlink:href="#mc48559afdf" x="184.5" y="161.7024" style="fill: #d95f02; stroke: #d95f02; stroke-linejoin: miter"/>
     <use xlink:href="#mc48559afdf" x="226.772727" y="178.704" style="fill: #d95f02; stroke: #d95f02; stroke-linejoin: miter"/>
     <use xlink:href="#mc48559afdf" x="311.318182" y="189.0528" style="fill: #d95f02; stroke: #d95f02; stroke-linejoin: miter"/>
    </g>
   </g>
   <g id="line2d_25">
    <path d="M 66.136364 190.5312
L 99.954545 190.5312
L 116.863636 190.5312
L 142.227273 190.5312
L 184.5 190.5312
L 226.772727 190.5312
L 311.318182 190.5312
" clip-path="url(#p87edaf7a9c)" style="fill: none; stroke-dasharray: 5.55,2.4; stroke-dashoffset: 0; stroke: #7570b3; stroke-width: 1.5"/>
   </g>
   <g id="patch_3">
    <path d="M 45 256.32
L 45 34.56
" style="fill: none; stroke: #000000; stroke-width: 0.8; stroke-linejoin: miter; stroke-linecap: square"/>
   </g>
   <g id="patch_4">
    <path d="M 324 256.32
L 324 34.56
" style="fill: none; stroke: #000000; stroke-width: 0.8; stroke-linejoin: miter; stroke-linecap: square"/>
   </g>
   <g id="patch_5">
    <path d="M 45 256.32
L 324 256.32
" style="fill: none; stroke: #000000; stroke-width: 0.8; stroke-linejoin: miter; stroke-linecap: square"/>
   </g>
   <g id="patch_6">
    <path d="M 45 34.56
L 324 34.56
" style="fill: none; stroke: #000000; stroke-width: 0.8; stroke-linejoin: miter; stroke-linecap: square"/>
   </g>
   <g id="legend_1">
    <g id="patch_7">
     <path d="M 160.9175 124.99125
L 314.2 124.99125
Q 317 124.99125 317 122.19125
L 317 44.36
Q 317 41.56 314.2 41.56
L 160.9175 41.56
Q 158.1175 41.56 158.1175 44.36
L 158.1175 122.19125
Q 158.1175 124.99125 160.9175 124.99125
z
" style="fill: #ffffff; opacity: 0.8; stroke: #cccccc; stroke-linejoin: miter"/>
    </g>
    <g id="line2d_26">
     <path d="M 163.7175 52.06
L 177.7175 52.06
L 191.7175 52.06
" style="fill: none; stroke: #1b9e77; stroke-width: 1.5; stroke-linecap: square"/>
     <g>
      <use xlink:href="#mf8d8b910d9" x="177.7175" y="52.06" style="fill: #1b9e77; stroke: #1b9e77; stroke-linejoin: miter"/>
     </g>
    </g>
    <g id="text_14">
     <!-- simulation -->
     <g transform="translate(202.9175 56.96) scale(0.14 -0.14)">
      <defs>
       <path id="TimesNewRomanPSMT-6c" d="M 1184 4444
L 1184 647
Q 1184 378 1223 290
Q 1263 203 1344 158
Q 1425 113 1647 113
L 1647 0
L 244 0
L 244 113
Q 441 113 512 153
Q 584 194 625 287
Q 666 381 666 647
L 666 3247
Q 666 3731 644 3842
Q 622 3953 573 3993
Q 525 4034 450 4034
Q 369 4034 244 3984
L 191 4094
L 1044 4444
L 1184 4444
z
" transform="scale(0.015625)"/>
      </defs>
      <use xlink:href="#TimesNewRomanPSMT-73"/>
      <use xlink:href="#TimesNewRomanPSMT-69" x="38.916016"/>
      <use xlink:href="#TimesNewRomanPSMT-6d" x="66.699219"/>
      <use xlink:href="#TimesNewRomanPSMT-75" x="144.482422"/>
      <use xlink:href="#TimesNewRomanPSMT-6c" x="194.482422"/>
      <use xlink:href="#TimesNewRomanPSMT-61" x="222.265625"/>
      <use xlink:href="#TimesNewRomanPSMT-74" x="266.650391"/>
      <use xlink:href="#TimesNewRomanPSMT-69" x="294.433594"/>
      <use xlink:href="#TimesNewRomanPSMT-6f" x="322.216797"/>
      <use xlink:href="#TimesNewRomanPSMT-6e" x="372.216797"/>
     </g>
    </g>
    <g id="line2d_27">
     <path d="M 163.7175 71.854687
L 177.7175 71.854687
L 191.7175 71.854687
" style="fill: none; stroke: #d95f02; stroke-width: 1.5; stroke-linecap: square"/>
     <g>
      <use xlink:href="#mc48559afdf" x="177.7175" y="71.854687" style="fill: #d95f02; stroke: #d95f02; stroke-linejoin: miter"/>
     </g>
    </g>
    <g id="text_15">
     <!-- experiment -->
     <g transform="translate(202.9175 76.754687) scale(0.14 -0.14)">
      <defs>
       <path id="TimesNewRomanPSMT-78" d="M 84 2863
L 1431 2863
L 1431 2747
Q 1303 2747 1251 2703
Q 1200 2659 1200 2588
Q 1200 2513 1309 2356
Q 1344 2306 1413 2200
L 1616 1875
L 1850 2200
Q 2075 2509 2075 2591
Q 2075 2656 2022 2701
Q 1969 2747 1850 2747
L 1850 2863
L 2819 2863
L 2819 2747
Q 2666 2738 2553 2663
Q 2400 2556 2134 2200
L 1744 1678
L 2456 653
Q 2719 275 2831 198
Q 2944 122 3122 113
L 3122 0
L 1772 0
L 1772 113
Q 1913 113 1991 175
Q 2050 219 2050 291
Q 2050 363 1850 653
L 1431 1266
L 972 653
Q 759 369 759 316
Q 759 241 829 180
Q 900 119 1041 113
L 1041 0
L 106 0
L 106 113
Q 219 128 303 191
Q 422 281 703 653
L 1303 1450
L 759 2238
Q 528 2575 401 2661
Q 275 2747 84 2747
L 84 2863
z
" transform="scale(0.015625)"/>
       <path id="TimesNewRomanPSMT-70" d="M -6 2578
L 875 2934
L 994 2934
L 994 2266
Q 1216 2644 1439 2795
Q 1663 2947 1909 2947
Q 2341 2947 2628 2609
Q 2981 2197 2981 1534
Q 2981 794 2556 309
Q 2206 -88 1675 -88
Q 1444 -88 1275 -22
Q 1150 25 994 166
L 994 -706
Q 994 -1000 1030 -1079
Q 1066 -1159 1155 -1206
Q 1244 -1253 1478 -1253
L 1478 -1369
L -22 -1369
L -22 -1253
L 56 -1253
Q 228 -1256 350 -1188
Q 409 -1153 442 -1076
Q 475 -1000 475 -688
L 475 2019
Q 475 2297 450 2372
Q 425 2447 370 2484
Q 316 2522 222 2522
Q 147 2522 31 2478
L -6 2578
z
M 994 2081
L 994 1013
Q 994 666 1022 556
Q 1066 375 1236 237
Q 1406 100 1666 100
Q 1978 100 2172 344
Q 2425 663 2425 1241
Q 2425 1897 2138 2250
Q 1938 2494 1663 2494
Q 1513 2494 1366 2419
Q 1253 2363 994 2081
z
" transform="scale(0.015625)"/>
      </defs>
      <use xlink:href="#TimesNewRomanPSMT-65"/>
      <use xlink:href="#TimesNewRomanPSMT-78" x="44.384766"/>
      <use xlink:href="#TimesNewRomanPSMT-70" x="94.384766"/>
      <use xlink:href="#TimesNewRomanPSMT-65" x="144.384766"/>
      <use xlink:href="#TimesNewRomanPSMT-72" x="188.769531"/>
      <use xlink:href="#TimesNewRomanPSMT-69" x="222.070312"/>
      <use xlink:href="#TimesNewRomanPSMT-6d" x="249.853516"/>
      <use xlink:href="#TimesNewRomanPSMT-65" x="327.636719"/>
      <use xlink:href="#TimesNewRomanPSMT-6e" x="372.021484"/>
      <use xlink:href="#TimesNewRomanPSMT-74" x="422.021484"/>
     </g>
    </g>
    <g id="line2d_28">
     <path d="M 163.7175 91.649375
L 177.7175 91.649375
L 191.7175 91.649375
" style="fill: none; stroke-dasharray: 5.55,2.4; stroke-dashoffset: 0; stroke: #7570b3; stroke-width: 1.5"/>
    </g>
    <g id="text_16">
     <!-- const. velocity -->
     <g transform="translate(202.9175 96.549375) scale(0.14 -0.14)">
      <defs>
       <path id="TimesNewRomanPSMT-63" d="M 2631 1088
Q 2516 522 2178 217
Q 1841 -88 1431 -88
Q 944 -88 581 321
Q 219 731 219 1428
Q 219 2103 620 2525
Q 1022 2947 1584 2947
Q 2006 2947 2278 2723
Q 2550 2500 2550 2259
Q 2550 2141 2473 2067
Q 2397 1994 2259 1994
Q 2075 1994 1981 2113
Q 1928 2178 1911 2362
Q 1894 2547 1784 2644
Q 1675 2738 1481 2738
Q 1169 2738 978 2506
Q 725 2200 725 1697
Q 725 1184 976 792
Q 1228 400 1656 400
Q 1963 400 2206 609
Q 2378 753 2541 1131
L 2631 1088
z
" transform="scale(0.015625)"/>
       <path id="TimesNewRomanPSMT-2e" d="M 800 606
Q 947 606 1047 504
Q 1147 403 1147 259
Q 1147 116 1045 14
Q 944 -88 800 -88
Q 656 -88 554 14
Q 453 116 453 259
Q 453 406 554 506
Q 656 606 800 606
z
" transform="scale(0.015625)"/>
       <path id="TimesNewRomanPSMT-76" d="M 53 2863
L 1400 2863
L 1400 2747
L 1313 2747
Q 1191 2747 1127 2687
Q 1063 2628 1063 2528
Q 1063 2419 1128 2269
L 1794 688
L 2463 2328
Q 2534 2503 2534 2594
Q 2534 2638 2509 2666
Q 2475 2713 2422 2730
Q 2369 2747 2206 2747
L 2206 2863
L 3141 2863
L 3141 2747
Q 2978 2734 2916 2681
Q 2806 2588 2719 2369
L 1703 -88
L 1575 -88
L 553 2328
Q 484 2497 421 2570
Q 359 2644 263 2694
Q 209 2722 53 2747
L 53 2863
z
" transform="scale(0.015625)"/>
      </defs>
      <use xlink:href="#TimesNewRomanPSMT-63"/>
      <use xlink:href="#TimesNewRomanPSMT-6f" x="44.384766"/>
      <use xlink:href="#TimesNewRomanPSMT-6e" x="94.384766"/>
      <use xlink:href="#TimesNewRomanPSMT-73" x="144.384766"/>
      <use xlink:href="#TimesNewRomanPSMT-74" x="183.300781"/>
      <use xlink:href="#TimesNewRomanPSMT-2e" x="211.083984"/>
      <use xlink:href="#TimesNewRomanPSMT-20" x="236.083984"/>
      <use xlink:href="#TimesNewRomanPSMT-76" x="261.083984"/>
      <use xlink:href="#TimesNewRomanPSMT-65" x="311.083984"/>
      <use xlink:href="#TimesNewRomanPSMT-6c" x="355.46875"/>
      <use xlink:href="#TimesNewRomanPSMT-6f" x="383.251953"/>
      <use xlink:href="#TimesNewRomanPSMT-63" x="433.251953"/>
      <use xlink:href="#TimesNewRomanPSMT-69" x="477.636719"/>
      <use xlink:href="#TimesNewRomanPSMT-74" x="505.419922"/>
      <use xlink:href="#TimesNewRomanPSMT-79" x="533.203125"/>
     </g>
    </g>
    <g id="PathCollection_2">
     <g>
      <use xlink:href="#m37de00d799" x="177.7175" y="112.695312" style="stroke: #000000; stroke-width: 1.5"/>
     </g>
    </g>
    <g id="text_17">
     <!-- analytical solutions -->
     <g transform="translate(202.9175 116.370312) scale(0.14 -0.14)">
      <use xlink:href="#TimesNewRomanPSMT-61"/>
      <use xlink:href="#TimesNewRomanPSMT-6e" x="44.384766"/>
      <use xlink:href="#TimesNewRomanPSMT-61" x="94.384766"/>
      <use xlink:href="#TimesNewRomanPSMT-6c" x="138.769531"/>
      <use xlink:href="#TimesNewRomanPSMT-79" x="166.552734"/>
      <use xlink:href="#TimesNewRomanPSMT-74" x="216.552734"/>
      <use xlink:href="#TimesNewRomanPSMT-69" x="244.335938"/>
      <use xlink:href="#TimesNewRomanPSMT-63" x="272.119141"/>
      <use xlink:href="#TimesNewRomanPSMT-61" x="316.503906"/>
      <use xlink:href="#TimesNewRomanPSMT-6c" x="360.888672"/>
      <use xlink:href="#TimesNewRomanPSMT-20" x="388.671875"/>
      <use xlink:href="#TimesNewRomanPSMT-73" x="413.671875"/>
      <use xlink:href="#TimesNewRomanPSMT-6f" x="452.587891"/>
      <use xlink:href="#TimesNewRomanPSMT-6c" x="502.587891"/>
      <use xlink:href="#TimesNewRomanPSMT-75" x="530.371094"/>
      <use xlink:href="#TimesNewRomanPSMT-74" x="580.371094"/>
      <use xlink:href="#TimesNewRomanPSMT-69" x="608.154297"/>
      <use xlink:href="#TimesNewRomanPSMT-6f" x="635.9375"/>
      <use xlink:href="#TimesNewRomanPSMT-6e" x="685.9375"/>
      <use xlink:href="#TimesNewRomanPSMT-73" x="735.9375"/>
     </g>
    </g>
   </g>
  </g>
 </g>
 <defs>
  <clipPath id="p87edaf7a9c">
   <rect x="45" y="34.56" width="279" height="221.76"/>
  </clipPath>
 </defs>
</svg>
