<?xml version="1.0" encoding="UTF-8" standalone="no"?>
<!-- Created with Inkscape (http://www.inkscape.org/) -->

<svg
   width="196.95872mm"
   height="102.23494mm"
   viewBox="0 0 196.95872 102.23494"
   version="1.1"
   id="svg5"
   inkscape:version="1.3.2 (091e20e, 2023-11-25, custom)"
   sodipodi:docname="trapezoid_profile_render.svg"
   xmlns:inkscape="http://www.inkscape.org/namespaces/inkscape"
   xmlns:sodipodi="http://sodipodi.sourceforge.net/DTD/sodipodi-0.dtd"
   xmlns="http://www.w3.org/2000/svg"
   xmlns:svg="http://www.w3.org/2000/svg">
  <sodipodi:namedview
     id="namedview7"
     pagecolor="#ffffff"
     bordercolor="#666666"
     borderopacity="1.0"
     inkscape:showpageshadow="2"
     inkscape:pageopacity="0.0"
     inkscape:pagecheckerboard="0"
     inkscape:deskcolor="#d1d1d1"
     inkscape:document-units="mm"
     showgrid="false"
     inkscape:zoom="11.930303"
     inkscape:cx="64.415798"
     inkscape:cy="110.34925"
     inkscape:window-width="2560"
     inkscape:window-height="1377"
     inkscape:window-x="2552"
     inkscape:window-y="-8"
     inkscape:window-maximized="1"
     inkscape:current-layer="text2965"
     showguides="true"
     inkscape:lockguides="true">
    <sodipodi:guide
       position="21.468428,29.165669"
       orientation="-0.8660254,0.5"
       id="guide3420"
       inkscape:locked="true"
       inkscape:label=""
       inkscape:color="rgb(0,134,229)" />
    <sodipodi:guide
       position="159.75069,58.35115"
       orientation="-0.86332269,-0.50465229"
       id="guide3422"
       inkscape:locked="true" />
    <sodipodi:guide
       position="21.468428,81.044699"
       orientation="0,-1"
       id="guide3623"
       inkscape:locked="true" />
  </sodipodi:namedview>
  <defs
     id="defs2">
    <marker
       style="overflow:visible"
       id="Arrow2"
       refX="0"
       refY="0"
       orient="auto-start-reverse"
       inkscape:stockid="Arrow2"
       markerWidth="7.6999998"
       markerHeight="5.5999999"
       viewBox="0 0 7.7 5.6"
       inkscape:isstock="true"
       inkscape:collect="always"
       preserveAspectRatio="xMidYMid">
      <path
         transform="scale(0.7)"
         d="M -2,-4 9,0 -2,4 c 2,-2.33 2,-5.66 0,-8 z"
         style="fill:context-stroke;fill-rule:evenodd;stroke:none"
         id="arrow2L" />
    </marker>
    <clipPath
       id="clipPath8521">
      <path
         clip-rule="nonzero"
         d="M 3,17 H 16 V 30.066406 H 3 Z m 0,0"
         id="path4245" />
    </clipPath>
    <clipPath
       id="clipPath2236">
      <path
         clip-rule="nonzero"
         d="m 16,19 h 6 v 11.066406 h -6 z m 0,0"
         id="path7400" />
    </clipPath>
    <clipPath
       id="clipPath3362">
      <path
         clip-rule="nonzero"
         d="M 57,10 H 68.804688 V 22 H 57 Z m 0,0"
         id="path7512" />
    </clipPath>
  </defs>
  <g
     inkscape:label="Ebene 1"
     inkscape:groupmode="layer"
     id="layer1"
     transform="translate(-3.72512, -65.8501)">
    <path
       style="fill:none;stroke:#000000;stroke-width:1;stroke-linecap:butt;stroke-linejoin:miter;stroke-dasharray:none;stroke-opacity:1;marker-start:url(#Arrow2);marker-end:url(#Arrow2)"
       d="M 25.221637,75.561634 V 155.83288 H 194.38384"
       id="path236" />
    <path
       style="fill:none;stroke:#000000;stroke-width:0.65;stroke-linecap:butt;stroke-linejoin:miter;stroke-dasharray:none;stroke-opacity:1"
       d="m 25.193548,138.91935 29.717743,-51.629028 95.320389,0.21414 19.07152,32.198508"
       id="path1363"
       sodipodi:nodetypes="cccc" />
    <path
       style="fill:none;stroke:#000000;stroke-width:0.5;stroke-linecap:butt;stroke-linejoin:miter;stroke-dasharray:0.5, 1;stroke-dashoffset:0;stroke-opacity:1"
       d="M 54.911289,87.201612 V 155.33064"
       id="path1367" />
    <path
       style="fill:none;stroke:#000000;stroke-width:0.5;stroke-linecap:butt;stroke-linejoin:miter;stroke-dasharray:0.5, 1;stroke-dashoffset:0;stroke-opacity:1"
       d="M 150.23168,87.504462 V 156.06531"
       id="path1371" />
    <path
       style="fill:none;stroke:#000000;stroke-width:0.5;stroke-linecap:butt;stroke-linejoin:miter;stroke-dasharray:0.5, 1;stroke-dashoffset:0;stroke-opacity:1"
       d="m 169.3032,119.70297 0.27963,36.36234"
       id="path1373"
       sodipodi:nodetypes="cc" />
    <path
       style="fill:none;stroke:#000000;stroke-width:0.5;stroke-linecap:butt;stroke-linejoin:miter;stroke-dasharray:0.5, 1;stroke-dashoffset:0;stroke-opacity:1"
       d="M 54.911291,87.290322 H 25.193548"
       id="path2125" />
    <path
       style="fill:none;stroke:#000000;stroke-width:0.5;stroke-linecap:butt;stroke-linejoin:miter;stroke-dasharray:0.5, 1;stroke-dashoffset:0;stroke-opacity:1"
       d="m 169.3032,119.70297 -144.391323,-0.002"
       id="path2127"
       sodipodi:nodetypes="cc" />
    <path
       style="font-style:italic;font-weight:500;font-size:10.5833px;line-height:1.25;font-family:'CMU Serif';-inkscape-font-specification:'CMU Serif Medium Italic';stroke-width:0.264583"
       d="m 196.83215,162.59014 q 0,-0.13953 0.0672,-0.17053 0.0724,-0.031 0.23254,-0.031 h 0.89917 l 0.41341,-1.67948 q 0.10335,-0.3824 0.41341,-0.3824 0.28422,0 0.28422,0.27388 0,0.0724 -0.0413,0.22221 l -0.39274,1.56579 h 0.84749 q 0.10335,0 0.14469,0.005 0.0465,0.005 0.0827,0.0362 0.0362,0.0258 0.0362,0.0879 0,0.13953 -0.0724,0.17053 -0.0672,0.031 -0.22221,0.031 h -0.90433 l -0.78031,3.14192 q -0.0724,0.29455 -0.0724,0.5426 0,0.42891 0.27905,0.42891 0,0 0.005,0 0.40308,0 0.71313,-0.39791 0.31523,-0.40307 0.50126,-0.89917 0.062,-0.14986 0.0879,-0.17569 0.031,-0.0258 0.12403,-0.0258 0.16019,0 0.16019,0.10335 0,0.031 -0.062,0.1912 -0.062,0.1602 -0.20154,0.40824 -0.13952,0.24805 -0.32039,0.47543 -0.1757,0.22737 -0.45475,0.39274 -0.27389,0.16536 -0.56844,0.16536 -0.40308,0 -0.65112,-0.27388 -0.24805,-0.27906 -0.24805,-0.68213 0,-0.14986 0.0517,-0.35657 l 0.75964,-3.03856 h -0.84232 q -0.10336,0 -0.14986,-0.005 -0.0413,-0.005 -0.0827,-0.031 -0.0362,-0.031 -0.0362,-0.093 z"
       id="text2196"
       aria-label="t" />
    <path
       style="font-style:italic;font-weight:500;font-size:10.5833px;line-height:1.25;font-family:'CMU Serif';-inkscape-font-specification:'CMU Serif Medium Italic';stroke-width:0.264583"
       d="m 17.555916,67.741429 q 0,-0.03101 0.04134,-0.186034 0.04134,-0.160197 0.149861,-0.408243 0.113688,-0.253214 0.258382,-0.480589 0.144693,-0.227376 0.387572,-0.387572 0.242878,-0.165364 0.516762,-0.165364 0.351399,0 0.578775,0.232543 0.227375,0.232543 0.227375,0.625283 0,0.160196 -0.118855,0.527098 -0.625283,1.663976 -0.625283,2.294426 0,0.341063 0.155029,0.60978 0.155029,0.268717 0.537433,0.268717 0.423745,0 0.775144,-0.408243 0.356566,-0.41341 0.542601,-0.961179 0.191202,-0.552936 0.289387,-0.987016 0.103352,-0.434081 0.103352,-0.594277 0,-0.527098 -0.284219,-0.837156 -0.139526,-0.160196 -0.139526,-0.284219 0,-0.180867 0.165364,-0.330728 0.165364,-0.155029 0.346231,-0.155029 0.222208,0 0.325561,0.19637 0.10852,0.196369 0.10852,0.501259 0,0.129191 -0.06718,0.532266 -0.06201,0.397907 -0.227376,1.02319 -0.160196,0.625283 -0.403075,1.183387 -0.237711,0.552936 -0.656289,0.956011 -0.41341,0.403074 -0.914669,0.403074 -0.537434,0 -0.919838,-0.299722 -0.382404,-0.30489 -0.382404,-0.971514 0,-0.547768 0.5426,-2.030877 0.253214,-0.707965 0.253214,-0.956011 0,-0.30489 -0.232543,-0.30489 -0.635618,0 -0.981849,1.333248 -0.03101,0.118855 -0.06718,0.144693 -0.03101,0.02584 -0.124023,0.02584 -0.160197,-0.0052 -0.160197,-0.10852 z"
       id="text2200"
       aria-label="v" />
    <g
       id="text2965"
       style="font-weight:500;font-size:8.46667px;line-height:1.25;font-family:'CMU Serif';-inkscape-font-specification:'CMU Serif Medium';stroke-width:0.264583"
       aria-label="vconst">
      <path
         style="font-style:italic;-inkscape-font-specification:'CMU Serif Medium Italic'"
         d="m 5.9368724,85.633717 q 0,-0.02481 0.033073,-0.148828 0.033073,-0.128158 0.1198893,-0.326595 0.090951,-0.202572 0.2067059,-0.384473 0.1157552,-0.181901 0.3100587,-0.310059 0.1943034,-0.132292 0.4134116,-0.132292 0.2811199,0 0.463021,0.186036 0.1819011,0.186035 0.1819011,0.500228 0,0.128157 -0.095085,0.421679 -0.5002281,1.331186 -0.5002281,1.835548 0,0.272852 0.1240235,0.487826 0.1240235,0.214974 0.4299481,0.214974 0.3389975,0 0.6201174,-0.326595 0.285254,-0.33073 0.4340822,-0.768946 0.1529623,-0.44235 0.2315105,-0.789616 0.082682,-0.347266 0.082682,-0.475424 0,-0.421679 -0.2273764,-0.669726 -0.1116211,-0.128158 -0.1116211,-0.227377 0,-0.144694 0.1322917,-0.264583 0.1322917,-0.124024 0.2769858,-0.124024 0.177767,0 0.2604493,0.157097 0.086816,0.157096 0.086816,0.401009 0,0.103353 -0.053743,0.425814 -0.049609,0.318327 -0.1819011,0.818555 -0.1281577,0.500228 -0.3224611,0.946713 -0.1901694,0.44235 -0.5250328,0.764811 -0.3307293,0.322461 -0.7317385,0.322461 -0.4299481,0 -0.7358727,-0.239779 -0.3059246,-0.243912 -0.3059246,-0.777213 0,-0.438217 0.4340822,-1.624708 0.2025717,-0.566374 0.2025717,-0.764812 0,-0.243912 -0.1860353,-0.243912 -0.5084963,0 -0.7854821,1.066601 -0.024805,0.09508 -0.053743,0.115756 -0.024805,0.02067 -0.099219,0.02067 -0.1281576,-0.0041 -0.1281576,-0.08682 z"
         id="path17" />
      <path
         style="font-size:5.50334px;baseline-shift:sub"
         d="M 9.6658452,89.465216 Q 9.3165124,89.09976 9.3165124,88.578448 q 0,-0.523999 0.3439585,-0.900204 0.3439581,-0.378892 0.8491471,-0.378892 0.335897,0 0.588492,0.161231 0.252594,0.158543 0.252594,0.429948 0,0.120923 -0.07255,0.190789 -0.06987,0.06718 -0.180041,0.06718 -0.115549,0 -0.185415,-0.06987 -0.06718,-0.07255 -0.06718,-0.182728 0,-0.04837 0.01612,-0.09674 0.01612,-0.04837 0.07524,-0.09943 0.06181,-0.05106 0.166605,-0.05912 -0.196164,-0.201539 -0.577743,-0.201539 -0.0054,0 -0.01075,0 -0.279467,0 -0.510564,0.263344 -0.2310968,0.263343 -0.2310968,0.86527 0,0.3144 0.075241,0.545497 0.077928,0.22841 0.2042249,0.346645 0.126298,0.118236 0.249908,0.174667 0.12361,0.05374 0.244533,0.05374 0.540122,0 0.72285,-0.577742 0.01612,-0.05374 0.06987,-0.05374 0.07255,0 0.07255,0.05374 0,0.02687 -0.0215,0.09674 -0.0215,0.06987 -0.08868,0.180041 -0.06718,0.110174 -0.163918,0.206912 -0.09405,0.09405 -0.263343,0.163918 -0.166605,0.06987 -0.376204,0.06987 -0.483692,0 -0.8330248,-0.362768 z m 2.4211448,0.0054 q -0.362768,-0.360081 -0.362768,-0.881393 0,-0.524 0.354707,-0.905579 0.357394,-0.384266 0.867957,-0.384266 0.499815,0 0.857209,0.381579 0.360082,0.378892 0.360082,0.908266 0,0.518624 -0.362769,0.878706 -0.360081,0.360081 -0.859896,0.360081 -0.489066,0 -0.854522,-0.357394 z m 0.09405,-0.927075 q 0,0.534748 0.139734,0.776593 0.214974,0.368143 0.626111,0.368143 0.204226,0 0.373518,-0.110174 0.171979,-0.110174 0.26603,-0.295589 0.120923,-0.241846 0.120923,-0.738973 0,-0.529374 -0.145107,-0.763158 -0.214974,-0.357395 -0.620738,-0.357395 -0.177354,0 -0.35202,0.09405 -0.171979,0.09136 -0.276779,0.274091 -0.131672,0.241846 -0.131672,0.75241 z m 2.319033,1.222664 v -0.169292 q 0.292902,0 0.360082,-0.03493 0.06718,-0.03762 0.06718,-0.214974 v -1.475259 q 0,-0.204226 -0.07255,-0.255282 -0.06987,-0.05106 -0.354707,-0.05106 v -0.17198 l 0.773907,-0.05912 v 0.577742 q 0.257969,-0.577742 0.814214,-0.577742 0.413825,0 0.577743,0.204225 0.120922,0.137046 0.145107,0.290215 0.02687,0.153169 0.02687,0.550871 v 1.050686 q 0.0054,0.115548 0.09405,0.14242 0.08868,0.02418 0.335897,0.02418 v 0.169292 q -0.56162,-0.01612 -0.61805,-0.01612 -0.043,0 -0.620738,0.01612 v -0.169292 q 0.292902,0 0.360082,-0.03493 0.06987,-0.03762 0.06987,-0.214974 v -1.281783 q 0,-0.279466 -0.08599,-0.443384 -0.08599,-0.166605 -0.322461,-0.166605 -0.28484,0 -0.51325,0.239159 -0.22841,0.239159 -0.22841,0.642235 v 1.010378 q 0,0.177354 0.06718,0.214974 0.06987,0.03493 0.360082,0.03493 v 0.169292 q -0.56162,-0.01612 -0.615363,-0.01612 -0.043,0 -0.620738,0.01612 z m 3.058006,-0.07255 v -0.725538 q 0,-0.0618 0.0027,-0.0833 0.0027,-0.0215 0.01881,-0.03762 0.01612,-0.01612 0.04837,-0.01612 0.03762,0 0.05106,0.01612 0.01612,0.01612 0.02687,0.07793 0.0833,0.378891 0.260657,0.580429 0.18004,0.198851 0.505189,0.198851 0.309025,0 0.464881,-0.137046 0.155856,-0.137045 0.155856,-0.362768 0,-0.403077 -0.572368,-0.505189 -0.330523,-0.06718 -0.467569,-0.110174 -0.137046,-0.04568 -0.257969,-0.145108 -0.236471,-0.193477 -0.236471,-0.467568 0,-0.274092 0.206912,-0.475631 0.2096,-0.201538 0.671794,-0.201538 0.309025,0 0.518625,0.155856 0.0618,-0.04837 0.09405,-0.08868 0.07255,-0.06718 0.110174,-0.06718 0.043,0 0.05106,0.02956 0.0081,0.02687 0.0081,0.1048 v 0.553558 q 0,0.06181 -0.0027,0.0833 -0.0027,0.0215 -0.01881,0.03762 -0.01612,0.01344 -0.05106,0.01344 -0.0618,0 -0.06449,-0.05106 -0.04299,-0.66642 -0.644922,-0.66642 -0.325148,0 -0.470255,0.126297 -0.145108,0.12361 -0.145108,0.292903 0,0.09405 0.043,0.166604 0.04568,0.06987 0.102113,0.112862 0.05912,0.04031 0.166604,0.08061 0.107487,0.03762 0.17198,0.05106 0.06718,0.01344 0.193476,0.04031 0.440697,0.0833 0.626112,0.263343 0.231097,0.231097 0.231097,0.523999 0,0.325149 -0.220348,0.545497 -0.220349,0.220348 -0.663732,0.220348 -0.357395,0 -0.607302,-0.239158 -0.03225,0.03225 -0.05643,0.06181 -0.02418,0.02687 -0.03493,0.03762 -0.0081,0.01075 -0.01075,0.01881 -0.0027,0.0054 -0.0081,0.01075 -0.110175,0.110174 -0.137046,0.110174 -0.04299,0 -0.05106,-0.02956 -0.0081,-0.02687 -0.0081,-0.1048 z m 2.087935,-2.128243 V 87.44446 q 0.252594,-0.01075 0.419199,-0.188102 0.169292,-0.180041 0.225723,-0.40039 0.05912,-0.220348 0.06449,-0.47563 h 0.137046 v 1.013065 h 0.787343 v 0.17198 h -0.787343 v 1.529003 q 0,0.593865 0.37083,0.593865 0.158544,0 0.263344,-0.16123 0.104799,-0.163918 0.104799,-0.454133 v -0.303651 h 0.137046 v 0.3144 q 0,0.298276 -0.137046,0.521312 -0.137046,0.223035 -0.40845,0.223035 -0.09943,0 -0.198851,-0.02687 -0.09674,-0.02419 -0.225723,-0.08868 -0.126297,-0.06718 -0.206913,-0.22841 -0.07793,-0.163918 -0.07793,-0.400389 v -1.518254 z"
         id="path18" />
    </g>
    <g
       id="text2965-3"
       style="font-weight:500;font-size:8.46667px;line-height:1.25;font-family:'CMU Serif';-inkscape-font-specification:'CMU Serif Medium';stroke-width:0.264583"
       aria-label="v1">
      <path
         style="font-style:italic;-inkscape-font-specification:'CMU Serif Medium Italic'"
         d="m 15.958693,118.14128 q 0,-0.0248 0.03307,-0.14883 0.03307,-0.12816 0.11989,-0.3266 0.09095,-0.20257 0.206706,-0.38447 0.115755,-0.1819 0.310058,-0.31006 0.194304,-0.13229 0.413412,-0.13229 0.28112,0 0.463021,0.18604 0.181901,0.18603 0.181901,0.50022 0,0.12816 -0.09509,0.42168 -0.500228,1.33119 -0.500228,1.83555 0,0.27285 0.124024,0.48783 0.124023,0.21497 0.429948,0.21497 0.338997,0 0.620117,-0.32659 0.285254,-0.33073 0.434083,-0.76895 0.152962,-0.44235 0.23151,-0.78962 0.08268,-0.34726 0.08268,-0.47542 0,-0.42168 -0.227376,-0.66973 -0.111621,-0.12815 -0.111621,-0.22737 0,-0.1447 0.132292,-0.26459 0.132291,-0.12402 0.276985,-0.12402 0.177767,0 0.26045,0.1571 0.08682,0.15709 0.08682,0.40101 0,0.10335 -0.05374,0.42581 -0.04961,0.31833 -0.181901,0.81856 -0.128158,0.50022 -0.322462,0.94671 -0.190169,0.44235 -0.525032,0.76481 -0.33073,0.32246 -0.731739,0.32246 -0.429948,0 -0.735873,-0.23978 -0.305924,-0.24391 -0.305924,-0.77721 0,-0.43822 0.434082,-1.62471 0.202572,-0.56637 0.202572,-0.76481 0,-0.24391 -0.186036,-0.24391 -0.508496,0 -0.785482,1.0666 -0.0248,0.0951 -0.05374,0.11575 -0.02481,0.0207 -0.09922,0.0207 -0.128157,-0.004 -0.128157,-0.0868 z"
         id="path15" />
      <path
         style="font-size:5.50334px;baseline-shift:sub"
         d="m 19.639296,119.13243 v -0.17198 q 0.661045,0 1.002317,-0.35202 0.09405,0 0.110174,0.0215 0.01612,0.0215 0.01612,0.12092 v 3.08757 q 0,0.16392 0.08061,0.21497 0.08062,0.0511 0.432635,0.0511 h 0.174667 v 0.16929 q -0.193477,-0.0161 -0.892143,-0.0161 -0.698665,0 -0.889455,0.0161 v -0.16929 h 0.174667 q 0.346645,0 0.429948,-0.0484 0.0833,-0.0511 0.0833,-0.21766 v -2.8511 q -0.287527,0.14511 -0.72285,0.14511 z"
         id="path16" />
    </g>
    <g
       id="text2965-3-7"
       style="font-weight:500;font-size:8.46667px;line-height:1.25;font-family:'CMU Serif';-inkscape-font-specification:'CMU Serif Medium';stroke-width:0.264583"
       aria-label="v0">
      <path
         style="font-style:italic;-inkscape-font-specification:'CMU Serif Medium Italic'"
         d="m 15.917042,136.21781 q 0,-0.0248 0.03307,-0.14883 0.03307,-0.12816 0.119889,-0.3266 0.09095,-0.20257 0.206706,-0.38447 0.115755,-0.1819 0.310059,-0.31006 0.194303,-0.13229 0.413411,-0.13229 0.28112,0 0.463021,0.18604 0.181901,0.18603 0.181901,0.50022 0,0.12816 -0.09508,0.42168 -0.500228,1.33119 -0.500228,1.83555 0,0.27285 0.124023,0.48783 0.124024,0.21497 0.429948,0.21497 0.338998,0 0.620118,-0.32659 0.285254,-0.33073 0.434082,-0.76895 0.152962,-0.44235 0.23151,-0.78962 0.08268,-0.34726 0.08268,-0.47542 0,-0.42168 -0.227377,-0.66973 -0.111621,-0.12815 -0.111621,-0.22737 0,-0.1447 0.132292,-0.26459 0.132292,-0.12402 0.276986,-0.12402 0.177767,0 0.260449,0.1571 0.08682,0.15709 0.08682,0.40101 0,0.10335 -0.05374,0.42581 -0.04961,0.31833 -0.181901,0.81856 -0.128158,0.50022 -0.322461,0.94671 -0.19017,0.44235 -0.525033,0.76481 -0.330729,0.32246 -0.731739,0.32246 -0.429948,0 -0.735872,-0.23978 -0.305925,-0.24391 -0.305925,-0.77721 0,-0.43822 0.434082,-1.62471 0.202572,-0.56637 0.202572,-0.76481 0,-0.24391 -0.186035,-0.24391 -0.508497,0 -0.785482,1.0666 -0.02481,0.0951 -0.05374,0.11575 -0.02481,0.0207 -0.09922,0.0207 -0.128157,-0.004 -0.128157,-0.0868 z"
         id="path13" />
      <path
         style="font-size:5.50334px;baseline-shift:sub"
         d="m 19.323553,138.59017 q 0,-0.80884 0.204226,-1.24954 0.28484,-0.65567 0.956634,-0.65567 0.142421,0 0.290215,0.0403 0.150482,0.0376 0.338584,0.18542 0.19079,0.14779 0.306338,0.38964 0.220349,0.46756 0.220349,1.28984 0,0.80347 -0.204226,1.24148 -0.298276,0.63954 -0.956634,0.63954 -0.24722,0 -0.499815,-0.12629 -0.249907,-0.1263 -0.40845,-0.42995 -0.247221,-0.45413 -0.247221,-1.32478 z m 0.45682,-0.0672 q 0,0.83034 0.05912,1.16086 0.06718,0.3574 0.249907,0.51325 0.185416,0.15317 0.389641,0.15317 0.220348,0 0.403076,-0.16392 0.185415,-0.1666 0.241846,-0.524 0.0618,-0.35202 0.05912,-1.13936 0,-0.76584 -0.05374,-1.07218 -0.07255,-0.3574 -0.26603,-0.49982 -0.190789,-0.1451 -0.384266,-0.1451 -0.07255,0 -0.150482,0.0215 -0.07524,0.0215 -0.185415,0.0833 -0.110174,0.0618 -0.196164,0.21497 -0.0833,0.15317 -0.12361,0.38427 -0.04299,0.29827 -0.04299,1.01306 z"
         id="path14" />
    </g>
    <g
       id="text3153"
       style="font-weight:500;font-size:10.5833px;line-height:1.25;font-family:'CMU Serif';-inkscape-font-specification:'CMU Serif Medium';stroke-width:0.264583"
       aria-label="tacc">
      <path
         style="font-style:italic;-inkscape-font-specification:'CMU Serif Medium Italic'"
         d="m 34.670171,161.31842 q 0,-0.13952 0.06718,-0.17053 0.07235,-0.031 0.232543,-0.031 h 0.899167 l 0.41341,-1.67948 q 0.103353,-0.38241 0.41341,-0.38241 0.28422,0 0.28422,0.27389 0,0.0723 -0.04134,0.22221 l -0.39274,1.56579 h 0.847491 q 0.103352,0 0.144693,0.005 0.04651,0.005 0.08268,0.0362 0.03617,0.0258 0.03617,0.0879 0,0.13952 -0.07235,0.17053 -0.06718,0.031 -0.222208,0.031 h -0.904335 l -0.780311,3.14192 q -0.07235,0.29456 -0.07235,0.5426 0,0.42892 0.279052,0.42892 0,0 0.0052,0 0.403074,0 0.713132,-0.39791 0.315225,-0.40308 0.50126,-0.89917 0.06201,-0.14986 0.08785,-0.1757 0.03101,-0.0258 0.124023,-0.0258 0.160197,0 0.160197,0.10336 0,0.031 -0.06201,0.1912 -0.06201,0.1602 -0.201537,0.40824 -0.139526,0.24805 -0.320393,0.47542 -0.175699,0.22738 -0.454751,0.39274 -0.273884,0.16537 -0.568439,0.16537 -0.403075,0 -0.651121,-0.27389 -0.248046,-0.27905 -0.248046,-0.68212 0,-0.14987 0.05168,-0.35657 l 0.759641,-3.03857 h -0.842323 q -0.103352,0 -0.149861,-0.005 -0.04134,-0.005 -0.08268,-0.031 -0.03617,-0.031 -0.03617,-0.093 z"
         id="path11" />
      <path
         style="font-size:65%;baseline-shift:sub"
         d="m 37.506681,167.14156 q 0,-0.58445 0.688586,-0.89348 0.413152,-0.19818 1.266327,-0.24856 v -0.25192 q 0,-0.42659 -0.22505,-0.65164 -0.221691,-0.22841 -0.503844,-0.22841 -0.503843,0 -0.745688,0.31574 0.204896,0.007 0.278793,0.11085 0.0739,0.10077 0.0739,0.20489 0,0.13772 -0.08733,0.22841 -0.08397,0.0873 -0.228409,0.0873 -0.137717,0 -0.228409,-0.084 -0.09069,-0.0873 -0.09069,-0.23848 0,-0.3359 0.302307,-0.55759 0.305665,-0.22169 0.73897,-0.22169 0.564305,0 0.940508,0.37956 0.117564,0.11756 0.174666,0.26872 0.06046,0.15115 0.06718,0.25192 0.0067,0.0974 0.0067,0.29223 v 1.37381 q 0,0.0403 0.01344,0.10749 0.01344,0.0672 0.0739,0.15451 0.06382,0.084 0.167948,0.084 0.248563,0 0.245204,-0.44002 v -0.38628 h 0.174666 v 0.38628 q 0,0.36613 -0.19482,0.51056 -0.191461,0.14108 -0.369485,0.14108 -0.228409,0 -0.372845,-0.16795 -0.144435,-0.16795 -0.164588,-0.39636 -0.104128,0.262 -0.342614,0.43331 -0.235127,0.16795 -0.557587,0.16795 -0.248563,0 -0.48369,-0.0638 -0.231768,-0.0605 -0.426587,-0.23177 -0.191461,-0.17467 -0.191461,-0.43667 z m 0.530715,-0.007 q 0,0.25528 0.181384,0.41987 0.181384,0.16458 0.436664,0.16458 0.288871,0 0.54751,-0.22169 0.25864,-0.22505 0.25864,-0.66507 v -0.68859 q -0.762483,0.0269 -1.09502,0.33254 -0.329178,0.30231 -0.329178,0.65836 z m 3.291778,0.28551 q -0.436664,-0.45682 -0.436664,-1.10846 0,-0.65499 0.429947,-1.12525 0.429946,-0.47361 1.06143,-0.47361 0.41987,0 0.735612,0.20154 0.315742,0.19817 0.315742,0.53743 0,0.15115 -0.09069,0.23848 -0.08733,0.084 -0.22505,0.084 -0.144435,0 -0.231768,-0.0873 -0.08397,-0.0907 -0.08397,-0.22841 0,-0.0605 0.02015,-0.12093 0.02015,-0.0605 0.09405,-0.12428 0.07726,-0.0638 0.208256,-0.0739 -0.245204,-0.25193 -0.722176,-0.25193 -0.0067,0 -0.01344,0 -0.349332,0 -0.638202,0.32918 -0.28887,0.32918 -0.28887,1.08159 0,0.39299 0.09405,0.68186 0.09741,0.28552 0.25528,0.43331 0.157871,0.14779 0.312383,0.21833 0.154512,0.0672 0.305665,0.0672 0.675151,0 0.90356,-0.72217 0.02015,-0.0672 0.08733,-0.0672 0.09069,0 0.09069,0.0672 0,0.0336 -0.02687,0.12092 -0.02687,0.0873 -0.110846,0.22505 -0.08397,0.13772 -0.204896,0.25864 -0.117563,0.11756 -0.329178,0.20489 -0.208255,0.0873 -0.470254,0.0873 -0.604612,0 -1.041277,-0.45346 z m 3.053293,0 q -0.436665,-0.45682 -0.436665,-1.10846 0,-0.65499 0.429947,-1.12525 0.429946,-0.47361 1.06143,-0.47361 0.41987,0 0.735612,0.20154 0.315742,0.19817 0.315742,0.53743 0,0.15115 -0.09069,0.23848 -0.08733,0.084 -0.22505,0.084 -0.144435,0 -0.231768,-0.0873 -0.08397,-0.0907 -0.08397,-0.22841 0,-0.0605 0.02015,-0.12093 0.02015,-0.0605 0.09405,-0.12428 0.07726,-0.0638 0.208255,-0.0739 -0.245204,-0.25193 -0.722176,-0.25193 -0.0067,0 -0.01344,0 -0.349331,0 -0.638202,0.32918 -0.28887,0.32918 -0.28887,1.08159 0,0.39299 0.09405,0.68186 0.09741,0.28552 0.255281,0.43331 0.157871,0.14779 0.312383,0.21833 0.154512,0.0672 0.305665,0.0672 0.67515,0 0.903559,-0.72217 0.02015,-0.0672 0.08733,-0.0672 0.09069,0 0.09069,0.0672 0,0.0336 -0.02687,0.12092 -0.02687,0.0873 -0.110845,0.22505 -0.08397,0.13772 -0.204897,0.25864 -0.117563,0.11756 -0.329177,0.20489 -0.208256,0.0873 -0.470255,0.0873 -0.604612,0 -1.041276,-0.45346 z"
         id="path12" />
    </g>
    <g
       id="text3153-6"
       style="font-weight:500;font-size:10.5833px;line-height:1.25;font-family:'CMU Serif';-inkscape-font-specification:'CMU Serif Medium';stroke-width:0.264583"
       aria-label="tconst">
      <path
         style="font-style:italic;-inkscape-font-specification:'CMU Serif Medium Italic'"
         d="m 93.516644,161.31842 q 0,-0.13952 0.06718,-0.17053 0.07235,-0.031 0.232544,-0.031 h 0.899167 l 0.41341,-1.67948 q 0.103352,-0.38241 0.41341,-0.38241 0.284219,0 0.284219,0.27389 0,0.0723 -0.04134,0.22221 l -0.392739,1.56579 h 0.847491 q 0.103352,0 0.144693,0.005 0.04651,0.005 0.08268,0.0362 0.03617,0.0258 0.03617,0.0879 0,0.13952 -0.07235,0.17053 -0.06718,0.031 -0.222208,0.031 h -0.904335 l -0.780312,3.14192 q -0.07235,0.29456 -0.07235,0.5426 0,0.42892 0.279052,0.42892 0,0 0.0052,0 0.403075,0 0.713133,-0.39791 0.315225,-0.40308 0.501259,-0.89917 0.06201,-0.14986 0.08785,-0.1757 0.03101,-0.0258 0.124023,-0.0258 0.160197,0 0.160197,0.10336 0,0.031 -0.06201,0.1912 -0.06201,0.1602 -0.201537,0.40824 -0.139526,0.24805 -0.320393,0.47542 -0.1757,0.22738 -0.454751,0.39274 -0.273885,0.16537 -0.568439,0.16537 -0.403075,0 -0.651121,-0.27389 -0.248046,-0.27905 -0.248046,-0.68212 0,-0.14987 0.05168,-0.35657 l 0.759641,-3.03857 h -0.842323 q -0.103353,0 -0.149861,-0.005 -0.04134,-0.005 -0.08268,-0.031 -0.03617,-0.031 -0.03617,-0.093 z"
         id="path9" />
      <path
         style="font-size:65%;baseline-shift:sub"
         d="m 96.736076,167.42036 q -0.436665,-0.45682 -0.436665,-1.10846 0,-0.65499 0.429947,-1.12525 0.429946,-0.47361 1.06143,-0.47361 0.41987,0 0.735612,0.20154 0.315742,0.19817 0.315742,0.53743 0,0.15115 -0.09069,0.23848 -0.08733,0.084 -0.22505,0.084 -0.144435,0 -0.231768,-0.0873 -0.08397,-0.0907 -0.08397,-0.22841 0,-0.0605 0.02015,-0.12093 0.02015,-0.0605 0.09405,-0.12428 0.07726,-0.0638 0.208255,-0.0739 -0.245204,-0.25193 -0.722176,-0.25193 -0.0067,0 -0.01344,0 -0.349331,0 -0.638202,0.32918 -0.28887,0.32918 -0.28887,1.08159 0,0.39299 0.09405,0.68186 0.09741,0.28552 0.255281,0.43331 0.157871,0.14779 0.312383,0.21833 0.154512,0.0672 0.305665,0.0672 0.67515,0 0.903559,-0.72217 0.02015,-0.0672 0.08733,-0.0672 0.09069,0 0.09069,0.0672 0,0.0336 -0.02687,0.12092 -0.02687,0.0873 -0.110845,0.22505 -0.08397,0.13772 -0.204897,0.25864 -0.117563,0.11756 -0.329177,0.20489 -0.208256,0.0873 -0.470254,0.0873 -0.604613,0 -1.041277,-0.45346 z m 3.02642,0.007 q -0.453459,-0.4501 -0.453459,-1.10174 0,-0.655 0.443383,-1.13197 0.44674,-0.48033 1.08494,-0.48033 0.62477,0 1.07151,0.47697 0.4501,0.47361 0.4501,1.13533 0,0.64828 -0.45346,1.09838 -0.4501,0.4501 -1.07487,0.4501 -0.61133,0 -1.068144,-0.44674 z m 0.117564,-1.15884 q 0,0.66843 0.17467,0.97073 0.26871,0.46018 0.78263,0.46018 0.25528,0 0.4669,-0.13772 0.21497,-0.13771 0.33253,-0.36948 0.15116,-0.30231 0.15116,-0.92371 0,-0.66172 -0.18139,-0.95395 -0.26871,-0.44674 -0.77592,-0.44674 -0.22169,0 -0.44002,0.11756 -0.21497,0.11421 -0.34597,0.34262 -0.16459,0.3023 -0.16459,0.94051 z m 2.89878,1.52832 v -0.21161 q 0.36613,0 0.4501,-0.0437 0.084,-0.047 0.084,-0.26872 v -1.84406 q 0,-0.25528 -0.0907,-0.3191 -0.0873,-0.0638 -0.44338,-0.0638 v -0.21497 l 0.96738,-0.0739 v 0.72218 q 0.32246,-0.72218 1.01776,-0.72218 0.51728,0 0.72218,0.25529 0.15115,0.1713 0.18138,0.36276 0.0336,0.19146 0.0336,0.68859 v 1.31335 q 0.007,0.14444 0.11757,0.17803 0.11084,0.0302 0.41987,0.0302 v 0.21161 q -0.70203,-0.0202 -0.77256,-0.0202 -0.0537,0 -0.77592,0.0202 v -0.21161 q 0.36612,0 0.4501,-0.0437 0.0873,-0.047 0.0873,-0.26872 v -1.60222 q 0,-0.34933 -0.10749,-0.55423 -0.10748,-0.20825 -0.40307,-0.20825 -0.35605,0 -0.64156,0.29894 -0.28551,0.29895 -0.28551,0.8028 v 1.26296 q 0,0.22169 0.084,0.26872 0.0873,0.0437 0.4501,0.0437 v 0.21161 q -0.70202,-0.0202 -0.7692,-0.0202 -0.0537,0 -0.77592,0.0202 z m 3.82249,-0.0907 v -0.90692 q 0,-0.0773 0.003,-0.10413 0.003,-0.0269 0.0235,-0.047 0.0202,-0.0202 0.0605,-0.0202 0.047,0 0.0638,0.0202 0.0202,0.0202 0.0336,0.0974 0.10412,0.47361 0.32582,0.72553 0.22505,0.24856 0.63148,0.24856 0.38628,0 0.5811,-0.1713 0.19482,-0.17131 0.19482,-0.45346 0,-0.50384 -0.71546,-0.63149 -0.41315,-0.084 -0.58446,-0.13771 -0.1713,-0.0571 -0.32246,-0.18139 -0.29559,-0.24184 -0.29559,-0.58445 0,-0.34262 0.25864,-0.59454 0.262,-0.25192 0.83974,-0.25192 0.38628,0 0.64828,0.19482 0.0773,-0.0605 0.11757,-0.11085 0.0907,-0.084 0.13771,-0.084 0.0538,0 0.0638,0.0369 0.0101,0.0336 0.0101,0.131 v 0.69194 q 0,0.0773 -0.003,0.10413 -0.003,0.0269 -0.0235,0.047 -0.0202,0.0168 -0.0638,0.0168 -0.0773,0 -0.0806,-0.0638 -0.0537,-0.83302 -0.80615,-0.83302 -0.40643,0 -0.58781,0.15787 -0.18139,0.15451 -0.18139,0.36612 0,0.11757 0.0538,0.20826 0.0571,0.0873 0.12764,0.14108 0.0739,0.0504 0.20825,0.10077 0.13436,0.047 0.21497,0.0638 0.084,0.0168 0.24185,0.0504 0.55087,0.10413 0.78264,0.32918 0.28887,0.28887 0.28887,0.65499 0,0.40644 -0.27544,0.68187 -0.27543,0.27544 -0.82966,0.27544 -0.44674,0 -0.75912,-0.29895 -0.0403,0.0403 -0.0705,0.0773 -0.0302,0.0336 -0.0437,0.047 -0.0101,0.0134 -0.0134,0.0235 -0.003,0.007 -0.0101,0.0134 -0.13772,0.13772 -0.17131,0.13772 -0.0537,0 -0.0638,-0.0369 -0.0101,-0.0336 -0.0101,-0.131 z m 2.60991,-2.6603 v -0.15115 q 0.31575,-0.0134 0.524,-0.23513 0.21162,-0.22505 0.28215,-0.50048 0.0739,-0.27543 0.0806,-0.59454 h 0.1713 v 1.26633 h 0.98418 v 0.21497 h -0.98418 v 1.91125 q 0,0.74233 0.46354,0.74233 0.19818,0 0.32918,-0.20154 0.131,-0.20489 0.131,-0.56766 v -0.37956 h 0.17131 v 0.393 q 0,0.37284 -0.17131,0.65163 -0.17131,0.2788 -0.51056,0.2788 -0.12428,0 -0.24857,-0.0336 -0.12092,-0.0302 -0.28215,-0.11085 -0.15787,-0.084 -0.25864,-0.28551 -0.0974,-0.2049 -0.0974,-0.50048 v -1.89782 z"
         id="path10" />
    </g>
    <g
       id="text3153-68"
       style="font-weight:500;font-size:10.5833px;line-height:1.25;font-family:'CMU Serif';-inkscape-font-specification:'CMU Serif Medium';stroke-width:0.264583"
       aria-label="tdec">
      <path
         style="font-style:italic;-inkscape-font-specification:'CMU Serif Medium Italic'"
         d="m 153.71216,161.31842 q 0,-0.13952 0.0672,-0.17053 0.0724,-0.031 0.23255,-0.031 h 0.89916 l 0.41341,-1.67948 q 0.10336,-0.38241 0.41341,-0.38241 0.28422,0 0.28422,0.27389 0,0.0723 -0.0413,0.22221 l -0.39274,1.56579 h 0.84749 q 0.10336,0 0.1447,0.005 0.0465,0.005 0.0827,0.0362 0.0362,0.0258 0.0362,0.0879 0,0.13952 -0.0723,0.17053 -0.0672,0.031 -0.22221,0.031 h -0.90434 l -0.78031,3.14192 q -0.0723,0.29456 -0.0723,0.5426 0,0.42892 0.27905,0.42892 0,0 0.005,0 0.40307,0 0.71313,-0.39791 0.31522,-0.40308 0.50126,-0.89917 0.062,-0.14986 0.0879,-0.1757 0.031,-0.0258 0.12402,-0.0258 0.1602,0 0.1602,0.10336 0,0.031 -0.062,0.1912 -0.062,0.1602 -0.20153,0.40824 -0.13953,0.24805 -0.3204,0.47542 -0.17569,0.22738 -0.45475,0.39274 -0.27388,0.16537 -0.56844,0.16537 -0.40307,0 -0.65112,-0.27389 -0.24804,-0.27905 -0.24804,-0.68212 0,-0.14987 0.0517,-0.35657 l 0.75964,-3.03857 h -0.84232 q -0.10335,0 -0.14986,-0.005 -0.0413,-0.005 -0.0827,-0.031 -0.0362,-0.031 -0.0362,-0.093 z"
         id="path7" />
      <path
         style="font-size:65%;baseline-shift:sub"
         d="m 156.49492,166.31862 q 0,-0.655 0.45682,-1.10846 0.45682,-0.45346 1.07487,-0.45346 0.52399,0 0.86661,0.42659 v -1.48802 q 0,-0.25528 -0.0907,-0.3191 -0.0873,-0.0638 -0.44339,-0.0638 v -0.21497 l 0.9909,-0.0739 v 4.17519 q 0,0.25528 0.0873,0.32246 0.0907,0.0638 0.44674,0.0638 v 0.21161 l -1.01105,0.0773 V 167.417 q -0.35605,0.45346 -0.92035,0.45682 -0.59118,0 -1.02448,-0.45346 -0.43331,-0.45346 -0.43331,-1.10174 z m 0.57102,0.007 q 0,0.6382 0.19818,0.95394 0.27544,0.44002 0.72218,0.44002 0.51056,0 0.81287,-0.48033 0.0772,-0.11756 0.0739,-0.25528 v -1.41076 q 0,-0.13772 -0.0739,-0.25192 -0.28216,-0.41315 -0.74233,-0.41315 -0.48033,0 -0.77928,0.44002 -0.21162,0.32918 -0.21162,0.97746 z m 3.20109,-0.0437 q 0,-0.64828 0.41651,-1.10845 0.41651,-0.46018 1.01441,-0.46018 0.60461,0 0.91699,0.393 0.31574,0.39299 0.31574,0.9573 0,0.10413 -0.0269,0.12428 -0.0269,0.0202 -0.14443,0.0202 h -1.92133 q 0,0.70203 0.20826,1.0312 0.28887,0.46018 0.77592,0.46018 0.0672,0 0.14779,-0.0134 0.0806,-0.0134 0.24521,-0.0705 0.16459,-0.0605 0.30902,-0.21833 0.14444,-0.15788 0.22841,-0.40644 0.0202,-0.0974 0.0873,-0.0941 0.0907,0 0.0907,0.0806 0,0.0605 -0.0672,0.19817 -0.0638,0.13436 -0.18811,0.29559 -0.12428,0.16123 -0.36612,0.28215 -0.23849,0.12093 -0.52736,0.12093 -0.60461,0 -1.06143,-0.45682 -0.45346,-0.46018 -0.45346,-1.13533 z m 0.57774,-0.21833 h 1.63246 q 0,-0.14444 -0.0269,-0.30567 -0.0235,-0.16123 -0.0974,-0.38292 -0.0705,-0.22505 -0.23848,-0.36612 -0.16795,-0.14108 -0.41651,-0.14108 -0.11085,0 -0.23177,0.047 -0.11756,0.047 -0.262,0.16123 -0.14443,0.1142 -0.2452,0.37284 -0.10077,0.25864 -0.11421,0.61469 z m 2.95588,1.35702 q -0.43666,-0.45682 -0.43666,-1.10846 0,-0.65499 0.42995,-1.12525 0.42994,-0.47361 1.06143,-0.47361 0.41987,0 0.73561,0.20154 0.31574,0.19817 0.31574,0.53743 0,0.15115 -0.0907,0.23848 -0.0873,0.084 -0.22505,0.084 -0.14444,0 -0.23177,-0.0873 -0.084,-0.0907 -0.084,-0.22841 0,-0.0605 0.0202,-0.12093 0.0202,-0.0605 0.0941,-0.12428 0.0773,-0.0638 0.20826,-0.0739 -0.24521,-0.25193 -0.72218,-0.25193 -0.007,0 -0.0134,0 -0.34934,0 -0.63821,0.32918 -0.28887,0.32918 -0.28887,1.08159 0,0.39299 0.094,0.68186 0.0974,0.28552 0.25528,0.43331 0.15788,0.14779 0.31239,0.21833 0.15451,0.0672 0.30566,0.0672 0.67515,0 0.90356,-0.72217 0.0202,-0.0672 0.0873,-0.0672 0.0907,0 0.0907,0.0672 0,0.0336 -0.0269,0.12092 -0.0269,0.0873 -0.11085,0.22505 -0.084,0.13772 -0.2049,0.25864 -0.11756,0.11756 -0.32917,0.20489 -0.20826,0.0873 -0.47026,0.0873 -0.60461,0 -1.04128,-0.45346 z"
         id="path8" />
    </g>
    <g
       id="text3253"
       style="font-weight:500;font-size:8.46667px;line-height:1.25;font-family:'CMU Serif';-inkscape-font-specification:'CMU Serif Medium';stroke-width:0.264583"
       aria-label="Sacc">
      <path
         style="font-style:italic;-inkscape-font-specification:'CMU Serif Medium Italic'"
         d="m 32.524475,142.24376 q 0,-0.0165 0.02481,-0.11162 l 0.438216,-1.7694 q 0.02481,-0.0951 0.04961,-0.11989 0.02894,-0.0248 0.103353,-0.0248 0.128157,0 0.128157,0.0951 0,0.008 -0.0041,0.0248 -0.0041,0.0165 -0.0041,0.0248 -0.06615,0.24391 -0.07028,0.51677 0,0.60771 0.367936,0.8971 0.372071,0.28939 0.905372,0.28939 0.549837,0 0.979785,-0.51263 0.434082,-0.51263 0.434082,-1.10795 0,-0.37207 -0.186035,-0.60771 -0.103353,-0.11162 -0.21084,-0.1571 -0.103353,-0.0455 -0.44235,-0.14883 l -0.417546,-0.11575 q -0.305924,-0.0827 -0.363802,-0.11162 -0.673861,-0.3142 -0.673861,-1.10795 0,-0.7524 0.599447,-1.38906 0.599447,-0.63665 1.360124,-0.63665 0.764812,0 1.103809,0.57464 l 0.380339,-0.47129 q 0.08268,-0.10335 0.128157,-0.10335 0.09095,0 0.09095,0.0786 0,0.0579 -0.01654,0.12402 l -0.438216,1.75286 q -0.02481,0.10336 -0.05374,0.12816 -0.0248,0.0248 -0.09922,0.0248 -0.128158,0 -0.128158,-0.0827 l 0.0083,-0.11988 q 0.04134,-0.23565 0.04134,-0.46716 0,-0.5333 -0.239779,-0.86403 -0.239779,-0.33486 -0.789616,-0.33486 -0.533301,0 -0.954981,0.45888 -0.417546,0.45476 -0.417546,0.98806 0,0.5581 0.429948,0.74414 0.09509,0.0331 0.467155,0.13642 0.636654,0.18604 0.797885,0.26459 0.165364,0.0744 0.318327,0.26045 0.28112,0.34726 0.28112,0.86403 0,0.82269 -0.61185,1.51308 -0.607715,0.68627 -1.397331,0.68627 -0.897103,0 -1.293978,-0.58291 -0.227377,0.30592 -0.396875,0.47955 -0.08268,0.10336 -0.136426,0.10336 -0.09095,0 -0.09095,-0.0827 z"
         id="path5" />
      <path
         style="font-size:5.50334px;baseline-shift:sub"
         d="m 36.88142,143.30975 q 0,-0.46757 0.550871,-0.71479 0.330523,-0.15855 1.013066,-0.19885 v -0.20154 q 0,-0.34127 -0.180041,-0.52131 -0.177354,-0.18273 -0.403076,-0.18273 -0.403077,0 -0.596553,0.25259 0.163917,0.005 0.223035,0.0887 0.05912,0.0806 0.05912,0.16392 0,0.11017 -0.06987,0.18273 -0.06718,0.0699 -0.182727,0.0699 -0.110175,0 -0.182728,-0.0672 -0.07255,-0.0699 -0.07255,-0.19079 0,-0.26871 0.241846,-0.44607 0.244533,-0.17735 0.591178,-0.17735 0.451446,0 0.752409,0.30365 0.09405,0.0941 0.139734,0.21497 0.04837,0.12093 0.05374,0.20154 0.0054,0.0779 0.0054,0.23379 v 1.09905 q 0,0.0323 0.01075,0.086 0.01075,0.0537 0.05912,0.12361 0.05106,0.0672 0.134359,0.0672 0.198851,0 0.196164,-0.35202 v -0.30903 h 0.139733 v 0.30903 q 0,0.2929 -0.155857,0.40845 -0.153169,0.11286 -0.295589,0.11286 -0.182728,0 -0.298276,-0.13436 -0.115549,-0.13436 -0.131672,-0.31708 -0.0833,0.2096 -0.274092,0.34664 -0.188102,0.13436 -0.446071,0.13436 -0.198851,0 -0.386953,-0.0511 -0.185415,-0.0484 -0.341272,-0.18541 -0.153169,-0.13973 -0.153169,-0.34933 z m 0.424574,-0.005 q 0,0.20423 0.145108,0.3359 0.145107,0.13167 0.349333,0.13167 0.231097,0 0.438009,-0.17735 0.206913,-0.18004 0.206913,-0.53206 v -0.55087 q -0.609989,0.0215 -0.87602,0.26603 -0.263343,0.24184 -0.263343,0.52668 z m 2.633432,0.22841 q -0.349333,-0.36545 -0.349333,-0.88677 0,-0.524 0.343959,-0.9002 0.343958,-0.37889 0.849147,-0.37889 0.335897,0 0.588492,0.16123 0.252594,0.15854 0.252594,0.42995 0,0.12092 -0.07255,0.19079 -0.06987,0.0672 -0.18004,0.0672 -0.115549,0 -0.185416,-0.0699 -0.06718,-0.0726 -0.06718,-0.18273 0,-0.0484 0.01612,-0.0967 0.01612,-0.0484 0.07524,-0.0994 0.0618,-0.0511 0.166605,-0.0591 -0.196164,-0.20154 -0.577743,-0.20154 -0.0054,0 -0.01075,0 -0.279466,0 -0.510563,0.26334 -0.231097,0.26335 -0.231097,0.86528 0,0.31439 0.07524,0.54549 0.07793,0.22841 0.204225,0.34665 0.126298,0.11823 0.249908,0.17466 0.12361,0.0538 0.244533,0.0538 0.540122,0 0.72285,-0.57775 0.01612,-0.0537 0.06987,-0.0537 0.07255,0 0.07255,0.0537 0,0.0269 -0.0215,0.0967 -0.0215,0.0699 -0.08868,0.18004 -0.06718,0.11018 -0.163918,0.20692 -0.09405,0.0941 -0.263343,0.16391 -0.166605,0.0699 -0.376205,0.0699 -0.483691,0 -0.833024,-0.36277 z m 2.442642,0 q -0.349333,-0.36545 -0.349333,-0.88677 0,-0.524 0.343959,-0.9002 0.343958,-0.37889 0.849147,-0.37889 0.335897,0 0.588492,0.16123 0.252594,0.15854 0.252594,0.42995 0,0.12092 -0.07255,0.19079 -0.06987,0.0672 -0.180041,0.0672 -0.115549,0 -0.185415,-0.0699 -0.06718,-0.0726 -0.06718,-0.18273 0,-0.0484 0.01612,-0.0967 0.01612,-0.0484 0.07524,-0.0994 0.0618,-0.0511 0.166605,-0.0591 -0.196164,-0.20154 -0.577743,-0.20154 -0.0054,0 -0.01075,0 -0.279467,0 -0.510564,0.26334 -0.231097,0.26335 -0.231097,0.86528 0,0.31439 0.07524,0.54549 0.07793,0.22841 0.204225,0.34665 0.126298,0.11823 0.249908,0.17466 0.12361,0.0538 0.244533,0.0538 0.540122,0 0.72285,-0.57775 0.01612,-0.0537 0.06987,-0.0537 0.07255,0 0.07255,0.0537 0,0.0269 -0.0215,0.0967 -0.0215,0.0699 -0.08868,0.18004 -0.06718,0.11018 -0.163918,0.20692 -0.09405,0.0941 -0.263343,0.16391 -0.166605,0.0699 -0.376204,0.0699 -0.483692,0 -0.833025,-0.36277 z"
         id="path6" />
    </g>
    <g
       id="text3253-8"
       style="font-weight:500;font-size:8.46667px;line-height:1.25;font-family:'CMU Serif';-inkscape-font-specification:'CMU Serif Medium';stroke-width:0.264583"
       aria-label="Sconst">
      <path
         style="font-style:italic;-inkscape-font-specification:'CMU Serif Medium Italic'"
         d="m 94.28372,142.24376 q 0,-0.0165 0.02481,-0.11162 l 0.438216,-1.7694 q 0.02481,-0.0951 0.04961,-0.11989 0.02894,-0.0248 0.103352,-0.0248 0.128158,0 0.128158,0.0951 0,0.008 -0.0041,0.0248 -0.0041,0.0165 -0.0041,0.0248 -0.06615,0.24391 -0.07028,0.51677 0,0.60771 0.367936,0.8971 0.372071,0.28939 0.905372,0.28939 0.549837,0 0.979785,-0.51263 0.434082,-0.51263 0.434082,-1.10795 0,-0.37207 -0.186035,-0.60771 -0.103353,-0.11162 -0.21084,-0.1571 -0.103353,-0.0455 -0.44235,-0.14883 l -0.417546,-0.11575 q -0.305925,-0.0827 -0.363802,-0.11162 -0.673861,-0.3142 -0.673861,-1.10795 0,-0.7524 0.599447,-1.38906 0.599447,-0.63665 1.360124,-0.63665 0.764811,0 1.103809,0.57464 l 0.380339,-0.47129 q 0.08268,-0.10335 0.128157,-0.10335 0.09095,0 0.09095,0.0786 0,0.0579 -0.01654,0.12402 l -0.438216,1.75286 q -0.02481,0.10336 -0.05374,0.12816 -0.02481,0.0248 -0.09922,0.0248 -0.128158,0 -0.128158,-0.0827 l 0.0083,-0.11988 q 0.04134,-0.23565 0.04134,-0.46716 0,-0.5333 -0.239779,-0.86403 -0.239779,-0.33486 -0.789616,-0.33486 -0.533301,0 -0.954981,0.45888 -0.417546,0.45476 -0.417546,0.98806 0,0.5581 0.429948,0.74414 0.09508,0.0331 0.467155,0.13642 0.636654,0.18604 0.797885,0.26459 0.165364,0.0744 0.318327,0.26045 0.28112,0.34726 0.28112,0.86403 0,0.82269 -0.61185,1.51308 -0.607715,0.68627 -1.397331,0.68627 -0.897103,0 -1.293978,-0.58291 -0.227377,0.30592 -0.396875,0.47955 -0.08268,0.10336 -0.136426,0.10336 -0.09095,0 -0.09095,-0.0827 z"
         id="path3" />
      <path
         style="font-size:5.50334px;baseline-shift:sub"
         d="m 98.947003,143.53278 q -0.349332,-0.36545 -0.349332,-0.88677 0,-0.524 0.343958,-0.9002 0.343959,-0.37889 0.849148,-0.37889 0.335893,0 0.588493,0.16123 0.25259,0.15854 0.25259,0.42995 0,0.12092 -0.0726,0.19079 -0.0699,0.0672 -0.18004,0.0672 -0.11555,0 -0.18542,-0.0699 -0.0672,-0.0726 -0.0672,-0.18273 0,-0.0484 0.0161,-0.0967 0.0161,-0.0484 0.0752,-0.0994 0.0618,-0.0511 0.1666,-0.0591 -0.19616,-0.20154 -0.57774,-0.20154 -0.0054,0 -0.01075,0 -0.279466,0 -0.510563,0.26334 -0.231098,0.26335 -0.231098,0.86528 0,0.31439 0.07524,0.54549 0.07793,0.22841 0.204226,0.34665 0.126297,0.11823 0.249907,0.17466 0.12361,0.0538 0.244533,0.0538 0.540123,0 0.722853,-0.57775 0.0161,-0.0537 0.0699,-0.0537 0.0726,0 0.0726,0.0537 0,0.0269 -0.0215,0.0967 -0.0215,0.0699 -0.0887,0.18004 -0.0672,0.11018 -0.16391,0.20692 -0.0941,0.0941 -0.26335,0.16391 -0.166602,0.0699 -0.376202,0.0699 -0.483692,0 -0.833025,-0.36277 z m 2.421147,0.005 q -0.36277,-0.36009 -0.36277,-0.8814 0,-0.524 0.35471,-0.90558 0.35739,-0.38426 0.86795,-0.38426 0.49982,0 0.85721,0.38158 0.36009,0.37889 0.36009,0.90826 0,0.51863 -0.36277,0.87871 -0.36008,0.36008 -0.8599,0.36008 -0.48907,0 -0.85452,-0.35739 z m 0.094,-0.92708 q 0,0.53475 0.13973,0.77659 0.21498,0.36815 0.62611,0.36815 0.20423,0 0.37352,-0.11018 0.17198,-0.11017 0.26603,-0.29559 0.12093,-0.24184 0.12093,-0.73897 0,-0.52937 -0.14511,-0.76316 -0.21498,-0.35739 -0.62074,-0.35739 -0.17735,0 -0.35202,0.094 -0.17198,0.0914 -0.27678,0.27409 -0.13167,0.24185 -0.13167,0.75241 z m 2.31903,1.22267 v -0.1693 q 0.2929,0 0.36008,-0.0349 0.0672,-0.0376 0.0672,-0.21497 v -1.47526 q 0,-0.20423 -0.0725,-0.25529 -0.0699,-0.0511 -0.35471,-0.0511 v -0.17198 l 0.77391,-0.0591 v 0.57774 q 0.25797,-0.57774 0.81421,-0.57774 0.41383,0 0.57775,0.20423 0.12092,0.13704 0.1451,0.29021 0.0269,0.15317 0.0269,0.55087 v 1.05069 q 0.005,0.11555 0.0941,0.14242 0.0887,0.0242 0.33589,0.0242 v 0.1693 q -0.56162,-0.0161 -0.61805,-0.0161 -0.043,0 -0.62074,0.0161 v -0.1693 q 0.29291,0 0.36009,-0.0349 0.0699,-0.0376 0.0699,-0.21497 v -1.28179 q 0,-0.27946 -0.086,-0.44338 -0.086,-0.16661 -0.32246,-0.16661 -0.28484,0 -0.51325,0.23916 -0.22841,0.23916 -0.22841,0.64224 v 1.01038 q 0,0.17735 0.0672,0.21497 0.0699,0.0349 0.36008,0.0349 v 0.1693 q -0.56162,-0.0161 -0.61536,-0.0161 -0.043,0 -0.62074,0.0161 z m 3.05801,-0.0726 v -0.72554 q 0,-0.0618 0.003,-0.0833 0.003,-0.0215 0.0188,-0.0376 0.0161,-0.0161 0.0484,-0.0161 0.0376,0 0.0511,0.0161 0.0161,0.0161 0.0269,0.0779 0.0833,0.37889 0.26066,0.58043 0.18004,0.19885 0.50519,0.19885 0.30902,0 0.46488,-0.13705 0.15585,-0.13704 0.15585,-0.36276 0,-0.40308 -0.57236,-0.50519 -0.33053,-0.0672 -0.46757,-0.11018 -0.13705,-0.0457 -0.25797,-0.1451 -0.23647,-0.19348 -0.23647,-0.46757 0,-0.2741 0.20691,-0.47563 0.2096,-0.20154 0.67179,-0.20154 0.30903,0 0.51863,0.15585 0.0618,-0.0484 0.094,-0.0887 0.0726,-0.0672 0.11017,-0.0672 0.043,0 0.0511,0.0296 0.008,0.0269 0.008,0.1048 v 0.55356 q 0,0.0618 -0.003,0.0833 -0.003,0.0215 -0.0188,0.0376 -0.0161,0.0134 -0.0511,0.0134 -0.0618,0 -0.0645,-0.0511 -0.043,-0.66642 -0.64493,-0.66642 -0.32514,0 -0.47025,0.1263 -0.14511,0.12361 -0.14511,0.2929 0,0.0941 0.043,0.1666 0.0457,0.0699 0.10211,0.11286 0.0591,0.0403 0.1666,0.0806 0.10749,0.0376 0.17198,0.0511 0.0672,0.0134 0.19348,0.0403 0.4407,0.0833 0.62611,0.26335 0.2311,0.23109 0.2311,0.524 0,0.32514 -0.22035,0.54549 -0.22035,0.22035 -0.66373,0.22035 -0.3574,0 -0.6073,-0.23916 -0.0322,0.0323 -0.0564,0.0618 -0.0242,0.0269 -0.0349,0.0376 -0.008,0.0108 -0.0108,0.0188 -0.003,0.005 -0.008,0.0108 -0.11017,0.11017 -0.13704,0.11017 -0.043,0 -0.0511,-0.0296 -0.008,-0.0269 -0.008,-0.1048 z m 2.08793,-2.12824 v -0.12092 q 0.2526,-0.0108 0.4192,-0.18811 0.16929,-0.18004 0.22573,-0.40039 0.0591,-0.22034 0.0645,-0.47563 h 0.13704 v 1.01307 h 0.78735 v 0.17198 h -0.78735 v 1.529 q 0,0.59387 0.37083,0.59387 0.15855,0 0.26335,-0.16123 0.1048,-0.16392 0.1048,-0.45414 v -0.30365 h 0.13704 v 0.3144 q 0,0.29828 -0.13704,0.52131 -0.13705,0.22304 -0.40845,0.22304 -0.0994,0 -0.19885,-0.0269 -0.0967,-0.0242 -0.22573,-0.0887 -0.12629,-0.0672 -0.20691,-0.22841 -0.0779,-0.16392 -0.0779,-0.40039 v -1.51825 z"
         id="path4" />
    </g>
    <g
       id="text3253-2"
       style="font-weight:500;font-size:8.46667px;line-height:1.25;font-family:'CMU Serif';-inkscape-font-specification:'CMU Serif Medium';stroke-width:0.264583"
       aria-label="Sdec">
      <path
         style="font-style:italic;-inkscape-font-specification:'CMU Serif Medium Italic'"
         d="m 153.87933,142.24376 q 0,-0.0165 0.0248,-0.11162 l 0.43821,-1.7694 q 0.0248,-0.0951 0.0496,-0.11989 0.0289,-0.0248 0.10336,-0.0248 0.12815,0 0.12815,0.0951 0,0.008 -0.004,0.0248 -0.004,0.0165 -0.004,0.0248 -0.0661,0.24391 -0.0703,0.51677 0,0.60771 0.36794,0.8971 0.37207,0.28939 0.90537,0.28939 0.54984,0 0.97979,-0.51263 0.43408,-0.51263 0.43408,-1.10795 0,-0.37207 -0.18604,-0.60771 -0.10335,-0.11162 -0.21084,-0.1571 -0.10335,-0.0455 -0.44235,-0.14883 l -0.41754,-0.11575 q -0.30593,-0.0827 -0.3638,-0.11162 -0.67386,-0.3142 -0.67386,-1.10795 0,-0.7524 0.59944,-1.38906 0.59945,-0.63665 1.36013,-0.63665 0.76481,0 1.10381,0.57464 l 0.38033,-0.47129 q 0.0827,-0.10335 0.12816,-0.10335 0.091,0 0.091,0.0786 0,0.0579 -0.0165,0.12402 l -0.43822,1.75286 q -0.0248,0.10336 -0.0537,0.12816 -0.0248,0.0248 -0.0992,0.0248 -0.12816,0 -0.12816,-0.0827 l 0.008,-0.11988 q 0.0413,-0.23565 0.0413,-0.46716 0,-0.5333 -0.23978,-0.86403 -0.23978,-0.33486 -0.78962,-0.33486 -0.5333,0 -0.95498,0.45888 -0.41754,0.45476 -0.41754,0.98806 0,0.5581 0.42995,0.74414 0.0951,0.0331 0.46715,0.13642 0.63665,0.18604 0.79789,0.26459 0.16536,0.0744 0.31832,0.26045 0.28112,0.34726 0.28112,0.86403 0,0.82269 -0.61185,1.51308 -0.60771,0.68627 -1.39733,0.68627 -0.8971,0 -1.29398,-0.58291 -0.22737,0.30592 -0.39687,0.47955 -0.0827,0.10336 -0.13643,0.10336 -0.0909,0 -0.0909,-0.0827 z"
         id="path1" />
      <path
         style="font-size:5.50334px;baseline-shift:sub"
         d="m 158.19328,142.65139 q 0,-0.524 0.36546,-0.88677 0.36545,-0.36277 0.85989,-0.36277 0.4192,0 0.6933,0.34127 v -1.19042 q 0,-0.20422 -0.0726,-0.25528 -0.0699,-0.051 -0.35471,-0.051 v -0.17198 l 0.79272,-0.0591 v 3.34016 q 0,0.20422 0.0699,0.25797 0.0726,0.051 0.35739,0.051 v 0.1693 l -0.80884,0.0618 v -0.36546 q -0.28484,0.36277 -0.73628,0.36546 -0.47295,0 -0.81959,-0.36277 -0.34665,-0.36277 -0.34665,-0.88139 z m 0.45682,0.005 q 0,0.51057 0.15855,0.76316 0.22034,0.35202 0.57774,0.35202 0.40845,0 0.65029,-0.38427 0.0618,-0.0941 0.0591,-0.20422 v -1.12861 q 0,-0.11018 -0.0591,-0.20154 -0.22572,-0.33053 -0.59386,-0.33053 -0.38427,0 -0.62343,0.35202 -0.16929,0.26335 -0.16929,0.78197 z m 2.56088,-0.0349 q 0,-0.51863 0.33321,-0.88677 0.33321,-0.36814 0.81153,-0.36814 0.48369,0 0.7336,0.3144 0.25259,0.3144 0.25259,0.76584 0,0.0833 -0.0215,0.0994 -0.0215,0.0161 -0.11555,0.0161 h -1.53706 q 0,0.56162 0.1666,0.82496 0.2311,0.36815 0.62074,0.36815 0.0538,0 0.11824,-0.0108 0.0645,-0.0108 0.19616,-0.0564 0.13167,-0.0484 0.24722,-0.17467 0.11555,-0.1263 0.18273,-0.32515 0.0161,-0.0779 0.0699,-0.0752 0.0726,0 0.0726,0.0645 0,0.0484 -0.0537,0.15855 -0.0511,0.10748 -0.15048,0.23647 -0.0994,0.12898 -0.29291,0.22572 -0.19079,0.0967 -0.42188,0.0967 -0.4837,0 -0.84915,-0.36546 -0.36277,-0.36814 -0.36277,-0.90826 z m 0.46219,-0.17467 h 1.30597 q 0,-0.11555 -0.0215,-0.24453 -0.0188,-0.12898 -0.0779,-0.30634 -0.0564,-0.18004 -0.19079,-0.2929 -0.13436,-0.11286 -0.33321,-0.11286 -0.0887,0 -0.18542,0.0376 -0.0941,0.0376 -0.2096,0.12898 -0.11555,0.0914 -0.19616,0.29828 -0.0806,0.20691 -0.0914,0.49175 z m 2.36472,1.08562 q -0.34933,-0.36545 -0.34933,-0.88677 0,-0.524 0.34395,-0.9002 0.34396,-0.37889 0.84915,-0.37889 0.3359,0 0.58849,0.16123 0.2526,0.15854 0.2526,0.42995 0,0.12092 -0.0726,0.19079 -0.0699,0.0672 -0.18004,0.0672 -0.11554,0 -0.18541,-0.0699 -0.0672,-0.0726 -0.0672,-0.18273 0,-0.0484 0.0161,-0.0967 0.0161,-0.0484 0.0752,-0.0994 0.0618,-0.0511 0.16661,-0.0591 -0.19617,-0.20154 -0.57774,-0.20154 -0.005,0 -0.0107,0 -0.27947,0 -0.51057,0.26334 -0.23109,0.26335 -0.23109,0.86528 0,0.31439 0.0752,0.54549 0.0779,0.22841 0.20422,0.34665 0.1263,0.11823 0.24991,0.17466 0.12361,0.0538 0.24453,0.0538 0.54012,0 0.72285,-0.57775 0.0161,-0.0537 0.0699,-0.0537 0.0726,0 0.0726,0.0537 0,0.0269 -0.0215,0.0967 -0.0215,0.0699 -0.0887,0.18004 -0.0672,0.11018 -0.16392,0.20692 -0.094,0.0941 -0.26334,0.16391 -0.16661,0.0699 -0.37621,0.0699 -0.48369,0 -0.83302,-0.36277 z"
         id="path2" />
    </g>
    <path
       style="fill:none;stroke:#000000;stroke-width:0.565;stroke-linecap:butt;stroke-linejoin:miter;stroke-dasharray:none;stroke-opacity:1"
       d="m 45.224844,104.11871 v 8.98613 l -5.172425,0"
       id="path506"
       sodipodi:nodetypes="ccc" />
    <g
       id="g766"
       transform="translate(-0.89680667,1.9590585)">
      <path
         style="font-style:italic;font-weight:500;font-size:6.35px;line-height:1.25;font-family:'CMU Serif';-inkscape-font-specification:'CMU Serif Medium Italic';stroke-width:0.264583"
         d="m 51.746323,107.30991 q 0,-0.0186 0.0248,-0.11162 0.02481,-0.0961 0.08992,-0.24494 0.06821,-0.15193 0.15503,-0.28836 0.08682,-0.13642 0.232544,-0.23254 0.145727,-0.0992 0.310058,-0.0992 0.21084,0 0.347266,0.13953 0.136426,0.13952 0.136426,0.37517 0,0.0961 -0.07131,0.31626 -0.375171,0.99838 -0.375171,1.37666 0,0.20463 0.09302,0.36587 0.09302,0.16123 0.322461,0.16123 0.254248,0 0.465088,-0.24495 0.21394,-0.24805 0.325561,-0.57671 0.114722,-0.33176 0.173633,-0.59221 0.06201,-0.26045 0.06201,-0.35657 0,-0.31626 -0.170533,-0.50229 -0.08371,-0.0961 -0.08371,-0.17054 0,-0.10852 0.09922,-0.19843 0.09922,-0.093 0.20774,-0.093 0.133325,0 0.195336,0.11782 0.06511,0.11782 0.06511,0.30076 0,0.0775 -0.04031,0.31936 -0.03721,0.23874 -0.136426,0.61391 -0.09612,0.37518 -0.241845,0.71004 -0.142627,0.33176 -0.393775,0.57361 -0.248047,0.24184 -0.548803,0.24184 -0.322461,0 -0.551905,-0.17983 -0.229443,-0.18294 -0.229443,-0.58291 0,-0.32866 0.325561,-1.21853 0.151929,-0.42478 0.151929,-0.57361 0,-0.18293 -0.139526,-0.18293 -0.381372,0 -0.589112,0.79995 -0.0186,0.0713 -0.04031,0.0868 -0.0186,0.0155 -0.07441,0.0155 -0.09612,-0.003 -0.09612,-0.0651 z"
         id="text2752-1"
         aria-label="v" />
      <g
         id="use34-2"
         transform="matrix(0.352778,0,0,0.352778,47.508753,109.18956)"
         style="fill:#000000;fill-opacity:1">
        <path
           d="m 6.984375,-11.875 c -0.125,-0.296875 -0.203125,-0.296875 -0.34375,-0.296875 -0.203125,0 -0.21875,0.03125 -0.34375,0.28125 L 0.71875,-0.296875 C 0.703125,-0.265625 0.640625,-0.109375 0.640625,-0.09375 0.640625,-0.015625 0.65625,0 0.96875,0 H 12.3125 c 0.3125,0 0.328125,-0.015625 0.328125,-0.09375 0,-0.015625 -0.07813,-0.171875 -0.09375,-0.203125 z m -0.765625,1.015625 4.765625,9.890625 h -9.5625 z m 0,0"
           id="path70-5" />
      </g>
    </g>
    <g
       id="g772"
       transform="translate(-0.79205083,0.07817986)">
      <path
         style="font-style:italic;font-weight:500;font-size:6.35px;line-height:1.25;font-family:'CMU Serif';-inkscape-font-specification:'CMU Serif Medium Italic';stroke-width:0.264583"
         d="m 45.154266,115.76634 q 0,-0.0837 0.04031,-0.10232 0.04341,-0.0186 0.139527,-0.0186 h 0.539502 l 0.248046,-1.00769 q 0.06201,-0.22944 0.248047,-0.22944 0.170532,0 0.170532,0.16433 0,0.0434 -0.0248,0.13333 l -0.235645,0.93947 h 0.508496 q 0.06201,0 0.08682,0.003 0.02791,0.003 0.04961,0.0217 0.0217,0.0155 0.0217,0.0527 0,0.0837 -0.04341,0.10232 -0.04031,0.0186 -0.133325,0.0186 h -0.542603 l -0.468188,1.88516 q -0.04341,0.17673 -0.04341,0.32556 0,0.25735 0.167431,0.25735 0,0 0.0031,0 0.241846,0 0.427881,-0.23875 0.189135,-0.24184 0.300757,-0.5395 0.03721,-0.0899 0.05271,-0.10542 0.0186,-0.0155 0.07441,-0.0155 0.09612,0 0.09612,0.062 0,0.0186 -0.03721,0.11472 -0.03721,0.0961 -0.120923,0.24495 -0.08372,0.14883 -0.192236,0.28525 -0.10542,0.13643 -0.272852,0.23565 -0.164331,0.0992 -0.341064,0.0992 -0.241846,0 -0.390674,-0.16434 -0.148828,-0.16743 -0.148828,-0.40927 0,-0.0899 0.03101,-0.21394 l 0.455787,-1.82315 h -0.505396 q -0.06201,0 -0.08992,-0.003 -0.02481,-0.003 -0.04961,-0.0186 -0.0217,-0.0186 -0.0217,-0.0558 z"
         id="text2752"
         aria-label="t" />
      <g
         id="use34-2-6"
         transform="matrix(0.352778,0,0,0.352778,40.151296,118.48796)"
         style="fill:#000000;fill-opacity:1">
        <path
           d="m 6.984375,-11.875 c -0.125,-0.296875 -0.203125,-0.296875 -0.34375,-0.296875 -0.203125,0 -0.21875,0.03125 -0.34375,0.28125 L 0.71875,-0.296875 C 0.703125,-0.265625 0.640625,-0.109375 0.640625,-0.09375 0.640625,-0.015625 0.65625,0 0.96875,0 H 12.3125 c 0.3125,0 0.328125,-0.015625 0.328125,-0.09375 0,-0.015625 -0.07813,-0.171875 -0.09375,-0.203125 z m -0.765625,1.015625 4.765625,9.890625 h -9.5625 z m 0,0"
           id="path70-5-9" />
      </g>
      <g
         id="use34-2-6-9"
         transform="matrix(0.4340952,0,0,0.4340952,29.203611,165.49308)"
         style="fill:#000000;fill-opacity:1;stroke-width:0.812674">
        <path
           d="m 6.984375,-11.875 c -0.125,-0.296875 -0.203125,-0.296875 -0.34375,-0.296875 -0.203125,0 -0.21875,0.03125 -0.34375,0.28125 L 0.71875,-0.296875 C 0.703125,-0.265625 0.640625,-0.109375 0.640625,-0.09375 0.640625,-0.015625 0.65625,0 0.96875,0 H 12.3125 c 0.3125,0 0.328125,-0.015625 0.328125,-0.09375 0,-0.015625 -0.07813,-0.171875 -0.09375,-0.203125 z m -0.765625,1.015625 4.765625,9.890625 h -9.5625 z m 0,0"
           id="path70-5-9-4"
           style="stroke-width:0.812674" />
      </g>
      <g
         id="use34-2-6-9-8"
         transform="matrix(0.4340952,0,0,0.4340952,87.411981,165.49308)"
         style="fill:#000000;fill-opacity:1;stroke-width:0.812674">
        <path
           d="m 6.984375,-11.875 c -0.125,-0.296875 -0.203125,-0.296875 -0.34375,-0.296875 -0.203125,0 -0.21875,0.03125 -0.34375,0.28125 L 0.71875,-0.296875 C 0.703125,-0.265625 0.640625,-0.109375 0.640625,-0.09375 0.640625,-0.015625 0.65625,0 0.96875,0 H 12.3125 c 0.3125,0 0.328125,-0.015625 0.328125,-0.09375 0,-0.015625 -0.07813,-0.171875 -0.09375,-0.203125 z m -0.765625,1.015625 4.765625,9.890625 h -9.5625 z m 0,0"
           id="path70-5-9-4-8"
           style="stroke-width:0.812674" />
      </g>
      <g
         id="use34-2-6-9-8-0"
         transform="matrix(0.4340952,0,0,0.4340952,147.8619,165.49308)"
         style="fill:#000000;fill-opacity:1;stroke-width:0.812674">
        <path
           d="m 6.984375,-11.875 c -0.125,-0.296875 -0.203125,-0.296875 -0.34375,-0.296875 -0.203125,0 -0.21875,0.03125 -0.34375,0.28125 L 0.71875,-0.296875 C 0.703125,-0.265625 0.640625,-0.109375 0.640625,-0.09375 0.640625,-0.015625 0.65625,0 0.96875,0 H 12.3125 c 0.3125,0 0.328125,-0.015625 0.328125,-0.09375 0,-0.015625 -0.07813,-0.171875 -0.09375,-0.203125 z m -0.765625,1.015625 4.765625,9.890625 h -9.5625 z m 0,0"
           id="path70-5-9-4-8-4"
           style="stroke-width:0.812674" />
      </g>
    </g>
    <g
       id="g600"
       transform="translate(62.251285,103.97969)">
      <g
         fill="#000000"
         fill-opacity="1"
         id="g36"
         transform="matrix(0.352778,0,0,0.352778,-0.42168,0.144948)">
        <g
           id="use34"
           transform="translate(1.196,11.761)">
          <path
             d="m 6.984375,-11.875 c -0.125,-0.296875 -0.203125,-0.296875 -0.34375,-0.296875 -0.203125,0 -0.21875,0.03125 -0.34375,0.28125 L 0.71875,-0.296875 C 0.703125,-0.265625 0.640625,-0.109375 0.640625,-0.09375 0.640625,-0.015625 0.65625,0 0.96875,0 H 12.3125 c 0.3125,0 0.328125,-0.015625 0.328125,-0.09375 0,-0.015625 -0.07813,-0.171875 -0.09375,-0.203125 z m -0.765625,1.015625 4.765625,9.890625 h -9.5625 z m 0,0"
             id="path70" />
        </g>
      </g>
      <g
         fill="#000000"
         fill-opacity="1"
         id="g40"
         transform="matrix(0.352778,0,0,0.352778,-0.42168,0.144948)">
        <g
           id="use38"
           transform="translate(14.487,11.761)">
          <path
             d="m 7.875,-6.4375 c 0,-1.09375 -0.5625,-1.15625 -0.6875,-1.15625 -0.421875,0 -0.796875,0.40625 -0.796875,0.765625 0,0.203125 0.125,0.3125 0.1875,0.390625 0.171875,0.15625 0.625,0.625 0.625,1.515625 0,0.71875 -1.03125,4.75 -3.109375,4.75 -1.046875,0 -1.25,-0.875 -1.25,-1.515625 0,-0.859375 0.390625,-2.0625 0.859375,-3.3125 0.28125,-0.703125 0.34375,-0.875 0.34375,-1.21875 0,-0.71875 -0.515625,-1.375 -1.359375,-1.375 -1.578125,0 -2.21875,2.5 -2.21875,2.640625 0,0.0625 0.0625,0.15625 0.1875,0.15625 0.15625,0 0.171875,-0.078125 0.234375,-0.3125 C 1.3125,-6.59375 1.984375,-7.25 2.640625,-7.25 c 0.15625,0 0.4375,0 0.4375,0.5625 0,0.453125 -0.1875,0.953125 -0.4375,1.609375 C 1.8125,-2.875 1.8125,-2.34375 1.8125,-1.921875 c 0,0.375 0.046875,1.078125 0.578125,1.5625 0.625,0.53125 1.484375,0.53125 1.640625,0.53125 2.859375,0 3.84375,-5.625 3.84375,-6.609375 z m 0,0"
             id="path74" />
        </g>
      </g>
      <path
         fill="none"
         stroke-width="0.956"
         stroke-linecap="butt"
         stroke-linejoin="miter"
         stroke="#000000"
         stroke-opacity="1"
         stroke-miterlimit="10"
         d="M 0,15.735094 H 22.058593"
         id="path42"
         transform="scale(0.352778)" />
      <g
         clip-path="url(#clipPath8521)"
         id="g48"
         transform="matrix(0.352778,0,0,0.352778,-0.42168,0.144948)">
        <g
           fill="#000000"
           fill-opacity="1"
           id="g46">
          <g
             id="use44"
             transform="translate(2.5350001,30.068001)">
            <path
               d="m 6.984375,-11.875 c -0.125,-0.296875 -0.203125,-0.296875 -0.34375,-0.296875 -0.203125,0 -0.21875,0.03125 -0.34375,0.28125 L 0.71875,-0.296875 C 0.703125,-0.265625 0.640625,-0.109375 0.640625,-0.09375 0.640625,-0.015625 0.65625,0 0.96875,0 H 12.3125 c 0.3125,0 0.328125,-0.015625 0.328125,-0.09375 0,-0.015625 -0.07813,-0.171875 -0.09375,-0.203125 z m -0.765625,1.015625 4.765625,9.890625 h -9.5625 z m 0,0"
               id="path78" />
          </g>
        </g>
      </g>
      <g
         clip-path="url(#clipPath2236)"
         id="g54"
         transform="matrix(0.352778,0,0,0.352778,-0.42168,0.144948)">
        <g
           fill="#000000"
           fill-opacity="1"
           id="g52">
          <g
             id="use50"
             transform="translate(15.827,30.068001)">
            <path
               d="m 3.46875,-6.921875 h 1.578125 c 0.328125,0 0.5,0 0.5,-0.3125 0,-0.1875 -0.109375,-0.1875 -0.453125,-0.1875 H 3.578125 L 4.21875,-9.9375 c 0.0625,-0.234375 0.0625,-0.265625 0.0625,-0.390625 0,-0.28125 -0.21875,-0.4375 -0.4375,-0.4375 -0.140625,0 -0.53125,0.0625 -0.671875,0.609375 L 2.5,-7.421875 H 0.875 c -0.34375,0 -0.5,0 -0.5,0.328125 0,0.171875 0.125,0.171875 0.453125,0.171875 h 1.53125 L 1.21875,-2.375 c -0.140625,0.59375 -0.1875,0.78125 -0.1875,1 0,0.8125 0.5625,1.546875 1.53125,1.546875 1.75,0 2.671875,-2.515625 2.671875,-2.640625 0,-0.09375 -0.0625,-0.15625 -0.171875,-0.15625 -0.03125,0 -0.109375,0 -0.140625,0.078125 -0.015625,0.015625 -0.03125,0.03125 -0.15625,0.3125 -0.359375,0.859375 -1.15625,2.0625 -2.140625,2.0625 -0.53125,0 -0.5625,-0.4375 -0.5625,-0.8125 0,-0.015625 0,-0.34375 0.0625,-0.546875 z m 0,0"
               id="path82" />
          </g>
        </g>
      </g>
      <g
         fill="#000000"
         fill-opacity="1"
         id="g58"
         transform="matrix(0.352778,0,0,0.352778,-0.42168,0.144948)">
        <g
           id="use56"
           transform="translate(31.334999,21.52)">
          <path
             d="m 15.9375,-7.953125 c 0.375,0 0.734375,0 0.734375,-0.421875 0,-0.453125 -0.421875,-0.453125 -0.84375,-0.453125 H 1.984375 c -0.421875,0 -0.84375,0 -0.84375,0.453125 0,0.421875 0.375,0.421875 0.75,0.421875 z m -0.109375,4.40625 c 0.421875,0 0.84375,0 0.84375,-0.4375 0,-0.421875 -0.359375,-0.421875 -0.734375,-0.421875 H 1.890625 c -0.375,0 -0.75,0 -0.75,0.421875 0,0.4375 0.421875,0.4375 0.84375,0.4375 z m 0,0"
             id="path86" />
        </g>
      </g>
      <g
         clip-path="url(#clipPath3362)"
         id="g64"
         transform="matrix(0.352778,0,0,0.352778,-0.42168,0.144948)">
        <g
           fill="#000000"
           fill-opacity="1"
           id="g62">
          <g
             id="use60"
             transform="translate(56.063,21.52)">
            <path
               d="m 7.453125,-2.953125 c -0.125,0.421875 -0.125,0.46875 -0.46875,0.953125 -0.546875,0.6875 -1.625,1.75 -2.796875,1.75 -1.015625,0 -1.578125,-0.921875 -1.578125,-2.375 0,-1.359375 0.765625,-4.140625 1.234375,-5.1875 0.84375,-1.734375 2,-2.625 2.96875,-2.625 1.640625,0 1.953125,2.03125 1.953125,2.234375 0,0.03125 -0.0625,0.34375 -0.09375,0.390625 z m 1.59375,-6.34375 c -0.28125,-0.640625 -0.9375,-1.625 -2.234375,-1.625 -2.796875,0 -5.828125,3.609375 -5.828125,7.28125 0,2.453125 1.4375,3.890625 3.125,3.890625 1.375,0 2.53125,-1.0625 3.21875,-1.890625 C 7.578125,-0.171875 8.75,0.25 9.484375,0.25 c 0.75,0 1.34375,-0.453125 1.796875,-1.34375 0.390625,-0.84375 0.734375,-2.34375 0.734375,-2.453125 0,-0.125 -0.09375,-0.21875 -0.25,-0.21875 -0.21875,0 -0.25,0.125 -0.34375,0.5 C 11.046875,-1.8125 10.578125,-0.25 9.5625,-0.25 c -0.71875,0 -0.765625,-0.640625 -0.765625,-1.140625 0,-0.5625 0.078125,-0.84375 0.296875,-1.8125 0.171875,-0.609375 0.296875,-1.15625 0.5,-1.875 0.90625,-3.71875 1.140625,-4.609375 1.140625,-4.765625 0,-0.34375 -0.28125,-0.609375 -0.640625,-0.609375 -0.796875,0 -1,0.859375 -1.046875,1.15625 z m 0,0"
               id="path90" />
          </g>
        </g>
      </g>
    </g>
  </g>
</svg>
