<?xml version="1.0" encoding="utf-8" standalone="no"?>
<!DOCTYPE svg PUBLIC "-//W3C//DTD SVG 1.1//EN"
  "http://www.w3.org/Graphics/SVG/1.1/DTD/svg11.dtd">
<svg xmlns:xlink="http://www.w3.org/1999/xlink" width="249.48561pt" height="319.853pt" viewBox="0 0 249.48561 319.853" xmlns="http://www.w3.org/2000/svg" version="1.1">
 <metadata>
  <rdf:RDF xmlns:dc="http://purl.org/dc/elements/1.1/" xmlns:cc="http://creativecommons.org/ns#" xmlns:rdf="http://www.w3.org/1999/02/22-rdf-syntax-ns#">
   <cc:Work>
    <dc:type rdf:resource="http://purl.org/dc/dcmitype/StillImage"/>
    <dc:date>2025-06-26T17:01:22.037777</dc:date>
    <dc:format>image/svg+xml</dc:format>
    <dc:creator>
     <cc:Agent>
      <dc:title>Matplotlib v3.10.3, https://matplotlib.org/</dc:title>
     </cc:Agent>
    </dc:creator>
   </cc:Work>
  </rdf:RDF>
 </metadata>
 <defs>
  <style type="text/css">*{stroke-linejoin: round; stroke-linecap: butt}</style>
 </defs>
 <g id="figure_1">
  <g id="patch_1">
   <path d="M 0 319.853 
L 249.48561 319.853 
L 249.48561 0 
L 0 0 
z
" style="fill: #ffffff"/>
  </g>
  <g id="axes_1">
   <g id="patch_2">
    <path d="M 44.7425 160.8768 
L 237.19561 160.8768 
L 237.19561 7.2 
L 44.7425 7.2 
z
" style="fill: #ffffff"/>
   </g>
   <g id="matplotlib.axis_1">
    <g id="xtick_1">
     <g id="line2d_1">
      <defs>
       <path id="m09d5ea94b4" d="M 0 0 
L 0 3.5 
" style="stroke: #000000; stroke-width: 0.8"/>
      </defs>
      <g>
       <use xlink:href="#m09d5ea94b4" x="44.7425" y="160.8768" style="stroke: #000000; stroke-width: 0.8"/>
      </g>
     </g>
     <g id="text_1">
      <!-- 0 -->
      <g transform="translate(42.1975 173.95555) scale(0.08 -0.08)">
       <defs>
        <path id="DejaVuSans-30" d="M 2034 4250 
Q 1547 4250 1301 3770 
Q 1056 3291 1056 2328 
Q 1056 1369 1301 889 
Q 1547 409 2034 409 
Q 2525 409 2770 889 
Q 3016 1369 3016 2328 
Q 3016 3291 2770 3770 
Q 2525 4250 2034 4250 
z
M 2034 4750 
Q 2819 4750 3233 4129 
Q 3647 3509 3647 2328 
Q 3647 1150 3233 529 
Q 2819 -91 2034 -91 
Q 1250 -91 836 529 
Q 422 1150 422 2328 
Q 422 3509 836 4129 
Q 1250 4750 2034 4750 
z
" transform="scale(0.015625)"/>
       </defs>
       <use xlink:href="#DejaVuSans-30"/>
      </g>
     </g>
    </g>
    <g id="xtick_2">
     <g id="line2d_2">
      <g>
       <use xlink:href="#m09d5ea94b4" x="108.893537" y="160.8768" style="stroke: #000000; stroke-width: 0.8"/>
      </g>
     </g>
     <g id="text_2">
      <!-- 32 -->
      <g transform="translate(103.803537 173.95555) scale(0.08 -0.08)">
       <defs>
        <path id="DejaVuSans-33" d="M 2597 2516 
Q 3050 2419 3304 2112 
Q 3559 1806 3559 1356 
Q 3559 666 3084 287 
Q 2609 -91 1734 -91 
Q 1441 -91 1130 -33 
Q 819 25 488 141 
L 488 750 
Q 750 597 1062 519 
Q 1375 441 1716 441 
Q 2309 441 2620 675 
Q 2931 909 2931 1356 
Q 2931 1769 2642 2001 
Q 2353 2234 1838 2234 
L 1294 2234 
L 1294 2753 
L 1863 2753 
Q 2328 2753 2575 2939 
Q 2822 3125 2822 3475 
Q 2822 3834 2567 4026 
Q 2313 4219 1838 4219 
Q 1578 4219 1281 4162 
Q 984 4106 628 3988 
L 628 4550 
Q 988 4650 1302 4700 
Q 1616 4750 1894 4750 
Q 2613 4750 3031 4423 
Q 3450 4097 3450 3541 
Q 3450 3153 3228 2886 
Q 3006 2619 2597 2516 
z
" transform="scale(0.015625)"/>
        <path id="DejaVuSans-32" d="M 1228 531 
L 3431 531 
L 3431 0 
L 469 0 
L 469 531 
Q 828 903 1448 1529 
Q 2069 2156 2228 2338 
Q 2531 2678 2651 2914 
Q 2772 3150 2772 3378 
Q 2772 3750 2511 3984 
Q 2250 4219 1831 4219 
Q 1534 4219 1204 4116 
Q 875 4013 500 3803 
L 500 4441 
Q 881 4594 1212 4672 
Q 1544 4750 1819 4750 
Q 2544 4750 2975 4387 
Q 3406 4025 3406 3419 
Q 3406 3131 3298 2873 
Q 3191 2616 2906 2266 
Q 2828 2175 2409 1742 
Q 1991 1309 1228 531 
z
" transform="scale(0.015625)"/>
       </defs>
       <use xlink:href="#DejaVuSans-33"/>
       <use xlink:href="#DejaVuSans-32" transform="translate(63.623047 0)"/>
      </g>
     </g>
    </g>
    <g id="xtick_3">
     <g id="line2d_3">
      <g>
       <use xlink:href="#m09d5ea94b4" x="173.044573" y="160.8768" style="stroke: #000000; stroke-width: 0.8"/>
      </g>
     </g>
     <g id="text_3">
      <!-- 64 -->
      <g transform="translate(167.954573 173.95555) scale(0.08 -0.08)">
       <defs>
        <path id="DejaVuSans-36" d="M 2113 2584 
Q 1688 2584 1439 2293 
Q 1191 2003 1191 1497 
Q 1191 994 1439 701 
Q 1688 409 2113 409 
Q 2538 409 2786 701 
Q 3034 994 3034 1497 
Q 3034 2003 2786 2293 
Q 2538 2584 2113 2584 
z
M 3366 4563 
L 3366 3988 
Q 3128 4100 2886 4159 
Q 2644 4219 2406 4219 
Q 1781 4219 1451 3797 
Q 1122 3375 1075 2522 
Q 1259 2794 1537 2939 
Q 1816 3084 2150 3084 
Q 2853 3084 3261 2657 
Q 3669 2231 3669 1497 
Q 3669 778 3244 343 
Q 2819 -91 2113 -91 
Q 1303 -91 875 529 
Q 447 1150 447 2328 
Q 447 3434 972 4092 
Q 1497 4750 2381 4750 
Q 2619 4750 2861 4703 
Q 3103 4656 3366 4563 
z
" transform="scale(0.015625)"/>
        <path id="DejaVuSans-34" d="M 2419 4116 
L 825 1625 
L 2419 1625 
L 2419 4116 
z
M 2253 4666 
L 3047 4666 
L 3047 1625 
L 3713 1625 
L 3713 1100 
L 3047 1100 
L 3047 0 
L 2419 0 
L 2419 1100 
L 313 1100 
L 313 1709 
L 2253 4666 
z
" transform="scale(0.015625)"/>
       </defs>
       <use xlink:href="#DejaVuSans-36"/>
       <use xlink:href="#DejaVuSans-34" transform="translate(63.623047 0)"/>
      </g>
     </g>
    </g>
    <g id="xtick_4">
     <g id="line2d_4">
      <g>
       <use xlink:href="#m09d5ea94b4" x="237.19561" y="160.8768" style="stroke: #000000; stroke-width: 0.8"/>
      </g>
     </g>
     <g id="text_4">
      <!-- 96 -->
      <g transform="translate(232.10561 173.95555) scale(0.08 -0.08)">
       <defs>
        <path id="DejaVuSans-39" d="M 703 97 
L 703 672 
Q 941 559 1184 500 
Q 1428 441 1663 441 
Q 2288 441 2617 861 
Q 2947 1281 2994 2138 
Q 2813 1869 2534 1725 
Q 2256 1581 1919 1581 
Q 1219 1581 811 2004 
Q 403 2428 403 3163 
Q 403 3881 828 4315 
Q 1253 4750 1959 4750 
Q 2769 4750 3195 4129 
Q 3622 3509 3622 2328 
Q 3622 1225 3098 567 
Q 2575 -91 1691 -91 
Q 1453 -91 1209 -44 
Q 966 3 703 97 
z
M 1959 2075 
Q 2384 2075 2632 2365 
Q 2881 2656 2881 3163 
Q 2881 3666 2632 3958 
Q 2384 4250 1959 4250 
Q 1534 4250 1286 3958 
Q 1038 3666 1038 3163 
Q 1038 2656 1286 2365 
Q 1534 2075 1959 2075 
z
" transform="scale(0.015625)"/>
       </defs>
       <use xlink:href="#DejaVuSans-39"/>
       <use xlink:href="#DejaVuSans-36" transform="translate(63.623047 0)"/>
      </g>
     </g>
    </g>
   </g>
   <g id="matplotlib.axis_2">
    <g id="ytick_1">
     <g id="line2d_5">
      <defs>
       <path id="mceee23a0d7" d="M 0 0 
L -3.5 0 
" style="stroke: #000000; stroke-width: 0.8"/>
      </defs>
      <g>
       <use xlink:href="#mceee23a0d7" x="44.7425" y="160.8768" style="stroke: #000000; stroke-width: 0.8"/>
      </g>
     </g>
     <g id="text_5">
      <!-- 0 -->
      <g transform="translate(32.6525 163.916175) scale(0.08 -0.08)">
       <use xlink:href="#DejaVuSans-30"/>
      </g>
     </g>
    </g>
    <g id="ytick_2">
     <g id="line2d_6">
      <g>
       <use xlink:href="#mceee23a0d7" x="44.7425" y="128.8608" style="stroke: #000000; stroke-width: 0.8"/>
      </g>
     </g>
     <g id="text_6">
      <!-- 20 -->
      <g transform="translate(27.5625 131.900175) scale(0.08 -0.08)">
       <use xlink:href="#DejaVuSans-32"/>
       <use xlink:href="#DejaVuSans-30" transform="translate(63.623047 0)"/>
      </g>
     </g>
    </g>
    <g id="ytick_3">
     <g id="line2d_7">
      <g>
       <use xlink:href="#mceee23a0d7" x="44.7425" y="96.8448" style="stroke: #000000; stroke-width: 0.8"/>
      </g>
     </g>
     <g id="text_7">
      <!-- 40 -->
      <g transform="translate(27.5625 99.884175) scale(0.08 -0.08)">
       <use xlink:href="#DejaVuSans-34"/>
       <use xlink:href="#DejaVuSans-30" transform="translate(63.623047 0)"/>
      </g>
     </g>
    </g>
    <g id="ytick_4">
     <g id="line2d_8">
      <g>
       <use xlink:href="#mceee23a0d7" x="44.7425" y="64.8288" style="stroke: #000000; stroke-width: 0.8"/>
      </g>
     </g>
     <g id="text_8">
      <!-- 60 -->
      <g transform="translate(27.5625 67.868175) scale(0.08 -0.08)">
       <use xlink:href="#DejaVuSans-36"/>
       <use xlink:href="#DejaVuSans-30" transform="translate(63.623047 0)"/>
      </g>
     </g>
    </g>
    <g id="ytick_5">
     <g id="line2d_9">
      <g>
       <use xlink:href="#mceee23a0d7" x="44.7425" y="32.8128" style="stroke: #000000; stroke-width: 0.8"/>
      </g>
     </g>
     <g id="text_9">
      <!-- 80 -->
      <g transform="translate(27.5625 35.852175) scale(0.08 -0.08)">
       <defs>
        <path id="DejaVuSans-38" d="M 2034 2216 
Q 1584 2216 1326 1975 
Q 1069 1734 1069 1313 
Q 1069 891 1326 650 
Q 1584 409 2034 409 
Q 2484 409 2743 651 
Q 3003 894 3003 1313 
Q 3003 1734 2745 1975 
Q 2488 2216 2034 2216 
z
M 1403 2484 
Q 997 2584 770 2862 
Q 544 3141 544 3541 
Q 544 4100 942 4425 
Q 1341 4750 2034 4750 
Q 2731 4750 3128 4425 
Q 3525 4100 3525 3541 
Q 3525 3141 3298 2862 
Q 3072 2584 2669 2484 
Q 3125 2378 3379 2068 
Q 3634 1759 3634 1313 
Q 3634 634 3220 271 
Q 2806 -91 2034 -91 
Q 1263 -91 848 271 
Q 434 634 434 1313 
Q 434 1759 690 2068 
Q 947 2378 1403 2484 
z
M 1172 3481 
Q 1172 3119 1398 2916 
Q 1625 2713 2034 2713 
Q 2441 2713 2670 2916 
Q 2900 3119 2900 3481 
Q 2900 3844 2670 4047 
Q 2441 4250 2034 4250 
Q 1625 4250 1398 4047 
Q 1172 3844 1172 3481 
z
" transform="scale(0.015625)"/>
       </defs>
       <use xlink:href="#DejaVuSans-38"/>
       <use xlink:href="#DejaVuSans-30" transform="translate(63.623047 0)"/>
      </g>
     </g>
    </g>
    <g id="text_10">
     <!-- Relative speed-up -->
     <g transform="translate(13.27875 120.0434) rotate(-90) scale(0.08 -0.08)">
      <defs>
       <path id="DejaVuSans-52" d="M 2841 2188 
Q 3044 2119 3236 1894 
Q 3428 1669 3622 1275 
L 4263 0 
L 3584 0 
L 2988 1197 
Q 2756 1666 2539 1819 
Q 2322 1972 1947 1972 
L 1259 1972 
L 1259 0 
L 628 0 
L 628 4666 
L 2053 4666 
Q 2853 4666 3247 4331 
Q 3641 3997 3641 3322 
Q 3641 2881 3436 2590 
Q 3231 2300 2841 2188 
z
M 1259 4147 
L 1259 2491 
L 2053 2491 
Q 2509 2491 2742 2702 
Q 2975 2913 2975 3322 
Q 2975 3731 2742 3939 
Q 2509 4147 2053 4147 
L 1259 4147 
z
" transform="scale(0.015625)"/>
       <path id="DejaVuSans-65" d="M 3597 1894 
L 3597 1613 
L 953 1613 
Q 991 1019 1311 708 
Q 1631 397 2203 397 
Q 2534 397 2845 478 
Q 3156 559 3463 722 
L 3463 178 
Q 3153 47 2828 -22 
Q 2503 -91 2169 -91 
Q 1331 -91 842 396 
Q 353 884 353 1716 
Q 353 2575 817 3079 
Q 1281 3584 2069 3584 
Q 2775 3584 3186 3129 
Q 3597 2675 3597 1894 
z
M 3022 2063 
Q 3016 2534 2758 2815 
Q 2500 3097 2075 3097 
Q 1594 3097 1305 2825 
Q 1016 2553 972 2059 
L 3022 2063 
z
" transform="scale(0.015625)"/>
       <path id="DejaVuSans-6c" d="M 603 4863 
L 1178 4863 
L 1178 0 
L 603 0 
L 603 4863 
z
" transform="scale(0.015625)"/>
       <path id="DejaVuSans-61" d="M 2194 1759 
Q 1497 1759 1228 1600 
Q 959 1441 959 1056 
Q 959 750 1161 570 
Q 1363 391 1709 391 
Q 2188 391 2477 730 
Q 2766 1069 2766 1631 
L 2766 1759 
L 2194 1759 
z
M 3341 1997 
L 3341 0 
L 2766 0 
L 2766 531 
Q 2569 213 2275 61 
Q 1981 -91 1556 -91 
Q 1019 -91 701 211 
Q 384 513 384 1019 
Q 384 1609 779 1909 
Q 1175 2209 1959 2209 
L 2766 2209 
L 2766 2266 
Q 2766 2663 2505 2880 
Q 2244 3097 1772 3097 
Q 1472 3097 1187 3025 
Q 903 2953 641 2809 
L 641 3341 
Q 956 3463 1253 3523 
Q 1550 3584 1831 3584 
Q 2591 3584 2966 3190 
Q 3341 2797 3341 1997 
z
" transform="scale(0.015625)"/>
       <path id="DejaVuSans-74" d="M 1172 4494 
L 1172 3500 
L 2356 3500 
L 2356 3053 
L 1172 3053 
L 1172 1153 
Q 1172 725 1289 603 
Q 1406 481 1766 481 
L 2356 481 
L 2356 0 
L 1766 0 
Q 1100 0 847 248 
Q 594 497 594 1153 
L 594 3053 
L 172 3053 
L 172 3500 
L 594 3500 
L 594 4494 
L 1172 4494 
z
" transform="scale(0.015625)"/>
       <path id="DejaVuSans-69" d="M 603 3500 
L 1178 3500 
L 1178 0 
L 603 0 
L 603 3500 
z
M 603 4863 
L 1178 4863 
L 1178 4134 
L 603 4134 
L 603 4863 
z
" transform="scale(0.015625)"/>
       <path id="DejaVuSans-76" d="M 191 3500 
L 800 3500 
L 1894 563 
L 2988 3500 
L 3597 3500 
L 2284 0 
L 1503 0 
L 191 3500 
z
" transform="scale(0.015625)"/>
       <path id="DejaVuSans-20" transform="scale(0.015625)"/>
       <path id="DejaVuSans-73" d="M 2834 3397 
L 2834 2853 
Q 2591 2978 2328 3040 
Q 2066 3103 1784 3103 
Q 1356 3103 1142 2972 
Q 928 2841 928 2578 
Q 928 2378 1081 2264 
Q 1234 2150 1697 2047 
L 1894 2003 
Q 2506 1872 2764 1633 
Q 3022 1394 3022 966 
Q 3022 478 2636 193 
Q 2250 -91 1575 -91 
Q 1294 -91 989 -36 
Q 684 19 347 128 
L 347 722 
Q 666 556 975 473 
Q 1284 391 1588 391 
Q 1994 391 2212 530 
Q 2431 669 2431 922 
Q 2431 1156 2273 1281 
Q 2116 1406 1581 1522 
L 1381 1569 
Q 847 1681 609 1914 
Q 372 2147 372 2553 
Q 372 3047 722 3315 
Q 1072 3584 1716 3584 
Q 2034 3584 2315 3537 
Q 2597 3491 2834 3397 
z
" transform="scale(0.015625)"/>
       <path id="DejaVuSans-70" d="M 1159 525 
L 1159 -1331 
L 581 -1331 
L 581 3500 
L 1159 3500 
L 1159 2969 
Q 1341 3281 1617 3432 
Q 1894 3584 2278 3584 
Q 2916 3584 3314 3078 
Q 3713 2572 3713 1747 
Q 3713 922 3314 415 
Q 2916 -91 2278 -91 
Q 1894 -91 1617 61 
Q 1341 213 1159 525 
z
M 3116 1747 
Q 3116 2381 2855 2742 
Q 2594 3103 2138 3103 
Q 1681 3103 1420 2742 
Q 1159 2381 1159 1747 
Q 1159 1113 1420 752 
Q 1681 391 2138 391 
Q 2594 391 2855 752 
Q 3116 1113 3116 1747 
z
" transform="scale(0.015625)"/>
       <path id="DejaVuSans-64" d="M 2906 2969 
L 2906 4863 
L 3481 4863 
L 3481 0 
L 2906 0 
L 2906 525 
Q 2725 213 2448 61 
Q 2172 -91 1784 -91 
Q 1150 -91 751 415 
Q 353 922 353 1747 
Q 353 2572 751 3078 
Q 1150 3584 1784 3584 
Q 2172 3584 2448 3432 
Q 2725 3281 2906 2969 
z
M 947 1747 
Q 947 1113 1208 752 
Q 1469 391 1925 391 
Q 2381 391 2643 752 
Q 2906 1113 2906 1747 
Q 2906 2381 2643 2742 
Q 2381 3103 1925 3103 
Q 1469 3103 1208 2742 
Q 947 2381 947 1747 
z
" transform="scale(0.015625)"/>
       <path id="DejaVuSans-2d" d="M 313 2009 
L 1997 2009 
L 1997 1497 
L 313 1497 
L 313 2009 
z
" transform="scale(0.015625)"/>
       <path id="DejaVuSans-75" d="M 544 1381 
L 544 3500 
L 1119 3500 
L 1119 1403 
Q 1119 906 1312 657 
Q 1506 409 1894 409 
Q 2359 409 2629 706 
Q 2900 1003 2900 1516 
L 2900 3500 
L 3475 3500 
L 3475 0 
L 2900 0 
L 2900 538 
Q 2691 219 2414 64 
Q 2138 -91 1772 -91 
Q 1169 -91 856 284 
Q 544 659 544 1381 
z
M 1991 3584 
L 1991 3584 
z
" transform="scale(0.015625)"/>
      </defs>
      <use xlink:href="#DejaVuSans-52"/>
      <use xlink:href="#DejaVuSans-65" transform="translate(64.982422 0)"/>
      <use xlink:href="#DejaVuSans-6c" transform="translate(126.505859 0)"/>
      <use xlink:href="#DejaVuSans-61" transform="translate(154.289062 0)"/>
      <use xlink:href="#DejaVuSans-74" transform="translate(215.568359 0)"/>
      <use xlink:href="#DejaVuSans-69" transform="translate(254.777344 0)"/>
      <use xlink:href="#DejaVuSans-76" transform="translate(282.560547 0)"/>
      <use xlink:href="#DejaVuSans-65" transform="translate(341.740234 0)"/>
      <use xlink:href="#DejaVuSans-20" transform="translate(403.263672 0)"/>
      <use xlink:href="#DejaVuSans-73" transform="translate(435.050781 0)"/>
      <use xlink:href="#DejaVuSans-70" transform="translate(487.150391 0)"/>
      <use xlink:href="#DejaVuSans-65" transform="translate(550.626953 0)"/>
      <use xlink:href="#DejaVuSans-65" transform="translate(612.150391 0)"/>
      <use xlink:href="#DejaVuSans-64" transform="translate(673.673828 0)"/>
      <use xlink:href="#DejaVuSans-2d" transform="translate(737.150391 0)"/>
      <use xlink:href="#DejaVuSans-75" transform="translate(773.234375 0)"/>
      <use xlink:href="#DejaVuSans-70" transform="translate(836.613281 0)"/>
     </g>
    </g>
   </g>
   <g id="line2d_10">
    <path d="M 44.7425 160.8768 
L 247.464665 -1 
" clip-path="url(#p5385e959b6)" style="fill: none; stroke-dasharray: 1,1.65; stroke-dashoffset: 0; stroke: #1f77b4; stroke-opacity: 0.75"/>
   </g>
   <g id="line2d_11">
    <path d="M 46.74722 159.276 
L 52.76138 155.081749 
L 60.780259 150.440234 
L 76.818018 142.99733 
L 108.893537 132.803485 
L 140.969055 126.593544 
L 173.044573 122.557217 
L 205.120092 120.093645 
L 237.19561 118.823664 
" clip-path="url(#p5385e959b6)" style="fill: none; stroke: #1f77b4; stroke-linecap: square"/>
    <defs>
     <path id="m9bdbf3d948" d="M 0 3 
C 0.795609 3 1.55874 2.683901 2.12132 2.12132 
C 2.683901 1.55874 3 0.795609 3 0 
C 3 -0.795609 2.683901 -1.55874 2.12132 -2.12132 
C 1.55874 -2.683901 0.795609 -3 0 -3 
C -0.795609 -3 -1.55874 -2.683901 -2.12132 -2.12132 
C -2.683901 -1.55874 -3 -0.795609 -3 0 
C -3 0.795609 -2.683901 1.55874 -2.12132 2.12132 
C -1.55874 2.683901 -0.795609 3 0 3 
z
" style="stroke: #1f77b4"/>
    </defs>
    <g clip-path="url(#p5385e959b6)">
     <use xlink:href="#m9bdbf3d948" x="46.74722" y="159.276" style="fill: #1f77b4; stroke: #1f77b4"/>
     <use xlink:href="#m9bdbf3d948" x="52.76138" y="155.081749" style="fill: #1f77b4; stroke: #1f77b4"/>
     <use xlink:href="#m9bdbf3d948" x="60.780259" y="150.440234" style="fill: #1f77b4; stroke: #1f77b4"/>
     <use xlink:href="#m9bdbf3d948" x="76.818018" y="142.99733" style="fill: #1f77b4; stroke: #1f77b4"/>
     <use xlink:href="#m9bdbf3d948" x="108.893537" y="132.803485" style="fill: #1f77b4; stroke: #1f77b4"/>
     <use xlink:href="#m9bdbf3d948" x="140.969055" y="126.593544" style="fill: #1f77b4; stroke: #1f77b4"/>
     <use xlink:href="#m9bdbf3d948" x="173.044573" y="122.557217" style="fill: #1f77b4; stroke: #1f77b4"/>
     <use xlink:href="#m9bdbf3d948" x="205.120092" y="120.093645" style="fill: #1f77b4; stroke: #1f77b4"/>
     <use xlink:href="#m9bdbf3d948" x="237.19561" y="118.823664" style="fill: #1f77b4; stroke: #1f77b4"/>
    </g>
   </g>
   <g id="line2d_12">
    <path d="M 46.74722 159.276 
L 52.76138 154.527697 
L 60.780259 148.235073 
L 76.818018 135.649381 
L 108.893537 110.523379 
L 140.969055 86.842885 
L 173.044573 65.866072 
L 205.120092 51.702042 
L 237.19561 40.416969 
" clip-path="url(#p5385e959b6)" style="fill: none; stroke: #d62728; stroke-linecap: square"/>
    <defs>
     <path id="m01f32b2760" d="M -3 3 
L 3 3 
L 3 -3 
L -3 -3 
z
" style="stroke: #d62728; stroke-linejoin: miter"/>
    </defs>
    <g clip-path="url(#p5385e959b6)">
     <use xlink:href="#m01f32b2760" x="46.74722" y="159.276" style="fill: #d62728; stroke: #d62728; stroke-linejoin: miter"/>
     <use xlink:href="#m01f32b2760" x="52.76138" y="154.527697" style="fill: #d62728; stroke: #d62728; stroke-linejoin: miter"/>
     <use xlink:href="#m01f32b2760" x="60.780259" y="148.235073" style="fill: #d62728; stroke: #d62728; stroke-linejoin: miter"/>
     <use xlink:href="#m01f32b2760" x="76.818018" y="135.649381" style="fill: #d62728; stroke: #d62728; stroke-linejoin: miter"/>
     <use xlink:href="#m01f32b2760" x="108.893537" y="110.523379" style="fill: #d62728; stroke: #d62728; stroke-linejoin: miter"/>
     <use xlink:href="#m01f32b2760" x="140.969055" y="86.842885" style="fill: #d62728; stroke: #d62728; stroke-linejoin: miter"/>
     <use xlink:href="#m01f32b2760" x="173.044573" y="65.866072" style="fill: #d62728; stroke: #d62728; stroke-linejoin: miter"/>
     <use xlink:href="#m01f32b2760" x="205.120092" y="51.702042" style="fill: #d62728; stroke: #d62728; stroke-linejoin: miter"/>
     <use xlink:href="#m01f32b2760" x="237.19561" y="40.416969" style="fill: #d62728; stroke: #d62728; stroke-linejoin: miter"/>
    </g>
   </g>
   <g id="line2d_13">
    <path d="M 46.74722 159.276 
L 52.76138 154.715589 
L 60.780259 149.164131 
L 76.818018 139.42883 
L 108.893537 124.862974 
L 140.969055 116.032836 
L 173.044573 111.458488 
L 205.120092 108.046257 
L 237.19561 108.568188 
" clip-path="url(#p5385e959b6)" style="fill: none; stroke: #2ca02c; stroke-linecap: square"/>
    <defs>
     <path id="mb9250bb061" d="M -0 3 
L 3 -3 
L -3 -3 
z
" style="stroke: #2ca02c; stroke-linejoin: miter"/>
    </defs>
    <g clip-path="url(#p5385e959b6)">
     <use xlink:href="#mb9250bb061" x="46.74722" y="159.276" style="fill: #2ca02c; stroke: #2ca02c; stroke-linejoin: miter"/>
     <use xlink:href="#mb9250bb061" x="52.76138" y="154.715589" style="fill: #2ca02c; stroke: #2ca02c; stroke-linejoin: miter"/>
     <use xlink:href="#mb9250bb061" x="60.780259" y="149.164131" style="fill: #2ca02c; stroke: #2ca02c; stroke-linejoin: miter"/>
     <use xlink:href="#mb9250bb061" x="76.818018" y="139.42883" style="fill: #2ca02c; stroke: #2ca02c; stroke-linejoin: miter"/>
     <use xlink:href="#mb9250bb061" x="108.893537" y="124.862974" style="fill: #2ca02c; stroke: #2ca02c; stroke-linejoin: miter"/>
     <use xlink:href="#mb9250bb061" x="140.969055" y="116.032836" style="fill: #2ca02c; stroke: #2ca02c; stroke-linejoin: miter"/>
     <use xlink:href="#mb9250bb061" x="173.044573" y="111.458488" style="fill: #2ca02c; stroke: #2ca02c; stroke-linejoin: miter"/>
     <use xlink:href="#mb9250bb061" x="205.120092" y="108.046257" style="fill: #2ca02c; stroke: #2ca02c; stroke-linejoin: miter"/>
     <use xlink:href="#mb9250bb061" x="237.19561" y="108.568188" style="fill: #2ca02c; stroke: #2ca02c; stroke-linejoin: miter"/>
    </g>
   </g>
   <g id="patch_3">
    <path d="M 44.7425 160.8768 
L 44.7425 7.2 
" style="fill: none; stroke: #000000; stroke-width: 0.8; stroke-linejoin: miter; stroke-linecap: square"/>
   </g>
   <g id="patch_4">
    <path d="M 237.19561 160.8768 
L 237.19561 7.2 
" style="fill: none; stroke: #000000; stroke-width: 0.8; stroke-linejoin: miter; stroke-linecap: square"/>
   </g>
   <g id="patch_5">
    <path d="M 44.7425 160.8768 
L 237.19561 160.8768 
" style="fill: none; stroke: #000000; stroke-width: 0.8; stroke-linejoin: miter; stroke-linecap: square"/>
   </g>
   <g id="patch_6">
    <path d="M 44.7425 7.2 
L 237.19561 7.2 
" style="fill: none; stroke: #000000; stroke-width: 0.8; stroke-linejoin: miter; stroke-linecap: square"/>
   </g>
   <g id="legend_1">
    <g id="line2d_14">
     <path d="M 51.9425 17.67875 
L 59.9425 17.67875 
L 67.9425 17.67875 
" style="fill: none; stroke: #1f77b4; stroke-linecap: square"/>
     <g>
      <use xlink:href="#m9bdbf3d948" x="59.9425" y="17.67875" style="fill: #1f77b4; stroke: #1f77b4"/>
     </g>
    </g>
    <g id="text_11">
     <!-- Coordination number -->
     <g transform="translate(74.3425 20.47875) scale(0.08 -0.08)">
      <defs>
       <path id="DejaVuSans-43" d="M 4122 4306 
L 4122 3641 
Q 3803 3938 3442 4084 
Q 3081 4231 2675 4231 
Q 1875 4231 1450 3742 
Q 1025 3253 1025 2328 
Q 1025 1406 1450 917 
Q 1875 428 2675 428 
Q 3081 428 3442 575 
Q 3803 722 4122 1019 
L 4122 359 
Q 3791 134 3420 21 
Q 3050 -91 2638 -91 
Q 1578 -91 968 557 
Q 359 1206 359 2328 
Q 359 3453 968 4101 
Q 1578 4750 2638 4750 
Q 3056 4750 3426 4639 
Q 3797 4528 4122 4306 
z
" transform="scale(0.015625)"/>
       <path id="DejaVuSans-6f" d="M 1959 3097 
Q 1497 3097 1228 2736 
Q 959 2375 959 1747 
Q 959 1119 1226 758 
Q 1494 397 1959 397 
Q 2419 397 2687 759 
Q 2956 1122 2956 1747 
Q 2956 2369 2687 2733 
Q 2419 3097 1959 3097 
z
M 1959 3584 
Q 2709 3584 3137 3096 
Q 3566 2609 3566 1747 
Q 3566 888 3137 398 
Q 2709 -91 1959 -91 
Q 1206 -91 779 398 
Q 353 888 353 1747 
Q 353 2609 779 3096 
Q 1206 3584 1959 3584 
z
" transform="scale(0.015625)"/>
       <path id="DejaVuSans-72" d="M 2631 2963 
Q 2534 3019 2420 3045 
Q 2306 3072 2169 3072 
Q 1681 3072 1420 2755 
Q 1159 2438 1159 1844 
L 1159 0 
L 581 0 
L 581 3500 
L 1159 3500 
L 1159 2956 
Q 1341 3275 1631 3429 
Q 1922 3584 2338 3584 
Q 2397 3584 2469 3576 
Q 2541 3569 2628 3553 
L 2631 2963 
z
" transform="scale(0.015625)"/>
       <path id="DejaVuSans-6e" d="M 3513 2113 
L 3513 0 
L 2938 0 
L 2938 2094 
Q 2938 2591 2744 2837 
Q 2550 3084 2163 3084 
Q 1697 3084 1428 2787 
Q 1159 2491 1159 1978 
L 1159 0 
L 581 0 
L 581 3500 
L 1159 3500 
L 1159 2956 
Q 1366 3272 1645 3428 
Q 1925 3584 2291 3584 
Q 2894 3584 3203 3211 
Q 3513 2838 3513 2113 
z
" transform="scale(0.015625)"/>
       <path id="DejaVuSans-6d" d="M 3328 2828 
Q 3544 3216 3844 3400 
Q 4144 3584 4550 3584 
Q 5097 3584 5394 3201 
Q 5691 2819 5691 2113 
L 5691 0 
L 5113 0 
L 5113 2094 
Q 5113 2597 4934 2840 
Q 4756 3084 4391 3084 
Q 3944 3084 3684 2787 
Q 3425 2491 3425 1978 
L 3425 0 
L 2847 0 
L 2847 2094 
Q 2847 2600 2669 2842 
Q 2491 3084 2119 3084 
Q 1678 3084 1418 2786 
Q 1159 2488 1159 1978 
L 1159 0 
L 581 0 
L 581 3500 
L 1159 3500 
L 1159 2956 
Q 1356 3278 1631 3431 
Q 1906 3584 2284 3584 
Q 2666 3584 2933 3390 
Q 3200 3197 3328 2828 
z
" transform="scale(0.015625)"/>
       <path id="DejaVuSans-62" d="M 3116 1747 
Q 3116 2381 2855 2742 
Q 2594 3103 2138 3103 
Q 1681 3103 1420 2742 
Q 1159 2381 1159 1747 
Q 1159 1113 1420 752 
Q 1681 391 2138 391 
Q 2594 391 2855 752 
Q 3116 1113 3116 1747 
z
M 1159 2969 
Q 1341 3281 1617 3432 
Q 1894 3584 2278 3584 
Q 2916 3584 3314 3078 
Q 3713 2572 3713 1747 
Q 3713 922 3314 415 
Q 2916 -91 2278 -91 
Q 1894 -91 1617 61 
Q 1341 213 1159 525 
L 1159 0 
L 581 0 
L 581 4863 
L 1159 4863 
L 1159 2969 
z
" transform="scale(0.015625)"/>
      </defs>
      <use xlink:href="#DejaVuSans-43"/>
      <use xlink:href="#DejaVuSans-6f" transform="translate(69.824219 0)"/>
      <use xlink:href="#DejaVuSans-6f" transform="translate(131.005859 0)"/>
      <use xlink:href="#DejaVuSans-72" transform="translate(192.1875 0)"/>
      <use xlink:href="#DejaVuSans-64" transform="translate(231.550781 0)"/>
      <use xlink:href="#DejaVuSans-69" transform="translate(295.027344 0)"/>
      <use xlink:href="#DejaVuSans-6e" transform="translate(322.810547 0)"/>
      <use xlink:href="#DejaVuSans-61" transform="translate(386.189453 0)"/>
      <use xlink:href="#DejaVuSans-74" transform="translate(447.46875 0)"/>
      <use xlink:href="#DejaVuSans-69" transform="translate(486.677734 0)"/>
      <use xlink:href="#DejaVuSans-6f" transform="translate(514.460938 0)"/>
      <use xlink:href="#DejaVuSans-6e" transform="translate(575.642578 0)"/>
      <use xlink:href="#DejaVuSans-20" transform="translate(639.021484 0)"/>
      <use xlink:href="#DejaVuSans-6e" transform="translate(670.808594 0)"/>
      <use xlink:href="#DejaVuSans-75" transform="translate(734.1875 0)"/>
      <use xlink:href="#DejaVuSans-6d" transform="translate(797.566406 0)"/>
      <use xlink:href="#DejaVuSans-62" transform="translate(894.978516 0)"/>
      <use xlink:href="#DejaVuSans-65" transform="translate(958.455078 0)"/>
      <use xlink:href="#DejaVuSans-72" transform="translate(1019.978516 0)"/>
     </g>
    </g>
    <g id="line2d_15">
     <path d="M 51.9425 30.7025 
L 59.9425 30.7025 
L 67.9425 30.7025 
" style="fill: none; stroke: #d62728; stroke-linecap: square"/>
     <g>
      <use xlink:href="#m01f32b2760" x="59.9425" y="30.7025" style="fill: #d62728; stroke: #d62728; stroke-linejoin: miter"/>
     </g>
    </g>
    <g id="text_12">
     <!-- Bond order correlation ($q_4^\mathrm{dot}$) -->
     <g transform="translate(74.3425 33.5025) scale(0.08 -0.08)">
      <defs>
       <path id="DejaVuSans-42" d="M 1259 2228 
L 1259 519 
L 2272 519 
Q 2781 519 3026 730 
Q 3272 941 3272 1375 
Q 3272 1813 3026 2020 
Q 2781 2228 2272 2228 
L 1259 2228 
z
M 1259 4147 
L 1259 2741 
L 2194 2741 
Q 2656 2741 2882 2914 
Q 3109 3088 3109 3444 
Q 3109 3797 2882 3972 
Q 2656 4147 2194 4147 
L 1259 4147 
z
M 628 4666 
L 2241 4666 
Q 2963 4666 3353 4366 
Q 3744 4066 3744 3513 
Q 3744 3084 3544 2831 
Q 3344 2578 2956 2516 
Q 3422 2416 3680 2098 
Q 3938 1781 3938 1306 
Q 3938 681 3513 340 
Q 3088 0 2303 0 
L 628 0 
L 628 4666 
z
" transform="scale(0.015625)"/>
       <path id="DejaVuSans-63" d="M 3122 3366 
L 3122 2828 
Q 2878 2963 2633 3030 
Q 2388 3097 2138 3097 
Q 1578 3097 1268 2742 
Q 959 2388 959 1747 
Q 959 1106 1268 751 
Q 1578 397 2138 397 
Q 2388 397 2633 464 
Q 2878 531 3122 666 
L 3122 134 
Q 2881 22 2623 -34 
Q 2366 -91 2075 -91 
Q 1284 -91 818 406 
Q 353 903 353 1747 
Q 353 2603 823 3093 
Q 1294 3584 2113 3584 
Q 2378 3584 2631 3529 
Q 2884 3475 3122 3366 
z
" transform="scale(0.015625)"/>
       <path id="DejaVuSans-28" d="M 1984 4856 
Q 1566 4138 1362 3434 
Q 1159 2731 1159 2009 
Q 1159 1288 1364 580 
Q 1569 -128 1984 -844 
L 1484 -844 
Q 1016 -109 783 600 
Q 550 1309 550 2009 
Q 550 2706 781 3412 
Q 1013 4119 1484 4856 
L 1984 4856 
z
" transform="scale(0.015625)"/>
       <path id="DejaVuSans-Oblique-71" d="M 2669 525 
Q 2438 222 2123 65 
Q 1809 -91 1428 -91 
Q 897 -91 595 267 
Q 294 625 294 1253 
Q 294 1759 480 2231 
Q 666 2703 1013 3078 
Q 1238 3322 1530 3453 
Q 1822 3584 2144 3584 
Q 2531 3584 2781 3431 
Q 3031 3278 3144 2969 
L 3244 3494 
L 3822 3494 
L 2888 -1319 
L 2309 -1319 
L 2669 525 
z
M 891 1338 
Q 891 875 1084 633 
Q 1278 391 1644 391 
Q 2188 391 2572 911 
Q 2956 1431 2956 2175 
Q 2956 2625 2757 2864 
Q 2559 3103 2188 3103 
Q 1916 3103 1684 2976 
Q 1453 2850 1281 2606 
Q 1100 2350 995 2006 
Q 891 1663 891 1338 
z
" transform="scale(0.015625)"/>
       <path id="DejaVuSans-29" d="M 513 4856 
L 1013 4856 
Q 1481 4119 1714 3412 
Q 1947 2706 1947 2009 
Q 1947 1309 1714 600 
Q 1481 -109 1013 -844 
L 513 -844 
Q 928 -128 1133 580 
Q 1338 1288 1338 2009 
Q 1338 2731 1133 3434 
Q 928 4138 513 4856 
z
" transform="scale(0.015625)"/>
      </defs>
      <use xlink:href="#DejaVuSans-42" transform="translate(0 0.529687)"/>
      <use xlink:href="#DejaVuSans-6f" transform="translate(68.603516 0.529687)"/>
      <use xlink:href="#DejaVuSans-6e" transform="translate(129.785156 0.529687)"/>
      <use xlink:href="#DejaVuSans-64" transform="translate(193.164062 0.529687)"/>
      <use xlink:href="#DejaVuSans-20" transform="translate(256.640625 0.529687)"/>
      <use xlink:href="#DejaVuSans-6f" transform="translate(288.427734 0.529687)"/>
      <use xlink:href="#DejaVuSans-72" transform="translate(349.609375 0.529687)"/>
      <use xlink:href="#DejaVuSans-64" transform="translate(390.722656 0.529687)"/>
      <use xlink:href="#DejaVuSans-65" transform="translate(454.199219 0.529687)"/>
      <use xlink:href="#DejaVuSans-72" transform="translate(515.722656 0.529687)"/>
      <use xlink:href="#DejaVuSans-20" transform="translate(556.835938 0.529687)"/>
      <use xlink:href="#DejaVuSans-63" transform="translate(588.623047 0.529687)"/>
      <use xlink:href="#DejaVuSans-6f" transform="translate(643.603516 0.529687)"/>
      <use xlink:href="#DejaVuSans-72" transform="translate(704.785156 0.529687)"/>
      <use xlink:href="#DejaVuSans-72" transform="translate(745.898438 0.529687)"/>
      <use xlink:href="#DejaVuSans-65" transform="translate(787.011719 0.529687)"/>
      <use xlink:href="#DejaVuSans-6c" transform="translate(848.535156 0.529687)"/>
      <use xlink:href="#DejaVuSans-61" transform="translate(876.318359 0.529687)"/>
      <use xlink:href="#DejaVuSans-74" transform="translate(937.597656 0.529687)"/>
      <use xlink:href="#DejaVuSans-69" transform="translate(976.806641 0.529687)"/>
      <use xlink:href="#DejaVuSans-6f" transform="translate(1004.589844 0.529687)"/>
      <use xlink:href="#DejaVuSans-6e" transform="translate(1065.771484 0.529687)"/>
      <use xlink:href="#DejaVuSans-20" transform="translate(1129.150391 0.529687)"/>
      <use xlink:href="#DejaVuSans-28" transform="translate(1160.9375 0.529687)"/>
      <use xlink:href="#DejaVuSans-Oblique-71" transform="translate(1199.951172 0.529687)"/>
      <use xlink:href="#DejaVuSans-64" transform="translate(1268.07763 38.810938) scale(0.7)"/>
      <use xlink:href="#DejaVuSans-6f" transform="translate(1312.511224 38.810938) scale(0.7)"/>
      <use xlink:href="#DejaVuSans-74" transform="translate(1355.338372 38.810938) scale(0.7)"/>
      <use xlink:href="#DejaVuSans-34" transform="translate(1263.427734 -26.814063) scale(0.7)"/>
      <use xlink:href="#DejaVuSans-29" transform="translate(1385.519036 0.529687)"/>
     </g>
    </g>
    <g id="line2d_16">
     <path d="M 51.9425 48.33225 
L 59.9425 48.33225 
L 67.9425 48.33225 
" style="fill: none; stroke: #2ca02c; stroke-linecap: square"/>
     <g>
      <use xlink:href="#mb9250bb061" x="59.9425" y="48.33225" style="fill: #2ca02c; stroke: #2ca02c; stroke-linejoin: miter"/>
     </g>
    </g>
    <g id="text_13">
     <!-- Incoherent intermediate -->
     <g transform="translate(74.3425 45.82125) scale(0.08 -0.08)">
      <defs>
       <path id="DejaVuSans-49" d="M 628 4666 
L 1259 4666 
L 1259 0 
L 628 0 
L 628 4666 
z
" transform="scale(0.015625)"/>
       <path id="DejaVuSans-68" d="M 3513 2113 
L 3513 0 
L 2938 0 
L 2938 2094 
Q 2938 2591 2744 2837 
Q 2550 3084 2163 3084 
Q 1697 3084 1428 2787 
Q 1159 2491 1159 1978 
L 1159 0 
L 581 0 
L 581 4863 
L 1159 4863 
L 1159 2956 
Q 1366 3272 1645 3428 
Q 1925 3584 2291 3584 
Q 2894 3584 3203 3211 
Q 3513 2838 3513 2113 
z
" transform="scale(0.015625)"/>
      </defs>
      <use xlink:href="#DejaVuSans-49"/>
      <use xlink:href="#DejaVuSans-6e" transform="translate(29.492188 0)"/>
      <use xlink:href="#DejaVuSans-63" transform="translate(92.871094 0)"/>
      <use xlink:href="#DejaVuSans-6f" transform="translate(147.851562 0)"/>
      <use xlink:href="#DejaVuSans-68" transform="translate(209.033203 0)"/>
      <use xlink:href="#DejaVuSans-65" transform="translate(272.412109 0)"/>
      <use xlink:href="#DejaVuSans-72" transform="translate(333.935547 0)"/>
      <use xlink:href="#DejaVuSans-65" transform="translate(372.798828 0)"/>
      <use xlink:href="#DejaVuSans-6e" transform="translate(434.322266 0)"/>
      <use xlink:href="#DejaVuSans-74" transform="translate(497.701172 0)"/>
      <use xlink:href="#DejaVuSans-20" transform="translate(536.910156 0)"/>
      <use xlink:href="#DejaVuSans-69" transform="translate(568.697266 0)"/>
      <use xlink:href="#DejaVuSans-6e" transform="translate(596.480469 0)"/>
      <use xlink:href="#DejaVuSans-74" transform="translate(659.859375 0)"/>
      <use xlink:href="#DejaVuSans-65" transform="translate(699.068359 0)"/>
      <use xlink:href="#DejaVuSans-72" transform="translate(760.591797 0)"/>
      <use xlink:href="#DejaVuSans-6d" transform="translate(799.955078 0)"/>
      <use xlink:href="#DejaVuSans-65" transform="translate(897.367188 0)"/>
      <use xlink:href="#DejaVuSans-64" transform="translate(958.890625 0)"/>
      <use xlink:href="#DejaVuSans-69" transform="translate(1022.367188 0)"/>
      <use xlink:href="#DejaVuSans-61" transform="translate(1050.150391 0)"/>
      <use xlink:href="#DejaVuSans-74" transform="translate(1111.429688 0)"/>
      <use xlink:href="#DejaVuSans-65" transform="translate(1150.638672 0)"/>
     </g>
     <!-- scattering function -->
     <g transform="translate(74.3425 54.7795) scale(0.08 -0.08)">
      <defs>
       <path id="DejaVuSans-67" d="M 2906 1791 
Q 2906 2416 2648 2759 
Q 2391 3103 1925 3103 
Q 1463 3103 1205 2759 
Q 947 2416 947 1791 
Q 947 1169 1205 825 
Q 1463 481 1925 481 
Q 2391 481 2648 825 
Q 2906 1169 2906 1791 
z
M 3481 434 
Q 3481 -459 3084 -895 
Q 2688 -1331 1869 -1331 
Q 1566 -1331 1297 -1286 
Q 1028 -1241 775 -1147 
L 775 -588 
Q 1028 -725 1275 -790 
Q 1522 -856 1778 -856 
Q 2344 -856 2625 -561 
Q 2906 -266 2906 331 
L 2906 616 
Q 2728 306 2450 153 
Q 2172 0 1784 0 
Q 1141 0 747 490 
Q 353 981 353 1791 
Q 353 2603 747 3093 
Q 1141 3584 1784 3584 
Q 2172 3584 2450 3431 
Q 2728 3278 2906 2969 
L 2906 3500 
L 3481 3500 
L 3481 434 
z
" transform="scale(0.015625)"/>
       <path id="DejaVuSans-66" d="M 2375 4863 
L 2375 4384 
L 1825 4384 
Q 1516 4384 1395 4259 
Q 1275 4134 1275 3809 
L 1275 3500 
L 2222 3500 
L 2222 3053 
L 1275 3053 
L 1275 0 
L 697 0 
L 697 3053 
L 147 3053 
L 147 3500 
L 697 3500 
L 697 3744 
Q 697 4328 969 4595 
Q 1241 4863 1831 4863 
L 2375 4863 
z
" transform="scale(0.015625)"/>
      </defs>
      <use xlink:href="#DejaVuSans-73"/>
      <use xlink:href="#DejaVuSans-63" transform="translate(52.099609 0)"/>
      <use xlink:href="#DejaVuSans-61" transform="translate(107.080078 0)"/>
      <use xlink:href="#DejaVuSans-74" transform="translate(168.359375 0)"/>
      <use xlink:href="#DejaVuSans-74" transform="translate(207.568359 0)"/>
      <use xlink:href="#DejaVuSans-65" transform="translate(246.777344 0)"/>
      <use xlink:href="#DejaVuSans-72" transform="translate(308.300781 0)"/>
      <use xlink:href="#DejaVuSans-69" transform="translate(349.414062 0)"/>
      <use xlink:href="#DejaVuSans-6e" transform="translate(377.197266 0)"/>
      <use xlink:href="#DejaVuSans-67" transform="translate(440.576172 0)"/>
      <use xlink:href="#DejaVuSans-20" transform="translate(504.052734 0)"/>
      <use xlink:href="#DejaVuSans-66" transform="translate(535.839844 0)"/>
      <use xlink:href="#DejaVuSans-75" transform="translate(571.044922 0)"/>
      <use xlink:href="#DejaVuSans-6e" transform="translate(634.423828 0)"/>
      <use xlink:href="#DejaVuSans-63" transform="translate(697.802734 0)"/>
      <use xlink:href="#DejaVuSans-74" transform="translate(752.783203 0)"/>
      <use xlink:href="#DejaVuSans-69" transform="translate(791.992188 0)"/>
      <use xlink:href="#DejaVuSans-6f" transform="translate(819.775391 0)"/>
      <use xlink:href="#DejaVuSans-6e" transform="translate(880.957031 0)"/>
     </g>
    </g>
   </g>
  </g>
  <g id="axes_2">
   <g id="patch_7">
    <path d="M 44.7425 286.168 
L 237.19561 286.168 
L 237.19561 183.7168 
L 44.7425 183.7168 
z
" style="fill: #ffffff"/>
   </g>
   <g id="matplotlib.axis_3">
    <g id="xtick_5">
     <g id="line2d_17">
      <g>
       <use xlink:href="#m09d5ea94b4" x="53.490369" y="286.168" style="stroke: #000000; stroke-width: 0.8"/>
      </g>
     </g>
     <g id="text_14">
      <!-- $\mathdefault{10^{0}}$ -->
      <g transform="translate(46.450369 299.24675) scale(0.08 -0.08)">
       <defs>
        <path id="DejaVuSans-31" d="M 794 531 
L 1825 531 
L 1825 4091 
L 703 3866 
L 703 4441 
L 1819 4666 
L 2450 4666 
L 2450 531 
L 3481 531 
L 3481 0 
L 794 0 
L 794 531 
z
" transform="scale(0.015625)"/>
       </defs>
       <use xlink:href="#DejaVuSans-31" transform="translate(0 0.765625)"/>
       <use xlink:href="#DejaVuSans-30" transform="translate(63.623047 0.765625)"/>
       <use xlink:href="#DejaVuSans-30" transform="translate(128.203125 39.046875) scale(0.7)"/>
      </g>
     </g>
    </g>
    <g id="xtick_6">
     <g id="line2d_18">
      <g>
       <use xlink:href="#m09d5ea94b4" x="141.751435" y="286.168" style="stroke: #000000; stroke-width: 0.8"/>
      </g>
     </g>
     <g id="text_15">
      <!-- $\mathdefault{10^{1}}$ -->
      <g transform="translate(134.711435 299.24675) scale(0.08 -0.08)">
       <use xlink:href="#DejaVuSans-31" transform="translate(0 0.684375)"/>
       <use xlink:href="#DejaVuSans-30" transform="translate(63.623047 0.684375)"/>
       <use xlink:href="#DejaVuSans-31" transform="translate(128.203125 38.965625) scale(0.7)"/>
      </g>
     </g>
    </g>
    <g id="xtick_7">
     <g id="line2d_19">
      <g>
       <use xlink:href="#m09d5ea94b4" x="230.012501" y="286.168" style="stroke: #000000; stroke-width: 0.8"/>
      </g>
     </g>
     <g id="text_16">
      <!-- $\mathdefault{10^{2}}$ -->
      <g transform="translate(222.972501 299.24675) scale(0.08 -0.08)">
       <use xlink:href="#DejaVuSans-31" transform="translate(0 0.765625)"/>
       <use xlink:href="#DejaVuSans-30" transform="translate(63.623047 0.765625)"/>
       <use xlink:href="#DejaVuSans-32" transform="translate(128.203125 39.046875) scale(0.7)"/>
      </g>
     </g>
    </g>
    <g id="xtick_8">
     <g id="line2d_20">
      <defs>
       <path id="mb7e021c10c" d="M 0 0 
L 0 2 
" style="stroke: #000000; stroke-width: 0.6"/>
      </defs>
      <g>
       <use xlink:href="#mb7e021c10c" x="44.936988" y="286.168" style="stroke: #000000; stroke-width: 0.6"/>
      </g>
     </g>
    </g>
    <g id="xtick_9">
     <g id="line2d_21">
      <g>
       <use xlink:href="#mb7e021c10c" x="49.451764" y="286.168" style="stroke: #000000; stroke-width: 0.6"/>
      </g>
     </g>
    </g>
    <g id="xtick_10">
     <g id="line2d_22">
      <g>
       <use xlink:href="#mb7e021c10c" x="80.059597" y="286.168" style="stroke: #000000; stroke-width: 0.6"/>
      </g>
     </g>
    </g>
    <g id="xtick_11">
     <g id="line2d_23">
      <g>
       <use xlink:href="#mb7e021c10c" x="95.601599" y="286.168" style="stroke: #000000; stroke-width: 0.6"/>
      </g>
     </g>
    </g>
    <g id="xtick_12">
     <g id="line2d_24">
      <g>
       <use xlink:href="#mb7e021c10c" x="106.628825" y="286.168" style="stroke: #000000; stroke-width: 0.6"/>
      </g>
     </g>
    </g>
    <g id="xtick_13">
     <g id="line2d_25">
      <g>
       <use xlink:href="#mb7e021c10c" x="115.182207" y="286.168" style="stroke: #000000; stroke-width: 0.6"/>
      </g>
     </g>
    </g>
    <g id="xtick_14">
     <g id="line2d_26">
      <g>
       <use xlink:href="#mb7e021c10c" x="122.170828" y="286.168" style="stroke: #000000; stroke-width: 0.6"/>
      </g>
     </g>
    </g>
    <g id="xtick_15">
     <g id="line2d_27">
      <g>
       <use xlink:href="#mb7e021c10c" x="128.079623" y="286.168" style="stroke: #000000; stroke-width: 0.6"/>
      </g>
     </g>
    </g>
    <g id="xtick_16">
     <g id="line2d_28">
      <g>
       <use xlink:href="#mb7e021c10c" x="133.198054" y="286.168" style="stroke: #000000; stroke-width: 0.6"/>
      </g>
     </g>
    </g>
    <g id="xtick_17">
     <g id="line2d_29">
      <g>
       <use xlink:href="#mb7e021c10c" x="137.71283" y="286.168" style="stroke: #000000; stroke-width: 0.6"/>
      </g>
     </g>
    </g>
    <g id="xtick_18">
     <g id="line2d_30">
      <g>
       <use xlink:href="#mb7e021c10c" x="168.320663" y="286.168" style="stroke: #000000; stroke-width: 0.6"/>
      </g>
     </g>
    </g>
    <g id="xtick_19">
     <g id="line2d_31">
      <g>
       <use xlink:href="#mb7e021c10c" x="183.862666" y="286.168" style="stroke: #000000; stroke-width: 0.6"/>
      </g>
     </g>
    </g>
    <g id="xtick_20">
     <g id="line2d_32">
      <g>
       <use xlink:href="#mb7e021c10c" x="194.889892" y="286.168" style="stroke: #000000; stroke-width: 0.6"/>
      </g>
     </g>
    </g>
    <g id="xtick_21">
     <g id="line2d_33">
      <g>
       <use xlink:href="#mb7e021c10c" x="203.443273" y="286.168" style="stroke: #000000; stroke-width: 0.6"/>
      </g>
     </g>
    </g>
    <g id="xtick_22">
     <g id="line2d_34">
      <g>
       <use xlink:href="#mb7e021c10c" x="210.431894" y="286.168" style="stroke: #000000; stroke-width: 0.6"/>
      </g>
     </g>
    </g>
    <g id="xtick_23">
     <g id="line2d_35">
      <g>
       <use xlink:href="#mb7e021c10c" x="216.340689" y="286.168" style="stroke: #000000; stroke-width: 0.6"/>
      </g>
     </g>
    </g>
    <g id="xtick_24">
     <g id="line2d_36">
      <g>
       <use xlink:href="#mb7e021c10c" x="221.45912" y="286.168" style="stroke: #000000; stroke-width: 0.6"/>
      </g>
     </g>
    </g>
    <g id="xtick_25">
     <g id="line2d_37">
      <g>
       <use xlink:href="#mb7e021c10c" x="225.973896" y="286.168" style="stroke: #000000; stroke-width: 0.6"/>
      </g>
     </g>
    </g>
    <g id="text_17">
     <!-- Number of threads -->
     <g transform="translate(103.309055 310.98925) scale(0.08 -0.08)">
      <defs>
       <path id="DejaVuSans-4e" d="M 628 4666 
L 1478 4666 
L 3547 763 
L 3547 4666 
L 4159 4666 
L 4159 0 
L 3309 0 
L 1241 3903 
L 1241 0 
L 628 0 
L 628 4666 
z
" transform="scale(0.015625)"/>
      </defs>
      <use xlink:href="#DejaVuSans-4e"/>
      <use xlink:href="#DejaVuSans-75" transform="translate(74.804688 0)"/>
      <use xlink:href="#DejaVuSans-6d" transform="translate(138.183594 0)"/>
      <use xlink:href="#DejaVuSans-62" transform="translate(235.595703 0)"/>
      <use xlink:href="#DejaVuSans-65" transform="translate(299.072266 0)"/>
      <use xlink:href="#DejaVuSans-72" transform="translate(360.595703 0)"/>
      <use xlink:href="#DejaVuSans-20" transform="translate(401.708984 0)"/>
      <use xlink:href="#DejaVuSans-6f" transform="translate(433.496094 0)"/>
      <use xlink:href="#DejaVuSans-66" transform="translate(494.677734 0)"/>
      <use xlink:href="#DejaVuSans-20" transform="translate(529.882812 0)"/>
      <use xlink:href="#DejaVuSans-74" transform="translate(561.669922 0)"/>
      <use xlink:href="#DejaVuSans-68" transform="translate(600.878906 0)"/>
      <use xlink:href="#DejaVuSans-72" transform="translate(664.257812 0)"/>
      <use xlink:href="#DejaVuSans-65" transform="translate(703.121094 0)"/>
      <use xlink:href="#DejaVuSans-61" transform="translate(764.644531 0)"/>
      <use xlink:href="#DejaVuSans-64" transform="translate(825.923828 0)"/>
      <use xlink:href="#DejaVuSans-73" transform="translate(889.400391 0)"/>
     </g>
    </g>
   </g>
   <g id="matplotlib.axis_4">
    <g id="ytick_6">
     <g id="line2d_38">
      <g>
       <use xlink:href="#mceee23a0d7" x="44.7425" y="268.265421" style="stroke: #000000; stroke-width: 0.8"/>
      </g>
     </g>
     <g id="text_18">
      <!-- $\mathdefault{10^{-1}}$ -->
      <g transform="translate(18.9425 271.304796) scale(0.08 -0.08)">
       <defs>
        <path id="DejaVuSans-2212" d="M 678 2272 
L 4684 2272 
L 4684 1741 
L 678 1741 
L 678 2272 
z
" transform="scale(0.015625)"/>
       </defs>
       <use xlink:href="#DejaVuSans-31" transform="translate(0 0.684375)"/>
       <use xlink:href="#DejaVuSans-30" transform="translate(63.623047 0.684375)"/>
       <use xlink:href="#DejaVuSans-2212" transform="translate(128.203125 38.965625) scale(0.7)"/>
       <use xlink:href="#DejaVuSans-31" transform="translate(186.855469 38.965625) scale(0.7)"/>
      </g>
     </g>
    </g>
    <g id="ytick_7">
     <g id="line2d_39">
      <g>
       <use xlink:href="#mceee23a0d7" x="44.7425" y="242.652621" style="stroke: #000000; stroke-width: 0.8"/>
      </g>
     </g>
     <g id="text_19">
      <!-- $\mathdefault{10^{0}}$ -->
      <g transform="translate(23.6625 245.691996) scale(0.08 -0.08)">
       <use xlink:href="#DejaVuSans-31" transform="translate(0 0.765625)"/>
       <use xlink:href="#DejaVuSans-30" transform="translate(63.623047 0.765625)"/>
       <use xlink:href="#DejaVuSans-30" transform="translate(128.203125 39.046875) scale(0.7)"/>
      </g>
     </g>
    </g>
    <g id="ytick_8">
     <g id="line2d_40">
      <g>
       <use xlink:href="#mceee23a0d7" x="44.7425" y="217.039821" style="stroke: #000000; stroke-width: 0.8"/>
      </g>
     </g>
     <g id="text_20">
      <!-- $\mathdefault{10^{1}}$ -->
      <g transform="translate(23.6625 220.079196) scale(0.08 -0.08)">
       <use xlink:href="#DejaVuSans-31" transform="translate(0 0.684375)"/>
       <use xlink:href="#DejaVuSans-30" transform="translate(63.623047 0.684375)"/>
       <use xlink:href="#DejaVuSans-31" transform="translate(128.203125 38.965625) scale(0.7)"/>
      </g>
     </g>
    </g>
    <g id="ytick_9">
     <g id="line2d_41">
      <g>
       <use xlink:href="#mceee23a0d7" x="44.7425" y="191.427021" style="stroke: #000000; stroke-width: 0.8"/>
      </g>
     </g>
     <g id="text_21">
      <!-- $\mathdefault{10^{2}}$ -->
      <g transform="translate(23.6625 194.466396) scale(0.08 -0.08)">
       <use xlink:href="#DejaVuSans-31" transform="translate(0 0.765625)"/>
       <use xlink:href="#DejaVuSans-30" transform="translate(63.623047 0.765625)"/>
       <use xlink:href="#DejaVuSans-32" transform="translate(128.203125 39.046875) scale(0.7)"/>
      </g>
     </g>
    </g>
    <g id="ytick_10">
     <g id="line2d_42">
      <defs>
       <path id="me8ba59b0b7" d="M 0 0 
L -2 0 
" style="stroke: #000000; stroke-width: 0.6"/>
      </defs>
      <g>
       <use xlink:href="#me8ba59b0b7" x="44.7425" y="286.168" style="stroke: #000000; stroke-width: 0.6"/>
      </g>
     </g>
    </g>
    <g id="ytick_11">
     <g id="line2d_43">
      <g>
       <use xlink:href="#me8ba59b0b7" x="44.7425" y="281.65781" style="stroke: #000000; stroke-width: 0.6"/>
      </g>
     </g>
    </g>
    <g id="ytick_12">
     <g id="line2d_44">
      <g>
       <use xlink:href="#me8ba59b0b7" x="44.7425" y="278.457779" style="stroke: #000000; stroke-width: 0.6"/>
      </g>
     </g>
    </g>
    <g id="ytick_13">
     <g id="line2d_45">
      <g>
       <use xlink:href="#me8ba59b0b7" x="44.7425" y="275.975642" style="stroke: #000000; stroke-width: 0.6"/>
      </g>
     </g>
    </g>
    <g id="ytick_14">
     <g id="line2d_46">
      <g>
       <use xlink:href="#me8ba59b0b7" x="44.7425" y="273.947589" style="stroke: #000000; stroke-width: 0.6"/>
      </g>
     </g>
    </g>
    <g id="ytick_15">
     <g id="line2d_47">
      <g>
       <use xlink:href="#me8ba59b0b7" x="44.7425" y="272.232894" style="stroke: #000000; stroke-width: 0.6"/>
      </g>
     </g>
    </g>
    <g id="ytick_16">
     <g id="line2d_48">
      <g>
       <use xlink:href="#me8ba59b0b7" x="44.7425" y="270.747558" style="stroke: #000000; stroke-width: 0.6"/>
      </g>
     </g>
    </g>
    <g id="ytick_17">
     <g id="line2d_49">
      <g>
       <use xlink:href="#me8ba59b0b7" x="44.7425" y="269.437399" style="stroke: #000000; stroke-width: 0.6"/>
      </g>
     </g>
    </g>
    <g id="ytick_18">
     <g id="line2d_50">
      <g>
       <use xlink:href="#me8ba59b0b7" x="44.7425" y="260.5552" style="stroke: #000000; stroke-width: 0.6"/>
      </g>
     </g>
    </g>
    <g id="ytick_19">
     <g id="line2d_51">
      <g>
       <use xlink:href="#me8ba59b0b7" x="44.7425" y="256.04501" style="stroke: #000000; stroke-width: 0.6"/>
      </g>
     </g>
    </g>
    <g id="ytick_20">
     <g id="line2d_52">
      <g>
       <use xlink:href="#me8ba59b0b7" x="44.7425" y="252.844979" style="stroke: #000000; stroke-width: 0.6"/>
      </g>
     </g>
    </g>
    <g id="ytick_21">
     <g id="line2d_53">
      <g>
       <use xlink:href="#me8ba59b0b7" x="44.7425" y="250.362842" style="stroke: #000000; stroke-width: 0.6"/>
      </g>
     </g>
    </g>
    <g id="ytick_22">
     <g id="line2d_54">
      <g>
       <use xlink:href="#me8ba59b0b7" x="44.7425" y="248.334789" style="stroke: #000000; stroke-width: 0.6"/>
      </g>
     </g>
    </g>
    <g id="ytick_23">
     <g id="line2d_55">
      <g>
       <use xlink:href="#me8ba59b0b7" x="44.7425" y="246.620094" style="stroke: #000000; stroke-width: 0.6"/>
      </g>
     </g>
    </g>
    <g id="ytick_24">
     <g id="line2d_56">
      <g>
       <use xlink:href="#me8ba59b0b7" x="44.7425" y="245.134758" style="stroke: #000000; stroke-width: 0.6"/>
      </g>
     </g>
    </g>
    <g id="ytick_25">
     <g id="line2d_57">
      <g>
       <use xlink:href="#me8ba59b0b7" x="44.7425" y="243.824599" style="stroke: #000000; stroke-width: 0.6"/>
      </g>
     </g>
    </g>
    <g id="ytick_26">
     <g id="line2d_58">
      <g>
       <use xlink:href="#me8ba59b0b7" x="44.7425" y="234.9424" style="stroke: #000000; stroke-width: 0.6"/>
      </g>
     </g>
    </g>
    <g id="ytick_27">
     <g id="line2d_59">
      <g>
       <use xlink:href="#me8ba59b0b7" x="44.7425" y="230.43221" style="stroke: #000000; stroke-width: 0.6"/>
      </g>
     </g>
    </g>
    <g id="ytick_28">
     <g id="line2d_60">
      <g>
       <use xlink:href="#me8ba59b0b7" x="44.7425" y="227.232179" style="stroke: #000000; stroke-width: 0.6"/>
      </g>
     </g>
    </g>
    <g id="ytick_29">
     <g id="line2d_61">
      <g>
       <use xlink:href="#me8ba59b0b7" x="44.7425" y="224.750042" style="stroke: #000000; stroke-width: 0.6"/>
      </g>
     </g>
    </g>
    <g id="ytick_30">
     <g id="line2d_62">
      <g>
       <use xlink:href="#me8ba59b0b7" x="44.7425" y="222.721989" style="stroke: #000000; stroke-width: 0.6"/>
      </g>
     </g>
    </g>
    <g id="ytick_31">
     <g id="line2d_63">
      <g>
       <use xlink:href="#me8ba59b0b7" x="44.7425" y="221.007294" style="stroke: #000000; stroke-width: 0.6"/>
      </g>
     </g>
    </g>
    <g id="ytick_32">
     <g id="line2d_64">
      <g>
       <use xlink:href="#me8ba59b0b7" x="44.7425" y="219.521958" style="stroke: #000000; stroke-width: 0.6"/>
      </g>
     </g>
    </g>
    <g id="ytick_33">
     <g id="line2d_65">
      <g>
       <use xlink:href="#me8ba59b0b7" x="44.7425" y="218.211799" style="stroke: #000000; stroke-width: 0.6"/>
      </g>
     </g>
    </g>
    <g id="ytick_34">
     <g id="line2d_66">
      <g>
       <use xlink:href="#me8ba59b0b7" x="44.7425" y="209.3296" style="stroke: #000000; stroke-width: 0.6"/>
      </g>
     </g>
    </g>
    <g id="ytick_35">
     <g id="line2d_67">
      <g>
       <use xlink:href="#me8ba59b0b7" x="44.7425" y="204.81941" style="stroke: #000000; stroke-width: 0.6"/>
      </g>
     </g>
    </g>
    <g id="ytick_36">
     <g id="line2d_68">
      <g>
       <use xlink:href="#me8ba59b0b7" x="44.7425" y="201.619379" style="stroke: #000000; stroke-width: 0.6"/>
      </g>
     </g>
    </g>
    <g id="ytick_37">
     <g id="line2d_69">
      <g>
       <use xlink:href="#me8ba59b0b7" x="44.7425" y="199.137242" style="stroke: #000000; stroke-width: 0.6"/>
      </g>
     </g>
    </g>
    <g id="ytick_38">
     <g id="line2d_70">
      <g>
       <use xlink:href="#me8ba59b0b7" x="44.7425" y="197.109189" style="stroke: #000000; stroke-width: 0.6"/>
      </g>
     </g>
    </g>
    <g id="ytick_39">
     <g id="line2d_71">
      <g>
       <use xlink:href="#me8ba59b0b7" x="44.7425" y="195.394494" style="stroke: #000000; stroke-width: 0.6"/>
      </g>
     </g>
    </g>
    <g id="ytick_40">
     <g id="line2d_72">
      <g>
       <use xlink:href="#me8ba59b0b7" x="44.7425" y="193.909158" style="stroke: #000000; stroke-width: 0.6"/>
      </g>
     </g>
    </g>
    <g id="ytick_41">
     <g id="line2d_73">
      <g>
       <use xlink:href="#me8ba59b0b7" x="44.7425" y="192.598999" style="stroke: #000000; stroke-width: 0.6"/>
      </g>
     </g>
    </g>
    <g id="ytick_42">
     <g id="line2d_74">
      <g>
       <use xlink:href="#me8ba59b0b7" x="44.7425" y="183.7168" style="stroke: #000000; stroke-width: 0.6"/>
      </g>
     </g>
    </g>
    <g id="text_22">
     <!-- Time (s) -->
     <g transform="translate(13.27875 251.205525) rotate(-90) scale(0.08 -0.08)">
      <defs>
       <path id="DejaVuSans-54" d="M -19 4666 
L 3928 4666 
L 3928 4134 
L 2272 4134 
L 2272 0 
L 1638 0 
L 1638 4134 
L -19 4134 
L -19 4666 
z
" transform="scale(0.015625)"/>
      </defs>
      <use xlink:href="#DejaVuSans-54"/>
      <use xlink:href="#DejaVuSans-69" transform="translate(57.958984 0)"/>
      <use xlink:href="#DejaVuSans-6d" transform="translate(85.742188 0)"/>
      <use xlink:href="#DejaVuSans-65" transform="translate(183.154297 0)"/>
      <use xlink:href="#DejaVuSans-20" transform="translate(244.677734 0)"/>
      <use xlink:href="#DejaVuSans-28" transform="translate(276.464844 0)"/>
      <use xlink:href="#DejaVuSans-73" transform="translate(315.478516 0)"/>
      <use xlink:href="#DejaVuSans-29" transform="translate(367.578125 0)"/>
     </g>
    </g>
   </g>
   <g id="line2d_75">
    <path d="M 53.490369 229.129195 
L 106.628825 243.439583 
L 133.198054 249.983663 
L 159.767282 255.971859 
L 186.336511 260.990407 
L 201.878513 263.2133 
L 212.905739 264.45139 
L 221.45912 265.144473 
L 228.447741 265.485573 
" clip-path="url(#p2a9efbe148)" style="fill: none; stroke: #1f77b4; stroke-linecap: square"/>
    <g clip-path="url(#p2a9efbe148)">
     <use xlink:href="#m9bdbf3d948" x="53.490369" y="229.129195" style="fill: #1f77b4; stroke: #1f77b4"/>
     <use xlink:href="#m9bdbf3d948" x="106.628825" y="243.439583" style="fill: #1f77b4; stroke: #1f77b4"/>
     <use xlink:href="#m9bdbf3d948" x="133.198054" y="249.983663" style="fill: #1f77b4; stroke: #1f77b4"/>
     <use xlink:href="#m9bdbf3d948" x="159.767282" y="255.971859" style="fill: #1f77b4; stroke: #1f77b4"/>
     <use xlink:href="#m9bdbf3d948" x="186.336511" y="260.990407" style="fill: #1f77b4; stroke: #1f77b4"/>
     <use xlink:href="#m9bdbf3d948" x="201.878513" y="263.2133" style="fill: #1f77b4; stroke: #1f77b4"/>
     <use xlink:href="#m9bdbf3d948" x="212.905739" y="264.45139" style="fill: #1f77b4; stroke: #1f77b4"/>
     <use xlink:href="#m9bdbf3d948" x="221.45912" y="265.144473" style="fill: #1f77b4; stroke: #1f77b4"/>
     <use xlink:href="#m9bdbf3d948" x="228.447741" y="265.485573" style="fill: #1f77b4; stroke: #1f77b4"/>
    </g>
   </g>
   <g id="line2d_76">
    <path d="M 53.490369 214.344725 
L 106.628825 229.670793 
L 133.198054 237.331428 
L 159.767282 245.016969 
L 186.336511 252.704809 
L 201.878513 256.992436 
L 212.905739 259.767376 
L 221.45912 261.313098 
L 228.447741 262.407277 
" clip-path="url(#p2a9efbe148)" style="fill: none; stroke: #d62728; stroke-linecap: square"/>
    <g clip-path="url(#p2a9efbe148)">
     <use xlink:href="#m01f32b2760" x="53.490369" y="214.344725" style="fill: #d62728; stroke: #d62728; stroke-linejoin: miter"/>
     <use xlink:href="#m01f32b2760" x="106.628825" y="229.670793" style="fill: #d62728; stroke: #d62728; stroke-linejoin: miter"/>
     <use xlink:href="#m01f32b2760" x="133.198054" y="237.331428" style="fill: #d62728; stroke: #d62728; stroke-linejoin: miter"/>
     <use xlink:href="#m01f32b2760" x="159.767282" y="245.016969" style="fill: #d62728; stroke: #d62728; stroke-linejoin: miter"/>
     <use xlink:href="#m01f32b2760" x="186.336511" y="252.704809" style="fill: #d62728; stroke: #d62728; stroke-linejoin: miter"/>
     <use xlink:href="#m01f32b2760" x="201.878513" y="256.992436" style="fill: #d62728; stroke: #d62728; stroke-linejoin: miter"/>
     <use xlink:href="#m01f32b2760" x="212.905739" y="259.767376" style="fill: #d62728; stroke: #d62728; stroke-linejoin: miter"/>
     <use xlink:href="#m01f32b2760" x="221.45912" y="261.313098" style="fill: #d62728; stroke: #d62728; stroke-linejoin: miter"/>
     <use xlink:href="#m01f32b2760" x="228.447741" y="262.407277" style="fill: #d62728; stroke: #d62728; stroke-linejoin: miter"/>
    </g>
   </g>
   <g id="line2d_77">
    <path d="M 53.490369 188.828246 
L 106.628825 203.82016 
L 133.198054 210.96587 
L 159.767282 217.695129 
L 186.336511 223.460137 
L 201.878513 225.899365 
L 212.905739 226.979813 
L 221.45912 227.722512 
L 228.447741 227.612072 
" clip-path="url(#p2a9efbe148)" style="fill: none; stroke: #2ca02c; stroke-linecap: square"/>
    <g clip-path="url(#p2a9efbe148)">
     <use xlink:href="#mb9250bb061" x="53.490369" y="188.828246" style="fill: #2ca02c; stroke: #2ca02c; stroke-linejoin: miter"/>
     <use xlink:href="#mb9250bb061" x="106.628825" y="203.82016" style="fill: #2ca02c; stroke: #2ca02c; stroke-linejoin: miter"/>
     <use xlink:href="#mb9250bb061" x="133.198054" y="210.96587" style="fill: #2ca02c; stroke: #2ca02c; stroke-linejoin: miter"/>
     <use xlink:href="#mb9250bb061" x="159.767282" y="217.695129" style="fill: #2ca02c; stroke: #2ca02c; stroke-linejoin: miter"/>
     <use xlink:href="#mb9250bb061" x="186.336511" y="223.460137" style="fill: #2ca02c; stroke: #2ca02c; stroke-linejoin: miter"/>
     <use xlink:href="#mb9250bb061" x="201.878513" y="225.899365" style="fill: #2ca02c; stroke: #2ca02c; stroke-linejoin: miter"/>
     <use xlink:href="#mb9250bb061" x="212.905739" y="226.979813" style="fill: #2ca02c; stroke: #2ca02c; stroke-linejoin: miter"/>
     <use xlink:href="#mb9250bb061" x="221.45912" y="227.722512" style="fill: #2ca02c; stroke: #2ca02c; stroke-linejoin: miter"/>
     <use xlink:href="#mb9250bb061" x="228.447741" y="227.612072" style="fill: #2ca02c; stroke: #2ca02c; stroke-linejoin: miter"/>
    </g>
   </g>
   <g id="line2d_78">
    <path d="M 53.490369 229.129195 
L 79.277299 236.612398 
L 94.554946 241.045874 
L 105.449308 244.207348 
L 113.922749 246.666287 
L 120.857984 248.678848 
L 126.7286 250.382463 
L 131.818372 251.859483 
L 136.310844 253.16317 
L 140.331595 254.329966 
L 143.970344 255.385908 
L 147.293421 256.350243 
L 150.35125 257.237606 
L 153.183064 258.059381 
L 155.819987 258.824599 
L 158.287126 259.540547 
L 160.605027 260.213187 
L 162.790722 260.847462 
L 164.85848 261.447512 
L 166.82038 262.016843 
L 168.686735 262.558447 
L 170.466421 263.074901 
L 172.167131 263.568436 
L 173.795578 264.041001 
L 175.357652 264.494305 
L 176.858554 264.929857 
L 178.302894 265.348995 
L 179.694781 265.752912 
L 181.037892 266.142675 
L 182.33553 266.519241 
L 183.590674 266.883475 
L 184.806017 267.23616 
L 185.984009 267.578006 
L 187.126875 267.909658 
L 188.23665 268.231708 
L 189.315197 268.544696 
L 190.364224 268.849117 
L 191.385306 269.145428 
L 192.379892 269.434051 
L 193.349323 269.715373 
L 194.29484 269.989756 
L 195.217594 270.257534 
L 196.118656 270.519016 
L 196.999021 270.774493 
L 197.859621 271.024233 
L 198.701322 271.268489 
L 199.524937 271.507497 
L 200.331226 271.741477 
L 201.120905 271.970637 
L 201.894642 272.195171 
L 202.65307 272.415262 
L 203.396782 272.631082 
L 204.126339 272.842795 
L 204.842269 273.050553 
L 205.545073 273.254502 
L 206.235222 273.454779 
L 206.913164 273.651514 
L 207.579324 273.844829 
L 208.234105 274.034842 
L 208.877888 274.221664 
L 209.511037 274.4054 
L 210.133897 274.58615 
L 210.746798 274.76401 
L 211.350053 274.939071 
L 211.943961 275.111419 
L 212.528807 275.281138 
L 213.104863 275.448305 
L 213.67239 275.612998 
L 214.231638 275.775288 
L 214.782843 275.935244 
L 215.326233 276.092933 
L 215.862029 276.248417 
L 216.390438 276.401758 
L 216.911661 276.553014 
L 217.425892 276.702241 
L 217.933316 276.849492 
L 218.43411 276.994819 
L 218.928446 277.138272 
L 219.416487 277.279899 
L 219.898393 277.419745 
L 220.374316 277.557854 
L 220.844401 277.69427 
L 221.308792 277.829033 
L 221.767623 277.962183 
L 222.221027 278.093758 
L 222.669131 278.223795 
L 223.112057 278.352329 
L 223.549923 278.479395 
L 223.982843 278.605026 
L 224.410929 278.729254 
L 224.834286 278.85211 
L 225.253019 278.973623 
L 225.667227 279.093824 
L 226.077007 279.212739 
L 226.482452 279.330397 
L 226.883654 279.446823 
L 227.280699 279.562043 
L 227.673675 279.676082 
L 228.062662 279.788964 
L 228.447741 279.900711 
" clip-path="url(#p2a9efbe148)" style="fill: none; stroke-dasharray: 1.5,2.475; stroke-dashoffset: 0; stroke: #1f77b4; stroke-opacity: 0.5; stroke-width: 1.5"/>
   </g>
   <g id="line2d_79">
    <path d="M 53.490369 188.828246 
L 79.277299 196.311449 
L 94.554946 200.744925 
L 105.449308 203.906399 
L 113.922749 206.365338 
L 120.857984 208.377899 
L 126.7286 210.081514 
L 131.818372 211.558534 
L 136.310844 212.862221 
L 140.331595 214.029017 
L 143.970344 215.084959 
L 147.293421 216.049294 
L 150.35125 216.936657 
L 153.183064 217.758432 
L 155.819987 218.52365 
L 158.287126 219.239598 
L 160.605027 219.912238 
L 162.790722 220.546513 
L 164.85848 221.146563 
L 166.82038 221.715894 
L 168.686735 222.257498 
L 170.466421 222.773952 
L 172.167131 223.267487 
L 173.795578 223.740052 
L 175.357652 224.193356 
L 176.858554 224.628908 
L 178.302894 225.048046 
L 179.694781 225.451963 
L 181.037892 225.841726 
L 182.33553 226.218292 
L 183.590674 226.582526 
L 184.806017 226.935211 
L 185.984009 227.277057 
L 187.126875 227.608709 
L 188.23665 227.930759 
L 189.315197 228.243747 
L 190.364224 228.548168 
L 191.385306 228.844479 
L 192.379892 229.133102 
L 193.349323 229.414424 
L 194.29484 229.688807 
L 195.217594 229.956585 
L 196.118656 230.218067 
L 196.999021 230.473544 
L 197.859621 230.723284 
L 198.701322 230.96754 
L 199.524937 231.206548 
L 200.331226 231.440528 
L 201.120905 231.669688 
L 201.894642 231.894222 
L 202.65307 232.114313 
L 203.396782 232.330133 
L 204.126339 232.541846 
L 204.842269 232.749604 
L 205.545073 232.953553 
L 206.235222 233.15383 
L 206.913164 233.350565 
L 207.579324 233.54388 
L 208.234105 233.733893 
L 208.877888 233.920715 
L 209.511037 234.104451 
L 210.133897 234.285201 
L 210.746798 234.463061 
L 211.350053 234.638122 
L 211.943961 234.81047 
L 212.528807 234.980189 
L 213.104863 235.147356 
L 213.67239 235.312049 
L 214.231638 235.474339 
L 214.782843 235.634295 
L 215.326233 235.791984 
L 215.862029 235.947468 
L 216.390438 236.100809 
L 216.911661 236.252065 
L 217.425892 236.401292 
L 217.933316 236.548543 
L 218.43411 236.69387 
L 218.928446 236.837323 
L 219.416487 236.97895 
L 219.898393 237.118796 
L 220.374316 237.256905 
L 220.844401 237.393321 
L 221.308792 237.528084 
L 221.767623 237.661234 
L 222.221027 237.792809 
L 222.669131 237.922846 
L 223.112057 238.05138 
L 223.549923 238.178446 
L 223.982843 238.304077 
L 224.410929 238.428305 
L 224.834286 238.551161 
L 225.253019 238.672674 
L 225.667227 238.792875 
L 226.077007 238.91179 
L 226.482452 239.029448 
L 226.883654 239.145874 
L 227.280699 239.261094 
L 227.673675 239.375133 
L 228.062662 239.488015 
L 228.447741 239.599762 
" clip-path="url(#p2a9efbe148)" style="fill: none; stroke-dasharray: 1.5,2.475; stroke-dashoffset: 0; stroke: #2ca02c; stroke-opacity: 0.5; stroke-width: 1.5"/>
   </g>
   <g id="patch_8">
    <path d="M 44.7425 286.168 
L 44.7425 183.7168 
" style="fill: none; stroke: #000000; stroke-width: 0.8; stroke-linejoin: miter; stroke-linecap: square"/>
   </g>
   <g id="patch_9">
    <path d="M 237.19561 286.168 
L 237.19561 183.7168 
" style="fill: none; stroke: #000000; stroke-width: 0.8; stroke-linejoin: miter; stroke-linecap: square"/>
   </g>
   <g id="patch_10">
    <path d="M 44.7425 286.168 
L 237.19561 286.168 
" style="fill: none; stroke: #000000; stroke-width: 0.8; stroke-linejoin: miter; stroke-linecap: square"/>
   </g>
   <g id="patch_11">
    <path d="M 44.7425 183.7168 
L 237.19561 183.7168 
" style="fill: none; stroke: #000000; stroke-width: 0.8; stroke-linejoin: miter; stroke-linecap: square"/>
   </g>
  </g>
 </g>
 <defs>
  <clipPath id="p5385e959b6">
   <rect x="44.7425" y="7.2" width="192.45311" height="153.6768"/>
  </clipPath>
  <clipPath id="p2a9efbe148">
   <rect x="44.7425" y="183.7168" width="192.45311" height="102.4512"/>
  </clipPath>
 </defs>
</svg>
