<?xml version="1.0" encoding="utf-8" standalone="no"?>
<!DOCTYPE svg PUBLIC "-//W3C//DTD SVG 1.1//EN"
  "http://www.w3.org/Graphics/SVG/1.1/DTD/svg11.dtd">
<svg xmlns:xlink="http://www.w3.org/1999/xlink" width="246.33pt" height="190.941875pt" viewBox="0 0 246.33 190.941875" xmlns="http://www.w3.org/2000/svg" version="1.1">
 <metadata>
  <rdf:RDF xmlns:dc="http://purl.org/dc/elements/1.1/" xmlns:cc="http://creativecommons.org/ns#" xmlns:rdf="http://www.w3.org/1999/02/22-rdf-syntax-ns#">
   <cc:Work>
    <dc:type rdf:resource="http://purl.org/dc/dcmitype/StillImage"/>
    <dc:date>2025-06-15T10:58:47.115880</dc:date>
    <dc:format>image/svg+xml</dc:format>
    <dc:creator>
     <cc:Agent>
      <dc:title>Matplotlib v3.10.0, https://matplotlib.org/</dc:title>
     </cc:Agent>
    </dc:creator>
   </cc:Work>
  </rdf:RDF>
 </metadata>
 <defs>
  <style type="text/css">*{stroke-linejoin: round; stroke-linecap: butt}</style>
 </defs>
 <g id="figure_1">
  <g id="patch_1">
   <path d="M 0 190.941875 
L 246.33 190.941875 
L 246.33 0 
L 0 0 
z
" style="fill: #ffffff"/>
  </g>
  <g id="axes_1">
   <g id="patch_2">
    <path d="M 31.05 156.439375 
L 234.04 156.439375 
L 234.04 10.239375 
L 31.05 10.239375 
z
" style="fill: #ffffff"/>
   </g>
   <g id="matplotlib.axis_1">
    <g id="xtick_1">
     <g id="line2d_1">
      <defs>
       <path id="m146d18aac8" d="M 0 0 
L 0 3.5 
" style="stroke: #000000; stroke-width: 0.8"/>
      </defs>
      <g>
       <use xlink:href="#m146d18aac8" x="53.604444" y="156.439375" style="stroke: #000000; stroke-width: 0.8"/>
      </g>
     </g>
     <g id="text_1">
      <!-- 2 -->
      <g transform="translate(51.059444 169.518125) scale(0.08 -0.08)">
       <defs>
        <path id="DejaVuSans-32" d="M 1228 531 
L 3431 531 
L 3431 0 
L 469 0 
L 469 531 
Q 828 903 1448 1529 
Q 2069 2156 2228 2338 
Q 2531 2678 2651 2914 
Q 2772 3150 2772 3378 
Q 2772 3750 2511 3984 
Q 2250 4219 1831 4219 
Q 1534 4219 1204 4116 
Q 875 4013 500 3803 
L 500 4441 
Q 881 4594 1212 4672 
Q 1544 4750 1819 4750 
Q 2544 4750 2975 4387 
Q 3406 4025 3406 3419 
Q 3406 3131 3298 2873 
Q 3191 2616 2906 2266 
Q 2828 2175 2409 1742 
Q 1991 1309 1228 531 
z
" transform="scale(0.015625)"/>
       </defs>
       <use xlink:href="#DejaVuSans-32"/>
      </g>
     </g>
    </g>
    <g id="xtick_2">
     <g id="line2d_2">
      <g>
       <use xlink:href="#m146d18aac8" x="98.713333" y="156.439375" style="stroke: #000000; stroke-width: 0.8"/>
      </g>
     </g>
     <g id="text_2">
      <!-- 4 -->
      <g transform="translate(96.168333 169.518125) scale(0.08 -0.08)">
       <defs>
        <path id="DejaVuSans-34" d="M 2419 4116 
L 825 1625 
L 2419 1625 
L 2419 4116 
z
M 2253 4666 
L 3047 4666 
L 3047 1625 
L 3713 1625 
L 3713 1100 
L 3047 1100 
L 3047 0 
L 2419 0 
L 2419 1100 
L 313 1100 
L 313 1709 
L 2253 4666 
z
" transform="scale(0.015625)"/>
       </defs>
       <use xlink:href="#DejaVuSans-34"/>
      </g>
     </g>
    </g>
    <g id="xtick_3">
     <g id="line2d_3">
      <g>
       <use xlink:href="#m146d18aac8" x="143.822222" y="156.439375" style="stroke: #000000; stroke-width: 0.8"/>
      </g>
     </g>
     <g id="text_3">
      <!-- 6 -->
      <g transform="translate(141.277222 169.518125) scale(0.08 -0.08)">
       <defs>
        <path id="DejaVuSans-36" d="M 2113 2584 
Q 1688 2584 1439 2293 
Q 1191 2003 1191 1497 
Q 1191 994 1439 701 
Q 1688 409 2113 409 
Q 2538 409 2786 701 
Q 3034 994 3034 1497 
Q 3034 2003 2786 2293 
Q 2538 2584 2113 2584 
z
M 3366 4563 
L 3366 3988 
Q 3128 4100 2886 4159 
Q 2644 4219 2406 4219 
Q 1781 4219 1451 3797 
Q 1122 3375 1075 2522 
Q 1259 2794 1537 2939 
Q 1816 3084 2150 3084 
Q 2853 3084 3261 2657 
Q 3669 2231 3669 1497 
Q 3669 778 3244 343 
Q 2819 -91 2113 -91 
Q 1303 -91 875 529 
Q 447 1150 447 2328 
Q 447 3434 972 4092 
Q 1497 4750 2381 4750 
Q 2619 4750 2861 4703 
Q 3103 4656 3366 4563 
z
" transform="scale(0.015625)"/>
       </defs>
       <use xlink:href="#DejaVuSans-36"/>
      </g>
     </g>
    </g>
    <g id="xtick_4">
     <g id="line2d_4">
      <g>
       <use xlink:href="#m146d18aac8" x="188.931111" y="156.439375" style="stroke: #000000; stroke-width: 0.8"/>
      </g>
     </g>
     <g id="text_4">
      <!-- 8 -->
      <g transform="translate(186.386111 169.518125) scale(0.08 -0.08)">
       <defs>
        <path id="DejaVuSans-38" d="M 2034 2216 
Q 1584 2216 1326 1975 
Q 1069 1734 1069 1313 
Q 1069 891 1326 650 
Q 1584 409 2034 409 
Q 2484 409 2743 651 
Q 3003 894 3003 1313 
Q 3003 1734 2745 1975 
Q 2488 2216 2034 2216 
z
M 1403 2484 
Q 997 2584 770 2862 
Q 544 3141 544 3541 
Q 544 4100 942 4425 
Q 1341 4750 2034 4750 
Q 2731 4750 3128 4425 
Q 3525 4100 3525 3541 
Q 3525 3141 3298 2862 
Q 3072 2584 2669 2484 
Q 3125 2378 3379 2068 
Q 3634 1759 3634 1313 
Q 3634 634 3220 271 
Q 2806 -91 2034 -91 
Q 1263 -91 848 271 
Q 434 634 434 1313 
Q 434 1759 690 2068 
Q 947 2378 1403 2484 
z
M 1172 3481 
Q 1172 3119 1398 2916 
Q 1625 2713 2034 2713 
Q 2441 2713 2670 2916 
Q 2900 3119 2900 3481 
Q 2900 3844 2670 4047 
Q 2441 4250 2034 4250 
Q 1625 4250 1398 4047 
Q 1172 3844 1172 3481 
z
" transform="scale(0.015625)"/>
       </defs>
       <use xlink:href="#DejaVuSans-38"/>
      </g>
     </g>
    </g>
    <g id="xtick_5">
     <g id="line2d_5">
      <g>
       <use xlink:href="#m146d18aac8" x="234.04" y="156.439375" style="stroke: #000000; stroke-width: 0.8"/>
      </g>
     </g>
     <g id="text_5">
      <!-- 10 -->
      <g transform="translate(228.95 169.518125) scale(0.08 -0.08)">
       <defs>
        <path id="DejaVuSans-31" d="M 794 531 
L 1825 531 
L 1825 4091 
L 703 3866 
L 703 4441 
L 1819 4666 
L 2450 4666 
L 2450 531 
L 3481 531 
L 3481 0 
L 794 0 
L 794 531 
z
" transform="scale(0.015625)"/>
        <path id="DejaVuSans-30" d="M 2034 4250 
Q 1547 4250 1301 3770 
Q 1056 3291 1056 2328 
Q 1056 1369 1301 889 
Q 1547 409 2034 409 
Q 2525 409 2770 889 
Q 3016 1369 3016 2328 
Q 3016 3291 2770 3770 
Q 2525 4250 2034 4250 
z
M 2034 4750 
Q 2819 4750 3233 4129 
Q 3647 3509 3647 2328 
Q 3647 1150 3233 529 
Q 2819 -91 2034 -91 
Q 1250 -91 836 529 
Q 422 1150 422 2328 
Q 422 3509 836 4129 
Q 1250 4750 2034 4750 
z
" transform="scale(0.015625)"/>
       </defs>
       <use xlink:href="#DejaVuSans-31"/>
       <use xlink:href="#DejaVuSans-30" transform="translate(63.623047 0)"/>
      </g>
     </g>
    </g>
    <g id="text_6">
     <!-- $r$ $(\mathrm{\AA})$ -->
     <g transform="translate(123.745 182.078125) scale(0.08 -0.08)">
      <defs>
       <path id="DejaVuSans-Oblique-72" d="M 2853 2969 
Q 2766 3016 2653 3041 
Q 2541 3066 2413 3066 
Q 1953 3066 1609 2717 
Q 1266 2369 1153 1784 
L 800 0 
L 225 0 
L 909 3500 
L 1484 3500 
L 1375 2956 
Q 1603 3259 1920 3421 
Q 2238 3584 2597 3584 
Q 2691 3584 2781 3573 
Q 2872 3563 2963 3538 
L 2853 2969 
z
" transform="scale(0.015625)"/>
       <path id="DejaVuSans-20" transform="scale(0.015625)"/>
       <path id="DejaVuSans-28" d="M 1984 4856 
Q 1566 4138 1362 3434 
Q 1159 2731 1159 2009 
Q 1159 1288 1364 580 
Q 1569 -128 1984 -844 
L 1484 -844 
Q 1016 -109 783 600 
Q 550 1309 550 2009 
Q 550 2706 781 3412 
Q 1013 4119 1484 4856 
L 1984 4856 
z
" transform="scale(0.015625)"/>
       <path id="DejaVuSans-c5" d="M 2663 5081 
Q 2663 5278 2523 5417 
Q 2384 5556 2188 5556 
Q 1988 5556 1852 5420 
Q 1716 5284 1716 5081 
Q 1716 4884 1853 4746 
Q 1991 4609 2188 4609 
Q 2384 4609 2523 4746 
Q 2663 4884 2663 5081 
z
M 2188 4044 
L 1338 1722 
L 3041 1722 
L 2188 4044 
z
M 1716 4366 
Q 1525 4494 1428 4673 
Q 1331 4853 1331 5081 
Q 1331 5441 1579 5691 
Q 1828 5941 2188 5941 
Q 2544 5941 2795 5689 
Q 3047 5438 3047 5081 
Q 3047 4863 2948 4678 
Q 2850 4494 2663 4366 
L 4325 0 
L 3669 0 
L 3244 1197 
L 1141 1197 
L 716 0 
L 50 0 
L 1716 4366 
z
" transform="scale(0.015625)"/>
       <path id="DejaVuSans-29" d="M 513 4856 
L 1013 4856 
Q 1481 4119 1714 3412 
Q 1947 2706 1947 2009 
Q 1947 1309 1714 600 
Q 1481 -109 1013 -844 
L 513 -844 
Q 928 -128 1133 580 
Q 1338 1288 1338 2009 
Q 1338 2731 1133 3434 
Q 928 4138 513 4856 
z
" transform="scale(0.015625)"/>
      </defs>
      <use xlink:href="#DejaVuSans-Oblique-72" transform="translate(0 0.171875)"/>
      <use xlink:href="#DejaVuSans-20" transform="translate(41.113281 0.171875)"/>
      <use xlink:href="#DejaVuSans-28" transform="translate(72.900391 0.171875)"/>
      <use xlink:href="#DejaVuSans-c5" transform="translate(111.914062 0.171875)"/>
      <use xlink:href="#DejaVuSans-29" transform="translate(180.322266 0.171875)"/>
     </g>
    </g>
   </g>
   <g id="matplotlib.axis_2">
    <g id="ytick_1">
     <g id="line2d_6">
      <defs>
       <path id="m8035f40e46" d="M 0 0 
L -3.5 0 
" style="stroke: #000000; stroke-width: 0.8"/>
      </defs>
      <g>
       <use xlink:href="#m8035f40e46" x="31.05" y="156.439375" style="stroke: #000000; stroke-width: 0.8"/>
      </g>
     </g>
     <g id="text_7">
      <!-- 0 -->
      <g transform="translate(18.96 159.47875) scale(0.08 -0.08)">
       <use xlink:href="#DejaVuSans-30"/>
      </g>
     </g>
    </g>
    <g id="ytick_2">
     <g id="line2d_7">
      <g>
       <use xlink:href="#m8035f40e46" x="31.05" y="127.199375" style="stroke: #000000; stroke-width: 0.8"/>
      </g>
     </g>
     <g id="text_8">
      <!-- 1 -->
      <g transform="translate(18.96 130.23875) scale(0.08 -0.08)">
       <use xlink:href="#DejaVuSans-31"/>
      </g>
     </g>
    </g>
    <g id="ytick_3">
     <g id="line2d_8">
      <g>
       <use xlink:href="#m8035f40e46" x="31.05" y="97.959375" style="stroke: #000000; stroke-width: 0.8"/>
      </g>
     </g>
     <g id="text_9">
      <!-- 2 -->
      <g transform="translate(18.96 100.99875) scale(0.08 -0.08)">
       <use xlink:href="#DejaVuSans-32"/>
      </g>
     </g>
    </g>
    <g id="ytick_4">
     <g id="line2d_9">
      <g>
       <use xlink:href="#m8035f40e46" x="31.05" y="68.719375" style="stroke: #000000; stroke-width: 0.8"/>
      </g>
     </g>
     <g id="text_10">
      <!-- 3 -->
      <g transform="translate(18.96 71.75875) scale(0.08 -0.08)">
       <defs>
        <path id="DejaVuSans-33" d="M 2597 2516 
Q 3050 2419 3304 2112 
Q 3559 1806 3559 1356 
Q 3559 666 3084 287 
Q 2609 -91 1734 -91 
Q 1441 -91 1130 -33 
Q 819 25 488 141 
L 488 750 
Q 750 597 1062 519 
Q 1375 441 1716 441 
Q 2309 441 2620 675 
Q 2931 909 2931 1356 
Q 2931 1769 2642 2001 
Q 2353 2234 1838 2234 
L 1294 2234 
L 1294 2753 
L 1863 2753 
Q 2328 2753 2575 2939 
Q 2822 3125 2822 3475 
Q 2822 3834 2567 4026 
Q 2313 4219 1838 4219 
Q 1578 4219 1281 4162 
Q 984 4106 628 3988 
L 628 4550 
Q 988 4650 1302 4700 
Q 1616 4750 1894 4750 
Q 2613 4750 3031 4423 
Q 3450 4097 3450 3541 
Q 3450 3153 3228 2886 
Q 3006 2619 2597 2516 
z
" transform="scale(0.015625)"/>
       </defs>
       <use xlink:href="#DejaVuSans-33"/>
      </g>
     </g>
    </g>
    <g id="ytick_5">
     <g id="line2d_10">
      <g>
       <use xlink:href="#m8035f40e46" x="31.05" y="39.479375" style="stroke: #000000; stroke-width: 0.8"/>
      </g>
     </g>
     <g id="text_11">
      <!-- 4 -->
      <g transform="translate(18.96 42.51875) scale(0.08 -0.08)">
       <use xlink:href="#DejaVuSans-34"/>
      </g>
     </g>
    </g>
    <g id="ytick_6">
     <g id="line2d_11">
      <g>
       <use xlink:href="#m8035f40e46" x="31.05" y="10.239375" style="stroke: #000000; stroke-width: 0.8"/>
      </g>
     </g>
     <g id="text_12">
      <!-- 5 -->
      <g transform="translate(18.96 13.27875) scale(0.08 -0.08)">
       <defs>
        <path id="DejaVuSans-35" d="M 691 4666 
L 3169 4666 
L 3169 4134 
L 1269 4134 
L 1269 2991 
Q 1406 3038 1543 3061 
Q 1681 3084 1819 3084 
Q 2600 3084 3056 2656 
Q 3513 2228 3513 1497 
Q 3513 744 3044 326 
Q 2575 -91 1722 -91 
Q 1428 -91 1123 -41 
Q 819 9 494 109 
L 494 744 
Q 775 591 1075 516 
Q 1375 441 1709 441 
Q 2250 441 2565 725 
Q 2881 1009 2881 1497 
Q 2881 1984 2565 2268 
Q 2250 2553 1709 2553 
Q 1456 2553 1204 2497 
Q 953 2441 691 2322 
L 691 4666 
z
" transform="scale(0.015625)"/>
       </defs>
       <use xlink:href="#DejaVuSans-35"/>
      </g>
     </g>
    </g>
    <g id="text_13">
     <!-- $g(r)$ -->
     <g transform="translate(13.28 90.659375) rotate(-90) scale(0.08 -0.08)">
      <defs>
       <path id="DejaVuSans-Oblique-67" d="M 3816 3500 
L 3219 434 
Q 3047 -456 2561 -893 
Q 2075 -1331 1253 -1331 
Q 950 -1331 690 -1286 
Q 431 -1241 206 -1147 
L 313 -588 
Q 525 -725 762 -790 
Q 1000 -856 1269 -856 
Q 1816 -856 2167 -557 
Q 2519 -259 2631 300 
L 2681 563 
Q 2441 288 2122 144 
Q 1803 0 1434 0 
Q 903 0 598 351 
Q 294 703 294 1319 
Q 294 1803 478 2267 
Q 663 2731 997 3091 
Q 1219 3328 1514 3456 
Q 1809 3584 2131 3584 
Q 2484 3584 2746 3420 
Q 3009 3256 3138 2956 
L 3238 3500 
L 3816 3500 
z
M 2950 2216 
Q 2950 2641 2750 2872 
Q 2550 3103 2181 3103 
Q 1953 3103 1747 3012 
Q 1541 2922 1394 2759 
Q 1156 2491 1023 2127 
Q 891 1763 891 1375 
Q 891 944 1092 712 
Q 1294 481 1672 481 
Q 2219 481 2584 976 
Q 2950 1472 2950 2216 
z
" transform="scale(0.015625)"/>
      </defs>
      <use xlink:href="#DejaVuSans-Oblique-67" transform="translate(0 0.125)"/>
      <use xlink:href="#DejaVuSans-28" transform="translate(63.476562 0.125)"/>
      <use xlink:href="#DejaVuSans-Oblique-72" transform="translate(102.490234 0.125)"/>
      <use xlink:href="#DejaVuSans-29" transform="translate(143.603516 0.125)"/>
     </g>
    </g>
   </g>
   <g id="line2d_12">
    <path d="M 9.172189 156.439375 
L 52.927811 156.394048 
L 54.281078 156.201548 
L 54.732167 156.182247 
L 55.183256 155.71215 
L 55.634344 155.444104 
L 56.085433 154.921013 
L 56.987611 152.932899 
L 57.4387 151.54033 
L 57.889789 149.617386 
L 58.340878 146.786947 
L 58.791967 143.068234 
L 59.694144 132.694138 
L 60.596322 117.130103 
L 61.4985 97.429334 
L 64.205033 30.421764 
L 64.656122 22.6497 
L 65.107211 17.270381 
L 65.5583 14.487758 
L 66.009389 14.429435 
L 66.911567 24.22516 
L 68.264833 51.761954 
L 70.520278 110.585972 
L 71.873544 134.199636 
L 72.775722 143.921643 
L 73.6779 150.072747 
L 74.128989 151.999864 
L 75.031167 154.342936 
L 75.482256 155.043416 
L 76.384433 155.92347 
L 76.835522 156.108175 
L 79.090967 156.257254 
L 79.993144 156.089269 
L 80.895322 155.488235 
L 81.7975 154.678799 
L 82.699678 152.901169 
L 83.601856 150.282063 
L 84.052944 148.557255 
L 84.955122 143.909544 
L 86.308389 135.117263 
L 87.210567 129.617905 
L 88.112744 124.688495 
L 89.014922 121.523478 
L 89.466011 120.942353 
L 90.368189 122.17233 
L 90.819278 123.286249 
L 91.721456 128.212776 
L 94.879078 147.429974 
L 95.330167 149.483203 
L 96.232344 152.373982 
L 97.134522 153.876746 
L 97.585611 154.459909 
L 98.0367 154.580253 
L 98.487789 154.418895 
L 98.938878 154.074868 
L 99.389967 153.251895 
L 100.292144 150.575954 
L 101.194322 145.600208 
L 102.0965 138.026603 
L 103.449767 119.924405 
L 106.607389 68.603971 
L 107.058478 64.581973 
L 107.509567 62.15194 
L 107.960656 62.330711 
L 108.411744 63.064565 
L 109.313922 71.796471 
L 109.765011 77.587265 
L 112.922633 129.56151 
L 113.824811 139.717533 
L 114.726989 146.163851 
L 115.178078 148.353249 
L 115.629167 149.526079 
L 116.080256 150.150524 
L 116.531344 150.145977 
L 116.982433 149.658374 
L 117.433522 148.683534 
L 117.884611 147.074357 
L 118.786789 142.680626 
L 119.688967 137.355879 
L 121.042233 128.388873 
L 122.3955 122.471028 
L 122.846589 121.264227 
L 123.297678 120.784508 
L 123.748767 121.156411 
L 124.199856 122.39734 
L 124.650944 124.20754 
L 126.004211 131.903005 
L 127.357478 140.211155 
L 128.259656 144.660556 
L 128.710744 145.995158 
L 129.161833 146.959856 
L 129.612922 147.143624 
L 130.064011 146.55422 
L 130.5151 145.67154 
L 130.966189 144.002653 
L 131.868367 138.32153 
L 133.221633 125.878435 
L 135.025989 107.911637 
L 135.477078 104.328179 
L 135.928167 101.911285 
L 136.379256 100.316089 
L 136.830344 99.690026 
L 137.281433 100.109225 
L 138.183611 105.045539 
L 138.6347 108.237791 
L 139.536878 117.266143 
L 141.341233 134.977751 
L 142.243411 141.500742 
L 143.145589 145.785523 
L 143.596678 146.911329 
L 144.047767 147.469999 
L 144.498856 147.749177 
L 144.949944 147.387734 
L 145.852122 145.896334 
L 147.656478 142.005269 
L 148.107567 141.168386 
L 148.558656 140.68989 
L 149.009744 140.509849 
L 149.460833 140.466886 
L 150.363011 141.23977 
L 150.8141 142.169087 
L 151.716278 143.018892 
L 152.167367 143.456662 
L 152.618456 143.604271 
L 153.069544 143.301372 
L 153.520633 142.172822 
L 153.971722 140.501567 
L 154.422811 138.021577 
L 155.324989 130.583143 
L 156.227167 119.827992 
L 158.482611 87.526397 
L 159.384789 78.566362 
L 159.835878 76.145962 
L 160.286967 75.579952 
L 160.738056 76.018697 
L 161.189144 78.52897 
L 161.640233 81.9459 
L 162.091322 86.615373 
L 163.444589 105.505899 
L 165.248944 129.68911 
L 166.151122 138.009611 
L 167.0533 143.22836 
L 167.504389 144.715369 
L 167.955478 145.80973 
L 168.857656 146.762151 
L 169.308744 146.929565 
L 169.759833 146.950741 
L 170.662011 146.722066 
L 171.564189 146.924959 
L 172.015278 146.831561 
L 172.917456 146.926304 
L 173.819633 146.071963 
L 174.721811 144.008333 
L 175.1729 142.303019 
L 176.075078 137.547181 
L 176.977256 130.781156 
L 179.2327 113.483175 
L 180.134878 109.436727 
L 180.585967 108.71201 
L 181.037056 108.658077 
L 181.939233 111.256514 
L 184.645767 127.821575 
L 185.096856 129.716995 
L 185.547944 130.921026 
L 185.999033 131.805632 
L 186.450122 131.823788 
L 186.901211 131.513132 
L 187.3523 130.978536 
L 188.254478 129.159244 
L 188.705567 128.056864 
L 189.156656 127.619919 
L 189.607744 126.995148 
L 190.058833 126.723232 
L 190.961011 127.743979 
L 191.4121 128.985331 
L 191.863189 129.879115 
L 192.765367 132.988541 
L 193.667544 134.891596 
L 194.569722 135.933363 
L 195.020811 135.670503 
L 195.922989 134.454733 
L 196.825167 132.609701 
L 197.727344 130.457694 
L 198.178433 129.749357 
L 198.629522 129.458579 
L 199.080611 129.392577 
L 199.5317 129.63505 
L 200.884967 132.110697 
L 201.787144 134.24721 
L 202.689322 135.707187 
L 203.140411 135.958045 
L 204.042589 135.584949 
L 204.493678 134.990655 
L 206.749122 130.366598 
L 209.004567 127.166326 
L 209.455656 126.34606 
L 209.906744 124.895293 
L 210.357833 123.044607 
L 210.808922 120.706005 
L 211.7111 114.378852 
L 213.064367 102.550426 
L 213.966544 94.962715 
L 214.868722 90.644296 
L 215.319811 90.105264 
L 215.7709 90.667418 
L 216.221989 92.47198 
L 216.673078 95.323451 
L 217.124167 99.08251 
L 218.477433 114.460548 
L 219.8307 130.984272 
L 220.732878 139.415086 
L 221.635056 145.809688 
L 222.537233 149.591856 
L 222.988322 150.594813 
L 223.439411 150.909851 
L 223.8905 150.868511 
L 224.341589 150.142963 
L 224.792678 149.115288 
L 225.694856 145.529959 
L 226.597033 140.547759 
L 229.303567 122.534837 
L 229.754656 120.369271 
L 230.205744 118.940156 
L 230.656833 118.251531 
L 231.107922 117.987722 
L 231.559011 118.694947 
L 232.0101 119.827691 
L 232.461189 121.342063 
L 233.814456 128.479219 
L 233.814456 128.479219 
" clip-path="url(#p0293c0a6f2)" style="fill: none; stroke: #1f77b4; stroke-width: 1.5; stroke-linecap: square"/>
   </g>
   <g id="line2d_13">
    <path d="M 8.946644 156.439375 
L 52.702267 156.393584 
L 54.055533 156.199186 
L 54.506622 156.17368 
L 54.957711 155.710988 
L 55.4088 155.440312 
L 55.859889 154.883713 
L 56.762067 152.872589 
L 57.213156 151.510987 
L 57.664244 149.565184 
L 58.115333 146.709316 
L 59.017511 138.234 
L 59.4686 132.503064 
L 60.370778 116.839548 
L 61.272956 96.955664 
L 63.979489 29.489964 
L 64.430578 21.461617 
L 64.881667 16.077665 
L 65.332756 13.441279 
L 65.783844 13.242094 
L 66.686022 23.227798 
L 68.039289 50.941701 
L 70.294733 110.237072 
L 71.648 134.043608 
L 72.550178 143.883134 
L 73.452356 150.025402 
L 73.903444 151.984117 
L 74.805622 154.328642 
L 75.7078 155.528173 
L 76.158889 155.922815 
L 76.609978 156.094956 
L 78.865422 156.261247 
L 79.7676 156.079499 
L 80.669778 155.487186 
L 81.571956 154.672696 
L 82.474133 152.893566 
L 83.376311 150.231217 
L 83.8274 148.523479 
L 84.729578 143.828657 
L 87.8872 124.509779 
L 88.789378 121.342817 
L 89.240467 120.724068 
L 90.142644 121.961567 
L 90.593733 123.120825 
L 91.495911 128.142597 
L 92.398089 134.008683 
L 94.202444 145.256209 
L 95.104622 149.480994 
L 96.0068 152.363006 
L 96.908978 153.865284 
L 97.360067 154.438512 
L 97.811156 154.59809 
L 98.262244 154.396033 
L 98.713333 154.070879 
L 99.164422 153.245341 
L 100.0666 150.601906 
L 100.968778 145.544258 
L 101.870956 137.931645 
L 103.224222 119.71036 
L 106.381844 68.210585 
L 106.832933 64.085935 
L 107.284022 61.763975 
L 107.735111 61.933449 
L 108.1862 62.727601 
L 109.088378 71.365806 
L 109.539467 77.286059 
L 112.697089 129.432036 
L 113.599267 139.564657 
L 114.501444 146.081385 
L 114.952533 148.335857 
L 115.403622 149.493513 
L 115.854711 150.130718 
L 116.3058 150.115208 
L 116.756889 149.66062 
L 117.207978 148.632919 
L 117.659067 147.03775 
L 118.561244 142.631548 
L 119.463422 137.275084 
L 120.816689 128.252764 
L 122.169956 122.319236 
L 122.621044 121.144641 
L 123.072133 120.669268 
L 123.523222 120.97149 
L 123.974311 122.237349 
L 124.4254 124.121911 
L 125.327578 129.020888 
L 127.583022 142.60991 
L 128.034111 144.626788 
L 128.4852 145.959396 
L 128.936289 146.910208 
L 129.387378 147.130763 
L 129.838467 146.509613 
L 130.289556 145.635919 
L 130.740644 143.944728 
L 131.642822 138.287116 
L 132.996089 125.738708 
L 134.800444 107.758952 
L 135.251533 104.123415 
L 135.702622 101.682933 
L 136.153711 100.210888 
L 136.6048 99.397278 
L 137.055889 99.954658 
L 137.958067 104.826597 
L 138.409156 108.087652 
L 139.311333 117.099532 
L 141.115689 134.903215 
L 142.017867 141.398589 
L 142.920044 145.745487 
L 143.371133 146.875211 
L 143.822222 147.455425 
L 144.273311 147.746624 
L 144.7244 147.35084 
L 145.626578 145.897645 
L 146.979844 142.81041 
L 147.882022 141.114306 
L 148.333111 140.644914 
L 148.7842 140.450129 
L 149.235289 140.407248 
L 149.686378 140.882746 
L 150.137467 141.163276 
L 150.588556 142.139565 
L 151.490733 142.972135 
L 151.941822 143.420141 
L 152.392911 143.549794 
L 152.844 143.282974 
L 153.295089 142.113089 
L 153.746178 140.439901 
L 154.197267 137.939205 
L 155.099444 130.505883 
L 156.001622 119.704166 
L 158.257067 87.281001 
L 159.159244 78.360571 
L 159.610333 75.877492 
L 160.061422 75.356868 
L 160.512511 75.792548 
L 160.9636 78.250946 
L 161.414689 81.758739 
L 161.865778 86.364155 
L 163.670133 111.789984 
L 164.572311 124.479616 
L 165.474489 134.244425 
L 166.376667 140.958313 
L 166.827756 143.166209 
L 167.278844 144.694707 
L 167.729933 145.762447 
L 168.632111 146.738854 
L 169.0832 146.904314 
L 169.534289 146.908856 
L 170.436467 146.702773 
L 171.338644 146.912077 
L 171.789733 146.803078 
L 172.691911 146.932388 
L 173.594089 146.043142 
L 174.045178 145.142577 
L 174.496267 143.978698 
L 175.398444 140.11823 
L 176.300622 134.364611 
L 179.007156 113.397574 
L 179.909333 109.27464 
L 180.360422 108.601779 
L 180.811511 108.532886 
L 181.713689 111.131505 
L 184.420222 127.747721 
L 184.871311 129.634211 
L 185.773489 131.767304 
L 186.224578 131.775019 
L 186.675667 131.442323 
L 187.126756 130.920597 
L 188.028933 129.088264 
L 188.480022 127.980935 
L 188.931111 127.546239 
L 189.3822 126.915018 
L 189.833289 126.684239 
L 190.284378 127.107534 
L 190.735467 127.686749 
L 192.088733 131.525096 
L 192.539822 132.919317 
L 193.442 134.845725 
L 194.344178 135.887992 
L 194.795267 135.630487 
L 195.697444 134.39369 
L 196.599622 132.539864 
L 197.5018 130.385974 
L 197.952889 129.71247 
L 198.403978 129.360059 
L 198.855067 129.337607 
L 199.306156 129.584975 
L 200.659422 132.042465 
L 201.5616 134.191889 
L 202.463778 135.66709 
L 202.914867 135.929427 
L 203.817044 135.545126 
L 204.268133 134.918848 
L 207.425756 128.908754 
L 209.230111 126.259349 
L 209.6812 124.837462 
L 210.583378 120.608655 
L 211.485556 114.296794 
L 212.838822 102.431991 
L 213.741 94.806563 
L 214.643178 90.484276 
L 215.094267 89.975599 
L 215.545356 90.512391 
L 215.996444 92.348852 
L 216.447533 95.184279 
L 216.898622 98.944143 
L 218.251889 114.351901 
L 219.605156 130.934432 
L 220.507333 139.38282 
L 221.409511 145.774744 
L 222.311689 149.570409 
L 222.762778 150.58445 
L 223.213867 150.904327 
L 223.664956 150.858205 
L 224.116044 150.128681 
L 224.567133 149.108749 
L 225.469311 145.505633 
L 226.371489 140.517527 
L 229.078022 122.479117 
L 229.529111 120.260284 
L 229.9802 118.896305 
L 230.431289 118.173861 
L 230.882378 117.90528 
L 231.333467 118.61952 
L 231.784556 119.743679 
L 232.235644 121.287598 
L 233.588911 128.450146 
L 233.588911 128.450146 
" clip-path="url(#p0293c0a6f2)" style="fill: none; stroke-dasharray: 5.55,2.4; stroke-dashoffset: 0; stroke: #d62728; stroke-width: 1.5"/>
   </g>
   <g id="patch_3">
    <path d="M 31.05 156.439375 
L 31.05 10.239375 
" style="fill: none; stroke: #000000; stroke-width: 0.8; stroke-linejoin: miter; stroke-linecap: square"/>
   </g>
   <g id="patch_4">
    <path d="M 234.04 156.439375 
L 234.04 10.239375 
" style="fill: none; stroke: #000000; stroke-width: 0.8; stroke-linejoin: miter; stroke-linecap: square"/>
   </g>
   <g id="patch_5">
    <path d="M 31.05 156.439375 
L 234.04 156.439375 
" style="fill: none; stroke: #000000; stroke-width: 0.8; stroke-linejoin: miter; stroke-linecap: square"/>
   </g>
   <g id="patch_6">
    <path d="M 31.05 10.239375 
L 234.04 10.239375 
" style="fill: none; stroke: #000000; stroke-width: 0.8; stroke-linejoin: miter; stroke-linecap: square"/>
   </g>
   <g id="legend_1">
    <g id="patch_7">
     <path d="M 110.58625 40.124375 
L 228.44 40.124375 
Q 230.04 40.124375 230.04 38.524375 
L 230.04 15.839375 
Q 230.04 14.239375 228.44 14.239375 
L 110.58625 14.239375 
Q 108.98625 14.239375 108.98625 15.839375 
L 108.98625 38.524375 
Q 108.98625 40.124375 110.58625 40.124375 
z
" style="fill: #ffffff; opacity: 0.8; stroke: #cccccc; stroke-linejoin: miter"/>
    </g>
    <g id="line2d_14">
     <path d="M 112.18625 20.718125 
L 120.18625 20.718125 
L 128.18625 20.718125 
" style="fill: none; stroke: #1f77b4; stroke-width: 1.5; stroke-linecap: square"/>
    </g>
    <g id="text_14">
     <!-- MDAnalysis (34.22 s) -->
     <g transform="translate(134.58625 23.518125) scale(0.08 -0.08)">
      <defs>
       <path id="DejaVuSans-4d" d="M 628 4666 
L 1569 4666 
L 2759 1491 
L 3956 4666 
L 4897 4666 
L 4897 0 
L 4281 0 
L 4281 4097 
L 3078 897 
L 2444 897 
L 1241 4097 
L 1241 0 
L 628 0 
L 628 4666 
z
" transform="scale(0.015625)"/>
       <path id="DejaVuSans-44" d="M 1259 4147 
L 1259 519 
L 2022 519 
Q 2988 519 3436 956 
Q 3884 1394 3884 2338 
Q 3884 3275 3436 3711 
Q 2988 4147 2022 4147 
L 1259 4147 
z
M 628 4666 
L 1925 4666 
Q 3281 4666 3915 4102 
Q 4550 3538 4550 2338 
Q 4550 1131 3912 565 
Q 3275 0 1925 0 
L 628 0 
L 628 4666 
z
" transform="scale(0.015625)"/>
       <path id="DejaVuSans-41" d="M 2188 4044 
L 1331 1722 
L 3047 1722 
L 2188 4044 
z
M 1831 4666 
L 2547 4666 
L 4325 0 
L 3669 0 
L 3244 1197 
L 1141 1197 
L 716 0 
L 50 0 
L 1831 4666 
z
" transform="scale(0.015625)"/>
       <path id="DejaVuSans-6e" d="M 3513 2113 
L 3513 0 
L 2938 0 
L 2938 2094 
Q 2938 2591 2744 2837 
Q 2550 3084 2163 3084 
Q 1697 3084 1428 2787 
Q 1159 2491 1159 1978 
L 1159 0 
L 581 0 
L 581 3500 
L 1159 3500 
L 1159 2956 
Q 1366 3272 1645 3428 
Q 1925 3584 2291 3584 
Q 2894 3584 3203 3211 
Q 3513 2838 3513 2113 
z
" transform="scale(0.015625)"/>
       <path id="DejaVuSans-61" d="M 2194 1759 
Q 1497 1759 1228 1600 
Q 959 1441 959 1056 
Q 959 750 1161 570 
Q 1363 391 1709 391 
Q 2188 391 2477 730 
Q 2766 1069 2766 1631 
L 2766 1759 
L 2194 1759 
z
M 3341 1997 
L 3341 0 
L 2766 0 
L 2766 531 
Q 2569 213 2275 61 
Q 1981 -91 1556 -91 
Q 1019 -91 701 211 
Q 384 513 384 1019 
Q 384 1609 779 1909 
Q 1175 2209 1959 2209 
L 2766 2209 
L 2766 2266 
Q 2766 2663 2505 2880 
Q 2244 3097 1772 3097 
Q 1472 3097 1187 3025 
Q 903 2953 641 2809 
L 641 3341 
Q 956 3463 1253 3523 
Q 1550 3584 1831 3584 
Q 2591 3584 2966 3190 
Q 3341 2797 3341 1997 
z
" transform="scale(0.015625)"/>
       <path id="DejaVuSans-6c" d="M 603 4863 
L 1178 4863 
L 1178 0 
L 603 0 
L 603 4863 
z
" transform="scale(0.015625)"/>
       <path id="DejaVuSans-79" d="M 2059 -325 
Q 1816 -950 1584 -1140 
Q 1353 -1331 966 -1331 
L 506 -1331 
L 506 -850 
L 844 -850 
Q 1081 -850 1212 -737 
Q 1344 -625 1503 -206 
L 1606 56 
L 191 3500 
L 800 3500 
L 1894 763 
L 2988 3500 
L 3597 3500 
L 2059 -325 
z
" transform="scale(0.015625)"/>
       <path id="DejaVuSans-73" d="M 2834 3397 
L 2834 2853 
Q 2591 2978 2328 3040 
Q 2066 3103 1784 3103 
Q 1356 3103 1142 2972 
Q 928 2841 928 2578 
Q 928 2378 1081 2264 
Q 1234 2150 1697 2047 
L 1894 2003 
Q 2506 1872 2764 1633 
Q 3022 1394 3022 966 
Q 3022 478 2636 193 
Q 2250 -91 1575 -91 
Q 1294 -91 989 -36 
Q 684 19 347 128 
L 347 722 
Q 666 556 975 473 
Q 1284 391 1588 391 
Q 1994 391 2212 530 
Q 2431 669 2431 922 
Q 2431 1156 2273 1281 
Q 2116 1406 1581 1522 
L 1381 1569 
Q 847 1681 609 1914 
Q 372 2147 372 2553 
Q 372 3047 722 3315 
Q 1072 3584 1716 3584 
Q 2034 3584 2315 3537 
Q 2597 3491 2834 3397 
z
" transform="scale(0.015625)"/>
       <path id="DejaVuSans-69" d="M 603 3500 
L 1178 3500 
L 1178 0 
L 603 0 
L 603 3500 
z
M 603 4863 
L 1178 4863 
L 1178 4134 
L 603 4134 
L 603 4863 
z
" transform="scale(0.015625)"/>
       <path id="DejaVuSans-2e" d="M 684 794 
L 1344 794 
L 1344 0 
L 684 0 
L 684 794 
z
" transform="scale(0.015625)"/>
      </defs>
      <use xlink:href="#DejaVuSans-4d"/>
      <use xlink:href="#DejaVuSans-44" transform="translate(86.279297 0)"/>
      <use xlink:href="#DejaVuSans-41" transform="translate(161.53125 0)"/>
      <use xlink:href="#DejaVuSans-6e" transform="translate(229.939453 0)"/>
      <use xlink:href="#DejaVuSans-61" transform="translate(293.318359 0)"/>
      <use xlink:href="#DejaVuSans-6c" transform="translate(354.597656 0)"/>
      <use xlink:href="#DejaVuSans-79" transform="translate(382.380859 0)"/>
      <use xlink:href="#DejaVuSans-73" transform="translate(441.560547 0)"/>
      <use xlink:href="#DejaVuSans-69" transform="translate(493.660156 0)"/>
      <use xlink:href="#DejaVuSans-73" transform="translate(521.443359 0)"/>
      <use xlink:href="#DejaVuSans-20" transform="translate(573.542969 0)"/>
      <use xlink:href="#DejaVuSans-28" transform="translate(605.330078 0)"/>
      <use xlink:href="#DejaVuSans-33" transform="translate(644.34375 0)"/>
      <use xlink:href="#DejaVuSans-34" transform="translate(707.966797 0)"/>
      <use xlink:href="#DejaVuSans-2e" transform="translate(771.589844 0)"/>
      <use xlink:href="#DejaVuSans-32" transform="translate(803.376953 0)"/>
      <use xlink:href="#DejaVuSans-32" transform="translate(867 0)"/>
      <use xlink:href="#DejaVuSans-20" transform="translate(930.623047 0)"/>
      <use xlink:href="#DejaVuSans-73" transform="translate(962.410156 0)"/>
      <use xlink:href="#DejaVuSans-29" transform="translate(1014.509766 0)"/>
     </g>
    </g>
    <g id="line2d_15">
     <path d="M 112.18625 32.460625 
L 120.18625 32.460625 
L 128.18625 32.460625 
" style="fill: none; stroke-dasharray: 5.55,2.4; stroke-dashoffset: 0; stroke: #d62728; stroke-width: 1.5"/>
    </g>
    <g id="text_15">
     <!-- fastatomstruct (1.77 s) -->
     <g transform="translate(134.58625 35.260625) scale(0.08 -0.08)">
      <defs>
       <path id="DejaVuSans-66" d="M 2375 4863 
L 2375 4384 
L 1825 4384 
Q 1516 4384 1395 4259 
Q 1275 4134 1275 3809 
L 1275 3500 
L 2222 3500 
L 2222 3053 
L 1275 3053 
L 1275 0 
L 697 0 
L 697 3053 
L 147 3053 
L 147 3500 
L 697 3500 
L 697 3744 
Q 697 4328 969 4595 
Q 1241 4863 1831 4863 
L 2375 4863 
z
" transform="scale(0.015625)"/>
       <path id="DejaVuSans-74" d="M 1172 4494 
L 1172 3500 
L 2356 3500 
L 2356 3053 
L 1172 3053 
L 1172 1153 
Q 1172 725 1289 603 
Q 1406 481 1766 481 
L 2356 481 
L 2356 0 
L 1766 0 
Q 1100 0 847 248 
Q 594 497 594 1153 
L 594 3053 
L 172 3053 
L 172 3500 
L 594 3500 
L 594 4494 
L 1172 4494 
z
" transform="scale(0.015625)"/>
       <path id="DejaVuSans-6f" d="M 1959 3097 
Q 1497 3097 1228 2736 
Q 959 2375 959 1747 
Q 959 1119 1226 758 
Q 1494 397 1959 397 
Q 2419 397 2687 759 
Q 2956 1122 2956 1747 
Q 2956 2369 2687 2733 
Q 2419 3097 1959 3097 
z
M 1959 3584 
Q 2709 3584 3137 3096 
Q 3566 2609 3566 1747 
Q 3566 888 3137 398 
Q 2709 -91 1959 -91 
Q 1206 -91 779 398 
Q 353 888 353 1747 
Q 353 2609 779 3096 
Q 1206 3584 1959 3584 
z
" transform="scale(0.015625)"/>
       <path id="DejaVuSans-6d" d="M 3328 2828 
Q 3544 3216 3844 3400 
Q 4144 3584 4550 3584 
Q 5097 3584 5394 3201 
Q 5691 2819 5691 2113 
L 5691 0 
L 5113 0 
L 5113 2094 
Q 5113 2597 4934 2840 
Q 4756 3084 4391 3084 
Q 3944 3084 3684 2787 
Q 3425 2491 3425 1978 
L 3425 0 
L 2847 0 
L 2847 2094 
Q 2847 2600 2669 2842 
Q 2491 3084 2119 3084 
Q 1678 3084 1418 2786 
Q 1159 2488 1159 1978 
L 1159 0 
L 581 0 
L 581 3500 
L 1159 3500 
L 1159 2956 
Q 1356 3278 1631 3431 
Q 1906 3584 2284 3584 
Q 2666 3584 2933 3390 
Q 3200 3197 3328 2828 
z
" transform="scale(0.015625)"/>
       <path id="DejaVuSans-72" d="M 2631 2963 
Q 2534 3019 2420 3045 
Q 2306 3072 2169 3072 
Q 1681 3072 1420 2755 
Q 1159 2438 1159 1844 
L 1159 0 
L 581 0 
L 581 3500 
L 1159 3500 
L 1159 2956 
Q 1341 3275 1631 3429 
Q 1922 3584 2338 3584 
Q 2397 3584 2469 3576 
Q 2541 3569 2628 3553 
L 2631 2963 
z
" transform="scale(0.015625)"/>
       <path id="DejaVuSans-75" d="M 544 1381 
L 544 3500 
L 1119 3500 
L 1119 1403 
Q 1119 906 1312 657 
Q 1506 409 1894 409 
Q 2359 409 2629 706 
Q 2900 1003 2900 1516 
L 2900 3500 
L 3475 3500 
L 3475 0 
L 2900 0 
L 2900 538 
Q 2691 219 2414 64 
Q 2138 -91 1772 -91 
Q 1169 -91 856 284 
Q 544 659 544 1381 
z
M 1991 3584 
L 1991 3584 
z
" transform="scale(0.015625)"/>
       <path id="DejaVuSans-63" d="M 3122 3366 
L 3122 2828 
Q 2878 2963 2633 3030 
Q 2388 3097 2138 3097 
Q 1578 3097 1268 2742 
Q 959 2388 959 1747 
Q 959 1106 1268 751 
Q 1578 397 2138 397 
Q 2388 397 2633 464 
Q 2878 531 3122 666 
L 3122 134 
Q 2881 22 2623 -34 
Q 2366 -91 2075 -91 
Q 1284 -91 818 406 
Q 353 903 353 1747 
Q 353 2603 823 3093 
Q 1294 3584 2113 3584 
Q 2378 3584 2631 3529 
Q 2884 3475 3122 3366 
z
" transform="scale(0.015625)"/>
       <path id="DejaVuSans-37" d="M 525 4666 
L 3525 4666 
L 3525 4397 
L 1831 0 
L 1172 0 
L 2766 4134 
L 525 4134 
L 525 4666 
z
" transform="scale(0.015625)"/>
      </defs>
      <use xlink:href="#DejaVuSans-66"/>
      <use xlink:href="#DejaVuSans-61" transform="translate(35.205078 0)"/>
      <use xlink:href="#DejaVuSans-73" transform="translate(96.484375 0)"/>
      <use xlink:href="#DejaVuSans-74" transform="translate(148.583984 0)"/>
      <use xlink:href="#DejaVuSans-61" transform="translate(187.792969 0)"/>
      <use xlink:href="#DejaVuSans-74" transform="translate(249.072266 0)"/>
      <use xlink:href="#DejaVuSans-6f" transform="translate(288.28125 0)"/>
      <use xlink:href="#DejaVuSans-6d" transform="translate(349.462891 0)"/>
      <use xlink:href="#DejaVuSans-73" transform="translate(446.875 0)"/>
      <use xlink:href="#DejaVuSans-74" transform="translate(498.974609 0)"/>
      <use xlink:href="#DejaVuSans-72" transform="translate(538.183594 0)"/>
      <use xlink:href="#DejaVuSans-75" transform="translate(579.296875 0)"/>
      <use xlink:href="#DejaVuSans-63" transform="translate(642.675781 0)"/>
      <use xlink:href="#DejaVuSans-74" transform="translate(697.65625 0)"/>
      <use xlink:href="#DejaVuSans-20" transform="translate(736.865234 0)"/>
      <use xlink:href="#DejaVuSans-28" transform="translate(768.652344 0)"/>
      <use xlink:href="#DejaVuSans-31" transform="translate(807.666016 0)"/>
      <use xlink:href="#DejaVuSans-2e" transform="translate(871.289062 0)"/>
      <use xlink:href="#DejaVuSans-37" transform="translate(903.076172 0)"/>
      <use xlink:href="#DejaVuSans-37" transform="translate(966.699219 0)"/>
      <use xlink:href="#DejaVuSans-20" transform="translate(1030.322266 0)"/>
      <use xlink:href="#DejaVuSans-73" transform="translate(1062.109375 0)"/>
      <use xlink:href="#DejaVuSans-29" transform="translate(1114.208984 0)"/>
     </g>
    </g>
   </g>
  </g>
 </g>
 <defs>
  <clipPath id="p0293c0a6f2">
   <rect x="31.05" y="10.239375" width="202.99" height="146.2"/>
  </clipPath>
 </defs>
</svg>
