<?xml version="1.0" encoding="UTF-8" standalone="no"?>
<svg
   xmlns:dc="http://purl.org/dc/elements/1.1/"
   xmlns:cc="http://creativecommons.org/ns#"
   xmlns:rdf="http://www.w3.org/1999/02/22-rdf-syntax-ns#"
   xmlns:svg="http://www.w3.org/2000/svg"
   xmlns="http://www.w3.org/2000/svg"
   xmlns:sodipodi="http://sodipodi.sourceforge.net/DTD/sodipodi-0.dtd"
   xmlns:inkscape="http://www.inkscape.org/namespaces/inkscape"
   width="100.36351mm"
   height="13.434865mm"
   viewBox="0 0 100.36351 13.434865"
   version="1.1"
   id="svg8"
   inkscape:version="1.0.2 (e86c870879, 2021-01-15)"
   sodipodi:docname="libssa.svg">
  <defs
     id="defs2" />
  <sodipodi:namedview
     id="base"
     pagecolor="#ffffff"
     bordercolor="#666666"
     borderopacity="1.0"
     inkscape:pageopacity="0.0"
     inkscape:pageshadow="2"
     inkscape:zoom="2"
     inkscape:cx="170.31994"
     inkscape:cy="-19.190985"
     inkscape:document-units="mm"
     inkscape:current-layer="layer1"
     inkscape:document-rotation="0"
     showgrid="true"
     fit-margin-top="0"
     fit-margin-left="0"
     fit-margin-right="0"
     fit-margin-bottom="0"
     inkscape:window-width="1920"
     inkscape:window-height="1012"
     inkscape:window-x="0"
     inkscape:window-y="0"
     inkscape:window-maximized="1">
    <inkscape:grid
       type="xygrid"
       id="grid10"
       originx="-47.670864"
       originy="-53.429703" />
  </sodipodi:namedview>
  <metadata
     id="metadata5">
    <rdf:RDF>
      <cc:Work
         rdf:about="">
        <dc:format>image/svg+xml</dc:format>
        <dc:type
           rdf:resource="http://purl.org/dc/dcmitype/StillImage" />
        <dc:title />
      </cc:Work>
    </rdf:RDF>
  </metadata>
  <g
     inkscape:label="Layer 1"
     inkscape:groupmode="layer"
     id="layer1"
     transform="translate(-47.670865,-53.429703)">
    <g
       aria-label="L"
       id="text14"
       style="font-size:10.5833px;line-height:1.25;font-family:'PT Sans';-inkscape-font-specification:'PT Sans';stroke-width:0.264583"
       transform="translate(-0.044421,5.84e-4)">
      <path
         d="M 66.190254,63.455311 H 49.549729 47.715286 l 2.088442,-9.87777 h 1.834443 l -1.673927,7.893395 h 16.22601 l 80.697916,0.84487 c 0.66146,-0.007 0.66146,0.38986 0,0.397376 z"
         style="font-size:14.1111px;stroke-width:0.264583"
         id="path16"
         sodipodi:nodetypes="cccccccccc" />
    </g>
    <g
       aria-label="spectra analyzer"
       id="text27"
       style="font-size:9.87778px;line-height:1.25;font-family:'PT Sans';-inkscape-font-specification:'PT Sans';stroke-width:0.264583">
      <path
         d="m 66.390439,59.815247 q 0.197556,0.108656 0.503767,0.197556 0.316089,0.07902 0.661811,0.07902 0.345722,0 0.523522,-0.128411 0.187678,-0.138289 0.197556,-0.414867 0,-0.197556 -0.118533,-0.335845 -0.118534,-0.148166 -0.306212,-0.276577 -0.1778,-0.128412 -0.385233,-0.256823 -0.207433,-0.138289 -0.395111,-0.306211 -0.1778,-0.1778 -0.296334,-0.414867 -0.118533,-0.237066 -0.118533,-0.572911 0,-0.325967 0.128411,-0.602544 0.128411,-0.276578 0.3556,-0.474134 0.237067,-0.197555 0.563034,-0.306211 0.335844,-0.108656 0.750711,-0.108656 0.572911,0 0.948267,0.0889 0.375355,0.07902 0.592667,0.207434 l -0.335845,0.928511 q -0.197555,-0.0889 -0.484011,-0.148167 -0.276578,-0.05927 -0.582789,-0.05927 -0.316089,0 -0.503767,0.108655 -0.1778,0.108656 -0.1778,0.345723 0,0.158044 0.118533,0.286455 0.118534,0.118534 0.296334,0.246945 0.187678,0.128411 0.395111,0.2667 0.207433,0.128411 0.385233,0.316089 0.187678,0.187678 0.306212,0.434622 0.118533,0.237067 0.118533,0.572911 0,0.819856 -0.5334,1.224845 -0.5334,0.395111 -1.4224,0.395111 -0.503767,0 -0.928512,-0.09878 -0.414867,-0.0889 -0.642055,-0.227189 z"
         style="font-size:9.87778px;fill:#5500d4"
         id="path1049" />
      <path
         d="m 71.131772,56.032057 h 0.898878 l -0.04939,0.869245 h 0.03951 q 0.138288,-0.187678 0.316088,-0.365478 0.177801,-0.187678 0.395112,-0.325967 0.217311,-0.138289 0.464255,-0.227189 0.246945,-0.0889 0.5334,-0.0889 0.503767,0 0.809978,0.345723 0.306212,0.345722 0.306212,1.086555 0,0.839612 -0.227189,1.540934 -0.217311,0.691445 -0.592667,1.195212 -0.365478,0.493889 -0.869245,0.770466 -0.493889,0.276578 -1.037167,0.276578 -0.256822,0 -0.484011,-0.04939 -0.227189,-0.04939 -0.335844,-0.128411 l -0.424745,2.015067 h -1.205089 z m 0.375356,3.891846 q 0.246944,0.167922 0.553156,0.167922 0.306211,0 0.582789,-0.207434 0.276578,-0.207433 0.484011,-0.553155 0.217311,-0.345723 0.335844,-0.8001 0.128412,-0.464256 0.128412,-0.968023 0,-0.286455 -0.138289,-0.464255 -0.128412,-0.187678 -0.3556,-0.187678 -0.1778,0 -0.345723,0.0889 -0.167922,0.0889 -0.316089,0.227189 -0.148166,0.128411 -0.2667,0.296333 -0.118533,0.167922 -0.207433,0.325967 z"
         style="font-size:9.87778px;fill:#6c037f;fill-opacity:1"
         id="path1051" />
      <path
         d="m 78.895693,60.496814 q -0.306211,0.256822 -0.790222,0.434622 -0.484011,0.1778 -1.126067,0.1778 -0.8001,0 -1.264356,-0.464255 -0.454378,-0.474134 -0.454378,-1.313745 0,-0.790223 0.246945,-1.422401 0.246944,-0.642055 0.642055,-1.086555 0.404989,-0.4445 0.908756,-0.681567 0.503767,-0.246945 1.007534,-0.246945 0.404989,0 0.691444,0.108656 0.296334,0.09878 0.484012,0.286456 0.187677,0.1778 0.276577,0.414866 0.0889,0.237067 0.0889,0.503767 0,0.404989 -0.207433,0.7112 -0.207433,0.306211 -0.582789,0.513645 -0.365478,0.197555 -0.889,0.306211 -0.523523,0.09878 -1.145823,0.09878 -0.07902,0 -0.148166,0 -0.06914,-0.0099 -0.148167,-0.0099 -0.01976,0.118533 -0.02963,0.217311 -0.0099,0.0889 -0.0099,0.167922 0,0.444501 0.227189,0.661812 0.237066,0.217311 0.661811,0.217311 0.434622,0 0.780345,-0.128411 0.345722,-0.128411 0.523522,-0.256823 z m -2.232378,-2.439812 q 0.276578,0 0.582789,-0.01975 0.316089,-0.01976 0.582789,-0.0889 0.2667,-0.07902 0.4445,-0.217312 0.1778,-0.148166 0.1778,-0.395111 0,-0.148166 -0.108655,-0.296333 -0.108656,-0.158045 -0.454378,-0.158045 -0.434623,0 -0.760589,0.335845 -0.316089,0.335844 -0.464256,0.839611 z"
         style="font-size:9.87778px;fill:#902da6;fill-opacity:1"
         id="path1053" />
      <path
         d="m 83.409835,57.148246 q -0.187678,-0.108655 -0.395111,-0.148166 -0.197556,-0.03951 -0.434623,-0.03951 -0.2667,0 -0.523522,0.1778 -0.246945,0.167922 -0.454378,0.454378 -0.197555,0.276577 -0.316089,0.651933 -0.118533,0.375356 -0.118533,0.770467 0,0.503767 0.217311,0.770467 0.217311,0.256822 0.572911,0.256822 0.296334,0 0.543278,-0.0889 0.256822,-0.09878 0.454378,-0.217311 l 0.227189,0.829733 q -0.316089,0.237067 -0.740834,0.395111 -0.414866,0.148167 -0.829733,0.148167 -0.474134,0 -0.809978,-0.138289 -0.325967,-0.138289 -0.5334,-0.375355 -0.207434,-0.237067 -0.306211,-0.543278 -0.09878,-0.306211 -0.09878,-0.642056 0,-0.829733 0.237067,-1.481667 0.237066,-0.651933 0.6223,-1.096434 0.395111,-0.454377 0.889,-0.691444 0.503767,-0.246945 1.027289,-0.246945 0.464256,0 0.730956,0.0889 0.276578,0.0889 0.493889,0.197556 z"
         style="font-size:9.87778px;fill:#6865aa;fill-opacity:1"
         id="path1055" />
      <path
         d="m 84.229678,56.032057 h 0.642055 l 0.197556,-0.928511 1.293989,-0.365478 -0.276578,1.293989 h 1.155701 l -0.227189,1.017412 h -1.145823 l -0.484011,2.232378 q -0.05927,0.2667 -0.05927,0.434622 0,0.217311 0.09878,0.296334 0.09878,0.07902 0.296334,0.07902 0.187677,0 0.335844,-0.03951 0.158045,-0.03951 0.325967,-0.128411 v 0.908755 q -0.108656,0.05927 -0.2667,0.118534 -0.148167,0.04939 -0.325967,0.07902 -0.1778,0.03951 -0.365478,0.05927 -0.187678,0.01976 -0.345722,0.01976 -0.503767,0 -0.780345,-0.227189 -0.2667,-0.237066 -0.2667,-0.7112 0,-0.09878 0.0099,-0.207433 0.01976,-0.108656 0.03951,-0.227189 l 0.572911,-2.686756 h -0.661811 z"
         style="font-size:9.87778px;fill:#0507ee;fill-opacity:1"
         id="path1057" />
      <path
         d="m 88.882109,56.032057 0.0099,0.869245 h 0.03951 q 0.217311,-0.395111 0.523523,-0.671689 0.316088,-0.276578 0.790222,-0.276578 0.207433,0 0.493889,0.07902 l -0.306211,1.056923 q -0.09878,-0.02963 -0.187678,-0.04939 -0.0889,-0.01976 -0.187678,-0.01976 -0.404989,0 -0.750711,0.2667 -0.335845,0.256823 -0.513645,0.602545 l -0.642055,3.081867 h -1.214967 l 1.047044,-4.93889 z"
         style="font-size:9.87778px;fill:#05c8fe;fill-opacity:1"
         id="path1059" />
      <path
         d="m 94.532184,58.995391 q -0.07902,0.375356 -0.118533,0.760589 -0.02963,0.385234 -0.02963,0.730956 0,0.138289 0,0.2667 0.0099,0.118533 0.01976,0.227189 h -0.898878 l -0.138289,-0.849489 h -0.03951 q -0.108655,0.1778 -0.286455,0.3556 -0.167923,0.167922 -0.375356,0.316089 -0.207433,0.138289 -0.4445,0.217311 -0.227189,0.0889 -0.474134,0.0889 -0.651933,0 -0.968022,-0.424744 -0.306211,-0.424745 -0.306211,-1.135945 0,-0.721078 0.1778,-1.382889 0.187678,-0.661812 0.572911,-1.165578 0.385233,-0.503767 0.968022,-0.8001 0.592667,-0.306212 1.402645,-0.306212 0.345723,0 0.750712,0.06914 0.414866,0.05927 0.8001,0.167922 z m -2.321278,1.096434 q 0.1778,0 0.335845,-0.06914 0.158044,-0.07902 0.286455,-0.197555 0.138289,-0.118534 0.237067,-0.256822 0.108655,-0.138289 0.187678,-0.256823 l 0.493889,-2.301522 q -0.108656,-0.04939 -0.256823,-0.06914 -0.138288,-0.02963 -0.276577,-0.02963 -0.3556,0 -0.632178,0.217311 -0.276578,0.207433 -0.474134,0.553156 -0.187678,0.335844 -0.286455,0.770466 -0.09878,0.424745 -0.09878,0.859367 0,0.316089 0.09878,0.553156 0.108655,0.227189 0.385233,0.227189 z"
         style="font-size:9.87778px;fill:#00ad88;fill-opacity:1"
         id="path1061" />
      <path
         d="m 101.99975,58.995391 q -0.079,0.375356 -0.11853,0.760589 -0.0296,0.385234 -0.0296,0.730956 0,0.138289 0,0.2667 0.01,0.118533 0.0198,0.227189 h -0.89888 l -0.13828,-0.849489 h -0.0395 q -0.10865,0.1778 -0.28645,0.3556 -0.16792,0.167922 -0.37536,0.316089 -0.20743,0.138289 -0.444497,0.217311 -0.227189,0.0889 -0.474133,0.0889 -0.651934,0 -0.968023,-0.424744 -0.306211,-0.424745 -0.306211,-1.135945 0,-0.721078 0.1778,-1.382889 0.187678,-0.661812 0.572911,-1.165578 0.385234,-0.503767 0.968023,-0.8001 0.59267,-0.306212 1.40264,-0.306212 0.34573,0 0.75072,0.06914 0.41486,0.05927 0.8001,0.167922 z m -2.321275,1.096434 q 0.1778,0 0.335845,-0.06914 0.15804,-0.07902 0.28646,-0.197555 0.13828,-0.118534 0.23706,-0.256822 0.10866,-0.138289 0.18768,-0.256823 l 0.49389,-2.301522 q -0.10866,-0.04939 -0.25682,-0.06914 -0.13829,-0.02963 -0.27658,-0.02963 -0.3556,0 -0.63218,0.217311 -0.276577,0.207433 -0.474132,0.553156 -0.187678,0.335844 -0.286456,0.770466 -0.09878,0.424745 -0.09878,0.859367 0,0.316089 0.09878,0.553156 0.108656,0.227189 0.385233,0.227189 z"
         style="font-size:9.87778px;fill:#3c820a;fill-opacity:1"
         id="path1063" />
      <path
         d="m 105.53598,60.970947 0.65194,-3.062112 q 0.0593,-0.276577 0.0593,-0.484011 0,-0.217311 -0.0889,-0.335844 -0.0889,-0.128411 -0.32596,-0.128411 -0.1778,0 -0.3556,0.0889 -0.1778,0.0889 -0.33585,0.237066 -0.15804,0.148167 -0.29633,0.335845 -0.13829,0.1778 -0.23707,0.365478 l -0.63218,2.983089 h -1.21496 l 1.04704,-4.93889 h 0.91864 l -0.0494,0.869245 h 0.0395 q 0.12841,-0.158045 0.29633,-0.335845 0.1778,-0.1778 0.40499,-0.325966 0.22719,-0.148167 0.50377,-0.246945 0.28645,-0.09878 0.64205,-0.09878 0.4445,0 0.7112,0.246945 0.2667,0.237067 0.2667,0.8001 0,0.148167 -0.0197,0.316089 -0.01,0.167922 -0.0593,0.365478 l -0.7112,3.348567 z"
         style="font-size:9.87778px;fill:#ffd000;fill-opacity:1"
         id="path1065" />
      <path
         d="m 112.11458,58.995391 q -0.079,0.375356 -0.11853,0.760589 -0.0296,0.385234 -0.0296,0.730956 0,0.138289 0,0.2667 0.01,0.118533 0.0198,0.227189 h -0.89888 L 110.949,60.131336 h -0.0395 q -0.10865,0.1778 -0.28645,0.3556 -0.16793,0.167922 -0.37536,0.316089 -0.20743,0.138289 -0.4445,0.217311 -0.22719,0.0889 -0.47413,0.0889 -0.65194,0 -0.96802,-0.424744 -0.30622,-0.424745 -0.30622,-1.135945 0,-0.721078 0.1778,-1.382889 0.18768,-0.661812 0.57292,-1.165578 0.38523,-0.503767 0.96802,-0.8001 0.59266,-0.306212 1.40264,-0.306212 0.34573,0 0.75071,0.06914 0.41487,0.05927 0.8001,0.167922 z m -2.32128,1.096434 q 0.1778,0 0.33585,-0.06914 0.15804,-0.07902 0.28645,-0.197555 0.13829,-0.118534 0.23707,-0.256822 0.10866,-0.138289 0.18768,-0.256823 l 0.49389,-2.301522 q -0.10866,-0.04939 -0.25683,-0.06914 -0.13828,-0.02963 -0.27657,-0.02963 -0.3556,0 -0.63218,0.217311 -0.27658,0.207433 -0.47413,0.553156 -0.18768,0.335844 -0.28646,0.770466 -0.0988,0.424745 -0.0988,0.859367 0,0.316089 0.0988,0.553156 0.10866,0.227189 0.38523,0.227189 z"
         style="font-size:9.87778px;fill:#c06526;fill-opacity:1"
         id="path1067" />
      <path
         d="m 114.35682,59.509036 q -0.0593,0.286455 0,0.424744 0.0692,0.138289 0.21732,0.138289 0.27657,0 0.52352,-0.108655 l -0.0296,0.879122 q -0.1778,0.108656 -0.51364,0.1778 -0.33584,0.06914 -0.66181,0.06914 -0.42475,0 -0.65193,-0.158045 -0.21732,-0.167922 -0.21732,-0.612422 0,-0.227189 0.0593,-0.523523 l 1.21497,-5.73899 h 1.21496 z"
         style="font-size:9.87778px;fill:#ff302e;fill-opacity:1"
         id="path1069" />
      <path
         d="m 117.51771,58.807713 0.01,0.770467 h 0.0593 l 0.2667,-0.780344 1.34338,-2.765779 h 1.29399 l -2.37067,4.435123 q -0.29633,0.553156 -0.56303,1.017412 -0.25683,0.464255 -0.52353,0.8001 -0.2667,0.335845 -0.55315,0.523522 -0.28646,0.187678 -0.61242,0.187678 -0.43463,0 -0.65194,-0.148167 l 0.32597,-0.968022 q 0.0593,0.02963 0.11853,0.03951 0.0692,0.0099 0.12841,0.0099 0.23707,0 0.48402,-0.227189 0.24694,-0.227189 0.49388,-0.730956 l -0.92851,-4.93889 h 1.39277 z"
         style="font-size:9.87778px;fill:#a10502;fill-opacity:1"
         id="path1071" />
      <path
         d="m 127.73133,60.496814 q -0.30621,0.256822 -0.79022,0.434622 -0.48402,0.1778 -1.12607,0.1778 -0.8001,0 -1.26436,-0.464255 -0.45438,-0.474134 -0.45438,-1.313745 0,-0.790223 0.24695,-1.422401 0.24694,-0.642055 0.64205,-1.086555 0.40499,-0.4445 0.90876,-0.681567 0.50377,-0.246945 1.00753,-0.246945 0.40499,0 0.69145,0.108656 0.29633,0.09878 0.48401,0.286456 0.18768,0.1778 0.27658,0.414866 0.0889,0.237067 0.0889,0.503767 0,0.404989 -0.20744,0.7112 -0.20743,0.306211 -0.58278,0.513645 -0.36548,0.197555 -0.889,0.306211 -0.52353,0.09878 -1.14583,0.09878 -0.079,0 -0.14816,0 -0.0691,-0.0099 -0.14817,-0.0099 -0.0198,0.118533 -0.0296,0.217311 -0.01,0.0889 -0.01,0.167922 0,0.444501 0.22719,0.661812 0.23706,0.217311 0.66181,0.217311 0.43462,0 0.78034,-0.128411 0.34573,-0.128411 0.52353,-0.256823 z m -2.23238,-2.439812 q 0.27658,0 0.58279,-0.01975 0.31609,-0.01976 0.58279,-0.0889 0.2667,-0.07902 0.4445,-0.217312 0.1778,-0.148166 0.1778,-0.395111 0,-0.148166 -0.10866,-0.296333 -0.10865,-0.158045 -0.45438,-0.158045 -0.43462,0 -0.76059,0.335845 -0.31608,0.335844 -0.46425,0.839611 z"
         style="font-size:9.87778px;fill:#560a04;fill-opacity:1"
         id="path1075" />
      <g
         aria-label="z"
         id="text865"
         style="font-style:normal;font-weight:normal;font-size:9.87778px;line-height:1.25;font-family:sans-serif;fill:#000000;fill-opacity:1;stroke:none;stroke-width:0.0700044">
        <path
           d="m 119.93867,59.903762 2.2225,-2.36079 0.70132,-0.4445 h -2.33115 l 0.23706,-1.0668 h 3.67454 l -0.22719,1.0668 -2.27189,2.400301 -0.63218,0.404989 h 2.3114 l -0.22719,1.0668 h -3.67453 z"
           style="fill:#870001;fill-opacity:1"
           id="path871" />
      </g>
      <path
         d="m 130.48722,56.032057 0.01,0.869245 h 0.0395 q 0.21731,-0.395111 0.52352,-0.671689 0.31609,-0.276578 0.79023,-0.276578 0.20743,0 0.49388,0.07902 l -0.30621,1.056923 q -0.0988,-0.02963 -0.18767,-0.04939 -0.0889,-0.01976 -0.18768,-0.01976 -0.40499,0 -0.75071,0.2667 -0.33585,0.256823 -0.51365,0.602545 l -0.64205,3.081867 h -1.21497 l 1.04704,-4.93889 z"
         style="font-size:9.87778px;stroke-width:0.264583"
         id="path1077" />
    </g>
    <g
       aria-label="IBS"
       id="text21"
       style="font-size:10.5833px;line-height:1.25;font-family:'PT Sans';-inkscape-font-specification:'PT Sans';stroke-width:0.264583">
      <path
         d="m 52.91561,53.57787 h 1.365246 l -1.566328,7.408309 h -1.365246 z"
         style="font-size:10.5833px;stroke-width:0.264583"
         id="path38" />
      <path
         d="m 55.67785,53.630786 q 0.201083,-0.03175 0.455082,-0.0635 0.253999,-0.03175 0.539749,-0.05292 0.285749,-0.02117 0.582081,-0.03175 0.306916,-0.01058 0.592665,-0.01058 0.486832,0 0.89958,0.105833 0.423332,0.09525 0.719665,0.306915 0.306915,0.211666 0.476248,0.550332 0.179916,0.328082 0.179916,0.793747 0,0.349249 -0.116416,0.677332 -0.116416,0.317499 -0.338666,0.571498 -0.211666,0.253999 -0.518581,0.423332 -0.296333,0.169332 -0.677332,0.222249 v 0.05292 q 0.201083,0.04233 0.402166,0.15875 0.201083,0.105833 0.359832,0.285749 0.15875,0.169333 0.253999,0.412749 0.09525,0.232832 0.09525,0.529165 0,0.677331 -0.264583,1.164163 -0.264582,0.476248 -0.709081,0.783164 -0.444498,0.296332 -1.037163,0.444498 -0.592665,0.137583 -1.248829,0.137583 -0.169333,0 -0.444499,0 -0.264582,0 -0.571498,-0.02117 -0.306916,-0.01058 -0.613831,-0.04233 -0.306916,-0.03175 -0.560915,-0.09525 z m 0.01058,6.201814 q 0.04233,0.02117 0.148166,0.03175 0.116416,0.01058 0.243416,0.02117 0.137583,0 0.275166,0.01058 0.137582,0 0.232832,0 0.264583,0 0.539748,-0.0635 0.28575,-0.0635 0.507999,-0.211666 0.232832,-0.148166 0.380999,-0.380999 0.148166,-0.232833 0.148166,-0.571498 0,-0.264583 -0.116416,-0.433916 -0.116417,-0.169332 -0.306916,-0.264582 -0.1905,-0.105833 -0.444499,-0.137583 -0.243416,-0.04233 -0.507998,-0.04233 h -0.677331 z m 0.666748,-3.14324 h 0.455081 q 0.148167,0 0.349249,0 0.201083,-0.01058 0.338666,-0.03175 0.190499,-0.03175 0.402165,-0.105833 0.22225,-0.07408 0.391582,-0.211666 0.179916,-0.137583 0.296333,-0.349249 0.116416,-0.211666 0.116416,-0.529165 0,-0.455082 -0.306916,-0.624415 -0.296332,-0.169333 -0.761997,-0.169333 -0.275166,0 -0.507999,0.01058 -0.232832,0.01058 -0.359832,0.03175 z"
         style="font-size:10.5833px;stroke-width:0.264583"
         id="path40" />
      <path
         d="m 65.245142,55.070115 q -0.201083,-0.127 -0.592665,-0.253999 -0.391582,-0.137583 -0.867831,-0.137583 -0.243415,0 -0.476248,0.05292 -0.232833,0.04233 -0.412749,0.148166 -0.179916,0.105833 -0.285749,0.275166 -0.105833,0.169333 -0.105833,0.402166 0,0.306915 0.1905,0.518581 0.190499,0.211666 0.476248,0.402166 0.296332,0.179916 0.624415,0.370415 0.338665,0.1905 0.624414,0.444499 0.296333,0.253999 0.486832,0.613831 0.1905,0.349249 0.1905,0.867831 0,0.624414 -0.22225,1.079496 -0.211666,0.444499 -0.613831,0.730248 -0.391582,0.285749 -0.952497,0.412749 -0.550332,0.137583 -1.227663,0.137583 -0.370415,0 -0.709081,-0.04233 -0.328082,-0.04233 -0.613831,-0.105833 -0.285749,-0.0635 -0.507999,-0.137583 -0.211666,-0.08467 -0.338665,-0.158749 l 0.709081,-1.227663 q 0.105833,0.0635 0.275166,0.137583 0.169332,0.07408 0.380998,0.137583 0.22225,0.0635 0.476249,0.105833 0.253999,0.04233 0.507998,0.04233 0.296333,0 0.560915,-0.04233 0.264583,-0.05292 0.455082,-0.15875 0.201083,-0.116416 0.306916,-0.285749 0.116416,-0.169332 0.116416,-0.423332 0,-0.285749 -0.190499,-0.486831 -0.1905,-0.201083 -0.486832,-0.380999 -0.285749,-0.179916 -0.624415,-0.370416 -0.328082,-0.201082 -0.624415,-0.465665 -0.285749,-0.264582 -0.476248,-0.634998 -0.190499,-0.380999 -0.190499,-0.920747 0,-0.613831 0.211666,-1.047747 0.222249,-0.433915 0.592664,-0.709081 0.370416,-0.275165 0.867831,-0.402165 0.497415,-0.127 1.068913,-0.127 0.306916,0 0.613832,0.03175 0.306915,0.03175 0.582081,0.09525 0.275166,0.05292 0.507998,0.137583 0.232833,0.07408 0.391583,0.169333 z"
         style="font-size:10.5833px;stroke-width:0.264583"
         id="path42" />
    </g>
    <g
       id="g176">
      <circle
         style="fill:#808080;stroke-width:0.264583"
         id="path31"
         cx="147.83594"
         cy="62.507812"
         r="0.1984375" />
      <rect
         style="fill:#000000;stroke-width:0.591625"
         id="rect36"
         width="0.39687499"
         height="3.9687486"
         x="147.6375"
         y="62.838539"
         ry="0.1984375" />
      <rect
         style="fill:#000000;stroke-width:0.591624"
         id="rect36-3"
         width="0.39687499"
         height="3.9687488"
         x="147.6375"
         y="58.208332"
         ry="0.1984375" />
      <rect
         style="fill:#000000;stroke-width:0.591624"
         id="rect36-3-6"
         width="0.39687499"
         height="3.9687488"
         x="96.58857"
         y="123.05795"
         ry="0.1984375"
         transform="rotate(-30)" />
      <rect
         style="fill:#000000;stroke-width:0.591624"
         id="rect36-3-6-5"
         width="0.39687499"
         height="3.9687488"
         x="-22.052492"
         y="153.96404"
         ry="0.1984375"
         transform="rotate(-75)" />
      <rect
         style="fill:#000000;stroke-width:0.591624"
         id="rect36-3-6-6"
         width="0.39687499"
         height="3.9687488"
         x="159.09637"
         y="14.791248"
         ry="0.1984375"
         transform="matrix(0.8660254,0.5,0.5,-0.8660254,0,0)" />
      <rect
         style="fill:#000000;stroke-width:0.591624"
         id="rect36-3-6-5-2"
         width="0.39687499"
         height="3.9687488"
         x="98.703331"
         y="121.60761"
         ry="0.1984375"
         transform="matrix(0.25881905,0.96592583,0.96592583,-0.25881905,0,0)" />
      <circle
         style="fill:#808080;stroke-width:0.264583"
         id="path31-9"
         cx="145.14827"
         cy="57.937077"
         r="0.1984375" />
      <circle
         style="fill:#808080;stroke-width:0.264583"
         id="path31-1"
         cx="142.79889"
         cy="64.13726"
         r="0.1984375" />
    </g>
  </g>
</svg>
