<?xml version="1.0" encoding="utf-8" standalone="no"?>
<!DOCTYPE svg PUBLIC "-//W3C//DTD SVG 1.1//EN"
  "http://www.w3.org/Graphics/SVG/1.1/DTD/svg11.dtd">
<svg xmlns:xlink="http://www.w3.org/1999/xlink" width="622.005938pt" height="287.037813pt" viewBox="0 0 622.005938 287.037813" xmlns="http://www.w3.org/2000/svg" version="1.1">
 <metadata>
  <rdf:RDF xmlns:dc="http://purl.org/dc/elements/1.1/" xmlns:cc="http://creativecommons.org/ns#" xmlns:rdf="http://www.w3.org/1999/02/22-rdf-syntax-ns#">
   <cc:Work>
    <dc:type rdf:resource="http://purl.org/dc/dcmitype/StillImage"/>
    <dc:date>2023-12-13T17:24:32.381347</dc:date>
    <dc:format>image/svg+xml</dc:format>
    <dc:creator>
     <cc:Agent>
      <dc:title>Matplotlib v3.8.2, https://matplotlib.org/</dc:title>
     </cc:Agent>
    </dc:creator>
   </cc:Work>
  </rdf:RDF>
 </metadata>
 <defs>
  <style type="text/css">*{stroke-linejoin: round; stroke-linecap: butt}</style>
 </defs>
 <g id="figure_1">
  <g id="patch_1">
   <path d="M 0 287.037813 
L 622.005938 287.037813 
L 622.005938 0 
L 0 0 
z
" style="fill: #ffffff"/>
  </g>
  <g id="axes_1">
   <g id="patch_2">
    <path d="M 56.805938 244.078125 
L 614.805938 244.078125 
L 614.805938 22.318125 
L 56.805938 22.318125 
z
" style="fill: #ffffff"/>
   </g>
   <g id="matplotlib.axis_1">
    <g id="xtick_1">
     <g id="line2d_1">
      <path d="M 135.082375 244.078125 
L 135.082375 22.318125 
" clip-path="url(#ped4242032c)" style="fill: none; stroke: #cccccc; stroke-linecap: round"/>
     </g>
     <g id="text_1">
      <!-- 1000 -->
      <g style="fill: #262626" transform="translate(121.084875 261.936406) scale(0.11 -0.11)">
       <defs>
        <path id="DejaVuSans-31" d="M 794 531 
L 1825 531 
L 1825 4091 
L 703 3866 
L 703 4441 
L 1819 4666 
L 2450 4666 
L 2450 531 
L 3481 531 
L 3481 0 
L 794 0 
L 794 531 
z
" transform="scale(0.015625)"/>
        <path id="DejaVuSans-30" d="M 2034 4250 
Q 1547 4250 1301 3770 
Q 1056 3291 1056 2328 
Q 1056 1369 1301 889 
Q 1547 409 2034 409 
Q 2525 409 2770 889 
Q 3016 1369 3016 2328 
Q 3016 3291 2770 3770 
Q 2525 4250 2034 4250 
z
M 2034 4750 
Q 2819 4750 3233 4129 
Q 3647 3509 3647 2328 
Q 3647 1150 3233 529 
Q 2819 -91 2034 -91 
Q 1250 -91 836 529 
Q 422 1150 422 2328 
Q 422 3509 836 4129 
Q 1250 4750 2034 4750 
z
" transform="scale(0.015625)"/>
       </defs>
       <use xlink:href="#DejaVuSans-31"/>
       <use xlink:href="#DejaVuSans-30" x="63.623047"/>
       <use xlink:href="#DejaVuSans-30" x="127.246094"/>
       <use xlink:href="#DejaVuSans-30" x="190.869141"/>
      </g>
     </g>
    </g>
    <g id="xtick_2">
     <g id="line2d_2">
      <path d="M 250.110205 244.078125 
L 250.110205 22.318125 
" clip-path="url(#ped4242032c)" style="fill: none; stroke: #cccccc; stroke-linecap: round"/>
     </g>
     <g id="text_2">
      <!-- 1100 -->
      <g style="fill: #262626" transform="translate(236.112705 261.936406) scale(0.11 -0.11)">
       <use xlink:href="#DejaVuSans-31"/>
       <use xlink:href="#DejaVuSans-31" x="63.623047"/>
       <use xlink:href="#DejaVuSans-30" x="127.246094"/>
       <use xlink:href="#DejaVuSans-30" x="190.869141"/>
      </g>
     </g>
    </g>
    <g id="xtick_3">
     <g id="line2d_3">
      <path d="M 365.138034 244.078125 
L 365.138034 22.318125 
" clip-path="url(#ped4242032c)" style="fill: none; stroke: #cccccc; stroke-linecap: round"/>
     </g>
     <g id="text_3">
      <!-- 1200 -->
      <g style="fill: #262626" transform="translate(351.140534 261.936406) scale(0.11 -0.11)">
       <defs>
        <path id="DejaVuSans-32" d="M 1228 531 
L 3431 531 
L 3431 0 
L 469 0 
L 469 531 
Q 828 903 1448 1529 
Q 2069 2156 2228 2338 
Q 2531 2678 2651 2914 
Q 2772 3150 2772 3378 
Q 2772 3750 2511 3984 
Q 2250 4219 1831 4219 
Q 1534 4219 1204 4116 
Q 875 4013 500 3803 
L 500 4441 
Q 881 4594 1212 4672 
Q 1544 4750 1819 4750 
Q 2544 4750 2975 4387 
Q 3406 4025 3406 3419 
Q 3406 3131 3298 2873 
Q 3191 2616 2906 2266 
Q 2828 2175 2409 1742 
Q 1991 1309 1228 531 
z
" transform="scale(0.015625)"/>
       </defs>
       <use xlink:href="#DejaVuSans-31"/>
       <use xlink:href="#DejaVuSans-32" x="63.623047"/>
       <use xlink:href="#DejaVuSans-30" x="127.246094"/>
       <use xlink:href="#DejaVuSans-30" x="190.869141"/>
      </g>
     </g>
    </g>
    <g id="xtick_4">
     <g id="line2d_4">
      <path d="M 480.165863 244.078125 
L 480.165863 22.318125 
" clip-path="url(#ped4242032c)" style="fill: none; stroke: #cccccc; stroke-linecap: round"/>
     </g>
     <g id="text_4">
      <!-- 1300 -->
      <g style="fill: #262626" transform="translate(466.168363 261.936406) scale(0.11 -0.11)">
       <defs>
        <path id="DejaVuSans-33" d="M 2597 2516 
Q 3050 2419 3304 2112 
Q 3559 1806 3559 1356 
Q 3559 666 3084 287 
Q 2609 -91 1734 -91 
Q 1441 -91 1130 -33 
Q 819 25 488 141 
L 488 750 
Q 750 597 1062 519 
Q 1375 441 1716 441 
Q 2309 441 2620 675 
Q 2931 909 2931 1356 
Q 2931 1769 2642 2001 
Q 2353 2234 1838 2234 
L 1294 2234 
L 1294 2753 
L 1863 2753 
Q 2328 2753 2575 2939 
Q 2822 3125 2822 3475 
Q 2822 3834 2567 4026 
Q 2313 4219 1838 4219 
Q 1578 4219 1281 4162 
Q 984 4106 628 3988 
L 628 4550 
Q 988 4650 1302 4700 
Q 1616 4750 1894 4750 
Q 2613 4750 3031 4423 
Q 3450 4097 3450 3541 
Q 3450 3153 3228 2886 
Q 3006 2619 2597 2516 
z
" transform="scale(0.015625)"/>
       </defs>
       <use xlink:href="#DejaVuSans-31"/>
       <use xlink:href="#DejaVuSans-33" x="63.623047"/>
       <use xlink:href="#DejaVuSans-30" x="127.246094"/>
       <use xlink:href="#DejaVuSans-30" x="190.869141"/>
      </g>
     </g>
    </g>
    <g id="xtick_5">
     <g id="line2d_5">
      <path d="M 595.193693 244.078125 
L 595.193693 22.318125 
" clip-path="url(#ped4242032c)" style="fill: none; stroke: #cccccc; stroke-linecap: round"/>
     </g>
     <g id="text_5">
      <!-- 1400 -->
      <g style="fill: #262626" transform="translate(581.196193 261.936406) scale(0.11 -0.11)">
       <defs>
        <path id="DejaVuSans-34" d="M 2419 4116 
L 825 1625 
L 2419 1625 
L 2419 4116 
z
M 2253 4666 
L 3047 4666 
L 3047 1625 
L 3713 1625 
L 3713 1100 
L 3047 1100 
L 3047 0 
L 2419 0 
L 2419 1100 
L 313 1100 
L 313 1709 
L 2253 4666 
z
" transform="scale(0.015625)"/>
       </defs>
       <use xlink:href="#DejaVuSans-31"/>
       <use xlink:href="#DejaVuSans-34" x="63.623047"/>
       <use xlink:href="#DejaVuSans-30" x="127.246094"/>
       <use xlink:href="#DejaVuSans-30" x="190.869141"/>
      </g>
     </g>
    </g>
    <g id="text_6">
     <!-- Wavenumber (cm-1) -->
     <g style="fill: #262626" transform="translate(274.204688 277.342188) scale(0.12 -0.12)">
      <defs>
       <path id="DejaVuSans-57" d="M 213 4666 
L 850 4666 
L 1831 722 
L 2809 4666 
L 3519 4666 
L 4500 722 
L 5478 4666 
L 6119 4666 
L 4947 0 
L 4153 0 
L 3169 4050 
L 2175 0 
L 1381 0 
L 213 4666 
z
" transform="scale(0.015625)"/>
       <path id="DejaVuSans-61" d="M 2194 1759 
Q 1497 1759 1228 1600 
Q 959 1441 959 1056 
Q 959 750 1161 570 
Q 1363 391 1709 391 
Q 2188 391 2477 730 
Q 2766 1069 2766 1631 
L 2766 1759 
L 2194 1759 
z
M 3341 1997 
L 3341 0 
L 2766 0 
L 2766 531 
Q 2569 213 2275 61 
Q 1981 -91 1556 -91 
Q 1019 -91 701 211 
Q 384 513 384 1019 
Q 384 1609 779 1909 
Q 1175 2209 1959 2209 
L 2766 2209 
L 2766 2266 
Q 2766 2663 2505 2880 
Q 2244 3097 1772 3097 
Q 1472 3097 1187 3025 
Q 903 2953 641 2809 
L 641 3341 
Q 956 3463 1253 3523 
Q 1550 3584 1831 3584 
Q 2591 3584 2966 3190 
Q 3341 2797 3341 1997 
z
" transform="scale(0.015625)"/>
       <path id="DejaVuSans-76" d="M 191 3500 
L 800 3500 
L 1894 563 
L 2988 3500 
L 3597 3500 
L 2284 0 
L 1503 0 
L 191 3500 
z
" transform="scale(0.015625)"/>
       <path id="DejaVuSans-65" d="M 3597 1894 
L 3597 1613 
L 953 1613 
Q 991 1019 1311 708 
Q 1631 397 2203 397 
Q 2534 397 2845 478 
Q 3156 559 3463 722 
L 3463 178 
Q 3153 47 2828 -22 
Q 2503 -91 2169 -91 
Q 1331 -91 842 396 
Q 353 884 353 1716 
Q 353 2575 817 3079 
Q 1281 3584 2069 3584 
Q 2775 3584 3186 3129 
Q 3597 2675 3597 1894 
z
M 3022 2063 
Q 3016 2534 2758 2815 
Q 2500 3097 2075 3097 
Q 1594 3097 1305 2825 
Q 1016 2553 972 2059 
L 3022 2063 
z
" transform="scale(0.015625)"/>
       <path id="DejaVuSans-6e" d="M 3513 2113 
L 3513 0 
L 2938 0 
L 2938 2094 
Q 2938 2591 2744 2837 
Q 2550 3084 2163 3084 
Q 1697 3084 1428 2787 
Q 1159 2491 1159 1978 
L 1159 0 
L 581 0 
L 581 3500 
L 1159 3500 
L 1159 2956 
Q 1366 3272 1645 3428 
Q 1925 3584 2291 3584 
Q 2894 3584 3203 3211 
Q 3513 2838 3513 2113 
z
" transform="scale(0.015625)"/>
       <path id="DejaVuSans-75" d="M 544 1381 
L 544 3500 
L 1119 3500 
L 1119 1403 
Q 1119 906 1312 657 
Q 1506 409 1894 409 
Q 2359 409 2629 706 
Q 2900 1003 2900 1516 
L 2900 3500 
L 3475 3500 
L 3475 0 
L 2900 0 
L 2900 538 
Q 2691 219 2414 64 
Q 2138 -91 1772 -91 
Q 1169 -91 856 284 
Q 544 659 544 1381 
z
M 1991 3584 
L 1991 3584 
z
" transform="scale(0.015625)"/>
       <path id="DejaVuSans-6d" d="M 3328 2828 
Q 3544 3216 3844 3400 
Q 4144 3584 4550 3584 
Q 5097 3584 5394 3201 
Q 5691 2819 5691 2113 
L 5691 0 
L 5113 0 
L 5113 2094 
Q 5113 2597 4934 2840 
Q 4756 3084 4391 3084 
Q 3944 3084 3684 2787 
Q 3425 2491 3425 1978 
L 3425 0 
L 2847 0 
L 2847 2094 
Q 2847 2600 2669 2842 
Q 2491 3084 2119 3084 
Q 1678 3084 1418 2786 
Q 1159 2488 1159 1978 
L 1159 0 
L 581 0 
L 581 3500 
L 1159 3500 
L 1159 2956 
Q 1356 3278 1631 3431 
Q 1906 3584 2284 3584 
Q 2666 3584 2933 3390 
Q 3200 3197 3328 2828 
z
" transform="scale(0.015625)"/>
       <path id="DejaVuSans-62" d="M 3116 1747 
Q 3116 2381 2855 2742 
Q 2594 3103 2138 3103 
Q 1681 3103 1420 2742 
Q 1159 2381 1159 1747 
Q 1159 1113 1420 752 
Q 1681 391 2138 391 
Q 2594 391 2855 752 
Q 3116 1113 3116 1747 
z
M 1159 2969 
Q 1341 3281 1617 3432 
Q 1894 3584 2278 3584 
Q 2916 3584 3314 3078 
Q 3713 2572 3713 1747 
Q 3713 922 3314 415 
Q 2916 -91 2278 -91 
Q 1894 -91 1617 61 
Q 1341 213 1159 525 
L 1159 0 
L 581 0 
L 581 4863 
L 1159 4863 
L 1159 2969 
z
" transform="scale(0.015625)"/>
       <path id="DejaVuSans-72" d="M 2631 2963 
Q 2534 3019 2420 3045 
Q 2306 3072 2169 3072 
Q 1681 3072 1420 2755 
Q 1159 2438 1159 1844 
L 1159 0 
L 581 0 
L 581 3500 
L 1159 3500 
L 1159 2956 
Q 1341 3275 1631 3429 
Q 1922 3584 2338 3584 
Q 2397 3584 2469 3576 
Q 2541 3569 2628 3553 
L 2631 2963 
z
" transform="scale(0.015625)"/>
       <path id="DejaVuSans-20" transform="scale(0.015625)"/>
       <path id="DejaVuSans-28" d="M 1984 4856 
Q 1566 4138 1362 3434 
Q 1159 2731 1159 2009 
Q 1159 1288 1364 580 
Q 1569 -128 1984 -844 
L 1484 -844 
Q 1016 -109 783 600 
Q 550 1309 550 2009 
Q 550 2706 781 3412 
Q 1013 4119 1484 4856 
L 1984 4856 
z
" transform="scale(0.015625)"/>
       <path id="DejaVuSans-63" d="M 3122 3366 
L 3122 2828 
Q 2878 2963 2633 3030 
Q 2388 3097 2138 3097 
Q 1578 3097 1268 2742 
Q 959 2388 959 1747 
Q 959 1106 1268 751 
Q 1578 397 2138 397 
Q 2388 397 2633 464 
Q 2878 531 3122 666 
L 3122 134 
Q 2881 22 2623 -34 
Q 2366 -91 2075 -91 
Q 1284 -91 818 406 
Q 353 903 353 1747 
Q 353 2603 823 3093 
Q 1294 3584 2113 3584 
Q 2378 3584 2631 3529 
Q 2884 3475 3122 3366 
z
" transform="scale(0.015625)"/>
       <path id="DejaVuSans-2d" d="M 313 2009 
L 1997 2009 
L 1997 1497 
L 313 1497 
L 313 2009 
z
" transform="scale(0.015625)"/>
       <path id="DejaVuSans-29" d="M 513 4856 
L 1013 4856 
Q 1481 4119 1714 3412 
Q 1947 2706 1947 2009 
Q 1947 1309 1714 600 
Q 1481 -109 1013 -844 
L 513 -844 
Q 928 -128 1133 580 
Q 1338 1288 1338 2009 
Q 1338 2731 1133 3434 
Q 928 4138 513 4856 
z
" transform="scale(0.015625)"/>
      </defs>
      <use xlink:href="#DejaVuSans-57"/>
      <use xlink:href="#DejaVuSans-61" x="92.501953"/>
      <use xlink:href="#DejaVuSans-76" x="153.78125"/>
      <use xlink:href="#DejaVuSans-65" x="212.960938"/>
      <use xlink:href="#DejaVuSans-6e" x="274.484375"/>
      <use xlink:href="#DejaVuSans-75" x="337.863281"/>
      <use xlink:href="#DejaVuSans-6d" x="401.242188"/>
      <use xlink:href="#DejaVuSans-62" x="498.654297"/>
      <use xlink:href="#DejaVuSans-65" x="562.130859"/>
      <use xlink:href="#DejaVuSans-72" x="623.654297"/>
      <use xlink:href="#DejaVuSans-20" x="664.767578"/>
      <use xlink:href="#DejaVuSans-28" x="696.554688"/>
      <use xlink:href="#DejaVuSans-63" x="735.568359"/>
      <use xlink:href="#DejaVuSans-6d" x="790.548828"/>
      <use xlink:href="#DejaVuSans-2d" x="887.960938"/>
      <use xlink:href="#DejaVuSans-31" x="924.044922"/>
      <use xlink:href="#DejaVuSans-29" x="987.667969"/>
     </g>
    </g>
   </g>
   <g id="matplotlib.axis_2">
    <g id="ytick_1">
     <g id="line2d_6">
      <path d="M 56.805938 238.154334 
L 614.805938 238.154334 
" clip-path="url(#ped4242032c)" style="fill: none; stroke: #cccccc; stroke-linecap: round"/>
     </g>
     <g id="text_7">
      <!-- 0.46 -->
      <g style="fill: #262626" transform="translate(22.81375 242.333475) scale(0.11 -0.11)">
       <defs>
        <path id="DejaVuSans-2e" d="M 684 794 
L 1344 794 
L 1344 0 
L 684 0 
L 684 794 
z
" transform="scale(0.015625)"/>
        <path id="DejaVuSans-36" d="M 2113 2584 
Q 1688 2584 1439 2293 
Q 1191 2003 1191 1497 
Q 1191 994 1439 701 
Q 1688 409 2113 409 
Q 2538 409 2786 701 
Q 3034 994 3034 1497 
Q 3034 2003 2786 2293 
Q 2538 2584 2113 2584 
z
M 3366 4563 
L 3366 3988 
Q 3128 4100 2886 4159 
Q 2644 4219 2406 4219 
Q 1781 4219 1451 3797 
Q 1122 3375 1075 2522 
Q 1259 2794 1537 2939 
Q 1816 3084 2150 3084 
Q 2853 3084 3261 2657 
Q 3669 2231 3669 1497 
Q 3669 778 3244 343 
Q 2819 -91 2113 -91 
Q 1303 -91 875 529 
Q 447 1150 447 2328 
Q 447 3434 972 4092 
Q 1497 4750 2381 4750 
Q 2619 4750 2861 4703 
Q 3103 4656 3366 4563 
z
" transform="scale(0.015625)"/>
       </defs>
       <use xlink:href="#DejaVuSans-30"/>
       <use xlink:href="#DejaVuSans-2e" x="63.623047"/>
       <use xlink:href="#DejaVuSans-34" x="95.410156"/>
       <use xlink:href="#DejaVuSans-36" x="159.033203"/>
      </g>
     </g>
    </g>
    <g id="ytick_2">
     <g id="line2d_7">
      <path d="M 56.805938 206.38921 
L 614.805938 206.38921 
" clip-path="url(#ped4242032c)" style="fill: none; stroke: #cccccc; stroke-linecap: round"/>
     </g>
     <g id="text_8">
      <!-- 0.48 -->
      <g style="fill: #262626" transform="translate(22.81375 210.568351) scale(0.11 -0.11)">
       <defs>
        <path id="DejaVuSans-38" d="M 2034 2216 
Q 1584 2216 1326 1975 
Q 1069 1734 1069 1313 
Q 1069 891 1326 650 
Q 1584 409 2034 409 
Q 2484 409 2743 651 
Q 3003 894 3003 1313 
Q 3003 1734 2745 1975 
Q 2488 2216 2034 2216 
z
M 1403 2484 
Q 997 2584 770 2862 
Q 544 3141 544 3541 
Q 544 4100 942 4425 
Q 1341 4750 2034 4750 
Q 2731 4750 3128 4425 
Q 3525 4100 3525 3541 
Q 3525 3141 3298 2862 
Q 3072 2584 2669 2484 
Q 3125 2378 3379 2068 
Q 3634 1759 3634 1313 
Q 3634 634 3220 271 
Q 2806 -91 2034 -91 
Q 1263 -91 848 271 
Q 434 634 434 1313 
Q 434 1759 690 2068 
Q 947 2378 1403 2484 
z
M 1172 3481 
Q 1172 3119 1398 2916 
Q 1625 2713 2034 2713 
Q 2441 2713 2670 2916 
Q 2900 3119 2900 3481 
Q 2900 3844 2670 4047 
Q 2441 4250 2034 4250 
Q 1625 4250 1398 4047 
Q 1172 3844 1172 3481 
z
" transform="scale(0.015625)"/>
       </defs>
       <use xlink:href="#DejaVuSans-30"/>
       <use xlink:href="#DejaVuSans-2e" x="63.623047"/>
       <use xlink:href="#DejaVuSans-34" x="95.410156"/>
       <use xlink:href="#DejaVuSans-38" x="159.033203"/>
      </g>
     </g>
    </g>
    <g id="ytick_3">
     <g id="line2d_8">
      <path d="M 56.805938 174.624086 
L 614.805938 174.624086 
" clip-path="url(#ped4242032c)" style="fill: none; stroke: #cccccc; stroke-linecap: round"/>
     </g>
     <g id="text_9">
      <!-- 0.50 -->
      <g style="fill: #262626" transform="translate(22.81375 178.803227) scale(0.11 -0.11)">
       <defs>
        <path id="DejaVuSans-35" d="M 691 4666 
L 3169 4666 
L 3169 4134 
L 1269 4134 
L 1269 2991 
Q 1406 3038 1543 3061 
Q 1681 3084 1819 3084 
Q 2600 3084 3056 2656 
Q 3513 2228 3513 1497 
Q 3513 744 3044 326 
Q 2575 -91 1722 -91 
Q 1428 -91 1123 -41 
Q 819 9 494 109 
L 494 744 
Q 775 591 1075 516 
Q 1375 441 1709 441 
Q 2250 441 2565 725 
Q 2881 1009 2881 1497 
Q 2881 1984 2565 2268 
Q 2250 2553 1709 2553 
Q 1456 2553 1204 2497 
Q 953 2441 691 2322 
L 691 4666 
z
" transform="scale(0.015625)"/>
       </defs>
       <use xlink:href="#DejaVuSans-30"/>
       <use xlink:href="#DejaVuSans-2e" x="63.623047"/>
       <use xlink:href="#DejaVuSans-35" x="95.410156"/>
       <use xlink:href="#DejaVuSans-30" x="159.033203"/>
      </g>
     </g>
    </g>
    <g id="ytick_4">
     <g id="line2d_9">
      <path d="M 56.805938 142.858962 
L 614.805938 142.858962 
" clip-path="url(#ped4242032c)" style="fill: none; stroke: #cccccc; stroke-linecap: round"/>
     </g>
     <g id="text_10">
      <!-- 0.52 -->
      <g style="fill: #262626" transform="translate(22.81375 147.038103) scale(0.11 -0.11)">
       <use xlink:href="#DejaVuSans-30"/>
       <use xlink:href="#DejaVuSans-2e" x="63.623047"/>
       <use xlink:href="#DejaVuSans-35" x="95.410156"/>
       <use xlink:href="#DejaVuSans-32" x="159.033203"/>
      </g>
     </g>
    </g>
    <g id="ytick_5">
     <g id="line2d_10">
      <path d="M 56.805938 111.093838 
L 614.805938 111.093838 
" clip-path="url(#ped4242032c)" style="fill: none; stroke: #cccccc; stroke-linecap: round"/>
     </g>
     <g id="text_11">
      <!-- 0.54 -->
      <g style="fill: #262626" transform="translate(22.81375 115.272979) scale(0.11 -0.11)">
       <use xlink:href="#DejaVuSans-30"/>
       <use xlink:href="#DejaVuSans-2e" x="63.623047"/>
       <use xlink:href="#DejaVuSans-35" x="95.410156"/>
       <use xlink:href="#DejaVuSans-34" x="159.033203"/>
      </g>
     </g>
    </g>
    <g id="ytick_6">
     <g id="line2d_11">
      <path d="M 56.805938 79.328714 
L 614.805938 79.328714 
" clip-path="url(#ped4242032c)" style="fill: none; stroke: #cccccc; stroke-linecap: round"/>
     </g>
     <g id="text_12">
      <!-- 0.56 -->
      <g style="fill: #262626" transform="translate(22.81375 83.507854) scale(0.11 -0.11)">
       <use xlink:href="#DejaVuSans-30"/>
       <use xlink:href="#DejaVuSans-2e" x="63.623047"/>
       <use xlink:href="#DejaVuSans-35" x="95.410156"/>
       <use xlink:href="#DejaVuSans-36" x="159.033203"/>
      </g>
     </g>
    </g>
    <g id="ytick_7">
     <g id="line2d_12">
      <path d="M 56.805938 47.56359 
L 614.805938 47.56359 
" clip-path="url(#ped4242032c)" style="fill: none; stroke: #cccccc; stroke-linecap: round"/>
     </g>
     <g id="text_13">
      <!-- 0.58 -->
      <g style="fill: #262626" transform="translate(22.81375 51.74273) scale(0.11 -0.11)">
       <use xlink:href="#DejaVuSans-30"/>
       <use xlink:href="#DejaVuSans-2e" x="63.623047"/>
       <use xlink:href="#DejaVuSans-35" x="95.410156"/>
       <use xlink:href="#DejaVuSans-38" x="159.033203"/>
      </g>
     </g>
    </g>
    <g id="text_14">
     <!-- Absorbance -->
     <g style="fill: #262626" transform="translate(16.318125 168.654375) rotate(-90) scale(0.12 -0.12)">
      <defs>
       <path id="DejaVuSans-41" d="M 2188 4044 
L 1331 1722 
L 3047 1722 
L 2188 4044 
z
M 1831 4666 
L 2547 4666 
L 4325 0 
L 3669 0 
L 3244 1197 
L 1141 1197 
L 716 0 
L 50 0 
L 1831 4666 
z
" transform="scale(0.015625)"/>
       <path id="DejaVuSans-73" d="M 2834 3397 
L 2834 2853 
Q 2591 2978 2328 3040 
Q 2066 3103 1784 3103 
Q 1356 3103 1142 2972 
Q 928 2841 928 2578 
Q 928 2378 1081 2264 
Q 1234 2150 1697 2047 
L 1894 2003 
Q 2506 1872 2764 1633 
Q 3022 1394 3022 966 
Q 3022 478 2636 193 
Q 2250 -91 1575 -91 
Q 1294 -91 989 -36 
Q 684 19 347 128 
L 347 722 
Q 666 556 975 473 
Q 1284 391 1588 391 
Q 1994 391 2212 530 
Q 2431 669 2431 922 
Q 2431 1156 2273 1281 
Q 2116 1406 1581 1522 
L 1381 1569 
Q 847 1681 609 1914 
Q 372 2147 372 2553 
Q 372 3047 722 3315 
Q 1072 3584 1716 3584 
Q 2034 3584 2315 3537 
Q 2597 3491 2834 3397 
z
" transform="scale(0.015625)"/>
       <path id="DejaVuSans-6f" d="M 1959 3097 
Q 1497 3097 1228 2736 
Q 959 2375 959 1747 
Q 959 1119 1226 758 
Q 1494 397 1959 397 
Q 2419 397 2687 759 
Q 2956 1122 2956 1747 
Q 2956 2369 2687 2733 
Q 2419 3097 1959 3097 
z
M 1959 3584 
Q 2709 3584 3137 3096 
Q 3566 2609 3566 1747 
Q 3566 888 3137 398 
Q 2709 -91 1959 -91 
Q 1206 -91 779 398 
Q 353 888 353 1747 
Q 353 2609 779 3096 
Q 1206 3584 1959 3584 
z
" transform="scale(0.015625)"/>
      </defs>
      <use xlink:href="#DejaVuSans-41"/>
      <use xlink:href="#DejaVuSans-62" x="68.408203"/>
      <use xlink:href="#DejaVuSans-73" x="131.884766"/>
      <use xlink:href="#DejaVuSans-6f" x="183.984375"/>
      <use xlink:href="#DejaVuSans-72" x="245.166016"/>
      <use xlink:href="#DejaVuSans-62" x="286.279297"/>
      <use xlink:href="#DejaVuSans-61" x="349.755859"/>
      <use xlink:href="#DejaVuSans-6e" x="411.035156"/>
      <use xlink:href="#DejaVuSans-63" x="474.414062"/>
      <use xlink:href="#DejaVuSans-65" x="529.394531"/>
     </g>
    </g>
   </g>
   <g id="line2d_13">
    <path d="M 82.169574 222.607458 
L 83.319852 219.808575 
L 85.620409 220.086865 
L 86.770687 217.578634 
L 87.920965 213.75497 
L 89.071244 212.807931 
L 91.3718 209.726267 
L 93.672357 202.863555 
L 94.822635 200.933115 
L 97.123192 196.843296 
L 98.27347 190.555283 
L 99.423748 192.027859 
L 100.574027 186.30811 
L 102.874583 187.50639 
L 104.024861 183.380885 
L 105.17514 184.572228 
L 106.325418 180.515843 
L 109.776253 177.351666 
L 110.926531 173.835951 
L 113.227088 171.63546 
L 114.377366 169.736178 
L 115.527644 169.3116 
L 118.978479 161.710895 
L 120.128758 161.856963 
L 122.429314 157.433206 
L 124.729871 157.151162 
L 125.880149 154.25108 
L 127.030427 152.322593 
L 128.180706 149.433402 
L 130.481262 147.503559 
L 131.63154 143.399737 
L 132.781819 142.545853 
L 135.082375 140.334805 
L 136.232654 138.737459 
L 137.382932 141.017707 
L 138.53321 140.787305 
L 140.833767 138.437254 
L 141.984045 138.179335 
L 143.134323 136.708777 
L 144.284602 140.109543 
L 146.585158 138.092234 
L 147.735437 139.540027 
L 148.885715 138.086639 
L 151.186271 136.205788 
L 152.33655 137.612153 
L 153.486828 138.471575 
L 154.637106 135.836009 
L 156.937663 138.120481 
L 158.087941 141.842204 
L 160.388498 144.816649 
L 162.689054 144.719803 
L 163.839333 143.219423 
L 164.989611 149.369028 
L 167.290168 145.962738 
L 168.440446 152.102466 
L 169.590724 151.712177 
L 170.741002 157.166154 
L 173.041559 158.949301 
L 174.191837 157.976568 
L 175.342116 158.520628 
L 177.642672 161.958058 
L 178.79295 159.531364 
L 179.943229 163.341746 
L 181.093507 161.14333 
L 183.394064 159.716545 
L 184.544342 153.020438 
L 185.69462 149.580807 
L 187.995177 148.093583 
L 189.145455 142.565936 
L 190.295733 138.117344 
L 191.446012 132.453902 
L 193.746568 129.258377 
L 194.896847 123.618286 
L 196.047125 123.524006 
L 198.347681 122.436357 
L 199.49796 116.935229 
L 200.648238 117.450095 
L 201.798516 116.869917 
L 204.099073 118.682087 
L 205.249351 119.402689 
L 206.39963 120.854986 
L 208.700186 125.303696 
L 209.850464 126.317642 
L 211.000743 130.74456 
L 214.451578 134.718681 
L 215.601856 141.170795 
L 216.752134 143.799057 
L 219.052691 143.952479 
L 220.202969 150.336418 
L 221.353247 155.573813 
L 222.503526 157.708401 
L 224.804082 159.331144 
L 225.954361 163.304898 
L 227.104639 163.680571 
L 229.405195 162.523814 
L 230.555474 162.0785 
L 231.705752 163.434235 
L 234.006309 162.397803 
L 235.156587 163.033743 
L 236.306865 163.17291 
L 237.457143 167.663971 
L 239.7577 166.32785 
L 240.907978 167.797071 
L 242.058257 168.611624 
L 244.358813 168.769874 
L 245.509091 169.174141 
L 246.65937 170.826277 
L 248.959926 170.694096 
L 250.110205 172.693598 
L 251.260483 169.700765 
L 252.410761 173.925067 
L 254.711318 170.221222 
L 255.861596 170.054644 
L 257.011874 170.826806 
L 259.312431 170.214687 
L 260.462709 168.180596 
L 261.612988 168.930168 
L 263.913544 166.415815 
L 265.063822 166.861008 
L 266.214101 166.0388 
L 268.514657 162.788099 
L 269.664936 163.322883 
L 270.815214 159.30271 
L 271.965492 159.19925 
L 274.266049 155.383407 
L 275.416327 155.011323 
L 276.566605 153.085818 
L 278.867162 149.721595 
L 280.01744 145.596636 
L 281.167719 143.603264 
L 283.468275 143.511184 
L 285.768832 137.905005 
L 288.069388 138.93042 
L 289.219667 132.99576 
L 290.369945 134.422228 
L 292.670502 134.005565 
L 293.82078 132.278942 
L 294.971058 130.048573 
L 296.121336 132.303586 
L 298.421893 131.510305 
L 299.572171 126.572448 
L 300.72245 129.485732 
L 303.023006 127.858128 
L 304.173284 128.557734 
L 305.323563 126.380813 
L 307.624119 126.230662 
L 308.774398 125.119894 
L 309.924676 122.516273 
L 312.225232 122.72466 
L 313.375511 119.604391 
L 314.525789 117.831535 
L 316.826346 115.578861 
L 317.976624 110.793801 
L 319.126902 109.492175 
L 321.427459 106.433671 
L 323.728015 99.68988 
L 326.028572 98.144731 
L 327.17885 96.559489 
L 328.329129 94.219851 
L 330.629685 91.949567 
L 331.779963 88.573543 
L 332.930242 87.99676 
L 335.230798 88.201161 
L 336.381077 85.47597 
L 337.531355 84.964727 
L 339.831912 83.686505 
L 340.98219 82.265609 
L 342.132468 80.141086 
L 344.433025 82.291262 
L 345.583303 78.587102 
L 346.733581 78.169453 
L 349.034138 78.198879 
L 350.184416 75.636786 
L 351.334694 82.18095 
L 353.635251 79.238464 
L 354.785529 77.169179 
L 358.236364 78.08361 
L 359.386643 77.077872 
L 360.536921 79.913451 
L 362.837477 78.661955 
L 363.987756 77.883714 
L 365.138034 76.677724 
L 367.438591 77.154374 
L 368.588869 76.05605 
L 369.739147 78.660538 
L 372.039704 76.609195 
L 373.189982 75.412023 
L 374.34026 78.827624 
L 376.640817 77.187487 
L 377.791095 71.867711 
L 378.941373 74.401572 
L 381.24193 70.968382 
L 382.392208 75.336546 
L 383.542487 73.715946 
L 385.843043 73.907393 
L 386.993322 71.59612 
L 388.1436 73.659908 
L 390.444156 75.37009 
L 391.594435 72.509798 
L 393.894991 73.409097 
L 395.04527 71.663248 
L 396.195548 72.407133 
L 398.496104 73.303903 
L 399.646383 72.650291 
L 400.796661 72.404739 
L 403.097218 68.629225 
L 404.247496 73.784601 
L 405.397774 74.532346 
L 407.698331 74.389793 
L 408.848609 74.629646 
L 409.998887 74.170349 
L 412.299444 74.281688 
L 413.449722 75.09772 
L 414.600001 76.133121 
L 416.900557 74.07109 
L 418.050835 74.203233 
L 420.351392 76.652164 
L 421.50167 73.054719 
L 422.651949 76.800862 
L 424.952505 77.441092 
L 426.102784 78.316595 
L 427.253062 76.953961 
L 429.553618 76.984902 
L 430.703897 76.35045 
L 431.854175 75.962866 
L 434.154732 73.850482 
L 435.30501 74.109089 
L 437.605566 69.117219 
L 438.755845 68.965669 
L 439.906123 67.721663 
L 442.20668 65.71235 
L 443.356958 62.830793 
L 444.507236 61.910263 
L 446.807793 60.373144 
L 447.958071 56.68283 
L 449.108349 57.544378 
L 451.408906 57.294943 
L 452.559184 56.121995 
L 454.859741 56.763069 
L 456.010019 52.7758 
L 457.160297 52.356462 
L 459.460854 49.748288 
L 460.611132 49.308107 
L 461.761411 49.724951 
L 464.061967 47.787692 
L 465.212245 47.703101 
L 467.512802 46.485546 
L 468.66308 48.607137 
L 469.813359 44.505384 
L 472.113915 42.908356 
L 473.264194 41.179433 
L 474.414472 42.262087 
L 476.715028 43.024317 
L 477.865307 40.398715 
L 480.165863 38.801611 
L 481.316142 41.524377 
L 482.46642 40.083227 
L 484.766976 37.802212 
L 485.917255 41.41253 
L 487.067533 41.01832 
L 489.36809 38.875022 
L 490.518368 41.968235 
L 492.818925 40.536374 
L 493.969203 41.562764 
L 495.119481 40.127419 
L 497.420038 36.960352 
L 499.720594 39.416786 
L 502.021151 37.007253 
L 503.171429 39.60866 
L 505.471986 39.669475 
L 506.622264 39.437214 
L 507.772542 38.101112 
L 510.073099 38.832388 
L 511.223377 38.420647 
L 512.373655 35.461622 
L 514.674212 36.015664 
L 518.125047 37.489741 
L 519.275325 34.993579 
L 520.425604 36.917122 
L 522.72616 39.50432 
L 523.876438 40.26155 
L 526.176995 39.57353 
L 527.327273 39.376652 
L 528.477552 37.692253 
L 530.778108 36.280808 
L 531.928386 39.42509 
L 534.228943 39.89594 
L 535.379221 37.509091 
L 536.5295 39.142426 
L 538.830056 39.781227 
L 539.980335 36.801471 
L 541.130613 39.957857 
L 543.431169 37.525009 
L 544.581448 40.863247 
L 546.882004 37.354842 
L 548.032283 34.462751 
L 549.182561 41.923384 
L 551.483117 37.066739 
L 552.633396 37.649392 
L 554.933952 41.129504 
L 556.084231 39.34158 
L 557.234509 42.099075 
L 559.535066 42.36454 
L 560.685344 43.302005 
L 562.9859 42.97655 
L 564.136179 39.870239 
L 565.286457 46.770207 
L 567.587014 43.701289 
L 568.737292 43.833151 
L 571.037848 44.466395 
L 572.188127 48.017504 
L 573.338405 46.313576 
L 575.638962 47.490345 
L 576.78924 46.766172 
L 579.089796 49.61229 
L 580.240075 47.023109 
L 581.390353 49.158648 
L 583.69091 53.687067 
L 584.841188 53.388927 
L 587.141745 52.9077 
L 588.292023 52.22673 
L 589.442301 54.020338 
L 589.442301 54.020338 
" clip-path="url(#ped4242032c)" style="fill: none; stroke: #ff00ff; stroke-opacity: 0.5; stroke-width: 1.5; stroke-linecap: round"/>
   </g>
   <g id="line2d_14">
    <path d="M 82.169574 233.988508 
L 83.319852 233.858235 
L 85.620409 230.56599 
L 86.770687 230.993892 
L 87.920965 224.890254 
L 89.071244 225.455974 
L 91.3718 224.658999 
L 92.522079 218.249994 
L 93.672357 215.557679 
L 94.822635 213.884088 
L 97.123192 213.891788 
L 99.423748 206.324978 
L 102.874583 201.841073 
L 104.024861 193.18184 
L 105.17514 195.784382 
L 106.325418 190.079881 
L 108.625975 187.258889 
L 109.776253 184.958262 
L 110.926531 181.592531 
L 113.227088 187.364824 
L 114.377366 181.218908 
L 115.527644 178.715466 
L 116.677923 173.95684 
L 118.978479 172.319783 
L 120.128758 172.907945 
L 121.279036 166.522333 
L 122.429314 167.474823 
L 124.729871 166.24792 
L 125.880149 166.024635 
L 127.030427 159.969377 
L 128.180706 163.71107 
L 130.481262 156.564853 
L 131.63154 155.400495 
L 132.781819 153.678098 
L 135.082375 149.337468 
L 136.232654 149.07418 
L 137.382932 146.144668 
L 138.53321 144.362918 
L 140.833767 144.073867 
L 141.984045 142.084549 
L 143.134323 138.203784 
L 144.284602 139.630081 
L 146.585158 136.924991 
L 147.735437 138.930133 
L 148.885715 140.245503 
L 151.186271 137.779216 
L 152.33655 138.754579 
L 153.486828 136.916736 
L 154.637106 138.960005 
L 156.937663 133.858596 
L 158.087941 136.982637 
L 159.23822 137.766994 
L 160.388498 140.127687 
L 162.689054 139.16824 
L 163.839333 139.341384 
L 164.989611 141.347112 
L 167.290168 141.071287 
L 168.440446 142.38343 
L 169.590724 144.400675 
L 170.741002 145.526968 
L 173.041559 147.145529 
L 174.191837 150.456737 
L 175.342116 148.427525 
L 177.642672 152.915042 
L 178.79295 154.140936 
L 181.093507 159.479626 
L 183.394064 160.382835 
L 184.544342 163.439157 
L 185.69462 160.975511 
L 187.995177 163.161786 
L 189.145455 159.171323 
L 190.295733 157.06123 
L 191.446012 156.021123 
L 193.746568 152.7439 
L 194.896847 144.739275 
L 196.047125 144.622569 
L 198.347681 135.596809 
L 199.49796 133.108695 
L 200.648238 127.380998 
L 201.798516 125.795934 
L 204.099073 123.259534 
L 205.249351 120.392384 
L 206.39963 121.861832 
L 208.700186 117.68414 
L 209.850464 118.220927 
L 211.000743 119.373221 
L 212.151021 117.410603 
L 214.451578 122.519604 
L 215.601856 124.240384 
L 216.752134 127.113492 
L 219.052691 129.985927 
L 220.202969 131.819231 
L 221.353247 133.383086 
L 222.503526 139.628134 
L 224.804082 142.913341 
L 225.954361 145.145347 
L 227.104639 149.8033 
L 229.405195 152.693595 
L 230.555474 156.694529 
L 231.705752 159.604068 
L 234.006309 161.002696 
L 235.156587 164.880735 
L 236.306865 162.550732 
L 237.457143 164.961978 
L 239.7577 161.789192 
L 240.907978 164.595866 
L 242.058257 163.697712 
L 244.358813 161.677238 
L 245.509091 165.284967 
L 246.65937 163.260863 
L 248.959926 164.99473 
L 250.110205 165.0847 
L 251.260483 169.689688 
L 252.410761 168.563836 
L 254.711318 166.99595 
L 255.861596 167.843649 
L 257.011874 167.907984 
L 259.312431 171.895712 
L 260.462709 171.988739 
L 261.612988 173.455295 
L 263.913544 171.429799 
L 265.063822 171.295509 
L 266.214101 170.110032 
L 268.514657 172.760203 
L 269.664936 167.395074 
L 270.815214 168.208917 
L 274.266049 161.835681 
L 275.416327 164.053908 
L 276.566605 161.565766 
L 278.867162 158.372039 
L 280.01744 157.744353 
L 281.167719 156.082726 
L 283.468275 154.687051 
L 284.618553 155.00952 
L 285.768832 148.857281 
L 288.069388 146.352249 
L 289.219667 147.07064 
L 290.369945 139.63654 
L 292.670502 140.835118 
L 293.82078 137.558642 
L 294.971058 138.370432 
L 296.121336 133.175614 
L 298.421893 134.905442 
L 299.572171 136.160883 
L 300.72245 134.529198 
L 303.023006 135.336027 
L 304.173284 130.626432 
L 305.323563 129.368455 
L 307.624119 131.465714 
L 308.774398 129.703878 
L 309.924676 128.576432 
L 312.225232 128.625478 
L 313.375511 128.189232 
L 314.525789 124.783794 
L 316.826346 125.378634 
L 317.976624 121.042841 
L 319.126902 121.250355 
L 321.427459 118.24433 
L 322.577737 118.200786 
L 326.028572 111.975383 
L 327.17885 109.946248 
L 328.329129 105.100378 
L 330.629685 102.442301 
L 331.779963 102.83849 
L 332.930242 97.778372 
L 335.230798 96.777193 
L 336.381077 94.077359 
L 337.531355 93.910782 
L 339.831912 89.31397 
L 340.98219 89.245709 
L 342.132468 86.281501 
L 344.433025 85.253864 
L 345.583303 81.257445 
L 346.733581 80.970169 
L 349.034138 77.736299 
L 350.184416 82.306346 
L 351.334694 81.0874 
L 353.635251 83.072454 
L 354.785529 77.613197 
L 355.935808 77.674967 
L 358.236364 80.274681 
L 359.386643 77.98687 
L 360.536921 78.09907 
L 362.837477 78.865151 
L 363.987756 78.873377 
L 367.438591 76.951245 
L 368.588869 77.417535 
L 372.039704 77.457566 
L 373.189982 78.164263 
L 374.34026 77.795825 
L 376.640817 74.375078 
L 377.791095 75.408152 
L 378.941373 78.367696 
L 381.24193 75.384665 
L 382.392208 75.528406 
L 383.542487 75.836758 
L 385.843043 74.969048 
L 386.993322 73.321596 
L 388.1436 73.195476 
L 390.444156 73.801469 
L 391.594435 75.490588 
L 393.894991 73.811376 
L 395.04527 72.047944 
L 396.195548 76.190292 
L 398.496104 72.716141 
L 399.646383 72.799584 
L 400.796661 73.181701 
L 403.097218 71.455349 
L 404.247496 73.623536 
L 405.397774 72.987279 
L 407.698331 74.861667 
L 408.848609 70.630008 
L 409.998887 71.444808 
L 413.449722 73.196596 
L 414.600001 72.83083 
L 416.900557 74.876081 
L 418.050835 72.335827 
L 420.351392 73.941439 
L 421.50167 72.762633 
L 422.651949 77.727172 
L 424.952505 72.101845 
L 426.102784 75.56068 
L 427.253062 75.893014 
L 429.553618 77.422503 
L 430.703897 79.360015 
L 431.854175 77.038561 
L 434.154732 79.663438 
L 435.30501 76.406065 
L 437.605566 73.950333 
L 438.755845 76.119268 
L 439.906123 74.178372 
L 442.20668 75.887376 
L 443.356958 75.560441 
L 444.507236 69.591604 
L 446.807793 69.594539 
L 447.958071 68.745357 
L 449.108349 67.456238 
L 451.408906 63.911331 
L 452.559184 63.755756 
L 454.859741 61.882781 
L 456.010019 58.067197 
L 457.160297 59.084422 
L 459.460854 59.854231 
L 460.611132 56.564446 
L 464.061967 53.467447 
L 465.212245 52.77368 
L 467.512802 52.174722 
L 468.66308 49.774287 
L 469.813359 48.944391 
L 472.113915 48.994045 
L 473.264194 47.18597 
L 477.865307 44.314513 
L 480.165863 43.722633 
L 481.316142 43.563679 
L 482.46642 43.047953 
L 484.766976 43.50854 
L 485.917255 41.125179 
L 487.067533 42.221125 
L 489.36809 41.177082 
L 490.518368 43.075711 
L 492.818925 40.339788 
L 493.969203 42.174527 
L 497.420038 37.007347 
L 498.570316 39.283456 
L 499.720594 42.326103 
L 502.021151 40.617677 
L 503.171429 40.097371 
L 505.471986 39.650315 
L 506.622264 42.503833 
L 507.772542 40.994058 
L 510.073099 35.599711 
L 511.223377 38.635765 
L 512.373655 39.988179 
L 514.674212 39.328918 
L 515.82449 39.788629 
L 518.125047 36.990442 
L 519.275325 34.591311 
L 520.425604 38.259096 
L 522.72616 36.569295 
L 523.876438 36.85059 
L 526.176995 39.633086 
L 527.327273 36.790318 
L 528.477552 37.258614 
L 530.778108 40.1344 
L 531.928386 37.794996 
L 534.228943 36.211073 
L 535.379221 39.564256 
L 536.5295 38.360025 
L 538.830056 41.067784 
L 539.980335 39.547812 
L 541.130613 39.728645 
L 543.431169 39.200977 
L 544.581448 38.734419 
L 546.882004 38.602897 
L 548.032283 39.347559 
L 549.182561 38.562779 
L 551.483117 36.171343 
L 552.633396 38.497847 
L 554.933952 36.647178 
L 556.084231 39.569822 
L 557.234509 39.053923 
L 559.535066 37.778409 
L 560.685344 35.013389 
L 562.9859 38.592123 
L 564.136179 41.02228 
L 567.587014 41.107936 
L 568.737292 40.218485 
L 571.037848 43.276816 
L 572.188127 42.908836 
L 573.338405 47.580026 
L 575.638962 42.793003 
L 576.78924 46.645861 
L 579.089796 46.497632 
L 580.240075 45.826457 
L 581.390353 44.934595 
L 583.69091 47.713729 
L 584.841188 46.290752 
L 587.141745 52.666004 
L 588.292023 46.976919 
L 589.442301 49.361279 
L 589.442301 49.361279 
" clip-path="url(#ped4242032c)" style="fill: none; stroke: #ff00ff; stroke-opacity: 0.5; stroke-width: 1.5; stroke-linecap: round"/>
   </g>
   <g id="line2d_15">
    <path d="M 82.169574 222.720827 
L 83.319852 224.732271 
L 85.620409 222.899733 
L 86.770687 219.593456 
L 87.920965 216.729907 
L 89.071244 217.052085 
L 91.3718 209.936235 
L 92.522079 210.537363 
L 93.672357 207.801532 
L 94.822635 202.603188 
L 97.123192 198.329273 
L 98.27347 196.704787 
L 99.423748 190.589673 
L 100.574027 188.384853 
L 102.874583 187.765782 
L 104.024861 185.100563 
L 105.17514 185.233456 
L 106.325418 182.072085 
L 108.625975 181.889222 
L 109.776253 178.390913 
L 110.926531 175.614254 
L 113.227088 174.497235 
L 114.377366 174.706368 
L 115.527644 169.46533 
L 116.677923 169.172494 
L 118.978479 164.424104 
L 120.128758 165.456794 
L 121.279036 164.083151 
L 122.429314 159.311693 
L 124.729871 158.382586 
L 125.880149 152.687902 
L 127.030427 151.385991 
L 128.180706 152.22798 
L 131.63154 145.341943 
L 132.781819 142.378518 
L 135.082375 141.103591 
L 136.232654 139.314522 
L 137.382932 139.252224 
L 138.53321 139.679502 
L 140.833767 138.484388 
L 141.984045 138.852963 
L 143.134323 138.574597 
L 144.284602 137.268469 
L 146.585158 136.444478 
L 147.735437 138.284527 
L 148.885715 137.106903 
L 151.186271 137.854434 
L 152.33655 138.817256 
L 153.486828 136.706095 
L 154.637106 137.9866 
L 158.087941 140.388068 
L 159.23822 141.91639 
L 160.388498 140.487738 
L 162.689054 143.186058 
L 163.839333 143.232279 
L 164.989611 146.527115 
L 167.290168 147.992868 
L 168.440446 152.309275 
L 169.590724 146.954877 
L 170.741002 156.059914 
L 173.041559 152.33609 
L 174.191837 156.016489 
L 175.342116 157.480642 
L 177.642672 158.235641 
L 178.79295 159.966114 
L 179.943229 162.756932 
L 181.093507 164.171163 
L 183.394064 160.494968 
L 184.544342 160.856618 
L 185.69462 153.265373 
L 187.995177 147.41596 
L 189.145455 146.176627 
L 190.295733 142.656377 
L 191.446012 136.6354 
L 193.746568 132.575536 
L 194.896847 127.201664 
L 196.047125 124.332402 
L 198.347681 122.304311 
L 199.49796 123.188868 
L 200.648238 119.747949 
L 201.798516 118.241272 
L 204.099073 120.551595 
L 205.249351 119.01033 
L 206.39963 118.808502 
L 208.700186 122.069858 
L 209.850464 123.144259 
L 211.000743 124.525512 
L 212.151021 129.379066 
L 214.451578 131.512549 
L 215.601856 135.338534 
L 216.752134 139.739251 
L 219.052691 141.270481 
L 220.202969 145.319509 
L 221.353247 150.007037 
L 222.503526 150.974953 
L 224.804082 156.937979 
L 225.954361 158.979302 
L 227.104639 159.995707 
L 229.405195 162.240958 
L 230.555474 161.870474 
L 231.705752 165.44593 
L 234.006309 163.039029 
L 235.156587 163.749253 
L 236.306865 161.354402 
L 237.457143 164.173834 
L 239.7577 162.512446 
L 240.907978 162.350635 
L 242.058257 163.242684 
L 244.358813 167.566898 
L 245.509091 166.994809 
L 246.65937 167.347911 
L 248.959926 169.224235 
L 250.110205 170.315413 
L 251.260483 172.349873 
L 252.410761 172.837518 
L 254.711318 170.432027 
L 255.861596 169.713928 
L 257.011874 171.137269 
L 259.312431 169.912545 
L 260.462709 171.891093 
L 263.913544 167.67205 
L 265.063822 167.458884 
L 266.214101 163.273247 
L 268.514657 162.599211 
L 269.664936 166.375169 
L 271.965492 158.408095 
L 274.266049 155.981056 
L 275.416327 155.669032 
L 278.867162 151.986685 
L 280.01744 147.484218 
L 281.167719 146.407204 
L 283.468275 141.628794 
L 284.618553 141.537237 
L 285.768832 140.42447 
L 288.069388 137.525072 
L 289.219667 137.785144 
L 290.369945 135.2248 
L 292.670502 133.521479 
L 293.82078 136.023058 
L 294.971058 131.071697 
L 296.121336 129.582294 
L 299.572171 131.589929 
L 300.72245 129.706637 
L 303.023006 126.567582 
L 304.173284 129.223772 
L 305.323563 131.063502 
L 307.624119 125.875334 
L 308.774398 124.941074 
L 309.924676 124.991678 
L 312.225232 127.084224 
L 314.525789 119.695608 
L 316.826346 116.790718 
L 317.976624 114.628926 
L 319.126902 111.030293 
L 321.427459 108.156375 
L 322.577737 107.351473 
L 323.728015 101.260276 
L 326.028572 100.323497 
L 327.17885 99.327156 
L 328.329129 99.4223 
L 330.629685 94.397781 
L 331.779963 92.637802 
L 332.930242 91.767621 
L 335.230798 88.779145 
L 336.381077 89.032601 
L 337.531355 84.874623 
L 339.831912 80.57411 
L 340.98219 82.05067 
L 342.132468 82.082497 
L 344.433025 79.504052 
L 345.583303 81.569374 
L 346.733581 77.630003 
L 349.034138 79.117619 
L 350.184416 76.384189 
L 351.334694 80.121643 
L 353.635251 75.206029 
L 354.785529 78.426149 
L 355.935808 79.779237 
L 358.236364 78.261393 
L 359.386643 76.539713 
L 360.536921 77.452794 
L 362.837477 76.33243 
L 363.987756 78.411354 
L 365.138034 79.123705 
L 367.438591 77.905291 
L 368.588869 75.352643 
L 369.739147 79.249662 
L 372.039704 77.637667 
L 373.189982 79.946805 
L 374.34026 75.686464 
L 376.640817 77.208884 
L 377.791095 75.955041 
L 378.941373 76.704883 
L 381.24193 76.343276 
L 382.392208 74.254256 
L 383.542487 73.874404 
L 385.843043 73.860305 
L 386.993322 71.335224 
L 388.1436 74.635251 
L 390.444156 75.259603 
L 391.594435 75.38421 
L 393.894991 72.686807 
L 395.04527 73.300008 
L 396.195548 72.53509 
L 399.646383 71.509249 
L 400.796661 73.898633 
L 403.097218 71.872031 
L 404.247496 71.303118 
L 405.397774 71.282154 
L 407.698331 69.660704 
L 408.848609 73.639125 
L 409.998887 72.937754 
L 412.299444 71.018113 
L 413.449722 72.187306 
L 414.600001 76.563557 
L 416.900557 73.058535 
L 418.050835 76.001686 
L 420.351392 77.553375 
L 421.50167 72.377791 
L 422.651949 71.188026 
L 424.952505 74.429191 
L 426.102784 77.622022 
L 427.253062 77.728093 
L 429.553618 75.383721 
L 430.703897 77.365231 
L 431.854175 75.775193 
L 434.154732 73.787577 
L 435.30501 76.76173 
L 437.605566 71.08631 
L 438.755845 74.809918 
L 439.906123 69.718925 
L 442.20668 69.425431 
L 443.356958 67.299051 
L 444.507236 65.987529 
L 446.807793 61.065976 
L 447.958071 60.259847 
L 449.108349 59.139959 
L 451.408906 57.989143 
L 452.559184 56.122647 
L 454.859741 55.58392 
L 456.010019 55.800465 
L 457.160297 50.938778 
L 459.460854 54.765632 
L 460.611132 52.85428 
L 461.761411 47.817517 
L 464.061967 49.258496 
L 465.212245 52.133748 
L 467.512802 48.604235 
L 468.66308 49.703276 
L 469.813359 46.790611 
L 472.113915 46.521423 
L 473.264194 42.809863 
L 474.414472 45.637469 
L 476.715028 45.283499 
L 477.865307 43.118802 
L 480.165863 40.859951 
L 482.46642 39.717791 
L 484.766976 40.040384 
L 485.917255 39.897151 
L 487.067533 41.535249 
L 489.36809 37.550752 
L 490.518368 41.19726 
L 492.818925 39.350394 
L 493.969203 40.507118 
L 495.119481 37.581158 
L 497.420038 38.145192 
L 498.570316 39.229356 
L 499.720594 40.972076 
L 502.021151 38.968074 
L 505.471986 37.408254 
L 506.622264 36.536487 
L 507.772542 35.399491 
L 510.073099 37.723954 
L 511.223377 36.854346 
L 512.373655 39.998888 
L 514.674212 37.706188 
L 515.82449 37.874781 
L 518.125047 34.988872 
L 519.275325 40.166048 
L 520.425604 36.580308 
L 522.72616 39.136332 
L 523.876438 39.296576 
L 526.176995 37.115676 
L 527.327273 38.36793 
L 528.477552 38.408449 
L 530.778108 37.848075 
L 531.928386 38.092633 
L 534.228943 39.837162 
L 535.379221 35.927311 
L 536.5295 36.0922 
L 538.830056 42.708436 
L 539.980335 41.073003 
L 541.130613 37.175593 
L 543.431169 40.927506 
L 544.581448 36.520706 
L 546.882004 40.138502 
L 548.032283 39.974613 
L 549.182561 35.985138 
L 551.483117 41.338421 
L 552.633396 39.617045 
L 554.933952 39.690722 
L 556.084231 40.738876 
L 557.234509 39.861869 
L 559.535066 41.896459 
L 560.685344 40.138868 
L 562.9859 43.116667 
L 564.136179 42.290745 
L 565.286457 44.269924 
L 567.587014 43.585195 
L 568.737292 46.519426 
L 571.037848 43.777298 
L 572.188127 44.393389 
L 573.338405 45.7707 
L 575.638962 49.447488 
L 576.78924 47.129997 
L 579.089796 49.992806 
L 580.240075 51.955136 
L 581.390353 49.569094 
L 583.69091 48.802209 
L 584.841188 54.116202 
L 587.141745 52.681243 
L 588.292023 52.64861 
L 589.442301 53.50462 
L 589.442301 53.50462 
" clip-path="url(#ped4242032c)" style="fill: none; stroke: #ff00ff; stroke-opacity: 0.5; stroke-width: 1.5; stroke-linecap: round"/>
   </g>
   <g id="line2d_16">
    <path d="M 82.169574 231.068868 
L 85.620409 228.181102 
L 86.770687 226.262242 
L 87.920965 223.617336 
L 89.071244 217.217402 
L 91.3718 216.212394 
L 92.522079 210.862783 
L 93.672357 212.793049 
L 94.822635 208.08249 
L 97.123192 205.530236 
L 98.27347 201.249807 
L 99.423748 197.433666 
L 100.574027 196.560629 
L 102.874583 189.142791 
L 104.024861 190.527674 
L 105.17514 185.525135 
L 106.325418 186.48084 
L 108.625975 184.850487 
L 110.926531 181.868618 
L 114.377366 173.166297 
L 116.677923 172.623966 
L 120.128758 169.813166 
L 122.429314 162.475344 
L 124.729871 162.887023 
L 125.880149 161.605382 
L 127.030427 157.643775 
L 128.180706 153.244843 
L 130.481262 153.182052 
L 131.63154 148.97298 
L 132.781819 149.468568 
L 135.082375 146.486134 
L 136.232654 144.055297 
L 137.382932 140.576638 
L 138.53321 142.35173 
L 140.833767 141.292684 
L 141.984045 137.599429 
L 143.134323 137.842036 
L 144.284602 139.195947 
L 146.585158 140.947299 
L 147.735437 138.954196 
L 148.885715 136.053007 
L 151.186271 137.738893 
L 152.33655 139.51489 
L 153.486828 137.865762 
L 154.637106 140.252843 
L 156.937663 139.099386 
L 158.087941 137.047724 
L 159.23822 138.077651 
L 160.388498 139.981433 
L 162.689054 139.911028 
L 163.839333 140.925449 
L 164.989611 140.388256 
L 167.290168 145.030549 
L 168.440446 145.850983 
L 169.590724 145.785622 
L 170.741002 147.396703 
L 173.041559 149.892872 
L 174.191837 151.518095 
L 175.342116 158.374808 
L 177.642672 154.08447 
L 178.79295 158.125182 
L 179.943229 155.542718 
L 181.093507 158.020724 
L 183.394064 162.119484 
L 185.69462 158.382696 
L 187.995177 160.18102 
L 191.446012 143.054429 
L 193.746568 139.368132 
L 194.896847 136.74674 
L 196.047125 132.063257 
L 198.347681 128.241355 
L 199.49796 124.256578 
L 201.798516 118.59844 
L 204.099073 117.777224 
L 205.249351 117.018929 
L 206.39963 115.754062 
L 208.700186 117.810461 
L 209.850464 121.982453 
L 211.000743 119.597239 
L 212.151021 120.527001 
L 214.451578 127.910796 
L 215.601856 129.982477 
L 216.752134 132.433175 
L 219.052691 136.22583 
L 220.202969 140.55593 
L 221.353247 140.632809 
L 222.503526 146.585791 
L 224.804082 148.086328 
L 225.954361 153.94289 
L 227.104639 154.578168 
L 229.405195 159.80141 
L 230.555474 159.867402 
L 231.705752 162.548775 
L 234.006309 162.701785 
L 235.156587 165.148828 
L 236.306865 162.448158 
L 237.457143 158.668009 
L 239.7577 165.111246 
L 240.907978 161.408036 
L 242.058257 163.917436 
L 244.358813 166.362782 
L 245.509091 166.751558 
L 246.65937 165.034918 
L 248.959926 163.37086 
L 251.260483 170.171179 
L 252.410761 168.08254 
L 254.711318 172.605125 
L 255.861596 169.008361 
L 257.011874 172.682193 
L 259.312431 171.545805 
L 260.462709 170.430914 
L 261.612988 169.894636 
L 263.913544 169.324295 
L 265.063822 170.7663 
L 266.214101 168.640081 
L 268.514657 169.845604 
L 269.664936 170.216174 
L 270.815214 159.846826 
L 271.965492 162.005059 
L 274.266049 163.378165 
L 275.416327 160.159621 
L 276.566605 159.110463 
L 278.867162 156.485031 
L 280.01744 154.083535 
L 281.167719 148.599881 
L 283.468275 149.19363 
L 284.618553 146.861334 
L 285.768832 140.167882 
L 288.069388 142.917953 
L 289.219667 137.632752 
L 290.369945 135.63648 
L 292.670502 135.753559 
L 293.82078 133.957827 
L 294.971058 136.753316 
L 296.121336 134.126103 
L 298.421893 132.440513 
L 299.572171 131.953915 
L 300.72245 131.196109 
L 303.023006 128.251182 
L 305.323563 130.481766 
L 307.624119 126.340193 
L 308.774398 126.916131 
L 309.924676 127.337128 
L 312.225232 125.432496 
L 313.375511 127.640602 
L 314.525789 122.622835 
L 316.826346 120.77238 
L 317.976624 119.195382 
L 319.126902 116.781349 
L 321.427459 116.567555 
L 323.728015 106.630233 
L 326.028572 104.467095 
L 327.17885 100.376955 
L 328.329129 99.717569 
L 330.629685 99.276898 
L 331.779963 96.078751 
L 332.930242 95.252006 
L 335.230798 92.433585 
L 336.381077 91.664897 
L 337.531355 87.147591 
L 339.831912 87.795222 
L 340.98219 84.457786 
L 342.132468 83.705293 
L 344.433025 81.222926 
L 345.583303 84.870405 
L 346.733581 79.894855 
L 349.034138 81.149388 
L 350.184416 78.32931 
L 351.334694 81.572776 
L 353.635251 79.210202 
L 354.785529 79.109712 
L 355.935808 77.473818 
L 358.236364 80.053447 
L 359.386643 75.332701 
L 360.536921 77.152216 
L 362.837477 77.711042 
L 363.987756 78.387613 
L 365.138034 78.921914 
L 367.438591 77.971601 
L 368.588869 79.464869 
L 369.739147 75.478212 
L 372.039704 75.231327 
L 373.189982 76.369251 
L 374.34026 77.973069 
L 376.640817 76.309968 
L 377.791095 76.811053 
L 378.941373 75.699619 
L 381.24193 77.390476 
L 382.392208 73.441465 
L 383.542487 74.381991 
L 385.843043 74.47755 
L 386.993322 73.733494 
L 388.1436 75.80018 
L 390.444156 72.967247 
L 391.594435 72.356929 
L 393.894991 74.282851 
L 395.04527 71.613486 
L 396.195548 72.63716 
L 398.496104 74.079981 
L 399.646383 72.213038 
L 400.796661 71.477004 
L 403.097218 74.691704 
L 404.247496 71.993592 
L 405.397774 70.509226 
L 407.698331 74.396307 
L 408.848609 71.336472 
L 409.998887 70.566888 
L 412.299444 72.188657 
L 413.449722 72.549256 
L 414.600001 74.723798 
L 416.900557 72.980334 
L 418.050835 74.608704 
L 420.351392 73.207916 
L 421.50167 74.396439 
L 422.651949 75.886281 
L 424.952505 77.437594 
L 427.253062 73.639088 
L 429.553618 74.765037 
L 430.703897 78.920016 
L 431.854175 77.701992 
L 434.154732 75.922087 
L 435.30501 76.740075 
L 437.605566 74.778284 
L 438.755845 73.601553 
L 439.906123 70.385838 
L 442.20668 72.643268 
L 443.356958 69.929943 
L 444.507236 69.063859 
L 446.807793 66.151575 
L 447.958071 63.461613 
L 449.108349 63.488426 
L 451.408906 56.478423 
L 452.559184 58.772744 
L 454.859741 61.052413 
L 456.010019 55.075347 
L 457.160297 54.676574 
L 459.460854 54.854155 
L 460.611132 54.549721 
L 461.761411 50.832656 
L 464.061967 51.636957 
L 465.212245 47.023478 
L 467.512802 44.681239 
L 468.66308 48.139636 
L 469.813359 46.543444 
L 472.113915 47.639321 
L 473.264194 41.764603 
L 474.414472 44.056037 
L 476.715028 42.894299 
L 477.865307 42.956383 
L 480.165863 43.790348 
L 481.316142 40.93804 
L 482.46642 44.270867 
L 484.766976 44.684556 
L 485.917255 39.164247 
L 487.067533 39.52356 
L 489.36809 40.912355 
L 490.518368 38.323718 
L 492.818925 41.689288 
L 493.969203 39.647613 
L 495.119481 39.649522 
L 497.420038 38.894206 
L 498.570316 35.194221 
L 499.720594 38.028029 
L 502.021151 39.606517 
L 503.171429 41.536282 
L 505.471986 38.376208 
L 506.622264 37.904188 
L 507.772542 37.931852 
L 510.073099 37.191882 
L 511.223377 36.233047 
L 512.373655 38.377097 
L 514.674212 38.755892 
L 515.82449 36.952919 
L 518.125047 34.898366 
L 519.275325 32.398125 
L 520.425604 35.506519 
L 522.72616 39.403837 
L 523.876438 34.501087 
L 526.176995 37.491284 
L 527.327273 36.429982 
L 528.477552 37.672747 
L 530.778108 34.736449 
L 531.928386 38.728384 
L 534.228943 38.025607 
L 535.379221 38.258183 
L 536.5295 36.360824 
L 538.830056 39.471624 
L 539.980335 39.828291 
L 541.130613 36.524284 
L 543.431169 37.693747 
L 544.581448 38.008557 
L 546.882004 38.361268 
L 548.032283 33.750009 
L 549.182561 38.959476 
L 551.483117 37.516465 
L 552.633396 37.060376 
L 554.933952 39.160361 
L 556.084231 39.579116 
L 557.234509 40.658302 
L 559.535066 38.061966 
L 560.685344 38.19033 
L 562.9859 43.520925 
L 564.136179 39.315298 
L 565.286457 42.568504 
L 567.587014 45.189082 
L 568.737292 43.048758 
L 571.037848 43.694766 
L 572.188127 43.570684 
L 573.338405 46.494883 
L 575.638962 41.502572 
L 576.78924 43.894165 
L 579.089796 47.589657 
L 580.240075 49.864902 
L 581.390353 47.603966 
L 583.69091 48.356391 
L 584.841188 48.26796 
L 587.141745 50.479558 
L 588.292023 50.309972 
L 589.442301 52.706566 
L 589.442301 52.706566 
" clip-path="url(#ped4242032c)" style="fill: none; stroke: #ff00ff; stroke-opacity: 0.5; stroke-width: 1.5; stroke-linecap: round"/>
   </g>
   <g id="line2d_17">
    <path d="M 82.169574 232.044391 
L 83.319852 233.998125 
L 85.620409 225.146841 
L 86.770687 226.846937 
L 87.920965 226.020907 
L 89.071244 221.996674 
L 91.3718 218.723512 
L 92.522079 215.00137 
L 93.672357 214.081982 
L 94.822635 213.38218 
L 97.123192 211.5808 
L 98.27347 204.843418 
L 99.423748 202.622346 
L 100.574027 200.07798 
L 102.874583 194.641841 
L 104.024861 190.747796 
L 105.17514 188.003163 
L 106.325418 186.203926 
L 108.625975 186.259257 
L 109.776253 181.301865 
L 110.926531 182.545853 
L 113.227088 175.192248 
L 114.377366 179.549483 
L 115.527644 178.692771 
L 116.677923 171.969746 
L 118.978479 171.787919 
L 120.128758 168.103928 
L 121.279036 165.987403 
L 122.429314 165.982394 
L 124.729871 162.871467 
L 125.880149 159.923373 
L 127.030427 158.729911 
L 130.481262 152.441482 
L 131.63154 152.639207 
L 132.781819 148.493711 
L 135.082375 146.326457 
L 136.232654 143.830422 
L 137.382932 144.071566 
L 138.53321 144.176436 
L 140.833767 141.722802 
L 141.984045 138.107776 
L 143.134323 138.139676 
L 144.284602 137.485584 
L 146.585158 134.891745 
L 147.735437 138.983702 
L 148.885715 136.198614 
L 151.186271 137.878349 
L 152.33655 136.112708 
L 153.486828 136.042226 
L 154.637106 138.831527 
L 156.937663 137.296746 
L 158.087941 138.295676 
L 159.23822 136.622187 
L 160.388498 137.314685 
L 162.689054 138.544746 
L 163.839333 139.401143 
L 164.989611 142.627994 
L 167.290168 144.171843 
L 168.440446 143.692983 
L 169.590724 143.88047 
L 170.741002 145.865604 
L 173.041559 147.413311 
L 174.191837 150.119886 
L 175.342116 153.269388 
L 177.642672 154.192989 
L 178.79295 155.55029 
L 179.943229 159.030471 
L 181.093507 156.493778 
L 183.394064 162.243539 
L 184.544342 163.167476 
L 185.69462 163.118349 
L 189.145455 156.67394 
L 190.295733 151.815113 
L 191.446012 149.59853 
L 193.746568 145.975523 
L 194.896847 139.168241 
L 196.047125 136.299244 
L 198.347681 129.81184 
L 199.49796 131.33049 
L 200.648238 126.330055 
L 201.798516 122.15674 
L 204.099073 119.187377 
L 205.249351 118.764642 
L 206.39963 119.236498 
L 208.700186 114.860852 
L 209.850464 118.346692 
L 211.000743 118.298905 
L 212.151021 119.193838 
L 214.451578 122.295575 
L 215.601856 124.775541 
L 216.752134 128.627281 
L 219.052691 131.540293 
L 220.202969 136.399786 
L 221.353247 139.584128 
L 222.503526 142.376132 
L 225.954361 149.140084 
L 227.104639 153.208792 
L 229.405195 154.871829 
L 230.555474 159.832493 
L 234.006309 162.609259 
L 235.156587 164.743064 
L 236.306865 159.698741 
L 237.457143 162.321297 
L 239.7577 161.476108 
L 240.907978 159.670829 
L 242.058257 161.863488 
L 244.358813 165.55623 
L 245.509091 167.958487 
L 246.65937 163.756676 
L 248.959926 165.957381 
L 250.110205 165.319967 
L 251.260483 165.685206 
L 252.410761 165.367726 
L 254.711318 165.345928 
L 255.861596 167.177254 
L 257.011874 169.385003 
L 259.312431 171.571972 
L 260.462709 170.456185 
L 261.612988 172.116193 
L 263.913544 170.676653 
L 265.063822 169.149463 
L 266.214101 171.841229 
L 268.514657 165.839847 
L 269.664936 169.495176 
L 270.815214 165.502502 
L 271.965492 164.222785 
L 274.266049 160.363883 
L 275.416327 161.427993 
L 276.566605 159.744448 
L 278.867162 155.594477 
L 280.01744 155.287335 
L 281.167719 152.708439 
L 283.468275 150.287843 
L 284.618553 146.24817 
L 285.768832 144.871949 
L 288.069388 141.142143 
L 289.219667 143.576597 
L 290.369945 138.828509 
L 292.670502 136.113472 
L 293.82078 136.28464 
L 294.971058 133.476913 
L 296.121336 133.096653 
L 298.421893 130.633143 
L 299.572171 130.037027 
L 300.72245 129.315231 
L 303.023006 131.057719 
L 304.173284 127.780106 
L 305.323563 128.339752 
L 307.624119 128.696533 
L 308.774398 129.579531 
L 309.924676 125.272595 
L 312.225232 126.945553 
L 313.375511 125.519081 
L 314.525789 124.500998 
L 316.826346 119.590775 
L 317.976624 120.510141 
L 319.126902 118.698277 
L 321.427459 114.762341 
L 322.577737 113.034173 
L 323.728015 109.893297 
L 326.028572 109.697381 
L 327.17885 104.245807 
L 328.329129 101.205437 
L 330.629685 97.634297 
L 331.779963 97.151709 
L 332.930242 94.207796 
L 335.230798 92.102809 
L 336.381077 91.65326 
L 337.531355 90.661355 
L 339.831912 87.384299 
L 340.98219 82.743607 
L 342.132468 86.291299 
L 344.433025 81.133686 
L 345.583303 83.113175 
L 346.733581 79.819294 
L 349.034138 79.105672 
L 350.184416 83.800667 
L 351.334694 77.231897 
L 353.635251 77.722122 
L 354.785529 78.867886 
L 355.935808 77.570351 
L 358.236364 80.59493 
L 359.386643 75.061567 
L 360.536921 80.593742 
L 362.837477 76.646384 
L 363.987756 77.415516 
L 365.138034 75.548093 
L 367.438591 75.586876 
L 368.588869 77.592293 
L 369.739147 77.753961 
L 372.039704 77.249564 
L 373.189982 76.861207 
L 374.34026 78.939067 
L 376.640817 75.89093 
L 377.791095 77.53513 
L 378.941373 77.593992 
L 381.24193 78.249117 
L 382.392208 74.585419 
L 383.542487 74.201865 
L 385.843043 74.592248 
L 386.993322 74.413312 
L 388.1436 71.427285 
L 390.444156 73.209594 
L 391.594435 72.984082 
L 393.894991 72.701824 
L 395.04527 74.032022 
L 396.195548 72.425028 
L 398.496104 73.598687 
L 399.646383 71.258446 
L 400.796661 72.564714 
L 403.097218 73.650401 
L 404.247496 69.902195 
L 405.397774 72.967962 
L 407.698331 72.521062 
L 408.848609 71.460108 
L 409.998887 74.085916 
L 412.299444 69.723921 
L 413.449722 70.453951 
L 414.600001 73.820563 
L 416.900557 75.286222 
L 418.050835 75.770806 
L 420.351392 74.072542 
L 421.50167 75.631065 
L 422.651949 76.382885 
L 424.952505 76.270685 
L 426.102784 75.636975 
L 427.253062 74.727897 
L 429.553618 78.685633 
L 430.703897 79.030974 
L 431.854175 75.271393 
L 434.154732 72.606257 
L 435.30501 76.205775 
L 437.605566 78.428373 
L 439.906123 73.849586 
L 442.20668 70.643602 
L 443.356958 70.050272 
L 444.507236 67.458798 
L 446.807793 65.35334 
L 447.958071 62.446348 
L 449.108349 60.297694 
L 451.408906 60.18374 
L 452.559184 59.064373 
L 454.859741 58.734176 
L 456.010019 54.691332 
L 457.160297 56.658472 
L 459.460854 55.841535 
L 460.611132 54.335811 
L 461.761411 50.993548 
L 464.061967 53.156119 
L 465.212245 50.663152 
L 467.512802 48.638176 
L 468.66308 48.63689 
L 469.813359 46.049531 
L 472.113915 46.780762 
L 474.414472 44.075894 
L 476.715028 42.781228 
L 477.865307 42.45214 
L 480.165863 40.407112 
L 481.316142 41.531554 
L 482.46642 39.185646 
L 484.766976 39.502213 
L 485.917255 39.384257 
L 487.067533 41.525714 
L 489.36809 39.740049 
L 490.518368 41.237415 
L 493.969203 40.073892 
L 495.119481 37.994423 
L 497.420038 40.77723 
L 498.570316 36.938609 
L 499.720594 40.67279 
L 502.021151 42.985484 
L 503.171429 42.45523 
L 505.471986 38.647327 
L 506.622264 34.116299 
L 507.772542 37.581436 
L 510.073099 34.905819 
L 512.373655 37.794545 
L 514.674212 37.816377 
L 515.82449 35.557034 
L 518.125047 34.378006 
L 519.275325 36.481267 
L 520.425604 35.748435 
L 522.72616 36.158468 
L 523.876438 37.521597 
L 526.176995 35.508989 
L 527.327273 38.754505 
L 528.477552 37.707685 
L 530.778108 36.938292 
L 531.928386 39.528206 
L 534.228943 40.435618 
L 535.379221 35.940895 
L 536.5295 35.984941 
L 538.830056 38.494072 
L 539.980335 36.246314 
L 541.130613 37.053879 
L 543.431169 37.901342 
L 544.581448 39.363735 
L 546.882004 37.516841 
L 549.182561 39.20996 
L 551.483117 37.087454 
L 552.633396 36.889131 
L 554.933952 36.233748 
L 556.084231 37.58702 
L 557.234509 35.275385 
L 559.535066 40.101465 
L 560.685344 38.026417 
L 562.9859 39.238305 
L 564.136179 38.949293 
L 565.286457 40.226044 
L 567.587014 41.020996 
L 568.737292 41.735798 
L 571.037848 43.595258 
L 572.188127 42.124241 
L 573.338405 44.829138 
L 575.638962 42.904915 
L 576.78924 45.418868 
L 579.089796 43.618575 
L 580.240075 46.898982 
L 581.390353 46.785158 
L 583.69091 47.754848 
L 584.841188 49.74738 
L 587.141745 50.098266 
L 588.292023 50.004392 
L 589.442301 54.261073 
L 589.442301 54.261073 
" clip-path="url(#ped4242032c)" style="fill: none; stroke: #ff00ff; stroke-opacity: 0.5; stroke-width: 1.5; stroke-linecap: round"/>
   </g>
   <g id="line2d_18">
    <path d="M 82.169574 232.019365 
L 83.319852 230.034744 
L 85.620409 227.272787 
L 89.071244 220.528405 
L 91.3718 217.611316 
L 92.522079 214.723558 
L 94.822635 209.887449 
L 97.123192 206.42582 
L 100.574027 196.350448 
L 102.874583 193.303037 
L 104.024861 190.419005 
L 106.325418 186.683382 
L 108.625975 185.083719 
L 109.776253 183.437299 
L 110.926531 181.296611 
L 113.227088 179.041753 
L 115.527644 174.681511 
L 116.677923 172.641674 
L 118.978479 170.572903 
L 120.128758 168.911566 
L 122.429314 165.168152 
L 124.729871 162.841337 
L 127.030427 158.230225 
L 128.180706 155.580748 
L 130.481262 153.173783 
L 132.781819 148.963989 
L 135.082375 146.987471 
L 136.232654 145.301985 
L 137.382932 143.33747 
L 138.53321 141.786264 
L 140.833767 140.644925 
L 141.984045 139.599833 
L 144.284602 138.921408 
L 146.585158 138.637343 
L 147.735437 138.285137 
L 151.186271 138.436977 
L 153.486828 138.150677 
L 154.637106 138.113953 
L 156.937663 138.609524 
L 158.087941 139.217617 
L 159.23822 139.967435 
L 160.388498 141.046409 
L 162.689054 142.113753 
L 163.839333 142.831491 
L 164.989611 143.841738 
L 167.290168 145.054452 
L 168.440446 146.627435 
L 169.590724 147.960386 
L 170.741002 149.762979 
L 173.041559 151.647195 
L 174.191837 153.893575 
L 175.342116 155.650554 
L 177.642672 157.287597 
L 178.79295 159.120881 
L 179.943229 160.666667 
L 181.093507 161.46202 
L 183.394064 161.972897 
L 184.544342 161.75771 
L 185.69462 160.312427 
L 187.995177 157.728376 
L 190.295733 150.357671 
L 191.446012 146.226053 
L 193.746568 141.752005 
L 194.896847 137.036072 
L 196.047125 132.909982 
L 198.347681 129.213343 
L 199.49796 125.76184 
L 200.648238 123.033357 
L 201.798516 121.063167 
L 205.249351 119.15795 
L 206.39963 118.80401 
L 208.700186 119.294624 
L 209.850464 120.479685 
L 211.000743 122.091436 
L 212.151021 124.070443 
L 214.451578 126.653201 
L 216.752134 133.172902 
L 219.052691 136.824266 
L 222.503526 147.074308 
L 224.804082 150.46701 
L 227.104639 157.080868 
L 229.405195 159.818754 
L 230.555474 161.718396 
L 231.705752 163.064898 
L 234.006309 163.953518 
L 236.306865 164.056818 
L 237.457143 163.65872 
L 239.7577 163.821112 
L 240.907978 164.038176 
L 242.058257 164.606225 
L 244.358813 165.317781 
L 246.65937 166.792496 
L 248.959926 167.253493 
L 252.410761 169.79197 
L 254.711318 170.638079 
L 255.861596 171.554122 
L 257.011874 171.789929 
L 260.462709 172.092836 
L 261.612988 171.837635 
L 263.913544 171.624615 
L 266.214101 169.604418 
L 268.514657 168.333441 
L 270.815214 165.389948 
L 271.965492 163.642738 
L 274.266049 162.208241 
L 276.566605 158.825865 
L 278.867162 156.731133 
L 281.167719 152.015859 
L 283.468275 149.582121 
L 285.768832 144.5282 
L 288.069388 142.219783 
L 290.369945 138.398778 
L 292.670502 137.045684 
L 294.971058 134.999839 
L 296.121336 134.18398 
L 298.421893 133.052701 
L 299.572171 132.050669 
L 300.72245 131.348956 
L 303.023006 130.86929 
L 305.323563 130.057178 
L 307.624119 129.454678 
L 308.774398 128.575087 
L 309.924676 127.49086 
L 312.225232 126.322919 
L 314.525789 123.506741 
L 316.826346 121.571486 
L 319.126902 117.357718 
L 321.427459 115.039009 
L 323.728015 109.685682 
L 326.028572 107.105373 
L 328.329129 101.777797 
L 330.629685 99.177545 
L 332.930242 94.350091 
L 335.230798 92.375187 
L 337.531355 88.911468 
L 339.831912 87.332147 
L 340.98219 85.726959 
L 342.132468 84.378191 
L 344.433025 83.014217 
L 345.583303 82.039758 
L 346.733581 81.258896 
L 349.034138 80.650723 
L 350.184416 80.085808 
L 351.334694 79.792117 
L 360.536921 78.792338 
L 363.987756 78.81527 
L 369.739147 78.045714 
L 373.189982 77.954018 
L 374.34026 77.752694 
L 376.640817 77.475087 
L 381.24193 76.325463 
L 382.392208 75.767127 
L 383.542487 75.37628 
L 390.444156 74.534762 
L 391.594435 74.212801 
L 400.796661 72.976954 
L 403.097218 72.880042 
L 407.698331 73.297014 
L 409.998887 73.828244 
L 413.449722 74.284067 
L 414.600001 74.582333 
L 416.900557 74.952956 
L 418.050835 75.39631 
L 421.50167 76.003466 
L 422.651949 76.368067 
L 426.102784 76.878772 
L 427.253062 77.205549 
L 429.553618 77.499322 
L 430.703897 77.785183 
L 431.854175 77.93432 
L 434.154732 77.719914 
L 435.30501 77.172779 
L 437.605566 76.386545 
L 438.755845 75.236845 
L 439.906123 73.853462 
L 442.20668 72.208598 
L 444.507236 68.478864 
L 446.807793 66.51338 
L 449.108349 62.808307 
L 451.408906 61.179929 
L 452.559184 59.781553 
L 454.859741 58.447134 
L 457.160297 56.159447 
L 459.460854 55.033952 
L 460.611132 53.837701 
L 461.761411 52.82812 
L 464.061967 51.852473 
L 465.212245 50.895627 
L 467.512802 49.98308 
L 469.813359 48.097708 
L 472.113915 47.143771 
L 473.264194 46.159446 
L 474.414472 45.352994 
L 476.715028 44.656316 
L 477.865307 44.115369 
L 480.165863 43.61237 
L 482.46642 42.824473 
L 484.766976 42.394078 
L 487.067533 41.746578 
L 490.518368 41.342843 
L 493.969203 40.853941 
L 495.119481 40.667533 
L 497.420038 40.516876 
L 503.171429 39.327656 
L 511.223377 38.311458 
L 512.373655 38.083263 
L 514.674212 37.798842 
L 515.82449 37.533941 
L 519.275325 37.215183 
L 522.72616 37.39327 
L 523.876438 37.631763 
L 526.176995 37.921511 
L 527.327273 38.224464 
L 531.928386 38.897365 
L 535.379221 39.074771 
L 538.830056 39.216592 
L 549.182561 39.205439 
L 551.483117 39.401225 
L 552.633396 39.618103 
L 556.084231 40.074165 
L 559.535066 40.6123 
L 560.685344 41.133475 
L 562.9859 41.725401 
L 565.286457 42.901718 
L 567.587014 43.438244 
L 568.737292 43.984871 
L 571.037848 44.463165 
L 573.338405 45.396144 
L 575.638962 45.928721 
L 576.78924 46.557491 
L 579.089796 47.260042 
L 581.390353 48.582422 
L 583.69091 49.337348 
L 584.841188 50.13719 
L 587.141745 51.080831 
L 589.442301 52.88595 
L 589.442301 52.88595 
" clip-path="url(#ped4242032c)" style="fill: none; stroke: #000080; stroke-width: 1.5; stroke-linecap: round"/>
   </g>
   <g id="patch_3">
    <path d="M 56.805938 244.078125 
L 56.805938 22.318125 
" style="fill: none; stroke: #cccccc; stroke-width: 1.25; stroke-linejoin: miter; stroke-linecap: square"/>
   </g>
   <g id="patch_4">
    <path d="M 614.805938 244.078125 
L 614.805938 22.318125 
" style="fill: none; stroke: #cccccc; stroke-width: 1.25; stroke-linejoin: miter; stroke-linecap: square"/>
   </g>
   <g id="patch_5">
    <path d="M 56.805938 244.078125 
L 614.805938 244.078125 
" style="fill: none; stroke: #cccccc; stroke-width: 1.25; stroke-linejoin: miter; stroke-linecap: square"/>
   </g>
   <g id="patch_6">
    <path d="M 56.805938 22.318125 
L 614.805938 22.318125 
" style="fill: none; stroke: #cccccc; stroke-width: 1.25; stroke-linejoin: miter; stroke-linecap: square"/>
   </g>
   <g id="text_15">
    <!-- Augmented spectra -->
    <g style="fill: #262626" transform="translate(276.57 16.318125) scale(0.12 -0.12)">
     <defs>
      <path id="DejaVuSans-67" d="M 2906 1791 
Q 2906 2416 2648 2759 
Q 2391 3103 1925 3103 
Q 1463 3103 1205 2759 
Q 947 2416 947 1791 
Q 947 1169 1205 825 
Q 1463 481 1925 481 
Q 2391 481 2648 825 
Q 2906 1169 2906 1791 
z
M 3481 434 
Q 3481 -459 3084 -895 
Q 2688 -1331 1869 -1331 
Q 1566 -1331 1297 -1286 
Q 1028 -1241 775 -1147 
L 775 -588 
Q 1028 -725 1275 -790 
Q 1522 -856 1778 -856 
Q 2344 -856 2625 -561 
Q 2906 -266 2906 331 
L 2906 616 
Q 2728 306 2450 153 
Q 2172 0 1784 0 
Q 1141 0 747 490 
Q 353 981 353 1791 
Q 353 2603 747 3093 
Q 1141 3584 1784 3584 
Q 2172 3584 2450 3431 
Q 2728 3278 2906 2969 
L 2906 3500 
L 3481 3500 
L 3481 434 
z
" transform="scale(0.015625)"/>
      <path id="DejaVuSans-74" d="M 1172 4494 
L 1172 3500 
L 2356 3500 
L 2356 3053 
L 1172 3053 
L 1172 1153 
Q 1172 725 1289 603 
Q 1406 481 1766 481 
L 2356 481 
L 2356 0 
L 1766 0 
Q 1100 0 847 248 
Q 594 497 594 1153 
L 594 3053 
L 172 3053 
L 172 3500 
L 594 3500 
L 594 4494 
L 1172 4494 
z
" transform="scale(0.015625)"/>
      <path id="DejaVuSans-64" d="M 2906 2969 
L 2906 4863 
L 3481 4863 
L 3481 0 
L 2906 0 
L 2906 525 
Q 2725 213 2448 61 
Q 2172 -91 1784 -91 
Q 1150 -91 751 415 
Q 353 922 353 1747 
Q 353 2572 751 3078 
Q 1150 3584 1784 3584 
Q 2172 3584 2448 3432 
Q 2725 3281 2906 2969 
z
M 947 1747 
Q 947 1113 1208 752 
Q 1469 391 1925 391 
Q 2381 391 2643 752 
Q 2906 1113 2906 1747 
Q 2906 2381 2643 2742 
Q 2381 3103 1925 3103 
Q 1469 3103 1208 2742 
Q 947 2381 947 1747 
z
" transform="scale(0.015625)"/>
      <path id="DejaVuSans-70" d="M 1159 525 
L 1159 -1331 
L 581 -1331 
L 581 3500 
L 1159 3500 
L 1159 2969 
Q 1341 3281 1617 3432 
Q 1894 3584 2278 3584 
Q 2916 3584 3314 3078 
Q 3713 2572 3713 1747 
Q 3713 922 3314 415 
Q 2916 -91 2278 -91 
Q 1894 -91 1617 61 
Q 1341 213 1159 525 
z
M 3116 1747 
Q 3116 2381 2855 2742 
Q 2594 3103 2138 3103 
Q 1681 3103 1420 2742 
Q 1159 2381 1159 1747 
Q 1159 1113 1420 752 
Q 1681 391 2138 391 
Q 2594 391 2855 752 
Q 3116 1113 3116 1747 
z
" transform="scale(0.015625)"/>
     </defs>
     <use xlink:href="#DejaVuSans-41"/>
     <use xlink:href="#DejaVuSans-75" x="68.408203"/>
     <use xlink:href="#DejaVuSans-67" x="131.787109"/>
     <use xlink:href="#DejaVuSans-6d" x="195.263672"/>
     <use xlink:href="#DejaVuSans-65" x="292.675781"/>
     <use xlink:href="#DejaVuSans-6e" x="354.199219"/>
     <use xlink:href="#DejaVuSans-74" x="417.578125"/>
     <use xlink:href="#DejaVuSans-65" x="456.787109"/>
     <use xlink:href="#DejaVuSans-64" x="518.310547"/>
     <use xlink:href="#DejaVuSans-20" x="581.787109"/>
     <use xlink:href="#DejaVuSans-73" x="613.574219"/>
     <use xlink:href="#DejaVuSans-70" x="665.673828"/>
     <use xlink:href="#DejaVuSans-65" x="729.150391"/>
     <use xlink:href="#DejaVuSans-63" x="790.673828"/>
     <use xlink:href="#DejaVuSans-74" x="845.654297"/>
     <use xlink:href="#DejaVuSans-72" x="884.863281"/>
     <use xlink:href="#DejaVuSans-61" x="925.976562"/>
    </g>
   </g>
  </g>
 </g>
 <defs>
  <clipPath id="ped4242032c">
   <rect x="56.805938" y="22.318125" width="558" height="221.76"/>
  </clipPath>
 </defs>
</svg>
